999
"DXF R12 Output" (www.mydxf.blogspot.com)
 0 
SECTION
 2 
HEADER
 9 
$ACADVER
 1 
AC1009
 9 
$EXTMIN
 10 
 0 
 20 
 0 
 9 
$EXTMAX
 10 
 8.5 
 20 
 11 
 0 
ENDSEC
 0 
SECTION
 2 
ENTITIES
0
LINE
8
Layer 1
10
7749.760000
20
-536.353000
11
7749.760000
21
-367.019000
0
LINE
8
Layer 1
10
7749.760000
20
-367.019000
11
7919.090000
21
-367.019000
0
LINE
8
Layer 1
10
7919.090000
20
-367.019000
11
7919.090000
21
-536.353000
0
LINE
8
Layer 1
10
7919.090000
20
-536.353000
11
7749.760000
21
-536.353000
0
LINE
8
Layer 1
10
1328.420000
20
-4053.700000
11
1337.860330
21
-4055.111110
0
LINE
8
Layer 1
10
1337.860330
20
-4055.111110
11
1347.114390
21
-4057.425330
0
LINE
8
Layer 1
10
1347.114390
20
-4057.425330
11
1356.097520
21
-4060.642660
0
LINE
8
Layer 1
10
1356.097520
20
-4060.642660
11
1364.722220
21
-4064.706660
0
LINE
8
Layer 1
10
1364.722220
20
-4064.706660
11
1372.906660
21
-4069.617320
0
LINE
8
Layer 1
10
1372.906660
20
-4069.617320
11
1380.568990
21
-4075.318200
0
LINE
8
Layer 1
10
1380.568990
20
-4075.318200
11
1387.638650
21
-4081.724640
0
LINE
8
Layer 1
10
1387.638650
20
-4081.724640
11
1394.045090
21
-4088.780190
0
LINE
8
Layer 1
10
1394.045090
20
-4088.780190
11
1399.729040
21
-4096.456630
0
LINE
8
Layer 1
10
1399.729040
20
-4096.456630
11
1404.634060
21
-4104.641070
0
LINE
8
Layer 1
10
1404.634060
20
-4104.641070
11
1408.712170
21
-4113.248840
0
LINE
8
Layer 1
10
1408.712170
20
-4113.248840
11
1411.926680
21
-4122.223500
0
LINE
8
Layer 1
10
1411.926680
20
-4122.223500
11
1414.246540
21
-4131.480380
0
LINE
8
Layer 1
10
1414.246540
20
-4131.480380
11
1415.646360
21
-4140.934820
0
LINE
8
Layer 1
10
1415.646360
20
-4140.934820
11
1416.114849
21
-4150.445700
0
LINE
8
Layer 1
10
1416.114849
20
-4150.445700
11
1416.110000
21
-4344.900000
0
LINE
8
Layer 1
10
1416.110000
20
-4344.900000
11
1415.641511
21
-4354.439100
0
LINE
8
Layer 1
10
1415.641511
20
-4354.439100
11
1414.241691
21
-4363.865310
0
LINE
8
Layer 1
10
1414.241691
20
-4363.865310
11
1411.921831
21
-4373.122190
0
LINE
8
Layer 1
10
1411.921831
20
-4373.122190
11
1408.707321
21
-4382.125070
0
LINE
8
Layer 1
10
1408.707321
20
-4382.125070
11
1404.629211
21
-4390.732840
0
LINE
8
Layer 1
10
1404.629211
20
-4390.732840
11
1399.724191
21
-4398.917280
0
LINE
8
Layer 1
10
1399.724191
20
-4398.917280
11
1394.040241
21
-4406.593720
0
LINE
8
Layer 1
10
1394.040241
20
-4406.593720
11
1387.633801
21
-4413.649270
0
LINE
8
Layer 1
10
1387.633801
20
-4413.649270
11
1380.564141
21
-4420.055710
0
LINE
8
Layer 1
10
1380.564141
20
-4420.055710
11
1372.901811
21
-4425.756590
0
LINE
8
Layer 1
10
1372.901811
20
-4425.756590
11
1364.717371
21
-4430.639030
0
LINE
8
Layer 1
10
1364.717371
20
-4430.639030
11
1356.092671
21
-4434.731250
0
LINE
8
Layer 1
10
1356.092671
20
-4434.731250
11
1347.109541
21
-4437.948580
0
LINE
8
Layer 1
10
1347.109541
20
-4437.948580
11
1337.855481
21
-4440.262800
0
LINE
8
Layer 1
10
1337.855481
20
-4440.262800
11
1328.415151
21
-4441.673910
0
LINE
8
Layer 1
10
1328.415151
20
-4441.673910
11
1318.887341
21
-4442.125465
0
LINE
8
Layer 1
10
1318.887341
20
-4442.125465
11
1124.440000
21
-4442.120000
0
LINE
8
Layer 1
10
1124.440000
20
-4442.120000
11
1114.912190
21
-4441.668445
0
LINE
8
Layer 1
10
1114.912190
20
-4441.668445
11
1105.474690
21
-4440.257335
0
LINE
8
Layer 1
10
1105.474690
20
-4440.257335
11
1096.217810
21
-4437.943115
0
LINE
8
Layer 1
10
1096.217810
20
-4437.943115
11
1087.234680
21
-4434.725785
0
LINE
8
Layer 1
10
1087.234680
20
-4434.725785
11
1078.609980
21
-4430.633565
0
LINE
8
Layer 1
10
1078.609980
20
-4430.633565
11
1070.425540
21
-4425.751125
0
LINE
8
Layer 1
10
1070.425540
20
-4425.751125
11
1062.763210
21
-4420.050245
0
LINE
8
Layer 1
10
1062.763210
20
-4420.050245
11
1055.693550
21
-4413.643805
0
LINE
8
Layer 1
10
1055.693550
20
-4413.643805
11
1049.287110
21
-4406.588255
0
LINE
8
Layer 1
10
1049.287110
20
-4406.588255
11
1043.603160
21
-4398.911815
0
LINE
8
Layer 1
10
1043.603160
20
-4398.911815
11
1038.698140
21
-4390.727375
0
LINE
8
Layer 1
10
1038.698140
20
-4390.727375
11
1034.620030
21
-4382.119605
0
LINE
8
Layer 1
10
1034.620030
20
-4382.119605
11
1031.405520
21
-4373.116725
0
LINE
8
Layer 1
10
1031.405520
20
-4373.116725
11
1029.085660
21
-4363.859845
0
LINE
8
Layer 1
10
1029.085660
20
-4363.859845
11
1027.685840
21
-4354.433635
0
LINE
8
Layer 1
10
1027.685840
20
-4354.433635
11
1027.217351
21
-4344.894535
0
LINE
8
Layer 1
10
1027.217351
20
-4344.894535
11
1027.220000
21
-4150.450000
0
LINE
8
Layer 1
10
1027.220000
20
-4150.450000
11
1027.688489
21
-4140.939120
0
LINE
8
Layer 1
10
1027.688489
20
-4140.939120
11
1029.088309
21
-4131.484680
0
LINE
8
Layer 1
10
1029.088309
20
-4131.484680
11
1031.408169
21
-4122.227800
0
LINE
8
Layer 1
10
1031.408169
20
-4122.227800
11
1034.622679
21
-4113.253140
0
LINE
8
Layer 1
10
1034.622679
20
-4113.253140
11
1038.700789
21
-4104.645370
0
LINE
8
Layer 1
10
1038.700789
20
-4104.645370
11
1043.605809
21
-4096.460930
0
LINE
8
Layer 1
10
1043.605809
20
-4096.460930
11
1049.289759
21
-4088.784490
0
LINE
8
Layer 1
10
1049.289759
20
-4088.784490
11
1055.696199
21
-4081.728940
0
LINE
8
Layer 1
10
1055.696199
20
-4081.728940
11
1062.765859
21
-4075.322500
0
LINE
8
Layer 1
10
1062.765859
20
-4075.322500
11
1070.428189
21
-4069.621620
0
LINE
8
Layer 1
10
1070.428189
20
-4069.621620
11
1078.612629
21
-4064.710960
0
LINE
8
Layer 1
10
1078.612629
20
-4064.710960
11
1087.237329
21
-4060.646960
0
LINE
8
Layer 1
10
1087.237329
20
-4060.646960
11
1096.220459
21
-4057.429630
0
LINE
8
Layer 1
10
1096.220459
20
-4057.429630
11
1105.477339
21
-4055.115410
0
LINE
8
Layer 1
10
1105.477339
20
-4055.115410
11
1114.914839
21
-4053.704300
0
LINE
8
Layer 1
10
1114.914839
20
-4053.704300
11
1124.442649
21
-4053.252745
0
LINE
8
Layer 1
10
1124.442649
20
-4053.252745
11
1318.890000
21
-4053.250000
0
LINE
8
Layer 1
10
1318.890000
20
-4053.250000
11
1328.420000
21
-4053.700000
0
LINE
8
Layer 1
10
979.835000
20
-3531.420000
11
987.923480
21
-3532.605330
0
LINE
8
Layer 1
10
987.923480
20
-3532.605330
11
995.856740
21
-3534.609110
0
LINE
8
Layer 1
10
995.856740
20
-3534.609110
11
1003.555760
21
-3537.346660
0
LINE
8
Layer 1
10
1003.555760
20
-3537.346660
11
1010.949980
21
-3540.846210
0
LINE
8
Layer 1
10
1010.949980
20
-3540.846210
11
1017.963200
21
-3545.051320
0
LINE
8
Layer 1
10
1017.963200
20
-3545.051320
11
1024.530510
21
-3549.933760
0
LINE
8
Layer 1
10
1024.530510
20
-3549.933760
11
1030.592640
21
-3555.437090
0
LINE
8
Layer 1
10
1030.592640
20
-3555.437090
11
1036.081860
21
-3561.476640
0
LINE
8
Layer 1
10
1036.081860
20
-3561.476640
11
1040.955830
21
-3568.052410
0
LINE
8
Layer 1
10
1040.955830
20
-3568.052410
11
1045.158120
21
-3575.079740
0
LINE
8
Layer 1
10
1045.158120
20
-3575.079740
11
1048.654850
21
-3582.445730
0
LINE
8
Layer 1
10
1048.654850
20
-3582.445730
11
1051.409340
21
-3590.150390
0
LINE
8
Layer 1
10
1051.409340
20
-3590.150390
11
1053.399010
21
-3598.080830
0
LINE
8
Layer 1
10
1053.399010
20
-3598.080830
11
1054.598450
21
-3606.180600
0
LINE
8
Layer 1
10
1054.598450
20
-3606.180600
11
1054.999205
21
-3614.336820
0
LINE
8
Layer 1
10
1054.999205
20
-3614.336820
11
1055.000000
21
-3836.560000
0
LINE
8
Layer 1
10
1055.000000
20
-3836.560000
11
1054.599245
21
-3844.744440
0
LINE
8
Layer 1
10
1054.599245
20
-3844.744440
11
1053.399805
21
-3852.815990
0
LINE
8
Layer 1
10
1053.399805
20
-3852.815990
11
1051.410135
21
-3860.774650
0
LINE
8
Layer 1
10
1051.410135
20
-3860.774650
11
1048.655645
21
-3868.451090
0
LINE
8
Layer 1
10
1048.655645
20
-3868.451090
11
1045.158915
21
-3875.845310
0
LINE
8
Layer 1
10
1045.158915
20
-3875.845310
11
1040.956625
21
-3882.872640
0
LINE
8
Layer 1
10
1040.956625
20
-3882.872640
11
1036.082655
21
-3889.448410
0
LINE
8
Layer 1
10
1036.082655
20
-3889.448410
11
1030.593435
21
-3895.487960
0
LINE
8
Layer 1
10
1030.593435
20
-3895.487960
11
1024.531305
21
-3900.991290
0
LINE
8
Layer 1
10
1024.531305
20
-3900.991290
11
1017.963995
21
-3905.873730
0
LINE
8
Layer 1
10
1017.963995
20
-3905.873730
11
1010.950775
21
-3910.078840
0
LINE
8
Layer 1
10
1010.950775
20
-3910.078840
11
1003.556555
21
-3913.550170
0
LINE
8
Layer 1
10
1003.556555
20
-3913.550170
11
995.857535
21
-3916.315950
0
LINE
8
Layer 1
10
995.857535
20
-3916.315950
11
987.924275
21
-3918.291500
0
LINE
8
Layer 1
10
987.924275
20
-3918.291500
11
979.835795
21
-3919.505050
0
LINE
8
Layer 1
10
979.835795
20
-3919.505050
11
971.665465
21
-3919.900161
0
LINE
8
Layer 1
10
971.665465
20
-3919.900161
11
804.999000
21
-3919.900000
0
LINE
8
Layer 1
10
804.999000
20
-3919.900000
11
796.831500
21
-3919.504889
0
LINE
8
Layer 1
10
796.831500
20
-3919.504889
11
788.743020
21
-3918.291339
0
LINE
8
Layer 1
10
788.743020
20
-3918.291339
11
780.809760
21
-3916.315789
0
LINE
8
Layer 1
10
780.809760
20
-3916.315789
11
773.110740
21
-3913.550009
0
LINE
8
Layer 1
10
773.110740
20
-3913.550009
11
765.716520
21
-3910.078679
0
LINE
8
Layer 1
10
765.716520
20
-3910.078679
11
758.703300
21
-3905.873569
0
LINE
8
Layer 1
10
758.703300
20
-3905.873569
11
752.133170
21
-3900.991129
0
LINE
8
Layer 1
10
752.133170
20
-3900.991129
11
746.073860
21
-3895.487799
0
LINE
8
Layer 1
10
746.073860
20
-3895.487799
11
740.581820
21
-3889.448249
0
LINE
8
Layer 1
10
740.581820
20
-3889.448249
11
735.710670
21
-3882.872479
0
LINE
8
Layer 1
10
735.710670
20
-3882.872479
11
731.505560
21
-3875.845149
0
LINE
8
Layer 1
10
731.505560
20
-3875.845149
11
728.008830
21
-3868.450929
0
LINE
8
Layer 1
10
728.008830
20
-3868.450929
11
725.254340
21
-3860.774489
0
LINE
8
Layer 1
10
725.254340
20
-3860.774489
11
723.267500
21
-3852.815829
0
LINE
8
Layer 1
10
723.267500
20
-3852.815829
11
722.068060
21
-3844.744279
0
LINE
8
Layer 1
10
722.068060
20
-3844.744279
11
721.667305
21
-3836.559839
0
LINE
8
Layer 1
10
721.667305
20
-3836.559839
11
721.667000
21
-3614.340000
0
LINE
8
Layer 1
10
721.667000
20
-3614.340000
11
722.067755
21
-3606.183780
0
LINE
8
Layer 1
10
722.067755
20
-3606.183780
11
723.267195
21
-3598.084010
0
LINE
8
Layer 1
10
723.267195
20
-3598.084010
11
725.254035
21
-3590.153570
0
LINE
8
Layer 1
10
725.254035
20
-3590.153570
11
728.008525
21
-3582.448910
0
LINE
8
Layer 1
10
728.008525
20
-3582.448910
11
731.505255
21
-3575.082920
0
LINE
8
Layer 1
10
731.505255
20
-3575.082920
11
735.710365
21
-3568.055590
0
LINE
8
Layer 1
10
735.710365
20
-3568.055590
11
740.581515
21
-3561.479820
0
LINE
8
Layer 1
10
740.581515
20
-3561.479820
11
746.073555
21
-3555.440270
0
LINE
8
Layer 1
10
746.073555
20
-3555.440270
11
752.132865
21
-3549.936940
0
LINE
8
Layer 1
10
752.132865
20
-3549.936940
11
758.702995
21
-3545.054500
0
LINE
8
Layer 1
10
758.702995
20
-3545.054500
11
765.716215
21
-3540.849390
0
LINE
8
Layer 1
10
765.716215
20
-3540.849390
11
773.110435
21
-3537.349840
0
LINE
8
Layer 1
10
773.110435
20
-3537.349840
11
780.809455
21
-3534.612290
0
LINE
8
Layer 1
10
780.809455
20
-3534.612290
11
788.742715
21
-3532.608510
0
LINE
8
Layer 1
10
788.742715
20
-3532.608510
11
796.831195
21
-3531.423180
0
LINE
8
Layer 1
10
796.831195
20
-3531.423180
11
804.998695
21
-3531.028069
0
LINE
8
Layer 1
10
804.998695
20
-3531.028069
11
971.665000
21
-3531.030000
0
LINE
8
Layer 1
10
971.665000
20
-3531.030000
11
979.835000
21
-3531.420000
0
LINE
8
Layer 1
10
1360.560000
20
-3919.900000
11
1360.560000
21
-3531.030000
0
LINE
8
Layer 1
10
1360.560000
20
-3531.030000
11
1749.440000
21
-3531.030000
0
LINE
8
Layer 1
10
1749.440000
20
-3531.030000
11
1749.440000
21
-3919.900000
0
LINE
8
Layer 1
10
1749.440000
20
-3919.900000
11
1360.560000
21
-3919.900000
0
LINE
8
Layer 1
10
3286.330000
20
-1223.460000
11
3097.440000
21
-1223.460000
0
LINE
8
Layer 1
10
3097.440000
20
-1223.460000
11
3097.440000
21
-1034.580000
0
LINE
8
Layer 1
10
3097.440000
20
-1034.580000
11
3286.330000
21
-1034.580000
0
LINE
8
Layer 1
10
3286.330000
20
-1034.580000
11
3286.330000
21
-1223.460000
0
LINE
8
Layer 1
10
1234.780000
20
-4816.350000
11
1423.670000
21
-4816.350000
0
LINE
8
Layer 1
10
1423.670000
20
-4816.350000
11
1423.670000
21
-5005.240000
0
LINE
8
Layer 1
10
1423.670000
20
-5005.240000
11
1234.780000
21
-5005.240000
0
LINE
8
Layer 1
10
1234.780000
20
-5005.240000
11
1234.780000
21
-4816.350000
0
LINE
8
Layer 1
10
1564.780000
20
-2699.690000
11
1564.780000
21
-2888.580000
0
LINE
8
Layer 1
10
1564.780000
20
-2888.580000
11
1375.890000
21
-2888.580000
0
LINE
8
Layer 1
10
1375.890000
20
-2888.580000
11
1375.890000
21
-2699.690000
0
LINE
8
Layer 1
10
1375.890000
20
-2699.690000
11
1564.780000
21
-2699.690000
0
LINE
8
Layer 1
10
6498.220000
20
-4816.350000
11
6687.110000
21
-4816.350000
0
LINE
8
Layer 1
10
6687.110000
20
-4816.350000
11
6687.110000
21
-5005.240000
0
LINE
8
Layer 1
10
6687.110000
20
-5005.240000
11
6498.220000
21
-5005.240000
0
LINE
8
Layer 1
10
6498.220000
20
-5005.240000
11
6498.220000
21
-4816.350000
0
LINE
8
Layer 1
10
9198.880000
20
-1675.020000
11
9009.990000
21
-1675.020000
0
LINE
8
Layer 1
10
9009.990000
20
-1675.020000
11
9009.990000
21
-1486.130000
0
LINE
8
Layer 1
10
9009.990000
20
-1486.130000
11
9198.880000
21
-1486.130000
0
LINE
8
Layer 1
10
9198.880000
20
-1486.130000
11
9198.880000
21
-1675.020000
0
LINE
8
Layer 1
10
9198.880000
20
-2662.800000
11
9009.990000
21
-2662.800000
0
LINE
8
Layer 1
10
9009.990000
20
-2662.800000
11
9009.990000
21
-2473.910000
0
LINE
8
Layer 1
10
9009.990000
20
-2473.910000
11
9198.880000
21
-2473.910000
0
LINE
8
Layer 1
10
9198.880000
20
-2473.910000
11
9198.880000
21
-2662.800000
0
LINE
8
Layer 1
10
1282.560000
20
-1711.910000
11
1282.560000
21
-1900.800000
0
LINE
8
Layer 1
10
1282.560000
20
-1900.800000
11
1093.670000
21
-1900.800000
0
LINE
8
Layer 1
10
1093.670000
20
-1900.800000
11
1093.670000
21
-1711.910000
0
LINE
8
Layer 1
10
1093.670000
20
-1711.910000
11
1282.560000
21
-1711.910000
0
LINE
8
Layer 1
10
1705.890000
20
-1711.910000
11
1705.890000
21
-1900.800000
0
LINE
8
Layer 1
10
1705.890000
20
-1900.800000
11
1517.000000
21
-1900.800000
0
LINE
8
Layer 1
10
1517.000000
20
-1900.800000
11
1517.000000
21
-1711.910000
0
LINE
8
Layer 1
10
1517.000000
20
-1711.910000
11
1705.890000
21
-1711.910000
0
LINE
8
Layer 1
10
4133.000000
20
-1223.460000
11
3944.110000
21
-1223.460000
0
LINE
8
Layer 1
10
3944.110000
20
-1223.460000
11
3944.110000
21
-1034.580000
0
LINE
8
Layer 1
10
3944.110000
20
-1034.580000
11
4133.000000
21
-1034.580000
0
LINE
8
Layer 1
10
4133.000000
20
-1034.580000
11
4133.000000
21
-1223.460000
0
LINE
8
Layer 1
10
5713.440000
20
-1223.460000
11
5524.550000
21
-1223.460000
0
LINE
8
Layer 1
10
5524.550000
20
-1223.460000
11
5524.550000
21
-1034.580000
0
LINE
8
Layer 1
10
5524.550000
20
-1034.580000
11
5713.440000
21
-1034.580000
0
LINE
8
Layer 1
10
5713.440000
20
-1034.580000
11
5713.440000
21
-1223.460000
0
LINE
8
Layer 1
10
2250.780000
20
-4816.350000
11
2439.670000
21
-4816.350000
0
LINE
8
Layer 1
10
2439.670000
20
-4816.350000
11
2439.670000
21
-5005.240000
0
LINE
8
Layer 1
10
2439.670000
20
-5005.240000
11
2250.780000
21
-5005.240000
0
LINE
8
Layer 1
10
2250.780000
20
-5005.240000
11
2250.780000
21
-4816.350000
0
LINE
8
Layer 1
10
2411.440000
20
-1223.460000
11
2222.550000
21
-1223.460000
0
LINE
8
Layer 1
10
2222.550000
20
-1223.460000
11
2222.550000
21
-1034.580000
0
LINE
8
Layer 1
10
2222.550000
20
-1034.580000
11
2411.440000
21
-1034.580000
0
LINE
8
Layer 1
10
2411.440000
20
-1034.580000
11
2411.440000
21
-1223.460000
0
LINE
8
Layer 1
10
4085.220000
20
-4816.350000
11
4274.110000
21
-4816.350000
0
LINE
8
Layer 1
10
4274.110000
20
-4816.350000
11
4274.110000
21
-5005.240000
0
LINE
8
Layer 1
10
4274.110000
20
-5005.240000
11
4085.220000
21
-5005.240000
0
LINE
8
Layer 1
10
4085.220000
20
-5005.240000
11
4085.220000
21
-4816.350000
0
LINE
8
Layer 1
10
7152.780000
20
-4901.020000
11
7152.780000
21
-5089.910000
0
LINE
8
Layer 1
10
7152.780000
20
-5089.910000
11
6963.880000
21
-5089.910000
0
LINE
8
Layer 1
10
6963.880000
20
-5089.910000
11
6963.880000
21
-4901.020000
0
LINE
8
Layer 1
10
6963.880000
20
-4901.020000
11
7152.780000
21
-4901.020000
0
LINE
8
Layer 1
10
2.540000
20
56.550600
11
2.540000
21
-6095.890000
0
LINE
8
Layer 1
10
11009.200000
20
56.550600
11
11009.200000
21
-6095.890000
0
LINE
8
Layer 1
10
2.540000
20
56.550600
11
11009.200000
21
56.550600
0
LINE
8
Layer 1
10
8186.980000
20
-6095.890000
11
11009.200000
21
-6095.890000
0
LINE
8
Layer 1
10
2.540000
20
-6095.890000
11
8186.980000
21
-6095.890000
 0 
ENDSEC
 0 
EOF