M48
; DRILL file {KiCad (5.1.10)-1} date 01/11/22 19:27:49
; FORMAT={-:-/ absolute / inch / decimal}
; #@! TF.CreationDate,2022-01-11T19:27:49+00:00
; #@! TF.GenerationSoftware,Kicad,Pcbnew,(5.1.10)-1
; #@! TF.FileFunction,Plated,1,2,PTH
FMAT,2
INCH
T1C0.0157
T2C0.0236
T3C0.0295
T4C0.0300
T5C0.0394
%
G90
G05
T1
X1.4956Y-4.3563
X1.73Y-4.34
X1.99Y-4.095
X2.265Y-4.2
X2.27Y-4.259
X2.62Y-3.92
X2.6586Y-4.6628
X2.72Y-3.39
X2.8375Y-4.4925
X2.975Y-3.965
X3.01Y-4.4925
X3.31Y-3.415
X3.5624Y-3.3474
X3.6275Y-2.945
X3.6291Y-3.0216
X3.6959Y-2.775
X3.7114Y-3.1914
X3.7925Y-2.985
X3.8048Y-3.2494
X3.8425Y-2.8825
X3.8521Y-3.2361
X3.9102Y-3.4941
X3.9494Y-3.4666
X3.9785Y-3.3405
X3.9789Y-3.175
X3.9843Y-3.4004
X3.985Y-2.875
X4.012Y-3.3713
X4.0275Y-4.4925
X4.0652Y-3.3295
X4.1008Y-4.5158
X4.1025Y-4.395
X4.103Y-3.2865
X4.165Y-3.015
X4.165Y-3.1175
X4.1675Y-3.07
X4.1725Y-4.4525
X4.194Y-3.7176
X4.195Y-3.3025
X4.2049Y-2.9425
X4.21Y-3.1175
X4.2106Y-3.0169
X4.2106Y-3.0669
X4.2525Y-3.065
X4.2525Y-3.1175
X4.255Y-3.0175
X4.255Y-4.6
X4.2626Y-3.3996
X4.3056Y-3.5453
X4.3225Y-4.1775
X4.3225Y-4.2485
X4.325Y-4.035
X4.4073Y-3.5279
X4.4075Y-4.15
X4.4764Y-2.9848
X4.5083Y-3.2398
X4.587Y-3.4688
X4.5925Y-4.235
X4.6637Y-3.4761
X4.668Y-3.425
X4.6803Y-3.6132
X4.8005Y-3.5766
T3
X1.295Y-3.12
X1.295Y-3.1987
X1.295Y-3.2775
X1.295Y-3.495
X1.295Y-3.5737
X1.505Y-4.6
X1.5758Y-3.02
X1.5837Y-4.6
X1.6545Y-3.02
X1.795Y-4.6
X1.87Y-3.02
X1.8737Y-4.6
X1.9488Y-3.02
X1.9525Y-4.6
X2.0275Y-3.02
X2.16Y-4.6
X2.2387Y-4.6
X2.2433Y-3.02
X2.3175Y-4.6
X2.322Y-3.02
X2.3962Y-4.6
X2.4008Y-3.02
X2.475Y-4.6
X2.4795Y-3.02
X2.5537Y-4.6
X2.6933Y-3.018
X2.76Y-4.6
X2.772Y-3.018
X2.8387Y-4.6
X2.8507Y-3.018
X2.9175Y-4.6
X2.9962Y-4.6
X3.0683Y-3.02
X3.075Y-4.6
X3.147Y-3.02
X3.1537Y-4.6
X3.2258Y-3.02
X3.2324Y-4.6
X3.3045Y-3.02
X3.3112Y-4.6
X4.625Y-4.0213
X4.625Y-4.1
T4
X1.825Y-3.295
X1.825Y-3.595
X1.825Y-3.695
X1.825Y-3.795
X1.875Y-3.645
X1.925Y-3.295
X1.925Y-3.795
X2.025Y-3.295
X2.025Y-3.795
X2.125Y-3.295
X2.125Y-3.795
X2.225Y-3.295
X2.225Y-3.795
X2.325Y-3.295
X2.325Y-3.795
X2.425Y-3.295
X2.425Y-3.795
X2.525Y-3.295
X2.525Y-3.795
X2.665Y-3.295
X2.665Y-3.595
X2.665Y-3.695
X2.665Y-3.795
X2.715Y-3.645
X2.765Y-3.295
X2.765Y-3.795
X2.865Y-3.295
X2.865Y-3.795
X2.965Y-3.295
X2.965Y-3.795
X3.065Y-3.295
X3.065Y-3.795
X3.165Y-3.295
X3.165Y-3.795
X3.265Y-3.295
X3.265Y-3.795
X3.365Y-3.295
X3.365Y-3.795
T5
X1.525Y-3.2
X1.525Y-3.3
X1.525Y-3.4
X3.5Y-4.11
X3.5Y-4.21
X3.5Y-4.31
X3.5Y-4.41
X3.5Y-4.51
X3.525Y-3.27
X3.5275Y-3.1025
X3.6Y-4.11
X3.6Y-4.21
X3.6Y-4.31
X3.6Y-4.41
X3.6Y-4.51
X3.625Y-3.27
X3.6275Y-3.1025
T2
G00X1.1305Y-4.1999
M15
G01X1.1069Y-4.1999
M16
G05
G00X1.1305Y-4.5401
M15
G01X1.1069Y-4.5401
M16
G05
G00X1.3049Y-4.1999
M15
G01X1.2616Y-4.1999
M16
G05
G00X1.3049Y-4.5401
M15
G01X1.2616Y-4.5401
M16
G05
T5
G00X1.3138Y-3.8506
M15
G01X1.3138Y-3.9294
M16
G05
G00X1.3925Y-4.075
M15
G01X1.4713Y-4.075
M16
G05
G00X1.55Y-3.8506
M15
G01X1.55Y-3.9294
M16
G05
T0
M30
