M48
; DRILL file {KiCad (5.1.9)-1} date 05/11/21 15:40:56
; FORMAT={-:-/ absolute / metric / decimal}
; #@! TF.CreationDate,2021-05-11T15:40:56+01:00
; #@! TF.GenerationSoftware,Kicad,Pcbnew,(5.1.9)-1
; #@! TF.FileFunction,Plated,1,2,PTH
FMAT,2
METRIC
T1C0.400
T2C0.762
T3C1.000
%
G90
G05
T1
X113.855Y-100.139
X113.855Y-102.425
X123.921Y-88.858
X138.98Y-107.489
X141.16Y-100.838
X144.335Y-101.028
X147.002Y-103.822
X148.272Y-86.487
X149.482Y-93.951
X150.818Y-109.355
X156.283Y-91.728
X156.528Y-78.549
X164.064Y-90.577
X165.417Y-99.885
X166.814Y-97.727
X168.592Y-97.204
X169.481Y-79.311
X169.672Y-114.3
X170.804Y-98.976
X172.403Y-87.185
X183.896Y-104.902
X184.15Y-99.441
X187.516Y-78.803
X189.484Y-109.728
X192.786Y-109.474
X192.984Y-103.068
X194.31Y-106.172
X195.389Y-78.803
X197.802Y-103.695
X198.691Y-76.772
X199.009Y-99.504
T2
X130.493Y-81.978
X130.493Y-89.599
X130.493Y-92.138
X130.493Y-94.678
X131.762Y-90.868
X133.032Y-81.978
X133.032Y-94.678
X135.572Y-81.978
X135.572Y-94.678
X138.112Y-81.978
X138.112Y-94.678
X140.653Y-81.978
X140.653Y-94.678
X143.192Y-81.978
X143.192Y-94.678
X145.732Y-81.978
X145.732Y-94.678
X148.272Y-81.978
X148.272Y-94.678
X151.828Y-81.978
X151.828Y-89.599
X151.828Y-92.138
X151.828Y-94.678
X153.099Y-90.868
X154.368Y-81.978
X154.368Y-94.678
X156.909Y-81.978
X156.909Y-94.678
X159.448Y-81.978
X159.448Y-94.678
X161.988Y-81.978
X161.988Y-94.678
X164.528Y-81.978
X164.528Y-94.678
X167.069Y-81.978
X167.069Y-94.678
X169.608Y-81.978
X169.608Y-94.678
X180.022Y-71.945
X180.022Y-74.486
X180.022Y-77.025
X180.022Y-79.566
X180.022Y-82.105
X180.022Y-84.645
X180.022Y-87.185
X180.022Y-89.725
X180.022Y-92.265
X180.022Y-94.805
X180.022Y-97.346
X180.022Y-99.885
X180.022Y-102.425
X180.022Y-104.965
X180.022Y-107.505
X180.022Y-110.045
X180.022Y-112.585
X180.022Y-115.125
X180.022Y-117.665
X205.422Y-71.945
X205.422Y-74.486
X205.422Y-77.025
X205.422Y-79.566
X205.422Y-82.105
X205.422Y-84.645
X205.422Y-87.185
X205.422Y-89.725
X205.422Y-92.265
X205.422Y-94.805
X205.422Y-97.346
X205.422Y-99.885
X205.422Y-102.425
X205.422Y-104.965
X205.422Y-107.505
X205.422Y-110.045
X205.422Y-112.585
X205.422Y-115.125
X205.422Y-117.665
T3
X118.935Y-112.078
X120.206Y-79.057
X120.206Y-81.597
X120.206Y-84.138
X120.206Y-87.947
X120.206Y-90.487
X120.206Y-93.027
X121.475Y-112.078
X122.745Y-87.947
X122.745Y-90.487
X122.745Y-93.027
X124.015Y-79.057
X124.015Y-81.597
X124.015Y-84.138
X125.539Y-112.078
X128.079Y-112.078
X130.365Y-78.041
X130.619Y-112.078
X132.905Y-78.041
X134.429Y-112.078
X136.969Y-112.078
X138.239Y-78.041
X139.51Y-112.078
X140.779Y-78.041
X142.049Y-112.078
X144.589Y-112.078
X145.859Y-78.041
X147.13Y-112.078
X148.399Y-78.041
X150.939Y-78.041
X151.066Y-112.078
X153.48Y-78.041
X153.606Y-112.078
X156.147Y-112.078
X158.686Y-112.078
X160.083Y-78.041
X161.226Y-112.078
X162.623Y-78.041
X163.766Y-112.078
X165.163Y-78.041
X166.306Y-112.078
X167.703Y-78.041
X168.846Y-112.078
X173.037Y-102.679
X173.037Y-105.219
X173.037Y-107.759
X173.037Y-110.299
X173.037Y-112.84
X175.577Y-102.679
X175.577Y-105.219
X175.577Y-107.759
X175.577Y-110.299
X175.577Y-112.84
X191.452Y-82.105
X191.452Y-90.995
X193.992Y-82.105
X193.992Y-90.995
T3
G00X117.507Y-100.409
M15
G01X117.507Y-102.409
M16
G05
G00X119.507Y-106.109
M15
G01X121.507Y-106.109
M16
G05
G00X123.507Y-100.409
M15
G01X123.507Y-102.409
M16
G05
T0
M30
