%TF.GenerationSoftware,KiCad,Pcbnew,(5.1.9)-1*%
%TF.CreationDate,2021-03-08T20:42:35+00:00*%
%TF.ProjectId,ESP32_Plotter_Controller_revA,45535033-325f-4506-9c6f-747465725f43,rev?*%
%TF.SameCoordinates,Original*%
%TF.FileFunction,Legend,Top*%
%TF.FilePolarity,Positive*%
%FSLAX46Y46*%
G04 Gerber Fmt 4.6, Leading zero omitted, Abs format (unit mm)*
G04 Created by KiCad (PCBNEW (5.1.9)-1) date 2021-03-08 20:42:35*
%MOMM*%
%LPD*%
G01*
G04 APERTURE LIST*
%ADD10C,0.150000*%
%ADD11C,0.100000*%
%ADD12C,0.120000*%
%ADD13C,0.010000*%
G04 APERTURE END LIST*
D10*
X202652261Y-121212833D02*
X202699880Y-121069976D01*
X202699880Y-120831880D01*
X202652261Y-120736642D01*
X202604642Y-120689023D01*
X202509404Y-120641404D01*
X202414166Y-120641404D01*
X202318928Y-120689023D01*
X202271309Y-120736642D01*
X202223690Y-120831880D01*
X202176071Y-121022357D01*
X202128452Y-121117595D01*
X202080833Y-121165214D01*
X201985595Y-121212833D01*
X201890357Y-121212833D01*
X201795119Y-121165214D01*
X201747500Y-121117595D01*
X201699880Y-121022357D01*
X201699880Y-120784261D01*
X201747500Y-120641404D01*
X202699880Y-120212833D02*
X201699880Y-120212833D01*
X201699880Y-119974738D01*
X201747500Y-119831880D01*
X201842738Y-119736642D01*
X201937976Y-119689023D01*
X202128452Y-119641404D01*
X202271309Y-119641404D01*
X202461785Y-119689023D01*
X202557023Y-119736642D01*
X202652261Y-119831880D01*
X202699880Y-119974738D01*
X202699880Y-120212833D01*
X202604642Y-117879500D02*
X202652261Y-117927119D01*
X202699880Y-118069976D01*
X202699880Y-118165214D01*
X202652261Y-118308071D01*
X202557023Y-118403309D01*
X202461785Y-118450928D01*
X202271309Y-118498547D01*
X202128452Y-118498547D01*
X201937976Y-118450928D01*
X201842738Y-118403309D01*
X201747500Y-118308071D01*
X201699880Y-118165214D01*
X201699880Y-118069976D01*
X201747500Y-117927119D01*
X201795119Y-117879500D01*
X202699880Y-117022357D02*
X202176071Y-117022357D01*
X202080833Y-117069976D01*
X202033214Y-117165214D01*
X202033214Y-117355690D01*
X202080833Y-117450928D01*
X202652261Y-117022357D02*
X202699880Y-117117595D01*
X202699880Y-117355690D01*
X202652261Y-117450928D01*
X202557023Y-117498547D01*
X202461785Y-117498547D01*
X202366547Y-117450928D01*
X202318928Y-117355690D01*
X202318928Y-117117595D01*
X202271309Y-117022357D01*
X202699880Y-116546166D02*
X202033214Y-116546166D01*
X202223690Y-116546166D02*
X202128452Y-116498547D01*
X202080833Y-116450928D01*
X202033214Y-116355690D01*
X202033214Y-116260452D01*
X202699880Y-115498547D02*
X201699880Y-115498547D01*
X202652261Y-115498547D02*
X202699880Y-115593785D01*
X202699880Y-115784261D01*
X202652261Y-115879500D01*
X202604642Y-115927119D01*
X202509404Y-115974738D01*
X202223690Y-115974738D01*
X202128452Y-115927119D01*
X202080833Y-115879500D01*
X202033214Y-115784261D01*
X202033214Y-115593785D01*
X202080833Y-115498547D01*
X202699880Y-113689023D02*
X202223690Y-114022357D01*
X202699880Y-114260452D02*
X201699880Y-114260452D01*
X201699880Y-113879500D01*
X201747500Y-113784261D01*
X201795119Y-113736642D01*
X201890357Y-113689023D01*
X202033214Y-113689023D01*
X202128452Y-113736642D01*
X202176071Y-113784261D01*
X202223690Y-113879500D01*
X202223690Y-114260452D01*
X202652261Y-112879500D02*
X202699880Y-112974738D01*
X202699880Y-113165214D01*
X202652261Y-113260452D01*
X202557023Y-113308071D01*
X202176071Y-113308071D01*
X202080833Y-113260452D01*
X202033214Y-113165214D01*
X202033214Y-112974738D01*
X202080833Y-112879500D01*
X202176071Y-112831880D01*
X202271309Y-112831880D01*
X202366547Y-113308071D01*
X202699880Y-111974738D02*
X202176071Y-111974738D01*
X202080833Y-112022357D01*
X202033214Y-112117595D01*
X202033214Y-112308071D01*
X202080833Y-112403309D01*
X202652261Y-111974738D02*
X202699880Y-112069976D01*
X202699880Y-112308071D01*
X202652261Y-112403309D01*
X202557023Y-112450928D01*
X202461785Y-112450928D01*
X202366547Y-112403309D01*
X202318928Y-112308071D01*
X202318928Y-112069976D01*
X202271309Y-111974738D01*
X202699880Y-111069976D02*
X201699880Y-111069976D01*
X202652261Y-111069976D02*
X202699880Y-111165214D01*
X202699880Y-111355690D01*
X202652261Y-111450928D01*
X202604642Y-111498547D01*
X202509404Y-111546166D01*
X202223690Y-111546166D01*
X202128452Y-111498547D01*
X202080833Y-111450928D01*
X202033214Y-111355690D01*
X202033214Y-111165214D01*
X202080833Y-111069976D01*
X202652261Y-110212833D02*
X202699880Y-110308071D01*
X202699880Y-110498547D01*
X202652261Y-110593785D01*
X202557023Y-110641404D01*
X202176071Y-110641404D01*
X202080833Y-110593785D01*
X202033214Y-110498547D01*
X202033214Y-110308071D01*
X202080833Y-110212833D01*
X202176071Y-110165214D01*
X202271309Y-110165214D01*
X202366547Y-110641404D01*
X202699880Y-109736642D02*
X202033214Y-109736642D01*
X202223690Y-109736642D02*
X202128452Y-109689023D01*
X202080833Y-109641404D01*
X202033214Y-109546166D01*
X202033214Y-109450928D01*
X173140833Y-114831880D02*
X173140833Y-115546166D01*
X173093214Y-115689023D01*
X172997976Y-115784261D01*
X172855119Y-115831880D01*
X172759880Y-115831880D01*
X173474166Y-114831880D02*
X174045595Y-114831880D01*
X173759880Y-115831880D02*
X173759880Y-114831880D01*
X174331309Y-115546166D02*
X174807500Y-115546166D01*
X174236071Y-115831880D02*
X174569404Y-114831880D01*
X174902738Y-115831880D01*
X175759880Y-114879500D02*
X175664642Y-114831880D01*
X175521785Y-114831880D01*
X175378928Y-114879500D01*
X175283690Y-114974738D01*
X175236071Y-115069976D01*
X175188452Y-115260452D01*
X175188452Y-115403309D01*
X175236071Y-115593785D01*
X175283690Y-115689023D01*
X175378928Y-115784261D01*
X175521785Y-115831880D01*
X175617023Y-115831880D01*
X175759880Y-115784261D01*
X175807500Y-115736642D01*
X175807500Y-115403309D01*
X175617023Y-115403309D01*
X189349500Y-93765690D02*
X189349500Y-94241880D01*
X189016166Y-93241880D02*
X189349500Y-93765690D01*
X189682833Y-93241880D01*
X191254261Y-94241880D02*
X190778071Y-94241880D01*
X190778071Y-93241880D01*
X191587595Y-94241880D02*
X191587595Y-93575214D01*
X191587595Y-93241880D02*
X191539976Y-93289500D01*
X191587595Y-93337119D01*
X191635214Y-93289500D01*
X191587595Y-93241880D01*
X191587595Y-93337119D01*
X192063785Y-94241880D02*
X192063785Y-93575214D01*
X192063785Y-93670452D02*
X192111404Y-93622833D01*
X192206642Y-93575214D01*
X192349500Y-93575214D01*
X192444738Y-93622833D01*
X192492357Y-93718071D01*
X192492357Y-94241880D01*
X192492357Y-93718071D02*
X192539976Y-93622833D01*
X192635214Y-93575214D01*
X192778071Y-93575214D01*
X192873309Y-93622833D01*
X192920928Y-93718071D01*
X192920928Y-94241880D01*
X193397119Y-94241880D02*
X193397119Y-93575214D01*
X193397119Y-93241880D02*
X193349500Y-93289500D01*
X193397119Y-93337119D01*
X193444738Y-93289500D01*
X193397119Y-93241880D01*
X193397119Y-93337119D01*
X193730452Y-93575214D02*
X194111404Y-93575214D01*
X193873309Y-93241880D02*
X193873309Y-94099023D01*
X193920928Y-94194261D01*
X194016166Y-94241880D01*
X194111404Y-94241880D01*
X195206642Y-93718071D02*
X195539976Y-93718071D01*
X195682833Y-94241880D02*
X195206642Y-94241880D01*
X195206642Y-93241880D01*
X195682833Y-93241880D01*
X196111404Y-93575214D02*
X196111404Y-94241880D01*
X196111404Y-93670452D02*
X196159023Y-93622833D01*
X196254261Y-93575214D01*
X196397119Y-93575214D01*
X196492357Y-93622833D01*
X196539976Y-93718071D01*
X196539976Y-94241880D01*
X189016166Y-84351880D02*
X189682833Y-85351880D01*
X189682833Y-84351880D02*
X189016166Y-85351880D01*
X191301880Y-85351880D02*
X190825690Y-85351880D01*
X190825690Y-84351880D01*
X191635214Y-85351880D02*
X191635214Y-84685214D01*
X191635214Y-84351880D02*
X191587595Y-84399500D01*
X191635214Y-84447119D01*
X191682833Y-84399500D01*
X191635214Y-84351880D01*
X191635214Y-84447119D01*
X192111404Y-85351880D02*
X192111404Y-84685214D01*
X192111404Y-84780452D02*
X192159023Y-84732833D01*
X192254261Y-84685214D01*
X192397119Y-84685214D01*
X192492357Y-84732833D01*
X192539976Y-84828071D01*
X192539976Y-85351880D01*
X192539976Y-84828071D02*
X192587595Y-84732833D01*
X192682833Y-84685214D01*
X192825690Y-84685214D01*
X192920928Y-84732833D01*
X192968547Y-84828071D01*
X192968547Y-85351880D01*
X193444738Y-85351880D02*
X193444738Y-84685214D01*
X193444738Y-84351880D02*
X193397119Y-84399500D01*
X193444738Y-84447119D01*
X193492357Y-84399500D01*
X193444738Y-84351880D01*
X193444738Y-84447119D01*
X193778071Y-84685214D02*
X194159023Y-84685214D01*
X193920928Y-84351880D02*
X193920928Y-85209023D01*
X193968547Y-85304261D01*
X194063785Y-85351880D01*
X194159023Y-85351880D01*
X195254261Y-84828071D02*
X195587595Y-84828071D01*
X195730452Y-85351880D02*
X195254261Y-85351880D01*
X195254261Y-84351880D01*
X195730452Y-84351880D01*
X196159023Y-84685214D02*
X196159023Y-85351880D01*
X196159023Y-84780452D02*
X196206642Y-84732833D01*
X196301880Y-84685214D01*
X196444738Y-84685214D01*
X196539976Y-84732833D01*
X196587595Y-84828071D01*
X196587595Y-85351880D01*
X149582166Y-121879976D02*
X149582166Y-121403785D01*
X149867880Y-121975214D02*
X148867880Y-121641880D01*
X149867880Y-121308547D01*
X149201214Y-120546642D02*
X149867880Y-120546642D01*
X149201214Y-120975214D02*
X149725023Y-120975214D01*
X149820261Y-120927595D01*
X149867880Y-120832357D01*
X149867880Y-120689500D01*
X149820261Y-120594261D01*
X149772642Y-120546642D01*
X149867880Y-120165690D02*
X149201214Y-119641880D01*
X149201214Y-120165690D02*
X149867880Y-119641880D01*
X149820261Y-118546642D02*
X149867880Y-118403785D01*
X149867880Y-118165690D01*
X149820261Y-118070452D01*
X149772642Y-118022833D01*
X149677404Y-117975214D01*
X149582166Y-117975214D01*
X149486928Y-118022833D01*
X149439309Y-118070452D01*
X149391690Y-118165690D01*
X149344071Y-118356166D01*
X149296452Y-118451404D01*
X149248833Y-118499023D01*
X149153595Y-118546642D01*
X149058357Y-118546642D01*
X148963119Y-118499023D01*
X148915500Y-118451404D01*
X148867880Y-118356166D01*
X148867880Y-118118071D01*
X148915500Y-117975214D01*
X149867880Y-117546642D02*
X148867880Y-117546642D01*
X148867880Y-117165690D01*
X148915500Y-117070452D01*
X148963119Y-117022833D01*
X149058357Y-116975214D01*
X149201214Y-116975214D01*
X149296452Y-117022833D01*
X149344071Y-117070452D01*
X149391690Y-117165690D01*
X149391690Y-117546642D01*
X149867880Y-116546642D02*
X148867880Y-116546642D01*
X133072166Y-121879976D02*
X133072166Y-121403785D01*
X133357880Y-121975214D02*
X132357880Y-121641880D01*
X133357880Y-121308547D01*
X132691214Y-120546642D02*
X133357880Y-120546642D01*
X132691214Y-120975214D02*
X133215023Y-120975214D01*
X133310261Y-120927595D01*
X133357880Y-120832357D01*
X133357880Y-120689500D01*
X133310261Y-120594261D01*
X133262642Y-120546642D01*
X133357880Y-120165690D02*
X132691214Y-119641880D01*
X132691214Y-120165690D02*
X133357880Y-119641880D01*
X133357880Y-118499023D02*
X132357880Y-118499023D01*
X132453119Y-118070452D02*
X132405500Y-118022833D01*
X132357880Y-117927595D01*
X132357880Y-117689500D01*
X132405500Y-117594261D01*
X132453119Y-117546642D01*
X132548357Y-117499023D01*
X132643595Y-117499023D01*
X132786452Y-117546642D01*
X133357880Y-118118071D01*
X133357880Y-117499023D01*
X133262642Y-116499023D02*
X133310261Y-116546642D01*
X133357880Y-116689500D01*
X133357880Y-116784738D01*
X133310261Y-116927595D01*
X133215023Y-117022833D01*
X133119785Y-117070452D01*
X132929309Y-117118071D01*
X132786452Y-117118071D01*
X132595976Y-117070452D01*
X132500738Y-117022833D01*
X132405500Y-116927595D01*
X132357880Y-116784738D01*
X132357880Y-116689500D01*
X132405500Y-116546642D01*
X132453119Y-116499023D01*
X124213880Y-121070261D02*
X123213880Y-121070261D01*
X124213880Y-120498833D01*
X123213880Y-120498833D01*
X124166261Y-119641690D02*
X124213880Y-119736928D01*
X124213880Y-119927404D01*
X124166261Y-120022642D01*
X124071023Y-120070261D01*
X123690071Y-120070261D01*
X123594833Y-120022642D01*
X123547214Y-119927404D01*
X123547214Y-119736928D01*
X123594833Y-119641690D01*
X123690071Y-119594071D01*
X123785309Y-119594071D01*
X123880547Y-120070261D01*
X124213880Y-119022642D02*
X124166261Y-119117880D01*
X124118642Y-119165500D01*
X124023404Y-119213119D01*
X123737690Y-119213119D01*
X123642452Y-119165500D01*
X123594833Y-119117880D01*
X123547214Y-119022642D01*
X123547214Y-118879785D01*
X123594833Y-118784547D01*
X123642452Y-118736928D01*
X123737690Y-118689309D01*
X124023404Y-118689309D01*
X124118642Y-118736928D01*
X124166261Y-118784547D01*
X124213880Y-118879785D01*
X124213880Y-119022642D01*
X124213880Y-118260738D02*
X123213880Y-118260738D01*
X123213880Y-117879785D01*
X123261500Y-117784547D01*
X123309119Y-117736928D01*
X123404357Y-117689309D01*
X123547214Y-117689309D01*
X123642452Y-117736928D01*
X123690071Y-117784547D01*
X123737690Y-117879785D01*
X123737690Y-118260738D01*
X124213880Y-117260738D02*
X123547214Y-117260738D01*
X123213880Y-117260738D02*
X123261500Y-117308357D01*
X123309119Y-117260738D01*
X123261500Y-117213119D01*
X123213880Y-117260738D01*
X123309119Y-117260738D01*
X124213880Y-116879785D02*
X123547214Y-116355976D01*
X123547214Y-116879785D02*
X124213880Y-116355976D01*
X124166261Y-115594071D02*
X124213880Y-115689309D01*
X124213880Y-115879785D01*
X124166261Y-115975023D01*
X124071023Y-116022642D01*
X123690071Y-116022642D01*
X123594833Y-115975023D01*
X123547214Y-115879785D01*
X123547214Y-115689309D01*
X123594833Y-115594071D01*
X123690071Y-115546452D01*
X123785309Y-115546452D01*
X123880547Y-116022642D01*
X124213880Y-114975023D02*
X124166261Y-115070261D01*
X124071023Y-115117880D01*
X123213880Y-115117880D01*
X124166261Y-114641690D02*
X124213880Y-114546452D01*
X124213880Y-114355976D01*
X124166261Y-114260738D01*
X124071023Y-114213119D01*
X124023404Y-114213119D01*
X123928166Y-114260738D01*
X123880547Y-114355976D01*
X123880547Y-114498833D01*
X123832928Y-114594071D01*
X123737690Y-114641690D01*
X123690071Y-114641690D01*
X123594833Y-114594071D01*
X123547214Y-114498833D01*
X123547214Y-114355976D01*
X123594833Y-114260738D01*
X116355880Y-116037976D02*
X117355880Y-115704642D01*
X116355880Y-115371309D01*
X117355880Y-115037976D02*
X116689214Y-115037976D01*
X116355880Y-115037976D02*
X116403500Y-115085595D01*
X116451119Y-115037976D01*
X116403500Y-114990357D01*
X116355880Y-115037976D01*
X116451119Y-115037976D01*
X116689214Y-114561785D02*
X117355880Y-114561785D01*
X116784452Y-114561785D02*
X116736833Y-114514166D01*
X116689214Y-114418928D01*
X116689214Y-114276071D01*
X116736833Y-114180833D01*
X116832071Y-114133214D01*
X117355880Y-114133214D01*
X117070166Y-112942738D02*
X117070166Y-112466547D01*
X117355880Y-113037976D02*
X116355880Y-112704642D01*
X117355880Y-112371309D01*
X116689214Y-111609404D02*
X117355880Y-111609404D01*
X116689214Y-112037976D02*
X117213023Y-112037976D01*
X117308261Y-111990357D01*
X117355880Y-111895119D01*
X117355880Y-111752261D01*
X117308261Y-111657023D01*
X117260642Y-111609404D01*
X117355880Y-111228452D02*
X116689214Y-110704642D01*
X116689214Y-111228452D02*
X117355880Y-110704642D01*
X110958738Y-106703880D02*
X111292071Y-107703880D01*
X111625404Y-106703880D01*
X111958738Y-107703880D02*
X111958738Y-107037214D01*
X111958738Y-106703880D02*
X111911119Y-106751500D01*
X111958738Y-106799119D01*
X112006357Y-106751500D01*
X111958738Y-106703880D01*
X111958738Y-106799119D01*
X112434928Y-107037214D02*
X112434928Y-107703880D01*
X112434928Y-107132452D02*
X112482547Y-107084833D01*
X112577785Y-107037214D01*
X112720642Y-107037214D01*
X112815880Y-107084833D01*
X112863500Y-107180071D01*
X112863500Y-107703880D01*
X114387309Y-108084833D02*
X114339690Y-108037214D01*
X114244452Y-107894357D01*
X114196833Y-107799119D01*
X114149214Y-107656261D01*
X114101595Y-107418166D01*
X114101595Y-107227690D01*
X114149214Y-106989595D01*
X114196833Y-106846738D01*
X114244452Y-106751500D01*
X114339690Y-106608642D01*
X114387309Y-106561023D01*
X115292071Y-107703880D02*
X114720642Y-107703880D01*
X115006357Y-107703880D02*
X115006357Y-106703880D01*
X114911119Y-106846738D01*
X114815880Y-106941976D01*
X114720642Y-106989595D01*
X115673023Y-106799119D02*
X115720642Y-106751500D01*
X115815880Y-106703880D01*
X116053976Y-106703880D01*
X116149214Y-106751500D01*
X116196833Y-106799119D01*
X116244452Y-106894357D01*
X116244452Y-106989595D01*
X116196833Y-107132452D01*
X115625404Y-107703880D01*
X116244452Y-107703880D01*
X116577785Y-107037214D02*
X116815880Y-107703880D01*
X117053976Y-107037214D01*
X117339690Y-108084833D02*
X117387309Y-108037214D01*
X117482547Y-107894357D01*
X117530166Y-107799119D01*
X117577785Y-107656261D01*
X117625404Y-107418166D01*
X117625404Y-107227690D01*
X117577785Y-106989595D01*
X117530166Y-106846738D01*
X117482547Y-106751500D01*
X117387309Y-106608642D01*
X117339690Y-106561023D01*
X124928880Y-93662166D02*
X125928880Y-92995500D01*
X124928880Y-92995500D02*
X125928880Y-93662166D01*
X126309833Y-91566928D02*
X126262214Y-91614547D01*
X126119357Y-91709785D01*
X126024119Y-91757404D01*
X125881261Y-91805023D01*
X125643166Y-91852642D01*
X125452690Y-91852642D01*
X125214595Y-91805023D01*
X125071738Y-91757404D01*
X124976500Y-91709785D01*
X124833642Y-91614547D01*
X124786023Y-91566928D01*
X124928880Y-91328833D02*
X124928880Y-90757404D01*
X125928880Y-91043119D02*
X124928880Y-91043119D01*
X125928880Y-90281214D02*
X125881261Y-90376452D01*
X125833642Y-90424071D01*
X125738404Y-90471690D01*
X125452690Y-90471690D01*
X125357452Y-90424071D01*
X125309833Y-90376452D01*
X125262214Y-90281214D01*
X125262214Y-90138357D01*
X125309833Y-90043119D01*
X125357452Y-89995500D01*
X125452690Y-89947880D01*
X125738404Y-89947880D01*
X125833642Y-89995500D01*
X125881261Y-90043119D01*
X125928880Y-90138357D01*
X125928880Y-90281214D01*
X125262214Y-89519309D02*
X126262214Y-89519309D01*
X125309833Y-89519309D02*
X125262214Y-89424071D01*
X125262214Y-89233595D01*
X125309833Y-89138357D01*
X125357452Y-89090738D01*
X125452690Y-89043119D01*
X125738404Y-89043119D01*
X125833642Y-89090738D01*
X125881261Y-89138357D01*
X125928880Y-89233595D01*
X125928880Y-89424071D01*
X125881261Y-89519309D01*
X126309833Y-88709785D02*
X126262214Y-88662166D01*
X126119357Y-88566928D01*
X126024119Y-88519309D01*
X125881261Y-88471690D01*
X125643166Y-88424071D01*
X125452690Y-88424071D01*
X125214595Y-88471690D01*
X125071738Y-88519309D01*
X124976500Y-88566928D01*
X124833642Y-88662166D01*
X124786023Y-88709785D01*
X126912214Y-93733595D02*
X127578880Y-93495500D01*
X126912214Y-93257404D02*
X127578880Y-93495500D01*
X127816976Y-93590738D01*
X127864595Y-93638357D01*
X127912214Y-93733595D01*
X127959833Y-91828833D02*
X127912214Y-91876452D01*
X127769357Y-91971690D01*
X127674119Y-92019309D01*
X127531261Y-92066928D01*
X127293166Y-92114547D01*
X127102690Y-92114547D01*
X126864595Y-92066928D01*
X126721738Y-92019309D01*
X126626500Y-91971690D01*
X126483642Y-91876452D01*
X126436023Y-91828833D01*
X127055071Y-91114547D02*
X127102690Y-90971690D01*
X127150309Y-90924071D01*
X127245547Y-90876452D01*
X127388404Y-90876452D01*
X127483642Y-90924071D01*
X127531261Y-90971690D01*
X127578880Y-91066928D01*
X127578880Y-91447880D01*
X126578880Y-91447880D01*
X126578880Y-91114547D01*
X126626500Y-91019309D01*
X126674119Y-90971690D01*
X126769357Y-90924071D01*
X126864595Y-90924071D01*
X126959833Y-90971690D01*
X127007452Y-91019309D01*
X127055071Y-91114547D01*
X127055071Y-91447880D01*
X126912214Y-90590738D02*
X126912214Y-90209785D01*
X126578880Y-90447880D02*
X127436023Y-90447880D01*
X127531261Y-90400261D01*
X127578880Y-90305023D01*
X127578880Y-90209785D01*
X127578880Y-89876452D02*
X126912214Y-89876452D01*
X127007452Y-89876452D02*
X126959833Y-89828833D01*
X126912214Y-89733595D01*
X126912214Y-89590738D01*
X126959833Y-89495500D01*
X127055071Y-89447880D01*
X127578880Y-89447880D01*
X127055071Y-89447880D02*
X126959833Y-89400261D01*
X126912214Y-89305023D01*
X126912214Y-89162166D01*
X126959833Y-89066928D01*
X127055071Y-89019309D01*
X127578880Y-89019309D01*
X127959833Y-88638357D02*
X127912214Y-88590738D01*
X127769357Y-88495500D01*
X127674119Y-88447880D01*
X127531261Y-88400261D01*
X127293166Y-88352642D01*
X127102690Y-88352642D01*
X126864595Y-88400261D01*
X126721738Y-88447880D01*
X126626500Y-88495500D01*
X126483642Y-88590738D01*
X126436023Y-88638357D01*
X110641404Y-95765880D02*
X110165214Y-95765880D01*
X110165214Y-94765880D01*
X110974738Y-95765880D02*
X110974738Y-95099214D01*
X110974738Y-94765880D02*
X110927119Y-94813500D01*
X110974738Y-94861119D01*
X111022357Y-94813500D01*
X110974738Y-94765880D01*
X110974738Y-94861119D01*
X111450928Y-95765880D02*
X111450928Y-95099214D01*
X111450928Y-95194452D02*
X111498547Y-95146833D01*
X111593785Y-95099214D01*
X111736642Y-95099214D01*
X111831880Y-95146833D01*
X111879500Y-95242071D01*
X111879500Y-95765880D01*
X111879500Y-95242071D02*
X111927119Y-95146833D01*
X112022357Y-95099214D01*
X112165214Y-95099214D01*
X112260452Y-95146833D01*
X112308071Y-95242071D01*
X112308071Y-95765880D01*
X112784261Y-95765880D02*
X112784261Y-95099214D01*
X112784261Y-94765880D02*
X112736642Y-94813500D01*
X112784261Y-94861119D01*
X112831880Y-94813500D01*
X112784261Y-94765880D01*
X112784261Y-94861119D01*
X113117595Y-95099214D02*
X113498547Y-95099214D01*
X113260452Y-94765880D02*
X113260452Y-95623023D01*
X113308071Y-95718261D01*
X113403309Y-95765880D01*
X113498547Y-95765880D01*
X114546166Y-95718261D02*
X114689023Y-95765880D01*
X114927119Y-95765880D01*
X115022357Y-95718261D01*
X115069976Y-95670642D01*
X115117595Y-95575404D01*
X115117595Y-95480166D01*
X115069976Y-95384928D01*
X115022357Y-95337309D01*
X114927119Y-95289690D01*
X114736642Y-95242071D01*
X114641404Y-95194452D01*
X114593785Y-95146833D01*
X114546166Y-95051595D01*
X114546166Y-94956357D01*
X114593785Y-94861119D01*
X114641404Y-94813500D01*
X114736642Y-94765880D01*
X114974738Y-94765880D01*
X115117595Y-94813500D01*
X115450928Y-95099214D02*
X115641404Y-95765880D01*
X115831880Y-95289690D01*
X116022357Y-95765880D01*
X116212833Y-95099214D01*
X116593785Y-95765880D02*
X116593785Y-95099214D01*
X116593785Y-94765880D02*
X116546166Y-94813500D01*
X116593785Y-94861119D01*
X116641404Y-94813500D01*
X116593785Y-94765880D01*
X116593785Y-94861119D01*
X116927119Y-95099214D02*
X117308071Y-95099214D01*
X117069976Y-94765880D02*
X117069976Y-95623023D01*
X117117595Y-95718261D01*
X117212833Y-95765880D01*
X117308071Y-95765880D01*
X118069976Y-95718261D02*
X117974738Y-95765880D01*
X117784261Y-95765880D01*
X117689023Y-95718261D01*
X117641404Y-95670642D01*
X117593785Y-95575404D01*
X117593785Y-95289690D01*
X117641404Y-95194452D01*
X117689023Y-95146833D01*
X117784261Y-95099214D01*
X117974738Y-95099214D01*
X118069976Y-95146833D01*
X118498547Y-95765880D02*
X118498547Y-94765880D01*
X118927119Y-95765880D02*
X118927119Y-95242071D01*
X118879500Y-95146833D01*
X118784261Y-95099214D01*
X118641404Y-95099214D01*
X118546166Y-95146833D01*
X118498547Y-95194452D01*
X119784261Y-95718261D02*
X119689023Y-95765880D01*
X119498547Y-95765880D01*
X119403309Y-95718261D01*
X119355690Y-95623023D01*
X119355690Y-95242071D01*
X119403309Y-95146833D01*
X119498547Y-95099214D01*
X119689023Y-95099214D01*
X119784261Y-95146833D01*
X119831880Y-95242071D01*
X119831880Y-95337309D01*
X119355690Y-95432547D01*
X120212833Y-95718261D02*
X120308071Y-95765880D01*
X120498547Y-95765880D01*
X120593785Y-95718261D01*
X120641404Y-95623023D01*
X120641404Y-95575404D01*
X120593785Y-95480166D01*
X120498547Y-95432547D01*
X120355690Y-95432547D01*
X120260452Y-95384928D01*
X120212833Y-95289690D01*
X120212833Y-95242071D01*
X120260452Y-95146833D01*
X120355690Y-95099214D01*
X120498547Y-95099214D01*
X120593785Y-95146833D01*
X125753880Y-84534357D02*
X125753880Y-85010547D01*
X126230071Y-85058166D01*
X126182452Y-85010547D01*
X126134833Y-84915309D01*
X126134833Y-84677214D01*
X126182452Y-84581976D01*
X126230071Y-84534357D01*
X126325309Y-84486738D01*
X126563404Y-84486738D01*
X126658642Y-84534357D01*
X126706261Y-84581976D01*
X126753880Y-84677214D01*
X126753880Y-84915309D01*
X126706261Y-85010547D01*
X126658642Y-85058166D01*
X126087214Y-84153404D02*
X126753880Y-83915309D01*
X126087214Y-83677214D01*
X125753880Y-80081309D02*
X126753880Y-79747976D01*
X125753880Y-79414642D01*
X126753880Y-79081309D02*
X126087214Y-79081309D01*
X125753880Y-79081309D02*
X125801500Y-79128928D01*
X125849119Y-79081309D01*
X125801500Y-79033690D01*
X125753880Y-79081309D01*
X125849119Y-79081309D01*
X126087214Y-78605119D02*
X126753880Y-78605119D01*
X126182452Y-78605119D02*
X126134833Y-78557500D01*
X126087214Y-78462261D01*
X126087214Y-78319404D01*
X126134833Y-78224166D01*
X126230071Y-78176547D01*
X126753880Y-78176547D01*
X122364738Y-77223880D02*
X122364738Y-76223880D01*
X122745690Y-76223880D01*
X122840928Y-76271500D01*
X122888547Y-76319119D01*
X122936166Y-76414357D01*
X122936166Y-76557214D01*
X122888547Y-76652452D01*
X122840928Y-76700071D01*
X122745690Y-76747690D01*
X122364738Y-76747690D01*
X123745690Y-77176261D02*
X123650452Y-77223880D01*
X123459976Y-77223880D01*
X123364738Y-77176261D01*
X123317119Y-77081023D01*
X123317119Y-76700071D01*
X123364738Y-76604833D01*
X123459976Y-76557214D01*
X123650452Y-76557214D01*
X123745690Y-76604833D01*
X123793309Y-76700071D01*
X123793309Y-76795309D01*
X123317119Y-76890547D01*
X124221880Y-76557214D02*
X124221880Y-77223880D01*
X124221880Y-76652452D02*
X124269500Y-76604833D01*
X124364738Y-76557214D01*
X124507595Y-76557214D01*
X124602833Y-76604833D01*
X124650452Y-76700071D01*
X124650452Y-77223880D01*
X125793309Y-76557214D02*
X126031404Y-77223880D01*
X126269500Y-76557214D01*
X110355404Y-77223880D02*
X110355404Y-76223880D01*
X110736357Y-76223880D01*
X110831595Y-76271500D01*
X110879214Y-76319119D01*
X110926833Y-76414357D01*
X110926833Y-76557214D01*
X110879214Y-76652452D01*
X110831595Y-76700071D01*
X110736357Y-76747690D01*
X110355404Y-76747690D01*
X111736357Y-77176261D02*
X111641119Y-77223880D01*
X111450642Y-77223880D01*
X111355404Y-77176261D01*
X111307785Y-77081023D01*
X111307785Y-76700071D01*
X111355404Y-76604833D01*
X111450642Y-76557214D01*
X111641119Y-76557214D01*
X111736357Y-76604833D01*
X111783976Y-76700071D01*
X111783976Y-76795309D01*
X111307785Y-76890547D01*
X112212547Y-76557214D02*
X112212547Y-77223880D01*
X112212547Y-76652452D02*
X112260166Y-76604833D01*
X112355404Y-76557214D01*
X112498261Y-76557214D01*
X112593500Y-76604833D01*
X112641119Y-76700071D01*
X112641119Y-77223880D01*
X114355404Y-77223880D02*
X113879214Y-77223880D01*
X113879214Y-76223880D01*
X114688738Y-77223880D02*
X114688738Y-76557214D01*
X114688738Y-76223880D02*
X114641119Y-76271500D01*
X114688738Y-76319119D01*
X114736357Y-76271500D01*
X114688738Y-76223880D01*
X114688738Y-76319119D01*
X115022071Y-76557214D02*
X115403023Y-76557214D01*
X115164928Y-77223880D02*
X115164928Y-76366738D01*
X115212547Y-76271500D01*
X115307785Y-76223880D01*
X115403023Y-76223880D01*
X115593500Y-76557214D02*
X115974452Y-76557214D01*
X115736357Y-76223880D02*
X115736357Y-77081023D01*
X115783976Y-77176261D01*
X115879214Y-77223880D01*
X115974452Y-77223880D01*
X157773690Y-73381880D02*
X158249880Y-73381880D01*
X157249880Y-73715214D02*
X157773690Y-73381880D01*
X157249880Y-73048547D01*
X158249880Y-71953309D02*
X157249880Y-71953309D01*
X157964166Y-71619976D01*
X157249880Y-71286642D01*
X158249880Y-71286642D01*
X158249880Y-70667595D02*
X158202261Y-70762833D01*
X158154642Y-70810452D01*
X158059404Y-70858071D01*
X157773690Y-70858071D01*
X157678452Y-70810452D01*
X157630833Y-70762833D01*
X157583214Y-70667595D01*
X157583214Y-70524738D01*
X157630833Y-70429500D01*
X157678452Y-70381880D01*
X157773690Y-70334261D01*
X158059404Y-70334261D01*
X158154642Y-70381880D01*
X158202261Y-70429500D01*
X158249880Y-70524738D01*
X158249880Y-70667595D01*
X157583214Y-70048547D02*
X157583214Y-69667595D01*
X157249880Y-69905690D02*
X158107023Y-69905690D01*
X158202261Y-69858071D01*
X158249880Y-69762833D01*
X158249880Y-69667595D01*
X158249880Y-69191404D02*
X158202261Y-69286642D01*
X158154642Y-69334261D01*
X158059404Y-69381880D01*
X157773690Y-69381880D01*
X157678452Y-69334261D01*
X157630833Y-69286642D01*
X157583214Y-69191404D01*
X157583214Y-69048547D01*
X157630833Y-68953309D01*
X157678452Y-68905690D01*
X157773690Y-68858071D01*
X158059404Y-68858071D01*
X158154642Y-68905690D01*
X158202261Y-68953309D01*
X158249880Y-69048547D01*
X158249880Y-69191404D01*
X158249880Y-68429500D02*
X157583214Y-68429500D01*
X157773690Y-68429500D02*
X157678452Y-68381880D01*
X157630833Y-68334261D01*
X157583214Y-68239023D01*
X157583214Y-68143785D01*
X143025880Y-73715214D02*
X144025880Y-73048547D01*
X143025880Y-73048547D02*
X144025880Y-73715214D01*
X144025880Y-71905690D02*
X143025880Y-71905690D01*
X143740166Y-71572357D01*
X143025880Y-71239023D01*
X144025880Y-71239023D01*
X144025880Y-70619976D02*
X143978261Y-70715214D01*
X143930642Y-70762833D01*
X143835404Y-70810452D01*
X143549690Y-70810452D01*
X143454452Y-70762833D01*
X143406833Y-70715214D01*
X143359214Y-70619976D01*
X143359214Y-70477119D01*
X143406833Y-70381880D01*
X143454452Y-70334261D01*
X143549690Y-70286642D01*
X143835404Y-70286642D01*
X143930642Y-70334261D01*
X143978261Y-70381880D01*
X144025880Y-70477119D01*
X144025880Y-70619976D01*
X143359214Y-70000928D02*
X143359214Y-69619976D01*
X143025880Y-69858071D02*
X143883023Y-69858071D01*
X143978261Y-69810452D01*
X144025880Y-69715214D01*
X144025880Y-69619976D01*
X144025880Y-69143785D02*
X143978261Y-69239023D01*
X143930642Y-69286642D01*
X143835404Y-69334261D01*
X143549690Y-69334261D01*
X143454452Y-69286642D01*
X143406833Y-69239023D01*
X143359214Y-69143785D01*
X143359214Y-69000928D01*
X143406833Y-68905690D01*
X143454452Y-68858071D01*
X143549690Y-68810452D01*
X143835404Y-68810452D01*
X143930642Y-68858071D01*
X143978261Y-68905690D01*
X144025880Y-69000928D01*
X144025880Y-69143785D01*
X144025880Y-68381880D02*
X143359214Y-68381880D01*
X143549690Y-68381880D02*
X143454452Y-68334261D01*
X143406833Y-68286642D01*
X143359214Y-68191404D01*
X143359214Y-68096166D01*
X128531880Y-73246928D02*
X127531880Y-73246928D01*
X127531880Y-72865976D01*
X127579500Y-72770738D01*
X127627119Y-72723119D01*
X127722357Y-72675500D01*
X127865214Y-72675500D01*
X127960452Y-72723119D01*
X128008071Y-72770738D01*
X128055690Y-72865976D01*
X128055690Y-73246928D01*
X128484261Y-71865976D02*
X128531880Y-71961214D01*
X128531880Y-72151690D01*
X128484261Y-72246928D01*
X128389023Y-72294547D01*
X128008071Y-72294547D01*
X127912833Y-72246928D01*
X127865214Y-72151690D01*
X127865214Y-71961214D01*
X127912833Y-71865976D01*
X128008071Y-71818357D01*
X128103309Y-71818357D01*
X128198547Y-72294547D01*
X127865214Y-71389785D02*
X128531880Y-71389785D01*
X127960452Y-71389785D02*
X127912833Y-71342166D01*
X127865214Y-71246928D01*
X127865214Y-71104071D01*
X127912833Y-71008833D01*
X128008071Y-70961214D01*
X128531880Y-70961214D01*
X128531880Y-69723119D02*
X127531880Y-69723119D01*
X127531880Y-69485023D01*
X127579500Y-69342166D01*
X127674738Y-69246928D01*
X127769976Y-69199309D01*
X127960452Y-69151690D01*
X128103309Y-69151690D01*
X128293785Y-69199309D01*
X128389023Y-69246928D01*
X128484261Y-69342166D01*
X128531880Y-69485023D01*
X128531880Y-69723119D01*
X128531880Y-68723119D02*
X127865214Y-68723119D01*
X127531880Y-68723119D02*
X127579500Y-68770738D01*
X127627119Y-68723119D01*
X127579500Y-68675500D01*
X127531880Y-68723119D01*
X127627119Y-68723119D01*
X128531880Y-68246928D02*
X127865214Y-68246928D01*
X128055690Y-68246928D02*
X127960452Y-68199309D01*
X127912833Y-68151690D01*
X127865214Y-68056452D01*
X127865214Y-67961214D01*
X135405880Y-72231023D02*
X135405880Y-72707214D01*
X135882071Y-72754833D01*
X135834452Y-72707214D01*
X135786833Y-72611976D01*
X135786833Y-72373880D01*
X135834452Y-72278642D01*
X135882071Y-72231023D01*
X135977309Y-72183404D01*
X136215404Y-72183404D01*
X136310642Y-72231023D01*
X136358261Y-72278642D01*
X136405880Y-72373880D01*
X136405880Y-72611976D01*
X136358261Y-72707214D01*
X136310642Y-72754833D01*
X135739214Y-71850071D02*
X136405880Y-71611976D01*
X135739214Y-71373880D01*
X136120166Y-70278642D02*
X136120166Y-69802452D01*
X136405880Y-70373880D02*
X135405880Y-70040547D01*
X136405880Y-69707214D01*
X135739214Y-68945309D02*
X136405880Y-68945309D01*
X135739214Y-69373880D02*
X136263023Y-69373880D01*
X136358261Y-69326261D01*
X136405880Y-69231023D01*
X136405880Y-69088166D01*
X136358261Y-68992928D01*
X136310642Y-68945309D01*
X136405880Y-68564357D02*
X135739214Y-68040547D01*
X135739214Y-68564357D02*
X136405880Y-68040547D01*
X115792928Y-69399071D02*
X116126261Y-69399071D01*
X116269119Y-69922880D02*
X115792928Y-69922880D01*
X115792928Y-68922880D01*
X116269119Y-68922880D01*
X116650071Y-69875261D02*
X116792928Y-69922880D01*
X117031023Y-69922880D01*
X117126261Y-69875261D01*
X117173880Y-69827642D01*
X117221500Y-69732404D01*
X117221500Y-69637166D01*
X117173880Y-69541928D01*
X117126261Y-69494309D01*
X117031023Y-69446690D01*
X116840547Y-69399071D01*
X116745309Y-69351452D01*
X116697690Y-69303833D01*
X116650071Y-69208595D01*
X116650071Y-69113357D01*
X116697690Y-69018119D01*
X116745309Y-68970500D01*
X116840547Y-68922880D01*
X117078642Y-68922880D01*
X117221500Y-68970500D01*
X117650071Y-69922880D02*
X117650071Y-68922880D01*
X118031023Y-68922880D01*
X118126261Y-68970500D01*
X118173880Y-69018119D01*
X118221500Y-69113357D01*
X118221500Y-69256214D01*
X118173880Y-69351452D01*
X118126261Y-69399071D01*
X118031023Y-69446690D01*
X117650071Y-69446690D01*
X118554833Y-68922880D02*
X119173880Y-68922880D01*
X118840547Y-69303833D01*
X118983404Y-69303833D01*
X119078642Y-69351452D01*
X119126261Y-69399071D01*
X119173880Y-69494309D01*
X119173880Y-69732404D01*
X119126261Y-69827642D01*
X119078642Y-69875261D01*
X118983404Y-69922880D01*
X118697690Y-69922880D01*
X118602452Y-69875261D01*
X118554833Y-69827642D01*
X119554833Y-69018119D02*
X119602452Y-68970500D01*
X119697690Y-68922880D01*
X119935785Y-68922880D01*
X120031023Y-68970500D01*
X120078642Y-69018119D01*
X120126261Y-69113357D01*
X120126261Y-69208595D01*
X120078642Y-69351452D01*
X119507214Y-69922880D01*
X120126261Y-69922880D01*
X121316738Y-69922880D02*
X121316738Y-68922880D01*
X121697690Y-68922880D01*
X121792928Y-68970500D01*
X121840547Y-69018119D01*
X121888166Y-69113357D01*
X121888166Y-69256214D01*
X121840547Y-69351452D01*
X121792928Y-69399071D01*
X121697690Y-69446690D01*
X121316738Y-69446690D01*
X122459595Y-69922880D02*
X122364357Y-69875261D01*
X122316738Y-69780023D01*
X122316738Y-68922880D01*
X122983404Y-69922880D02*
X122888166Y-69875261D01*
X122840547Y-69827642D01*
X122792928Y-69732404D01*
X122792928Y-69446690D01*
X122840547Y-69351452D01*
X122888166Y-69303833D01*
X122983404Y-69256214D01*
X123126261Y-69256214D01*
X123221500Y-69303833D01*
X123269119Y-69351452D01*
X123316738Y-69446690D01*
X123316738Y-69732404D01*
X123269119Y-69827642D01*
X123221500Y-69875261D01*
X123126261Y-69922880D01*
X122983404Y-69922880D01*
X123602452Y-69256214D02*
X123983404Y-69256214D01*
X123745309Y-68922880D02*
X123745309Y-69780023D01*
X123792928Y-69875261D01*
X123888166Y-69922880D01*
X123983404Y-69922880D01*
X124173880Y-69256214D02*
X124554833Y-69256214D01*
X124316738Y-68922880D02*
X124316738Y-69780023D01*
X124364357Y-69875261D01*
X124459595Y-69922880D01*
X124554833Y-69922880D01*
X125269119Y-69875261D02*
X125173880Y-69922880D01*
X124983404Y-69922880D01*
X124888166Y-69875261D01*
X124840547Y-69780023D01*
X124840547Y-69399071D01*
X124888166Y-69303833D01*
X124983404Y-69256214D01*
X125173880Y-69256214D01*
X125269119Y-69303833D01*
X125316738Y-69399071D01*
X125316738Y-69494309D01*
X124840547Y-69589547D01*
X125745309Y-69922880D02*
X125745309Y-69256214D01*
X125745309Y-69446690D02*
X125792928Y-69351452D01*
X125840547Y-69303833D01*
X125935785Y-69256214D01*
X126031023Y-69256214D01*
X118316738Y-71477642D02*
X118269119Y-71525261D01*
X118126261Y-71572880D01*
X118031023Y-71572880D01*
X117888166Y-71525261D01*
X117792928Y-71430023D01*
X117745309Y-71334785D01*
X117697690Y-71144309D01*
X117697690Y-71001452D01*
X117745309Y-70810976D01*
X117792928Y-70715738D01*
X117888166Y-70620500D01*
X118031023Y-70572880D01*
X118126261Y-70572880D01*
X118269119Y-70620500D01*
X118316738Y-70668119D01*
X118888166Y-71572880D02*
X118792928Y-71525261D01*
X118745309Y-71477642D01*
X118697690Y-71382404D01*
X118697690Y-71096690D01*
X118745309Y-71001452D01*
X118792928Y-70953833D01*
X118888166Y-70906214D01*
X119031023Y-70906214D01*
X119126261Y-70953833D01*
X119173880Y-71001452D01*
X119221500Y-71096690D01*
X119221500Y-71382404D01*
X119173880Y-71477642D01*
X119126261Y-71525261D01*
X119031023Y-71572880D01*
X118888166Y-71572880D01*
X119650071Y-70906214D02*
X119650071Y-71572880D01*
X119650071Y-71001452D02*
X119697690Y-70953833D01*
X119792928Y-70906214D01*
X119935785Y-70906214D01*
X120031023Y-70953833D01*
X120078642Y-71049071D01*
X120078642Y-71572880D01*
X120411976Y-70906214D02*
X120792928Y-70906214D01*
X120554833Y-70572880D02*
X120554833Y-71430023D01*
X120602452Y-71525261D01*
X120697690Y-71572880D01*
X120792928Y-71572880D01*
X121126261Y-71572880D02*
X121126261Y-70906214D01*
X121126261Y-71096690D02*
X121173880Y-71001452D01*
X121221500Y-70953833D01*
X121316738Y-70906214D01*
X121411976Y-70906214D01*
X121888166Y-71572880D02*
X121792928Y-71525261D01*
X121745309Y-71477642D01*
X121697690Y-71382404D01*
X121697690Y-71096690D01*
X121745309Y-71001452D01*
X121792928Y-70953833D01*
X121888166Y-70906214D01*
X122031023Y-70906214D01*
X122126261Y-70953833D01*
X122173880Y-71001452D01*
X122221500Y-71096690D01*
X122221500Y-71382404D01*
X122173880Y-71477642D01*
X122126261Y-71525261D01*
X122031023Y-71572880D01*
X121888166Y-71572880D01*
X122792928Y-71572880D02*
X122697690Y-71525261D01*
X122650071Y-71430023D01*
X122650071Y-70572880D01*
X123316738Y-71572880D02*
X123221500Y-71525261D01*
X123173880Y-71430023D01*
X123173880Y-70572880D01*
X124078642Y-71525261D02*
X123983404Y-71572880D01*
X123792928Y-71572880D01*
X123697690Y-71525261D01*
X123650071Y-71430023D01*
X123650071Y-71049071D01*
X123697690Y-70953833D01*
X123792928Y-70906214D01*
X123983404Y-70906214D01*
X124078642Y-70953833D01*
X124126261Y-71049071D01*
X124126261Y-71144309D01*
X123650071Y-71239547D01*
X124554833Y-71572880D02*
X124554833Y-70906214D01*
X124554833Y-71096690D02*
X124602452Y-71001452D01*
X124650071Y-70953833D01*
X124745309Y-70906214D01*
X124840547Y-70906214D01*
X119292928Y-73222880D02*
X118959595Y-72746690D01*
X118721500Y-73222880D02*
X118721500Y-72222880D01*
X119102452Y-72222880D01*
X119197690Y-72270500D01*
X119245309Y-72318119D01*
X119292928Y-72413357D01*
X119292928Y-72556214D01*
X119245309Y-72651452D01*
X119197690Y-72699071D01*
X119102452Y-72746690D01*
X118721500Y-72746690D01*
X120102452Y-73175261D02*
X120007214Y-73222880D01*
X119816738Y-73222880D01*
X119721500Y-73175261D01*
X119673880Y-73080023D01*
X119673880Y-72699071D01*
X119721500Y-72603833D01*
X119816738Y-72556214D01*
X120007214Y-72556214D01*
X120102452Y-72603833D01*
X120150071Y-72699071D01*
X120150071Y-72794309D01*
X119673880Y-72889547D01*
X120483404Y-72556214D02*
X120721500Y-73222880D01*
X120959595Y-72556214D01*
X121340547Y-73127642D02*
X121388166Y-73175261D01*
X121340547Y-73222880D01*
X121292928Y-73175261D01*
X121340547Y-73127642D01*
X121340547Y-73222880D01*
X121340547Y-72603833D02*
X121388166Y-72651452D01*
X121340547Y-72699071D01*
X121292928Y-72651452D01*
X121340547Y-72603833D01*
X121340547Y-72699071D01*
X122531023Y-72937166D02*
X123007214Y-72937166D01*
X122435785Y-73222880D02*
X122769119Y-72222880D01*
X123102452Y-73222880D01*
X115031023Y-73872880D02*
X114935785Y-74063357D01*
X115459595Y-74872880D02*
X115459595Y-73872880D01*
X115697690Y-73872880D01*
X115840547Y-73920500D01*
X115935785Y-74015738D01*
X115983404Y-74110976D01*
X116031023Y-74301452D01*
X116031023Y-74444309D01*
X115983404Y-74634785D01*
X115935785Y-74730023D01*
X115840547Y-74825261D01*
X115697690Y-74872880D01*
X115459595Y-74872880D01*
X116459595Y-74872880D02*
X116459595Y-73872880D01*
X116888166Y-74587166D02*
X117364357Y-74587166D01*
X116792928Y-74872880D02*
X117126261Y-73872880D01*
X117459595Y-74872880D01*
X117792928Y-74872880D02*
X117792928Y-73872880D01*
X118126261Y-74587166D01*
X118459595Y-73872880D01*
X118459595Y-74872880D01*
X119126261Y-73872880D02*
X119316738Y-73872880D01*
X119411976Y-73920500D01*
X119507214Y-74015738D01*
X119554833Y-74206214D01*
X119554833Y-74539547D01*
X119507214Y-74730023D01*
X119411976Y-74825261D01*
X119316738Y-74872880D01*
X119126261Y-74872880D01*
X119031023Y-74825261D01*
X118935785Y-74730023D01*
X118888166Y-74539547D01*
X118888166Y-74206214D01*
X118935785Y-74015738D01*
X119031023Y-73920500D01*
X119126261Y-73872880D01*
X119983404Y-74872880D02*
X119983404Y-73872880D01*
X120554833Y-74872880D01*
X120554833Y-73872880D01*
X121031023Y-74872880D02*
X121031023Y-73872880D01*
X121269119Y-73872880D01*
X121411976Y-73920500D01*
X121507214Y-74015738D01*
X121554833Y-74110976D01*
X121602452Y-74301452D01*
X121602452Y-74444309D01*
X121554833Y-74634785D01*
X121507214Y-74730023D01*
X121411976Y-74825261D01*
X121269119Y-74872880D01*
X121031023Y-74872880D01*
X123364357Y-74777642D02*
X123316738Y-74825261D01*
X123173880Y-74872880D01*
X123078642Y-74872880D01*
X122935785Y-74825261D01*
X122840547Y-74730023D01*
X122792928Y-74634785D01*
X122745309Y-74444309D01*
X122745309Y-74301452D01*
X122792928Y-74110976D01*
X122840547Y-74015738D01*
X122935785Y-73920500D01*
X123078642Y-73872880D01*
X123173880Y-73872880D01*
X123316738Y-73920500D01*
X123364357Y-73968119D01*
X123792928Y-74872880D02*
X123792928Y-73872880D01*
X123792928Y-74349071D02*
X124364357Y-74349071D01*
X124364357Y-74872880D02*
X124364357Y-73872880D01*
X124840547Y-74872880D02*
X124840547Y-73872880D01*
X125316738Y-74872880D02*
X125316738Y-73872880D01*
X125650071Y-74587166D01*
X125983404Y-73872880D01*
X125983404Y-74872880D01*
X126459595Y-74872880D02*
X126459595Y-73872880D01*
X126840547Y-73872880D01*
X126935785Y-73920500D01*
X126983404Y-73968119D01*
X127031023Y-74063357D01*
X127031023Y-74206214D01*
X126983404Y-74301452D01*
X126935785Y-74349071D01*
X126840547Y-74396690D01*
X126459595Y-74396690D01*
X127507214Y-73872880D02*
X127411976Y-74063357D01*
D11*
X154069637Y-118690406D02*
X154073253Y-118689907D01*
X154050726Y-118691260D02*
X154050726Y-118691260D01*
X154061618Y-118690817D02*
X154063626Y-118692830D01*
X154102002Y-118690040D02*
X154100987Y-118695559D01*
X154017452Y-118685604D02*
X154020117Y-118682853D01*
X154031993Y-118698470D02*
X154045987Y-118696084D01*
X154105096Y-118696822D02*
X154102002Y-118690040D01*
X154061663Y-118688144D02*
X154061663Y-118688144D01*
X154006092Y-118681655D02*
X154020733Y-118702850D01*
X154067745Y-118695105D02*
X154064245Y-118695382D01*
X154079963Y-118688144D02*
X154080230Y-118698914D01*
X154054009Y-118683086D02*
X154052129Y-118684345D01*
X154045987Y-118696084D02*
X154039403Y-118690985D01*
X154020336Y-118688632D02*
X154020336Y-118688632D01*
X154029409Y-118693501D02*
X154029409Y-118693501D01*
X154103087Y-118688316D02*
X154105096Y-118696822D01*
X154088753Y-118688952D02*
X154094560Y-118688399D01*
X154089801Y-118690185D02*
X154092380Y-118692763D01*
X154058391Y-118696185D02*
X154061663Y-118688144D01*
X154073253Y-118689907D02*
X154079963Y-118688144D01*
X154061618Y-118690817D02*
X154061618Y-118690817D01*
X154064245Y-118695382D02*
X154058391Y-118696185D01*
X154031993Y-118698470D02*
X154031993Y-118698470D01*
X154061663Y-118688144D02*
X154067745Y-118695105D01*
X154020336Y-118688632D02*
X154017452Y-118685604D01*
X154054009Y-118683086D02*
X154054009Y-118683086D01*
X154099884Y-118688443D02*
X154103087Y-118688316D01*
X154073335Y-118693373D02*
X154069977Y-118697914D01*
X154020117Y-118682853D02*
X154020551Y-118687356D01*
X154050726Y-118691260D02*
X154056139Y-118690096D01*
X154034772Y-118693993D02*
X154037155Y-118686576D01*
X154089801Y-118690185D02*
X154089801Y-118690185D01*
X154037155Y-118686576D02*
X154029409Y-118693501D01*
X154069637Y-118690406D02*
X154069637Y-118690406D01*
X154022144Y-118697339D02*
X154034772Y-118693993D01*
X154069977Y-118697914D02*
X154069637Y-118690406D01*
X154035819Y-118683042D02*
X154049894Y-118690883D01*
X153989498Y-118682352D02*
X153989498Y-118682352D01*
X153980713Y-118704663D02*
X153989498Y-118682352D01*
X154029409Y-118693501D02*
X154035819Y-118683042D01*
X154002606Y-118729903D02*
X153980713Y-118704663D01*
X154078588Y-118691893D02*
X154075158Y-118697483D01*
X154063626Y-118692830D02*
X154061618Y-118690817D01*
X154039403Y-118690985D02*
X154031993Y-118698470D01*
X154020551Y-118687356D02*
X154020336Y-118688632D01*
X154093681Y-118696704D02*
X154088753Y-118688952D01*
X154020733Y-118702850D02*
X154002606Y-118729903D01*
X154094560Y-118688399D02*
X154093681Y-118696704D01*
X154092380Y-118692763D02*
X154089801Y-118690185D01*
X153989498Y-118682352D02*
X154006092Y-118681655D01*
X154053292Y-118697981D02*
X154050726Y-118691260D01*
X154052129Y-118684345D02*
X154054009Y-118683086D01*
X154056139Y-118690096D02*
X154053292Y-118697981D01*
X154075158Y-118697483D02*
X154073335Y-118693373D01*
X154080230Y-118698914D02*
X154078588Y-118691893D01*
X154036669Y-118702215D02*
X154022144Y-118697339D01*
X154049894Y-118690883D02*
X154036669Y-118702215D01*
X154061815Y-118712690D02*
X154062542Y-118712837D01*
X154056436Y-118716546D02*
X154048689Y-118725485D01*
X154117619Y-118697494D02*
X154117619Y-118697494D01*
X154044390Y-118713615D02*
X154053663Y-118716905D01*
X154053261Y-118719195D02*
X154041461Y-118720446D01*
X154071199Y-118716372D02*
X154074505Y-118718914D01*
X154113574Y-118694722D02*
X154108098Y-118696429D01*
X154072490Y-118710614D02*
X154071199Y-118716372D01*
X154067927Y-118712579D02*
X154072490Y-118710614D01*
X154058466Y-118712579D02*
X154058466Y-118712579D01*
X154071276Y-118712690D02*
X154072003Y-118712837D01*
X154061815Y-118712690D02*
X154061815Y-118712690D01*
X154048689Y-118725485D02*
X154053261Y-118719195D01*
X154062542Y-118712837D02*
X154061815Y-118712690D01*
X154054368Y-118711122D02*
X154044390Y-118713615D01*
X154099844Y-118688457D02*
X154099884Y-118688443D01*
X154058387Y-118714071D02*
X154058466Y-118712579D01*
X154065044Y-118718914D02*
X154058387Y-118714071D01*
X154061738Y-118716372D02*
X154065044Y-118718914D01*
X154047962Y-118705677D02*
X154054368Y-118711122D01*
X154063029Y-118710614D02*
X154061738Y-118716372D01*
X154094560Y-118688399D02*
X154094560Y-118688399D01*
X154058466Y-118712579D02*
X154063029Y-118710614D01*
X154053663Y-118716905D02*
X154053663Y-118716905D01*
X154113681Y-118688310D02*
X154117663Y-118683097D01*
X154108098Y-118696429D02*
X154113681Y-118688310D01*
X154117619Y-118697494D02*
X154113574Y-118694722D01*
X154041461Y-118720446D02*
X154047962Y-118705677D01*
X154111796Y-118694444D02*
X154111286Y-118690318D01*
X154111286Y-118690318D02*
X154111796Y-118694444D01*
X154111286Y-118690318D02*
X154111286Y-118690318D01*
X154097244Y-118694938D02*
X154099844Y-118688457D01*
X154053663Y-118716905D02*
X154056436Y-118716546D01*
X154100987Y-118695559D02*
X154097244Y-118694938D01*
X154117663Y-118683097D02*
X154117619Y-118697494D01*
X154108402Y-118710982D02*
X154105518Y-118707954D01*
X154101714Y-118713544D02*
X154102322Y-118717874D01*
X154101381Y-118711071D02*
X154101714Y-118713544D01*
X154071276Y-118712690D02*
X154071276Y-118712690D01*
X154090554Y-118712690D02*
X154090554Y-118712690D01*
X154083124Y-118716651D02*
X154082583Y-118720230D01*
X154091280Y-118712837D02*
X154090554Y-118712690D01*
X154067927Y-118712579D02*
X154067927Y-118712579D01*
X154085738Y-118711486D02*
X154083124Y-118716651D01*
X154076698Y-118714697D02*
X154080412Y-118710907D01*
X153987696Y-118676834D02*
X153988699Y-118679958D01*
X153988985Y-118673846D02*
X153987696Y-118676834D01*
X153988699Y-118679958D02*
X153988985Y-118673846D01*
X154001769Y-118697133D02*
X154016411Y-118701735D01*
X154004976Y-118686675D02*
X154001211Y-118692113D01*
X153984338Y-118703408D02*
X153997586Y-118694205D01*
X154105518Y-118707954D02*
X154108184Y-118705203D01*
X154080412Y-118710907D02*
X154085738Y-118711486D01*
X154091767Y-118710614D02*
X154090476Y-118716372D01*
X154082583Y-118720230D02*
X154078705Y-118717357D01*
X154067848Y-118714071D02*
X154067927Y-118712579D01*
X154004976Y-118686675D02*
X154004976Y-118686675D01*
X153992012Y-118676417D02*
X153990812Y-118680472D01*
X154074505Y-118718914D02*
X154067848Y-118714071D01*
X154093782Y-118718914D02*
X154087125Y-118714071D01*
X154004279Y-118720141D02*
X154004279Y-118720141D01*
X154072003Y-118712837D02*
X154071276Y-118712690D01*
X154001211Y-118692113D02*
X154013064Y-118696994D01*
X153987546Y-118705779D02*
X154001908Y-118723767D01*
X153991729Y-118685699D02*
X153991729Y-118685699D01*
X154003164Y-118683886D02*
X153994657Y-118684583D01*
X153998143Y-118690719D02*
X154003164Y-118683886D01*
X153997586Y-118694205D02*
X153991729Y-118685699D01*
X153991729Y-118685699D02*
X153984338Y-118703408D01*
X154087204Y-118712579D02*
X154091767Y-118710614D01*
X154076698Y-118714697D02*
X154076698Y-118714697D01*
X154090554Y-118712690D02*
X154091280Y-118712837D01*
X154108617Y-118709706D02*
X154108402Y-118710982D01*
X154099348Y-118710789D02*
X154101381Y-118711071D01*
X154108184Y-118705203D02*
X154108617Y-118709706D01*
X153990812Y-118680472D02*
X153992012Y-118676417D01*
X154016411Y-118701735D02*
X154004279Y-118720141D01*
X154004279Y-118720141D02*
X154001769Y-118697133D01*
X154096911Y-118713766D02*
X154099348Y-118710789D01*
X154090476Y-118716372D02*
X154093782Y-118718914D01*
X153994657Y-118684583D02*
X153994657Y-118684583D01*
X154001908Y-118723767D02*
X153998283Y-118696715D01*
X154108402Y-118710982D02*
X154108402Y-118710982D01*
X154102322Y-118717874D02*
X154096911Y-118713766D01*
X154078705Y-118717357D02*
X154076698Y-118714697D01*
X154087125Y-118714071D02*
X154087204Y-118712579D01*
X153998283Y-118696715D02*
X153987546Y-118705779D01*
X154087204Y-118712579D02*
X154087204Y-118712579D01*
X154013064Y-118696994D02*
X154004976Y-118686675D01*
X153998283Y-118696715D02*
X153998283Y-118696715D01*
X153994657Y-118684583D02*
X153998143Y-118690719D01*
X154096911Y-118713766D02*
X154096911Y-118713766D01*
X153990812Y-118680472D02*
X153990812Y-118680472D01*
X153983386Y-118678649D02*
X153986163Y-118681333D01*
X153987500Y-118681500D02*
X153987500Y-118681500D01*
X153986163Y-118681333D02*
X153987500Y-118681500D01*
X153988699Y-118679958D02*
X153988699Y-118679958D01*
X153987500Y-118681500D02*
X153983386Y-118678649D01*
D12*
%TO.C,J1*%
X173037500Y-114169500D02*
X171707500Y-114169500D01*
X171707500Y-114169500D02*
X171707500Y-112839500D01*
X174307500Y-114169500D02*
X174307500Y-111569500D01*
X174307500Y-111569500D02*
X171707500Y-111569500D01*
X171707500Y-111569500D02*
X171707500Y-101349500D01*
X176907500Y-101349500D02*
X171707500Y-101349500D01*
X176907500Y-114169500D02*
X176907500Y-101349500D01*
X176907500Y-114169500D02*
X174307500Y-114169500D01*
%TO.C,J8*%
X185102500Y-109405500D02*
X185102500Y-117205500D01*
X185102500Y-119405500D02*
X185102500Y-121305500D01*
X200602500Y-119405500D02*
X200602500Y-121305500D01*
X200602500Y-121305500D02*
X185102500Y-121305500D01*
X200602500Y-108105500D02*
X200402500Y-108105500D01*
X200602500Y-117205500D02*
X200602500Y-108105500D01*
X194802500Y-122005500D02*
X193602500Y-121305500D01*
X200602500Y-122005500D02*
X194802500Y-122005500D01*
X200602500Y-122005500D02*
X200602500Y-121305500D01*
X195502500Y-108105500D02*
X198902500Y-108105500D01*
D10*
%TO.C,U3*%
X169633900Y-80810100D02*
X151853900Y-80810100D01*
X150583900Y-82080100D02*
X150583900Y-94780100D01*
X151853900Y-96050100D02*
X169633900Y-96050100D01*
X170903900Y-82080100D02*
X170903900Y-94780100D01*
X150583900Y-94780100D02*
G75*
G03*
X151853900Y-96050100I1270000J0D01*
G01*
X169633900Y-96050100D02*
G75*
G03*
X170903900Y-94780100I0J1270000D01*
G01*
X170903900Y-82080100D02*
G75*
G03*
X169633900Y-80810100I-1270000J0D01*
G01*
X151853900Y-80810100D02*
G75*
G03*
X150583900Y-82080100I0J-1270000D01*
G01*
%TO.C,U2*%
X148297900Y-80810100D02*
X130517900Y-80810100D01*
X129247900Y-82080100D02*
X129247900Y-94780100D01*
X130517900Y-96050100D02*
X148297900Y-96050100D01*
X149567900Y-82080100D02*
X149567900Y-94780100D01*
X129247900Y-94780100D02*
G75*
G03*
X130517900Y-96050100I1270000J0D01*
G01*
X148297900Y-96050100D02*
G75*
G03*
X149567900Y-94780100I0J1270000D01*
G01*
X149567900Y-82080100D02*
G75*
G03*
X148297900Y-80810100I-1270000J0D01*
G01*
X130517900Y-80810100D02*
G75*
G03*
X129247900Y-82080100I0J-1270000D01*
G01*
D13*
%TO.C,G\u002A\u002A\u002A*%
G36*
X176555501Y-93731506D02*
G01*
X176592637Y-93544217D01*
X176639997Y-93409300D01*
X176658741Y-93381359D01*
X176752813Y-93350314D01*
X176937002Y-93330771D01*
X177174976Y-93322408D01*
X177430405Y-93324905D01*
X177666956Y-93337939D01*
X177848299Y-93361190D01*
X177936559Y-93392660D01*
X177985428Y-93494495D01*
X178026326Y-93668239D01*
X178036228Y-93739293D01*
X178067600Y-94017630D01*
X177292000Y-94017630D01*
X177292000Y-93726000D01*
X177473115Y-93714578D01*
X177588073Y-93685374D01*
X177609500Y-93662500D01*
X177552389Y-93626277D01*
X177406368Y-93603286D01*
X177292000Y-93599000D01*
X177110884Y-93610423D01*
X176995926Y-93639627D01*
X176974500Y-93662500D01*
X177031610Y-93698724D01*
X177177631Y-93721715D01*
X177292000Y-93726000D01*
X177292000Y-94017630D01*
X176516283Y-94017630D01*
X176555501Y-93731506D01*
G37*
X176555501Y-93731506D02*
X176592637Y-93544217D01*
X176639997Y-93409300D01*
X176658741Y-93381359D01*
X176752813Y-93350314D01*
X176937002Y-93330771D01*
X177174976Y-93322408D01*
X177430405Y-93324905D01*
X177666956Y-93337939D01*
X177848299Y-93361190D01*
X177936559Y-93392660D01*
X177985428Y-93494495D01*
X178026326Y-93668239D01*
X178036228Y-93739293D01*
X178067600Y-94017630D01*
X177292000Y-94017630D01*
X177292000Y-93726000D01*
X177473115Y-93714578D01*
X177588073Y-93685374D01*
X177609500Y-93662500D01*
X177552389Y-93626277D01*
X177406368Y-93603286D01*
X177292000Y-93599000D01*
X177110884Y-93610423D01*
X176995926Y-93639627D01*
X176974500Y-93662500D01*
X177031610Y-93698724D01*
X177177631Y-93721715D01*
X177292000Y-93726000D01*
X177292000Y-94017630D01*
X176516283Y-94017630D01*
X176555501Y-93731506D01*
G36*
X176542816Y-92999210D02*
G01*
X176602498Y-92836700D01*
X176731461Y-92776432D01*
X176916962Y-92823687D01*
X176938975Y-92834980D01*
X177090382Y-92881200D01*
X177277404Y-92893935D01*
X177458906Y-92876787D01*
X177593754Y-92833357D01*
X177641250Y-92773500D01*
X177600332Y-92713907D01*
X177467085Y-92661275D01*
X177251245Y-92615283D01*
X177251245Y-92412396D01*
X177292000Y-92383695D01*
X177237607Y-92342565D01*
X177133250Y-92329000D01*
X177013767Y-92337361D01*
X176974500Y-92353348D01*
X177028431Y-92381905D01*
X177133250Y-92408042D01*
X177251245Y-92412396D01*
X177251245Y-92615283D01*
X177225766Y-92609853D01*
X177165000Y-92599514D01*
X176874429Y-92549447D01*
X176687954Y-92508355D01*
X176584073Y-92466413D01*
X176541280Y-92413797D01*
X176538072Y-92340682D01*
X176541421Y-92314624D01*
X176570276Y-92248377D01*
X176646527Y-92191852D01*
X176785886Y-92140607D01*
X177004069Y-92090202D01*
X177316788Y-92036195D01*
X177739758Y-91974146D01*
X177752375Y-91972384D01*
X178054000Y-91930311D01*
X178054000Y-92135375D01*
X178048295Y-92259277D01*
X178008633Y-92316390D01*
X177901192Y-92327679D01*
X177757989Y-92318845D01*
X177545544Y-92320349D01*
X177442324Y-92362190D01*
X177436018Y-92374163D01*
X177456093Y-92418019D01*
X177569504Y-92427569D01*
X177724850Y-92413793D01*
X178039643Y-92376511D01*
X178041995Y-92784321D01*
X178044348Y-93192130D01*
X176523882Y-93192130D01*
X176542816Y-92999210D01*
G37*
X176542816Y-92999210D02*
X176602498Y-92836700D01*
X176731461Y-92776432D01*
X176916962Y-92823687D01*
X176938975Y-92834980D01*
X177090382Y-92881200D01*
X177277404Y-92893935D01*
X177458906Y-92876787D01*
X177593754Y-92833357D01*
X177641250Y-92773500D01*
X177600332Y-92713907D01*
X177467085Y-92661275D01*
X177251245Y-92615283D01*
X177251245Y-92412396D01*
X177292000Y-92383695D01*
X177237607Y-92342565D01*
X177133250Y-92329000D01*
X177013767Y-92337361D01*
X176974500Y-92353348D01*
X177028431Y-92381905D01*
X177133250Y-92408042D01*
X177251245Y-92412396D01*
X177251245Y-92615283D01*
X177225766Y-92609853D01*
X177165000Y-92599514D01*
X176874429Y-92549447D01*
X176687954Y-92508355D01*
X176584073Y-92466413D01*
X176541280Y-92413797D01*
X176538072Y-92340682D01*
X176541421Y-92314624D01*
X176570276Y-92248377D01*
X176646527Y-92191852D01*
X176785886Y-92140607D01*
X177004069Y-92090202D01*
X177316788Y-92036195D01*
X177739758Y-91974146D01*
X177752375Y-91972384D01*
X178054000Y-91930311D01*
X178054000Y-92135375D01*
X178048295Y-92259277D01*
X178008633Y-92316390D01*
X177901192Y-92327679D01*
X177757989Y-92318845D01*
X177545544Y-92320349D01*
X177442324Y-92362190D01*
X177436018Y-92374163D01*
X177456093Y-92418019D01*
X177569504Y-92427569D01*
X177724850Y-92413793D01*
X178039643Y-92376511D01*
X178041995Y-92784321D01*
X178044348Y-93192130D01*
X176523882Y-93192130D01*
X176542816Y-92999210D01*
G36*
X178054000Y-90830871D02*
G01*
X178054000Y-91198890D01*
X177593625Y-91163799D01*
X177133250Y-91128707D01*
X177561958Y-91210354D01*
X177838049Y-91266498D01*
X177997932Y-91312468D01*
X178039853Y-91355177D01*
X177962059Y-91401541D01*
X177762794Y-91458474D01*
X177482500Y-91523492D01*
X177269729Y-91572189D01*
X177171712Y-91600496D01*
X177179055Y-91614794D01*
X177282365Y-91621463D01*
X177335877Y-91623076D01*
X177510062Y-91613813D01*
X177624635Y-91581668D01*
X177641250Y-91567000D01*
X177727092Y-91521251D01*
X177867247Y-91503500D01*
X178000720Y-91520413D01*
X178049100Y-91596915D01*
X178054000Y-91683181D01*
X178054000Y-91862862D01*
X177307875Y-91856736D01*
X176561750Y-91850609D01*
X176542014Y-91647483D01*
X176535512Y-91535323D01*
X176560827Y-91466479D01*
X176644334Y-91421859D01*
X176812404Y-91382372D01*
X176942750Y-91357383D01*
X177007284Y-91335507D01*
X176959966Y-91308045D01*
X176879250Y-91286107D01*
X176717218Y-91244469D01*
X176609375Y-91214440D01*
X176551748Y-91140295D01*
X176530000Y-91010429D01*
X176530000Y-90830871D01*
X178054000Y-90830871D01*
G37*
X178054000Y-90830871D02*
X178054000Y-91198890D01*
X177593625Y-91163799D01*
X177133250Y-91128707D01*
X177561958Y-91210354D01*
X177838049Y-91266498D01*
X177997932Y-91312468D01*
X178039853Y-91355177D01*
X177962059Y-91401541D01*
X177762794Y-91458474D01*
X177482500Y-91523492D01*
X177269729Y-91572189D01*
X177171712Y-91600496D01*
X177179055Y-91614794D01*
X177282365Y-91621463D01*
X177335877Y-91623076D01*
X177510062Y-91613813D01*
X177624635Y-91581668D01*
X177641250Y-91567000D01*
X177727092Y-91521251D01*
X177867247Y-91503500D01*
X178000720Y-91520413D01*
X178049100Y-91596915D01*
X178054000Y-91683181D01*
X178054000Y-91862862D01*
X177307875Y-91856736D01*
X176561750Y-91850609D01*
X176542014Y-91647483D01*
X176535512Y-91535323D01*
X176560827Y-91466479D01*
X176644334Y-91421859D01*
X176812404Y-91382372D01*
X176942750Y-91357383D01*
X177007284Y-91335507D01*
X176959966Y-91308045D01*
X176879250Y-91286107D01*
X176717218Y-91244469D01*
X176609375Y-91214440D01*
X176551748Y-91140295D01*
X176530000Y-91010429D01*
X176530000Y-90830871D01*
X178054000Y-90830871D01*
G36*
X176559014Y-90218752D02*
G01*
X176657058Y-90123611D01*
X176840636Y-90067987D01*
X177126249Y-90044789D01*
X177268960Y-90043000D01*
X177605027Y-90051913D01*
X177833269Y-90083569D01*
X177971926Y-90145346D01*
X178039241Y-90244621D01*
X178054000Y-90360500D01*
X178008925Y-90538807D01*
X177931174Y-90612266D01*
X177812740Y-90642681D01*
X177606046Y-90665633D01*
X177349781Y-90677283D01*
X177292000Y-90677795D01*
X177292000Y-90424000D01*
X177473115Y-90412578D01*
X177588073Y-90383374D01*
X177609500Y-90360500D01*
X177552389Y-90324277D01*
X177406368Y-90301286D01*
X177292000Y-90297000D01*
X177110884Y-90308423D01*
X176995926Y-90337627D01*
X176974500Y-90360500D01*
X177031610Y-90396724D01*
X177177631Y-90419715D01*
X177292000Y-90424000D01*
X177292000Y-90677795D01*
X177268960Y-90678000D01*
X176939049Y-90665534D01*
X176717615Y-90623409D01*
X176588154Y-90544533D01*
X176534163Y-90421817D01*
X176530000Y-90360500D01*
X176559014Y-90218752D01*
G37*
X176559014Y-90218752D02*
X176657058Y-90123611D01*
X176840636Y-90067987D01*
X177126249Y-90044789D01*
X177268960Y-90043000D01*
X177605027Y-90051913D01*
X177833269Y-90083569D01*
X177971926Y-90145346D01*
X178039241Y-90244621D01*
X178054000Y-90360500D01*
X178008925Y-90538807D01*
X177931174Y-90612266D01*
X177812740Y-90642681D01*
X177606046Y-90665633D01*
X177349781Y-90677283D01*
X177292000Y-90677795D01*
X177292000Y-90424000D01*
X177473115Y-90412578D01*
X177588073Y-90383374D01*
X177609500Y-90360500D01*
X177552389Y-90324277D01*
X177406368Y-90301286D01*
X177292000Y-90297000D01*
X177110884Y-90308423D01*
X176995926Y-90337627D01*
X176974500Y-90360500D01*
X177031610Y-90396724D01*
X177177631Y-90419715D01*
X177292000Y-90424000D01*
X177292000Y-90677795D01*
X177268960Y-90678000D01*
X176939049Y-90665534D01*
X176717615Y-90623409D01*
X176588154Y-90544533D01*
X176534163Y-90421817D01*
X176530000Y-90360500D01*
X176559014Y-90218752D01*
G36*
X176544748Y-89653578D02*
G01*
X176603570Y-89582412D01*
X176728328Y-89516509D01*
X176940884Y-89442927D01*
X177133250Y-89385781D01*
X177450750Y-89294223D01*
X177212625Y-89287612D01*
X177059662Y-89298294D01*
X176978469Y-89333068D01*
X176974500Y-89344500D01*
X176918603Y-89386158D01*
X176780840Y-89407331D01*
X176748032Y-89408000D01*
X176598297Y-89398894D01*
X176540802Y-89352125D01*
X176541070Y-89238523D01*
X176541657Y-89233375D01*
X176592590Y-89091576D01*
X176711948Y-89037499D01*
X176856880Y-89047342D01*
X176931023Y-89085124D01*
X177024246Y-89117583D01*
X177210789Y-89141645D01*
X177457055Y-89153428D01*
X177526950Y-89154000D01*
X177785791Y-89156517D01*
X177942748Y-89168059D01*
X178022900Y-89194610D01*
X178051326Y-89242157D01*
X178054000Y-89279791D01*
X177999954Y-89394047D01*
X177879375Y-89445427D01*
X177713379Y-89486194D01*
X177492807Y-89543846D01*
X177387250Y-89572434D01*
X177069750Y-89659596D01*
X177561875Y-89623630D01*
X177808689Y-89607178D01*
X177955093Y-89606604D01*
X178027304Y-89628051D01*
X178051538Y-89677657D01*
X178054000Y-89738898D01*
X178050335Y-89802611D01*
X178025231Y-89845321D01*
X177957519Y-89871226D01*
X177826035Y-89884529D01*
X177609612Y-89889430D01*
X177292000Y-89890130D01*
X176970954Y-89889326D01*
X176755744Y-89884187D01*
X176625207Y-89870626D01*
X176558180Y-89844555D01*
X176533499Y-89801888D01*
X176530000Y-89742954D01*
X176544748Y-89653578D01*
G37*
X176544748Y-89653578D02*
X176603570Y-89582412D01*
X176728328Y-89516509D01*
X176940884Y-89442927D01*
X177133250Y-89385781D01*
X177450750Y-89294223D01*
X177212625Y-89287612D01*
X177059662Y-89298294D01*
X176978469Y-89333068D01*
X176974500Y-89344500D01*
X176918603Y-89386158D01*
X176780840Y-89407331D01*
X176748032Y-89408000D01*
X176598297Y-89398894D01*
X176540802Y-89352125D01*
X176541070Y-89238523D01*
X176541657Y-89233375D01*
X176592590Y-89091576D01*
X176711948Y-89037499D01*
X176856880Y-89047342D01*
X176931023Y-89085124D01*
X177024246Y-89117583D01*
X177210789Y-89141645D01*
X177457055Y-89153428D01*
X177526950Y-89154000D01*
X177785791Y-89156517D01*
X177942748Y-89168059D01*
X178022900Y-89194610D01*
X178051326Y-89242157D01*
X178054000Y-89279791D01*
X177999954Y-89394047D01*
X177879375Y-89445427D01*
X177713379Y-89486194D01*
X177492807Y-89543846D01*
X177387250Y-89572434D01*
X177069750Y-89659596D01*
X177561875Y-89623630D01*
X177808689Y-89607178D01*
X177955093Y-89606604D01*
X178027304Y-89628051D01*
X178051538Y-89677657D01*
X178054000Y-89738898D01*
X178050335Y-89802611D01*
X178025231Y-89845321D01*
X177957519Y-89871226D01*
X177826035Y-89884529D01*
X177609612Y-89889430D01*
X177292000Y-89890130D01*
X176970954Y-89889326D01*
X176755744Y-89884187D01*
X176625207Y-89870626D01*
X176558180Y-89844555D01*
X176533499Y-89801888D01*
X176530000Y-89742954D01*
X176544748Y-89653578D01*
G36*
X176549415Y-88694075D02*
G01*
X176585026Y-88504292D01*
X176646890Y-88380298D01*
X176759007Y-88308304D01*
X176945376Y-88274520D01*
X177229995Y-88265157D01*
X177296174Y-88265000D01*
X177569459Y-88267968D01*
X177745176Y-88281064D01*
X177852701Y-88310581D01*
X177921408Y-88362808D01*
X177955149Y-88406130D01*
X178028466Y-88575419D01*
X178054000Y-88742444D01*
X178054000Y-88937630D01*
X177292000Y-88937630D01*
X177292000Y-88646000D01*
X177473115Y-88634578D01*
X177588073Y-88605374D01*
X177609500Y-88582500D01*
X177552389Y-88546277D01*
X177406368Y-88523286D01*
X177292000Y-88519000D01*
X177110884Y-88530423D01*
X176995926Y-88559627D01*
X176974500Y-88582500D01*
X177031610Y-88618724D01*
X177177631Y-88641715D01*
X177292000Y-88646000D01*
X177292000Y-88937630D01*
X176516747Y-88937630D01*
X176549415Y-88694075D01*
G37*
X176549415Y-88694075D02*
X176585026Y-88504292D01*
X176646890Y-88380298D01*
X176759007Y-88308304D01*
X176945376Y-88274520D01*
X177229995Y-88265157D01*
X177296174Y-88265000D01*
X177569459Y-88267968D01*
X177745176Y-88281064D01*
X177852701Y-88310581D01*
X177921408Y-88362808D01*
X177955149Y-88406130D01*
X178028466Y-88575419D01*
X178054000Y-88742444D01*
X178054000Y-88937630D01*
X177292000Y-88937630D01*
X177292000Y-88646000D01*
X177473115Y-88634578D01*
X177588073Y-88605374D01*
X177609500Y-88582500D01*
X177552389Y-88546277D01*
X177406368Y-88523286D01*
X177292000Y-88519000D01*
X177110884Y-88530423D01*
X176995926Y-88559627D01*
X176974500Y-88582500D01*
X177031610Y-88618724D01*
X177177631Y-88641715D01*
X177292000Y-88646000D01*
X177292000Y-88937630D01*
X176516747Y-88937630D01*
X176549415Y-88694075D01*
G36*
X176856159Y-86741000D02*
G01*
X177043409Y-86748076D01*
X177135554Y-86777943D01*
X177164104Y-86843560D01*
X177165000Y-86868000D01*
X177125295Y-86971429D01*
X177069750Y-86995000D01*
X176985246Y-87029289D01*
X176974500Y-87058500D01*
X177031209Y-87096580D01*
X177174494Y-87119246D01*
X177256502Y-87122000D01*
X177435968Y-87108849D01*
X177556486Y-87075730D01*
X177577750Y-87058500D01*
X177558307Y-87008520D01*
X177486247Y-86995000D01*
X177377594Y-86951992D01*
X177355500Y-86868000D01*
X177379821Y-86781103D01*
X177475260Y-86745552D01*
X177581924Y-86741000D01*
X177841249Y-86771764D01*
X177995925Y-86867349D01*
X178053303Y-87032699D01*
X178054000Y-87058500D01*
X178008925Y-87236807D01*
X177931174Y-87310266D01*
X177800074Y-87344133D01*
X177583682Y-87365473D01*
X177322681Y-87374136D01*
X177057752Y-87369975D01*
X176829578Y-87352840D01*
X176678841Y-87322584D01*
X176661484Y-87314901D01*
X176577348Y-87216811D01*
X176547655Y-87028102D01*
X176547318Y-86997401D01*
X176547318Y-86741000D01*
X176856159Y-86741000D01*
G37*
X176856159Y-86741000D02*
X177043409Y-86748076D01*
X177135554Y-86777943D01*
X177164104Y-86843560D01*
X177165000Y-86868000D01*
X177125295Y-86971429D01*
X177069750Y-86995000D01*
X176985246Y-87029289D01*
X176974500Y-87058500D01*
X177031209Y-87096580D01*
X177174494Y-87119246D01*
X177256502Y-87122000D01*
X177435968Y-87108849D01*
X177556486Y-87075730D01*
X177577750Y-87058500D01*
X177558307Y-87008520D01*
X177486247Y-86995000D01*
X177377594Y-86951992D01*
X177355500Y-86868000D01*
X177379821Y-86781103D01*
X177475260Y-86745552D01*
X177581924Y-86741000D01*
X177841249Y-86771764D01*
X177995925Y-86867349D01*
X178053303Y-87032699D01*
X178054000Y-87058500D01*
X178008925Y-87236807D01*
X177931174Y-87310266D01*
X177800074Y-87344133D01*
X177583682Y-87365473D01*
X177322681Y-87374136D01*
X177057752Y-87369975D01*
X176829578Y-87352840D01*
X176678841Y-87322584D01*
X176661484Y-87314901D01*
X176577348Y-87216811D01*
X176547655Y-87028102D01*
X176547318Y-86997401D01*
X176547318Y-86741000D01*
X176856159Y-86741000D01*
G36*
X178054000Y-85877871D02*
G01*
X178054000Y-86250486D01*
X177704750Y-86209439D01*
X177487657Y-86194777D01*
X177371259Y-86211823D01*
X177355500Y-86232446D01*
X177412949Y-86267599D01*
X177561319Y-86290843D01*
X177704750Y-86296500D01*
X177905112Y-86301009D01*
X178009463Y-86323274D01*
X178048705Y-86376406D01*
X178054000Y-86444667D01*
X178037585Y-86578024D01*
X178011666Y-86635167D01*
X177908145Y-86673186D01*
X177765454Y-86670012D01*
X177655453Y-86629751D01*
X177641250Y-86614000D01*
X177554973Y-86573323D01*
X177392146Y-86553974D01*
X177201352Y-86555587D01*
X177031172Y-86577794D01*
X176931023Y-86619377D01*
X176818775Y-86665442D01*
X176711948Y-86667002D01*
X176589558Y-86609438D01*
X176541657Y-86471125D01*
X176536939Y-86368295D01*
X176573978Y-86316660D01*
X176683200Y-86298604D01*
X176843282Y-86296500D01*
X177025788Y-86286212D01*
X177142370Y-86259873D01*
X177165000Y-86238595D01*
X177108158Y-86206800D01*
X176963525Y-86190857D01*
X176863375Y-86190970D01*
X176679999Y-86191220D01*
X176587733Y-86164387D01*
X176551107Y-86093712D01*
X176542905Y-86039561D01*
X176524060Y-85877871D01*
X178054000Y-85877871D01*
G37*
X178054000Y-85877871D02*
X178054000Y-86250486D01*
X177704750Y-86209439D01*
X177487657Y-86194777D01*
X177371259Y-86211823D01*
X177355500Y-86232446D01*
X177412949Y-86267599D01*
X177561319Y-86290843D01*
X177704750Y-86296500D01*
X177905112Y-86301009D01*
X178009463Y-86323274D01*
X178048705Y-86376406D01*
X178054000Y-86444667D01*
X178037585Y-86578024D01*
X178011666Y-86635167D01*
X177908145Y-86673186D01*
X177765454Y-86670012D01*
X177655453Y-86629751D01*
X177641250Y-86614000D01*
X177554973Y-86573323D01*
X177392146Y-86553974D01*
X177201352Y-86555587D01*
X177031172Y-86577794D01*
X176931023Y-86619377D01*
X176818775Y-86665442D01*
X176711948Y-86667002D01*
X176589558Y-86609438D01*
X176541657Y-86471125D01*
X176536939Y-86368295D01*
X176573978Y-86316660D01*
X176683200Y-86298604D01*
X176843282Y-86296500D01*
X177025788Y-86286212D01*
X177142370Y-86259873D01*
X177165000Y-86238595D01*
X177108158Y-86206800D01*
X176963525Y-86190857D01*
X176863375Y-86190970D01*
X176679999Y-86191220D01*
X176587733Y-86164387D01*
X176551107Y-86093712D01*
X176542905Y-86039561D01*
X176524060Y-85877871D01*
X178054000Y-85877871D01*
G36*
X178054000Y-85369871D02*
G01*
X178054000Y-85536852D01*
X178039380Y-85677437D01*
X178011666Y-85746167D01*
X177908145Y-85784186D01*
X177765454Y-85781012D01*
X177655453Y-85740751D01*
X177641250Y-85725000D01*
X177554973Y-85684323D01*
X177392146Y-85664974D01*
X177201352Y-85666587D01*
X177031172Y-85688794D01*
X176931023Y-85730377D01*
X176818775Y-85776442D01*
X176711948Y-85778002D01*
X176596612Y-85728244D01*
X176547102Y-85599112D01*
X176542816Y-85563311D01*
X176523882Y-85369871D01*
X178054000Y-85369871D01*
G37*
X178054000Y-85369871D02*
X178054000Y-85536852D01*
X178039380Y-85677437D01*
X178011666Y-85746167D01*
X177908145Y-85784186D01*
X177765454Y-85781012D01*
X177655453Y-85740751D01*
X177641250Y-85725000D01*
X177554973Y-85684323D01*
X177392146Y-85664974D01*
X177201352Y-85666587D01*
X177031172Y-85688794D01*
X176931023Y-85730377D01*
X176818775Y-85776442D01*
X176711948Y-85778002D01*
X176596612Y-85728244D01*
X176547102Y-85599112D01*
X176542816Y-85563311D01*
X176523882Y-85369871D01*
X178054000Y-85369871D01*
G36*
X176576627Y-84236450D02*
G01*
X176637729Y-84166511D01*
X176711948Y-84147999D01*
X176856880Y-84157842D01*
X176931023Y-84195624D01*
X177032409Y-84237246D01*
X177207619Y-84261747D01*
X177292000Y-84264500D01*
X177482607Y-84250408D01*
X177622049Y-84214872D01*
X177652976Y-84195624D01*
X177765224Y-84149559D01*
X177872051Y-84147999D01*
X177981847Y-84192153D01*
X178032672Y-84308085D01*
X178042736Y-84383517D01*
X178063223Y-84597783D01*
X177629986Y-84562541D01*
X177196750Y-84527299D01*
X177596367Y-84602275D01*
X177804315Y-84649824D01*
X177953552Y-84700102D01*
X178009117Y-84738918D01*
X177959377Y-84782378D01*
X177816751Y-84833905D01*
X177641250Y-84876092D01*
X177260250Y-84951600D01*
X178054000Y-84883096D01*
X178054000Y-85081798D01*
X178039744Y-85220627D01*
X177971963Y-85273390D01*
X177867247Y-85280500D01*
X177720601Y-85260926D01*
X177641250Y-85217000D01*
X177554973Y-85176323D01*
X177392146Y-85156974D01*
X177201352Y-85158587D01*
X177031172Y-85180794D01*
X176931023Y-85222377D01*
X176818775Y-85268442D01*
X176711948Y-85270002D01*
X176608586Y-85233363D01*
X176567163Y-85137089D01*
X176561750Y-85026500D01*
X176573472Y-84875636D01*
X176632753Y-84808823D01*
X176768125Y-84784352D01*
X176908684Y-84755858D01*
X176973929Y-84713182D01*
X176974500Y-84709000D01*
X176918894Y-84665871D01*
X176783484Y-84635283D01*
X176768125Y-84633649D01*
X176629086Y-84607618D01*
X176572352Y-84538308D01*
X176561750Y-84391500D01*
X176576627Y-84236450D01*
G37*
X176576627Y-84236450D02*
X176637729Y-84166511D01*
X176711948Y-84147999D01*
X176856880Y-84157842D01*
X176931023Y-84195624D01*
X177032409Y-84237246D01*
X177207619Y-84261747D01*
X177292000Y-84264500D01*
X177482607Y-84250408D01*
X177622049Y-84214872D01*
X177652976Y-84195624D01*
X177765224Y-84149559D01*
X177872051Y-84147999D01*
X177981847Y-84192153D01*
X178032672Y-84308085D01*
X178042736Y-84383517D01*
X178063223Y-84597783D01*
X177629986Y-84562541D01*
X177196750Y-84527299D01*
X177596367Y-84602275D01*
X177804315Y-84649824D01*
X177953552Y-84700102D01*
X178009117Y-84738918D01*
X177959377Y-84782378D01*
X177816751Y-84833905D01*
X177641250Y-84876092D01*
X177260250Y-84951600D01*
X178054000Y-84883096D01*
X178054000Y-85081798D01*
X178039744Y-85220627D01*
X177971963Y-85273390D01*
X177867247Y-85280500D01*
X177720601Y-85260926D01*
X177641250Y-85217000D01*
X177554973Y-85176323D01*
X177392146Y-85156974D01*
X177201352Y-85158587D01*
X177031172Y-85180794D01*
X176931023Y-85222377D01*
X176818775Y-85268442D01*
X176711948Y-85270002D01*
X176608586Y-85233363D01*
X176567163Y-85137089D01*
X176561750Y-85026500D01*
X176573472Y-84875636D01*
X176632753Y-84808823D01*
X176768125Y-84784352D01*
X176908684Y-84755858D01*
X176973929Y-84713182D01*
X176974500Y-84709000D01*
X176918894Y-84665871D01*
X176783484Y-84635283D01*
X176768125Y-84633649D01*
X176629086Y-84607618D01*
X176572352Y-84538308D01*
X176561750Y-84391500D01*
X176576627Y-84236450D01*
G36*
X176549415Y-83804575D02*
G01*
X176604363Y-83570414D01*
X176708078Y-83437411D01*
X176886638Y-83381765D01*
X177019541Y-83375500D01*
X177200470Y-83384582D01*
X177299238Y-83427703D01*
X177360273Y-83528677D01*
X177374937Y-83566000D01*
X177461999Y-83719402D01*
X177563102Y-83748276D01*
X177652976Y-83687624D01*
X177765224Y-83641559D01*
X177872051Y-83639999D01*
X177987387Y-83689757D01*
X178036897Y-83818889D01*
X178041183Y-83854690D01*
X178060117Y-84048130D01*
X177101500Y-84048130D01*
X177101500Y-83756500D01*
X177204685Y-83729908D01*
X177228500Y-83693000D01*
X177175315Y-83641408D01*
X177101500Y-83629500D01*
X176998314Y-83656093D01*
X176974500Y-83693000D01*
X177027684Y-83744593D01*
X177101500Y-83756500D01*
X177101500Y-84048130D01*
X176516747Y-84048130D01*
X176549415Y-83804575D01*
G37*
X176549415Y-83804575D02*
X176604363Y-83570414D01*
X176708078Y-83437411D01*
X176886638Y-83381765D01*
X177019541Y-83375500D01*
X177200470Y-83384582D01*
X177299238Y-83427703D01*
X177360273Y-83528677D01*
X177374937Y-83566000D01*
X177461999Y-83719402D01*
X177563102Y-83748276D01*
X177652976Y-83687624D01*
X177765224Y-83641559D01*
X177872051Y-83639999D01*
X177987387Y-83689757D01*
X178036897Y-83818889D01*
X178041183Y-83854690D01*
X178060117Y-84048130D01*
X177101500Y-84048130D01*
X177101500Y-83756500D01*
X177204685Y-83729908D01*
X177228500Y-83693000D01*
X177175315Y-83641408D01*
X177101500Y-83629500D01*
X176998314Y-83656093D01*
X176974500Y-83693000D01*
X177027684Y-83744593D01*
X177101500Y-83756500D01*
X177101500Y-84048130D01*
X176516747Y-84048130D01*
X176549415Y-83804575D01*
G36*
X170856035Y-86288539D02*
G01*
X170968115Y-85781328D01*
X171178027Y-85310244D01*
X171485084Y-84897840D01*
X171501908Y-84880265D01*
X171822139Y-84601051D01*
X172192128Y-84359216D01*
X172549836Y-84193687D01*
X172733423Y-84100863D01*
X172817947Y-83975599D01*
X172824617Y-83948506D01*
X172930374Y-83698656D01*
X173115767Y-83520016D01*
X173354917Y-83413119D01*
X173621945Y-83378499D01*
X173890970Y-83416688D01*
X174136113Y-83528219D01*
X174331495Y-83713625D01*
X174434535Y-83915357D01*
X174558961Y-84128898D01*
X174741534Y-84260729D01*
X174975519Y-84419573D01*
X175225892Y-84648629D01*
X175450863Y-84905223D01*
X175608184Y-85145765D01*
X175753655Y-85518187D01*
X175861426Y-85958975D01*
X175921825Y-86413387D01*
X175925177Y-86826677D01*
X175918131Y-86899750D01*
X175838140Y-87371139D01*
X175719416Y-87799958D01*
X175597185Y-88097092D01*
X175433185Y-88357440D01*
X175214901Y-88617667D01*
X174976213Y-88842863D01*
X174751000Y-88998118D01*
X174698910Y-89022688D01*
X174530535Y-89147225D01*
X174409473Y-89367484D01*
X174310508Y-89530137D01*
X174310508Y-88363824D01*
X174490250Y-88354581D01*
X174644884Y-88305801D01*
X174924951Y-88122617D01*
X175150602Y-87840459D01*
X175315606Y-87477856D01*
X175413736Y-87053337D01*
X175438763Y-86585430D01*
X175386053Y-86101012D01*
X175266769Y-85673275D01*
X175091227Y-85331028D01*
X174868359Y-85090809D01*
X174823682Y-85059536D01*
X174756326Y-85016479D01*
X174692441Y-84982621D01*
X174617284Y-84957290D01*
X174516111Y-84939815D01*
X174374177Y-84929524D01*
X174176739Y-84925746D01*
X173919075Y-84927731D01*
X173919075Y-84059275D01*
X174050079Y-84056352D01*
X174107172Y-84027582D01*
X174117000Y-83987405D01*
X174069121Y-83881436D01*
X173975870Y-83791851D01*
X173768818Y-83706744D01*
X173546470Y-83705579D01*
X173359590Y-83786136D01*
X173322897Y-83820390D01*
X173246969Y-83920995D01*
X173233680Y-83971320D01*
X173305356Y-83989259D01*
X173468284Y-84013701D01*
X173687267Y-84039370D01*
X173688375Y-84039485D01*
X173919075Y-84059275D01*
X173919075Y-84927731D01*
X173909052Y-84927809D01*
X173556372Y-84935042D01*
X173103956Y-84946772D01*
X172632247Y-84959715D01*
X172520286Y-85005614D01*
X172372191Y-85118316D01*
X172298872Y-85189772D01*
X172146324Y-85395385D01*
X172090210Y-85604652D01*
X172128805Y-85846674D01*
X172243749Y-86117871D01*
X172364205Y-86415000D01*
X172391648Y-86673375D01*
X172326078Y-86940713D01*
X172243750Y-87122000D01*
X172115416Y-87461929D01*
X172102488Y-87751393D01*
X172205776Y-87994676D01*
X172426094Y-88196062D01*
X172450235Y-88211380D01*
X172574457Y-88278115D01*
X172700756Y-88313470D01*
X172867469Y-88322257D01*
X173112933Y-88309287D01*
X173185457Y-88303661D01*
X173507871Y-88291458D01*
X173828429Y-88301848D01*
X174065449Y-88329583D01*
X174310508Y-88363824D01*
X174310508Y-89530137D01*
X174248735Y-89631665D01*
X174008698Y-89797799D01*
X173695255Y-89862022D01*
X173653744Y-89862698D01*
X173612128Y-89859260D01*
X173612128Y-89527804D01*
X173808594Y-89518727D01*
X173975333Y-89450529D01*
X174000874Y-89429909D01*
X174092129Y-89330541D01*
X174094217Y-89266920D01*
X173996138Y-89231931D01*
X173786892Y-89218459D01*
X173672500Y-89217500D01*
X173453425Y-89225210D01*
X173294672Y-89245500D01*
X173228352Y-89274110D01*
X173228000Y-89276465D01*
X173283468Y-89399056D01*
X173424299Y-89485374D01*
X173612128Y-89527804D01*
X173612128Y-89859260D01*
X173350725Y-89837659D01*
X173137310Y-89751726D01*
X172983646Y-89587127D01*
X172893240Y-89409909D01*
X172791653Y-89207192D01*
X172688402Y-89098035D01*
X172584545Y-89056894D01*
X172373460Y-88975543D01*
X172111903Y-88824235D01*
X171834549Y-88627238D01*
X171576071Y-88408825D01*
X171399799Y-88227605D01*
X171113669Y-87801410D01*
X170928124Y-87321132D01*
X170842476Y-86809325D01*
X170856035Y-86288539D01*
G37*
X170856035Y-86288539D02*
X170968115Y-85781328D01*
X171178027Y-85310244D01*
X171485084Y-84897840D01*
X171501908Y-84880265D01*
X171822139Y-84601051D01*
X172192128Y-84359216D01*
X172549836Y-84193687D01*
X172733423Y-84100863D01*
X172817947Y-83975599D01*
X172824617Y-83948506D01*
X172930374Y-83698656D01*
X173115767Y-83520016D01*
X173354917Y-83413119D01*
X173621945Y-83378499D01*
X173890970Y-83416688D01*
X174136113Y-83528219D01*
X174331495Y-83713625D01*
X174434535Y-83915357D01*
X174558961Y-84128898D01*
X174741534Y-84260729D01*
X174975519Y-84419573D01*
X175225892Y-84648629D01*
X175450863Y-84905223D01*
X175608184Y-85145765D01*
X175753655Y-85518187D01*
X175861426Y-85958975D01*
X175921825Y-86413387D01*
X175925177Y-86826677D01*
X175918131Y-86899750D01*
X175838140Y-87371139D01*
X175719416Y-87799958D01*
X175597185Y-88097092D01*
X175433185Y-88357440D01*
X175214901Y-88617667D01*
X174976213Y-88842863D01*
X174751000Y-88998118D01*
X174698910Y-89022688D01*
X174530535Y-89147225D01*
X174409473Y-89367484D01*
X174310508Y-89530137D01*
X174310508Y-88363824D01*
X174490250Y-88354581D01*
X174644884Y-88305801D01*
X174924951Y-88122617D01*
X175150602Y-87840459D01*
X175315606Y-87477856D01*
X175413736Y-87053337D01*
X175438763Y-86585430D01*
X175386053Y-86101012D01*
X175266769Y-85673275D01*
X175091227Y-85331028D01*
X174868359Y-85090809D01*
X174823682Y-85059536D01*
X174756326Y-85016479D01*
X174692441Y-84982621D01*
X174617284Y-84957290D01*
X174516111Y-84939815D01*
X174374177Y-84929524D01*
X174176739Y-84925746D01*
X173919075Y-84927731D01*
X173919075Y-84059275D01*
X174050079Y-84056352D01*
X174107172Y-84027582D01*
X174117000Y-83987405D01*
X174069121Y-83881436D01*
X173975870Y-83791851D01*
X173768818Y-83706744D01*
X173546470Y-83705579D01*
X173359590Y-83786136D01*
X173322897Y-83820390D01*
X173246969Y-83920995D01*
X173233680Y-83971320D01*
X173305356Y-83989259D01*
X173468284Y-84013701D01*
X173687267Y-84039370D01*
X173688375Y-84039485D01*
X173919075Y-84059275D01*
X173919075Y-84927731D01*
X173909052Y-84927809D01*
X173556372Y-84935042D01*
X173103956Y-84946772D01*
X172632247Y-84959715D01*
X172520286Y-85005614D01*
X172372191Y-85118316D01*
X172298872Y-85189772D01*
X172146324Y-85395385D01*
X172090210Y-85604652D01*
X172128805Y-85846674D01*
X172243749Y-86117871D01*
X172364205Y-86415000D01*
X172391648Y-86673375D01*
X172326078Y-86940713D01*
X172243750Y-87122000D01*
X172115416Y-87461929D01*
X172102488Y-87751393D01*
X172205776Y-87994676D01*
X172426094Y-88196062D01*
X172450235Y-88211380D01*
X172574457Y-88278115D01*
X172700756Y-88313470D01*
X172867469Y-88322257D01*
X173112933Y-88309287D01*
X173185457Y-88303661D01*
X173507871Y-88291458D01*
X173828429Y-88301848D01*
X174065449Y-88329583D01*
X174310508Y-88363824D01*
X174310508Y-89530137D01*
X174248735Y-89631665D01*
X174008698Y-89797799D01*
X173695255Y-89862022D01*
X173653744Y-89862698D01*
X173612128Y-89859260D01*
X173612128Y-89527804D01*
X173808594Y-89518727D01*
X173975333Y-89450529D01*
X174000874Y-89429909D01*
X174092129Y-89330541D01*
X174094217Y-89266920D01*
X173996138Y-89231931D01*
X173786892Y-89218459D01*
X173672500Y-89217500D01*
X173453425Y-89225210D01*
X173294672Y-89245500D01*
X173228352Y-89274110D01*
X173228000Y-89276465D01*
X173283468Y-89399056D01*
X173424299Y-89485374D01*
X173612128Y-89527804D01*
X173612128Y-89859260D01*
X173350725Y-89837659D01*
X173137310Y-89751726D01*
X172983646Y-89587127D01*
X172893240Y-89409909D01*
X172791653Y-89207192D01*
X172688402Y-89098035D01*
X172584545Y-89056894D01*
X172373460Y-88975543D01*
X172111903Y-88824235D01*
X171834549Y-88627238D01*
X171576071Y-88408825D01*
X171399799Y-88227605D01*
X171113669Y-87801410D01*
X170928124Y-87321132D01*
X170842476Y-86809325D01*
X170856035Y-86288539D01*
G36*
X172278705Y-90982145D02*
G01*
X172620924Y-90745123D01*
X172875142Y-90572549D01*
X173057537Y-90456237D01*
X173184287Y-90388001D01*
X173271572Y-90359656D01*
X173335569Y-90363015D01*
X173392458Y-90389893D01*
X173417616Y-90405897D01*
X173769422Y-90636313D01*
X174134235Y-90877946D01*
X174496718Y-91120351D01*
X174841533Y-91353083D01*
X175153343Y-91565699D01*
X175416810Y-91747753D01*
X175616596Y-91888802D01*
X175737366Y-91978400D01*
X175766866Y-92005688D01*
X175720655Y-92056489D01*
X175592055Y-92177363D01*
X175395065Y-92355691D01*
X175143684Y-92578852D01*
X174851912Y-92834229D01*
X174738954Y-92932250D01*
X174425710Y-93202952D01*
X174137218Y-93451309D01*
X173890051Y-93663129D01*
X173700781Y-93824221D01*
X173585982Y-93920394D01*
X173568864Y-93934211D01*
X173552547Y-93945647D01*
X173552547Y-93345000D01*
X173618018Y-93308301D01*
X173757787Y-93208996D01*
X173951477Y-93063279D01*
X174178715Y-92887340D01*
X174419125Y-92697374D01*
X174652332Y-92509570D01*
X174857960Y-92340123D01*
X175015634Y-92205223D01*
X175104980Y-92121063D01*
X175117222Y-92101556D01*
X175051048Y-92103376D01*
X174879347Y-92120595D01*
X174622344Y-92150838D01*
X174300263Y-92191734D01*
X173956252Y-92237767D01*
X173589142Y-92288492D01*
X173266094Y-92334030D01*
X173007943Y-92371373D01*
X172858412Y-92394038D01*
X172858412Y-92041882D01*
X173027119Y-92033080D01*
X173268468Y-92014485D01*
X173555731Y-91988745D01*
X173862177Y-91958505D01*
X174161078Y-91926412D01*
X174425705Y-91895114D01*
X174629329Y-91867258D01*
X174745219Y-91845489D01*
X174749962Y-91844070D01*
X174730697Y-91802289D01*
X174618715Y-91704721D01*
X174429411Y-91562220D01*
X174178178Y-91385640D01*
X173880410Y-91185837D01*
X173551501Y-90973665D01*
X173248334Y-90785226D01*
X173194385Y-90812471D01*
X173119609Y-90951599D01*
X173021628Y-91207560D01*
X172965677Y-91373310D01*
X172882927Y-91637022D01*
X172822009Y-91853298D01*
X172789937Y-91995727D01*
X172789077Y-92038245D01*
X172858412Y-92041882D01*
X172858412Y-92394038D01*
X172835524Y-92397508D01*
X172770436Y-92409098D01*
X172786240Y-92459674D01*
X172867306Y-92578728D01*
X172992824Y-92741355D01*
X173141980Y-92922652D01*
X173293965Y-93097715D01*
X173427965Y-93241639D01*
X173523170Y-93329520D01*
X173552547Y-93345000D01*
X173552547Y-93945647D01*
X173512399Y-93973788D01*
X173451036Y-93994314D01*
X173365773Y-93991186D01*
X173266409Y-93966854D01*
X173266409Y-93662500D01*
X173242485Y-93613927D01*
X173159523Y-93482240D01*
X173031140Y-93288488D01*
X172896666Y-93091000D01*
X172731541Y-92859594D01*
X172587665Y-92673555D01*
X172482372Y-92554355D01*
X172437015Y-92521549D01*
X172354949Y-92557544D01*
X172242694Y-92626389D01*
X172242694Y-92042479D01*
X172278275Y-92034125D01*
X172320773Y-91961120D01*
X172396589Y-91806757D01*
X172489573Y-91606645D01*
X172583572Y-91396394D01*
X172662436Y-91211615D01*
X172710013Y-91087918D01*
X172714982Y-91071275D01*
X172676417Y-91087349D01*
X172607306Y-91134775D01*
X172276446Y-91382399D01*
X172032766Y-91573544D01*
X171882280Y-91703316D01*
X171830999Y-91766731D01*
X171879477Y-91841823D01*
X171994581Y-91930943D01*
X172130818Y-92006894D01*
X172242694Y-92042479D01*
X172242694Y-92626389D01*
X172204624Y-92649738D01*
X172026115Y-92772840D01*
X171845746Y-92905853D01*
X171756375Y-92985689D01*
X171745437Y-93032683D01*
X171800368Y-93067165D01*
X171835615Y-93081110D01*
X171957601Y-93129780D01*
X172164225Y-93214181D01*
X172422983Y-93320983D01*
X172616258Y-93401319D01*
X172874274Y-93508016D01*
X173085333Y-93593663D01*
X173224260Y-93648145D01*
X173266409Y-93662500D01*
X173266409Y-93966854D01*
X173237609Y-93959801D01*
X173047542Y-93895556D01*
X172776569Y-93793850D01*
X172421900Y-93656392D01*
X172087985Y-93525090D01*
X171795926Y-93407804D01*
X171607927Y-93330183D01*
X171607927Y-92696706D01*
X171668254Y-92681656D01*
X171788606Y-92618215D01*
X171926360Y-92532777D01*
X172038897Y-92451737D01*
X172083644Y-92402103D01*
X172035497Y-92344338D01*
X171914750Y-92244413D01*
X171835373Y-92186125D01*
X171681527Y-92083257D01*
X171571511Y-92020514D01*
X171545020Y-92011500D01*
X171533100Y-92066982D01*
X171536214Y-92204228D01*
X171550341Y-92379441D01*
X171571460Y-92548823D01*
X171595550Y-92668575D01*
X171607927Y-92696706D01*
X171607927Y-93330183D01*
X171566130Y-93312925D01*
X171419005Y-93248845D01*
X171375064Y-93225931D01*
X171357023Y-93150451D01*
X171339812Y-92974248D01*
X171325377Y-92723596D01*
X171315665Y-92424767D01*
X171315654Y-92424250D01*
X171299429Y-91662250D01*
X172278705Y-90982145D01*
G37*
X172278705Y-90982145D02*
X172620924Y-90745123D01*
X172875142Y-90572549D01*
X173057537Y-90456237D01*
X173184287Y-90388001D01*
X173271572Y-90359656D01*
X173335569Y-90363015D01*
X173392458Y-90389893D01*
X173417616Y-90405897D01*
X173769422Y-90636313D01*
X174134235Y-90877946D01*
X174496718Y-91120351D01*
X174841533Y-91353083D01*
X175153343Y-91565699D01*
X175416810Y-91747753D01*
X175616596Y-91888802D01*
X175737366Y-91978400D01*
X175766866Y-92005688D01*
X175720655Y-92056489D01*
X175592055Y-92177363D01*
X175395065Y-92355691D01*
X175143684Y-92578852D01*
X174851912Y-92834229D01*
X174738954Y-92932250D01*
X174425710Y-93202952D01*
X174137218Y-93451309D01*
X173890051Y-93663129D01*
X173700781Y-93824221D01*
X173585982Y-93920394D01*
X173568864Y-93934211D01*
X173552547Y-93945647D01*
X173552547Y-93345000D01*
X173618018Y-93308301D01*
X173757787Y-93208996D01*
X173951477Y-93063279D01*
X174178715Y-92887340D01*
X174419125Y-92697374D01*
X174652332Y-92509570D01*
X174857960Y-92340123D01*
X175015634Y-92205223D01*
X175104980Y-92121063D01*
X175117222Y-92101556D01*
X175051048Y-92103376D01*
X174879347Y-92120595D01*
X174622344Y-92150838D01*
X174300263Y-92191734D01*
X173956252Y-92237767D01*
X173589142Y-92288492D01*
X173266094Y-92334030D01*
X173007943Y-92371373D01*
X172858412Y-92394038D01*
X172858412Y-92041882D01*
X173027119Y-92033080D01*
X173268468Y-92014485D01*
X173555731Y-91988745D01*
X173862177Y-91958505D01*
X174161078Y-91926412D01*
X174425705Y-91895114D01*
X174629329Y-91867258D01*
X174745219Y-91845489D01*
X174749962Y-91844070D01*
X174730697Y-91802289D01*
X174618715Y-91704721D01*
X174429411Y-91562220D01*
X174178178Y-91385640D01*
X173880410Y-91185837D01*
X173551501Y-90973665D01*
X173248334Y-90785226D01*
X173194385Y-90812471D01*
X173119609Y-90951599D01*
X173021628Y-91207560D01*
X172965677Y-91373310D01*
X172882927Y-91637022D01*
X172822009Y-91853298D01*
X172789937Y-91995727D01*
X172789077Y-92038245D01*
X172858412Y-92041882D01*
X172858412Y-92394038D01*
X172835524Y-92397508D01*
X172770436Y-92409098D01*
X172786240Y-92459674D01*
X172867306Y-92578728D01*
X172992824Y-92741355D01*
X173141980Y-92922652D01*
X173293965Y-93097715D01*
X173427965Y-93241639D01*
X173523170Y-93329520D01*
X173552547Y-93345000D01*
X173552547Y-93945647D01*
X173512399Y-93973788D01*
X173451036Y-93994314D01*
X173365773Y-93991186D01*
X173266409Y-93966854D01*
X173266409Y-93662500D01*
X173242485Y-93613927D01*
X173159523Y-93482240D01*
X173031140Y-93288488D01*
X172896666Y-93091000D01*
X172731541Y-92859594D01*
X172587665Y-92673555D01*
X172482372Y-92554355D01*
X172437015Y-92521549D01*
X172354949Y-92557544D01*
X172242694Y-92626389D01*
X172242694Y-92042479D01*
X172278275Y-92034125D01*
X172320773Y-91961120D01*
X172396589Y-91806757D01*
X172489573Y-91606645D01*
X172583572Y-91396394D01*
X172662436Y-91211615D01*
X172710013Y-91087918D01*
X172714982Y-91071275D01*
X172676417Y-91087349D01*
X172607306Y-91134775D01*
X172276446Y-91382399D01*
X172032766Y-91573544D01*
X171882280Y-91703316D01*
X171830999Y-91766731D01*
X171879477Y-91841823D01*
X171994581Y-91930943D01*
X172130818Y-92006894D01*
X172242694Y-92042479D01*
X172242694Y-92626389D01*
X172204624Y-92649738D01*
X172026115Y-92772840D01*
X171845746Y-92905853D01*
X171756375Y-92985689D01*
X171745437Y-93032683D01*
X171800368Y-93067165D01*
X171835615Y-93081110D01*
X171957601Y-93129780D01*
X172164225Y-93214181D01*
X172422983Y-93320983D01*
X172616258Y-93401319D01*
X172874274Y-93508016D01*
X173085333Y-93593663D01*
X173224260Y-93648145D01*
X173266409Y-93662500D01*
X173266409Y-93966854D01*
X173237609Y-93959801D01*
X173047542Y-93895556D01*
X172776569Y-93793850D01*
X172421900Y-93656392D01*
X172087985Y-93525090D01*
X171795926Y-93407804D01*
X171607927Y-93330183D01*
X171607927Y-92696706D01*
X171668254Y-92681656D01*
X171788606Y-92618215D01*
X171926360Y-92532777D01*
X172038897Y-92451737D01*
X172083644Y-92402103D01*
X172035497Y-92344338D01*
X171914750Y-92244413D01*
X171835373Y-92186125D01*
X171681527Y-92083257D01*
X171571511Y-92020514D01*
X171545020Y-92011500D01*
X171533100Y-92066982D01*
X171536214Y-92204228D01*
X171550341Y-92379441D01*
X171571460Y-92548823D01*
X171595550Y-92668575D01*
X171607927Y-92696706D01*
X171607927Y-93330183D01*
X171566130Y-93312925D01*
X171419005Y-93248845D01*
X171375064Y-93225931D01*
X171357023Y-93150451D01*
X171339812Y-92974248D01*
X171325377Y-92723596D01*
X171315665Y-92424767D01*
X171315654Y-92424250D01*
X171299429Y-91662250D01*
X172278705Y-90982145D01*
G36*
X171152990Y-93565569D02*
G01*
X171161336Y-93555971D01*
X171259684Y-93449327D01*
X171309287Y-93405773D01*
X171310830Y-93408500D01*
X171298129Y-93487458D01*
X171278413Y-93635799D01*
X171277064Y-93646625D01*
X171234506Y-93794233D01*
X171165080Y-93852987D01*
X171163974Y-93853001D01*
X171057454Y-93817466D01*
X171053761Y-93718057D01*
X171152990Y-93565569D01*
G37*
X171152990Y-93565569D02*
X171161336Y-93555971D01*
X171259684Y-93449327D01*
X171309287Y-93405773D01*
X171310830Y-93408500D01*
X171298129Y-93487458D01*
X171278413Y-93635799D01*
X171277064Y-93646625D01*
X171234506Y-93794233D01*
X171165080Y-93852987D01*
X171163974Y-93853001D01*
X171057454Y-93817466D01*
X171053761Y-93718057D01*
X171152990Y-93565569D01*
G36*
X170598396Y-93313970D02*
G01*
X170725552Y-93285373D01*
X170846750Y-93281500D01*
X171017241Y-93285815D01*
X171119447Y-93296729D01*
X171132500Y-93303199D01*
X171078160Y-93333056D01*
X170942382Y-93381298D01*
X170887007Y-93398449D01*
X170698977Y-93451960D01*
X170602003Y-93465206D01*
X170566039Y-93436189D01*
X170561000Y-93376750D01*
X170598396Y-93313970D01*
G37*
X170598396Y-93313970D02*
X170725552Y-93285373D01*
X170846750Y-93281500D01*
X171017241Y-93285815D01*
X171119447Y-93296729D01*
X171132500Y-93303199D01*
X171078160Y-93333056D01*
X170942382Y-93381298D01*
X170887007Y-93398449D01*
X170698977Y-93451960D01*
X170602003Y-93465206D01*
X170566039Y-93436189D01*
X170561000Y-93376750D01*
X170598396Y-93313970D01*
G36*
X170866253Y-92950847D02*
G01*
X170945430Y-92913556D01*
X171040178Y-92977696D01*
X171053578Y-92991612D01*
X171127255Y-93075141D01*
X171110668Y-93088465D01*
X171047931Y-93068266D01*
X170913842Y-93033352D01*
X170860606Y-93027500D01*
X170827036Y-93001031D01*
X170866253Y-92950847D01*
G37*
X170866253Y-92950847D02*
X170945430Y-92913556D01*
X171040178Y-92977696D01*
X171053578Y-92991612D01*
X171127255Y-93075141D01*
X171110668Y-93088465D01*
X171047931Y-93068266D01*
X170913842Y-93033352D01*
X170860606Y-93027500D01*
X170827036Y-93001031D01*
X170866253Y-92950847D01*
G36*
X174167395Y-86321272D02*
G01*
X174206414Y-85977935D01*
X174272274Y-85702602D01*
X174337918Y-85559371D01*
X174421839Y-85452144D01*
X174497435Y-85441761D01*
X174579808Y-85488492D01*
X174754100Y-85628373D01*
X174870744Y-85792453D01*
X174941332Y-86009676D01*
X174977456Y-86308985D01*
X174986376Y-86503646D01*
X174984848Y-86899103D01*
X174951320Y-87190728D01*
X174909188Y-87340040D01*
X174773850Y-87622685D01*
X174635842Y-87781323D01*
X174502471Y-87818555D01*
X174381042Y-87736981D01*
X174278862Y-87539201D01*
X174203235Y-87227816D01*
X174183135Y-87081606D01*
X174158531Y-86700025D01*
X174167395Y-86321272D01*
G37*
X174167395Y-86321272D02*
X174206414Y-85977935D01*
X174272274Y-85702602D01*
X174337918Y-85559371D01*
X174421839Y-85452144D01*
X174497435Y-85441761D01*
X174579808Y-85488492D01*
X174754100Y-85628373D01*
X174870744Y-85792453D01*
X174941332Y-86009676D01*
X174977456Y-86308985D01*
X174986376Y-86503646D01*
X174984848Y-86899103D01*
X174951320Y-87190728D01*
X174909188Y-87340040D01*
X174773850Y-87622685D01*
X174635842Y-87781323D01*
X174502471Y-87818555D01*
X174381042Y-87736981D01*
X174278862Y-87539201D01*
X174203235Y-87227816D01*
X174183135Y-87081606D01*
X174158531Y-86700025D01*
X174167395Y-86321272D01*
G36*
X173681426Y-86442600D02*
G01*
X173715828Y-86378912D01*
X173772943Y-86384957D01*
X173874169Y-86418578D01*
X173899943Y-86423500D01*
X173922008Y-86476712D01*
X173925954Y-86598475D01*
X173914011Y-86731980D01*
X173888406Y-86820419D01*
X173884166Y-86825667D01*
X173781435Y-86878171D01*
X173707551Y-86816315D01*
X173673545Y-86651482D01*
X173672500Y-86607207D01*
X173681426Y-86442600D01*
G37*
X173681426Y-86442600D02*
X173715828Y-86378912D01*
X173772943Y-86384957D01*
X173874169Y-86418578D01*
X173899943Y-86423500D01*
X173922008Y-86476712D01*
X173925954Y-86598475D01*
X173914011Y-86731980D01*
X173888406Y-86820419D01*
X173884166Y-86825667D01*
X173781435Y-86878171D01*
X173707551Y-86816315D01*
X173673545Y-86651482D01*
X173672500Y-86607207D01*
X173681426Y-86442600D01*
G36*
X172940791Y-87262667D02*
G01*
X173070174Y-87165493D01*
X173233832Y-87125768D01*
X173400924Y-87160274D01*
X173503908Y-87238126D01*
X173593982Y-87369747D01*
X173585362Y-87493658D01*
X173540413Y-87582375D01*
X173425070Y-87669752D01*
X173249992Y-87699914D01*
X173067959Y-87674541D01*
X172931754Y-87595316D01*
X172908221Y-87562242D01*
X172876526Y-87400511D01*
X172940791Y-87262667D01*
G37*
X172940791Y-87262667D02*
X173070174Y-87165493D01*
X173233832Y-87125768D01*
X173400924Y-87160274D01*
X173503908Y-87238126D01*
X173593982Y-87369747D01*
X173585362Y-87493658D01*
X173540413Y-87582375D01*
X173425070Y-87669752D01*
X173249992Y-87699914D01*
X173067959Y-87674541D01*
X172931754Y-87595316D01*
X172908221Y-87562242D01*
X172876526Y-87400511D01*
X172940791Y-87262667D01*
G36*
X172901996Y-85701894D02*
G01*
X173035795Y-85594082D01*
X173201610Y-85536855D01*
X173239033Y-85534500D01*
X173396977Y-85578809D01*
X173535840Y-85685322D01*
X173607097Y-85814417D01*
X173609000Y-85836590D01*
X173568033Y-85933883D01*
X173509214Y-86006215D01*
X173357538Y-86088297D01*
X173175068Y-86096552D01*
X173002536Y-86042090D01*
X172880675Y-85936026D01*
X172847000Y-85825556D01*
X172901996Y-85701894D01*
G37*
X172901996Y-85701894D02*
X173035795Y-85594082D01*
X173201610Y-85536855D01*
X173239033Y-85534500D01*
X173396977Y-85578809D01*
X173535840Y-85685322D01*
X173607097Y-85814417D01*
X173609000Y-85836590D01*
X173568033Y-85933883D01*
X173509214Y-86006215D01*
X173357538Y-86088297D01*
X173175068Y-86096552D01*
X173002536Y-86042090D01*
X172880675Y-85936026D01*
X172847000Y-85825556D01*
X172901996Y-85701894D01*
D10*
%TO.C,U1*%
X183578500Y-83883500D02*
X183578500Y-82867500D01*
X201866500Y-71183500D02*
X201866500Y-67881500D01*
X201866500Y-73723500D02*
X201866500Y-72707500D01*
X201104500Y-92265500D02*
X184340500Y-92265500D01*
X201104500Y-74485500D02*
X183578500Y-74485500D01*
X201866500Y-76263500D02*
X201866500Y-75247500D01*
X201866500Y-83883500D02*
X201866500Y-77787500D01*
X201866500Y-86423500D02*
X201866500Y-85407500D01*
X201866500Y-88963500D02*
X201866500Y-87947500D01*
X201866500Y-91503500D02*
X201866500Y-90487500D01*
X183578500Y-71183500D02*
X183578500Y-67881500D01*
X183578500Y-74485500D02*
X183578500Y-72707500D01*
X183578500Y-76263500D02*
X183578500Y-74485500D01*
X183578500Y-78803500D02*
X183578500Y-77787500D01*
X183578500Y-81343500D02*
X183578500Y-80327500D01*
X183578500Y-86423500D02*
X183578500Y-85407500D01*
X183578500Y-88963500D02*
X183578500Y-87947500D01*
X183578500Y-91503500D02*
X183578500Y-90487500D01*
X207200500Y-116903500D02*
X207200500Y-67881500D01*
X207200500Y-67881500D02*
X206946500Y-67881500D01*
X207200500Y-118681500D02*
X207200500Y-121729500D01*
X207200500Y-121729500D02*
X206946500Y-121729500D01*
X207200500Y-118681500D02*
X207200500Y-116903500D01*
X206946500Y-67881500D02*
X206184500Y-67881500D01*
X206946500Y-121729500D02*
X206184500Y-121729500D01*
X178244500Y-67881500D02*
X178244500Y-121729500D01*
X194627500Y-121602500D02*
X194627500Y-117538500D01*
X194627500Y-117538500D02*
X190563500Y-117538500D01*
X190563500Y-117538500D02*
X190563500Y-121602500D01*
X193611500Y-121602500D02*
X193611500Y-120078500D01*
X193611500Y-120078500D02*
X191579500Y-120078500D01*
X191579500Y-120078500D02*
X191579500Y-121602500D01*
X205422500Y-121729500D02*
X206184500Y-121729500D01*
X206184500Y-67881500D02*
X178244500Y-67881500D01*
X178244500Y-121729500D02*
X179006500Y-121729500D01*
X205422500Y-121729500D02*
X179006500Y-121729500D01*
D12*
%TO.C,C1*%
X126375500Y-108701500D02*
X130125500Y-108701500D01*
X136895500Y-108701500D02*
X133145500Y-108701500D01*
X136895500Y-99245937D02*
X136895500Y-108701500D01*
X126375500Y-99245937D02*
X126375500Y-108701500D01*
X127439937Y-98181500D02*
X130125500Y-98181500D01*
X135831063Y-98181500D02*
X133145500Y-98181500D01*
X135831063Y-98181500D02*
X136895500Y-99245937D01*
X127439937Y-98181500D02*
X126375500Y-99245937D01*
X134395500Y-96691500D02*
X134395500Y-97941500D01*
X135020500Y-97316500D02*
X133770500Y-97316500D01*
%TO.C,C2*%
X146467500Y-104323248D02*
X146467500Y-104845752D01*
X144997500Y-104323248D02*
X144997500Y-104845752D01*
%TO.C,C3*%
X154032000Y-100125500D02*
X151682000Y-100125500D01*
X147212000Y-100125500D02*
X149562000Y-100125500D01*
X147212000Y-105881063D02*
X147212000Y-100125500D01*
X154032000Y-105881063D02*
X154032000Y-100125500D01*
X152967563Y-106945500D02*
X151682000Y-106945500D01*
X148276437Y-106945500D02*
X149562000Y-106945500D01*
X148276437Y-106945500D02*
X147212000Y-105881063D01*
X152967563Y-106945500D02*
X154032000Y-105881063D01*
X148774500Y-107973000D02*
X148774500Y-107185500D01*
X148380750Y-107579250D02*
X149168250Y-107579250D01*
%TO.C,C6*%
X164128500Y-91738500D02*
X164128500Y-89388500D01*
X164128500Y-84918500D02*
X164128500Y-87268500D01*
X158372937Y-84918500D02*
X164128500Y-84918500D01*
X158372937Y-91738500D02*
X164128500Y-91738500D01*
X157308500Y-90674063D02*
X157308500Y-89388500D01*
X157308500Y-85982937D02*
X157308500Y-87268500D01*
X157308500Y-85982937D02*
X158372937Y-84918500D01*
X157308500Y-90674063D02*
X158372937Y-91738500D01*
X156281000Y-86481000D02*
X157068500Y-86481000D01*
X156674750Y-86087250D02*
X156674750Y-86874750D01*
%TO.C,C7*%
X144062500Y-91738500D02*
X144062500Y-89388500D01*
X144062500Y-84918500D02*
X144062500Y-87268500D01*
X138306937Y-84918500D02*
X144062500Y-84918500D01*
X138306937Y-91738500D02*
X144062500Y-91738500D01*
X137242500Y-90674063D02*
X137242500Y-89388500D01*
X137242500Y-85982937D02*
X137242500Y-87268500D01*
X137242500Y-85982937D02*
X138306937Y-84918500D01*
X137242500Y-90674063D02*
X138306937Y-91738500D01*
X136215000Y-86481000D02*
X137002500Y-86481000D01*
X136608750Y-86087250D02*
X136608750Y-86874750D01*
%TO.C,D1*%
X176557500Y-99615500D02*
X176557500Y-97615500D01*
X176557500Y-97615500D02*
X172657500Y-97615500D01*
X176557500Y-99615500D02*
X172657500Y-99615500D01*
%TO.C,D2*%
X144045500Y-100504500D02*
X144045500Y-98504500D01*
X144045500Y-98504500D02*
X140145500Y-98504500D01*
X144045500Y-100504500D02*
X140145500Y-100504500D01*
%TO.C,J2*%
X124607500Y-97659500D02*
X124607500Y-96609500D01*
X123557500Y-96609500D02*
X124607500Y-96609500D01*
X118507500Y-106009500D02*
X109707500Y-106009500D01*
X109707500Y-106009500D02*
X109707500Y-96809500D01*
X124407500Y-103309500D02*
X124407500Y-106009500D01*
X124407500Y-106009500D02*
X122507500Y-106009500D01*
X109707500Y-96809500D02*
X124407500Y-96809500D01*
X124407500Y-96809500D02*
X124407500Y-99409500D01*
%TO.C,J3*%
X136909500Y-76601500D02*
X142109500Y-76601500D01*
X142109500Y-76601500D02*
X142109500Y-73941500D01*
X142109500Y-73941500D02*
X136909500Y-73941500D01*
X136909500Y-73941500D02*
X136909500Y-76601500D01*
X137859500Y-73941500D02*
X137859500Y-67941500D01*
X137859500Y-67941500D02*
X138619500Y-67941500D01*
X138619500Y-67941500D02*
X138619500Y-73941500D01*
X137919500Y-73941500D02*
X137919500Y-67941500D01*
X138039500Y-73941500D02*
X138039500Y-67941500D01*
X138159500Y-73941500D02*
X138159500Y-67941500D01*
X138279500Y-73941500D02*
X138279500Y-67941500D01*
X138399500Y-73941500D02*
X138399500Y-67941500D01*
X138519500Y-73941500D02*
X138519500Y-67941500D01*
X137859500Y-76931500D02*
X137859500Y-76601500D01*
X138619500Y-76931500D02*
X138619500Y-76601500D01*
X139509500Y-76601500D02*
X139509500Y-73941500D01*
X140399500Y-73941500D02*
X140399500Y-67941500D01*
X140399500Y-67941500D02*
X141159500Y-67941500D01*
X141159500Y-67941500D02*
X141159500Y-73941500D01*
X140399500Y-76998571D02*
X140399500Y-76601500D01*
X141159500Y-76998571D02*
X141159500Y-76601500D01*
X138239500Y-79311500D02*
X136969500Y-79311500D01*
X136969500Y-79311500D02*
X136969500Y-78041500D01*
%TO.C,J4*%
X122805500Y-113517500D02*
X117605500Y-113517500D01*
X117605500Y-113517500D02*
X117605500Y-116177500D01*
X117605500Y-116177500D02*
X122805500Y-116177500D01*
X122805500Y-116177500D02*
X122805500Y-113517500D01*
X121855500Y-116177500D02*
X121855500Y-122177500D01*
X121855500Y-122177500D02*
X121095500Y-122177500D01*
X121095500Y-122177500D02*
X121095500Y-116177500D01*
X121795500Y-116177500D02*
X121795500Y-122177500D01*
X121675500Y-116177500D02*
X121675500Y-122177500D01*
X121555500Y-116177500D02*
X121555500Y-122177500D01*
X121435500Y-116177500D02*
X121435500Y-122177500D01*
X121315500Y-116177500D02*
X121315500Y-122177500D01*
X121195500Y-116177500D02*
X121195500Y-122177500D01*
X121855500Y-113187500D02*
X121855500Y-113517500D01*
X121095500Y-113187500D02*
X121095500Y-113517500D01*
X120205500Y-113517500D02*
X120205500Y-116177500D01*
X119315500Y-116177500D02*
X119315500Y-122177500D01*
X119315500Y-122177500D02*
X118555500Y-122177500D01*
X118555500Y-122177500D02*
X118555500Y-116177500D01*
X119315500Y-113120429D02*
X119315500Y-113517500D01*
X118555500Y-113120429D02*
X118555500Y-113517500D01*
X121475500Y-110807500D02*
X122745500Y-110807500D01*
X122745500Y-110807500D02*
X122745500Y-112077500D01*
%TO.C,J5*%
X118765500Y-94357500D02*
X118765500Y-86617500D01*
X118765500Y-86617500D02*
X116105500Y-86617500D01*
X116105500Y-86617500D02*
X116105500Y-94357500D01*
X116105500Y-94357500D02*
X118765500Y-94357500D01*
X116105500Y-93407500D02*
X110105500Y-93407500D01*
X110105500Y-93407500D02*
X110105500Y-92647500D01*
X110105500Y-92647500D02*
X116105500Y-92647500D01*
X116105500Y-93347500D02*
X110105500Y-93347500D01*
X116105500Y-93227500D02*
X110105500Y-93227500D01*
X116105500Y-93107500D02*
X110105500Y-93107500D01*
X116105500Y-92987500D02*
X110105500Y-92987500D01*
X116105500Y-92867500D02*
X110105500Y-92867500D01*
X116105500Y-92747500D02*
X110105500Y-92747500D01*
X119162571Y-93407500D02*
X118765500Y-93407500D01*
X119162571Y-92647500D02*
X118765500Y-92647500D01*
X121635500Y-93407500D02*
X121248429Y-93407500D01*
X121635500Y-92647500D02*
X121248429Y-92647500D01*
X118765500Y-91757500D02*
X116105500Y-91757500D01*
X116105500Y-90867500D02*
X110105500Y-90867500D01*
X110105500Y-90867500D02*
X110105500Y-90107500D01*
X110105500Y-90107500D02*
X116105500Y-90107500D01*
X119162571Y-90867500D02*
X118765500Y-90867500D01*
X119162571Y-90107500D02*
X118765500Y-90107500D01*
X121702571Y-90867500D02*
X121248429Y-90867500D01*
X121702571Y-90107500D02*
X121248429Y-90107500D01*
X118765500Y-89217500D02*
X116105500Y-89217500D01*
X116105500Y-88327500D02*
X110105500Y-88327500D01*
X110105500Y-88327500D02*
X110105500Y-87567500D01*
X110105500Y-87567500D02*
X116105500Y-87567500D01*
X119162571Y-88327500D02*
X118765500Y-88327500D01*
X119162571Y-87567500D02*
X118765500Y-87567500D01*
X121702571Y-88327500D02*
X121248429Y-88327500D01*
X121702571Y-87567500D02*
X121248429Y-87567500D01*
X124015500Y-93027500D02*
X124015500Y-94297500D01*
X124015500Y-94297500D02*
X122745500Y-94297500D01*
%TO.C,J6*%
X170176500Y-113517500D02*
X149736500Y-113517500D01*
X149736500Y-113517500D02*
X149736500Y-116177500D01*
X149736500Y-116177500D02*
X170176500Y-116177500D01*
X170176500Y-116177500D02*
X170176500Y-113517500D01*
X169226500Y-116177500D02*
X169226500Y-122177500D01*
X169226500Y-122177500D02*
X168466500Y-122177500D01*
X168466500Y-122177500D02*
X168466500Y-116177500D01*
X169166500Y-116177500D02*
X169166500Y-122177500D01*
X169046500Y-116177500D02*
X169046500Y-122177500D01*
X168926500Y-116177500D02*
X168926500Y-122177500D01*
X168806500Y-116177500D02*
X168806500Y-122177500D01*
X168686500Y-116177500D02*
X168686500Y-122177500D01*
X168566500Y-116177500D02*
X168566500Y-122177500D01*
X169226500Y-113187500D02*
X169226500Y-113517500D01*
X168466500Y-113187500D02*
X168466500Y-113517500D01*
X167576500Y-113517500D02*
X167576500Y-116177500D01*
X166686500Y-116177500D02*
X166686500Y-122177500D01*
X166686500Y-122177500D02*
X165926500Y-122177500D01*
X165926500Y-122177500D02*
X165926500Y-116177500D01*
X166686500Y-113120429D02*
X166686500Y-113517500D01*
X165926500Y-113120429D02*
X165926500Y-113517500D01*
X165036500Y-113517500D02*
X165036500Y-116177500D01*
X164146500Y-116177500D02*
X164146500Y-122177500D01*
X164146500Y-122177500D02*
X163386500Y-122177500D01*
X163386500Y-122177500D02*
X163386500Y-116177500D01*
X164146500Y-113120429D02*
X164146500Y-113517500D01*
X163386500Y-113120429D02*
X163386500Y-113517500D01*
X162496500Y-113517500D02*
X162496500Y-116177500D01*
X161606500Y-116177500D02*
X161606500Y-122177500D01*
X161606500Y-122177500D02*
X160846500Y-122177500D01*
X160846500Y-122177500D02*
X160846500Y-116177500D01*
X161606500Y-113120429D02*
X161606500Y-113517500D01*
X160846500Y-113120429D02*
X160846500Y-113517500D01*
X159956500Y-113517500D02*
X159956500Y-116177500D01*
X159066500Y-116177500D02*
X159066500Y-122177500D01*
X159066500Y-122177500D02*
X158306500Y-122177500D01*
X158306500Y-122177500D02*
X158306500Y-116177500D01*
X159066500Y-113120429D02*
X159066500Y-113517500D01*
X158306500Y-113120429D02*
X158306500Y-113517500D01*
X157416500Y-113517500D02*
X157416500Y-116177500D01*
X156526500Y-116177500D02*
X156526500Y-122177500D01*
X156526500Y-122177500D02*
X155766500Y-122177500D01*
X155766500Y-122177500D02*
X155766500Y-116177500D01*
X156526500Y-113120429D02*
X156526500Y-113517500D01*
X155766500Y-113120429D02*
X155766500Y-113517500D01*
X154876500Y-113517500D02*
X154876500Y-116177500D01*
X153986500Y-116177500D02*
X153986500Y-122177500D01*
X153986500Y-122177500D02*
X153226500Y-122177500D01*
X153226500Y-122177500D02*
X153226500Y-116177500D01*
X153986500Y-113120429D02*
X153986500Y-113517500D01*
X153226500Y-113120429D02*
X153226500Y-113517500D01*
X152336500Y-113517500D02*
X152336500Y-116177500D01*
X151446500Y-116177500D02*
X151446500Y-122177500D01*
X151446500Y-122177500D02*
X150686500Y-122177500D01*
X150686500Y-122177500D02*
X150686500Y-116177500D01*
X151446500Y-113120429D02*
X151446500Y-113517500D01*
X150686500Y-113120429D02*
X150686500Y-113517500D01*
X168846500Y-110807500D02*
X170116500Y-110807500D01*
X170116500Y-110807500D02*
X170116500Y-112077500D01*
%TO.C,J7*%
X195322500Y-83435500D02*
X195322500Y-80775500D01*
X192722500Y-83435500D02*
X195322500Y-83435500D01*
X192722500Y-80775500D02*
X195322500Y-80775500D01*
X192722500Y-83435500D02*
X192722500Y-80775500D01*
X191452500Y-83435500D02*
X190122500Y-83435500D01*
X190122500Y-83435500D02*
X190122500Y-82105500D01*
%TO.C,J9*%
X195322500Y-92325500D02*
X195322500Y-89665500D01*
X192722500Y-92325500D02*
X195322500Y-92325500D01*
X192722500Y-89665500D02*
X195322500Y-89665500D01*
X192722500Y-92325500D02*
X192722500Y-89665500D01*
X191452500Y-92325500D02*
X190122500Y-92325500D01*
X190122500Y-92325500D02*
X190122500Y-90995500D01*
%TO.C,J10*%
X118765500Y-85467500D02*
X118765500Y-77727500D01*
X118765500Y-77727500D02*
X116105500Y-77727500D01*
X116105500Y-77727500D02*
X116105500Y-85467500D01*
X116105500Y-85467500D02*
X118765500Y-85467500D01*
X116105500Y-84517500D02*
X110105500Y-84517500D01*
X110105500Y-84517500D02*
X110105500Y-83757500D01*
X110105500Y-83757500D02*
X116105500Y-83757500D01*
X116105500Y-84457500D02*
X110105500Y-84457500D01*
X116105500Y-84337500D02*
X110105500Y-84337500D01*
X116105500Y-84217500D02*
X110105500Y-84217500D01*
X116105500Y-84097500D02*
X110105500Y-84097500D01*
X116105500Y-83977500D02*
X110105500Y-83977500D01*
X116105500Y-83857500D02*
X110105500Y-83857500D01*
X119095500Y-84517500D02*
X118765500Y-84517500D01*
X119095500Y-83757500D02*
X118765500Y-83757500D01*
X118765500Y-82867500D02*
X116105500Y-82867500D01*
X116105500Y-81977500D02*
X110105500Y-81977500D01*
X110105500Y-81977500D02*
X110105500Y-81217500D01*
X110105500Y-81217500D02*
X116105500Y-81217500D01*
X119162571Y-81977500D02*
X118765500Y-81977500D01*
X119162571Y-81217500D02*
X118765500Y-81217500D01*
X118765500Y-80327500D02*
X116105500Y-80327500D01*
X116105500Y-79437500D02*
X110105500Y-79437500D01*
X110105500Y-79437500D02*
X110105500Y-78677500D01*
X110105500Y-78677500D02*
X116105500Y-78677500D01*
X119162571Y-79437500D02*
X118765500Y-79437500D01*
X119162571Y-78677500D02*
X118765500Y-78677500D01*
X121475500Y-84137500D02*
X121475500Y-85407500D01*
X121475500Y-85407500D02*
X120205500Y-85407500D01*
%TO.C,J11*%
X125345500Y-77727500D02*
X122685500Y-77727500D01*
X125345500Y-82867500D02*
X125345500Y-77727500D01*
X122685500Y-82867500D02*
X122685500Y-77727500D01*
X125345500Y-82867500D02*
X122685500Y-82867500D01*
X125345500Y-84137500D02*
X125345500Y-85467500D01*
X125345500Y-85467500D02*
X124015500Y-85467500D01*
%TO.C,J12*%
X144529500Y-76601500D02*
X154809500Y-76601500D01*
X154809500Y-76601500D02*
X154809500Y-73941500D01*
X154809500Y-73941500D02*
X144529500Y-73941500D01*
X144529500Y-73941500D02*
X144529500Y-76601500D01*
X145479500Y-73941500D02*
X145479500Y-67941500D01*
X145479500Y-67941500D02*
X146239500Y-67941500D01*
X146239500Y-67941500D02*
X146239500Y-73941500D01*
X145539500Y-73941500D02*
X145539500Y-67941500D01*
X145659500Y-73941500D02*
X145659500Y-67941500D01*
X145779500Y-73941500D02*
X145779500Y-67941500D01*
X145899500Y-73941500D02*
X145899500Y-67941500D01*
X146019500Y-73941500D02*
X146019500Y-67941500D01*
X146139500Y-73941500D02*
X146139500Y-67941500D01*
X145479500Y-76931500D02*
X145479500Y-76601500D01*
X146239500Y-76931500D02*
X146239500Y-76601500D01*
X147129500Y-76601500D02*
X147129500Y-73941500D01*
X148019500Y-73941500D02*
X148019500Y-67941500D01*
X148019500Y-67941500D02*
X148779500Y-67941500D01*
X148779500Y-67941500D02*
X148779500Y-73941500D01*
X148019500Y-76998571D02*
X148019500Y-76601500D01*
X148779500Y-76998571D02*
X148779500Y-76601500D01*
X149669500Y-76601500D02*
X149669500Y-73941500D01*
X150559500Y-73941500D02*
X150559500Y-67941500D01*
X150559500Y-67941500D02*
X151319500Y-67941500D01*
X151319500Y-67941500D02*
X151319500Y-73941500D01*
X150559500Y-76998571D02*
X150559500Y-76601500D01*
X151319500Y-76998571D02*
X151319500Y-76601500D01*
X152209500Y-76601500D02*
X152209500Y-73941500D01*
X153099500Y-73941500D02*
X153099500Y-67941500D01*
X153099500Y-67941500D02*
X153859500Y-67941500D01*
X153859500Y-67941500D02*
X153859500Y-73941500D01*
X153099500Y-76998571D02*
X153099500Y-76601500D01*
X153859500Y-76998571D02*
X153859500Y-76601500D01*
X145859500Y-79311500D02*
X144589500Y-79311500D01*
X144589500Y-79311500D02*
X144589500Y-78041500D01*
%TO.C,J13*%
X158753500Y-76601500D02*
X169033500Y-76601500D01*
X169033500Y-76601500D02*
X169033500Y-73941500D01*
X169033500Y-73941500D02*
X158753500Y-73941500D01*
X158753500Y-73941500D02*
X158753500Y-76601500D01*
X159703500Y-73941500D02*
X159703500Y-67941500D01*
X159703500Y-67941500D02*
X160463500Y-67941500D01*
X160463500Y-67941500D02*
X160463500Y-73941500D01*
X159763500Y-73941500D02*
X159763500Y-67941500D01*
X159883500Y-73941500D02*
X159883500Y-67941500D01*
X160003500Y-73941500D02*
X160003500Y-67941500D01*
X160123500Y-73941500D02*
X160123500Y-67941500D01*
X160243500Y-73941500D02*
X160243500Y-67941500D01*
X160363500Y-73941500D02*
X160363500Y-67941500D01*
X159703500Y-76931500D02*
X159703500Y-76601500D01*
X160463500Y-76931500D02*
X160463500Y-76601500D01*
X161353500Y-76601500D02*
X161353500Y-73941500D01*
X162243500Y-73941500D02*
X162243500Y-67941500D01*
X162243500Y-67941500D02*
X163003500Y-67941500D01*
X163003500Y-67941500D02*
X163003500Y-73941500D01*
X162243500Y-76998571D02*
X162243500Y-76601500D01*
X163003500Y-76998571D02*
X163003500Y-76601500D01*
X163893500Y-76601500D02*
X163893500Y-73941500D01*
X164783500Y-73941500D02*
X164783500Y-67941500D01*
X164783500Y-67941500D02*
X165543500Y-67941500D01*
X165543500Y-67941500D02*
X165543500Y-73941500D01*
X164783500Y-76998571D02*
X164783500Y-76601500D01*
X165543500Y-76998571D02*
X165543500Y-76601500D01*
X166433500Y-76601500D02*
X166433500Y-73941500D01*
X167323500Y-73941500D02*
X167323500Y-67941500D01*
X167323500Y-67941500D02*
X168083500Y-67941500D01*
X168083500Y-67941500D02*
X168083500Y-73941500D01*
X167323500Y-76998571D02*
X167323500Y-76601500D01*
X168083500Y-76998571D02*
X168083500Y-76601500D01*
X160083500Y-79311500D02*
X158813500Y-79311500D01*
X158813500Y-79311500D02*
X158813500Y-78041500D01*
%TO.C,J14*%
X131949500Y-113517500D02*
X124209500Y-113517500D01*
X124209500Y-113517500D02*
X124209500Y-116177500D01*
X124209500Y-116177500D02*
X131949500Y-116177500D01*
X131949500Y-116177500D02*
X131949500Y-113517500D01*
X130999500Y-116177500D02*
X130999500Y-122177500D01*
X130999500Y-122177500D02*
X130239500Y-122177500D01*
X130239500Y-122177500D02*
X130239500Y-116177500D01*
X130939500Y-116177500D02*
X130939500Y-122177500D01*
X130819500Y-116177500D02*
X130819500Y-122177500D01*
X130699500Y-116177500D02*
X130699500Y-122177500D01*
X130579500Y-116177500D02*
X130579500Y-122177500D01*
X130459500Y-116177500D02*
X130459500Y-122177500D01*
X130339500Y-116177500D02*
X130339500Y-122177500D01*
X130999500Y-113187500D02*
X130999500Y-113517500D01*
X130239500Y-113187500D02*
X130239500Y-113517500D01*
X129349500Y-113517500D02*
X129349500Y-116177500D01*
X128459500Y-116177500D02*
X128459500Y-122177500D01*
X128459500Y-122177500D02*
X127699500Y-122177500D01*
X127699500Y-122177500D02*
X127699500Y-116177500D01*
X128459500Y-113120429D02*
X128459500Y-113517500D01*
X127699500Y-113120429D02*
X127699500Y-113517500D01*
X126809500Y-113517500D02*
X126809500Y-116177500D01*
X125919500Y-116177500D02*
X125919500Y-122177500D01*
X125919500Y-122177500D02*
X125159500Y-122177500D01*
X125159500Y-122177500D02*
X125159500Y-116177500D01*
X125919500Y-113120429D02*
X125919500Y-113517500D01*
X125159500Y-113120429D02*
X125159500Y-113517500D01*
X130619500Y-110807500D02*
X131889500Y-110807500D01*
X131889500Y-110807500D02*
X131889500Y-112077500D01*
%TO.C,J15*%
X129035500Y-76601500D02*
X134235500Y-76601500D01*
X134235500Y-76601500D02*
X134235500Y-73941500D01*
X134235500Y-73941500D02*
X129035500Y-73941500D01*
X129035500Y-73941500D02*
X129035500Y-76601500D01*
X129985500Y-73941500D02*
X129985500Y-67941500D01*
X129985500Y-67941500D02*
X130745500Y-67941500D01*
X130745500Y-67941500D02*
X130745500Y-73941500D01*
X130045500Y-73941500D02*
X130045500Y-67941500D01*
X130165500Y-73941500D02*
X130165500Y-67941500D01*
X130285500Y-73941500D02*
X130285500Y-67941500D01*
X130405500Y-73941500D02*
X130405500Y-67941500D01*
X130525500Y-73941500D02*
X130525500Y-67941500D01*
X130645500Y-73941500D02*
X130645500Y-67941500D01*
X129985500Y-76931500D02*
X129985500Y-76601500D01*
X130745500Y-76931500D02*
X130745500Y-76601500D01*
X131635500Y-76601500D02*
X131635500Y-73941500D01*
X132525500Y-73941500D02*
X132525500Y-67941500D01*
X132525500Y-67941500D02*
X133285500Y-67941500D01*
X133285500Y-67941500D02*
X133285500Y-73941500D01*
X132525500Y-76998571D02*
X132525500Y-76601500D01*
X133285500Y-76998571D02*
X133285500Y-76601500D01*
X130365500Y-79311500D02*
X129095500Y-79311500D01*
X129095500Y-79311500D02*
X129095500Y-78041500D01*
%TO.C,J16*%
X148459500Y-113517500D02*
X133099500Y-113517500D01*
X133099500Y-113517500D02*
X133099500Y-116177500D01*
X133099500Y-116177500D02*
X148459500Y-116177500D01*
X148459500Y-116177500D02*
X148459500Y-113517500D01*
X147509500Y-116177500D02*
X147509500Y-122177500D01*
X147509500Y-122177500D02*
X146749500Y-122177500D01*
X146749500Y-122177500D02*
X146749500Y-116177500D01*
X147449500Y-116177500D02*
X147449500Y-122177500D01*
X147329500Y-116177500D02*
X147329500Y-122177500D01*
X147209500Y-116177500D02*
X147209500Y-122177500D01*
X147089500Y-116177500D02*
X147089500Y-122177500D01*
X146969500Y-116177500D02*
X146969500Y-122177500D01*
X146849500Y-116177500D02*
X146849500Y-122177500D01*
X147509500Y-113187500D02*
X147509500Y-113517500D01*
X146749500Y-113187500D02*
X146749500Y-113517500D01*
X145859500Y-113517500D02*
X145859500Y-116177500D01*
X144969500Y-116177500D02*
X144969500Y-122177500D01*
X144969500Y-122177500D02*
X144209500Y-122177500D01*
X144209500Y-122177500D02*
X144209500Y-116177500D01*
X144969500Y-113120429D02*
X144969500Y-113517500D01*
X144209500Y-113120429D02*
X144209500Y-113517500D01*
X143319500Y-113517500D02*
X143319500Y-116177500D01*
X142429500Y-116177500D02*
X142429500Y-122177500D01*
X142429500Y-122177500D02*
X141669500Y-122177500D01*
X141669500Y-122177500D02*
X141669500Y-116177500D01*
X142429500Y-113120429D02*
X142429500Y-113517500D01*
X141669500Y-113120429D02*
X141669500Y-113517500D01*
X140779500Y-113517500D02*
X140779500Y-116177500D01*
X139889500Y-116177500D02*
X139889500Y-122177500D01*
X139889500Y-122177500D02*
X139129500Y-122177500D01*
X139129500Y-122177500D02*
X139129500Y-116177500D01*
X139889500Y-113120429D02*
X139889500Y-113517500D01*
X139129500Y-113120429D02*
X139129500Y-113517500D01*
X138239500Y-113517500D02*
X138239500Y-116177500D01*
X137349500Y-116177500D02*
X137349500Y-122177500D01*
X137349500Y-122177500D02*
X136589500Y-122177500D01*
X136589500Y-122177500D02*
X136589500Y-116177500D01*
X137349500Y-113120429D02*
X137349500Y-113517500D01*
X136589500Y-113120429D02*
X136589500Y-113517500D01*
X135699500Y-113517500D02*
X135699500Y-116177500D01*
X134809500Y-116177500D02*
X134809500Y-122177500D01*
X134809500Y-122177500D02*
X134049500Y-122177500D01*
X134049500Y-122177500D02*
X134049500Y-116177500D01*
X134809500Y-113120429D02*
X134809500Y-113517500D01*
X134049500Y-113120429D02*
X134049500Y-113517500D01*
X147129500Y-110807500D02*
X148399500Y-110807500D01*
X148399500Y-110807500D02*
X148399500Y-112077500D01*
%TO.C,L1*%
X157672500Y-109744500D02*
X154672500Y-109744500D01*
X154672500Y-109744500D02*
X154672500Y-97144500D01*
X154672500Y-97144500D02*
X157672500Y-97144500D01*
X164272500Y-97144500D02*
X167272500Y-97144500D01*
X167272500Y-97144500D02*
X167272500Y-109744500D01*
X167272500Y-109744500D02*
X164272500Y-109744500D01*
%TO.C,R1*%
X185119242Y-81583000D02*
X185593758Y-81583000D01*
X185119242Y-82628000D02*
X185593758Y-82628000D01*
%TO.C,R2*%
X185119242Y-85774000D02*
X185593758Y-85774000D01*
X185119242Y-86819000D02*
X185593758Y-86819000D01*
%TO.C,R3*%
X198581242Y-85647000D02*
X199055758Y-85647000D01*
X198581242Y-86692000D02*
X199055758Y-86692000D01*
%TO.C,R4*%
X198581242Y-78027000D02*
X199055758Y-78027000D01*
X198581242Y-79072000D02*
X199055758Y-79072000D01*
%TO.C,C4*%
X185215920Y-87437500D02*
X185497080Y-87437500D01*
X185215920Y-88457500D02*
X185497080Y-88457500D01*
%TO.C,C5*%
X185215920Y-84139500D02*
X185497080Y-84139500D01*
X185215920Y-83119500D02*
X185497080Y-83119500D01*
%TO.C,U4*%
X139235500Y-105219500D02*
X139235500Y-107169500D01*
X139235500Y-105219500D02*
X139235500Y-103269500D01*
X144355500Y-105219500D02*
X144355500Y-107169500D01*
X144355500Y-105219500D02*
X144355500Y-101769500D01*
%TO.C,J1*%
D10*
X177022166Y-114577880D02*
X177022166Y-115292166D01*
X176974547Y-115435023D01*
X176879309Y-115530261D01*
X176736452Y-115577880D01*
X176641214Y-115577880D01*
X178022166Y-115577880D02*
X177450738Y-115577880D01*
X177736452Y-115577880D02*
X177736452Y-114577880D01*
X177641214Y-114720738D01*
X177545976Y-114815976D01*
X177450738Y-114863595D01*
%TO.C,J8*%
X199374166Y-106449880D02*
X199374166Y-107164166D01*
X199326547Y-107307023D01*
X199231309Y-107402261D01*
X199088452Y-107449880D01*
X198993214Y-107449880D01*
X199993214Y-106878452D02*
X199897976Y-106830833D01*
X199850357Y-106783214D01*
X199802738Y-106687976D01*
X199802738Y-106640357D01*
X199850357Y-106545119D01*
X199897976Y-106497500D01*
X199993214Y-106449880D01*
X200183690Y-106449880D01*
X200278928Y-106497500D01*
X200326547Y-106545119D01*
X200374166Y-106640357D01*
X200374166Y-106687976D01*
X200326547Y-106783214D01*
X200278928Y-106830833D01*
X200183690Y-106878452D01*
X199993214Y-106878452D01*
X199897976Y-106926071D01*
X199850357Y-106973690D01*
X199802738Y-107068928D01*
X199802738Y-107259404D01*
X199850357Y-107354642D01*
X199897976Y-107402261D01*
X199993214Y-107449880D01*
X200183690Y-107449880D01*
X200278928Y-107402261D01*
X200326547Y-107354642D01*
X200374166Y-107259404D01*
X200374166Y-107068928D01*
X200326547Y-106973690D01*
X200278928Y-106926071D01*
X200183690Y-106878452D01*
%TO.C,U3*%
X163599880Y-89344404D02*
X164409404Y-89344404D01*
X164504642Y-89296785D01*
X164552261Y-89249166D01*
X164599880Y-89153928D01*
X164599880Y-88963452D01*
X164552261Y-88868214D01*
X164504642Y-88820595D01*
X164409404Y-88772976D01*
X163599880Y-88772976D01*
X163599880Y-88392023D02*
X163599880Y-87772976D01*
X163980833Y-88106309D01*
X163980833Y-87963452D01*
X164028452Y-87868214D01*
X164076071Y-87820595D01*
X164171309Y-87772976D01*
X164409404Y-87772976D01*
X164504642Y-87820595D01*
X164552261Y-87868214D01*
X164599880Y-87963452D01*
X164599880Y-88249166D01*
X164552261Y-88344404D01*
X164504642Y-88392023D01*
D11*
X153459690Y-89972271D02*
X153959690Y-89805604D01*
X153459690Y-89638938D01*
X153959690Y-89472271D02*
X153626357Y-89472271D01*
X153721595Y-89472271D02*
X153673976Y-89448461D01*
X153650166Y-89424652D01*
X153626357Y-89377033D01*
X153626357Y-89329414D01*
X153935880Y-88972271D02*
X153959690Y-89019890D01*
X153959690Y-89115128D01*
X153935880Y-89162747D01*
X153888261Y-89186557D01*
X153697785Y-89186557D01*
X153650166Y-89162747D01*
X153626357Y-89115128D01*
X153626357Y-89019890D01*
X153650166Y-88972271D01*
X153697785Y-88948461D01*
X153745404Y-88948461D01*
X153793023Y-89186557D01*
X153626357Y-88805604D02*
X153626357Y-88615128D01*
X153959690Y-88734176D02*
X153531119Y-88734176D01*
X153483500Y-88710366D01*
X153459690Y-88662747D01*
X153459690Y-88615128D01*
X152054690Y-88557776D02*
X151554690Y-88557776D01*
X151554690Y-88438728D01*
X151578500Y-88367300D01*
X151626119Y-88319680D01*
X151673738Y-88295871D01*
X151768976Y-88272061D01*
X151840404Y-88272061D01*
X151935642Y-88295871D01*
X151983261Y-88319680D01*
X152030880Y-88367300D01*
X152054690Y-88438728D01*
X152054690Y-88557776D01*
X152054690Y-88057776D02*
X151721357Y-88057776D01*
X151554690Y-88057776D02*
X151578500Y-88081585D01*
X151602309Y-88057776D01*
X151578500Y-88033966D01*
X151554690Y-88057776D01*
X151602309Y-88057776D01*
X152054690Y-87605395D02*
X151792785Y-87605395D01*
X151745166Y-87629204D01*
X151721357Y-87676823D01*
X151721357Y-87772061D01*
X151745166Y-87819680D01*
X152030880Y-87605395D02*
X152054690Y-87653014D01*
X152054690Y-87772061D01*
X152030880Y-87819680D01*
X151983261Y-87843490D01*
X151935642Y-87843490D01*
X151888023Y-87819680D01*
X151864214Y-87772061D01*
X151864214Y-87653014D01*
X151840404Y-87605395D01*
X151721357Y-87153014D02*
X152126119Y-87153014D01*
X152173738Y-87176823D01*
X152197547Y-87200633D01*
X152221357Y-87248252D01*
X152221357Y-87319680D01*
X152197547Y-87367300D01*
X152030880Y-87153014D02*
X152054690Y-87200633D01*
X152054690Y-87295871D01*
X152030880Y-87343490D01*
X152007071Y-87367300D01*
X151959452Y-87391109D01*
X151816595Y-87391109D01*
X151768976Y-87367300D01*
X151745166Y-87343490D01*
X151721357Y-87295871D01*
X151721357Y-87200633D01*
X151745166Y-87153014D01*
X152054690Y-86653014D02*
X152054690Y-86938728D01*
X152054690Y-86795871D02*
X151554690Y-86795871D01*
X151626119Y-86843490D01*
X151673738Y-86891109D01*
X151697547Y-86938728D01*
X153324690Y-94018776D02*
X152824690Y-94018776D01*
X152824690Y-93899728D01*
X152848500Y-93828300D01*
X152896119Y-93780680D01*
X152943738Y-93756871D01*
X153038976Y-93733061D01*
X153110404Y-93733061D01*
X153205642Y-93756871D01*
X153253261Y-93780680D01*
X153300880Y-93828300D01*
X153324690Y-93899728D01*
X153324690Y-94018776D01*
X153324690Y-93518776D02*
X152991357Y-93518776D01*
X152824690Y-93518776D02*
X152848500Y-93542585D01*
X152872309Y-93518776D01*
X152848500Y-93494966D01*
X152824690Y-93518776D01*
X152872309Y-93518776D01*
X153324690Y-93066395D02*
X153062785Y-93066395D01*
X153015166Y-93090204D01*
X152991357Y-93137823D01*
X152991357Y-93233061D01*
X153015166Y-93280680D01*
X153300880Y-93066395D02*
X153324690Y-93114014D01*
X153324690Y-93233061D01*
X153300880Y-93280680D01*
X153253261Y-93304490D01*
X153205642Y-93304490D01*
X153158023Y-93280680D01*
X153134214Y-93233061D01*
X153134214Y-93114014D01*
X153110404Y-93066395D01*
X152991357Y-92614014D02*
X153396119Y-92614014D01*
X153443738Y-92637823D01*
X153467547Y-92661633D01*
X153491357Y-92709252D01*
X153491357Y-92780680D01*
X153467547Y-92828300D01*
X153300880Y-92614014D02*
X153324690Y-92661633D01*
X153324690Y-92756871D01*
X153300880Y-92804490D01*
X153277071Y-92828300D01*
X153229452Y-92852109D01*
X153086595Y-92852109D01*
X153038976Y-92828300D01*
X153015166Y-92804490D01*
X152991357Y-92756871D01*
X152991357Y-92661633D01*
X153015166Y-92614014D01*
X152824690Y-92280680D02*
X152824690Y-92233061D01*
X152848500Y-92185442D01*
X152872309Y-92161633D01*
X152919928Y-92137823D01*
X153015166Y-92114014D01*
X153134214Y-92114014D01*
X153229452Y-92137823D01*
X153277071Y-92161633D01*
X153300880Y-92185442D01*
X153324690Y-92233061D01*
X153324690Y-92280680D01*
X153300880Y-92328300D01*
X153277071Y-92352109D01*
X153229452Y-92375919D01*
X153134214Y-92399728D01*
X153015166Y-92399728D01*
X152919928Y-92375919D01*
X152872309Y-92352109D01*
X152848500Y-92328300D01*
X152824690Y-92280680D01*
D10*
X169159300Y-85153404D02*
X169111680Y-85248642D01*
X169111680Y-85391500D01*
X169159300Y-85534357D01*
X169254538Y-85629595D01*
X169349776Y-85677214D01*
X169540252Y-85724833D01*
X169683109Y-85724833D01*
X169873585Y-85677214D01*
X169968823Y-85629595D01*
X170064061Y-85534357D01*
X170111680Y-85391500D01*
X170111680Y-85296261D01*
X170064061Y-85153404D01*
X170016442Y-85105785D01*
X169683109Y-85105785D01*
X169683109Y-85296261D01*
X170111680Y-84677214D02*
X169111680Y-84677214D01*
X170111680Y-84105785D01*
X169111680Y-84105785D01*
X170111680Y-83629595D02*
X169111680Y-83629595D01*
X169111680Y-83391500D01*
X169159300Y-83248642D01*
X169254538Y-83153404D01*
X169349776Y-83105785D01*
X169540252Y-83058166D01*
X169683109Y-83058166D01*
X169873585Y-83105785D01*
X169968823Y-83153404D01*
X170064061Y-83248642D01*
X170111680Y-83391500D01*
X170111680Y-83629595D01*
X166495480Y-85648633D02*
X167495480Y-85315300D01*
X166495480Y-84981966D01*
X167495480Y-84648633D02*
X166495480Y-84648633D01*
X166495480Y-84410538D01*
X166543100Y-84267680D01*
X166638338Y-84172442D01*
X166733576Y-84124823D01*
X166924052Y-84077204D01*
X167066909Y-84077204D01*
X167257385Y-84124823D01*
X167352623Y-84172442D01*
X167447861Y-84267680D01*
X167495480Y-84410538D01*
X167495480Y-84648633D01*
X167495480Y-83648633D02*
X166495480Y-83648633D01*
X166495480Y-83410538D01*
X166543100Y-83267680D01*
X166638338Y-83172442D01*
X166733576Y-83124823D01*
X166924052Y-83077204D01*
X167066909Y-83077204D01*
X167257385Y-83124823D01*
X167352623Y-83172442D01*
X167447861Y-83267680D01*
X167495480Y-83410538D01*
X167495480Y-83648633D01*
X165107880Y-83996185D02*
X165107880Y-84567614D01*
X165107880Y-84281900D02*
X164107880Y-84281900D01*
X164250738Y-84377138D01*
X164345976Y-84472376D01*
X164393595Y-84567614D01*
X164584071Y-83234280D02*
X164631690Y-83091423D01*
X164679309Y-83043804D01*
X164774547Y-82996185D01*
X164917404Y-82996185D01*
X165012642Y-83043804D01*
X165060261Y-83091423D01*
X165107880Y-83186661D01*
X165107880Y-83567614D01*
X164107880Y-83567614D01*
X164107880Y-83234280D01*
X164155500Y-83139042D01*
X164203119Y-83091423D01*
X164298357Y-83043804D01*
X164393595Y-83043804D01*
X164488833Y-83091423D01*
X164536452Y-83139042D01*
X164584071Y-83234280D01*
X164584071Y-83567614D01*
X162205966Y-84419985D02*
X162205966Y-83943795D01*
X162491680Y-84515223D02*
X161491680Y-84181890D01*
X162491680Y-83848557D01*
X162491680Y-82991414D02*
X162491680Y-83562842D01*
X162491680Y-83277128D02*
X161491680Y-83277128D01*
X161634538Y-83372366D01*
X161729776Y-83467604D01*
X161777395Y-83562842D01*
X159402471Y-84186661D02*
X159450090Y-84043804D01*
X159497709Y-83996185D01*
X159592947Y-83948566D01*
X159735804Y-83948566D01*
X159831042Y-83996185D01*
X159878661Y-84043804D01*
X159926280Y-84139042D01*
X159926280Y-84519995D01*
X158926280Y-84519995D01*
X158926280Y-84186661D01*
X158973900Y-84091423D01*
X159021519Y-84043804D01*
X159116757Y-83996185D01*
X159211995Y-83996185D01*
X159307233Y-84043804D01*
X159354852Y-84091423D01*
X159402471Y-84186661D01*
X159402471Y-84519995D01*
X159926280Y-82996185D02*
X159926280Y-83567614D01*
X159926280Y-83281900D02*
X158926280Y-83281900D01*
X159069138Y-83377138D01*
X159164376Y-83472376D01*
X159211995Y-83567614D01*
X156862471Y-84186661D02*
X156910090Y-84043804D01*
X156957709Y-83996185D01*
X157052947Y-83948566D01*
X157195804Y-83948566D01*
X157291042Y-83996185D01*
X157338661Y-84043804D01*
X157386280Y-84139042D01*
X157386280Y-84519995D01*
X156386280Y-84519995D01*
X156386280Y-84186661D01*
X156433900Y-84091423D01*
X156481519Y-84043804D01*
X156576757Y-83996185D01*
X156671995Y-83996185D01*
X156767233Y-84043804D01*
X156814852Y-84091423D01*
X156862471Y-84186661D01*
X156862471Y-84519995D01*
X156481519Y-83567614D02*
X156433900Y-83519995D01*
X156386280Y-83424757D01*
X156386280Y-83186661D01*
X156433900Y-83091423D01*
X156481519Y-83043804D01*
X156576757Y-82996185D01*
X156671995Y-82996185D01*
X156814852Y-83043804D01*
X157386280Y-83615233D01*
X157386280Y-82996185D01*
D11*
X154143900Y-84086652D02*
X154120090Y-84134271D01*
X154120090Y-84205700D01*
X154143900Y-84277128D01*
X154191519Y-84324747D01*
X154239138Y-84348557D01*
X154334376Y-84372366D01*
X154405804Y-84372366D01*
X154501042Y-84348557D01*
X154548661Y-84324747D01*
X154596280Y-84277128D01*
X154620090Y-84205700D01*
X154620090Y-84158080D01*
X154596280Y-84086652D01*
X154572471Y-84062842D01*
X154405804Y-84062842D01*
X154405804Y-84158080D01*
X154620090Y-83848557D02*
X154120090Y-83848557D01*
X154620090Y-83562842D01*
X154120090Y-83562842D01*
X154620090Y-83324747D02*
X154120090Y-83324747D01*
X154120090Y-83205700D01*
X154143900Y-83134271D01*
X154191519Y-83086652D01*
X154239138Y-83062842D01*
X154334376Y-83039033D01*
X154405804Y-83039033D01*
X154501042Y-83062842D01*
X154548661Y-83086652D01*
X154596280Y-83134271D01*
X154620090Y-83205700D01*
X154620090Y-83324747D01*
X151580090Y-84141404D02*
X152080090Y-83974738D01*
X151580090Y-83808071D01*
X152080090Y-83641404D02*
X151746757Y-83641404D01*
X151580090Y-83641404D02*
X151603900Y-83665214D01*
X151627709Y-83641404D01*
X151603900Y-83617595D01*
X151580090Y-83641404D01*
X151627709Y-83641404D01*
X151746757Y-83403309D02*
X152080090Y-83403309D01*
X151794376Y-83403309D02*
X151770566Y-83379500D01*
X151746757Y-83331880D01*
X151746757Y-83260452D01*
X151770566Y-83212833D01*
X151818185Y-83189023D01*
X152080090Y-83189023D01*
X150703500Y-93947395D02*
X150703500Y-93495014D01*
X151157785Y-93828347D02*
X151157785Y-93661680D01*
X151419690Y-93590252D02*
X151419690Y-93828347D01*
X150919690Y-93828347D01*
X150919690Y-93590252D01*
X150703500Y-93495014D02*
X150703500Y-92971204D01*
X151419690Y-93375966D02*
X150919690Y-93375966D01*
X151419690Y-93090252D01*
X150919690Y-93090252D01*
X154672480Y-93737690D02*
X154696290Y-93666261D01*
X154696290Y-93547214D01*
X154672480Y-93499595D01*
X154648671Y-93475785D01*
X154601052Y-93451976D01*
X154553433Y-93451976D01*
X154505814Y-93475785D01*
X154482004Y-93499595D01*
X154458195Y-93547214D01*
X154434385Y-93642452D01*
X154410576Y-93690071D01*
X154386766Y-93713880D01*
X154339147Y-93737690D01*
X154291528Y-93737690D01*
X154243909Y-93713880D01*
X154220100Y-93690071D01*
X154196290Y-93642452D01*
X154196290Y-93523404D01*
X154220100Y-93451976D01*
X154696290Y-93237690D02*
X154196290Y-93237690D01*
X154196290Y-93118642D01*
X154220100Y-93047214D01*
X154267719Y-92999595D01*
X154315338Y-92975785D01*
X154410576Y-92951976D01*
X154482004Y-92951976D01*
X154577242Y-92975785D01*
X154624861Y-92999595D01*
X154672480Y-93047214D01*
X154696290Y-93118642D01*
X154696290Y-93237690D01*
X154696290Y-92737690D02*
X154196290Y-92737690D01*
X154172480Y-92142452D02*
X154815338Y-92571023D01*
X154648671Y-91690071D02*
X154672480Y-91713880D01*
X154696290Y-91785309D01*
X154696290Y-91832928D01*
X154672480Y-91904357D01*
X154624861Y-91951976D01*
X154577242Y-91975785D01*
X154482004Y-91999595D01*
X154410576Y-91999595D01*
X154315338Y-91975785D01*
X154267719Y-91951976D01*
X154220100Y-91904357D01*
X154196290Y-91832928D01*
X154196290Y-91785309D01*
X154220100Y-91713880D01*
X154243909Y-91690071D01*
X154434385Y-91309119D02*
X154434385Y-91475785D01*
X154696290Y-91475785D02*
X154196290Y-91475785D01*
X154196290Y-91237690D01*
X154220100Y-90785309D02*
X154196290Y-90832928D01*
X154196290Y-90904357D01*
X154220100Y-90975785D01*
X154267719Y-91023404D01*
X154315338Y-91047214D01*
X154410576Y-91071023D01*
X154482004Y-91071023D01*
X154577242Y-91047214D01*
X154624861Y-91023404D01*
X154672480Y-90975785D01*
X154696290Y-90904357D01*
X154696290Y-90856738D01*
X154672480Y-90785309D01*
X154648671Y-90761500D01*
X154482004Y-90761500D01*
X154482004Y-90856738D01*
X154696290Y-90285309D02*
X154696290Y-90571023D01*
X154696290Y-90428166D02*
X154196290Y-90428166D01*
X154267719Y-90475785D01*
X154315338Y-90523404D01*
X154339147Y-90571023D01*
X157085480Y-93716242D02*
X157109290Y-93644814D01*
X157109290Y-93525766D01*
X157085480Y-93478147D01*
X157061671Y-93454338D01*
X157014052Y-93430528D01*
X156966433Y-93430528D01*
X156918814Y-93454338D01*
X156895004Y-93478147D01*
X156871195Y-93525766D01*
X156847385Y-93621004D01*
X156823576Y-93668623D01*
X156799766Y-93692433D01*
X156752147Y-93716242D01*
X156704528Y-93716242D01*
X156656909Y-93692433D01*
X156633100Y-93668623D01*
X156609290Y-93621004D01*
X156609290Y-93501957D01*
X156633100Y-93430528D01*
X157061671Y-92930528D02*
X157085480Y-92954338D01*
X157109290Y-93025766D01*
X157109290Y-93073385D01*
X157085480Y-93144814D01*
X157037861Y-93192433D01*
X156990242Y-93216242D01*
X156895004Y-93240052D01*
X156823576Y-93240052D01*
X156728338Y-93216242D01*
X156680719Y-93192433D01*
X156633100Y-93144814D01*
X156609290Y-93073385D01*
X156609290Y-93025766D01*
X156633100Y-92954338D01*
X156656909Y-92930528D01*
X157109290Y-92716242D02*
X156609290Y-92716242D01*
X157109290Y-92430528D02*
X156823576Y-92644814D01*
X156609290Y-92430528D02*
X156895004Y-92716242D01*
X156585480Y-91859100D02*
X157228338Y-92287671D01*
X157061671Y-91406719D02*
X157085480Y-91430528D01*
X157109290Y-91501957D01*
X157109290Y-91549576D01*
X157085480Y-91621004D01*
X157037861Y-91668623D01*
X156990242Y-91692433D01*
X156895004Y-91716242D01*
X156823576Y-91716242D01*
X156728338Y-91692433D01*
X156680719Y-91668623D01*
X156633100Y-91621004D01*
X156609290Y-91549576D01*
X156609290Y-91501957D01*
X156633100Y-91430528D01*
X156656909Y-91406719D01*
X156847385Y-91025766D02*
X156847385Y-91192433D01*
X157109290Y-91192433D02*
X156609290Y-91192433D01*
X156609290Y-90954338D01*
X156633100Y-90501957D02*
X156609290Y-90549576D01*
X156609290Y-90621004D01*
X156633100Y-90692433D01*
X156680719Y-90740052D01*
X156728338Y-90763861D01*
X156823576Y-90787671D01*
X156895004Y-90787671D01*
X156990242Y-90763861D01*
X157037861Y-90740052D01*
X157085480Y-90692433D01*
X157109290Y-90621004D01*
X157109290Y-90573385D01*
X157085480Y-90501957D01*
X157061671Y-90478147D01*
X156895004Y-90478147D01*
X156895004Y-90573385D01*
X156656909Y-90287671D02*
X156633100Y-90263861D01*
X156609290Y-90216242D01*
X156609290Y-90097195D01*
X156633100Y-90049576D01*
X156656909Y-90025766D01*
X156704528Y-90001957D01*
X156752147Y-90001957D01*
X156823576Y-90025766D01*
X157109290Y-90311480D01*
X157109290Y-90001957D01*
X159652471Y-93410719D02*
X159676280Y-93434528D01*
X159700090Y-93505957D01*
X159700090Y-93553576D01*
X159676280Y-93625004D01*
X159628661Y-93672623D01*
X159581042Y-93696433D01*
X159485804Y-93720242D01*
X159414376Y-93720242D01*
X159319138Y-93696433D01*
X159271519Y-93672623D01*
X159223900Y-93625004D01*
X159200090Y-93553576D01*
X159200090Y-93505957D01*
X159223900Y-93434528D01*
X159247709Y-93410719D01*
X159676280Y-93220242D02*
X159700090Y-93148814D01*
X159700090Y-93029766D01*
X159676280Y-92982147D01*
X159652471Y-92958338D01*
X159604852Y-92934528D01*
X159557233Y-92934528D01*
X159509614Y-92958338D01*
X159485804Y-92982147D01*
X159461995Y-93029766D01*
X159438185Y-93125004D01*
X159414376Y-93172623D01*
X159390566Y-93196433D01*
X159342947Y-93220242D01*
X159295328Y-93220242D01*
X159247709Y-93196433D01*
X159223900Y-93172623D01*
X159200090Y-93125004D01*
X159200090Y-93005957D01*
X159223900Y-92934528D01*
X159176280Y-92363100D02*
X159819138Y-92791671D01*
X159652471Y-91910719D02*
X159676280Y-91934528D01*
X159700090Y-92005957D01*
X159700090Y-92053576D01*
X159676280Y-92125004D01*
X159628661Y-92172623D01*
X159581042Y-92196433D01*
X159485804Y-92220242D01*
X159414376Y-92220242D01*
X159319138Y-92196433D01*
X159271519Y-92172623D01*
X159223900Y-92125004D01*
X159200090Y-92053576D01*
X159200090Y-92005957D01*
X159223900Y-91934528D01*
X159247709Y-91910719D01*
X159438185Y-91529766D02*
X159438185Y-91696433D01*
X159700090Y-91696433D02*
X159200090Y-91696433D01*
X159200090Y-91458338D01*
X159223900Y-91005957D02*
X159200090Y-91053576D01*
X159200090Y-91125004D01*
X159223900Y-91196433D01*
X159271519Y-91244052D01*
X159319138Y-91267861D01*
X159414376Y-91291671D01*
X159485804Y-91291671D01*
X159581042Y-91267861D01*
X159628661Y-91244052D01*
X159676280Y-91196433D01*
X159700090Y-91125004D01*
X159700090Y-91077385D01*
X159676280Y-91005957D01*
X159652471Y-90982147D01*
X159485804Y-90982147D01*
X159485804Y-91077385D01*
X159200090Y-90815480D02*
X159200090Y-90505957D01*
X159390566Y-90672623D01*
X159390566Y-90601195D01*
X159414376Y-90553576D01*
X159438185Y-90529766D01*
X159485804Y-90505957D01*
X159604852Y-90505957D01*
X159652471Y-90529766D01*
X159676280Y-90553576D01*
X159700090Y-90601195D01*
X159700090Y-90744052D01*
X159676280Y-90791671D01*
X159652471Y-90815480D01*
X162190880Y-93753547D02*
X162214690Y-93682119D01*
X162214690Y-93563071D01*
X162190880Y-93515452D01*
X162167071Y-93491642D01*
X162119452Y-93467833D01*
X162071833Y-93467833D01*
X162024214Y-93491642D01*
X162000404Y-93515452D01*
X161976595Y-93563071D01*
X161952785Y-93658309D01*
X161928976Y-93705928D01*
X161905166Y-93729738D01*
X161857547Y-93753547D01*
X161809928Y-93753547D01*
X161762309Y-93729738D01*
X161738500Y-93705928D01*
X161714690Y-93658309D01*
X161714690Y-93539261D01*
X161738500Y-93467833D01*
X162214690Y-93253547D02*
X161714690Y-93253547D01*
X161714690Y-93134500D01*
X161738500Y-93063071D01*
X161786119Y-93015452D01*
X161833738Y-92991642D01*
X161928976Y-92967833D01*
X162000404Y-92967833D01*
X162095642Y-92991642D01*
X162143261Y-93015452D01*
X162190880Y-93063071D01*
X162214690Y-93134500D01*
X162214690Y-93253547D01*
X161714690Y-92658309D02*
X161714690Y-92563071D01*
X161738500Y-92515452D01*
X161786119Y-92467833D01*
X161881357Y-92444023D01*
X162048023Y-92444023D01*
X162143261Y-92467833D01*
X162190880Y-92515452D01*
X162214690Y-92563071D01*
X162214690Y-92658309D01*
X162190880Y-92705928D01*
X162143261Y-92753547D01*
X162048023Y-92777357D01*
X161881357Y-92777357D01*
X161786119Y-92753547D01*
X161738500Y-92705928D01*
X161714690Y-92658309D01*
X161690880Y-91872595D02*
X162333738Y-92301166D01*
X162167071Y-91420214D02*
X162190880Y-91444023D01*
X162214690Y-91515452D01*
X162214690Y-91563071D01*
X162190880Y-91634500D01*
X162143261Y-91682119D01*
X162095642Y-91705928D01*
X162000404Y-91729738D01*
X161928976Y-91729738D01*
X161833738Y-91705928D01*
X161786119Y-91682119D01*
X161738500Y-91634500D01*
X161714690Y-91563071D01*
X161714690Y-91515452D01*
X161738500Y-91444023D01*
X161762309Y-91420214D01*
X161952785Y-91039261D02*
X161952785Y-91205928D01*
X162214690Y-91205928D02*
X161714690Y-91205928D01*
X161714690Y-90967833D01*
X161738500Y-90515452D02*
X161714690Y-90563071D01*
X161714690Y-90634500D01*
X161738500Y-90705928D01*
X161786119Y-90753547D01*
X161833738Y-90777357D01*
X161928976Y-90801166D01*
X162000404Y-90801166D01*
X162095642Y-90777357D01*
X162143261Y-90753547D01*
X162190880Y-90705928D01*
X162214690Y-90634500D01*
X162214690Y-90586880D01*
X162190880Y-90515452D01*
X162167071Y-90491642D01*
X162000404Y-90491642D01*
X162000404Y-90586880D01*
X161714690Y-90182119D02*
X161714690Y-90134500D01*
X161738500Y-90086880D01*
X161762309Y-90063071D01*
X161809928Y-90039261D01*
X161905166Y-90015452D01*
X162024214Y-90015452D01*
X162119452Y-90039261D01*
X162167071Y-90063071D01*
X162190880Y-90086880D01*
X162214690Y-90134500D01*
X162214690Y-90182119D01*
X162190880Y-90229738D01*
X162167071Y-90253547D01*
X162119452Y-90277357D01*
X162024214Y-90301166D01*
X161905166Y-90301166D01*
X161809928Y-90277357D01*
X161762309Y-90253547D01*
X161738500Y-90229738D01*
X161714690Y-90182119D01*
D10*
X164853880Y-93630595D02*
X163853880Y-93630595D01*
X163853880Y-93392500D01*
X163901500Y-93249642D01*
X163996738Y-93154404D01*
X164091976Y-93106785D01*
X164282452Y-93059166D01*
X164425309Y-93059166D01*
X164615785Y-93106785D01*
X164711023Y-93154404D01*
X164806261Y-93249642D01*
X164853880Y-93392500D01*
X164853880Y-93630595D01*
X164758642Y-92059166D02*
X164806261Y-92106785D01*
X164853880Y-92249642D01*
X164853880Y-92344880D01*
X164806261Y-92487738D01*
X164711023Y-92582976D01*
X164615785Y-92630595D01*
X164425309Y-92678214D01*
X164282452Y-92678214D01*
X164091976Y-92630595D01*
X163996738Y-92582976D01*
X163901500Y-92487738D01*
X163853880Y-92344880D01*
X163853880Y-92249642D01*
X163901500Y-92106785D01*
X163949119Y-92059166D01*
X163853880Y-91440119D02*
X163853880Y-91344880D01*
X163901500Y-91249642D01*
X163949119Y-91202023D01*
X164044357Y-91154404D01*
X164234833Y-91106785D01*
X164472928Y-91106785D01*
X164663404Y-91154404D01*
X164758642Y-91202023D01*
X164806261Y-91249642D01*
X164853880Y-91344880D01*
X164853880Y-91440119D01*
X164806261Y-91535357D01*
X164758642Y-91582976D01*
X164663404Y-91630595D01*
X164472928Y-91678214D01*
X164234833Y-91678214D01*
X164044357Y-91630595D01*
X163949119Y-91582976D01*
X163901500Y-91535357D01*
X163853880Y-91440119D01*
X167473261Y-93655947D02*
X167520880Y-93513090D01*
X167520880Y-93274995D01*
X167473261Y-93179757D01*
X167425642Y-93132138D01*
X167330404Y-93084519D01*
X167235166Y-93084519D01*
X167139928Y-93132138D01*
X167092309Y-93179757D01*
X167044690Y-93274995D01*
X166997071Y-93465471D01*
X166949452Y-93560709D01*
X166901833Y-93608328D01*
X166806595Y-93655947D01*
X166711357Y-93655947D01*
X166616119Y-93608328D01*
X166568500Y-93560709D01*
X166520880Y-93465471D01*
X166520880Y-93227376D01*
X166568500Y-93084519D01*
X166520880Y-92798804D02*
X166520880Y-92227376D01*
X167520880Y-92513090D02*
X166520880Y-92513090D01*
X166997071Y-91894042D02*
X166997071Y-91560709D01*
X167520880Y-91417852D02*
X167520880Y-91894042D01*
X166520880Y-91894042D01*
X166520880Y-91417852D01*
X167520880Y-90989280D02*
X166520880Y-90989280D01*
X166520880Y-90608328D01*
X166568500Y-90513090D01*
X166616119Y-90465471D01*
X166711357Y-90417852D01*
X166854214Y-90417852D01*
X166949452Y-90465471D01*
X166997071Y-90513090D01*
X167044690Y-90608328D01*
X167044690Y-90989280D01*
X170111680Y-93595700D02*
X169111680Y-93595700D01*
X169111680Y-93357604D01*
X169159300Y-93214747D01*
X169254538Y-93119509D01*
X169349776Y-93071890D01*
X169540252Y-93024271D01*
X169683109Y-93024271D01*
X169873585Y-93071890D01*
X169968823Y-93119509D01*
X170064061Y-93214747D01*
X170111680Y-93357604D01*
X170111680Y-93595700D01*
X170111680Y-92595700D02*
X169111680Y-92595700D01*
X170111680Y-91548080D02*
X169635490Y-91881414D01*
X170111680Y-92119509D02*
X169111680Y-92119509D01*
X169111680Y-91738557D01*
X169159300Y-91643319D01*
X169206919Y-91595700D01*
X169302157Y-91548080D01*
X169445014Y-91548080D01*
X169540252Y-91595700D01*
X169587871Y-91643319D01*
X169635490Y-91738557D01*
X169635490Y-92119509D01*
%TO.C,U2*%
X142263880Y-89344404D02*
X143073404Y-89344404D01*
X143168642Y-89296785D01*
X143216261Y-89249166D01*
X143263880Y-89153928D01*
X143263880Y-88963452D01*
X143216261Y-88868214D01*
X143168642Y-88820595D01*
X143073404Y-88772976D01*
X142263880Y-88772976D01*
X142359119Y-88344404D02*
X142311500Y-88296785D01*
X142263880Y-88201547D01*
X142263880Y-87963452D01*
X142311500Y-87868214D01*
X142359119Y-87820595D01*
X142454357Y-87772976D01*
X142549595Y-87772976D01*
X142692452Y-87820595D01*
X143263880Y-88392023D01*
X143263880Y-87772976D01*
D11*
X132123690Y-89972271D02*
X132623690Y-89805604D01*
X132123690Y-89638938D01*
X132623690Y-89472271D02*
X132290357Y-89472271D01*
X132385595Y-89472271D02*
X132337976Y-89448461D01*
X132314166Y-89424652D01*
X132290357Y-89377033D01*
X132290357Y-89329414D01*
X132599880Y-88972271D02*
X132623690Y-89019890D01*
X132623690Y-89115128D01*
X132599880Y-89162747D01*
X132552261Y-89186557D01*
X132361785Y-89186557D01*
X132314166Y-89162747D01*
X132290357Y-89115128D01*
X132290357Y-89019890D01*
X132314166Y-88972271D01*
X132361785Y-88948461D01*
X132409404Y-88948461D01*
X132457023Y-89186557D01*
X132290357Y-88805604D02*
X132290357Y-88615128D01*
X132623690Y-88734176D02*
X132195119Y-88734176D01*
X132147500Y-88710366D01*
X132123690Y-88662747D01*
X132123690Y-88615128D01*
X130718690Y-88557776D02*
X130218690Y-88557776D01*
X130218690Y-88438728D01*
X130242500Y-88367300D01*
X130290119Y-88319680D01*
X130337738Y-88295871D01*
X130432976Y-88272061D01*
X130504404Y-88272061D01*
X130599642Y-88295871D01*
X130647261Y-88319680D01*
X130694880Y-88367300D01*
X130718690Y-88438728D01*
X130718690Y-88557776D01*
X130718690Y-88057776D02*
X130385357Y-88057776D01*
X130218690Y-88057776D02*
X130242500Y-88081585D01*
X130266309Y-88057776D01*
X130242500Y-88033966D01*
X130218690Y-88057776D01*
X130266309Y-88057776D01*
X130718690Y-87605395D02*
X130456785Y-87605395D01*
X130409166Y-87629204D01*
X130385357Y-87676823D01*
X130385357Y-87772061D01*
X130409166Y-87819680D01*
X130694880Y-87605395D02*
X130718690Y-87653014D01*
X130718690Y-87772061D01*
X130694880Y-87819680D01*
X130647261Y-87843490D01*
X130599642Y-87843490D01*
X130552023Y-87819680D01*
X130528214Y-87772061D01*
X130528214Y-87653014D01*
X130504404Y-87605395D01*
X130385357Y-87153014D02*
X130790119Y-87153014D01*
X130837738Y-87176823D01*
X130861547Y-87200633D01*
X130885357Y-87248252D01*
X130885357Y-87319680D01*
X130861547Y-87367300D01*
X130694880Y-87153014D02*
X130718690Y-87200633D01*
X130718690Y-87295871D01*
X130694880Y-87343490D01*
X130671071Y-87367300D01*
X130623452Y-87391109D01*
X130480595Y-87391109D01*
X130432976Y-87367300D01*
X130409166Y-87343490D01*
X130385357Y-87295871D01*
X130385357Y-87200633D01*
X130409166Y-87153014D01*
X130718690Y-86653014D02*
X130718690Y-86938728D01*
X130718690Y-86795871D02*
X130218690Y-86795871D01*
X130290119Y-86843490D01*
X130337738Y-86891109D01*
X130361547Y-86938728D01*
X131988690Y-94018776D02*
X131488690Y-94018776D01*
X131488690Y-93899728D01*
X131512500Y-93828300D01*
X131560119Y-93780680D01*
X131607738Y-93756871D01*
X131702976Y-93733061D01*
X131774404Y-93733061D01*
X131869642Y-93756871D01*
X131917261Y-93780680D01*
X131964880Y-93828300D01*
X131988690Y-93899728D01*
X131988690Y-94018776D01*
X131988690Y-93518776D02*
X131655357Y-93518776D01*
X131488690Y-93518776D02*
X131512500Y-93542585D01*
X131536309Y-93518776D01*
X131512500Y-93494966D01*
X131488690Y-93518776D01*
X131536309Y-93518776D01*
X131988690Y-93066395D02*
X131726785Y-93066395D01*
X131679166Y-93090204D01*
X131655357Y-93137823D01*
X131655357Y-93233061D01*
X131679166Y-93280680D01*
X131964880Y-93066395D02*
X131988690Y-93114014D01*
X131988690Y-93233061D01*
X131964880Y-93280680D01*
X131917261Y-93304490D01*
X131869642Y-93304490D01*
X131822023Y-93280680D01*
X131798214Y-93233061D01*
X131798214Y-93114014D01*
X131774404Y-93066395D01*
X131655357Y-92614014D02*
X132060119Y-92614014D01*
X132107738Y-92637823D01*
X132131547Y-92661633D01*
X132155357Y-92709252D01*
X132155357Y-92780680D01*
X132131547Y-92828300D01*
X131964880Y-92614014D02*
X131988690Y-92661633D01*
X131988690Y-92756871D01*
X131964880Y-92804490D01*
X131941071Y-92828300D01*
X131893452Y-92852109D01*
X131750595Y-92852109D01*
X131702976Y-92828300D01*
X131679166Y-92804490D01*
X131655357Y-92756871D01*
X131655357Y-92661633D01*
X131679166Y-92614014D01*
X131488690Y-92280680D02*
X131488690Y-92233061D01*
X131512500Y-92185442D01*
X131536309Y-92161633D01*
X131583928Y-92137823D01*
X131679166Y-92114014D01*
X131798214Y-92114014D01*
X131893452Y-92137823D01*
X131941071Y-92161633D01*
X131964880Y-92185442D01*
X131988690Y-92233061D01*
X131988690Y-92280680D01*
X131964880Y-92328300D01*
X131941071Y-92352109D01*
X131893452Y-92375919D01*
X131798214Y-92399728D01*
X131679166Y-92399728D01*
X131583928Y-92375919D01*
X131536309Y-92352109D01*
X131512500Y-92328300D01*
X131488690Y-92280680D01*
D10*
X147823300Y-85153404D02*
X147775680Y-85248642D01*
X147775680Y-85391500D01*
X147823300Y-85534357D01*
X147918538Y-85629595D01*
X148013776Y-85677214D01*
X148204252Y-85724833D01*
X148347109Y-85724833D01*
X148537585Y-85677214D01*
X148632823Y-85629595D01*
X148728061Y-85534357D01*
X148775680Y-85391500D01*
X148775680Y-85296261D01*
X148728061Y-85153404D01*
X148680442Y-85105785D01*
X148347109Y-85105785D01*
X148347109Y-85296261D01*
X148775680Y-84677214D02*
X147775680Y-84677214D01*
X148775680Y-84105785D01*
X147775680Y-84105785D01*
X148775680Y-83629595D02*
X147775680Y-83629595D01*
X147775680Y-83391500D01*
X147823300Y-83248642D01*
X147918538Y-83153404D01*
X148013776Y-83105785D01*
X148204252Y-83058166D01*
X148347109Y-83058166D01*
X148537585Y-83105785D01*
X148632823Y-83153404D01*
X148728061Y-83248642D01*
X148775680Y-83391500D01*
X148775680Y-83629595D01*
X145159480Y-85648633D02*
X146159480Y-85315300D01*
X145159480Y-84981966D01*
X146159480Y-84648633D02*
X145159480Y-84648633D01*
X145159480Y-84410538D01*
X145207100Y-84267680D01*
X145302338Y-84172442D01*
X145397576Y-84124823D01*
X145588052Y-84077204D01*
X145730909Y-84077204D01*
X145921385Y-84124823D01*
X146016623Y-84172442D01*
X146111861Y-84267680D01*
X146159480Y-84410538D01*
X146159480Y-84648633D01*
X146159480Y-83648633D02*
X145159480Y-83648633D01*
X145159480Y-83410538D01*
X145207100Y-83267680D01*
X145302338Y-83172442D01*
X145397576Y-83124823D01*
X145588052Y-83077204D01*
X145730909Y-83077204D01*
X145921385Y-83124823D01*
X146016623Y-83172442D01*
X146111861Y-83267680D01*
X146159480Y-83410538D01*
X146159480Y-83648633D01*
X143771880Y-83996185D02*
X143771880Y-84567614D01*
X143771880Y-84281900D02*
X142771880Y-84281900D01*
X142914738Y-84377138D01*
X143009976Y-84472376D01*
X143057595Y-84567614D01*
X143248071Y-83234280D02*
X143295690Y-83091423D01*
X143343309Y-83043804D01*
X143438547Y-82996185D01*
X143581404Y-82996185D01*
X143676642Y-83043804D01*
X143724261Y-83091423D01*
X143771880Y-83186661D01*
X143771880Y-83567614D01*
X142771880Y-83567614D01*
X142771880Y-83234280D01*
X142819500Y-83139042D01*
X142867119Y-83091423D01*
X142962357Y-83043804D01*
X143057595Y-83043804D01*
X143152833Y-83091423D01*
X143200452Y-83139042D01*
X143248071Y-83234280D01*
X143248071Y-83567614D01*
X140869966Y-84419985D02*
X140869966Y-83943795D01*
X141155680Y-84515223D02*
X140155680Y-84181890D01*
X141155680Y-83848557D01*
X141155680Y-82991414D02*
X141155680Y-83562842D01*
X141155680Y-83277128D02*
X140155680Y-83277128D01*
X140298538Y-83372366D01*
X140393776Y-83467604D01*
X140441395Y-83562842D01*
X138066471Y-84186661D02*
X138114090Y-84043804D01*
X138161709Y-83996185D01*
X138256947Y-83948566D01*
X138399804Y-83948566D01*
X138495042Y-83996185D01*
X138542661Y-84043804D01*
X138590280Y-84139042D01*
X138590280Y-84519995D01*
X137590280Y-84519995D01*
X137590280Y-84186661D01*
X137637900Y-84091423D01*
X137685519Y-84043804D01*
X137780757Y-83996185D01*
X137875995Y-83996185D01*
X137971233Y-84043804D01*
X138018852Y-84091423D01*
X138066471Y-84186661D01*
X138066471Y-84519995D01*
X138590280Y-82996185D02*
X138590280Y-83567614D01*
X138590280Y-83281900D02*
X137590280Y-83281900D01*
X137733138Y-83377138D01*
X137828376Y-83472376D01*
X137875995Y-83567614D01*
X135526471Y-84186661D02*
X135574090Y-84043804D01*
X135621709Y-83996185D01*
X135716947Y-83948566D01*
X135859804Y-83948566D01*
X135955042Y-83996185D01*
X136002661Y-84043804D01*
X136050280Y-84139042D01*
X136050280Y-84519995D01*
X135050280Y-84519995D01*
X135050280Y-84186661D01*
X135097900Y-84091423D01*
X135145519Y-84043804D01*
X135240757Y-83996185D01*
X135335995Y-83996185D01*
X135431233Y-84043804D01*
X135478852Y-84091423D01*
X135526471Y-84186661D01*
X135526471Y-84519995D01*
X135145519Y-83567614D02*
X135097900Y-83519995D01*
X135050280Y-83424757D01*
X135050280Y-83186661D01*
X135097900Y-83091423D01*
X135145519Y-83043804D01*
X135240757Y-82996185D01*
X135335995Y-82996185D01*
X135478852Y-83043804D01*
X136050280Y-83615233D01*
X136050280Y-82996185D01*
D11*
X132807900Y-84086652D02*
X132784090Y-84134271D01*
X132784090Y-84205700D01*
X132807900Y-84277128D01*
X132855519Y-84324747D01*
X132903138Y-84348557D01*
X132998376Y-84372366D01*
X133069804Y-84372366D01*
X133165042Y-84348557D01*
X133212661Y-84324747D01*
X133260280Y-84277128D01*
X133284090Y-84205700D01*
X133284090Y-84158080D01*
X133260280Y-84086652D01*
X133236471Y-84062842D01*
X133069804Y-84062842D01*
X133069804Y-84158080D01*
X133284090Y-83848557D02*
X132784090Y-83848557D01*
X133284090Y-83562842D01*
X132784090Y-83562842D01*
X133284090Y-83324747D02*
X132784090Y-83324747D01*
X132784090Y-83205700D01*
X132807900Y-83134271D01*
X132855519Y-83086652D01*
X132903138Y-83062842D01*
X132998376Y-83039033D01*
X133069804Y-83039033D01*
X133165042Y-83062842D01*
X133212661Y-83086652D01*
X133260280Y-83134271D01*
X133284090Y-83205700D01*
X133284090Y-83324747D01*
X130244090Y-84141404D02*
X130744090Y-83974738D01*
X130244090Y-83808071D01*
X130744090Y-83641404D02*
X130410757Y-83641404D01*
X130244090Y-83641404D02*
X130267900Y-83665214D01*
X130291709Y-83641404D01*
X130267900Y-83617595D01*
X130244090Y-83641404D01*
X130291709Y-83641404D01*
X130410757Y-83403309D02*
X130744090Y-83403309D01*
X130458376Y-83403309D02*
X130434566Y-83379500D01*
X130410757Y-83331880D01*
X130410757Y-83260452D01*
X130434566Y-83212833D01*
X130482185Y-83189023D01*
X130744090Y-83189023D01*
X129367500Y-93947395D02*
X129367500Y-93495014D01*
X129821785Y-93828347D02*
X129821785Y-93661680D01*
X130083690Y-93590252D02*
X130083690Y-93828347D01*
X129583690Y-93828347D01*
X129583690Y-93590252D01*
X129367500Y-93495014D02*
X129367500Y-92971204D01*
X130083690Y-93375966D02*
X129583690Y-93375966D01*
X130083690Y-93090252D01*
X129583690Y-93090252D01*
X133336480Y-93737690D02*
X133360290Y-93666261D01*
X133360290Y-93547214D01*
X133336480Y-93499595D01*
X133312671Y-93475785D01*
X133265052Y-93451976D01*
X133217433Y-93451976D01*
X133169814Y-93475785D01*
X133146004Y-93499595D01*
X133122195Y-93547214D01*
X133098385Y-93642452D01*
X133074576Y-93690071D01*
X133050766Y-93713880D01*
X133003147Y-93737690D01*
X132955528Y-93737690D01*
X132907909Y-93713880D01*
X132884100Y-93690071D01*
X132860290Y-93642452D01*
X132860290Y-93523404D01*
X132884100Y-93451976D01*
X133360290Y-93237690D02*
X132860290Y-93237690D01*
X132860290Y-93118642D01*
X132884100Y-93047214D01*
X132931719Y-92999595D01*
X132979338Y-92975785D01*
X133074576Y-92951976D01*
X133146004Y-92951976D01*
X133241242Y-92975785D01*
X133288861Y-92999595D01*
X133336480Y-93047214D01*
X133360290Y-93118642D01*
X133360290Y-93237690D01*
X133360290Y-92737690D02*
X132860290Y-92737690D01*
X132836480Y-92142452D02*
X133479338Y-92571023D01*
X133312671Y-91690071D02*
X133336480Y-91713880D01*
X133360290Y-91785309D01*
X133360290Y-91832928D01*
X133336480Y-91904357D01*
X133288861Y-91951976D01*
X133241242Y-91975785D01*
X133146004Y-91999595D01*
X133074576Y-91999595D01*
X132979338Y-91975785D01*
X132931719Y-91951976D01*
X132884100Y-91904357D01*
X132860290Y-91832928D01*
X132860290Y-91785309D01*
X132884100Y-91713880D01*
X132907909Y-91690071D01*
X133098385Y-91309119D02*
X133098385Y-91475785D01*
X133360290Y-91475785D02*
X132860290Y-91475785D01*
X132860290Y-91237690D01*
X132884100Y-90785309D02*
X132860290Y-90832928D01*
X132860290Y-90904357D01*
X132884100Y-90975785D01*
X132931719Y-91023404D01*
X132979338Y-91047214D01*
X133074576Y-91071023D01*
X133146004Y-91071023D01*
X133241242Y-91047214D01*
X133288861Y-91023404D01*
X133336480Y-90975785D01*
X133360290Y-90904357D01*
X133360290Y-90856738D01*
X133336480Y-90785309D01*
X133312671Y-90761500D01*
X133146004Y-90761500D01*
X133146004Y-90856738D01*
X133360290Y-90285309D02*
X133360290Y-90571023D01*
X133360290Y-90428166D02*
X132860290Y-90428166D01*
X132931719Y-90475785D01*
X132979338Y-90523404D01*
X133003147Y-90571023D01*
X135749480Y-93716242D02*
X135773290Y-93644814D01*
X135773290Y-93525766D01*
X135749480Y-93478147D01*
X135725671Y-93454338D01*
X135678052Y-93430528D01*
X135630433Y-93430528D01*
X135582814Y-93454338D01*
X135559004Y-93478147D01*
X135535195Y-93525766D01*
X135511385Y-93621004D01*
X135487576Y-93668623D01*
X135463766Y-93692433D01*
X135416147Y-93716242D01*
X135368528Y-93716242D01*
X135320909Y-93692433D01*
X135297100Y-93668623D01*
X135273290Y-93621004D01*
X135273290Y-93501957D01*
X135297100Y-93430528D01*
X135725671Y-92930528D02*
X135749480Y-92954338D01*
X135773290Y-93025766D01*
X135773290Y-93073385D01*
X135749480Y-93144814D01*
X135701861Y-93192433D01*
X135654242Y-93216242D01*
X135559004Y-93240052D01*
X135487576Y-93240052D01*
X135392338Y-93216242D01*
X135344719Y-93192433D01*
X135297100Y-93144814D01*
X135273290Y-93073385D01*
X135273290Y-93025766D01*
X135297100Y-92954338D01*
X135320909Y-92930528D01*
X135773290Y-92716242D02*
X135273290Y-92716242D01*
X135773290Y-92430528D02*
X135487576Y-92644814D01*
X135273290Y-92430528D02*
X135559004Y-92716242D01*
X135249480Y-91859100D02*
X135892338Y-92287671D01*
X135725671Y-91406719D02*
X135749480Y-91430528D01*
X135773290Y-91501957D01*
X135773290Y-91549576D01*
X135749480Y-91621004D01*
X135701861Y-91668623D01*
X135654242Y-91692433D01*
X135559004Y-91716242D01*
X135487576Y-91716242D01*
X135392338Y-91692433D01*
X135344719Y-91668623D01*
X135297100Y-91621004D01*
X135273290Y-91549576D01*
X135273290Y-91501957D01*
X135297100Y-91430528D01*
X135320909Y-91406719D01*
X135511385Y-91025766D02*
X135511385Y-91192433D01*
X135773290Y-91192433D02*
X135273290Y-91192433D01*
X135273290Y-90954338D01*
X135297100Y-90501957D02*
X135273290Y-90549576D01*
X135273290Y-90621004D01*
X135297100Y-90692433D01*
X135344719Y-90740052D01*
X135392338Y-90763861D01*
X135487576Y-90787671D01*
X135559004Y-90787671D01*
X135654242Y-90763861D01*
X135701861Y-90740052D01*
X135749480Y-90692433D01*
X135773290Y-90621004D01*
X135773290Y-90573385D01*
X135749480Y-90501957D01*
X135725671Y-90478147D01*
X135559004Y-90478147D01*
X135559004Y-90573385D01*
X135320909Y-90287671D02*
X135297100Y-90263861D01*
X135273290Y-90216242D01*
X135273290Y-90097195D01*
X135297100Y-90049576D01*
X135320909Y-90025766D01*
X135368528Y-90001957D01*
X135416147Y-90001957D01*
X135487576Y-90025766D01*
X135773290Y-90311480D01*
X135773290Y-90001957D01*
X138316471Y-93410719D02*
X138340280Y-93434528D01*
X138364090Y-93505957D01*
X138364090Y-93553576D01*
X138340280Y-93625004D01*
X138292661Y-93672623D01*
X138245042Y-93696433D01*
X138149804Y-93720242D01*
X138078376Y-93720242D01*
X137983138Y-93696433D01*
X137935519Y-93672623D01*
X137887900Y-93625004D01*
X137864090Y-93553576D01*
X137864090Y-93505957D01*
X137887900Y-93434528D01*
X137911709Y-93410719D01*
X138340280Y-93220242D02*
X138364090Y-93148814D01*
X138364090Y-93029766D01*
X138340280Y-92982147D01*
X138316471Y-92958338D01*
X138268852Y-92934528D01*
X138221233Y-92934528D01*
X138173614Y-92958338D01*
X138149804Y-92982147D01*
X138125995Y-93029766D01*
X138102185Y-93125004D01*
X138078376Y-93172623D01*
X138054566Y-93196433D01*
X138006947Y-93220242D01*
X137959328Y-93220242D01*
X137911709Y-93196433D01*
X137887900Y-93172623D01*
X137864090Y-93125004D01*
X137864090Y-93005957D01*
X137887900Y-92934528D01*
X137840280Y-92363100D02*
X138483138Y-92791671D01*
X138316471Y-91910719D02*
X138340280Y-91934528D01*
X138364090Y-92005957D01*
X138364090Y-92053576D01*
X138340280Y-92125004D01*
X138292661Y-92172623D01*
X138245042Y-92196433D01*
X138149804Y-92220242D01*
X138078376Y-92220242D01*
X137983138Y-92196433D01*
X137935519Y-92172623D01*
X137887900Y-92125004D01*
X137864090Y-92053576D01*
X137864090Y-92005957D01*
X137887900Y-91934528D01*
X137911709Y-91910719D01*
X138102185Y-91529766D02*
X138102185Y-91696433D01*
X138364090Y-91696433D02*
X137864090Y-91696433D01*
X137864090Y-91458338D01*
X137887900Y-91005957D02*
X137864090Y-91053576D01*
X137864090Y-91125004D01*
X137887900Y-91196433D01*
X137935519Y-91244052D01*
X137983138Y-91267861D01*
X138078376Y-91291671D01*
X138149804Y-91291671D01*
X138245042Y-91267861D01*
X138292661Y-91244052D01*
X138340280Y-91196433D01*
X138364090Y-91125004D01*
X138364090Y-91077385D01*
X138340280Y-91005957D01*
X138316471Y-90982147D01*
X138149804Y-90982147D01*
X138149804Y-91077385D01*
X137864090Y-90815480D02*
X137864090Y-90505957D01*
X138054566Y-90672623D01*
X138054566Y-90601195D01*
X138078376Y-90553576D01*
X138102185Y-90529766D01*
X138149804Y-90505957D01*
X138268852Y-90505957D01*
X138316471Y-90529766D01*
X138340280Y-90553576D01*
X138364090Y-90601195D01*
X138364090Y-90744052D01*
X138340280Y-90791671D01*
X138316471Y-90815480D01*
X140854880Y-93753547D02*
X140878690Y-93682119D01*
X140878690Y-93563071D01*
X140854880Y-93515452D01*
X140831071Y-93491642D01*
X140783452Y-93467833D01*
X140735833Y-93467833D01*
X140688214Y-93491642D01*
X140664404Y-93515452D01*
X140640595Y-93563071D01*
X140616785Y-93658309D01*
X140592976Y-93705928D01*
X140569166Y-93729738D01*
X140521547Y-93753547D01*
X140473928Y-93753547D01*
X140426309Y-93729738D01*
X140402500Y-93705928D01*
X140378690Y-93658309D01*
X140378690Y-93539261D01*
X140402500Y-93467833D01*
X140878690Y-93253547D02*
X140378690Y-93253547D01*
X140378690Y-93134500D01*
X140402500Y-93063071D01*
X140450119Y-93015452D01*
X140497738Y-92991642D01*
X140592976Y-92967833D01*
X140664404Y-92967833D01*
X140759642Y-92991642D01*
X140807261Y-93015452D01*
X140854880Y-93063071D01*
X140878690Y-93134500D01*
X140878690Y-93253547D01*
X140378690Y-92658309D02*
X140378690Y-92563071D01*
X140402500Y-92515452D01*
X140450119Y-92467833D01*
X140545357Y-92444023D01*
X140712023Y-92444023D01*
X140807261Y-92467833D01*
X140854880Y-92515452D01*
X140878690Y-92563071D01*
X140878690Y-92658309D01*
X140854880Y-92705928D01*
X140807261Y-92753547D01*
X140712023Y-92777357D01*
X140545357Y-92777357D01*
X140450119Y-92753547D01*
X140402500Y-92705928D01*
X140378690Y-92658309D01*
X140354880Y-91872595D02*
X140997738Y-92301166D01*
X140831071Y-91420214D02*
X140854880Y-91444023D01*
X140878690Y-91515452D01*
X140878690Y-91563071D01*
X140854880Y-91634500D01*
X140807261Y-91682119D01*
X140759642Y-91705928D01*
X140664404Y-91729738D01*
X140592976Y-91729738D01*
X140497738Y-91705928D01*
X140450119Y-91682119D01*
X140402500Y-91634500D01*
X140378690Y-91563071D01*
X140378690Y-91515452D01*
X140402500Y-91444023D01*
X140426309Y-91420214D01*
X140616785Y-91039261D02*
X140616785Y-91205928D01*
X140878690Y-91205928D02*
X140378690Y-91205928D01*
X140378690Y-90967833D01*
X140402500Y-90515452D02*
X140378690Y-90563071D01*
X140378690Y-90634500D01*
X140402500Y-90705928D01*
X140450119Y-90753547D01*
X140497738Y-90777357D01*
X140592976Y-90801166D01*
X140664404Y-90801166D01*
X140759642Y-90777357D01*
X140807261Y-90753547D01*
X140854880Y-90705928D01*
X140878690Y-90634500D01*
X140878690Y-90586880D01*
X140854880Y-90515452D01*
X140831071Y-90491642D01*
X140664404Y-90491642D01*
X140664404Y-90586880D01*
X140378690Y-90182119D02*
X140378690Y-90134500D01*
X140402500Y-90086880D01*
X140426309Y-90063071D01*
X140473928Y-90039261D01*
X140569166Y-90015452D01*
X140688214Y-90015452D01*
X140783452Y-90039261D01*
X140831071Y-90063071D01*
X140854880Y-90086880D01*
X140878690Y-90134500D01*
X140878690Y-90182119D01*
X140854880Y-90229738D01*
X140831071Y-90253547D01*
X140783452Y-90277357D01*
X140688214Y-90301166D01*
X140569166Y-90301166D01*
X140473928Y-90277357D01*
X140426309Y-90253547D01*
X140402500Y-90229738D01*
X140378690Y-90182119D01*
D10*
X143517880Y-93630595D02*
X142517880Y-93630595D01*
X142517880Y-93392500D01*
X142565500Y-93249642D01*
X142660738Y-93154404D01*
X142755976Y-93106785D01*
X142946452Y-93059166D01*
X143089309Y-93059166D01*
X143279785Y-93106785D01*
X143375023Y-93154404D01*
X143470261Y-93249642D01*
X143517880Y-93392500D01*
X143517880Y-93630595D01*
X143422642Y-92059166D02*
X143470261Y-92106785D01*
X143517880Y-92249642D01*
X143517880Y-92344880D01*
X143470261Y-92487738D01*
X143375023Y-92582976D01*
X143279785Y-92630595D01*
X143089309Y-92678214D01*
X142946452Y-92678214D01*
X142755976Y-92630595D01*
X142660738Y-92582976D01*
X142565500Y-92487738D01*
X142517880Y-92344880D01*
X142517880Y-92249642D01*
X142565500Y-92106785D01*
X142613119Y-92059166D01*
X142517880Y-91440119D02*
X142517880Y-91344880D01*
X142565500Y-91249642D01*
X142613119Y-91202023D01*
X142708357Y-91154404D01*
X142898833Y-91106785D01*
X143136928Y-91106785D01*
X143327404Y-91154404D01*
X143422642Y-91202023D01*
X143470261Y-91249642D01*
X143517880Y-91344880D01*
X143517880Y-91440119D01*
X143470261Y-91535357D01*
X143422642Y-91582976D01*
X143327404Y-91630595D01*
X143136928Y-91678214D01*
X142898833Y-91678214D01*
X142708357Y-91630595D01*
X142613119Y-91582976D01*
X142565500Y-91535357D01*
X142517880Y-91440119D01*
X146137261Y-93655947D02*
X146184880Y-93513090D01*
X146184880Y-93274995D01*
X146137261Y-93179757D01*
X146089642Y-93132138D01*
X145994404Y-93084519D01*
X145899166Y-93084519D01*
X145803928Y-93132138D01*
X145756309Y-93179757D01*
X145708690Y-93274995D01*
X145661071Y-93465471D01*
X145613452Y-93560709D01*
X145565833Y-93608328D01*
X145470595Y-93655947D01*
X145375357Y-93655947D01*
X145280119Y-93608328D01*
X145232500Y-93560709D01*
X145184880Y-93465471D01*
X145184880Y-93227376D01*
X145232500Y-93084519D01*
X145184880Y-92798804D02*
X145184880Y-92227376D01*
X146184880Y-92513090D02*
X145184880Y-92513090D01*
X145661071Y-91894042D02*
X145661071Y-91560709D01*
X146184880Y-91417852D02*
X146184880Y-91894042D01*
X145184880Y-91894042D01*
X145184880Y-91417852D01*
X146184880Y-90989280D02*
X145184880Y-90989280D01*
X145184880Y-90608328D01*
X145232500Y-90513090D01*
X145280119Y-90465471D01*
X145375357Y-90417852D01*
X145518214Y-90417852D01*
X145613452Y-90465471D01*
X145661071Y-90513090D01*
X145708690Y-90608328D01*
X145708690Y-90989280D01*
X148775680Y-93595700D02*
X147775680Y-93595700D01*
X147775680Y-93357604D01*
X147823300Y-93214747D01*
X147918538Y-93119509D01*
X148013776Y-93071890D01*
X148204252Y-93024271D01*
X148347109Y-93024271D01*
X148537585Y-93071890D01*
X148632823Y-93119509D01*
X148728061Y-93214747D01*
X148775680Y-93357604D01*
X148775680Y-93595700D01*
X148775680Y-92595700D02*
X147775680Y-92595700D01*
X148775680Y-91548080D02*
X148299490Y-91881414D01*
X148775680Y-92119509D02*
X147775680Y-92119509D01*
X147775680Y-91738557D01*
X147823300Y-91643319D01*
X147870919Y-91595700D01*
X147966157Y-91548080D01*
X148109014Y-91548080D01*
X148204252Y-91595700D01*
X148251871Y-91643319D01*
X148299490Y-91738557D01*
X148299490Y-92119509D01*
%TO.C,U1*%
X192087595Y-71143880D02*
X192087595Y-71953404D01*
X192135214Y-72048642D01*
X192182833Y-72096261D01*
X192278071Y-72143880D01*
X192468547Y-72143880D01*
X192563785Y-72096261D01*
X192611404Y-72048642D01*
X192659023Y-71953404D01*
X192659023Y-71143880D01*
X193659023Y-72143880D02*
X193087595Y-72143880D01*
X193373309Y-72143880D02*
X193373309Y-71143880D01*
X193278071Y-71286738D01*
X193182833Y-71381976D01*
X193087595Y-71429595D01*
X188801976Y-99560071D02*
X189135309Y-99560071D01*
X189278166Y-100083880D02*
X188801976Y-100083880D01*
X188801976Y-99083880D01*
X189278166Y-99083880D01*
X189659119Y-100036261D02*
X189801976Y-100083880D01*
X190040071Y-100083880D01*
X190135309Y-100036261D01*
X190182928Y-99988642D01*
X190230547Y-99893404D01*
X190230547Y-99798166D01*
X190182928Y-99702928D01*
X190135309Y-99655309D01*
X190040071Y-99607690D01*
X189849595Y-99560071D01*
X189754357Y-99512452D01*
X189706738Y-99464833D01*
X189659119Y-99369595D01*
X189659119Y-99274357D01*
X189706738Y-99179119D01*
X189754357Y-99131500D01*
X189849595Y-99083880D01*
X190087690Y-99083880D01*
X190230547Y-99131500D01*
X190659119Y-100083880D02*
X190659119Y-99083880D01*
X191040071Y-99083880D01*
X191135309Y-99131500D01*
X191182928Y-99179119D01*
X191230547Y-99274357D01*
X191230547Y-99417214D01*
X191182928Y-99512452D01*
X191135309Y-99560071D01*
X191040071Y-99607690D01*
X190659119Y-99607690D01*
X191659119Y-99702928D02*
X192421023Y-99702928D01*
X192897214Y-100083880D02*
X192897214Y-99083880D01*
X193135309Y-99083880D01*
X193278166Y-99131500D01*
X193373404Y-99226738D01*
X193421023Y-99321976D01*
X193468642Y-99512452D01*
X193468642Y-99655309D01*
X193421023Y-99845785D01*
X193373404Y-99941023D01*
X193278166Y-100036261D01*
X193135309Y-100083880D01*
X192897214Y-100083880D01*
X193897214Y-99560071D02*
X194230547Y-99560071D01*
X194373404Y-100083880D02*
X193897214Y-100083880D01*
X193897214Y-99083880D01*
X194373404Y-99083880D01*
X194659119Y-99083880D02*
X194992452Y-100083880D01*
X195325785Y-99083880D01*
X195659119Y-100083880D02*
X195659119Y-99083880D01*
X196230547Y-100083880D02*
X195801976Y-99512452D01*
X196230547Y-99083880D02*
X195659119Y-99655309D01*
X196659119Y-100083880D02*
X196659119Y-99083880D01*
X196992452Y-99083880D02*
X197563880Y-99083880D01*
X197278166Y-100083880D02*
X197278166Y-99083880D01*
X198468642Y-99988642D02*
X198421023Y-100036261D01*
X198278166Y-100083880D01*
X198182928Y-100083880D01*
X198040071Y-100036261D01*
X197944833Y-99941023D01*
X197897214Y-99845785D01*
X197849595Y-99655309D01*
X197849595Y-99512452D01*
X197897214Y-99321976D01*
X197944833Y-99226738D01*
X198040071Y-99131500D01*
X198182928Y-99083880D01*
X198278166Y-99083880D01*
X198421023Y-99131500D01*
X198468642Y-99179119D01*
X181118023Y-71397880D02*
X181737071Y-71397880D01*
X181403738Y-71778833D01*
X181546595Y-71778833D01*
X181641833Y-71826452D01*
X181689452Y-71874071D01*
X181737071Y-71969309D01*
X181737071Y-72207404D01*
X181689452Y-72302642D01*
X181641833Y-72350261D01*
X181546595Y-72397880D01*
X181260880Y-72397880D01*
X181165642Y-72350261D01*
X181118023Y-72302642D01*
X182070404Y-71731214D02*
X182308500Y-72397880D01*
X182546595Y-71731214D01*
X182832309Y-71397880D02*
X183451357Y-71397880D01*
X183118023Y-71778833D01*
X183260880Y-71778833D01*
X183356119Y-71826452D01*
X183403738Y-71874071D01*
X183451357Y-71969309D01*
X183451357Y-72207404D01*
X183403738Y-72302642D01*
X183356119Y-72350261D01*
X183260880Y-72397880D01*
X182975166Y-72397880D01*
X182879928Y-72350261D01*
X182832309Y-72302642D01*
X181610023Y-117117880D02*
X181133833Y-117117880D01*
X181086214Y-117594071D01*
X181133833Y-117546452D01*
X181229071Y-117498833D01*
X181467166Y-117498833D01*
X181562404Y-117546452D01*
X181610023Y-117594071D01*
X181657642Y-117689309D01*
X181657642Y-117927404D01*
X181610023Y-118022642D01*
X181562404Y-118070261D01*
X181467166Y-118117880D01*
X181229071Y-118117880D01*
X181133833Y-118070261D01*
X181086214Y-118022642D01*
X181943357Y-117117880D02*
X182276690Y-118117880D01*
X182610023Y-117117880D01*
%TO.C,C1*%
X128674833Y-97702642D02*
X128627214Y-97750261D01*
X128484357Y-97797880D01*
X128389119Y-97797880D01*
X128246261Y-97750261D01*
X128151023Y-97655023D01*
X128103404Y-97559785D01*
X128055785Y-97369309D01*
X128055785Y-97226452D01*
X128103404Y-97035976D01*
X128151023Y-96940738D01*
X128246261Y-96845500D01*
X128389119Y-96797880D01*
X128484357Y-96797880D01*
X128627214Y-96845500D01*
X128674833Y-96893119D01*
X129627214Y-97797880D02*
X129055785Y-97797880D01*
X129341500Y-97797880D02*
X129341500Y-96797880D01*
X129246261Y-96940738D01*
X129151023Y-97035976D01*
X129055785Y-97083595D01*
%TO.C,C2*%
X145565833Y-102401642D02*
X145518214Y-102449261D01*
X145375357Y-102496880D01*
X145280119Y-102496880D01*
X145137261Y-102449261D01*
X145042023Y-102354023D01*
X144994404Y-102258785D01*
X144946785Y-102068309D01*
X144946785Y-101925452D01*
X144994404Y-101734976D01*
X145042023Y-101639738D01*
X145137261Y-101544500D01*
X145280119Y-101496880D01*
X145375357Y-101496880D01*
X145518214Y-101544500D01*
X145565833Y-101592119D01*
X145946785Y-101592119D02*
X145994404Y-101544500D01*
X146089642Y-101496880D01*
X146327738Y-101496880D01*
X146422976Y-101544500D01*
X146470595Y-101592119D01*
X146518214Y-101687357D01*
X146518214Y-101782595D01*
X146470595Y-101925452D01*
X145899166Y-102496880D01*
X146518214Y-102496880D01*
%TO.C,C3*%
X152995333Y-99447642D02*
X152947714Y-99495261D01*
X152804857Y-99542880D01*
X152709619Y-99542880D01*
X152566761Y-99495261D01*
X152471523Y-99400023D01*
X152423904Y-99304785D01*
X152376285Y-99114309D01*
X152376285Y-98971452D01*
X152423904Y-98780976D01*
X152471523Y-98685738D01*
X152566761Y-98590500D01*
X152709619Y-98542880D01*
X152804857Y-98542880D01*
X152947714Y-98590500D01*
X152995333Y-98638119D01*
X153328666Y-98542880D02*
X153947714Y-98542880D01*
X153614380Y-98923833D01*
X153757238Y-98923833D01*
X153852476Y-98971452D01*
X153900095Y-99019071D01*
X153947714Y-99114309D01*
X153947714Y-99352404D01*
X153900095Y-99447642D01*
X153852476Y-99495261D01*
X153757238Y-99542880D01*
X153471523Y-99542880D01*
X153376285Y-99495261D01*
X153328666Y-99447642D01*
%TO.C,C6*%
X164996833Y-86780642D02*
X164949214Y-86828261D01*
X164806357Y-86875880D01*
X164711119Y-86875880D01*
X164568261Y-86828261D01*
X164473023Y-86733023D01*
X164425404Y-86637785D01*
X164377785Y-86447309D01*
X164377785Y-86304452D01*
X164425404Y-86113976D01*
X164473023Y-86018738D01*
X164568261Y-85923500D01*
X164711119Y-85875880D01*
X164806357Y-85875880D01*
X164949214Y-85923500D01*
X164996833Y-85971119D01*
X165853976Y-85875880D02*
X165663500Y-85875880D01*
X165568261Y-85923500D01*
X165520642Y-85971119D01*
X165425404Y-86113976D01*
X165377785Y-86304452D01*
X165377785Y-86685404D01*
X165425404Y-86780642D01*
X165473023Y-86828261D01*
X165568261Y-86875880D01*
X165758738Y-86875880D01*
X165853976Y-86828261D01*
X165901595Y-86780642D01*
X165949214Y-86685404D01*
X165949214Y-86447309D01*
X165901595Y-86352071D01*
X165853976Y-86304452D01*
X165758738Y-86256833D01*
X165568261Y-86256833D01*
X165473023Y-86304452D01*
X165425404Y-86352071D01*
X165377785Y-86447309D01*
%TO.C,C7*%
X144930833Y-86780642D02*
X144883214Y-86828261D01*
X144740357Y-86875880D01*
X144645119Y-86875880D01*
X144502261Y-86828261D01*
X144407023Y-86733023D01*
X144359404Y-86637785D01*
X144311785Y-86447309D01*
X144311785Y-86304452D01*
X144359404Y-86113976D01*
X144407023Y-86018738D01*
X144502261Y-85923500D01*
X144645119Y-85875880D01*
X144740357Y-85875880D01*
X144883214Y-85923500D01*
X144930833Y-85971119D01*
X145264166Y-85875880D02*
X145930833Y-85875880D01*
X145502261Y-86875880D01*
%TO.C,D1*%
X172045404Y-97289880D02*
X172045404Y-96289880D01*
X172283500Y-96289880D01*
X172426357Y-96337500D01*
X172521595Y-96432738D01*
X172569214Y-96527976D01*
X172616833Y-96718452D01*
X172616833Y-96861309D01*
X172569214Y-97051785D01*
X172521595Y-97147023D01*
X172426357Y-97242261D01*
X172283500Y-97289880D01*
X172045404Y-97289880D01*
X173569214Y-97289880D02*
X172997785Y-97289880D01*
X173283500Y-97289880D02*
X173283500Y-96289880D01*
X173188261Y-96432738D01*
X173093023Y-96527976D01*
X172997785Y-96575595D01*
%TO.C,D2*%
X144359404Y-99956880D02*
X144359404Y-98956880D01*
X144597500Y-98956880D01*
X144740357Y-99004500D01*
X144835595Y-99099738D01*
X144883214Y-99194976D01*
X144930833Y-99385452D01*
X144930833Y-99528309D01*
X144883214Y-99718785D01*
X144835595Y-99814023D01*
X144740357Y-99909261D01*
X144597500Y-99956880D01*
X144359404Y-99956880D01*
X145311785Y-99052119D02*
X145359404Y-99004500D01*
X145454642Y-98956880D01*
X145692738Y-98956880D01*
X145787976Y-99004500D01*
X145835595Y-99052119D01*
X145883214Y-99147357D01*
X145883214Y-99242595D01*
X145835595Y-99385452D01*
X145264166Y-99956880D01*
X145883214Y-99956880D01*
%TO.C,J2*%
X123428166Y-106449880D02*
X123428166Y-107164166D01*
X123380547Y-107307023D01*
X123285309Y-107402261D01*
X123142452Y-107449880D01*
X123047214Y-107449880D01*
X123856738Y-106545119D02*
X123904357Y-106497500D01*
X123999595Y-106449880D01*
X124237690Y-106449880D01*
X124332928Y-106497500D01*
X124380547Y-106545119D01*
X124428166Y-106640357D01*
X124428166Y-106735595D01*
X124380547Y-106878452D01*
X123809119Y-107449880D01*
X124428166Y-107449880D01*
%TO.C,J3*%
X135659880Y-79644833D02*
X136374166Y-79644833D01*
X136517023Y-79692452D01*
X136612261Y-79787690D01*
X136659880Y-79930547D01*
X136659880Y-80025785D01*
X135659880Y-79263880D02*
X135659880Y-78644833D01*
X136040833Y-78978166D01*
X136040833Y-78835309D01*
X136088452Y-78740071D01*
X136136071Y-78692452D01*
X136231309Y-78644833D01*
X136469404Y-78644833D01*
X136564642Y-78692452D01*
X136612261Y-78740071D01*
X136659880Y-78835309D01*
X136659880Y-79121023D01*
X136612261Y-79216261D01*
X136564642Y-79263880D01*
%TO.C,J4*%
X121904166Y-109497880D02*
X121904166Y-110212166D01*
X121856547Y-110355023D01*
X121761309Y-110450261D01*
X121618452Y-110497880D01*
X121523214Y-110497880D01*
X122808928Y-109831214D02*
X122808928Y-110497880D01*
X122570833Y-109450261D02*
X122332738Y-110164547D01*
X122951785Y-110164547D01*
%TO.C,J5*%
X124444166Y-86637880D02*
X124444166Y-87352166D01*
X124396547Y-87495023D01*
X124301309Y-87590261D01*
X124158452Y-87637880D01*
X124063214Y-87637880D01*
X125396547Y-86637880D02*
X124920357Y-86637880D01*
X124872738Y-87114071D01*
X124920357Y-87066452D01*
X125015595Y-87018833D01*
X125253690Y-87018833D01*
X125348928Y-87066452D01*
X125396547Y-87114071D01*
X125444166Y-87209309D01*
X125444166Y-87447404D01*
X125396547Y-87542642D01*
X125348928Y-87590261D01*
X125253690Y-87637880D01*
X125015595Y-87637880D01*
X124920357Y-87590261D01*
X124872738Y-87542642D01*
%TO.C,J6*%
X163560166Y-109751880D02*
X163560166Y-110466166D01*
X163512547Y-110609023D01*
X163417309Y-110704261D01*
X163274452Y-110751880D01*
X163179214Y-110751880D01*
X164464928Y-109751880D02*
X164274452Y-109751880D01*
X164179214Y-109799500D01*
X164131595Y-109847119D01*
X164036357Y-109989976D01*
X163988738Y-110180452D01*
X163988738Y-110561404D01*
X164036357Y-110656642D01*
X164083976Y-110704261D01*
X164179214Y-110751880D01*
X164369690Y-110751880D01*
X164464928Y-110704261D01*
X164512547Y-110656642D01*
X164560166Y-110561404D01*
X164560166Y-110323309D01*
X164512547Y-110228071D01*
X164464928Y-110180452D01*
X164369690Y-110132833D01*
X164179214Y-110132833D01*
X164083976Y-110180452D01*
X164036357Y-110228071D01*
X163988738Y-110323309D01*
%TO.C,J7*%
X196326166Y-81557880D02*
X196326166Y-82272166D01*
X196278547Y-82415023D01*
X196183309Y-82510261D01*
X196040452Y-82557880D01*
X195945214Y-82557880D01*
X196707119Y-81557880D02*
X197373785Y-81557880D01*
X196945214Y-82557880D01*
%TO.C,J9*%
X196326166Y-90447880D02*
X196326166Y-91162166D01*
X196278547Y-91305023D01*
X196183309Y-91400261D01*
X196040452Y-91447880D01*
X195945214Y-91447880D01*
X196849976Y-91447880D02*
X197040452Y-91447880D01*
X197135690Y-91400261D01*
X197183309Y-91352642D01*
X197278547Y-91209785D01*
X197326166Y-91019309D01*
X197326166Y-90638357D01*
X197278547Y-90543119D01*
X197230928Y-90495500D01*
X197135690Y-90447880D01*
X196945214Y-90447880D01*
X196849976Y-90495500D01*
X196802357Y-90543119D01*
X196754738Y-90638357D01*
X196754738Y-90876452D01*
X196802357Y-90971690D01*
X196849976Y-91019309D01*
X196945214Y-91066928D01*
X197135690Y-91066928D01*
X197230928Y-91019309D01*
X197278547Y-90971690D01*
X197326166Y-90876452D01*
%TO.C,J10*%
X118887976Y-76223880D02*
X118887976Y-76938166D01*
X118840357Y-77081023D01*
X118745119Y-77176261D01*
X118602261Y-77223880D01*
X118507023Y-77223880D01*
X119887976Y-77223880D02*
X119316547Y-77223880D01*
X119602261Y-77223880D02*
X119602261Y-76223880D01*
X119507023Y-76366738D01*
X119411785Y-76461976D01*
X119316547Y-76509595D01*
X120507023Y-76223880D02*
X120602261Y-76223880D01*
X120697500Y-76271500D01*
X120745119Y-76319119D01*
X120792738Y-76414357D01*
X120840357Y-76604833D01*
X120840357Y-76842928D01*
X120792738Y-77033404D01*
X120745119Y-77128642D01*
X120697500Y-77176261D01*
X120602261Y-77223880D01*
X120507023Y-77223880D01*
X120411785Y-77176261D01*
X120364166Y-77128642D01*
X120316547Y-77033404D01*
X120268928Y-76842928D01*
X120268928Y-76604833D01*
X120316547Y-76414357D01*
X120364166Y-76319119D01*
X120411785Y-76271500D01*
X120507023Y-76223880D01*
%TO.C,J11*%
X125753880Y-82661023D02*
X126468166Y-82661023D01*
X126611023Y-82708642D01*
X126706261Y-82803880D01*
X126753880Y-82946738D01*
X126753880Y-83041976D01*
X126753880Y-81661023D02*
X126753880Y-82232452D01*
X126753880Y-81946738D02*
X125753880Y-81946738D01*
X125896738Y-82041976D01*
X125991976Y-82137214D01*
X126039595Y-82232452D01*
X126753880Y-80708642D02*
X126753880Y-81280071D01*
X126753880Y-80994357D02*
X125753880Y-80994357D01*
X125896738Y-81089595D01*
X125991976Y-81184833D01*
X126039595Y-81280071D01*
%TO.C,J12*%
X143279880Y-79613023D02*
X143994166Y-79613023D01*
X144137023Y-79660642D01*
X144232261Y-79755880D01*
X144279880Y-79898738D01*
X144279880Y-79993976D01*
X144279880Y-78613023D02*
X144279880Y-79184452D01*
X144279880Y-78898738D02*
X143279880Y-78898738D01*
X143422738Y-78993976D01*
X143517976Y-79089214D01*
X143565595Y-79184452D01*
X143375119Y-78232071D02*
X143327500Y-78184452D01*
X143279880Y-78089214D01*
X143279880Y-77851119D01*
X143327500Y-77755880D01*
X143375119Y-77708261D01*
X143470357Y-77660642D01*
X143565595Y-77660642D01*
X143708452Y-77708261D01*
X144279880Y-78279690D01*
X144279880Y-77660642D01*
%TO.C,J13*%
X157503880Y-79613023D02*
X158218166Y-79613023D01*
X158361023Y-79660642D01*
X158456261Y-79755880D01*
X158503880Y-79898738D01*
X158503880Y-79993976D01*
X158503880Y-78613023D02*
X158503880Y-79184452D01*
X158503880Y-78898738D02*
X157503880Y-78898738D01*
X157646738Y-78993976D01*
X157741976Y-79089214D01*
X157789595Y-79184452D01*
X157503880Y-78279690D02*
X157503880Y-77660642D01*
X157884833Y-77993976D01*
X157884833Y-77851119D01*
X157932452Y-77755880D01*
X157980071Y-77708261D01*
X158075309Y-77660642D01*
X158313404Y-77660642D01*
X158408642Y-77708261D01*
X158456261Y-77755880D01*
X158503880Y-77851119D01*
X158503880Y-78136833D01*
X158456261Y-78232071D01*
X158408642Y-78279690D01*
%TO.C,J14*%
X126253976Y-109751880D02*
X126253976Y-110466166D01*
X126206357Y-110609023D01*
X126111119Y-110704261D01*
X125968261Y-110751880D01*
X125873023Y-110751880D01*
X127253976Y-110751880D02*
X126682547Y-110751880D01*
X126968261Y-110751880D02*
X126968261Y-109751880D01*
X126873023Y-109894738D01*
X126777785Y-109989976D01*
X126682547Y-110037595D01*
X128111119Y-110085214D02*
X128111119Y-110751880D01*
X127873023Y-109704261D02*
X127634928Y-110418547D01*
X128253976Y-110418547D01*
%TO.C,J15*%
X127785880Y-79613023D02*
X128500166Y-79613023D01*
X128643023Y-79660642D01*
X128738261Y-79755880D01*
X128785880Y-79898738D01*
X128785880Y-79993976D01*
X128785880Y-78613023D02*
X128785880Y-79184452D01*
X128785880Y-78898738D02*
X127785880Y-78898738D01*
X127928738Y-78993976D01*
X128023976Y-79089214D01*
X128071595Y-79184452D01*
X127785880Y-77708261D02*
X127785880Y-78184452D01*
X128262071Y-78232071D01*
X128214452Y-78184452D01*
X128166833Y-78089214D01*
X128166833Y-77851119D01*
X128214452Y-77755880D01*
X128262071Y-77708261D01*
X128357309Y-77660642D01*
X128595404Y-77660642D01*
X128690642Y-77708261D01*
X128738261Y-77755880D01*
X128785880Y-77851119D01*
X128785880Y-78089214D01*
X128738261Y-78184452D01*
X128690642Y-78232071D01*
%TO.C,J16*%
X139969976Y-109751880D02*
X139969976Y-110466166D01*
X139922357Y-110609023D01*
X139827119Y-110704261D01*
X139684261Y-110751880D01*
X139589023Y-110751880D01*
X140969976Y-110751880D02*
X140398547Y-110751880D01*
X140684261Y-110751880D02*
X140684261Y-109751880D01*
X140589023Y-109894738D01*
X140493785Y-109989976D01*
X140398547Y-110037595D01*
X141827119Y-109751880D02*
X141636642Y-109751880D01*
X141541404Y-109799500D01*
X141493785Y-109847119D01*
X141398547Y-109989976D01*
X141350928Y-110180452D01*
X141350928Y-110561404D01*
X141398547Y-110656642D01*
X141446166Y-110704261D01*
X141541404Y-110751880D01*
X141731880Y-110751880D01*
X141827119Y-110704261D01*
X141874738Y-110656642D01*
X141922357Y-110561404D01*
X141922357Y-110323309D01*
X141874738Y-110228071D01*
X141827119Y-110180452D01*
X141731880Y-110132833D01*
X141541404Y-110132833D01*
X141446166Y-110180452D01*
X141398547Y-110228071D01*
X141350928Y-110323309D01*
%TO.C,L1*%
X168425833Y-98562880D02*
X167949642Y-98562880D01*
X167949642Y-97562880D01*
X169282976Y-98562880D02*
X168711547Y-98562880D01*
X168997261Y-98562880D02*
X168997261Y-97562880D01*
X168902023Y-97705738D01*
X168806785Y-97800976D01*
X168711547Y-97848595D01*
%TO.C,R1*%
X187729833Y-82557880D02*
X187396500Y-82081690D01*
X187158404Y-82557880D02*
X187158404Y-81557880D01*
X187539357Y-81557880D01*
X187634595Y-81605500D01*
X187682214Y-81653119D01*
X187729833Y-81748357D01*
X187729833Y-81891214D01*
X187682214Y-81986452D01*
X187634595Y-82034071D01*
X187539357Y-82081690D01*
X187158404Y-82081690D01*
X188682214Y-82557880D02*
X188110785Y-82557880D01*
X188396500Y-82557880D02*
X188396500Y-81557880D01*
X188301261Y-81700738D01*
X188206023Y-81795976D01*
X188110785Y-81843595D01*
%TO.C,R2*%
X187729833Y-86621880D02*
X187396500Y-86145690D01*
X187158404Y-86621880D02*
X187158404Y-85621880D01*
X187539357Y-85621880D01*
X187634595Y-85669500D01*
X187682214Y-85717119D01*
X187729833Y-85812357D01*
X187729833Y-85955214D01*
X187682214Y-86050452D01*
X187634595Y-86098071D01*
X187539357Y-86145690D01*
X187158404Y-86145690D01*
X188110785Y-85717119D02*
X188158404Y-85669500D01*
X188253642Y-85621880D01*
X188491738Y-85621880D01*
X188586976Y-85669500D01*
X188634595Y-85717119D01*
X188682214Y-85812357D01*
X188682214Y-85907595D01*
X188634595Y-86050452D01*
X188063166Y-86621880D01*
X188682214Y-86621880D01*
%TO.C,R3*%
X198651833Y-85191880D02*
X198318500Y-84715690D01*
X198080404Y-85191880D02*
X198080404Y-84191880D01*
X198461357Y-84191880D01*
X198556595Y-84239500D01*
X198604214Y-84287119D01*
X198651833Y-84382357D01*
X198651833Y-84525214D01*
X198604214Y-84620452D01*
X198556595Y-84668071D01*
X198461357Y-84715690D01*
X198080404Y-84715690D01*
X198985166Y-84191880D02*
X199604214Y-84191880D01*
X199270880Y-84572833D01*
X199413738Y-84572833D01*
X199508976Y-84620452D01*
X199556595Y-84668071D01*
X199604214Y-84763309D01*
X199604214Y-85001404D01*
X199556595Y-85096642D01*
X199508976Y-85144261D01*
X199413738Y-85191880D01*
X199128023Y-85191880D01*
X199032785Y-85144261D01*
X198985166Y-85096642D01*
%TO.C,R4*%
X198651833Y-77571880D02*
X198318500Y-77095690D01*
X198080404Y-77571880D02*
X198080404Y-76571880D01*
X198461357Y-76571880D01*
X198556595Y-76619500D01*
X198604214Y-76667119D01*
X198651833Y-76762357D01*
X198651833Y-76905214D01*
X198604214Y-77000452D01*
X198556595Y-77048071D01*
X198461357Y-77095690D01*
X198080404Y-77095690D01*
X199508976Y-76905214D02*
X199508976Y-77571880D01*
X199270880Y-76524261D02*
X199032785Y-77238547D01*
X199651833Y-77238547D01*
%TO.C,C4*%
X187729833Y-88304642D02*
X187682214Y-88352261D01*
X187539357Y-88399880D01*
X187444119Y-88399880D01*
X187301261Y-88352261D01*
X187206023Y-88257023D01*
X187158404Y-88161785D01*
X187110785Y-87971309D01*
X187110785Y-87828452D01*
X187158404Y-87637976D01*
X187206023Y-87542738D01*
X187301261Y-87447500D01*
X187444119Y-87399880D01*
X187539357Y-87399880D01*
X187682214Y-87447500D01*
X187729833Y-87495119D01*
X188586976Y-87733214D02*
X188586976Y-88399880D01*
X188348880Y-87352261D02*
X188110785Y-88066547D01*
X188729833Y-88066547D01*
%TO.C,C5*%
X187729833Y-84240642D02*
X187682214Y-84288261D01*
X187539357Y-84335880D01*
X187444119Y-84335880D01*
X187301261Y-84288261D01*
X187206023Y-84193023D01*
X187158404Y-84097785D01*
X187110785Y-83907309D01*
X187110785Y-83764452D01*
X187158404Y-83573976D01*
X187206023Y-83478738D01*
X187301261Y-83383500D01*
X187444119Y-83335880D01*
X187539357Y-83335880D01*
X187682214Y-83383500D01*
X187729833Y-83431119D01*
X188634595Y-83335880D02*
X188158404Y-83335880D01*
X188110785Y-83812071D01*
X188158404Y-83764452D01*
X188253642Y-83716833D01*
X188491738Y-83716833D01*
X188586976Y-83764452D01*
X188634595Y-83812071D01*
X188682214Y-83907309D01*
X188682214Y-84145404D01*
X188634595Y-84240642D01*
X188586976Y-84288261D01*
X188491738Y-84335880D01*
X188253642Y-84335880D01*
X188158404Y-84288261D01*
X188110785Y-84240642D01*
%TO.C,U4*%
X144843595Y-107211880D02*
X144843595Y-108021404D01*
X144891214Y-108116642D01*
X144938833Y-108164261D01*
X145034071Y-108211880D01*
X145224547Y-108211880D01*
X145319785Y-108164261D01*
X145367404Y-108116642D01*
X145415023Y-108021404D01*
X145415023Y-107211880D01*
X146319785Y-107545214D02*
X146319785Y-108211880D01*
X146081690Y-107164261D02*
X145843595Y-107878547D01*
X146462642Y-107878547D01*
%TD*%
M02*
