%FSLAX45Y45*%
G04 Gerber Fmt 4.5, Leading zero omitted, Abs format (unit mm)*
G04 Created by KiCad (PCBNEW (5.1.10)-1) date 2022-02-17 21:35:24*
%MOMM*%
%LPD*%
G01*
G04 APERTURE LIST*
%TA.AperFunction,Profile*%
%ADD10C,0.050000*%
%TD*%
%ADD11C,0.200000*%
%ADD12C,0.300000*%
G04 APERTURE END LIST*
D10*
X12446000Y-7156450D02*
X12446000Y-12185650D01*
X2794000Y-12439650D02*
G75*
G02*
X2540000Y-12185650I0J254000D01*
G01*
X12192000Y-12439650D02*
G75*
G03*
X12446000Y-12185650I0J254000D01*
G01*
X2540000Y-12185650D02*
X2540000Y-7156450D01*
X2540000Y-7156450D02*
G75*
G02*
X2794000Y-6902450I254000J0D01*
G01*
X12192000Y-12439650D02*
X2794000Y-12439650D01*
X12192000Y-6902450D02*
G75*
G02*
X12446000Y-7156450I0J-254000D01*
G01*
X2794000Y-6902450D02*
X12192000Y-6902450D01*
D11*
X3040700Y-11067100D02*
X3080700Y-11107100D01*
X3080700Y-11067100D02*
X3040700Y-11107100D01*
X3180400Y-11219500D02*
X3220400Y-11259500D01*
X3220400Y-11219500D02*
X3180400Y-11259500D01*
X3778710Y-11045010D02*
X3818710Y-11085010D01*
X3818710Y-11045010D02*
X3778710Y-11085010D01*
X4374200Y-11003600D02*
X4414200Y-11043600D01*
X4414200Y-11003600D02*
X4374200Y-11043600D01*
X5034600Y-10381300D02*
X5074600Y-10421300D01*
X5074600Y-10381300D02*
X5034600Y-10421300D01*
X5733100Y-10648000D02*
X5773100Y-10688000D01*
X5773100Y-10648000D02*
X5733100Y-10688000D01*
X5745760Y-10797920D02*
X5785760Y-10837920D01*
X5785760Y-10797920D02*
X5745760Y-10837920D01*
X6459540Y-9929180D02*
X6499540Y-9969180D01*
X6499540Y-9929180D02*
X6459540Y-9969180D01*
X6888800Y-8590600D02*
X6928800Y-8630600D01*
X6928800Y-8590600D02*
X6888800Y-8630600D01*
X7187250Y-11390950D02*
X7227250Y-11430950D01*
X7227250Y-11390950D02*
X7187250Y-11430950D01*
X7536500Y-10051100D02*
X7576500Y-10091100D01*
X7576500Y-10051100D02*
X7536500Y-10091100D01*
X7625400Y-11390950D02*
X7665400Y-11430950D01*
X7665400Y-11390950D02*
X7625400Y-11430950D01*
X7993700Y-12024250D02*
X8033700Y-12064250D01*
X8033700Y-12024250D02*
X7993700Y-12064250D01*
X7993700Y-12129250D02*
X8033700Y-12169250D01*
X8033700Y-12129250D02*
X7993700Y-12169250D01*
X8387400Y-8654100D02*
X8427400Y-8694100D01*
X8427400Y-8654100D02*
X8387400Y-8694100D01*
X9028520Y-8482520D02*
X9068520Y-8522520D01*
X9068520Y-8482520D02*
X9028520Y-8522520D01*
X9193850Y-7460300D02*
X9233850Y-7500300D01*
X9233850Y-7460300D02*
X9193850Y-7500300D01*
X9197850Y-7654800D02*
X9237850Y-7694800D01*
X9237850Y-7654800D02*
X9197850Y-7694800D01*
X9367640Y-7028500D02*
X9407640Y-7068500D01*
X9407640Y-7028500D02*
X9367640Y-7068500D01*
X9407041Y-8086241D02*
X9447041Y-8126241D01*
X9447041Y-8086241D02*
X9407041Y-8126241D01*
X9436127Y-11144277D02*
X9476127Y-11184277D01*
X9476127Y-11144277D02*
X9436127Y-11184277D01*
X9510373Y-11218523D02*
X9550373Y-11258523D01*
X9550373Y-11218523D02*
X9510373Y-11258523D01*
X9612950Y-7580950D02*
X9652950Y-7620950D01*
X9652950Y-7580950D02*
X9612950Y-7620950D01*
X9644210Y-8233370D02*
X9684210Y-8273370D01*
X9684210Y-8233370D02*
X9644210Y-8273370D01*
X9761540Y-7312980D02*
X9801540Y-7352980D01*
X9801540Y-7312980D02*
X9761540Y-7352980D01*
X9764250Y-8199720D02*
X9804250Y-8239720D01*
X9804250Y-8199720D02*
X9764250Y-8239720D01*
X9911910Y-8854890D02*
X9951910Y-8894890D01*
X9951910Y-8854890D02*
X9911910Y-8894890D01*
X10011510Y-8785190D02*
X10051510Y-8825190D01*
X10051510Y-8785190D02*
X10011510Y-8825190D01*
X10085450Y-8464870D02*
X10125450Y-8504870D01*
X10125450Y-8464870D02*
X10085450Y-8504870D01*
X10086530Y-8044500D02*
X10126530Y-8084500D01*
X10126530Y-8044500D02*
X10086530Y-8084500D01*
X10100110Y-8617100D02*
X10140110Y-8657100D01*
X10140110Y-8617100D02*
X10100110Y-8657100D01*
X10101900Y-7282500D02*
X10141900Y-7322500D01*
X10141900Y-7282500D02*
X10101900Y-7322500D01*
X10170580Y-8542990D02*
X10210580Y-8582990D01*
X10210580Y-8542990D02*
X10170580Y-8582990D01*
X10209850Y-11390950D02*
X10249850Y-11430950D01*
X10249850Y-11390950D02*
X10209850Y-11430950D01*
X10305510Y-8436860D02*
X10345510Y-8476860D01*
X10345510Y-8436860D02*
X10305510Y-8476860D01*
X10395965Y-11450065D02*
X10435965Y-11490065D01*
X10435965Y-11450065D02*
X10395965Y-11490065D01*
X10400350Y-11143300D02*
X10440350Y-11183300D01*
X10440350Y-11143300D02*
X10400350Y-11183300D01*
X10401500Y-8327690D02*
X10441500Y-8367690D01*
X10441500Y-8327690D02*
X10401500Y-8367690D01*
X10559100Y-7638100D02*
X10599100Y-7678100D01*
X10599100Y-7638100D02*
X10559100Y-7678100D01*
X10559100Y-7898450D02*
X10599100Y-7938450D01*
X10599100Y-7898450D02*
X10559100Y-7938450D01*
X10565450Y-7777800D02*
X10605450Y-7817800D01*
X10605450Y-7777800D02*
X10565450Y-7817800D01*
X10578150Y-11289350D02*
X10618150Y-11329350D01*
X10618150Y-11289350D02*
X10578150Y-11329350D01*
X10635300Y-8368350D02*
X10675300Y-8408350D01*
X10675300Y-8368350D02*
X10635300Y-8408350D01*
X10660570Y-7453850D02*
X10700570Y-7493850D01*
X10700570Y-7453850D02*
X10660570Y-7493850D01*
X10673400Y-7898450D02*
X10713400Y-7938450D01*
X10713400Y-7898450D02*
X10673400Y-7938450D01*
X10675000Y-7642850D02*
X10715000Y-7682850D01*
X10715000Y-7642850D02*
X10675000Y-7682850D01*
X10675000Y-7769850D02*
X10715000Y-7809850D01*
X10715000Y-7769850D02*
X10675000Y-7809850D01*
X10781350Y-7765100D02*
X10821350Y-7805100D01*
X10821350Y-7765100D02*
X10781350Y-7805100D01*
X10781350Y-7898450D02*
X10821350Y-7938450D01*
X10821350Y-7898450D02*
X10781350Y-7938450D01*
X10787700Y-7644450D02*
X10827700Y-7684450D01*
X10827700Y-7644450D02*
X10787700Y-7684450D01*
X10787700Y-11664000D02*
X10827700Y-11704000D01*
X10827700Y-11664000D02*
X10787700Y-11704000D01*
X10806970Y-8614930D02*
X10846970Y-8654930D01*
X10846970Y-8614930D02*
X10806970Y-8654930D01*
X10916320Y-8985090D02*
X10956320Y-9025090D01*
X10956320Y-8985090D02*
X10916320Y-9025090D01*
X10959150Y-10590850D02*
X10999150Y-10630850D01*
X10999150Y-10590850D02*
X10959150Y-10630850D01*
X10959150Y-10771300D02*
X10999150Y-10811300D01*
X10999150Y-10771300D02*
X10959150Y-10811300D01*
X10965500Y-10228900D02*
X11005500Y-10268900D01*
X11005500Y-10228900D02*
X10965500Y-10268900D01*
X11174580Y-8940990D02*
X11214580Y-8980990D01*
X11214580Y-8940990D02*
X11174580Y-8980990D01*
X11175100Y-10521050D02*
X11215100Y-10561050D01*
X11215100Y-10521050D02*
X11175100Y-10561050D01*
X11350030Y-7561510D02*
X11390030Y-7601510D01*
X11390030Y-7561510D02*
X11350030Y-7601510D01*
X11431010Y-8209100D02*
X11471010Y-8249100D01*
X11471010Y-8209100D02*
X11431010Y-8249100D01*
X11630870Y-8790820D02*
X11670870Y-8830820D01*
X11670870Y-8790820D02*
X11630870Y-8830820D01*
X11644950Y-10736900D02*
X11684950Y-10776900D01*
X11684950Y-10736900D02*
X11644950Y-10776900D01*
X11825880Y-8809410D02*
X11865880Y-8849410D01*
X11865880Y-8809410D02*
X11825880Y-8849410D01*
X11836680Y-8679500D02*
X11876680Y-8719500D01*
X11876680Y-8679500D02*
X11836680Y-8719500D01*
X11868020Y-9157410D02*
X11908020Y-9197410D01*
X11908020Y-9157410D02*
X11868020Y-9197410D01*
X12173300Y-9064650D02*
X12213300Y-9104650D01*
X12213300Y-9064650D02*
X12173300Y-9104650D01*
X2871400Y-10667800D02*
G75*
G03*
X2871400Y-10667800I-30000J0D01*
G01*
X2871400Y-10647800D02*
X2811400Y-10647800D01*
X2871400Y-10687800D02*
X2811400Y-10687800D01*
X2811400Y-10647800D02*
G75*
G03*
X2811400Y-10687800I0J-20000D01*
G01*
X2871400Y-10687800D02*
G75*
G03*
X2871400Y-10647800I0J20000D01*
G01*
X2871400Y-11531800D02*
G75*
G03*
X2871400Y-11531800I-30000J0D01*
G01*
X2871400Y-11511800D02*
X2811400Y-11511800D01*
X2871400Y-11551800D02*
X2811400Y-11551800D01*
X2811400Y-11511800D02*
G75*
G03*
X2811400Y-11551800I0J-20000D01*
G01*
X2871400Y-11551800D02*
G75*
G03*
X2871400Y-11511800I0J20000D01*
G01*
X3289400Y-10667800D02*
G75*
G03*
X3289400Y-10667800I-30000J0D01*
G01*
X3314400Y-10647800D02*
X3204400Y-10647800D01*
X3314400Y-10687800D02*
X3204400Y-10687800D01*
X3204400Y-10647800D02*
G75*
G03*
X3204400Y-10687800I0J-20000D01*
G01*
X3314400Y-10687800D02*
G75*
G03*
X3314400Y-10647800I0J20000D01*
G01*
X3289400Y-11531800D02*
G75*
G03*
X3289400Y-11531800I-30000J0D01*
G01*
X3314400Y-11511800D02*
X3204400Y-11511800D01*
X3314400Y-11551800D02*
X3204400Y-11551800D01*
X3204400Y-11511800D02*
G75*
G03*
X3204400Y-11551800I0J-20000D01*
G01*
X3314400Y-11551800D02*
G75*
G03*
X3314400Y-11511800I0J20000D01*
G01*
X3289300Y-7887300D02*
X3289300Y-7962300D01*
X3251800Y-7924800D02*
X3326800Y-7924800D01*
X3289300Y-8087300D02*
X3289300Y-8162300D01*
X3251800Y-8124800D02*
X3326800Y-8124800D01*
X3289300Y-8287300D02*
X3289300Y-8362300D01*
X3251800Y-8324800D02*
X3326800Y-8324800D01*
X3289300Y-8839800D02*
X3289300Y-8914800D01*
X3251800Y-8877300D02*
X3326800Y-8877300D01*
X3289300Y-9039800D02*
X3289300Y-9114800D01*
X3251800Y-9077300D02*
X3326800Y-9077300D01*
X3822700Y-11646500D02*
X3822700Y-11721500D01*
X3785200Y-11684000D02*
X3860200Y-11684000D01*
X4002430Y-7633300D02*
X4002430Y-7708300D01*
X3964930Y-7670800D02*
X4039930Y-7670800D01*
X4022700Y-11646500D02*
X4022700Y-11721500D01*
X3985200Y-11684000D02*
X4060200Y-11684000D01*
X4202430Y-7633300D02*
X4202430Y-7708300D01*
X4164930Y-7670800D02*
X4239930Y-7670800D01*
X4559300Y-11646500D02*
X4559300Y-11721500D01*
X4521800Y-11684000D02*
X4596800Y-11684000D01*
X4749850Y-7633300D02*
X4749850Y-7708300D01*
X4712350Y-7670800D02*
X4787350Y-7670800D01*
X4759300Y-11646500D02*
X4759300Y-11721500D01*
X4721800Y-11684000D02*
X4796800Y-11684000D01*
X4949850Y-7633300D02*
X4949850Y-7708300D01*
X4912350Y-7670800D02*
X4987350Y-7670800D01*
X4959300Y-11646500D02*
X4959300Y-11721500D01*
X4921800Y-11684000D02*
X4996800Y-11684000D01*
X5149850Y-7633300D02*
X5149850Y-7708300D01*
X5112350Y-7670800D02*
X5187350Y-7670800D01*
X5486400Y-11646500D02*
X5486400Y-11721500D01*
X5448900Y-11684000D02*
X5523900Y-11684000D01*
X5686400Y-11646500D02*
X5686400Y-11721500D01*
X5648900Y-11684000D02*
X5723900Y-11684000D01*
X5697930Y-7633300D02*
X5697930Y-7708300D01*
X5660430Y-7670800D02*
X5735430Y-7670800D01*
X5886400Y-11646500D02*
X5886400Y-11721500D01*
X5848900Y-11684000D02*
X5923900Y-11684000D01*
X5897930Y-7633300D02*
X5897930Y-7708300D01*
X5860430Y-7670800D02*
X5935430Y-7670800D01*
X6086400Y-11646500D02*
X6086400Y-11721500D01*
X6048900Y-11684000D02*
X6123900Y-11684000D01*
X6097930Y-7633300D02*
X6097930Y-7708300D01*
X6060430Y-7670800D02*
X6135430Y-7670800D01*
X6286400Y-11646500D02*
X6286400Y-11721500D01*
X6248900Y-11684000D02*
X6323900Y-11684000D01*
X6297930Y-7633300D02*
X6297930Y-7708300D01*
X6260430Y-7670800D02*
X6335430Y-7670800D01*
X6486400Y-11646500D02*
X6486400Y-11721500D01*
X6448900Y-11684000D02*
X6523900Y-11684000D01*
X6840880Y-7628220D02*
X6840880Y-7703220D01*
X6803380Y-7665720D02*
X6878380Y-7665720D01*
X7010400Y-11646500D02*
X7010400Y-11721500D01*
X6972900Y-11684000D02*
X7047900Y-11684000D01*
X7040880Y-7628220D02*
X7040880Y-7703220D01*
X7003380Y-7665720D02*
X7078380Y-7665720D01*
X7210400Y-11646500D02*
X7210400Y-11721500D01*
X7172900Y-11684000D02*
X7247900Y-11684000D01*
X7240880Y-7628220D02*
X7240880Y-7703220D01*
X7203380Y-7665720D02*
X7278380Y-7665720D01*
X7410400Y-11646500D02*
X7410400Y-11721500D01*
X7372900Y-11684000D02*
X7447900Y-11684000D01*
X7610400Y-11646500D02*
X7610400Y-11721500D01*
X7572900Y-11684000D02*
X7647900Y-11684000D01*
X7793430Y-7633300D02*
X7793430Y-7708300D01*
X7755930Y-7670800D02*
X7830930Y-7670800D01*
X7810400Y-11646500D02*
X7810400Y-11721500D01*
X7772900Y-11684000D02*
X7847900Y-11684000D01*
X7993430Y-7633300D02*
X7993430Y-7708300D01*
X7955930Y-7670800D02*
X8030930Y-7670800D01*
X8010400Y-11646500D02*
X8010400Y-11721500D01*
X7972900Y-11684000D02*
X8047900Y-11684000D01*
X8193430Y-7633300D02*
X8193430Y-7708300D01*
X8155930Y-7670800D02*
X8230930Y-7670800D01*
X8210400Y-11646500D02*
X8210400Y-11721500D01*
X8172900Y-11684000D02*
X8247900Y-11684000D01*
X8393430Y-7633300D02*
X8393430Y-7708300D01*
X8355930Y-7670800D02*
X8430930Y-7670800D01*
X8410400Y-11646500D02*
X8410400Y-11721500D01*
X8372900Y-11684000D02*
X8447900Y-11684000D01*
X11747500Y-10176500D02*
X11747500Y-10251500D01*
X11710000Y-10214000D02*
X11785000Y-10214000D01*
X11747500Y-10376500D02*
X11747500Y-10451500D01*
X11710000Y-10414000D02*
X11785000Y-10414000D01*
X4662441Y-8396241D02*
X4662441Y-8342359D01*
X4608559Y-8342359D01*
X4608559Y-8396241D01*
X4662441Y-8396241D01*
X4662441Y-9158241D02*
X4662441Y-9104359D01*
X4608559Y-9104359D01*
X4608559Y-9158241D01*
X4662441Y-9158241D01*
X4662441Y-9412241D02*
X4662441Y-9358359D01*
X4608559Y-9358359D01*
X4608559Y-9412241D01*
X4662441Y-9412241D01*
X4662441Y-9666241D02*
X4662441Y-9612359D01*
X4608559Y-9612359D01*
X4608559Y-9666241D01*
X4662441Y-9666241D01*
X4789441Y-9285241D02*
X4789441Y-9231359D01*
X4735559Y-9231359D01*
X4735559Y-9285241D01*
X4789441Y-9285241D01*
X4916441Y-8396241D02*
X4916441Y-8342359D01*
X4862559Y-8342359D01*
X4862559Y-8396241D01*
X4916441Y-8396241D01*
X4916441Y-9666241D02*
X4916441Y-9612359D01*
X4862559Y-9612359D01*
X4862559Y-9666241D01*
X4916441Y-9666241D01*
X5170441Y-8396241D02*
X5170441Y-8342359D01*
X5116559Y-8342359D01*
X5116559Y-8396241D01*
X5170441Y-8396241D01*
X5170441Y-9666241D02*
X5170441Y-9612359D01*
X5116559Y-9612359D01*
X5116559Y-9666241D01*
X5170441Y-9666241D01*
X5424441Y-8396241D02*
X5424441Y-8342359D01*
X5370559Y-8342359D01*
X5370559Y-8396241D01*
X5424441Y-8396241D01*
X5424441Y-9666241D02*
X5424441Y-9612359D01*
X5370559Y-9612359D01*
X5370559Y-9666241D01*
X5424441Y-9666241D01*
X5678441Y-8396241D02*
X5678441Y-8342359D01*
X5624559Y-8342359D01*
X5624559Y-8396241D01*
X5678441Y-8396241D01*
X5678441Y-9666241D02*
X5678441Y-9612359D01*
X5624559Y-9612359D01*
X5624559Y-9666241D01*
X5678441Y-9666241D01*
X5932441Y-8396241D02*
X5932441Y-8342359D01*
X5878559Y-8342359D01*
X5878559Y-8396241D01*
X5932441Y-8396241D01*
X5932441Y-9666241D02*
X5932441Y-9612359D01*
X5878559Y-9612359D01*
X5878559Y-9666241D01*
X5932441Y-9666241D01*
X6186441Y-8396241D02*
X6186441Y-8342359D01*
X6132559Y-8342359D01*
X6132559Y-8396241D01*
X6186441Y-8396241D01*
X6186441Y-9666241D02*
X6186441Y-9612359D01*
X6132559Y-9612359D01*
X6132559Y-9666241D01*
X6186441Y-9666241D01*
X6440441Y-8396241D02*
X6440441Y-8342359D01*
X6386559Y-8342359D01*
X6386559Y-8396241D01*
X6440441Y-8396241D01*
X6440441Y-9666241D02*
X6440441Y-9612359D01*
X6386559Y-9612359D01*
X6386559Y-9666241D01*
X6440441Y-9666241D01*
X6796041Y-8396241D02*
X6796041Y-8342359D01*
X6742159Y-8342359D01*
X6742159Y-8396241D01*
X6796041Y-8396241D01*
X6796041Y-9158241D02*
X6796041Y-9104359D01*
X6742159Y-9104359D01*
X6742159Y-9158241D01*
X6796041Y-9158241D01*
X6796041Y-9412241D02*
X6796041Y-9358359D01*
X6742159Y-9358359D01*
X6742159Y-9412241D01*
X6796041Y-9412241D01*
X6796041Y-9666241D02*
X6796041Y-9612359D01*
X6742159Y-9612359D01*
X6742159Y-9666241D01*
X6796041Y-9666241D01*
X6923041Y-9285241D02*
X6923041Y-9231359D01*
X6869159Y-9231359D01*
X6869159Y-9285241D01*
X6923041Y-9285241D01*
X7050041Y-8396241D02*
X7050041Y-8342359D01*
X6996159Y-8342359D01*
X6996159Y-8396241D01*
X7050041Y-8396241D01*
X7050041Y-9666241D02*
X7050041Y-9612359D01*
X6996159Y-9612359D01*
X6996159Y-9666241D01*
X7050041Y-9666241D01*
X7304041Y-8396241D02*
X7304041Y-8342359D01*
X7250159Y-8342359D01*
X7250159Y-8396241D01*
X7304041Y-8396241D01*
X7304041Y-9666241D02*
X7304041Y-9612359D01*
X7250159Y-9612359D01*
X7250159Y-9666241D01*
X7304041Y-9666241D01*
X7558041Y-8396241D02*
X7558041Y-8342359D01*
X7504159Y-8342359D01*
X7504159Y-8396241D01*
X7558041Y-8396241D01*
X7558041Y-9666241D02*
X7558041Y-9612359D01*
X7504159Y-9612359D01*
X7504159Y-9666241D01*
X7558041Y-9666241D01*
X7812041Y-8396241D02*
X7812041Y-8342359D01*
X7758159Y-8342359D01*
X7758159Y-8396241D01*
X7812041Y-8396241D01*
X7812041Y-9666241D02*
X7812041Y-9612359D01*
X7758159Y-9612359D01*
X7758159Y-9666241D01*
X7812041Y-9666241D01*
X8066041Y-8396241D02*
X8066041Y-8342359D01*
X8012159Y-8342359D01*
X8012159Y-8396241D01*
X8066041Y-8396241D01*
X8066041Y-9666241D02*
X8066041Y-9612359D01*
X8012159Y-9612359D01*
X8012159Y-9666241D01*
X8066041Y-9666241D01*
X8320041Y-8396241D02*
X8320041Y-8342359D01*
X8266159Y-8342359D01*
X8266159Y-8396241D01*
X8320041Y-8396241D01*
X8320041Y-9666241D02*
X8320041Y-9612359D01*
X8266159Y-9612359D01*
X8266159Y-9666241D01*
X8320041Y-9666241D01*
X8574041Y-8396241D02*
X8574041Y-8342359D01*
X8520159Y-8342359D01*
X8520159Y-8396241D01*
X8574041Y-8396241D01*
X8574041Y-9666241D02*
X8574041Y-9612359D01*
X8520159Y-9612359D01*
X8520159Y-9666241D01*
X8574041Y-9666241D01*
X3337000Y-9930600D02*
X3387000Y-9880600D01*
X3337000Y-9830600D01*
X3287000Y-9880600D01*
X3337000Y-9930600D01*
X3297000Y-9780600D02*
X3297000Y-9980600D01*
X3377000Y-9780600D02*
X3377000Y-9980600D01*
X3297000Y-9980600D02*
G75*
G03*
X3377000Y-9980600I40000J0D01*
G01*
X3377000Y-9780600D02*
G75*
G03*
X3297000Y-9780600I-40000J0D01*
G01*
X3637000Y-10400600D02*
X3687000Y-10350600D01*
X3637000Y-10300600D01*
X3587000Y-10350600D01*
X3637000Y-10400600D01*
X3537000Y-10390600D02*
X3737000Y-10390600D01*
X3537000Y-10310600D02*
X3737000Y-10310600D01*
X3737000Y-10390600D02*
G75*
G03*
X3737000Y-10310600I0J40000D01*
G01*
X3537000Y-10310600D02*
G75*
G03*
X3537000Y-10390600I0J-40000D01*
G01*
X3873500Y-8178000D02*
X3923500Y-8128000D01*
X3873500Y-8078000D01*
X3823500Y-8128000D01*
X3873500Y-8178000D01*
X3873500Y-8432000D02*
X3923500Y-8382000D01*
X3873500Y-8332000D01*
X3823500Y-8382000D01*
X3873500Y-8432000D01*
X3873500Y-8686000D02*
X3923500Y-8636000D01*
X3873500Y-8586000D01*
X3823500Y-8636000D01*
X3873500Y-8686000D01*
X3937000Y-9930600D02*
X3987000Y-9880600D01*
X3937000Y-9830600D01*
X3887000Y-9880600D01*
X3937000Y-9930600D01*
X3897000Y-9780600D02*
X3897000Y-9980600D01*
X3977000Y-9780600D02*
X3977000Y-9980600D01*
X3897000Y-9980600D02*
G75*
G03*
X3977000Y-9980600I40000J0D01*
G01*
X3977000Y-9780600D02*
G75*
G03*
X3897000Y-9780600I-40000J0D01*
G01*
X8890000Y-10489400D02*
X8940000Y-10439400D01*
X8890000Y-10389400D01*
X8840000Y-10439400D01*
X8890000Y-10489400D01*
X8890000Y-10743400D02*
X8940000Y-10693400D01*
X8890000Y-10643400D01*
X8840000Y-10693400D01*
X8890000Y-10743400D01*
X8890000Y-10997400D02*
X8940000Y-10947400D01*
X8890000Y-10897400D01*
X8840000Y-10947400D01*
X8890000Y-10997400D01*
X8890000Y-11251400D02*
X8940000Y-11201400D01*
X8890000Y-11151400D01*
X8840000Y-11201400D01*
X8890000Y-11251400D01*
X8890000Y-11505400D02*
X8940000Y-11455400D01*
X8890000Y-11405400D01*
X8840000Y-11455400D01*
X8890000Y-11505400D01*
X8953500Y-8355800D02*
X9003500Y-8305800D01*
X8953500Y-8255800D01*
X8903500Y-8305800D01*
X8953500Y-8355800D01*
X8959850Y-7930350D02*
X9009850Y-7880350D01*
X8959850Y-7830350D01*
X8909850Y-7880350D01*
X8959850Y-7930350D01*
X9144000Y-10489400D02*
X9194000Y-10439400D01*
X9144000Y-10389400D01*
X9094000Y-10439400D01*
X9144000Y-10489400D01*
X9144000Y-10743400D02*
X9194000Y-10693400D01*
X9144000Y-10643400D01*
X9094000Y-10693400D01*
X9144000Y-10743400D01*
X9144000Y-10997400D02*
X9194000Y-10947400D01*
X9144000Y-10897400D01*
X9094000Y-10947400D01*
X9144000Y-10997400D01*
X9144000Y-11251400D02*
X9194000Y-11201400D01*
X9144000Y-11151400D01*
X9094000Y-11201400D01*
X9144000Y-11251400D01*
X9144000Y-11505400D02*
X9194000Y-11455400D01*
X9144000Y-11405400D01*
X9094000Y-11455400D01*
X9144000Y-11505400D01*
X9207500Y-8355800D02*
X9257500Y-8305800D01*
X9207500Y-8255800D01*
X9157500Y-8305800D01*
X9207500Y-8355800D01*
X9213850Y-7930350D02*
X9263850Y-7880350D01*
X9213850Y-7830350D01*
X9163850Y-7880350D01*
X9213850Y-7930350D01*
D12*
X2823928Y-12907864D02*
X2823928Y-12607864D01*
X2895357Y-12607864D01*
X2938214Y-12622150D01*
X2966786Y-12650721D01*
X2981071Y-12679293D01*
X2995357Y-12736436D01*
X2995357Y-12779293D01*
X2981071Y-12836436D01*
X2966786Y-12865007D01*
X2938214Y-12893579D01*
X2895357Y-12907864D01*
X2823928Y-12907864D01*
X3123928Y-12907864D02*
X3123928Y-12707864D01*
X3123928Y-12765007D02*
X3138214Y-12736436D01*
X3152500Y-12722150D01*
X3181071Y-12707864D01*
X3209643Y-12707864D01*
X3309643Y-12907864D02*
X3309643Y-12707864D01*
X3309643Y-12607864D02*
X3295357Y-12622150D01*
X3309643Y-12636436D01*
X3323928Y-12622150D01*
X3309643Y-12607864D01*
X3309643Y-12636436D01*
X3495357Y-12907864D02*
X3466786Y-12893579D01*
X3452500Y-12865007D01*
X3452500Y-12607864D01*
X3652500Y-12907864D02*
X3623928Y-12893579D01*
X3609643Y-12865007D01*
X3609643Y-12607864D01*
X3995357Y-12907864D02*
X3995357Y-12607864D01*
X4095357Y-12822150D01*
X4195357Y-12607864D01*
X4195357Y-12907864D01*
X4466786Y-12907864D02*
X4466786Y-12750721D01*
X4452500Y-12722150D01*
X4423928Y-12707864D01*
X4366786Y-12707864D01*
X4338214Y-12722150D01*
X4466786Y-12893579D02*
X4438214Y-12907864D01*
X4366786Y-12907864D01*
X4338214Y-12893579D01*
X4323928Y-12865007D01*
X4323928Y-12836436D01*
X4338214Y-12807864D01*
X4366786Y-12793579D01*
X4438214Y-12793579D01*
X4466786Y-12779293D01*
X4609643Y-12707864D02*
X4609643Y-13007864D01*
X4609643Y-12722150D02*
X4638214Y-12707864D01*
X4695357Y-12707864D01*
X4723928Y-12722150D01*
X4738214Y-12736436D01*
X4752500Y-12765007D01*
X4752500Y-12850721D01*
X4738214Y-12879293D01*
X4723928Y-12893579D01*
X4695357Y-12907864D01*
X4638214Y-12907864D01*
X4609643Y-12893579D01*
X4881071Y-12879293D02*
X4895357Y-12893579D01*
X4881071Y-12907864D01*
X4866786Y-12893579D01*
X4881071Y-12879293D01*
X4881071Y-12907864D01*
X4881071Y-12722150D02*
X4895357Y-12736436D01*
X4881071Y-12750721D01*
X4866786Y-12736436D01*
X4881071Y-12722150D01*
X4881071Y-12750721D01*
X2497500Y-13382150D02*
X2537500Y-13422150D01*
X2537500Y-13382150D02*
X2497500Y-13422150D01*
X2881071Y-13237864D02*
X2909643Y-13237864D01*
X2938214Y-13252150D01*
X2952500Y-13266436D01*
X2966786Y-13295007D01*
X2981071Y-13352150D01*
X2981071Y-13423579D01*
X2966786Y-13480721D01*
X2952500Y-13509293D01*
X2938214Y-13523579D01*
X2909643Y-13537864D01*
X2881071Y-13537864D01*
X2852500Y-13523579D01*
X2838214Y-13509293D01*
X2823928Y-13480721D01*
X2809643Y-13423579D01*
X2809643Y-13352150D01*
X2823928Y-13295007D01*
X2838214Y-13266436D01*
X2852500Y-13252150D01*
X2881071Y-13237864D01*
X3109643Y-13509293D02*
X3123928Y-13523579D01*
X3109643Y-13537864D01*
X3095357Y-13523579D01*
X3109643Y-13509293D01*
X3109643Y-13537864D01*
X3381071Y-13337864D02*
X3381071Y-13537864D01*
X3309643Y-13223579D02*
X3238214Y-13437864D01*
X3423928Y-13437864D01*
X3595357Y-13237864D02*
X3623928Y-13237864D01*
X3652500Y-13252150D01*
X3666786Y-13266436D01*
X3681071Y-13295007D01*
X3695357Y-13352150D01*
X3695357Y-13423579D01*
X3681071Y-13480721D01*
X3666786Y-13509293D01*
X3652500Y-13523579D01*
X3623928Y-13537864D01*
X3595357Y-13537864D01*
X3566786Y-13523579D01*
X3552500Y-13509293D01*
X3538214Y-13480721D01*
X3523928Y-13423579D01*
X3523928Y-13352150D01*
X3538214Y-13295007D01*
X3552500Y-13266436D01*
X3566786Y-13252150D01*
X3595357Y-13237864D01*
X3881071Y-13237864D02*
X3909643Y-13237864D01*
X3938214Y-13252150D01*
X3952500Y-13266436D01*
X3966786Y-13295007D01*
X3981071Y-13352150D01*
X3981071Y-13423579D01*
X3966786Y-13480721D01*
X3952500Y-13509293D01*
X3938214Y-13523579D01*
X3909643Y-13537864D01*
X3881071Y-13537864D01*
X3852500Y-13523579D01*
X3838214Y-13509293D01*
X3823928Y-13480721D01*
X3809643Y-13423579D01*
X3809643Y-13352150D01*
X3823928Y-13295007D01*
X3838214Y-13266436D01*
X3852500Y-13252150D01*
X3881071Y-13237864D01*
X4109643Y-13537864D02*
X4109643Y-13337864D01*
X4109643Y-13366436D02*
X4123928Y-13352150D01*
X4152500Y-13337864D01*
X4195357Y-13337864D01*
X4223928Y-13352150D01*
X4238214Y-13380721D01*
X4238214Y-13537864D01*
X4238214Y-13380721D02*
X4252500Y-13352150D01*
X4281071Y-13337864D01*
X4323928Y-13337864D01*
X4352500Y-13352150D01*
X4366786Y-13380721D01*
X4366786Y-13537864D01*
X4509643Y-13537864D02*
X4509643Y-13337864D01*
X4509643Y-13366436D02*
X4523928Y-13352150D01*
X4552500Y-13337864D01*
X4595357Y-13337864D01*
X4623928Y-13352150D01*
X4638214Y-13380721D01*
X4638214Y-13537864D01*
X4638214Y-13380721D02*
X4652500Y-13352150D01*
X4681071Y-13337864D01*
X4723928Y-13337864D01*
X4752500Y-13352150D01*
X4766786Y-13380721D01*
X4766786Y-13537864D01*
X5352500Y-13223579D02*
X5095357Y-13609293D01*
X5738214Y-13237864D02*
X5766786Y-13237864D01*
X5795357Y-13252150D01*
X5809643Y-13266436D01*
X5823928Y-13295007D01*
X5838214Y-13352150D01*
X5838214Y-13423579D01*
X5823928Y-13480721D01*
X5809643Y-13509293D01*
X5795357Y-13523579D01*
X5766786Y-13537864D01*
X5738214Y-13537864D01*
X5709643Y-13523579D01*
X5695357Y-13509293D01*
X5681071Y-13480721D01*
X5666786Y-13423579D01*
X5666786Y-13352150D01*
X5681071Y-13295007D01*
X5695357Y-13266436D01*
X5709643Y-13252150D01*
X5738214Y-13237864D01*
X5966786Y-13509293D02*
X5981071Y-13523579D01*
X5966786Y-13537864D01*
X5952500Y-13523579D01*
X5966786Y-13509293D01*
X5966786Y-13537864D01*
X6166786Y-13237864D02*
X6195357Y-13237864D01*
X6223928Y-13252150D01*
X6238214Y-13266436D01*
X6252500Y-13295007D01*
X6266786Y-13352150D01*
X6266786Y-13423579D01*
X6252500Y-13480721D01*
X6238214Y-13509293D01*
X6223928Y-13523579D01*
X6195357Y-13537864D01*
X6166786Y-13537864D01*
X6138214Y-13523579D01*
X6123928Y-13509293D01*
X6109643Y-13480721D01*
X6095357Y-13423579D01*
X6095357Y-13352150D01*
X6109643Y-13295007D01*
X6123928Y-13266436D01*
X6138214Y-13252150D01*
X6166786Y-13237864D01*
X6552500Y-13537864D02*
X6381071Y-13537864D01*
X6466786Y-13537864D02*
X6466786Y-13237864D01*
X6438214Y-13280721D01*
X6409643Y-13309293D01*
X6381071Y-13323579D01*
X6823928Y-13237864D02*
X6681071Y-13237864D01*
X6666786Y-13380721D01*
X6681071Y-13366436D01*
X6709643Y-13352150D01*
X6781071Y-13352150D01*
X6809643Y-13366436D01*
X6823928Y-13380721D01*
X6838214Y-13409293D01*
X6838214Y-13480721D01*
X6823928Y-13509293D01*
X6809643Y-13523579D01*
X6781071Y-13537864D01*
X6709643Y-13537864D01*
X6681071Y-13523579D01*
X6666786Y-13509293D01*
X6938214Y-13237864D02*
X7138214Y-13237864D01*
X7009643Y-13537864D01*
X7238214Y-13237864D02*
X7238214Y-13295007D01*
X7352500Y-13237864D02*
X7352500Y-13295007D01*
X7795357Y-13652150D02*
X7781071Y-13637864D01*
X7752500Y-13595007D01*
X7738214Y-13566436D01*
X7723928Y-13523579D01*
X7709643Y-13452150D01*
X7709643Y-13395007D01*
X7723928Y-13323579D01*
X7738214Y-13280721D01*
X7752500Y-13252150D01*
X7781071Y-13209293D01*
X7795357Y-13195007D01*
X8038214Y-13237864D02*
X7981071Y-13237864D01*
X7952500Y-13252150D01*
X7938214Y-13266436D01*
X7909643Y-13309293D01*
X7895357Y-13366436D01*
X7895357Y-13480721D01*
X7909643Y-13509293D01*
X7923928Y-13523579D01*
X7952500Y-13537864D01*
X8009643Y-13537864D01*
X8038214Y-13523579D01*
X8052500Y-13509293D01*
X8066786Y-13480721D01*
X8066786Y-13409293D01*
X8052500Y-13380721D01*
X8038214Y-13366436D01*
X8009643Y-13352150D01*
X7952500Y-13352150D01*
X7923928Y-13366436D01*
X7909643Y-13380721D01*
X7895357Y-13409293D01*
X8323928Y-13237864D02*
X8266786Y-13237864D01*
X8238214Y-13252150D01*
X8223928Y-13266436D01*
X8195357Y-13309293D01*
X8181071Y-13366436D01*
X8181071Y-13480721D01*
X8195357Y-13509293D01*
X8209643Y-13523579D01*
X8238214Y-13537864D01*
X8295357Y-13537864D01*
X8323928Y-13523579D01*
X8338214Y-13509293D01*
X8352500Y-13480721D01*
X8352500Y-13409293D01*
X8338214Y-13380721D01*
X8323928Y-13366436D01*
X8295357Y-13352150D01*
X8238214Y-13352150D01*
X8209643Y-13366436D01*
X8195357Y-13380721D01*
X8181071Y-13409293D01*
X8709643Y-13537864D02*
X8709643Y-13237864D01*
X8838214Y-13537864D02*
X8838214Y-13380721D01*
X8823928Y-13352150D01*
X8795357Y-13337864D01*
X8752500Y-13337864D01*
X8723928Y-13352150D01*
X8709643Y-13366436D01*
X9023928Y-13537864D02*
X8995357Y-13523579D01*
X8981071Y-13509293D01*
X8966786Y-13480721D01*
X8966786Y-13395007D01*
X8981071Y-13366436D01*
X8995357Y-13352150D01*
X9023928Y-13337864D01*
X9066786Y-13337864D01*
X9095357Y-13352150D01*
X9109643Y-13366436D01*
X9123928Y-13395007D01*
X9123928Y-13480721D01*
X9109643Y-13509293D01*
X9095357Y-13523579D01*
X9066786Y-13537864D01*
X9023928Y-13537864D01*
X9295357Y-13537864D02*
X9266786Y-13523579D01*
X9252500Y-13495007D01*
X9252500Y-13237864D01*
X9523928Y-13523579D02*
X9495357Y-13537864D01*
X9438214Y-13537864D01*
X9409643Y-13523579D01*
X9395357Y-13495007D01*
X9395357Y-13380721D01*
X9409643Y-13352150D01*
X9438214Y-13337864D01*
X9495357Y-13337864D01*
X9523928Y-13352150D01*
X9538214Y-13380721D01*
X9538214Y-13409293D01*
X9395357Y-13437864D01*
X9652500Y-13523579D02*
X9681071Y-13537864D01*
X9738214Y-13537864D01*
X9766786Y-13523579D01*
X9781071Y-13495007D01*
X9781071Y-13480721D01*
X9766786Y-13452150D01*
X9738214Y-13437864D01*
X9695357Y-13437864D01*
X9666786Y-13423579D01*
X9652500Y-13395007D01*
X9652500Y-13380721D01*
X9666786Y-13352150D01*
X9695357Y-13337864D01*
X9738214Y-13337864D01*
X9766786Y-13352150D01*
X9881071Y-13652150D02*
X9895357Y-13637864D01*
X9923928Y-13595007D01*
X9938214Y-13566436D01*
X9952500Y-13523579D01*
X9966786Y-13452150D01*
X9966786Y-13395007D01*
X9952500Y-13323579D01*
X9938214Y-13280721D01*
X9923928Y-13252150D01*
X9895357Y-13209293D01*
X9881071Y-13195007D01*
X2537500Y-13798150D02*
G75*
G03*
X2537500Y-13798150I-30000J0D01*
G01*
X2881071Y-13633864D02*
X2909643Y-13633864D01*
X2938214Y-13648150D01*
X2952500Y-13662436D01*
X2966786Y-13691007D01*
X2981071Y-13748150D01*
X2981071Y-13819579D01*
X2966786Y-13876721D01*
X2952500Y-13905293D01*
X2938214Y-13919579D01*
X2909643Y-13933864D01*
X2881071Y-13933864D01*
X2852500Y-13919579D01*
X2838214Y-13905293D01*
X2823928Y-13876721D01*
X2809643Y-13819579D01*
X2809643Y-13748150D01*
X2823928Y-13691007D01*
X2838214Y-13662436D01*
X2852500Y-13648150D01*
X2881071Y-13633864D01*
X3109643Y-13905293D02*
X3123928Y-13919579D01*
X3109643Y-13933864D01*
X3095357Y-13919579D01*
X3109643Y-13905293D01*
X3109643Y-13933864D01*
X3381071Y-13633864D02*
X3323928Y-13633864D01*
X3295357Y-13648150D01*
X3281071Y-13662436D01*
X3252500Y-13705293D01*
X3238214Y-13762436D01*
X3238214Y-13876721D01*
X3252500Y-13905293D01*
X3266786Y-13919579D01*
X3295357Y-13933864D01*
X3352500Y-13933864D01*
X3381071Y-13919579D01*
X3395357Y-13905293D01*
X3409643Y-13876721D01*
X3409643Y-13805293D01*
X3395357Y-13776721D01*
X3381071Y-13762436D01*
X3352500Y-13748150D01*
X3295357Y-13748150D01*
X3266786Y-13762436D01*
X3252500Y-13776721D01*
X3238214Y-13805293D01*
X3595357Y-13633864D02*
X3623928Y-13633864D01*
X3652500Y-13648150D01*
X3666786Y-13662436D01*
X3681071Y-13691007D01*
X3695357Y-13748150D01*
X3695357Y-13819579D01*
X3681071Y-13876721D01*
X3666786Y-13905293D01*
X3652500Y-13919579D01*
X3623928Y-13933864D01*
X3595357Y-13933864D01*
X3566786Y-13919579D01*
X3552500Y-13905293D01*
X3538214Y-13876721D01*
X3523928Y-13819579D01*
X3523928Y-13748150D01*
X3538214Y-13691007D01*
X3552500Y-13662436D01*
X3566786Y-13648150D01*
X3595357Y-13633864D01*
X3881071Y-13633864D02*
X3909643Y-13633864D01*
X3938214Y-13648150D01*
X3952500Y-13662436D01*
X3966786Y-13691007D01*
X3981071Y-13748150D01*
X3981071Y-13819579D01*
X3966786Y-13876721D01*
X3952500Y-13905293D01*
X3938214Y-13919579D01*
X3909643Y-13933864D01*
X3881071Y-13933864D01*
X3852500Y-13919579D01*
X3838214Y-13905293D01*
X3823928Y-13876721D01*
X3809643Y-13819579D01*
X3809643Y-13748150D01*
X3823928Y-13691007D01*
X3838214Y-13662436D01*
X3852500Y-13648150D01*
X3881071Y-13633864D01*
X4109643Y-13933864D02*
X4109643Y-13733864D01*
X4109643Y-13762436D02*
X4123928Y-13748150D01*
X4152500Y-13733864D01*
X4195357Y-13733864D01*
X4223928Y-13748150D01*
X4238214Y-13776721D01*
X4238214Y-13933864D01*
X4238214Y-13776721D02*
X4252500Y-13748150D01*
X4281071Y-13733864D01*
X4323928Y-13733864D01*
X4352500Y-13748150D01*
X4366786Y-13776721D01*
X4366786Y-13933864D01*
X4509643Y-13933864D02*
X4509643Y-13733864D01*
X4509643Y-13762436D02*
X4523928Y-13748150D01*
X4552500Y-13733864D01*
X4595357Y-13733864D01*
X4623928Y-13748150D01*
X4638214Y-13776721D01*
X4638214Y-13933864D01*
X4638214Y-13776721D02*
X4652500Y-13748150D01*
X4681071Y-13733864D01*
X4723928Y-13733864D01*
X4752500Y-13748150D01*
X4766786Y-13776721D01*
X4766786Y-13933864D01*
X5352500Y-13619579D02*
X5095357Y-14005293D01*
X5738214Y-13633864D02*
X5766786Y-13633864D01*
X5795357Y-13648150D01*
X5809643Y-13662436D01*
X5823928Y-13691007D01*
X5838214Y-13748150D01*
X5838214Y-13819579D01*
X5823928Y-13876721D01*
X5809643Y-13905293D01*
X5795357Y-13919579D01*
X5766786Y-13933864D01*
X5738214Y-13933864D01*
X5709643Y-13919579D01*
X5695357Y-13905293D01*
X5681071Y-13876721D01*
X5666786Y-13819579D01*
X5666786Y-13748150D01*
X5681071Y-13691007D01*
X5695357Y-13662436D01*
X5709643Y-13648150D01*
X5738214Y-13633864D01*
X5966786Y-13905293D02*
X5981071Y-13919579D01*
X5966786Y-13933864D01*
X5952500Y-13919579D01*
X5966786Y-13905293D01*
X5966786Y-13933864D01*
X6166786Y-13633864D02*
X6195357Y-13633864D01*
X6223928Y-13648150D01*
X6238214Y-13662436D01*
X6252500Y-13691007D01*
X6266786Y-13748150D01*
X6266786Y-13819579D01*
X6252500Y-13876721D01*
X6238214Y-13905293D01*
X6223928Y-13919579D01*
X6195357Y-13933864D01*
X6166786Y-13933864D01*
X6138214Y-13919579D01*
X6123928Y-13905293D01*
X6109643Y-13876721D01*
X6095357Y-13819579D01*
X6095357Y-13748150D01*
X6109643Y-13691007D01*
X6123928Y-13662436D01*
X6138214Y-13648150D01*
X6166786Y-13633864D01*
X6381071Y-13662436D02*
X6395357Y-13648150D01*
X6423928Y-13633864D01*
X6495357Y-13633864D01*
X6523928Y-13648150D01*
X6538214Y-13662436D01*
X6552500Y-13691007D01*
X6552500Y-13719579D01*
X6538214Y-13762436D01*
X6366786Y-13933864D01*
X6552500Y-13933864D01*
X6652500Y-13633864D02*
X6838214Y-13633864D01*
X6738214Y-13748150D01*
X6781071Y-13748150D01*
X6809643Y-13762436D01*
X6823928Y-13776721D01*
X6838214Y-13805293D01*
X6838214Y-13876721D01*
X6823928Y-13905293D01*
X6809643Y-13919579D01*
X6781071Y-13933864D01*
X6695357Y-13933864D01*
X6666786Y-13919579D01*
X6652500Y-13905293D01*
X7095357Y-13633864D02*
X7038214Y-13633864D01*
X7009643Y-13648150D01*
X6995357Y-13662436D01*
X6966786Y-13705293D01*
X6952500Y-13762436D01*
X6952500Y-13876721D01*
X6966786Y-13905293D01*
X6981071Y-13919579D01*
X7009643Y-13933864D01*
X7066786Y-13933864D01*
X7095357Y-13919579D01*
X7109643Y-13905293D01*
X7123928Y-13876721D01*
X7123928Y-13805293D01*
X7109643Y-13776721D01*
X7095357Y-13762436D01*
X7066786Y-13748150D01*
X7009643Y-13748150D01*
X6981071Y-13762436D01*
X6966786Y-13776721D01*
X6952500Y-13805293D01*
X7238214Y-13633864D02*
X7238214Y-13691007D01*
X7352500Y-13633864D02*
X7352500Y-13691007D01*
X7795357Y-14048150D02*
X7781071Y-14033864D01*
X7752500Y-13991007D01*
X7738214Y-13962436D01*
X7723928Y-13919579D01*
X7709643Y-13848150D01*
X7709643Y-13791007D01*
X7723928Y-13719579D01*
X7738214Y-13676721D01*
X7752500Y-13648150D01*
X7781071Y-13605293D01*
X7795357Y-13591007D01*
X7966786Y-13633864D02*
X7995357Y-13633864D01*
X8023928Y-13648150D01*
X8038214Y-13662436D01*
X8052500Y-13691007D01*
X8066786Y-13748150D01*
X8066786Y-13819579D01*
X8052500Y-13876721D01*
X8038214Y-13905293D01*
X8023928Y-13919579D01*
X7995357Y-13933864D01*
X7966786Y-13933864D01*
X7938214Y-13919579D01*
X7923928Y-13905293D01*
X7909643Y-13876721D01*
X7895357Y-13819579D01*
X7895357Y-13748150D01*
X7909643Y-13691007D01*
X7923928Y-13662436D01*
X7938214Y-13648150D01*
X7966786Y-13633864D01*
X8423928Y-13933864D02*
X8423928Y-13633864D01*
X8552500Y-13933864D02*
X8552500Y-13776721D01*
X8538214Y-13748150D01*
X8509643Y-13733864D01*
X8466786Y-13733864D01*
X8438214Y-13748150D01*
X8423928Y-13762436D01*
X8738214Y-13933864D02*
X8709643Y-13919579D01*
X8695357Y-13905293D01*
X8681071Y-13876721D01*
X8681071Y-13791007D01*
X8695357Y-13762436D01*
X8709643Y-13748150D01*
X8738214Y-13733864D01*
X8781071Y-13733864D01*
X8809643Y-13748150D01*
X8823928Y-13762436D01*
X8838214Y-13791007D01*
X8838214Y-13876721D01*
X8823928Y-13905293D01*
X8809643Y-13919579D01*
X8781071Y-13933864D01*
X8738214Y-13933864D01*
X9009643Y-13933864D02*
X8981071Y-13919579D01*
X8966786Y-13891007D01*
X8966786Y-13633864D01*
X9238214Y-13919579D02*
X9209643Y-13933864D01*
X9152500Y-13933864D01*
X9123928Y-13919579D01*
X9109643Y-13891007D01*
X9109643Y-13776721D01*
X9123928Y-13748150D01*
X9152500Y-13733864D01*
X9209643Y-13733864D01*
X9238214Y-13748150D01*
X9252500Y-13776721D01*
X9252500Y-13805293D01*
X9109643Y-13833864D01*
X9366786Y-13919579D02*
X9395357Y-13933864D01*
X9452500Y-13933864D01*
X9481071Y-13919579D01*
X9495357Y-13891007D01*
X9495357Y-13876721D01*
X9481071Y-13848150D01*
X9452500Y-13833864D01*
X9409643Y-13833864D01*
X9381071Y-13819579D01*
X9366786Y-13791007D01*
X9366786Y-13776721D01*
X9381071Y-13748150D01*
X9409643Y-13733864D01*
X9452500Y-13733864D01*
X9481071Y-13748150D01*
X9852500Y-13819579D02*
X10081071Y-13819579D01*
X9966786Y-13933864D02*
X9966786Y-13705293D01*
X10581071Y-13733864D02*
X10581071Y-13933864D01*
X10509643Y-13619579D02*
X10438214Y-13833864D01*
X10623928Y-13833864D01*
X10952500Y-13919579D02*
X10981071Y-13933864D01*
X11038214Y-13933864D01*
X11066786Y-13919579D01*
X11081071Y-13891007D01*
X11081071Y-13876721D01*
X11066786Y-13848150D01*
X11038214Y-13833864D01*
X10995357Y-13833864D01*
X10966786Y-13819579D01*
X10952500Y-13791007D01*
X10952500Y-13776721D01*
X10966786Y-13748150D01*
X10995357Y-13733864D01*
X11038214Y-13733864D01*
X11066786Y-13748150D01*
X11252500Y-13933864D02*
X11223928Y-13919579D01*
X11209643Y-13891007D01*
X11209643Y-13633864D01*
X11409643Y-13933864D02*
X11381071Y-13919579D01*
X11366786Y-13905293D01*
X11352500Y-13876721D01*
X11352500Y-13791007D01*
X11366786Y-13762436D01*
X11381071Y-13748150D01*
X11409643Y-13733864D01*
X11452500Y-13733864D01*
X11481071Y-13748150D01*
X11495357Y-13762436D01*
X11509643Y-13791007D01*
X11509643Y-13876721D01*
X11495357Y-13905293D01*
X11481071Y-13919579D01*
X11452500Y-13933864D01*
X11409643Y-13933864D01*
X11595357Y-13733864D02*
X11709643Y-13733864D01*
X11638214Y-13633864D02*
X11638214Y-13891007D01*
X11652500Y-13919579D01*
X11681071Y-13933864D01*
X11709643Y-13933864D01*
X11795357Y-13919579D02*
X11823928Y-13933864D01*
X11881071Y-13933864D01*
X11909643Y-13919579D01*
X11923928Y-13891007D01*
X11923928Y-13876721D01*
X11909643Y-13848150D01*
X11881071Y-13833864D01*
X11838214Y-13833864D01*
X11809643Y-13819579D01*
X11795357Y-13791007D01*
X11795357Y-13776721D01*
X11809643Y-13748150D01*
X11838214Y-13733864D01*
X11881071Y-13733864D01*
X11909643Y-13748150D01*
X12023928Y-14048150D02*
X12038214Y-14033864D01*
X12066786Y-13991007D01*
X12081071Y-13962436D01*
X12095357Y-13919579D01*
X12109643Y-13848150D01*
X12109643Y-13791007D01*
X12095357Y-13719579D01*
X12081071Y-13676721D01*
X12066786Y-13648150D01*
X12038214Y-13605293D01*
X12023928Y-13591007D01*
X2500000Y-14156650D02*
X2500000Y-14231650D01*
X2462500Y-14194150D02*
X2537500Y-14194150D01*
X2881071Y-14029864D02*
X2909643Y-14029864D01*
X2938214Y-14044150D01*
X2952500Y-14058436D01*
X2966786Y-14087007D01*
X2981071Y-14144150D01*
X2981071Y-14215579D01*
X2966786Y-14272721D01*
X2952500Y-14301293D01*
X2938214Y-14315579D01*
X2909643Y-14329864D01*
X2881071Y-14329864D01*
X2852500Y-14315579D01*
X2838214Y-14301293D01*
X2823928Y-14272721D01*
X2809643Y-14215579D01*
X2809643Y-14144150D01*
X2823928Y-14087007D01*
X2838214Y-14058436D01*
X2852500Y-14044150D01*
X2881071Y-14029864D01*
X3109643Y-14301293D02*
X3123928Y-14315579D01*
X3109643Y-14329864D01*
X3095357Y-14315579D01*
X3109643Y-14301293D01*
X3109643Y-14329864D01*
X3223928Y-14029864D02*
X3423928Y-14029864D01*
X3295357Y-14329864D01*
X3681071Y-14029864D02*
X3538214Y-14029864D01*
X3523928Y-14172721D01*
X3538214Y-14158436D01*
X3566786Y-14144150D01*
X3638214Y-14144150D01*
X3666786Y-14158436D01*
X3681071Y-14172721D01*
X3695357Y-14201293D01*
X3695357Y-14272721D01*
X3681071Y-14301293D01*
X3666786Y-14315579D01*
X3638214Y-14329864D01*
X3566786Y-14329864D01*
X3538214Y-14315579D01*
X3523928Y-14301293D01*
X3881071Y-14029864D02*
X3909643Y-14029864D01*
X3938214Y-14044150D01*
X3952500Y-14058436D01*
X3966786Y-14087007D01*
X3981071Y-14144150D01*
X3981071Y-14215579D01*
X3966786Y-14272721D01*
X3952500Y-14301293D01*
X3938214Y-14315579D01*
X3909643Y-14329864D01*
X3881071Y-14329864D01*
X3852500Y-14315579D01*
X3838214Y-14301293D01*
X3823928Y-14272721D01*
X3809643Y-14215579D01*
X3809643Y-14144150D01*
X3823928Y-14087007D01*
X3838214Y-14058436D01*
X3852500Y-14044150D01*
X3881071Y-14029864D01*
X4109643Y-14329864D02*
X4109643Y-14129864D01*
X4109643Y-14158436D02*
X4123928Y-14144150D01*
X4152500Y-14129864D01*
X4195357Y-14129864D01*
X4223928Y-14144150D01*
X4238214Y-14172721D01*
X4238214Y-14329864D01*
X4238214Y-14172721D02*
X4252500Y-14144150D01*
X4281071Y-14129864D01*
X4323928Y-14129864D01*
X4352500Y-14144150D01*
X4366786Y-14172721D01*
X4366786Y-14329864D01*
X4509643Y-14329864D02*
X4509643Y-14129864D01*
X4509643Y-14158436D02*
X4523928Y-14144150D01*
X4552500Y-14129864D01*
X4595357Y-14129864D01*
X4623928Y-14144150D01*
X4638214Y-14172721D01*
X4638214Y-14329864D01*
X4638214Y-14172721D02*
X4652500Y-14144150D01*
X4681071Y-14129864D01*
X4723928Y-14129864D01*
X4752500Y-14144150D01*
X4766786Y-14172721D01*
X4766786Y-14329864D01*
X5352500Y-14015579D02*
X5095357Y-14401293D01*
X5738214Y-14029864D02*
X5766786Y-14029864D01*
X5795357Y-14044150D01*
X5809643Y-14058436D01*
X5823928Y-14087007D01*
X5838214Y-14144150D01*
X5838214Y-14215579D01*
X5823928Y-14272721D01*
X5809643Y-14301293D01*
X5795357Y-14315579D01*
X5766786Y-14329864D01*
X5738214Y-14329864D01*
X5709643Y-14315579D01*
X5695357Y-14301293D01*
X5681071Y-14272721D01*
X5666786Y-14215579D01*
X5666786Y-14144150D01*
X5681071Y-14087007D01*
X5695357Y-14058436D01*
X5709643Y-14044150D01*
X5738214Y-14029864D01*
X5966786Y-14301293D02*
X5981071Y-14315579D01*
X5966786Y-14329864D01*
X5952500Y-14315579D01*
X5966786Y-14301293D01*
X5966786Y-14329864D01*
X6166786Y-14029864D02*
X6195357Y-14029864D01*
X6223928Y-14044150D01*
X6238214Y-14058436D01*
X6252500Y-14087007D01*
X6266786Y-14144150D01*
X6266786Y-14215579D01*
X6252500Y-14272721D01*
X6238214Y-14301293D01*
X6223928Y-14315579D01*
X6195357Y-14329864D01*
X6166786Y-14329864D01*
X6138214Y-14315579D01*
X6123928Y-14301293D01*
X6109643Y-14272721D01*
X6095357Y-14215579D01*
X6095357Y-14144150D01*
X6109643Y-14087007D01*
X6123928Y-14058436D01*
X6138214Y-14044150D01*
X6166786Y-14029864D01*
X6381071Y-14058436D02*
X6395357Y-14044150D01*
X6423928Y-14029864D01*
X6495357Y-14029864D01*
X6523928Y-14044150D01*
X6538214Y-14058436D01*
X6552500Y-14087007D01*
X6552500Y-14115579D01*
X6538214Y-14158436D01*
X6366786Y-14329864D01*
X6552500Y-14329864D01*
X6695357Y-14329864D02*
X6752500Y-14329864D01*
X6781071Y-14315579D01*
X6795357Y-14301293D01*
X6823928Y-14258436D01*
X6838214Y-14201293D01*
X6838214Y-14087007D01*
X6823928Y-14058436D01*
X6809643Y-14044150D01*
X6781071Y-14029864D01*
X6723928Y-14029864D01*
X6695357Y-14044150D01*
X6681071Y-14058436D01*
X6666786Y-14087007D01*
X6666786Y-14158436D01*
X6681071Y-14187007D01*
X6695357Y-14201293D01*
X6723928Y-14215579D01*
X6781071Y-14215579D01*
X6809643Y-14201293D01*
X6823928Y-14187007D01*
X6838214Y-14158436D01*
X7109643Y-14029864D02*
X6966786Y-14029864D01*
X6952500Y-14172721D01*
X6966786Y-14158436D01*
X6995357Y-14144150D01*
X7066786Y-14144150D01*
X7095357Y-14158436D01*
X7109643Y-14172721D01*
X7123928Y-14201293D01*
X7123928Y-14272721D01*
X7109643Y-14301293D01*
X7095357Y-14315579D01*
X7066786Y-14329864D01*
X6995357Y-14329864D01*
X6966786Y-14315579D01*
X6952500Y-14301293D01*
X7238214Y-14029864D02*
X7238214Y-14087007D01*
X7352500Y-14029864D02*
X7352500Y-14087007D01*
X7795357Y-14444150D02*
X7781071Y-14429864D01*
X7752500Y-14387007D01*
X7738214Y-14358436D01*
X7723928Y-14315579D01*
X7709643Y-14244150D01*
X7709643Y-14187007D01*
X7723928Y-14115579D01*
X7738214Y-14072721D01*
X7752500Y-14044150D01*
X7781071Y-14001293D01*
X7795357Y-13987007D01*
X8038214Y-14129864D02*
X8038214Y-14329864D01*
X7966786Y-14015579D02*
X7895357Y-14229864D01*
X8081071Y-14229864D01*
X8181071Y-14058436D02*
X8195357Y-14044150D01*
X8223928Y-14029864D01*
X8295357Y-14029864D01*
X8323928Y-14044150D01*
X8338214Y-14058436D01*
X8352500Y-14087007D01*
X8352500Y-14115579D01*
X8338214Y-14158436D01*
X8166786Y-14329864D01*
X8352500Y-14329864D01*
X8709643Y-14329864D02*
X8709643Y-14029864D01*
X8838214Y-14329864D02*
X8838214Y-14172721D01*
X8823928Y-14144150D01*
X8795357Y-14129864D01*
X8752500Y-14129864D01*
X8723928Y-14144150D01*
X8709643Y-14158436D01*
X9023928Y-14329864D02*
X8995357Y-14315579D01*
X8981071Y-14301293D01*
X8966786Y-14272721D01*
X8966786Y-14187007D01*
X8981071Y-14158436D01*
X8995357Y-14144150D01*
X9023928Y-14129864D01*
X9066786Y-14129864D01*
X9095357Y-14144150D01*
X9109643Y-14158436D01*
X9123928Y-14187007D01*
X9123928Y-14272721D01*
X9109643Y-14301293D01*
X9095357Y-14315579D01*
X9066786Y-14329864D01*
X9023928Y-14329864D01*
X9295357Y-14329864D02*
X9266786Y-14315579D01*
X9252500Y-14287007D01*
X9252500Y-14029864D01*
X9523928Y-14315579D02*
X9495357Y-14329864D01*
X9438214Y-14329864D01*
X9409643Y-14315579D01*
X9395357Y-14287007D01*
X9395357Y-14172721D01*
X9409643Y-14144150D01*
X9438214Y-14129864D01*
X9495357Y-14129864D01*
X9523928Y-14144150D01*
X9538214Y-14172721D01*
X9538214Y-14201293D01*
X9395357Y-14229864D01*
X9652500Y-14315579D02*
X9681071Y-14329864D01*
X9738214Y-14329864D01*
X9766786Y-14315579D01*
X9781071Y-14287007D01*
X9781071Y-14272721D01*
X9766786Y-14244150D01*
X9738214Y-14229864D01*
X9695357Y-14229864D01*
X9666786Y-14215579D01*
X9652500Y-14187007D01*
X9652500Y-14172721D01*
X9666786Y-14144150D01*
X9695357Y-14129864D01*
X9738214Y-14129864D01*
X9766786Y-14144150D01*
X9881071Y-14444150D02*
X9895357Y-14429864D01*
X9923928Y-14387007D01*
X9938214Y-14358436D01*
X9952500Y-14315579D01*
X9966786Y-14244150D01*
X9966786Y-14187007D01*
X9952500Y-14115579D01*
X9938214Y-14072721D01*
X9923928Y-14044150D01*
X9895357Y-14001293D01*
X9881071Y-13987007D01*
X2526341Y-14617091D02*
X2526341Y-14563209D01*
X2472459Y-14563209D01*
X2472459Y-14617091D01*
X2526341Y-14617091D01*
X2881071Y-14425864D02*
X2909643Y-14425864D01*
X2938214Y-14440150D01*
X2952500Y-14454436D01*
X2966786Y-14483007D01*
X2981071Y-14540150D01*
X2981071Y-14611579D01*
X2966786Y-14668721D01*
X2952500Y-14697293D01*
X2938214Y-14711579D01*
X2909643Y-14725864D01*
X2881071Y-14725864D01*
X2852500Y-14711579D01*
X2838214Y-14697293D01*
X2823928Y-14668721D01*
X2809643Y-14611579D01*
X2809643Y-14540150D01*
X2823928Y-14483007D01*
X2838214Y-14454436D01*
X2852500Y-14440150D01*
X2881071Y-14425864D01*
X3109643Y-14697293D02*
X3123928Y-14711579D01*
X3109643Y-14725864D01*
X3095357Y-14711579D01*
X3109643Y-14697293D01*
X3109643Y-14725864D01*
X3223928Y-14425864D02*
X3423928Y-14425864D01*
X3295357Y-14725864D01*
X3666786Y-14425864D02*
X3609643Y-14425864D01*
X3581071Y-14440150D01*
X3566786Y-14454436D01*
X3538214Y-14497293D01*
X3523928Y-14554436D01*
X3523928Y-14668721D01*
X3538214Y-14697293D01*
X3552500Y-14711579D01*
X3581071Y-14725864D01*
X3638214Y-14725864D01*
X3666786Y-14711579D01*
X3681071Y-14697293D01*
X3695357Y-14668721D01*
X3695357Y-14597293D01*
X3681071Y-14568721D01*
X3666786Y-14554436D01*
X3638214Y-14540150D01*
X3581071Y-14540150D01*
X3552500Y-14554436D01*
X3538214Y-14568721D01*
X3523928Y-14597293D01*
X3809643Y-14454436D02*
X3823928Y-14440150D01*
X3852500Y-14425864D01*
X3923928Y-14425864D01*
X3952500Y-14440150D01*
X3966786Y-14454436D01*
X3981071Y-14483007D01*
X3981071Y-14511579D01*
X3966786Y-14554436D01*
X3795357Y-14725864D01*
X3981071Y-14725864D01*
X4109643Y-14725864D02*
X4109643Y-14525864D01*
X4109643Y-14554436D02*
X4123928Y-14540150D01*
X4152500Y-14525864D01*
X4195357Y-14525864D01*
X4223928Y-14540150D01*
X4238214Y-14568721D01*
X4238214Y-14725864D01*
X4238214Y-14568721D02*
X4252500Y-14540150D01*
X4281071Y-14525864D01*
X4323928Y-14525864D01*
X4352500Y-14540150D01*
X4366786Y-14568721D01*
X4366786Y-14725864D01*
X4509643Y-14725864D02*
X4509643Y-14525864D01*
X4509643Y-14554436D02*
X4523928Y-14540150D01*
X4552500Y-14525864D01*
X4595357Y-14525864D01*
X4623928Y-14540150D01*
X4638214Y-14568721D01*
X4638214Y-14725864D01*
X4638214Y-14568721D02*
X4652500Y-14540150D01*
X4681071Y-14525864D01*
X4723928Y-14525864D01*
X4752500Y-14540150D01*
X4766786Y-14568721D01*
X4766786Y-14725864D01*
X5352500Y-14411579D02*
X5095357Y-14797293D01*
X5738214Y-14425864D02*
X5766786Y-14425864D01*
X5795357Y-14440150D01*
X5809643Y-14454436D01*
X5823928Y-14483007D01*
X5838214Y-14540150D01*
X5838214Y-14611579D01*
X5823928Y-14668721D01*
X5809643Y-14697293D01*
X5795357Y-14711579D01*
X5766786Y-14725864D01*
X5738214Y-14725864D01*
X5709643Y-14711579D01*
X5695357Y-14697293D01*
X5681071Y-14668721D01*
X5666786Y-14611579D01*
X5666786Y-14540150D01*
X5681071Y-14483007D01*
X5695357Y-14454436D01*
X5709643Y-14440150D01*
X5738214Y-14425864D01*
X5966786Y-14697293D02*
X5981071Y-14711579D01*
X5966786Y-14725864D01*
X5952500Y-14711579D01*
X5966786Y-14697293D01*
X5966786Y-14725864D01*
X6166786Y-14425864D02*
X6195357Y-14425864D01*
X6223928Y-14440150D01*
X6238214Y-14454436D01*
X6252500Y-14483007D01*
X6266786Y-14540150D01*
X6266786Y-14611579D01*
X6252500Y-14668721D01*
X6238214Y-14697293D01*
X6223928Y-14711579D01*
X6195357Y-14725864D01*
X6166786Y-14725864D01*
X6138214Y-14711579D01*
X6123928Y-14697293D01*
X6109643Y-14668721D01*
X6095357Y-14611579D01*
X6095357Y-14540150D01*
X6109643Y-14483007D01*
X6123928Y-14454436D01*
X6138214Y-14440150D01*
X6166786Y-14425864D01*
X6366786Y-14425864D02*
X6552500Y-14425864D01*
X6452500Y-14540150D01*
X6495357Y-14540150D01*
X6523928Y-14554436D01*
X6538214Y-14568721D01*
X6552500Y-14597293D01*
X6552500Y-14668721D01*
X6538214Y-14697293D01*
X6523928Y-14711579D01*
X6495357Y-14725864D01*
X6409643Y-14725864D01*
X6381071Y-14711579D01*
X6366786Y-14697293D01*
X6738214Y-14425864D02*
X6766786Y-14425864D01*
X6795357Y-14440150D01*
X6809643Y-14454436D01*
X6823928Y-14483007D01*
X6838214Y-14540150D01*
X6838214Y-14611579D01*
X6823928Y-14668721D01*
X6809643Y-14697293D01*
X6795357Y-14711579D01*
X6766786Y-14725864D01*
X6738214Y-14725864D01*
X6709643Y-14711579D01*
X6695357Y-14697293D01*
X6681071Y-14668721D01*
X6666786Y-14611579D01*
X6666786Y-14540150D01*
X6681071Y-14483007D01*
X6695357Y-14454436D01*
X6709643Y-14440150D01*
X6738214Y-14425864D01*
X7023928Y-14425864D02*
X7052500Y-14425864D01*
X7081071Y-14440150D01*
X7095357Y-14454436D01*
X7109643Y-14483007D01*
X7123928Y-14540150D01*
X7123928Y-14611579D01*
X7109643Y-14668721D01*
X7095357Y-14697293D01*
X7081071Y-14711579D01*
X7052500Y-14725864D01*
X7023928Y-14725864D01*
X6995357Y-14711579D01*
X6981071Y-14697293D01*
X6966786Y-14668721D01*
X6952500Y-14611579D01*
X6952500Y-14540150D01*
X6966786Y-14483007D01*
X6981071Y-14454436D01*
X6995357Y-14440150D01*
X7023928Y-14425864D01*
X7238214Y-14425864D02*
X7238214Y-14483007D01*
X7352500Y-14425864D02*
X7352500Y-14483007D01*
X7795357Y-14840150D02*
X7781071Y-14825864D01*
X7752500Y-14783007D01*
X7738214Y-14754436D01*
X7723928Y-14711579D01*
X7709643Y-14640150D01*
X7709643Y-14583007D01*
X7723928Y-14511579D01*
X7738214Y-14468721D01*
X7752500Y-14440150D01*
X7781071Y-14397293D01*
X7795357Y-14383007D01*
X7881071Y-14425864D02*
X8066786Y-14425864D01*
X7966786Y-14540150D01*
X8009643Y-14540150D01*
X8038214Y-14554436D01*
X8052500Y-14568721D01*
X8066786Y-14597293D01*
X8066786Y-14668721D01*
X8052500Y-14697293D01*
X8038214Y-14711579D01*
X8009643Y-14725864D01*
X7923928Y-14725864D01*
X7895357Y-14711579D01*
X7881071Y-14697293D01*
X8238214Y-14554436D02*
X8209643Y-14540150D01*
X8195357Y-14525864D01*
X8181071Y-14497293D01*
X8181071Y-14483007D01*
X8195357Y-14454436D01*
X8209643Y-14440150D01*
X8238214Y-14425864D01*
X8295357Y-14425864D01*
X8323928Y-14440150D01*
X8338214Y-14454436D01*
X8352500Y-14483007D01*
X8352500Y-14497293D01*
X8338214Y-14525864D01*
X8323928Y-14540150D01*
X8295357Y-14554436D01*
X8238214Y-14554436D01*
X8209643Y-14568721D01*
X8195357Y-14583007D01*
X8181071Y-14611579D01*
X8181071Y-14668721D01*
X8195357Y-14697293D01*
X8209643Y-14711579D01*
X8238214Y-14725864D01*
X8295357Y-14725864D01*
X8323928Y-14711579D01*
X8338214Y-14697293D01*
X8352500Y-14668721D01*
X8352500Y-14611579D01*
X8338214Y-14583007D01*
X8323928Y-14568721D01*
X8295357Y-14554436D01*
X8709643Y-14725864D02*
X8709643Y-14425864D01*
X8838214Y-14725864D02*
X8838214Y-14568721D01*
X8823928Y-14540150D01*
X8795357Y-14525864D01*
X8752500Y-14525864D01*
X8723928Y-14540150D01*
X8709643Y-14554436D01*
X9023928Y-14725864D02*
X8995357Y-14711579D01*
X8981071Y-14697293D01*
X8966786Y-14668721D01*
X8966786Y-14583007D01*
X8981071Y-14554436D01*
X8995357Y-14540150D01*
X9023928Y-14525864D01*
X9066786Y-14525864D01*
X9095357Y-14540150D01*
X9109643Y-14554436D01*
X9123928Y-14583007D01*
X9123928Y-14668721D01*
X9109643Y-14697293D01*
X9095357Y-14711579D01*
X9066786Y-14725864D01*
X9023928Y-14725864D01*
X9295357Y-14725864D02*
X9266786Y-14711579D01*
X9252500Y-14683007D01*
X9252500Y-14425864D01*
X9523928Y-14711579D02*
X9495357Y-14725864D01*
X9438214Y-14725864D01*
X9409643Y-14711579D01*
X9395357Y-14683007D01*
X9395357Y-14568721D01*
X9409643Y-14540150D01*
X9438214Y-14525864D01*
X9495357Y-14525864D01*
X9523928Y-14540150D01*
X9538214Y-14568721D01*
X9538214Y-14597293D01*
X9395357Y-14625864D01*
X9652500Y-14711579D02*
X9681071Y-14725864D01*
X9738214Y-14725864D01*
X9766786Y-14711579D01*
X9781071Y-14683007D01*
X9781071Y-14668721D01*
X9766786Y-14640150D01*
X9738214Y-14625864D01*
X9695357Y-14625864D01*
X9666786Y-14611579D01*
X9652500Y-14583007D01*
X9652500Y-14568721D01*
X9666786Y-14540150D01*
X9695357Y-14525864D01*
X9738214Y-14525864D01*
X9766786Y-14540150D01*
X9881071Y-14840150D02*
X9895357Y-14825864D01*
X9923928Y-14783007D01*
X9938214Y-14754436D01*
X9952500Y-14711579D01*
X9966786Y-14640150D01*
X9966786Y-14583007D01*
X9952500Y-14511579D01*
X9938214Y-14468721D01*
X9923928Y-14440150D01*
X9895357Y-14397293D01*
X9881071Y-14383007D01*
X2487500Y-15036150D02*
X2537500Y-14986150D01*
X2487500Y-14936150D01*
X2437500Y-14986150D01*
X2487500Y-15036150D01*
X2981071Y-15121864D02*
X2809643Y-15121864D01*
X2895357Y-15121864D02*
X2895357Y-14821864D01*
X2866786Y-14864721D01*
X2838214Y-14893293D01*
X2809643Y-14907579D01*
X3109643Y-15093293D02*
X3123928Y-15107579D01*
X3109643Y-15121864D01*
X3095357Y-15107579D01*
X3109643Y-15093293D01*
X3109643Y-15121864D01*
X3309643Y-14821864D02*
X3338214Y-14821864D01*
X3366786Y-14836150D01*
X3381071Y-14850436D01*
X3395357Y-14879007D01*
X3409643Y-14936150D01*
X3409643Y-15007579D01*
X3395357Y-15064721D01*
X3381071Y-15093293D01*
X3366786Y-15107579D01*
X3338214Y-15121864D01*
X3309643Y-15121864D01*
X3281071Y-15107579D01*
X3266786Y-15093293D01*
X3252500Y-15064721D01*
X3238214Y-15007579D01*
X3238214Y-14936150D01*
X3252500Y-14879007D01*
X3266786Y-14850436D01*
X3281071Y-14836150D01*
X3309643Y-14821864D01*
X3595357Y-14821864D02*
X3623928Y-14821864D01*
X3652500Y-14836150D01*
X3666786Y-14850436D01*
X3681071Y-14879007D01*
X3695357Y-14936150D01*
X3695357Y-15007579D01*
X3681071Y-15064721D01*
X3666786Y-15093293D01*
X3652500Y-15107579D01*
X3623928Y-15121864D01*
X3595357Y-15121864D01*
X3566786Y-15107579D01*
X3552500Y-15093293D01*
X3538214Y-15064721D01*
X3523928Y-15007579D01*
X3523928Y-14936150D01*
X3538214Y-14879007D01*
X3552500Y-14850436D01*
X3566786Y-14836150D01*
X3595357Y-14821864D01*
X3881071Y-14821864D02*
X3909643Y-14821864D01*
X3938214Y-14836150D01*
X3952500Y-14850436D01*
X3966786Y-14879007D01*
X3981071Y-14936150D01*
X3981071Y-15007579D01*
X3966786Y-15064721D01*
X3952500Y-15093293D01*
X3938214Y-15107579D01*
X3909643Y-15121864D01*
X3881071Y-15121864D01*
X3852500Y-15107579D01*
X3838214Y-15093293D01*
X3823928Y-15064721D01*
X3809643Y-15007579D01*
X3809643Y-14936150D01*
X3823928Y-14879007D01*
X3838214Y-14850436D01*
X3852500Y-14836150D01*
X3881071Y-14821864D01*
X4109643Y-15121864D02*
X4109643Y-14921864D01*
X4109643Y-14950436D02*
X4123928Y-14936150D01*
X4152500Y-14921864D01*
X4195357Y-14921864D01*
X4223928Y-14936150D01*
X4238214Y-14964721D01*
X4238214Y-15121864D01*
X4238214Y-14964721D02*
X4252500Y-14936150D01*
X4281071Y-14921864D01*
X4323928Y-14921864D01*
X4352500Y-14936150D01*
X4366786Y-14964721D01*
X4366786Y-15121864D01*
X4509643Y-15121864D02*
X4509643Y-14921864D01*
X4509643Y-14950436D02*
X4523928Y-14936150D01*
X4552500Y-14921864D01*
X4595357Y-14921864D01*
X4623928Y-14936150D01*
X4638214Y-14964721D01*
X4638214Y-15121864D01*
X4638214Y-14964721D02*
X4652500Y-14936150D01*
X4681071Y-14921864D01*
X4723928Y-14921864D01*
X4752500Y-14936150D01*
X4766786Y-14964721D01*
X4766786Y-15121864D01*
X5352500Y-14807579D02*
X5095357Y-15193293D01*
X5738214Y-14821864D02*
X5766786Y-14821864D01*
X5795357Y-14836150D01*
X5809643Y-14850436D01*
X5823928Y-14879007D01*
X5838214Y-14936150D01*
X5838214Y-15007579D01*
X5823928Y-15064721D01*
X5809643Y-15093293D01*
X5795357Y-15107579D01*
X5766786Y-15121864D01*
X5738214Y-15121864D01*
X5709643Y-15107579D01*
X5695357Y-15093293D01*
X5681071Y-15064721D01*
X5666786Y-15007579D01*
X5666786Y-14936150D01*
X5681071Y-14879007D01*
X5695357Y-14850436D01*
X5709643Y-14836150D01*
X5738214Y-14821864D01*
X5966786Y-15093293D02*
X5981071Y-15107579D01*
X5966786Y-15121864D01*
X5952500Y-15107579D01*
X5966786Y-15093293D01*
X5966786Y-15121864D01*
X6166786Y-14821864D02*
X6195357Y-14821864D01*
X6223928Y-14836150D01*
X6238214Y-14850436D01*
X6252500Y-14879007D01*
X6266786Y-14936150D01*
X6266786Y-15007579D01*
X6252500Y-15064721D01*
X6238214Y-15093293D01*
X6223928Y-15107579D01*
X6195357Y-15121864D01*
X6166786Y-15121864D01*
X6138214Y-15107579D01*
X6123928Y-15093293D01*
X6109643Y-15064721D01*
X6095357Y-15007579D01*
X6095357Y-14936150D01*
X6109643Y-14879007D01*
X6123928Y-14850436D01*
X6138214Y-14836150D01*
X6166786Y-14821864D01*
X6366786Y-14821864D02*
X6552500Y-14821864D01*
X6452500Y-14936150D01*
X6495357Y-14936150D01*
X6523928Y-14950436D01*
X6538214Y-14964721D01*
X6552500Y-14993293D01*
X6552500Y-15064721D01*
X6538214Y-15093293D01*
X6523928Y-15107579D01*
X6495357Y-15121864D01*
X6409643Y-15121864D01*
X6381071Y-15107579D01*
X6366786Y-15093293D01*
X6695357Y-15121864D02*
X6752500Y-15121864D01*
X6781071Y-15107579D01*
X6795357Y-15093293D01*
X6823928Y-15050436D01*
X6838214Y-14993293D01*
X6838214Y-14879007D01*
X6823928Y-14850436D01*
X6809643Y-14836150D01*
X6781071Y-14821864D01*
X6723928Y-14821864D01*
X6695357Y-14836150D01*
X6681071Y-14850436D01*
X6666786Y-14879007D01*
X6666786Y-14950436D01*
X6681071Y-14979007D01*
X6695357Y-14993293D01*
X6723928Y-15007579D01*
X6781071Y-15007579D01*
X6809643Y-14993293D01*
X6823928Y-14979007D01*
X6838214Y-14950436D01*
X7095357Y-14921864D02*
X7095357Y-15121864D01*
X7023928Y-14807579D02*
X6952500Y-15021864D01*
X7138214Y-15021864D01*
X7238214Y-14821864D02*
X7238214Y-14879007D01*
X7352500Y-14821864D02*
X7352500Y-14879007D01*
X7795357Y-15236150D02*
X7781071Y-15221864D01*
X7752500Y-15179007D01*
X7738214Y-15150436D01*
X7723928Y-15107579D01*
X7709643Y-15036150D01*
X7709643Y-14979007D01*
X7723928Y-14907579D01*
X7738214Y-14864721D01*
X7752500Y-14836150D01*
X7781071Y-14793293D01*
X7795357Y-14779007D01*
X8066786Y-15121864D02*
X7895357Y-15121864D01*
X7981071Y-15121864D02*
X7981071Y-14821864D01*
X7952500Y-14864721D01*
X7923928Y-14893293D01*
X7895357Y-14907579D01*
X8166786Y-14821864D02*
X8366786Y-14821864D01*
X8238214Y-15121864D01*
X8709643Y-15121864D02*
X8709643Y-14821864D01*
X8838214Y-15121864D02*
X8838214Y-14964721D01*
X8823928Y-14936150D01*
X8795357Y-14921864D01*
X8752500Y-14921864D01*
X8723928Y-14936150D01*
X8709643Y-14950436D01*
X9023928Y-15121864D02*
X8995357Y-15107579D01*
X8981071Y-15093293D01*
X8966786Y-15064721D01*
X8966786Y-14979007D01*
X8981071Y-14950436D01*
X8995357Y-14936150D01*
X9023928Y-14921864D01*
X9066786Y-14921864D01*
X9095357Y-14936150D01*
X9109643Y-14950436D01*
X9123928Y-14979007D01*
X9123928Y-15064721D01*
X9109643Y-15093293D01*
X9095357Y-15107579D01*
X9066786Y-15121864D01*
X9023928Y-15121864D01*
X9295357Y-15121864D02*
X9266786Y-15107579D01*
X9252500Y-15079007D01*
X9252500Y-14821864D01*
X9523928Y-15107579D02*
X9495357Y-15121864D01*
X9438214Y-15121864D01*
X9409643Y-15107579D01*
X9395357Y-15079007D01*
X9395357Y-14964721D01*
X9409643Y-14936150D01*
X9438214Y-14921864D01*
X9495357Y-14921864D01*
X9523928Y-14936150D01*
X9538214Y-14964721D01*
X9538214Y-14993293D01*
X9395357Y-15021864D01*
X9652500Y-15107579D02*
X9681071Y-15121864D01*
X9738214Y-15121864D01*
X9766786Y-15107579D01*
X9781071Y-15079007D01*
X9781071Y-15064721D01*
X9766786Y-15036150D01*
X9738214Y-15021864D01*
X9695357Y-15021864D01*
X9666786Y-15007579D01*
X9652500Y-14979007D01*
X9652500Y-14964721D01*
X9666786Y-14936150D01*
X9695357Y-14921864D01*
X9738214Y-14921864D01*
X9766786Y-14936150D01*
X10138214Y-15007579D02*
X10366786Y-15007579D01*
X10252500Y-15121864D02*
X10252500Y-14893293D01*
X10709643Y-14821864D02*
X10895357Y-14821864D01*
X10795357Y-14936150D01*
X10838214Y-14936150D01*
X10866786Y-14950436D01*
X10881071Y-14964721D01*
X10895357Y-14993293D01*
X10895357Y-15064721D01*
X10881071Y-15093293D01*
X10866786Y-15107579D01*
X10838214Y-15121864D01*
X10752500Y-15121864D01*
X10723928Y-15107579D01*
X10709643Y-15093293D01*
X11238214Y-15107579D02*
X11266786Y-15121864D01*
X11323928Y-15121864D01*
X11352500Y-15107579D01*
X11366786Y-15079007D01*
X11366786Y-15064721D01*
X11352500Y-15036150D01*
X11323928Y-15021864D01*
X11281071Y-15021864D01*
X11252500Y-15007579D01*
X11238214Y-14979007D01*
X11238214Y-14964721D01*
X11252500Y-14936150D01*
X11281071Y-14921864D01*
X11323928Y-14921864D01*
X11352500Y-14936150D01*
X11538214Y-15121864D02*
X11509643Y-15107579D01*
X11495357Y-15079007D01*
X11495357Y-14821864D01*
X11695357Y-15121864D02*
X11666786Y-15107579D01*
X11652500Y-15093293D01*
X11638214Y-15064721D01*
X11638214Y-14979007D01*
X11652500Y-14950436D01*
X11666786Y-14936150D01*
X11695357Y-14921864D01*
X11738214Y-14921864D01*
X11766786Y-14936150D01*
X11781071Y-14950436D01*
X11795357Y-14979007D01*
X11795357Y-15064721D01*
X11781071Y-15093293D01*
X11766786Y-15107579D01*
X11738214Y-15121864D01*
X11695357Y-15121864D01*
X11881071Y-14921864D02*
X11995357Y-14921864D01*
X11923928Y-14821864D02*
X11923928Y-15079007D01*
X11938214Y-15107579D01*
X11966786Y-15121864D01*
X11995357Y-15121864D01*
X12081071Y-15107579D02*
X12109643Y-15121864D01*
X12166786Y-15121864D01*
X12195357Y-15107579D01*
X12209643Y-15079007D01*
X12209643Y-15064721D01*
X12195357Y-15036150D01*
X12166786Y-15021864D01*
X12123928Y-15021864D01*
X12095357Y-15007579D01*
X12081071Y-14979007D01*
X12081071Y-14964721D01*
X12095357Y-14936150D01*
X12123928Y-14921864D01*
X12166786Y-14921864D01*
X12195357Y-14936150D01*
X12309643Y-15236150D02*
X12323928Y-15221864D01*
X12352500Y-15179007D01*
X12366786Y-15150436D01*
X12381071Y-15107579D01*
X12395357Y-15036150D01*
X12395357Y-14979007D01*
X12381071Y-14907579D01*
X12366786Y-14864721D01*
X12352500Y-14836150D01*
X12323928Y-14793293D01*
X12309643Y-14779007D01*
M02*
