M48
; DRILL file {KiCad (5.1.10)-1} date 02/17/22 21:35:23
; FORMAT={-:-/ absolute / metric / decimal}
; #@! TF.CreationDate,2022-02-17T21:35:23+00:00
; #@! TF.GenerationSoftware,Kicad,Pcbnew,(5.1.10)-1
; #@! TF.FileFunction,Plated,1,2,PTH
FMAT,2
METRIC
T1C0.400
T2C0.600
T3C0.750
T4C0.762
T5C1.000
%
G90
G05
T1
X30.607Y-110.871
X32.004Y-112.395
X37.987Y-110.65
X43.942Y-110.236
X50.546Y-104.013
X57.531Y-106.68
X57.658Y-108.179
X64.795Y-99.492
X69.088Y-86.106
X72.072Y-114.109
X75.565Y-100.711
X76.454Y-114.109
X80.137Y-120.442
X80.137Y-121.492
X84.074Y-86.741
X90.485Y-85.025
X92.138Y-74.803
X92.178Y-76.748
X93.876Y-70.485
X94.27Y-81.062
X94.561Y-111.643
X95.304Y-112.385
X96.329Y-76.01
X96.642Y-82.534
X97.815Y-73.33
X97.843Y-82.197
X99.319Y-88.749
X100.315Y-88.052
X101.054Y-84.849
X101.065Y-80.645
X101.201Y-86.371
X101.219Y-73.025
X101.906Y-85.63
X102.298Y-114.109
X103.255Y-84.569
X104.16Y-114.701
X104.203Y-111.633
X104.215Y-83.477
X105.791Y-76.581
X105.791Y-79.184
X105.855Y-77.978
X105.981Y-113.093
X106.553Y-83.883
X106.806Y-74.739
X106.934Y-79.184
X106.95Y-76.629
X106.95Y-77.898
X108.013Y-77.851
X108.013Y-79.184
X108.077Y-76.644
X108.077Y-116.84
X108.27Y-86.349
X109.363Y-90.051
X109.791Y-106.108
X109.791Y-107.913
X109.855Y-102.489
X111.946Y-89.61
X111.951Y-105.41
X113.7Y-75.815
X114.51Y-82.291
X116.509Y-88.108
X116.649Y-107.569
X118.459Y-88.294
X118.567Y-86.995
X118.88Y-91.774
X121.933Y-90.846
T3
X32.893Y-79.248
X32.893Y-81.248
X32.893Y-83.248
X32.893Y-88.773
X32.893Y-90.773
X38.227Y-116.84
X40.024Y-76.708
X40.227Y-116.84
X42.024Y-76.708
X45.593Y-116.84
X47.498Y-76.708
X47.593Y-116.84
X49.498Y-76.708
X49.593Y-116.84
X51.498Y-76.708
X54.864Y-116.84
X56.864Y-116.84
X56.979Y-76.708
X58.864Y-116.84
X58.979Y-76.708
X60.864Y-116.84
X60.979Y-76.708
X62.864Y-116.84
X62.979Y-76.708
X64.864Y-116.84
X68.409Y-76.657
X70.104Y-116.84
X70.409Y-76.657
X72.104Y-116.84
X72.409Y-76.657
X74.104Y-116.84
X76.104Y-116.84
X77.934Y-76.708
X78.104Y-116.84
X79.934Y-76.708
X80.104Y-116.84
X81.934Y-76.708
X82.104Y-116.84
X83.934Y-76.708
X84.104Y-116.84
X117.475Y-102.14
X117.475Y-104.14
T4
X46.355Y-83.693
X46.355Y-91.313
X46.355Y-93.853
X46.355Y-96.393
X47.625Y-92.583
X48.895Y-83.693
X48.895Y-96.393
X51.435Y-83.693
X51.435Y-96.393
X53.975Y-83.693
X53.975Y-96.393
X56.515Y-83.693
X56.515Y-96.393
X59.055Y-83.693
X59.055Y-96.393
X61.595Y-83.693
X61.595Y-96.393
X64.135Y-83.693
X64.135Y-96.393
X67.691Y-83.693
X67.691Y-91.313
X67.691Y-93.853
X67.691Y-96.393
X68.961Y-92.583
X70.231Y-83.693
X70.231Y-96.393
X72.771Y-83.693
X72.771Y-96.393
X75.311Y-83.693
X75.311Y-96.393
X77.851Y-83.693
X77.851Y-96.393
X80.391Y-83.693
X80.391Y-96.393
X82.931Y-83.693
X82.931Y-96.393
X85.471Y-83.693
X85.471Y-96.393
T5
X38.735Y-81.28
X38.735Y-83.82
X38.735Y-86.36
X88.9Y-104.394
X88.9Y-106.934
X88.9Y-109.474
X88.9Y-112.014
X88.9Y-114.554
X89.535Y-83.058
X89.599Y-78.803
X91.44Y-104.394
X91.44Y-106.934
X91.44Y-109.474
X91.44Y-112.014
X91.44Y-114.554
X92.075Y-83.058
X92.138Y-78.803
T2
X28.714Y-106.678G85X28.114Y-106.678
G05
X28.714Y-115.318G85X28.114Y-115.318
G05
X33.144Y-106.678G85X32.044Y-106.678
G05
X33.144Y-115.318G85X32.044Y-115.318
G05
T5
X33.37Y-97.806G85X33.37Y-99.806
G05
X35.37Y-103.506G85X37.37Y-103.506
G05
X39.37Y-97.806G85X39.37Y-99.806
G05
T0
M30
