%TF.GenerationSoftware,KiCad,Pcbnew,(5.1.10)-1*%
%TF.CreationDate,2022-01-11T19:27:46+00:00*%
%TF.ProjectId,ESP32_Plotter_Controller_revB1,45535033-325f-4506-9c6f-747465725f43,rev?*%
%TF.SameCoordinates,Original*%
%TF.FileFunction,Paste,Top*%
%TF.FilePolarity,Positive*%
%FSLAX46Y46*%
G04 Gerber Fmt 4.6, Leading zero omitted, Abs format (unit mm)*
G04 Created by KiCad (PCBNEW (5.1.10)-1) date 2022-01-11 19:27:46*
%MOMM*%
%LPD*%
G01*
G04 APERTURE LIST*
%ADD10R,1.200000X0.900000*%
%ADD11R,0.900000X1.200000*%
%ADD12R,1.450000X0.600000*%
%ADD13R,1.450000X0.300000*%
%ADD14R,2.000000X0.900000*%
%ADD15R,0.900000X2.000000*%
%ADD16R,5.000000X5.000000*%
%ADD17R,5.400000X2.900000*%
%ADD18R,1.500000X2.000000*%
%ADD19R,3.800000X2.000000*%
%ADD20R,1.000000X1.500000*%
%ADD21R,1.200000X2.000000*%
%ADD22R,1.200000X1.400000*%
%ADD23R,0.700000X1.300000*%
G04 APERTURE END LIST*
G36*
G01*
X59413000Y-108634000D02*
X59713000Y-108634000D01*
G75*
G02*
X59863000Y-108784000I0J-150000D01*
G01*
X59863000Y-110234000D01*
G75*
G02*
X59713000Y-110384000I-150000J0D01*
G01*
X59413000Y-110384000D01*
G75*
G02*
X59263000Y-110234000I0J150000D01*
G01*
X59263000Y-108784000D01*
G75*
G02*
X59413000Y-108634000I150000J0D01*
G01*
G37*
G36*
G01*
X58143000Y-108634000D02*
X58443000Y-108634000D01*
G75*
G02*
X58593000Y-108784000I0J-150000D01*
G01*
X58593000Y-110234000D01*
G75*
G02*
X58443000Y-110384000I-150000J0D01*
G01*
X58143000Y-110384000D01*
G75*
G02*
X57993000Y-110234000I0J150000D01*
G01*
X57993000Y-108784000D01*
G75*
G02*
X58143000Y-108634000I150000J0D01*
G01*
G37*
G36*
G01*
X56873000Y-108634000D02*
X57173000Y-108634000D01*
G75*
G02*
X57323000Y-108784000I0J-150000D01*
G01*
X57323000Y-110234000D01*
G75*
G02*
X57173000Y-110384000I-150000J0D01*
G01*
X56873000Y-110384000D01*
G75*
G02*
X56723000Y-110234000I0J150000D01*
G01*
X56723000Y-108784000D01*
G75*
G02*
X56873000Y-108634000I150000J0D01*
G01*
G37*
G36*
G01*
X55603000Y-108634000D02*
X55903000Y-108634000D01*
G75*
G02*
X56053000Y-108784000I0J-150000D01*
G01*
X56053000Y-110234000D01*
G75*
G02*
X55903000Y-110384000I-150000J0D01*
G01*
X55603000Y-110384000D01*
G75*
G02*
X55453000Y-110234000I0J150000D01*
G01*
X55453000Y-108784000D01*
G75*
G02*
X55603000Y-108634000I150000J0D01*
G01*
G37*
G36*
G01*
X55603000Y-103484000D02*
X55903000Y-103484000D01*
G75*
G02*
X56053000Y-103634000I0J-150000D01*
G01*
X56053000Y-105084000D01*
G75*
G02*
X55903000Y-105234000I-150000J0D01*
G01*
X55603000Y-105234000D01*
G75*
G02*
X55453000Y-105084000I0J150000D01*
G01*
X55453000Y-103634000D01*
G75*
G02*
X55603000Y-103484000I150000J0D01*
G01*
G37*
G36*
G01*
X56873000Y-103484000D02*
X57173000Y-103484000D01*
G75*
G02*
X57323000Y-103634000I0J-150000D01*
G01*
X57323000Y-105084000D01*
G75*
G02*
X57173000Y-105234000I-150000J0D01*
G01*
X56873000Y-105234000D01*
G75*
G02*
X56723000Y-105084000I0J150000D01*
G01*
X56723000Y-103634000D01*
G75*
G02*
X56873000Y-103484000I150000J0D01*
G01*
G37*
G36*
G01*
X58143000Y-103484000D02*
X58443000Y-103484000D01*
G75*
G02*
X58593000Y-103634000I0J-150000D01*
G01*
X58593000Y-105084000D01*
G75*
G02*
X58443000Y-105234000I-150000J0D01*
G01*
X58143000Y-105234000D01*
G75*
G02*
X57993000Y-105084000I0J150000D01*
G01*
X57993000Y-103634000D01*
G75*
G02*
X58143000Y-103484000I150000J0D01*
G01*
G37*
G36*
G01*
X59413000Y-103484000D02*
X59713000Y-103484000D01*
G75*
G02*
X59863000Y-103634000I0J-150000D01*
G01*
X59863000Y-105084000D01*
G75*
G02*
X59713000Y-105234000I-150000J0D01*
G01*
X59413000Y-105234000D01*
G75*
G02*
X59263000Y-105084000I0J150000D01*
G01*
X59263000Y-103634000D01*
G75*
G02*
X59413000Y-103484000I150000J0D01*
G01*
G37*
D10*
X40386000Y-106554000D03*
X40386000Y-109854000D03*
D11*
X56008000Y-101219000D03*
X59308000Y-101219000D03*
G36*
G01*
X85464201Y-89266000D02*
X84614199Y-89266000D01*
G75*
G02*
X84364200Y-89016001I0J249999D01*
G01*
X84364200Y-88115999D01*
G75*
G02*
X84614199Y-87866000I249999J0D01*
G01*
X85464201Y-87866000D01*
G75*
G02*
X85714200Y-88115999I0J-249999D01*
G01*
X85714200Y-89016001D01*
G75*
G02*
X85464201Y-89266000I-249999J0D01*
G01*
G37*
G36*
G01*
X85464201Y-91966000D02*
X84614199Y-91966000D01*
G75*
G02*
X84364200Y-91716001I0J249999D01*
G01*
X84364200Y-90815999D01*
G75*
G02*
X84614199Y-90566000I249999J0D01*
G01*
X85464201Y-90566000D01*
G75*
G02*
X85714200Y-90815999I0J-249999D01*
G01*
X85714200Y-91716001D01*
G75*
G02*
X85464201Y-91966000I-249999J0D01*
G01*
G37*
G36*
G01*
X89757500Y-96196599D02*
X89757500Y-97046601D01*
G75*
G02*
X89507501Y-97296600I-249999J0D01*
G01*
X88607499Y-97296600D01*
G75*
G02*
X88357500Y-97046601I0J249999D01*
G01*
X88357500Y-96196599D01*
G75*
G02*
X88607499Y-95946600I249999J0D01*
G01*
X89507501Y-95946600D01*
G75*
G02*
X89757500Y-96196599I0J-249999D01*
G01*
G37*
G36*
G01*
X92457500Y-96196599D02*
X92457500Y-97046601D01*
G75*
G02*
X92207501Y-97296600I-249999J0D01*
G01*
X91307499Y-97296600D01*
G75*
G02*
X91057500Y-97046601I0J249999D01*
G01*
X91057500Y-96196599D01*
G75*
G02*
X91307499Y-95946600I249999J0D01*
G01*
X92207501Y-95946600D01*
G75*
G02*
X92457500Y-96196599I0J-249999D01*
G01*
G37*
G36*
G01*
X111801000Y-95607000D02*
X112101000Y-95607000D01*
G75*
G02*
X112251000Y-95757000I0J-150000D01*
G01*
X112251000Y-97407000D01*
G75*
G02*
X112101000Y-97557000I-150000J0D01*
G01*
X111801000Y-97557000D01*
G75*
G02*
X111651000Y-97407000I0J150000D01*
G01*
X111651000Y-95757000D01*
G75*
G02*
X111801000Y-95607000I150000J0D01*
G01*
G37*
G36*
G01*
X110531000Y-95607000D02*
X110831000Y-95607000D01*
G75*
G02*
X110981000Y-95757000I0J-150000D01*
G01*
X110981000Y-97407000D01*
G75*
G02*
X110831000Y-97557000I-150000J0D01*
G01*
X110531000Y-97557000D01*
G75*
G02*
X110381000Y-97407000I0J150000D01*
G01*
X110381000Y-95757000D01*
G75*
G02*
X110531000Y-95607000I150000J0D01*
G01*
G37*
G36*
G01*
X109261000Y-95607000D02*
X109561000Y-95607000D01*
G75*
G02*
X109711000Y-95757000I0J-150000D01*
G01*
X109711000Y-97407000D01*
G75*
G02*
X109561000Y-97557000I-150000J0D01*
G01*
X109261000Y-97557000D01*
G75*
G02*
X109111000Y-97407000I0J150000D01*
G01*
X109111000Y-95757000D01*
G75*
G02*
X109261000Y-95607000I150000J0D01*
G01*
G37*
G36*
G01*
X107991000Y-95607000D02*
X108291000Y-95607000D01*
G75*
G02*
X108441000Y-95757000I0J-150000D01*
G01*
X108441000Y-97407000D01*
G75*
G02*
X108291000Y-97557000I-150000J0D01*
G01*
X107991000Y-97557000D01*
G75*
G02*
X107841000Y-97407000I0J150000D01*
G01*
X107841000Y-95757000D01*
G75*
G02*
X107991000Y-95607000I150000J0D01*
G01*
G37*
G36*
G01*
X106721000Y-95607000D02*
X107021000Y-95607000D01*
G75*
G02*
X107171000Y-95757000I0J-150000D01*
G01*
X107171000Y-97407000D01*
G75*
G02*
X107021000Y-97557000I-150000J0D01*
G01*
X106721000Y-97557000D01*
G75*
G02*
X106571000Y-97407000I0J150000D01*
G01*
X106571000Y-95757000D01*
G75*
G02*
X106721000Y-95607000I150000J0D01*
G01*
G37*
G36*
G01*
X105451000Y-95607000D02*
X105751000Y-95607000D01*
G75*
G02*
X105901000Y-95757000I0J-150000D01*
G01*
X105901000Y-97407000D01*
G75*
G02*
X105751000Y-97557000I-150000J0D01*
G01*
X105451000Y-97557000D01*
G75*
G02*
X105301000Y-97407000I0J150000D01*
G01*
X105301000Y-95757000D01*
G75*
G02*
X105451000Y-95607000I150000J0D01*
G01*
G37*
G36*
G01*
X104181000Y-95607000D02*
X104481000Y-95607000D01*
G75*
G02*
X104631000Y-95757000I0J-150000D01*
G01*
X104631000Y-97407000D01*
G75*
G02*
X104481000Y-97557000I-150000J0D01*
G01*
X104181000Y-97557000D01*
G75*
G02*
X104031000Y-97407000I0J150000D01*
G01*
X104031000Y-95757000D01*
G75*
G02*
X104181000Y-95607000I150000J0D01*
G01*
G37*
G36*
G01*
X102911000Y-95607000D02*
X103211000Y-95607000D01*
G75*
G02*
X103361000Y-95757000I0J-150000D01*
G01*
X103361000Y-97407000D01*
G75*
G02*
X103211000Y-97557000I-150000J0D01*
G01*
X102911000Y-97557000D01*
G75*
G02*
X102761000Y-97407000I0J150000D01*
G01*
X102761000Y-95757000D01*
G75*
G02*
X102911000Y-95607000I150000J0D01*
G01*
G37*
G36*
G01*
X102911000Y-90657000D02*
X103211000Y-90657000D01*
G75*
G02*
X103361000Y-90807000I0J-150000D01*
G01*
X103361000Y-92457000D01*
G75*
G02*
X103211000Y-92607000I-150000J0D01*
G01*
X102911000Y-92607000D01*
G75*
G02*
X102761000Y-92457000I0J150000D01*
G01*
X102761000Y-90807000D01*
G75*
G02*
X102911000Y-90657000I150000J0D01*
G01*
G37*
G36*
G01*
X104181000Y-90657000D02*
X104481000Y-90657000D01*
G75*
G02*
X104631000Y-90807000I0J-150000D01*
G01*
X104631000Y-92457000D01*
G75*
G02*
X104481000Y-92607000I-150000J0D01*
G01*
X104181000Y-92607000D01*
G75*
G02*
X104031000Y-92457000I0J150000D01*
G01*
X104031000Y-90807000D01*
G75*
G02*
X104181000Y-90657000I150000J0D01*
G01*
G37*
G36*
G01*
X105451000Y-90657000D02*
X105751000Y-90657000D01*
G75*
G02*
X105901000Y-90807000I0J-150000D01*
G01*
X105901000Y-92457000D01*
G75*
G02*
X105751000Y-92607000I-150000J0D01*
G01*
X105451000Y-92607000D01*
G75*
G02*
X105301000Y-92457000I0J150000D01*
G01*
X105301000Y-90807000D01*
G75*
G02*
X105451000Y-90657000I150000J0D01*
G01*
G37*
G36*
G01*
X106721000Y-90657000D02*
X107021000Y-90657000D01*
G75*
G02*
X107171000Y-90807000I0J-150000D01*
G01*
X107171000Y-92457000D01*
G75*
G02*
X107021000Y-92607000I-150000J0D01*
G01*
X106721000Y-92607000D01*
G75*
G02*
X106571000Y-92457000I0J150000D01*
G01*
X106571000Y-90807000D01*
G75*
G02*
X106721000Y-90657000I150000J0D01*
G01*
G37*
G36*
G01*
X107991000Y-90657000D02*
X108291000Y-90657000D01*
G75*
G02*
X108441000Y-90807000I0J-150000D01*
G01*
X108441000Y-92457000D01*
G75*
G02*
X108291000Y-92607000I-150000J0D01*
G01*
X107991000Y-92607000D01*
G75*
G02*
X107841000Y-92457000I0J150000D01*
G01*
X107841000Y-90807000D01*
G75*
G02*
X107991000Y-90657000I150000J0D01*
G01*
G37*
G36*
G01*
X109261000Y-90657000D02*
X109561000Y-90657000D01*
G75*
G02*
X109711000Y-90807000I0J-150000D01*
G01*
X109711000Y-92457000D01*
G75*
G02*
X109561000Y-92607000I-150000J0D01*
G01*
X109261000Y-92607000D01*
G75*
G02*
X109111000Y-92457000I0J150000D01*
G01*
X109111000Y-90807000D01*
G75*
G02*
X109261000Y-90657000I150000J0D01*
G01*
G37*
G36*
G01*
X110531000Y-90657000D02*
X110831000Y-90657000D01*
G75*
G02*
X110981000Y-90807000I0J-150000D01*
G01*
X110981000Y-92457000D01*
G75*
G02*
X110831000Y-92607000I-150000J0D01*
G01*
X110531000Y-92607000D01*
G75*
G02*
X110381000Y-92457000I0J150000D01*
G01*
X110381000Y-90807000D01*
G75*
G02*
X110531000Y-90657000I150000J0D01*
G01*
G37*
G36*
G01*
X111801000Y-90657000D02*
X112101000Y-90657000D01*
G75*
G02*
X112251000Y-90807000I0J-150000D01*
G01*
X112251000Y-92457000D01*
G75*
G02*
X112101000Y-92607000I-150000J0D01*
G01*
X111801000Y-92607000D01*
G75*
G02*
X111651000Y-92457000I0J150000D01*
G01*
X111651000Y-90807000D01*
G75*
G02*
X111801000Y-90657000I150000J0D01*
G01*
G37*
G36*
G01*
X93641500Y-72498000D02*
X94191500Y-72498000D01*
G75*
G02*
X94391500Y-72698000I0J-200000D01*
G01*
X94391500Y-73098000D01*
G75*
G02*
X94191500Y-73298000I-200000J0D01*
G01*
X93641500Y-73298000D01*
G75*
G02*
X93441500Y-73098000I0J200000D01*
G01*
X93441500Y-72698000D01*
G75*
G02*
X93641500Y-72498000I200000J0D01*
G01*
G37*
G36*
G01*
X93641500Y-74148000D02*
X94191500Y-74148000D01*
G75*
G02*
X94391500Y-74348000I0J-200000D01*
G01*
X94391500Y-74748000D01*
G75*
G02*
X94191500Y-74948000I-200000J0D01*
G01*
X93641500Y-74948000D01*
G75*
G02*
X93441500Y-74748000I0J200000D01*
G01*
X93441500Y-74348000D01*
G75*
G02*
X93641500Y-74148000I200000J0D01*
G01*
G37*
D12*
X33509000Y-114248000D03*
X33509000Y-113448000D03*
X33509000Y-108548000D03*
X33509000Y-107748000D03*
X33509000Y-107748000D03*
X33509000Y-108548000D03*
X33509000Y-113448000D03*
X33509000Y-114248000D03*
D13*
X33509000Y-109248000D03*
X33509000Y-109748000D03*
X33509000Y-110248000D03*
X33509000Y-111248000D03*
X33509000Y-111748000D03*
X33509000Y-112248000D03*
X33509000Y-112748000D03*
X33509000Y-110748000D03*
D14*
X116450000Y-70485000D03*
X116450000Y-71755000D03*
X116450000Y-73025000D03*
X116450000Y-74295000D03*
X116450000Y-75565000D03*
X116450000Y-76835000D03*
X116450000Y-78105000D03*
X116450000Y-79375000D03*
X116450000Y-80645000D03*
X116450000Y-81915000D03*
X116450000Y-83185000D03*
X116450000Y-84455000D03*
X116450000Y-85725000D03*
X116450000Y-86995000D03*
D15*
X113665000Y-87995000D03*
X112395000Y-87995000D03*
X111125000Y-87995000D03*
X109855000Y-87995000D03*
X108585000Y-87995000D03*
X107315000Y-87995000D03*
X106045000Y-87995000D03*
X104775000Y-87995000D03*
X103505000Y-87995000D03*
X102235000Y-87995000D03*
D14*
X99450000Y-86995000D03*
X99450000Y-85725000D03*
X99450000Y-84455000D03*
X99450000Y-83185000D03*
X99450000Y-81915000D03*
X99450000Y-80645000D03*
X99450000Y-79375000D03*
X99450000Y-78105000D03*
X99450000Y-76835000D03*
X99450000Y-75565000D03*
X99450000Y-74295000D03*
X99450000Y-73025000D03*
X99450000Y-71755000D03*
X99450000Y-70485000D03*
D16*
X106950000Y-77985000D03*
G36*
G01*
X46498000Y-107156000D02*
X48498000Y-107156000D01*
G75*
G02*
X48748000Y-107406000I0J-250000D01*
G01*
X48748000Y-110906000D01*
G75*
G02*
X48498000Y-111156000I-250000J0D01*
G01*
X46498000Y-111156000D01*
G75*
G02*
X46248000Y-110906000I0J250000D01*
G01*
X46248000Y-107406000D01*
G75*
G02*
X46498000Y-107156000I250000J0D01*
G01*
G37*
G36*
G01*
X46498000Y-99156000D02*
X48498000Y-99156000D01*
G75*
G02*
X48748000Y-99406000I0J-250000D01*
G01*
X48748000Y-102906000D01*
G75*
G02*
X48498000Y-103156000I-250000J0D01*
G01*
X46498000Y-103156000D01*
G75*
G02*
X46248000Y-102906000I0J250000D01*
G01*
X46248000Y-99406000D01*
G75*
G02*
X46498000Y-99156000I250000J0D01*
G01*
G37*
G36*
G01*
X61120000Y-106749000D02*
X62070000Y-106749000D01*
G75*
G02*
X62320000Y-106999000I0J-250000D01*
G01*
X62320000Y-107499000D01*
G75*
G02*
X62070000Y-107749000I-250000J0D01*
G01*
X61120000Y-107749000D01*
G75*
G02*
X60870000Y-107499000I0J250000D01*
G01*
X60870000Y-106999000D01*
G75*
G02*
X61120000Y-106749000I250000J0D01*
G01*
G37*
G36*
G01*
X61120000Y-104849000D02*
X62070000Y-104849000D01*
G75*
G02*
X62320000Y-105099000I0J-250000D01*
G01*
X62320000Y-105599000D01*
G75*
G02*
X62070000Y-105849000I-250000J0D01*
G01*
X61120000Y-105849000D01*
G75*
G02*
X60870000Y-105599000I0J250000D01*
G01*
X60870000Y-105099000D01*
G75*
G02*
X61120000Y-104849000I250000J0D01*
G01*
G37*
G36*
G01*
X83354000Y-104460000D02*
X82254000Y-104460000D01*
G75*
G02*
X82004000Y-104210000I0J250000D01*
G01*
X82004000Y-101210000D01*
G75*
G02*
X82254000Y-100960000I250000J0D01*
G01*
X83354000Y-100960000D01*
G75*
G02*
X83604000Y-101210000I0J-250000D01*
G01*
X83604000Y-104210000D01*
G75*
G02*
X83354000Y-104460000I-250000J0D01*
G01*
G37*
G36*
G01*
X83354000Y-109860000D02*
X82254000Y-109860000D01*
G75*
G02*
X82004000Y-109610000I0J250000D01*
G01*
X82004000Y-106610000D01*
G75*
G02*
X82254000Y-106360000I250000J0D01*
G01*
X83354000Y-106360000D01*
G75*
G02*
X83604000Y-106610000I0J-250000D01*
G01*
X83604000Y-109610000D01*
G75*
G02*
X83354000Y-109860000I-250000J0D01*
G01*
G37*
G36*
G01*
X77531000Y-90593000D02*
X77531000Y-89493000D01*
G75*
G02*
X77781000Y-89243000I250000J0D01*
G01*
X80781000Y-89243000D01*
G75*
G02*
X81031000Y-89493000I0J-250000D01*
G01*
X81031000Y-90593000D01*
G75*
G02*
X80781000Y-90843000I-250000J0D01*
G01*
X77781000Y-90843000D01*
G75*
G02*
X77531000Y-90593000I0J250000D01*
G01*
G37*
G36*
G01*
X72131000Y-90593000D02*
X72131000Y-89493000D01*
G75*
G02*
X72381000Y-89243000I250000J0D01*
G01*
X75381000Y-89243000D01*
G75*
G02*
X75631000Y-89493000I0J-250000D01*
G01*
X75631000Y-90593000D01*
G75*
G02*
X75381000Y-90843000I-250000J0D01*
G01*
X72381000Y-90843000D01*
G75*
G02*
X72131000Y-90593000I0J250000D01*
G01*
G37*
G36*
G01*
X57465000Y-90593000D02*
X57465000Y-89493000D01*
G75*
G02*
X57715000Y-89243000I250000J0D01*
G01*
X60715000Y-89243000D01*
G75*
G02*
X60965000Y-89493000I0J-250000D01*
G01*
X60965000Y-90593000D01*
G75*
G02*
X60715000Y-90843000I-250000J0D01*
G01*
X57715000Y-90843000D01*
G75*
G02*
X57465000Y-90593000I0J250000D01*
G01*
G37*
G36*
G01*
X52065000Y-90593000D02*
X52065000Y-89493000D01*
G75*
G02*
X52315000Y-89243000I250000J0D01*
G01*
X55315000Y-89243000D01*
G75*
G02*
X55565000Y-89493000I0J-250000D01*
G01*
X55565000Y-90593000D01*
G75*
G02*
X55315000Y-90843000I-250000J0D01*
G01*
X52315000Y-90843000D01*
G75*
G02*
X52065000Y-90593000I0J250000D01*
G01*
G37*
D17*
X71120000Y-109852000D03*
X71120000Y-99952000D03*
G36*
G01*
X95588500Y-73298000D02*
X95038500Y-73298000D01*
G75*
G02*
X94838500Y-73098000I0J200000D01*
G01*
X94838500Y-72698000D01*
G75*
G02*
X95038500Y-72498000I200000J0D01*
G01*
X95588500Y-72498000D01*
G75*
G02*
X95788500Y-72698000I0J-200000D01*
G01*
X95788500Y-73098000D01*
G75*
G02*
X95588500Y-73298000I-200000J0D01*
G01*
G37*
G36*
G01*
X95588500Y-74948000D02*
X95038500Y-74948000D01*
G75*
G02*
X94838500Y-74748000I0J200000D01*
G01*
X94838500Y-74348000D01*
G75*
G02*
X95038500Y-74148000I200000J0D01*
G01*
X95588500Y-74148000D01*
G75*
G02*
X95788500Y-74348000I0J-200000D01*
G01*
X95788500Y-74748000D01*
G75*
G02*
X95588500Y-74948000I-200000J0D01*
G01*
G37*
G36*
G01*
X96499000Y-79927000D02*
X97049000Y-79927000D01*
G75*
G02*
X97249000Y-80127000I0J-200000D01*
G01*
X97249000Y-80527000D01*
G75*
G02*
X97049000Y-80727000I-200000J0D01*
G01*
X96499000Y-80727000D01*
G75*
G02*
X96299000Y-80527000I0J200000D01*
G01*
X96299000Y-80127000D01*
G75*
G02*
X96499000Y-79927000I200000J0D01*
G01*
G37*
G36*
G01*
X96499000Y-78277000D02*
X97049000Y-78277000D01*
G75*
G02*
X97249000Y-78477000I0J-200000D01*
G01*
X97249000Y-78877000D01*
G75*
G02*
X97049000Y-79077000I-200000J0D01*
G01*
X96499000Y-79077000D01*
G75*
G02*
X96299000Y-78877000I0J200000D01*
G01*
X96299000Y-78477000D01*
G75*
G02*
X96499000Y-78277000I200000J0D01*
G01*
G37*
G36*
G01*
X120671000Y-87395000D02*
X120121000Y-87395000D01*
G75*
G02*
X119921000Y-87195000I0J200000D01*
G01*
X119921000Y-86795000D01*
G75*
G02*
X120121000Y-86595000I200000J0D01*
G01*
X120671000Y-86595000D01*
G75*
G02*
X120871000Y-86795000I0J-200000D01*
G01*
X120871000Y-87195000D01*
G75*
G02*
X120671000Y-87395000I-200000J0D01*
G01*
G37*
G36*
G01*
X120671000Y-89045000D02*
X120121000Y-89045000D01*
G75*
G02*
X119921000Y-88845000I0J200000D01*
G01*
X119921000Y-88445000D01*
G75*
G02*
X120121000Y-88245000I200000J0D01*
G01*
X120671000Y-88245000D01*
G75*
G02*
X120871000Y-88445000I0J-200000D01*
G01*
X120871000Y-88845000D01*
G75*
G02*
X120671000Y-89045000I-200000J0D01*
G01*
G37*
G36*
G01*
X122576000Y-87332000D02*
X122026000Y-87332000D01*
G75*
G02*
X121826000Y-87132000I0J200000D01*
G01*
X121826000Y-86732000D01*
G75*
G02*
X122026000Y-86532000I200000J0D01*
G01*
X122576000Y-86532000D01*
G75*
G02*
X122776000Y-86732000I0J-200000D01*
G01*
X122776000Y-87132000D01*
G75*
G02*
X122576000Y-87332000I-200000J0D01*
G01*
G37*
G36*
G01*
X122576000Y-88982000D02*
X122026000Y-88982000D01*
G75*
G02*
X121826000Y-88782000I0J200000D01*
G01*
X121826000Y-88382000D01*
G75*
G02*
X122026000Y-88182000I200000J0D01*
G01*
X122576000Y-88182000D01*
G75*
G02*
X122776000Y-88382000I0J-200000D01*
G01*
X122776000Y-88782000D01*
G75*
G02*
X122576000Y-88982000I-200000J0D01*
G01*
G37*
G36*
G01*
X95127000Y-79827000D02*
X95627000Y-79827000D01*
G75*
G02*
X95852000Y-80052000I0J-225000D01*
G01*
X95852000Y-80502000D01*
G75*
G02*
X95627000Y-80727000I-225000J0D01*
G01*
X95127000Y-80727000D01*
G75*
G02*
X94902000Y-80502000I0J225000D01*
G01*
X94902000Y-80052000D01*
G75*
G02*
X95127000Y-79827000I225000J0D01*
G01*
G37*
G36*
G01*
X95127000Y-78277000D02*
X95627000Y-78277000D01*
G75*
G02*
X95852000Y-78502000I0J-225000D01*
G01*
X95852000Y-78952000D01*
G75*
G02*
X95627000Y-79177000I-225000J0D01*
G01*
X95127000Y-79177000D01*
G75*
G02*
X94902000Y-78952000I0J225000D01*
G01*
X94902000Y-78502000D01*
G75*
G02*
X95127000Y-78277000I225000J0D01*
G01*
G37*
G36*
G01*
X96960500Y-73411500D02*
X96460500Y-73411500D01*
G75*
G02*
X96235500Y-73186500I0J225000D01*
G01*
X96235500Y-72736500D01*
G75*
G02*
X96460500Y-72511500I225000J0D01*
G01*
X96960500Y-72511500D01*
G75*
G02*
X97185500Y-72736500I0J-225000D01*
G01*
X97185500Y-73186500D01*
G75*
G02*
X96960500Y-73411500I-225000J0D01*
G01*
G37*
G36*
G01*
X96960500Y-74961500D02*
X96460500Y-74961500D01*
G75*
G02*
X96235500Y-74736500I0J225000D01*
G01*
X96235500Y-74286500D01*
G75*
G02*
X96460500Y-74061500I225000J0D01*
G01*
X96960500Y-74061500D01*
G75*
G02*
X97185500Y-74286500I0J-225000D01*
G01*
X97185500Y-74736500D01*
G75*
G02*
X96960500Y-74961500I-225000J0D01*
G01*
G37*
G36*
G01*
X121483000Y-92198000D02*
X121483000Y-91698000D01*
G75*
G02*
X121708000Y-91473000I225000J0D01*
G01*
X122158000Y-91473000D01*
G75*
G02*
X122383000Y-91698000I0J-225000D01*
G01*
X122383000Y-92198000D01*
G75*
G02*
X122158000Y-92423000I-225000J0D01*
G01*
X121708000Y-92423000D01*
G75*
G02*
X121483000Y-92198000I0J225000D01*
G01*
G37*
G36*
G01*
X119933000Y-92198000D02*
X119933000Y-91698000D01*
G75*
G02*
X120158000Y-91473000I225000J0D01*
G01*
X120608000Y-91473000D01*
G75*
G02*
X120833000Y-91698000I0J-225000D01*
G01*
X120833000Y-92198000D01*
G75*
G02*
X120608000Y-92423000I-225000J0D01*
G01*
X120158000Y-92423000D01*
G75*
G02*
X119933000Y-92198000I0J225000D01*
G01*
G37*
G36*
G01*
X120833000Y-93857000D02*
X120833000Y-94357000D01*
G75*
G02*
X120608000Y-94582000I-225000J0D01*
G01*
X120158000Y-94582000D01*
G75*
G02*
X119933000Y-94357000I0J225000D01*
G01*
X119933000Y-93857000D01*
G75*
G02*
X120158000Y-93632000I225000J0D01*
G01*
X120608000Y-93632000D01*
G75*
G02*
X120833000Y-93857000I0J-225000D01*
G01*
G37*
G36*
G01*
X122383000Y-93857000D02*
X122383000Y-94357000D01*
G75*
G02*
X122158000Y-94582000I-225000J0D01*
G01*
X121708000Y-94582000D01*
G75*
G02*
X121483000Y-94357000I0J225000D01*
G01*
X121483000Y-93857000D01*
G75*
G02*
X121708000Y-93632000I225000J0D01*
G01*
X122158000Y-93632000D01*
G75*
G02*
X122383000Y-93857000I0J-225000D01*
G01*
G37*
D18*
X89470200Y-93751800D03*
X94070200Y-93751800D03*
X91770200Y-93751800D03*
D19*
X91770200Y-87451800D03*
D20*
X97155000Y-122022000D03*
X97155000Y-114122000D03*
X120142000Y-122022000D03*
X120142000Y-114122000D03*
G36*
G01*
X37763000Y-112924000D02*
X37763000Y-112374000D01*
G75*
G02*
X37963000Y-112174000I200000J0D01*
G01*
X38363000Y-112174000D01*
G75*
G02*
X38563000Y-112374000I0J-200000D01*
G01*
X38563000Y-112924000D01*
G75*
G02*
X38363000Y-113124000I-200000J0D01*
G01*
X37963000Y-113124000D01*
G75*
G02*
X37763000Y-112924000I0J200000D01*
G01*
G37*
G36*
G01*
X36113000Y-112924000D02*
X36113000Y-112374000D01*
G75*
G02*
X36313000Y-112174000I200000J0D01*
G01*
X36713000Y-112174000D01*
G75*
G02*
X36913000Y-112374000I0J-200000D01*
G01*
X36913000Y-112924000D01*
G75*
G02*
X36713000Y-113124000I-200000J0D01*
G01*
X36313000Y-113124000D01*
G75*
G02*
X36113000Y-112924000I0J200000D01*
G01*
G37*
G36*
G01*
X37382000Y-108733000D02*
X37382000Y-108183000D01*
G75*
G02*
X37582000Y-107983000I200000J0D01*
G01*
X37982000Y-107983000D01*
G75*
G02*
X38182000Y-108183000I0J-200000D01*
G01*
X38182000Y-108733000D01*
G75*
G02*
X37982000Y-108933000I-200000J0D01*
G01*
X37582000Y-108933000D01*
G75*
G02*
X37382000Y-108733000I0J200000D01*
G01*
G37*
G36*
G01*
X35732000Y-108733000D02*
X35732000Y-108183000D01*
G75*
G02*
X35932000Y-107983000I200000J0D01*
G01*
X36332000Y-107983000D01*
G75*
G02*
X36532000Y-108183000I0J-200000D01*
G01*
X36532000Y-108733000D01*
G75*
G02*
X36332000Y-108933000I-200000J0D01*
G01*
X35932000Y-108933000D01*
G75*
G02*
X35732000Y-108733000I0J200000D01*
G01*
G37*
D21*
X116430000Y-120162000D03*
X100930000Y-120162000D03*
D22*
X115530000Y-110462000D03*
X100930000Y-110437000D03*
D23*
X110830000Y-109362000D03*
X109730000Y-109362000D03*
X108630000Y-109362000D03*
X107530000Y-109362000D03*
X106430000Y-109362000D03*
X105330000Y-109362000D03*
X104230000Y-109362000D03*
X103130000Y-109362000D03*
X102030000Y-109362000D03*
G36*
G01*
X121328500Y-110828500D02*
X121328500Y-110278500D01*
G75*
G02*
X121528500Y-110078500I200000J0D01*
G01*
X121928500Y-110078500D01*
G75*
G02*
X122128500Y-110278500I0J-200000D01*
G01*
X122128500Y-110828500D01*
G75*
G02*
X121928500Y-111028500I-200000J0D01*
G01*
X121528500Y-111028500D01*
G75*
G02*
X121328500Y-110828500I0J200000D01*
G01*
G37*
G36*
G01*
X119678500Y-110828500D02*
X119678500Y-110278500D01*
G75*
G02*
X119878500Y-110078500I200000J0D01*
G01*
X120278500Y-110078500D01*
G75*
G02*
X120478500Y-110278500I0J-200000D01*
G01*
X120478500Y-110828500D01*
G75*
G02*
X120278500Y-111028500I-200000J0D01*
G01*
X119878500Y-111028500D01*
G75*
G02*
X119678500Y-110828500I0J200000D01*
G01*
G37*
G36*
G01*
X121328500Y-109050500D02*
X121328500Y-108500500D01*
G75*
G02*
X121528500Y-108300500I200000J0D01*
G01*
X121928500Y-108300500D01*
G75*
G02*
X122128500Y-108500500I0J-200000D01*
G01*
X122128500Y-109050500D01*
G75*
G02*
X121928500Y-109250500I-200000J0D01*
G01*
X121528500Y-109250500D01*
G75*
G02*
X121328500Y-109050500I0J200000D01*
G01*
G37*
G36*
G01*
X119678500Y-109050500D02*
X119678500Y-108500500D01*
G75*
G02*
X119878500Y-108300500I200000J0D01*
G01*
X120278500Y-108300500D01*
G75*
G02*
X120478500Y-108500500I0J-200000D01*
G01*
X120478500Y-109050500D01*
G75*
G02*
X120278500Y-109250500I-200000J0D01*
G01*
X119878500Y-109250500D01*
G75*
G02*
X119678500Y-109050500I0J200000D01*
G01*
G37*
G36*
G01*
X95038500Y-77070000D02*
X95588500Y-77070000D01*
G75*
G02*
X95788500Y-77270000I0J-200000D01*
G01*
X95788500Y-77670000D01*
G75*
G02*
X95588500Y-77870000I-200000J0D01*
G01*
X95038500Y-77870000D01*
G75*
G02*
X94838500Y-77670000I0J200000D01*
G01*
X94838500Y-77270000D01*
G75*
G02*
X95038500Y-77070000I200000J0D01*
G01*
G37*
G36*
G01*
X95038500Y-75420000D02*
X95588500Y-75420000D01*
G75*
G02*
X95788500Y-75620000I0J-200000D01*
G01*
X95788500Y-76020000D01*
G75*
G02*
X95588500Y-76220000I-200000J0D01*
G01*
X95038500Y-76220000D01*
G75*
G02*
X94838500Y-76020000I0J200000D01*
G01*
X94838500Y-75620000D01*
G75*
G02*
X95038500Y-75420000I200000J0D01*
G01*
G37*
M02*
