G04 #@! TF.GenerationSoftware,KiCad,Pcbnew,(5.1.10)-1*
G04 #@! TF.CreationDate,2022-02-17T21:35:18+00:00*
G04 #@! TF.ProjectId,ESP32_Plotter_Controller_revB1,45535033-325f-4506-9c6f-747465725f43,rev?*
G04 #@! TF.SameCoordinates,Original*
G04 #@! TF.FileFunction,Copper,L2,Bot*
G04 #@! TF.FilePolarity,Positive*
%FSLAX46Y46*%
G04 Gerber Fmt 4.6, Leading zero omitted, Abs format (unit mm)*
G04 Created by KiCad (PCBNEW (5.1.10)-1) date 2022-02-17 21:35:18*
%MOMM*%
%LPD*%
G01*
G04 APERTURE LIST*
G04 #@! TA.AperFunction,ComponentPad*
%ADD10O,1.200000X1.750000*%
G04 #@! TD*
G04 #@! TA.AperFunction,ComponentPad*
%ADD11O,2.100000X1.000000*%
G04 #@! TD*
G04 #@! TA.AperFunction,ComponentPad*
%ADD12O,1.600000X1.000000*%
G04 #@! TD*
G04 #@! TA.AperFunction,ComponentPad*
%ADD13R,3.500000X3.500000*%
G04 #@! TD*
G04 #@! TA.AperFunction,ComponentPad*
%ADD14C,1.524000*%
G04 #@! TD*
G04 #@! TA.AperFunction,ComponentPad*
%ADD15O,1.700000X1.700000*%
G04 #@! TD*
G04 #@! TA.AperFunction,ComponentPad*
%ADD16R,1.700000X1.700000*%
G04 #@! TD*
G04 #@! TA.AperFunction,ComponentPad*
%ADD17O,1.750000X1.200000*%
G04 #@! TD*
G04 #@! TA.AperFunction,ViaPad*
%ADD18C,0.800000*%
G04 #@! TD*
G04 #@! TA.AperFunction,Conductor*
%ADD19C,0.250000*%
G04 #@! TD*
G04 #@! TA.AperFunction,Conductor*
%ADD20C,0.750000*%
G04 #@! TD*
G04 #@! TA.AperFunction,Conductor*
%ADD21C,0.600000*%
G04 #@! TD*
G04 #@! TA.AperFunction,Conductor*
%ADD22C,0.200000*%
G04 #@! TD*
G04 #@! TA.AperFunction,Conductor*
%ADD23C,0.254000*%
G04 #@! TD*
G04 #@! TA.AperFunction,Conductor*
%ADD24C,0.100000*%
G04 #@! TD*
G04 APERTURE END LIST*
D10*
X40227000Y-116840000D03*
G04 #@! TA.AperFunction,ComponentPad*
G36*
G01*
X37627000Y-117465001D02*
X37627000Y-116214999D01*
G75*
G02*
X37876999Y-115965000I249999J0D01*
G01*
X38577001Y-115965000D01*
G75*
G02*
X38827000Y-116214999I0J-249999D01*
G01*
X38827000Y-117465001D01*
G75*
G02*
X38577001Y-117715000I-249999J0D01*
G01*
X37876999Y-117715000D01*
G75*
G02*
X37627000Y-117465001I0J249999D01*
G01*
G37*
G04 #@! TD.AperFunction*
X84104000Y-116840000D03*
X82104000Y-116840000D03*
X80104000Y-116840000D03*
X78104000Y-116840000D03*
X76104000Y-116840000D03*
X74104000Y-116840000D03*
X72104000Y-116840000D03*
G04 #@! TA.AperFunction,ComponentPad*
G36*
G01*
X69504000Y-117465001D02*
X69504000Y-116214999D01*
G75*
G02*
X69753999Y-115965000I249999J0D01*
G01*
X70454001Y-115965000D01*
G75*
G02*
X70704000Y-116214999I0J-249999D01*
G01*
X70704000Y-117465001D01*
G75*
G02*
X70454001Y-117715000I-249999J0D01*
G01*
X69753999Y-117715000D01*
G75*
G02*
X69504000Y-117465001I0J249999D01*
G01*
G37*
G04 #@! TD.AperFunction*
X49593000Y-116840000D03*
X47593000Y-116840000D03*
G04 #@! TA.AperFunction,ComponentPad*
G36*
G01*
X44993000Y-117465001D02*
X44993000Y-116214999D01*
G75*
G02*
X45242999Y-115965000I249999J0D01*
G01*
X45943001Y-115965000D01*
G75*
G02*
X46193000Y-116214999I0J-249999D01*
G01*
X46193000Y-117465001D01*
G75*
G02*
X45943001Y-117715000I-249999J0D01*
G01*
X45242999Y-117715000D01*
G75*
G02*
X44993000Y-117465001I0J249999D01*
G01*
G37*
G04 #@! TD.AperFunction*
X64864000Y-116840000D03*
X62864000Y-116840000D03*
X60864000Y-116840000D03*
X58864000Y-116840000D03*
X56864000Y-116840000D03*
G04 #@! TA.AperFunction,ComponentPad*
G36*
G01*
X54264000Y-117465001D02*
X54264000Y-116214999D01*
G75*
G02*
X54513999Y-115965000I249999J0D01*
G01*
X55214001Y-115965000D01*
G75*
G02*
X55464000Y-116214999I0J-249999D01*
G01*
X55464000Y-117465001D01*
G75*
G02*
X55214001Y-117715000I-249999J0D01*
G01*
X54513999Y-117715000D01*
G75*
G02*
X54264000Y-117465001I0J249999D01*
G01*
G37*
G04 #@! TD.AperFunction*
D11*
X32594000Y-115318000D03*
X32594000Y-106678000D03*
D12*
X28414000Y-106678000D03*
X28414000Y-115318000D03*
G04 #@! TA.AperFunction,ComponentPad*
G36*
G01*
X34620000Y-104381000D02*
X34620000Y-102631000D01*
G75*
G02*
X35495000Y-101756000I875000J0D01*
G01*
X37245000Y-101756000D01*
G75*
G02*
X38120000Y-102631000I0J-875000D01*
G01*
X38120000Y-104381000D01*
G75*
G02*
X37245000Y-105256000I-875000J0D01*
G01*
X35495000Y-105256000D01*
G75*
G02*
X34620000Y-104381000I0J875000D01*
G01*
G37*
G04 #@! TD.AperFunction*
G04 #@! TA.AperFunction,ComponentPad*
G36*
G01*
X31870000Y-99806000D02*
X31870000Y-97806000D01*
G75*
G02*
X32620000Y-97056000I750000J0D01*
G01*
X34120000Y-97056000D01*
G75*
G02*
X34870000Y-97806000I0J-750000D01*
G01*
X34870000Y-99806000D01*
G75*
G02*
X34120000Y-100556000I-750000J0D01*
G01*
X32620000Y-100556000D01*
G75*
G02*
X31870000Y-99806000I0J750000D01*
G01*
G37*
G04 #@! TD.AperFunction*
D13*
X39370000Y-98806000D03*
D10*
X68408800Y-76657200D03*
X70408800Y-76657200D03*
G04 #@! TA.AperFunction,ComponentPad*
G36*
G01*
X73008800Y-76032199D02*
X73008800Y-77282201D01*
G75*
G02*
X72758801Y-77532200I-249999J0D01*
G01*
X72058799Y-77532200D01*
G75*
G02*
X71808800Y-77282201I0J249999D01*
G01*
X71808800Y-76032199D01*
G75*
G02*
X72058799Y-75782200I249999J0D01*
G01*
X72758801Y-75782200D01*
G75*
G02*
X73008800Y-76032199I0J-249999D01*
G01*
G37*
G04 #@! TD.AperFunction*
X47498500Y-76708000D03*
X49498500Y-76708000D03*
G04 #@! TA.AperFunction,ComponentPad*
G36*
G01*
X52098500Y-76082999D02*
X52098500Y-77333001D01*
G75*
G02*
X51848501Y-77583000I-249999J0D01*
G01*
X51148499Y-77583000D01*
G75*
G02*
X50898500Y-77333001I0J249999D01*
G01*
X50898500Y-76082999D01*
G75*
G02*
X51148499Y-75833000I249999J0D01*
G01*
X51848501Y-75833000D01*
G75*
G02*
X52098500Y-76082999I0J-249999D01*
G01*
G37*
G04 #@! TD.AperFunction*
X56979300Y-76708000D03*
X58979300Y-76708000D03*
X60979300Y-76708000D03*
G04 #@! TA.AperFunction,ComponentPad*
G36*
G01*
X63579300Y-76082999D02*
X63579300Y-77333001D01*
G75*
G02*
X63329301Y-77583000I-249999J0D01*
G01*
X62629299Y-77583000D01*
G75*
G02*
X62379300Y-77333001I0J249999D01*
G01*
X62379300Y-76082999D01*
G75*
G02*
X62629299Y-75833000I249999J0D01*
G01*
X63329301Y-75833000D01*
G75*
G02*
X63579300Y-76082999I0J-249999D01*
G01*
G37*
G04 #@! TD.AperFunction*
X77934300Y-76708000D03*
X79934300Y-76708000D03*
X81934300Y-76708000D03*
G04 #@! TA.AperFunction,ComponentPad*
G36*
G01*
X84534300Y-76082999D02*
X84534300Y-77333001D01*
G75*
G02*
X84284301Y-77583000I-249999J0D01*
G01*
X83584299Y-77583000D01*
G75*
G02*
X83334300Y-77333001I0J249999D01*
G01*
X83334300Y-76082999D01*
G75*
G02*
X83584299Y-75833000I249999J0D01*
G01*
X84284301Y-75833000D01*
G75*
G02*
X84534300Y-76082999I0J-249999D01*
G01*
G37*
G04 #@! TD.AperFunction*
X40024300Y-76708000D03*
G04 #@! TA.AperFunction,ComponentPad*
G36*
G01*
X42624300Y-76082999D02*
X42624300Y-77333001D01*
G75*
G02*
X42374301Y-77583000I-249999J0D01*
G01*
X41674299Y-77583000D01*
G75*
G02*
X41424300Y-77333001I0J249999D01*
G01*
X41424300Y-76082999D01*
G75*
G02*
X41674299Y-75833000I249999J0D01*
G01*
X42374301Y-75833000D01*
G75*
G02*
X42624300Y-76082999I0J-249999D01*
G01*
G37*
G04 #@! TD.AperFunction*
D14*
X68961000Y-92583000D03*
X67691000Y-91313000D03*
X67691000Y-93853000D03*
X85471000Y-96393000D03*
X82931000Y-96393000D03*
X80391000Y-96393000D03*
X77851000Y-96393000D03*
X75311000Y-96393000D03*
X72771000Y-96393000D03*
X70231000Y-96393000D03*
X67691000Y-96393000D03*
X67691000Y-83693000D03*
X70231000Y-83693000D03*
X72771000Y-83693000D03*
X75311000Y-83693000D03*
X77851000Y-83693000D03*
X80391000Y-83693000D03*
X82931000Y-83693000D03*
X85471000Y-83693000D03*
X47625000Y-92583000D03*
X46355000Y-91313000D03*
X46355000Y-93853000D03*
X64135000Y-96393000D03*
X61595000Y-96393000D03*
X59055000Y-96393000D03*
X56515000Y-96393000D03*
X53975000Y-96393000D03*
X51435000Y-96393000D03*
X48895000Y-96393000D03*
X46355000Y-96393000D03*
X46355000Y-83693000D03*
X48895000Y-83693000D03*
X51435000Y-83693000D03*
X53975000Y-83693000D03*
X56515000Y-83693000D03*
X59055000Y-83693000D03*
X61595000Y-83693000D03*
X64135000Y-83693000D03*
D15*
X89598500Y-78803500D03*
D16*
X92138500Y-78803500D03*
D15*
X89535000Y-83058000D03*
D16*
X92075000Y-83058000D03*
D15*
X38735000Y-81280000D03*
X38735000Y-83820000D03*
D16*
X38735000Y-86360000D03*
D15*
X91440000Y-104394000D03*
X88900000Y-104394000D03*
X91440000Y-106934000D03*
X88900000Y-106934000D03*
X91440000Y-109474000D03*
X88900000Y-109474000D03*
X91440000Y-112014000D03*
X88900000Y-112014000D03*
X91440000Y-114554000D03*
D16*
X88900000Y-114554000D03*
D17*
X32893000Y-90773000D03*
G04 #@! TA.AperFunction,ComponentPad*
G36*
G01*
X32267999Y-88173000D02*
X33518001Y-88173000D01*
G75*
G02*
X33768000Y-88422999I0J-249999D01*
G01*
X33768000Y-89123001D01*
G75*
G02*
X33518001Y-89373000I-249999J0D01*
G01*
X32267999Y-89373000D01*
G75*
G02*
X32018000Y-89123001I0J249999D01*
G01*
X32018000Y-88422999D01*
G75*
G02*
X32267999Y-88173000I249999J0D01*
G01*
G37*
G04 #@! TD.AperFunction*
X32893000Y-83248000D03*
X32893000Y-81248000D03*
G04 #@! TA.AperFunction,ComponentPad*
G36*
G01*
X32267999Y-78648000D02*
X33518001Y-78648000D01*
G75*
G02*
X33768000Y-78897999I0J-249999D01*
G01*
X33768000Y-79598001D01*
G75*
G02*
X33518001Y-79848000I-249999J0D01*
G01*
X32267999Y-79848000D01*
G75*
G02*
X32018000Y-79598001I0J249999D01*
G01*
X32018000Y-78897999D01*
G75*
G02*
X32267999Y-78648000I249999J0D01*
G01*
G37*
G04 #@! TD.AperFunction*
X117475000Y-102140000D03*
G04 #@! TA.AperFunction,ComponentPad*
G36*
G01*
X118100001Y-104740000D02*
X116849999Y-104740000D01*
G75*
G02*
X116600000Y-104490001I0J249999D01*
G01*
X116600000Y-103789999D01*
G75*
G02*
X116849999Y-103540000I249999J0D01*
G01*
X118100001Y-103540000D01*
G75*
G02*
X118350000Y-103789999I0J-249999D01*
G01*
X118350000Y-104490001D01*
G75*
G02*
X118100001Y-104740000I-249999J0D01*
G01*
G37*
G04 #@! TD.AperFunction*
D18*
X108013500Y-79184500D03*
X106934000Y-79184500D03*
X105791000Y-79184500D03*
X105854500Y-77978000D03*
X108013500Y-77851000D03*
X108077000Y-76644500D03*
X105791000Y-76581000D03*
X116508700Y-88108200D03*
X106805700Y-74738500D03*
X93876400Y-70485000D03*
X57657600Y-108179200D03*
X37987100Y-110650100D03*
X75565000Y-100711000D03*
X43942000Y-110236000D03*
X64795400Y-99491800D03*
X106950000Y-76628500D03*
X106950000Y-77898500D03*
X97815400Y-73329800D03*
X69088000Y-86106000D03*
X84074000Y-86741000D03*
X108077000Y-116840000D03*
X72072500Y-114109500D03*
X76454000Y-114109500D03*
X102298500Y-114109500D03*
X105981500Y-113093500D03*
X118880200Y-91774100D03*
X118566800Y-86995000D03*
X104215000Y-83476900D03*
X104203500Y-111633000D03*
X104159650Y-114700650D03*
X101054500Y-84848700D03*
X114510100Y-82291000D03*
X109855000Y-102489000D03*
X109791500Y-107913000D03*
X109791500Y-106108500D03*
X106553000Y-83883500D03*
X103255100Y-84568600D03*
X101905800Y-85629900D03*
X116649500Y-107569000D03*
X111951000Y-105410500D03*
X92138500Y-74803000D03*
X96329500Y-76009500D03*
X57531000Y-106680000D03*
X50546000Y-104013000D03*
X101065300Y-80645000D03*
X90485200Y-85025200D03*
X96642100Y-82533700D03*
X97842500Y-82197200D03*
X108269700Y-86349300D03*
X99319100Y-88748900D03*
X101201100Y-86371000D03*
X111945800Y-89609900D03*
X100315100Y-88051900D03*
X121933000Y-90846500D03*
X101219000Y-73025000D03*
X118458800Y-88294100D03*
X113700300Y-75815100D03*
X109363200Y-90050900D03*
X92178500Y-76748000D03*
X94270410Y-81062410D03*
X94561268Y-111642768D03*
X80137000Y-120442500D03*
X95303732Y-112385232D03*
X80137000Y-121492500D03*
X32004000Y-112395000D03*
X30607000Y-110871000D03*
D19*
X118151200Y-86265800D02*
X116508700Y-87908300D01*
X116508700Y-87908300D02*
X116508700Y-88108200D01*
X117475000Y-101214700D02*
X120064300Y-98625400D01*
X120064300Y-98625400D02*
X120064300Y-87461400D01*
X120064300Y-87461400D02*
X118868700Y-86265800D01*
X118868700Y-86265800D02*
X118151200Y-86265800D01*
X118151200Y-86265800D02*
X118151200Y-79240100D01*
X118151200Y-79240100D02*
X113649600Y-74738500D01*
X113649600Y-74738500D02*
X106805700Y-74738500D01*
X106805700Y-74738500D02*
X97999100Y-74738500D01*
X117475000Y-102140000D02*
X117475000Y-101214700D01*
X55915500Y-118048700D02*
X59308300Y-118048700D01*
X59308300Y-118048700D02*
X59938700Y-117418300D01*
X59938700Y-117418300D02*
X59938700Y-116840000D01*
X50518300Y-116840000D02*
X51727000Y-118048700D01*
X51727000Y-118048700D02*
X55915500Y-118048700D01*
X57657600Y-108179200D02*
X55915500Y-109921300D01*
X55915500Y-109921300D02*
X55915500Y-118048700D01*
X59055000Y-96393000D02*
X59055000Y-106781800D01*
X59055000Y-106781800D02*
X57657600Y-108179200D01*
X60864000Y-116840000D02*
X59938700Y-116840000D01*
X49593000Y-116840000D02*
X50518300Y-116840000D01*
X88900000Y-112014000D02*
X88900000Y-109474000D01*
X32893000Y-83248000D02*
X32893000Y-82322700D01*
X40024300Y-76708000D02*
X39099000Y-76708000D01*
X39099000Y-76708000D02*
X33484300Y-82322700D01*
X33484300Y-82322700D02*
X32893000Y-82322700D01*
X68408800Y-82542800D02*
X69080800Y-82542800D01*
X69080800Y-82542800D02*
X70231000Y-83693000D01*
X64135000Y-83693000D02*
X65285200Y-82542800D01*
X65285200Y-82542800D02*
X68408800Y-82542800D01*
X68408800Y-82542800D02*
X68408800Y-76657200D01*
X80391000Y-96393000D02*
X85471000Y-91313000D01*
X85471000Y-91313000D02*
X85471000Y-83693000D01*
X37987100Y-110650100D02*
X40227000Y-112890000D01*
X40227000Y-112890000D02*
X40227000Y-116840000D01*
X33370000Y-98806000D02*
X33370000Y-104012200D01*
X33370000Y-104012200D02*
X37987100Y-108629300D01*
X37987100Y-108629300D02*
X37987100Y-110650100D01*
X32893000Y-91698300D02*
X33370000Y-92175300D01*
X33370000Y-92175300D02*
X33370000Y-98806000D01*
X32893000Y-90773000D02*
X32893000Y-91698300D01*
X97599500Y-74338900D02*
X97799800Y-74539200D01*
X97799800Y-74539200D02*
X97729800Y-74469200D01*
X97999100Y-74738500D02*
X97799800Y-74539200D01*
X97599500Y-73545700D02*
X97599500Y-73926700D01*
X97815400Y-73329800D02*
X97599500Y-73545700D01*
X97599500Y-73926700D02*
X97599500Y-74338900D01*
X97599500Y-73215500D02*
X97599500Y-73926700D01*
X93876400Y-70615800D02*
X93876400Y-70485000D01*
X97599500Y-74338900D02*
X93876400Y-70615800D01*
X76015100Y-118053900D02*
X70804813Y-118053900D01*
X60864000Y-115715000D02*
X60864000Y-116840000D01*
X70790923Y-118040010D02*
X69471210Y-118040010D01*
X61455000Y-115124000D02*
X60864000Y-115715000D01*
X70804813Y-118053900D02*
X70790923Y-118040010D01*
X69471210Y-118040010D02*
X66555200Y-115124000D01*
X76104000Y-117965000D02*
X76015100Y-118053900D01*
X66555200Y-115124000D02*
X61455000Y-115124000D01*
X76104000Y-116840000D02*
X76104000Y-117965000D01*
X71818500Y-97980500D02*
X70231000Y-96393000D01*
X74358500Y-97980500D02*
X71818500Y-97980500D01*
X78104000Y-101726000D02*
X74358500Y-97980500D01*
X78104000Y-116840000D02*
X78104000Y-101726000D01*
X103614651Y-115425651D02*
X102298500Y-114109500D01*
X104507651Y-115425651D02*
X103614651Y-115425651D01*
X105981500Y-113951802D02*
X104507651Y-115425651D01*
X105981500Y-113093500D02*
X105981500Y-113951802D01*
X89039598Y-123005011D02*
X89059599Y-123025012D01*
X62864000Y-117965000D02*
X67904011Y-123005011D01*
X62864000Y-116840000D02*
X62864000Y-117965000D01*
X91280288Y-123025012D02*
X118880200Y-95425100D01*
X118880200Y-95425100D02*
X118880200Y-91774100D01*
X89059599Y-123025012D02*
X91280288Y-123025012D01*
X67904011Y-123005011D02*
X89039598Y-123005011D01*
X117727000Y-87834800D02*
X118566800Y-86995000D01*
X117727000Y-95874600D02*
X117727000Y-87834800D01*
X89245999Y-122575001D02*
X91026599Y-122575001D01*
X64864000Y-116840000D02*
X64864000Y-117965000D01*
X91026599Y-122575001D02*
X117727000Y-95874600D01*
X64864000Y-117965000D02*
X69454000Y-122555000D01*
X69454000Y-122555000D02*
X89225998Y-122555000D01*
X89225998Y-122555000D02*
X89245999Y-122575001D01*
X103910900Y-83781000D02*
X104027900Y-83898000D01*
X104027900Y-83898000D02*
X104027900Y-84821600D01*
X104027900Y-84821600D02*
X103555600Y-85293900D01*
X103555600Y-85293900D02*
X102954700Y-85293900D01*
X102954700Y-85293900D02*
X101750600Y-84089800D01*
X101750600Y-84089800D02*
X100771200Y-84089800D01*
X100771200Y-84089800D02*
X97242900Y-87618100D01*
X97242900Y-87618100D02*
X97242900Y-88175300D01*
X97242900Y-88175300D02*
X80104000Y-105314200D01*
X80104000Y-105314200D02*
X80104000Y-116840000D01*
X103910900Y-83781000D02*
X103288100Y-83158200D01*
X103288100Y-83158200D02*
X100349400Y-83158200D01*
X100349400Y-83158200D02*
X95930500Y-87577100D01*
X95930500Y-87577100D02*
X95930500Y-88134300D01*
X95930500Y-88134300D02*
X86132200Y-97932600D01*
X86132200Y-97932600D02*
X79390600Y-97932600D01*
X79390600Y-97932600D02*
X77851000Y-96393000D01*
X103910900Y-83781000D02*
X104215000Y-83476900D01*
X104203500Y-114656800D02*
X104159650Y-114700650D01*
X104203500Y-111633000D02*
X104203500Y-114656800D01*
X101054500Y-84848700D02*
X100919800Y-84848700D01*
X100919800Y-84848700D02*
X97693200Y-88075300D01*
X97693200Y-88075300D02*
X97693200Y-88361900D01*
X97693200Y-88361900D02*
X82104000Y-103951100D01*
X82104000Y-103951100D02*
X82104000Y-115639700D01*
X82104000Y-116840000D02*
X81178700Y-116840000D01*
X72771000Y-96393000D02*
X73409300Y-96393000D01*
X73409300Y-96393000D02*
X79104000Y-102087700D01*
X79104000Y-102087700D02*
X79104000Y-117439000D01*
X79104000Y-117439000D02*
X79759700Y-118094700D01*
X79759700Y-118094700D02*
X80502300Y-118094700D01*
X80502300Y-118094700D02*
X81178700Y-117418300D01*
X81178700Y-117418300D02*
X81178700Y-116840000D01*
X82104000Y-116840000D02*
X82104000Y-115639700D01*
X114510100Y-95434200D02*
X114510100Y-82291000D01*
X109829900Y-102463900D02*
X109855000Y-102489000D01*
X109829900Y-100114400D02*
X109829900Y-102463900D01*
X109829900Y-100114400D02*
X114510100Y-95434200D01*
X109791500Y-107913000D02*
X109791500Y-106108500D01*
X53975000Y-90676100D02*
X53975000Y-96393000D01*
X60165700Y-83316700D02*
X60165700Y-84485400D01*
X68054600Y-75427800D02*
X60165700Y-83316700D01*
X99245900Y-80197200D02*
X78626600Y-80197200D01*
X106553000Y-83883500D02*
X105029100Y-82359400D01*
X99564600Y-79878500D02*
X99245900Y-80197200D01*
X73857200Y-75427800D02*
X68054600Y-75427800D01*
X105029100Y-82359400D02*
X104881790Y-82212090D01*
X78626600Y-80197200D02*
X73857200Y-75427800D01*
X101065499Y-79919999D02*
X101033000Y-79887500D01*
X104881790Y-82212090D02*
X103802090Y-82212090D01*
X60165700Y-84485400D02*
X53975000Y-90676100D01*
X101033000Y-79878500D02*
X99564600Y-79878500D01*
X103802090Y-82212090D02*
X101509999Y-79919999D01*
X101509999Y-79919999D02*
X101065499Y-79919999D01*
X101033000Y-79887500D02*
X101033000Y-79878500D01*
X75311000Y-96393000D02*
X77337500Y-98419500D01*
X77337500Y-98419500D02*
X86348100Y-98419500D01*
X86348100Y-98419500D02*
X96606000Y-88161600D01*
X96606000Y-88161600D02*
X96606000Y-87616400D01*
X96606000Y-87616400D02*
X100613800Y-83608600D01*
X100613800Y-83608600D02*
X102295100Y-83608600D01*
X102295100Y-83608600D02*
X103255100Y-84568600D01*
X101905800Y-85629900D02*
X100775500Y-85629900D01*
X100775500Y-85629900D02*
X98143500Y-88261900D01*
X98143500Y-88261900D02*
X98143500Y-88548600D01*
X98143500Y-88548600D02*
X84104000Y-102588100D01*
X84104000Y-102588100D02*
X84104000Y-116840000D01*
X60492900Y-110102800D02*
X56864000Y-113731700D01*
X56864000Y-113731700D02*
X56864000Y-116840000D01*
X61595000Y-83693000D02*
X60492900Y-84795100D01*
X60492900Y-84795100D02*
X60492900Y-110102800D01*
X60492900Y-110102800D02*
X65251100Y-110102800D01*
X65251100Y-110102800D02*
X71178700Y-116030400D01*
X71178700Y-116030400D02*
X71178700Y-116840000D01*
X72104000Y-116840000D02*
X71178700Y-116840000D01*
X114491000Y-105410500D02*
X111951000Y-105410500D01*
X116649500Y-107569000D02*
X114491000Y-105410500D01*
X93154500Y-75819000D02*
X96329500Y-75819000D01*
X92138500Y-74803000D02*
X93154500Y-75819000D01*
X52705000Y-84963000D02*
X46355000Y-91313000D01*
X52705000Y-83382000D02*
X52705000Y-84963000D01*
X61484700Y-81360800D02*
X54726200Y-81360800D01*
X54726200Y-81360800D02*
X52705000Y-83382000D01*
X67868000Y-74977500D02*
X61484700Y-81360800D01*
X87931500Y-74977500D02*
X67868000Y-74977500D01*
X89598500Y-76644500D02*
X87931500Y-74977500D01*
X89598500Y-78803500D02*
X89598500Y-76644500D01*
X90658400Y-81881700D02*
X83191500Y-81881700D01*
X83191500Y-81881700D02*
X81661000Y-83412200D01*
X81661000Y-83412200D02*
X81661000Y-84010900D01*
X81661000Y-84010900D02*
X74358900Y-91313000D01*
X74358900Y-91313000D02*
X67691000Y-91313000D01*
D20*
X54864000Y-106680000D02*
X57531000Y-106680000D01*
X50546000Y-104013000D02*
X53213000Y-106680000D01*
X53213000Y-106680000D02*
X54864000Y-106680000D01*
D21*
X54864000Y-116840000D02*
X54864000Y-106680000D01*
D19*
X85471000Y-96393000D02*
X101065300Y-80798700D01*
X101065300Y-80798700D02*
X101065300Y-80645000D01*
X64135000Y-96393000D02*
X65574000Y-94954000D01*
X65574000Y-94954000D02*
X68127900Y-94954000D01*
X68127900Y-94954000D02*
X68273600Y-94808300D01*
X68273600Y-94808300D02*
X73362600Y-94808300D01*
X73362600Y-94808300D02*
X84201000Y-83969900D01*
X84201000Y-83969900D02*
X84201000Y-83372900D01*
X84201000Y-83372900D02*
X84968300Y-82605600D01*
X84968300Y-82605600D02*
X86007200Y-82605600D01*
X86007200Y-82605600D02*
X88426800Y-85025200D01*
X88426800Y-85025200D02*
X90485200Y-85025200D01*
X82931000Y-96393000D02*
X96642100Y-82681900D01*
X96642100Y-82681900D02*
X96642100Y-82533700D01*
X97442501Y-81797201D02*
X97842500Y-82197200D01*
X61595000Y-95315370D02*
X71772770Y-85137600D01*
X76581000Y-83969200D02*
X76581000Y-83389300D01*
X93932199Y-81797201D02*
X97442501Y-81797201D01*
X76581000Y-83389300D02*
X78557900Y-81412400D01*
X75412600Y-85137600D02*
X76581000Y-83969200D01*
X71772770Y-85137600D02*
X75412600Y-85137600D01*
X61595000Y-96393000D02*
X61595000Y-95315370D01*
X78557900Y-81412400D02*
X93547398Y-81412400D01*
X93547398Y-81412400D02*
X93932199Y-81797201D01*
X67691000Y-96393000D02*
X68825300Y-95258700D01*
X68825300Y-95258700D02*
X78298600Y-95258700D01*
X78298600Y-95258700D02*
X79121000Y-96081100D01*
X79121000Y-96081100D02*
X79121000Y-96671700D01*
X79121000Y-96671700D02*
X79931500Y-97482200D01*
X79931500Y-97482200D02*
X85919700Y-97482200D01*
X85919700Y-97482200D02*
X90932900Y-92469000D01*
X90932900Y-92469000D02*
X90932900Y-91886500D01*
X90932900Y-91886500D02*
X100157300Y-82662100D01*
X100157300Y-82662100D02*
X104450700Y-82662100D01*
X104450700Y-82662100D02*
X104973600Y-83185000D01*
X104973600Y-83185000D02*
X104973600Y-83329600D01*
X104973600Y-83329600D02*
X107993300Y-86349300D01*
X107993300Y-86349300D02*
X108269700Y-86349300D01*
X91440000Y-113378700D02*
X91807300Y-113378700D01*
X91807300Y-113378700D02*
X92642900Y-112543100D01*
X92642900Y-112543100D02*
X92642900Y-111550600D01*
X92642900Y-111550600D02*
X91741700Y-110649400D01*
X91741700Y-110649400D02*
X90857600Y-110649400D01*
X90857600Y-110649400D02*
X90255900Y-110047700D01*
X90255900Y-110047700D02*
X90255900Y-98346800D01*
X90255900Y-98346800D02*
X99319100Y-89283600D01*
X99319100Y-89283600D02*
X99319100Y-88748900D01*
X91440000Y-114554000D02*
X91440000Y-113378700D01*
X101201100Y-86371000D02*
X100671300Y-86371000D01*
X100671300Y-86371000D02*
X98593800Y-88448500D01*
X98593800Y-88448500D02*
X98593800Y-89372000D01*
X98593800Y-89372000D02*
X87650200Y-100315600D01*
X87650200Y-100315600D02*
X87650200Y-113114700D01*
X87650200Y-113114700D02*
X87724800Y-113189300D01*
X90264700Y-112014000D02*
X90264700Y-112381400D01*
X90264700Y-112381400D02*
X89456800Y-113189300D01*
X89456800Y-113189300D02*
X87724800Y-113189300D01*
X91440000Y-112014000D02*
X90264700Y-112014000D01*
X81982599Y-118485491D02*
X84057509Y-118485491D01*
X60706000Y-120269000D02*
X61864000Y-119111000D01*
X47593000Y-116840000D02*
X47593000Y-118713000D01*
X47593000Y-118713000D02*
X49149000Y-120269000D01*
X49149000Y-120269000D02*
X60706000Y-120269000D01*
X61864000Y-119111000D02*
X61864000Y-116246500D01*
X61864000Y-116246500D02*
X62536100Y-115574400D01*
X87722700Y-113191400D02*
X87724800Y-113189300D01*
X81922990Y-118545100D02*
X81982599Y-118485491D01*
X69339400Y-118545100D02*
X81922990Y-118545100D01*
X66368700Y-115574400D02*
X69339400Y-118545100D01*
X62536100Y-115574400D02*
X66368700Y-115574400D01*
X84057509Y-118485491D02*
X87722700Y-114820300D01*
X87722700Y-114820300D02*
X87722700Y-113191400D01*
X108619900Y-90808900D02*
X110746800Y-90808900D01*
X110746800Y-90808900D02*
X111945800Y-89609900D01*
X108619900Y-88384000D02*
X108619900Y-90808900D01*
X44691700Y-74040600D02*
X88589800Y-74040600D01*
X42024300Y-76708000D02*
X44691700Y-74040600D01*
X109013100Y-87990800D02*
X108619900Y-88384000D01*
X88589800Y-74040600D02*
X90165200Y-75616000D01*
X105457200Y-81740800D02*
X109013100Y-85296700D01*
X90165200Y-75616000D02*
X92119502Y-75616000D01*
X92119502Y-75616000D02*
X93408500Y-76904998D01*
X93408500Y-76904998D02*
X93408500Y-77851000D01*
X109013100Y-85296700D02*
X109013100Y-87990800D01*
X93408500Y-77851000D02*
X94985990Y-79428490D01*
X94985990Y-79428490D02*
X101843990Y-79428490D01*
X101843990Y-79428490D02*
X104156300Y-81740800D01*
X104156300Y-81740800D02*
X105457200Y-81740800D01*
X105792801Y-93635999D02*
X108619900Y-90808900D01*
X91440000Y-109474000D02*
X103499489Y-97414511D01*
X103499489Y-97414511D02*
X103499489Y-95262009D01*
X103499489Y-95262009D02*
X105125499Y-93635999D01*
X105125499Y-93635999D02*
X105792801Y-93635999D01*
X91440000Y-105758700D02*
X91807300Y-105758700D01*
X91807300Y-105758700D02*
X100315100Y-97250900D01*
X100315100Y-97250900D02*
X100315100Y-88051900D01*
X91440000Y-106934000D02*
X91440000Y-105758700D01*
X121933000Y-82385000D02*
X121933000Y-90846500D01*
X114801750Y-75253750D02*
X121933000Y-82385000D01*
X114801750Y-73907750D02*
X114801750Y-75253750D01*
X113919000Y-73025000D02*
X114801750Y-73907750D01*
X101219000Y-73025000D02*
X113919000Y-73025000D01*
X117475000Y-104140000D02*
X116251500Y-102916500D01*
X116251500Y-102916500D02*
X116251500Y-101233300D01*
X116251500Y-101233300D02*
X119605600Y-97879200D01*
X119605600Y-97879200D02*
X119605600Y-89440900D01*
X119605600Y-89440900D02*
X118458800Y-88294100D01*
X109363200Y-90050900D02*
X113700300Y-85713800D01*
X113700300Y-85713800D02*
X113700300Y-75815100D01*
X49498500Y-76708000D02*
X50423800Y-76708000D01*
X90660300Y-76748000D02*
X88403300Y-74491000D01*
X88403300Y-74491000D02*
X51831200Y-74491000D01*
X51831200Y-74491000D02*
X50423800Y-75898400D01*
X50423800Y-75898400D02*
X50423800Y-76708000D01*
X92178500Y-76748000D02*
X90660300Y-76748000D01*
X93949300Y-80741300D02*
X94270410Y-81062410D01*
X70408800Y-77782200D02*
X73367900Y-80741300D01*
X70408800Y-76657200D02*
X70408800Y-77782200D01*
X73367900Y-80741300D02*
X93949300Y-80741300D01*
D22*
X94561268Y-112067033D02*
X93755000Y-112873301D01*
X94561268Y-111642768D02*
X94561268Y-112067033D01*
X93755000Y-112873301D02*
X93755000Y-116238800D01*
X93755000Y-116238800D02*
X92235800Y-117758000D01*
X92235800Y-117758000D02*
X87219300Y-117758000D01*
X80437000Y-120742500D02*
X80137000Y-120442500D01*
X84234800Y-120742500D02*
X80437000Y-120742500D01*
X87219300Y-117758000D02*
X84234800Y-120742500D01*
X94879467Y-112385232D02*
X94205000Y-113059699D01*
X95303732Y-112385232D02*
X94879467Y-112385232D01*
X94205000Y-113059699D02*
X94205000Y-116425200D01*
X94205000Y-116425200D02*
X92422200Y-118208000D01*
X92422200Y-118208000D02*
X87405700Y-118208000D01*
X80437000Y-121192500D02*
X80137000Y-121492500D01*
X84421200Y-121192500D02*
X80437000Y-121192500D01*
X87405700Y-118208000D02*
X84421200Y-121192500D01*
D19*
X32004000Y-112395000D02*
X30988000Y-111379000D01*
X30607000Y-110998000D02*
X30607000Y-110871000D01*
X30988000Y-111379000D02*
X30607000Y-110998000D01*
D23*
X122284545Y-69723409D02*
X122635208Y-69829280D01*
X122958625Y-70001244D01*
X123242484Y-70232754D01*
X123475965Y-70514986D01*
X123650183Y-70837195D01*
X123758502Y-71187114D01*
X123800000Y-71581943D01*
X123800001Y-121824211D01*
X123761091Y-122221045D01*
X123655220Y-122571706D01*
X123483257Y-122895123D01*
X123251748Y-123178982D01*
X122969514Y-123412465D01*
X122647304Y-123586684D01*
X122297385Y-123695002D01*
X121902557Y-123736500D01*
X91552947Y-123736500D01*
X91572535Y-123730558D01*
X91704564Y-123659986D01*
X91820289Y-123565013D01*
X91844092Y-123536009D01*
X95029889Y-120350212D01*
X102595000Y-120350212D01*
X102595000Y-120573788D01*
X102638617Y-120793067D01*
X102724176Y-120999624D01*
X102848388Y-121185520D01*
X103006480Y-121343612D01*
X103192376Y-121467824D01*
X103398933Y-121553383D01*
X103618212Y-121597000D01*
X103841788Y-121597000D01*
X104061067Y-121553383D01*
X104267624Y-121467824D01*
X104453520Y-121343612D01*
X104611612Y-121185520D01*
X104735824Y-120999624D01*
X104821383Y-120793067D01*
X104865000Y-120573788D01*
X104865000Y-120350212D01*
X110595000Y-120350212D01*
X110595000Y-120573788D01*
X110638617Y-120793067D01*
X110724176Y-120999624D01*
X110848388Y-121185520D01*
X111006480Y-121343612D01*
X111192376Y-121467824D01*
X111398933Y-121553383D01*
X111618212Y-121597000D01*
X111841788Y-121597000D01*
X112061067Y-121553383D01*
X112267624Y-121467824D01*
X112453520Y-121343612D01*
X112611612Y-121185520D01*
X112735824Y-120999624D01*
X112821383Y-120793067D01*
X112865000Y-120573788D01*
X112865000Y-120350212D01*
X112821383Y-120130933D01*
X112735824Y-119924376D01*
X112611612Y-119738480D01*
X112453520Y-119580388D01*
X112267624Y-119456176D01*
X112061067Y-119370617D01*
X111841788Y-119327000D01*
X111618212Y-119327000D01*
X111398933Y-119370617D01*
X111192376Y-119456176D01*
X111006480Y-119580388D01*
X110848388Y-119738480D01*
X110724176Y-119924376D01*
X110638617Y-120130933D01*
X110595000Y-120350212D01*
X104865000Y-120350212D01*
X104821383Y-120130933D01*
X104735824Y-119924376D01*
X104611612Y-119738480D01*
X104453520Y-119580388D01*
X104267624Y-119456176D01*
X104061067Y-119370617D01*
X103841788Y-119327000D01*
X103618212Y-119327000D01*
X103398933Y-119370617D01*
X103192376Y-119456176D01*
X103006480Y-119580388D01*
X102848388Y-119738480D01*
X102724176Y-119924376D01*
X102638617Y-120130933D01*
X102595000Y-120350212D01*
X95029889Y-120350212D01*
X101263500Y-114116601D01*
X101263500Y-114211439D01*
X101303274Y-114411398D01*
X101381295Y-114599756D01*
X101494563Y-114769274D01*
X101638726Y-114913437D01*
X101808244Y-115026705D01*
X101996602Y-115104726D01*
X102196561Y-115144500D01*
X102258699Y-115144500D01*
X103050852Y-115936654D01*
X103074650Y-115965652D01*
X103164025Y-116039000D01*
X103190375Y-116060625D01*
X103322404Y-116131197D01*
X103465665Y-116174654D01*
X103614651Y-116189328D01*
X103651984Y-116185651D01*
X104470329Y-116185651D01*
X104507651Y-116189327D01*
X104544973Y-116185651D01*
X104544984Y-116185651D01*
X104656637Y-116174654D01*
X104799898Y-116131197D01*
X104931927Y-116060625D01*
X105047652Y-115965652D01*
X105071455Y-115936648D01*
X106492503Y-114515601D01*
X106521501Y-114491803D01*
X106616474Y-114376078D01*
X106687046Y-114244049D01*
X106730503Y-114100788D01*
X106741500Y-113989135D01*
X106741500Y-113989126D01*
X106745176Y-113951803D01*
X106741500Y-113914480D01*
X106741500Y-113797211D01*
X106785437Y-113753274D01*
X106898705Y-113583756D01*
X106976726Y-113395398D01*
X107016500Y-113195439D01*
X107016500Y-112991561D01*
X106976726Y-112791602D01*
X106898705Y-112603244D01*
X106785437Y-112433726D01*
X106641274Y-112289563D01*
X106471756Y-112176295D01*
X106283398Y-112098274D01*
X106083439Y-112058500D01*
X105879561Y-112058500D01*
X105679602Y-112098274D01*
X105491244Y-112176295D01*
X105321726Y-112289563D01*
X105177563Y-112433726D01*
X105064295Y-112603244D01*
X104986274Y-112791602D01*
X104963500Y-112906096D01*
X104963500Y-112336711D01*
X105007437Y-112292774D01*
X105120705Y-112123256D01*
X105198726Y-111934898D01*
X105238500Y-111734939D01*
X105238500Y-111531061D01*
X105198726Y-111331102D01*
X105120705Y-111142744D01*
X105007437Y-110973226D01*
X104863274Y-110829063D01*
X104693756Y-110715795D01*
X104672932Y-110707169D01*
X108847071Y-106533031D01*
X108874295Y-106598756D01*
X108987563Y-106768274D01*
X109031501Y-106812212D01*
X109031500Y-107209289D01*
X108987563Y-107253226D01*
X108874295Y-107422744D01*
X108796274Y-107611102D01*
X108756500Y-107811061D01*
X108756500Y-108014939D01*
X108796274Y-108214898D01*
X108874295Y-108403256D01*
X108987563Y-108572774D01*
X109131726Y-108716937D01*
X109301244Y-108830205D01*
X109489602Y-108908226D01*
X109689561Y-108948000D01*
X109893439Y-108948000D01*
X110093398Y-108908226D01*
X110281756Y-108830205D01*
X110451274Y-108716937D01*
X110595437Y-108572774D01*
X110708705Y-108403256D01*
X110786726Y-108214898D01*
X110826500Y-108014939D01*
X110826500Y-107811061D01*
X110786726Y-107611102D01*
X110708705Y-107422744D01*
X110595437Y-107253226D01*
X110551500Y-107209289D01*
X110551500Y-106812211D01*
X110595437Y-106768274D01*
X110708705Y-106598756D01*
X110786726Y-106410398D01*
X110826500Y-106210439D01*
X110826500Y-106006561D01*
X110786726Y-105806602D01*
X110708705Y-105618244D01*
X110595437Y-105448726D01*
X110455272Y-105308561D01*
X110916000Y-105308561D01*
X110916000Y-105512439D01*
X110955774Y-105712398D01*
X111033795Y-105900756D01*
X111147063Y-106070274D01*
X111291226Y-106214437D01*
X111460744Y-106327705D01*
X111649102Y-106405726D01*
X111849061Y-106445500D01*
X112052939Y-106445500D01*
X112252898Y-106405726D01*
X112441256Y-106327705D01*
X112610774Y-106214437D01*
X112654711Y-106170500D01*
X114176199Y-106170500D01*
X115614500Y-107608802D01*
X115614500Y-107670939D01*
X115654274Y-107870898D01*
X115732295Y-108059256D01*
X115845563Y-108228774D01*
X115989726Y-108372937D01*
X116159244Y-108486205D01*
X116347602Y-108564226D01*
X116547561Y-108604000D01*
X116751439Y-108604000D01*
X116951398Y-108564226D01*
X117139756Y-108486205D01*
X117309274Y-108372937D01*
X117453437Y-108228774D01*
X117566705Y-108059256D01*
X117644726Y-107870898D01*
X117684500Y-107670939D01*
X117684500Y-107467061D01*
X117644726Y-107267102D01*
X117566705Y-107078744D01*
X117453437Y-106909226D01*
X117309274Y-106765063D01*
X117139756Y-106651795D01*
X116951398Y-106573774D01*
X116751439Y-106534000D01*
X116689302Y-106534000D01*
X115054804Y-104899503D01*
X115031001Y-104870499D01*
X114915276Y-104775526D01*
X114783247Y-104704954D01*
X114639986Y-104661497D01*
X114528333Y-104650500D01*
X114528322Y-104650500D01*
X114491000Y-104646824D01*
X114453678Y-104650500D01*
X112654711Y-104650500D01*
X112610774Y-104606563D01*
X112441256Y-104493295D01*
X112252898Y-104415274D01*
X112052939Y-104375500D01*
X111849061Y-104375500D01*
X111649102Y-104415274D01*
X111460744Y-104493295D01*
X111291226Y-104606563D01*
X111147063Y-104750726D01*
X111033795Y-104920244D01*
X110955774Y-105108602D01*
X110916000Y-105308561D01*
X110455272Y-105308561D01*
X110451274Y-105304563D01*
X110281756Y-105191295D01*
X110216031Y-105164071D01*
X118845600Y-96534502D01*
X118845600Y-97564398D01*
X115740498Y-100669501D01*
X115711500Y-100693299D01*
X115687702Y-100722297D01*
X115687701Y-100722298D01*
X115616526Y-100809024D01*
X115545954Y-100941054D01*
X115525894Y-101007185D01*
X115502498Y-101084314D01*
X115496324Y-101147001D01*
X115487824Y-101233300D01*
X115491501Y-101270632D01*
X115491500Y-102879177D01*
X115487824Y-102916500D01*
X115491500Y-102953822D01*
X115491500Y-102953832D01*
X115502497Y-103065485D01*
X115527762Y-103148774D01*
X115545954Y-103208746D01*
X115616526Y-103340776D01*
X115625554Y-103351776D01*
X115711499Y-103456501D01*
X115740503Y-103480304D01*
X115969842Y-103709644D01*
X115961928Y-103789999D01*
X115961928Y-104490001D01*
X115978992Y-104663255D01*
X116029528Y-104829851D01*
X116111595Y-104983387D01*
X116222038Y-105117962D01*
X116356613Y-105228405D01*
X116510149Y-105310472D01*
X116676745Y-105361008D01*
X116849999Y-105378072D01*
X118100001Y-105378072D01*
X118273255Y-105361008D01*
X118439851Y-105310472D01*
X118593387Y-105228405D01*
X118727962Y-105117962D01*
X118838405Y-104983387D01*
X118920472Y-104829851D01*
X118971008Y-104663255D01*
X118988072Y-104490001D01*
X118988072Y-103789999D01*
X118971008Y-103616745D01*
X118920472Y-103450149D01*
X118838405Y-103296613D01*
X118727962Y-103162038D01*
X118593387Y-103051595D01*
X118588594Y-103049033D01*
X118713078Y-102923474D01*
X118847421Y-102720533D01*
X118939591Y-102495282D01*
X118943462Y-102457609D01*
X118818731Y-102267000D01*
X117602000Y-102267000D01*
X117602000Y-102287000D01*
X117348000Y-102287000D01*
X117348000Y-102267000D01*
X117328000Y-102267000D01*
X117328000Y-102013000D01*
X117348000Y-102013000D01*
X117348000Y-101993000D01*
X117602000Y-101993000D01*
X117602000Y-102013000D01*
X118818731Y-102013000D01*
X118943462Y-101822391D01*
X118939591Y-101784718D01*
X118847421Y-101559467D01*
X118713078Y-101356526D01*
X118541725Y-101183693D01*
X118339946Y-101047610D01*
X118115496Y-100953507D01*
X117877000Y-100905000D01*
X117654601Y-100905000D01*
X120116604Y-98442998D01*
X120145601Y-98419201D01*
X120240574Y-98303476D01*
X120311146Y-98171447D01*
X120354603Y-98028186D01*
X120365600Y-97916533D01*
X120365600Y-97916525D01*
X120369276Y-97879200D01*
X120365600Y-97841875D01*
X120365600Y-89478222D01*
X120369276Y-89440899D01*
X120365600Y-89403576D01*
X120365600Y-89403567D01*
X120354603Y-89291914D01*
X120311146Y-89148653D01*
X120302780Y-89133002D01*
X120240574Y-89016623D01*
X120169399Y-88929897D01*
X120145601Y-88900899D01*
X120116603Y-88877101D01*
X119493800Y-88254299D01*
X119493800Y-88192161D01*
X119454026Y-87992202D01*
X119376005Y-87803844D01*
X119314186Y-87711325D01*
X119370737Y-87654774D01*
X119484005Y-87485256D01*
X119562026Y-87296898D01*
X119601800Y-87096939D01*
X119601800Y-86893061D01*
X119562026Y-86693102D01*
X119484005Y-86504744D01*
X119370737Y-86335226D01*
X119226574Y-86191063D01*
X119057056Y-86077795D01*
X118868698Y-85999774D01*
X118668739Y-85960000D01*
X118464861Y-85960000D01*
X118264902Y-85999774D01*
X118076544Y-86077795D01*
X117907026Y-86191063D01*
X117762863Y-86335226D01*
X117649595Y-86504744D01*
X117571574Y-86693102D01*
X117531800Y-86893061D01*
X117531800Y-86955199D01*
X117215998Y-87271001D01*
X117187000Y-87294799D01*
X117163202Y-87323797D01*
X117163201Y-87323798D01*
X117092026Y-87410524D01*
X117021454Y-87542554D01*
X117003262Y-87602528D01*
X116977998Y-87685814D01*
X116975232Y-87713900D01*
X116963324Y-87834800D01*
X116967001Y-87872132D01*
X116967000Y-95559798D01*
X110674412Y-101852386D01*
X110658937Y-101829226D01*
X110589900Y-101760189D01*
X110589900Y-100429201D01*
X115021104Y-95997998D01*
X115050101Y-95974201D01*
X115145074Y-95858476D01*
X115215646Y-95726447D01*
X115259103Y-95583186D01*
X115270100Y-95471533D01*
X115270100Y-95471524D01*
X115273776Y-95434201D01*
X115270100Y-95396878D01*
X115270100Y-82994711D01*
X115314037Y-82950774D01*
X115427305Y-82781256D01*
X115505326Y-82592898D01*
X115545100Y-82392939D01*
X115545100Y-82189061D01*
X115505326Y-81989102D01*
X115427305Y-81800744D01*
X115314037Y-81631226D01*
X115169874Y-81487063D01*
X115000356Y-81373795D01*
X114811998Y-81295774D01*
X114612039Y-81256000D01*
X114460300Y-81256000D01*
X114460300Y-76518811D01*
X114504237Y-76474874D01*
X114617505Y-76305356D01*
X114664676Y-76191477D01*
X121173000Y-82699803D01*
X121173001Y-90142788D01*
X121129063Y-90186726D01*
X121015795Y-90356244D01*
X120937774Y-90544602D01*
X120898000Y-90744561D01*
X120898000Y-90948439D01*
X120937774Y-91148398D01*
X121015795Y-91336756D01*
X121129063Y-91506274D01*
X121273226Y-91650437D01*
X121442744Y-91763705D01*
X121631102Y-91841726D01*
X121831061Y-91881500D01*
X122034939Y-91881500D01*
X122234898Y-91841726D01*
X122423256Y-91763705D01*
X122592774Y-91650437D01*
X122736937Y-91506274D01*
X122850205Y-91336756D01*
X122928226Y-91148398D01*
X122968000Y-90948439D01*
X122968000Y-90744561D01*
X122928226Y-90544602D01*
X122850205Y-90356244D01*
X122736937Y-90186726D01*
X122693000Y-90142789D01*
X122693000Y-82422322D01*
X122696676Y-82384999D01*
X122693000Y-82347676D01*
X122693000Y-82347667D01*
X122682003Y-82236014D01*
X122638546Y-82092753D01*
X122567974Y-81960724D01*
X122548873Y-81937449D01*
X122496799Y-81873996D01*
X122496795Y-81873992D01*
X122473001Y-81844999D01*
X122444009Y-81821206D01*
X115561750Y-74938949D01*
X115561750Y-73945072D01*
X115565426Y-73907749D01*
X115561750Y-73870426D01*
X115561750Y-73870417D01*
X115550753Y-73758764D01*
X115507296Y-73615503D01*
X115480302Y-73565001D01*
X115436724Y-73483473D01*
X115365549Y-73396747D01*
X115341751Y-73367749D01*
X115312754Y-73343952D01*
X114482803Y-72514002D01*
X114459001Y-72484999D01*
X114343276Y-72390026D01*
X114211247Y-72319454D01*
X114067986Y-72275997D01*
X113956333Y-72265000D01*
X113956322Y-72265000D01*
X113919000Y-72261324D01*
X113881678Y-72265000D01*
X101922711Y-72265000D01*
X101878774Y-72221063D01*
X101709256Y-72107795D01*
X101520898Y-72029774D01*
X101320939Y-71990000D01*
X101117061Y-71990000D01*
X100917102Y-72029774D01*
X100728744Y-72107795D01*
X100559226Y-72221063D01*
X100415063Y-72365226D01*
X100301795Y-72534744D01*
X100223774Y-72723102D01*
X100184000Y-72923061D01*
X100184000Y-73126939D01*
X100223774Y-73326898D01*
X100301795Y-73515256D01*
X100415063Y-73684774D01*
X100559226Y-73828937D01*
X100728744Y-73942205D01*
X100917102Y-74020226D01*
X101117061Y-74060000D01*
X101320939Y-74060000D01*
X101520898Y-74020226D01*
X101709256Y-73942205D01*
X101878774Y-73828937D01*
X101922711Y-73785000D01*
X113604199Y-73785000D01*
X114041750Y-74222552D01*
X114041751Y-74836257D01*
X114002198Y-74819874D01*
X113802239Y-74780100D01*
X113598361Y-74780100D01*
X113398402Y-74819874D01*
X113210044Y-74897895D01*
X113040526Y-75011163D01*
X112896363Y-75155326D01*
X112783095Y-75324844D01*
X112705074Y-75513202D01*
X112665300Y-75713161D01*
X112665300Y-75917039D01*
X112705074Y-76116998D01*
X112783095Y-76305356D01*
X112896363Y-76474874D01*
X112940301Y-76518812D01*
X112940300Y-85398998D01*
X109379900Y-88959399D01*
X109379900Y-88698801D01*
X109524097Y-88554604D01*
X109553101Y-88530801D01*
X109648074Y-88415076D01*
X109718646Y-88283047D01*
X109762103Y-88139786D01*
X109773100Y-88028133D01*
X109773100Y-88028125D01*
X109776776Y-87990800D01*
X109773100Y-87953475D01*
X109773100Y-85334022D01*
X109776776Y-85296699D01*
X109773100Y-85259377D01*
X109773100Y-85259367D01*
X109762103Y-85147714D01*
X109718646Y-85004453D01*
X109700544Y-84970587D01*
X109648074Y-84872423D01*
X109576899Y-84785697D01*
X109553101Y-84756699D01*
X109524104Y-84732902D01*
X106021004Y-81229803D01*
X105997201Y-81200799D01*
X105881476Y-81105826D01*
X105749447Y-81035254D01*
X105606186Y-80991797D01*
X105494533Y-80980800D01*
X105494522Y-80980800D01*
X105457200Y-80977124D01*
X105419878Y-80980800D01*
X104471102Y-80980800D01*
X102407794Y-78917493D01*
X102383991Y-78888489D01*
X102268266Y-78793516D01*
X102136237Y-78722944D01*
X101992976Y-78679487D01*
X101881323Y-78668490D01*
X101881312Y-78668490D01*
X101843990Y-78664814D01*
X101806668Y-78668490D01*
X95300792Y-78668490D01*
X94168500Y-77536199D01*
X94168500Y-76942320D01*
X94172176Y-76904997D01*
X94168500Y-76867674D01*
X94168500Y-76867665D01*
X94157503Y-76756012D01*
X94114046Y-76612751D01*
X94096005Y-76579000D01*
X95465244Y-76579000D01*
X95525563Y-76669274D01*
X95669726Y-76813437D01*
X95839244Y-76926705D01*
X96027602Y-77004726D01*
X96227561Y-77044500D01*
X96431439Y-77044500D01*
X96631398Y-77004726D01*
X96819756Y-76926705D01*
X96989274Y-76813437D01*
X97133437Y-76669274D01*
X97246705Y-76499756D01*
X97324726Y-76311398D01*
X97364500Y-76111439D01*
X97364500Y-75907561D01*
X97324726Y-75707602D01*
X97246705Y-75519244D01*
X97133437Y-75349726D01*
X96989274Y-75205563D01*
X96819756Y-75092295D01*
X96631398Y-75014274D01*
X96431439Y-74974500D01*
X96227561Y-74974500D01*
X96027602Y-75014274D01*
X95919625Y-75059000D01*
X93469302Y-75059000D01*
X93173500Y-74763199D01*
X93173500Y-74701061D01*
X93133726Y-74501102D01*
X93055705Y-74312744D01*
X92942437Y-74143226D01*
X92798274Y-73999063D01*
X92628756Y-73885795D01*
X92440398Y-73807774D01*
X92240439Y-73768000D01*
X92228780Y-73768000D01*
X92319110Y-73549925D01*
X92405000Y-73118128D01*
X92405000Y-72677872D01*
X92319110Y-72246075D01*
X92150631Y-71839331D01*
X91906038Y-71473271D01*
X91594729Y-71161962D01*
X91228669Y-70917369D01*
X90821925Y-70748890D01*
X90390128Y-70663000D01*
X89949872Y-70663000D01*
X89518075Y-70748890D01*
X89111331Y-70917369D01*
X88745271Y-71161962D01*
X88433962Y-71473271D01*
X88189369Y-71839331D01*
X88020890Y-72246075D01*
X87935000Y-72677872D01*
X87935000Y-73118128D01*
X87967318Y-73280600D01*
X44729022Y-73280600D01*
X44691699Y-73276924D01*
X44654376Y-73280600D01*
X44654367Y-73280600D01*
X44542714Y-73291597D01*
X44399453Y-73335054D01*
X44267424Y-73405626D01*
X44151699Y-73500599D01*
X44127901Y-73529597D01*
X42454656Y-75202842D01*
X42374301Y-75194928D01*
X41674299Y-75194928D01*
X41501045Y-75211992D01*
X41334449Y-75262528D01*
X41180913Y-75344595D01*
X41046338Y-75455038D01*
X40935895Y-75589613D01*
X40933333Y-75594406D01*
X40807774Y-75469922D01*
X40604833Y-75335579D01*
X40379582Y-75243409D01*
X40341909Y-75239538D01*
X40151300Y-75364269D01*
X40151300Y-76581000D01*
X40171300Y-76581000D01*
X40171300Y-76835000D01*
X40151300Y-76835000D01*
X40151300Y-78051731D01*
X40341909Y-78176462D01*
X40379582Y-78172591D01*
X40604833Y-78080421D01*
X40807774Y-77946078D01*
X40933333Y-77821594D01*
X40935895Y-77826387D01*
X41046338Y-77960962D01*
X41180913Y-78071405D01*
X41334449Y-78153472D01*
X41501045Y-78204008D01*
X41674299Y-78221072D01*
X42374301Y-78221072D01*
X42547555Y-78204008D01*
X42714151Y-78153472D01*
X42867687Y-78071405D01*
X43002262Y-77960962D01*
X43112705Y-77826387D01*
X43194772Y-77672851D01*
X43245308Y-77506255D01*
X43262372Y-77333001D01*
X43262372Y-76835000D01*
X46263500Y-76835000D01*
X46263500Y-77110000D01*
X46312007Y-77348496D01*
X46406110Y-77572946D01*
X46542193Y-77774725D01*
X46715026Y-77946078D01*
X46917967Y-78080421D01*
X47143218Y-78172591D01*
X47180891Y-78176462D01*
X47371500Y-78051731D01*
X47371500Y-76835000D01*
X46263500Y-76835000D01*
X43262372Y-76835000D01*
X43262372Y-76544729D01*
X43501101Y-76306000D01*
X46263500Y-76306000D01*
X46263500Y-76581000D01*
X47371500Y-76581000D01*
X47371500Y-75364269D01*
X47180891Y-75239538D01*
X47143218Y-75243409D01*
X46917967Y-75335579D01*
X46715026Y-75469922D01*
X46542193Y-75641275D01*
X46406110Y-75843054D01*
X46312007Y-76067504D01*
X46263500Y-76306000D01*
X43501101Y-76306000D01*
X45006502Y-74800600D01*
X50446799Y-74800600D01*
X49963817Y-75283582D01*
X49740602Y-75215870D01*
X49498500Y-75192025D01*
X49256399Y-75215870D01*
X49023600Y-75286489D01*
X48809052Y-75401167D01*
X48620999Y-75555498D01*
X48498020Y-75705349D01*
X48454807Y-75641275D01*
X48281974Y-75469922D01*
X48079033Y-75335579D01*
X47853782Y-75243409D01*
X47816109Y-75239538D01*
X47625500Y-75364269D01*
X47625500Y-76581000D01*
X47645500Y-76581000D01*
X47645500Y-76835000D01*
X47625500Y-76835000D01*
X47625500Y-78051731D01*
X47816109Y-78176462D01*
X47853782Y-78172591D01*
X48079033Y-78080421D01*
X48281974Y-77946078D01*
X48454807Y-77774725D01*
X48498019Y-77710651D01*
X48620998Y-77860502D01*
X48809051Y-78014833D01*
X49023599Y-78129511D01*
X49256398Y-78200130D01*
X49498500Y-78223975D01*
X49740601Y-78200130D01*
X49973400Y-78129511D01*
X50187948Y-78014833D01*
X50376002Y-77860502D01*
X50407691Y-77821889D01*
X50410095Y-77826387D01*
X50520538Y-77960962D01*
X50655113Y-78071405D01*
X50808649Y-78153472D01*
X50975245Y-78204008D01*
X51148499Y-78221072D01*
X51848501Y-78221072D01*
X52021755Y-78204008D01*
X52188351Y-78153472D01*
X52341887Y-78071405D01*
X52476462Y-77960962D01*
X52586905Y-77826387D01*
X52668972Y-77672851D01*
X52719508Y-77506255D01*
X52736572Y-77333001D01*
X52736572Y-76082999D01*
X52719508Y-75909745D01*
X52668972Y-75743149D01*
X52586905Y-75589613D01*
X52476462Y-75455038D01*
X52341887Y-75344595D01*
X52188351Y-75262528D01*
X52150348Y-75251000D01*
X56621391Y-75251000D01*
X56504400Y-75286489D01*
X56289852Y-75401167D01*
X56101799Y-75555498D01*
X55947468Y-75743551D01*
X55832789Y-75958099D01*
X55762170Y-76190898D01*
X55744300Y-76372335D01*
X55744300Y-77043664D01*
X55762170Y-77225101D01*
X55832789Y-77457900D01*
X55947467Y-77672448D01*
X56101798Y-77860502D01*
X56289851Y-78014833D01*
X56504399Y-78129511D01*
X56737198Y-78200130D01*
X56979300Y-78223975D01*
X57221401Y-78200130D01*
X57454200Y-78129511D01*
X57668748Y-78014833D01*
X57856802Y-77860502D01*
X57979300Y-77711237D01*
X58101798Y-77860502D01*
X58289851Y-78014833D01*
X58504399Y-78129511D01*
X58737198Y-78200130D01*
X58979300Y-78223975D01*
X59221401Y-78200130D01*
X59454200Y-78129511D01*
X59668748Y-78014833D01*
X59856802Y-77860502D01*
X59979300Y-77711237D01*
X60101798Y-77860502D01*
X60289851Y-78014833D01*
X60504399Y-78129511D01*
X60737198Y-78200130D01*
X60979300Y-78223975D01*
X61221401Y-78200130D01*
X61454200Y-78129511D01*
X61668748Y-78014833D01*
X61856802Y-77860502D01*
X61888491Y-77821889D01*
X61890895Y-77826387D01*
X62001338Y-77960962D01*
X62135913Y-78071405D01*
X62289449Y-78153472D01*
X62456045Y-78204008D01*
X62629299Y-78221072D01*
X63329301Y-78221072D01*
X63502555Y-78204008D01*
X63594617Y-78176082D01*
X61169899Y-80600800D01*
X54763522Y-80600800D01*
X54726199Y-80597124D01*
X54688876Y-80600800D01*
X54688867Y-80600800D01*
X54577214Y-80611797D01*
X54433953Y-80655254D01*
X54301924Y-80725826D01*
X54301922Y-80725827D01*
X54301923Y-80725827D01*
X54215196Y-80797001D01*
X54215192Y-80797005D01*
X54186199Y-80820799D01*
X54162405Y-80849792D01*
X52364927Y-82647272D01*
X52325535Y-82607880D01*
X52096727Y-82454995D01*
X51842490Y-82349686D01*
X51572592Y-82296000D01*
X51297408Y-82296000D01*
X51027510Y-82349686D01*
X50773273Y-82454995D01*
X50544465Y-82607880D01*
X50349880Y-82802465D01*
X50196995Y-83031273D01*
X50167308Y-83102943D01*
X50162636Y-83089977D01*
X50100656Y-82974020D01*
X49860565Y-82907040D01*
X49074605Y-83693000D01*
X49860565Y-84478960D01*
X50100656Y-84411980D01*
X50164485Y-84276240D01*
X50196995Y-84354727D01*
X50349880Y-84583535D01*
X50544465Y-84778120D01*
X50773273Y-84931005D01*
X51027510Y-85036314D01*
X51297408Y-85090000D01*
X51503198Y-85090000D01*
X46646571Y-89946628D01*
X46492592Y-89916000D01*
X46217408Y-89916000D01*
X45947510Y-89969686D01*
X45693273Y-90074995D01*
X45464465Y-90227880D01*
X45269880Y-90422465D01*
X45116995Y-90651273D01*
X45011686Y-90905510D01*
X44958000Y-91175408D01*
X44958000Y-91450592D01*
X45011686Y-91720490D01*
X45116995Y-91974727D01*
X45269880Y-92203535D01*
X45464465Y-92398120D01*
X45693273Y-92551005D01*
X45770515Y-92583000D01*
X45693273Y-92614995D01*
X45464465Y-92767880D01*
X45269880Y-92962465D01*
X45116995Y-93191273D01*
X45011686Y-93445510D01*
X44958000Y-93715408D01*
X44958000Y-93990592D01*
X45011686Y-94260490D01*
X45116995Y-94514727D01*
X45269880Y-94743535D01*
X45464465Y-94938120D01*
X45693273Y-95091005D01*
X45770515Y-95123000D01*
X45693273Y-95154995D01*
X45464465Y-95307880D01*
X45269880Y-95502465D01*
X45116995Y-95731273D01*
X45011686Y-95985510D01*
X44958000Y-96255408D01*
X44958000Y-96530592D01*
X45011686Y-96800490D01*
X45116995Y-97054727D01*
X45269880Y-97283535D01*
X45464465Y-97478120D01*
X45693273Y-97631005D01*
X45947510Y-97736314D01*
X46217408Y-97790000D01*
X46492592Y-97790000D01*
X46762490Y-97736314D01*
X47016727Y-97631005D01*
X47245535Y-97478120D01*
X47440120Y-97283535D01*
X47593005Y-97054727D01*
X47625000Y-96977485D01*
X47656995Y-97054727D01*
X47809880Y-97283535D01*
X48004465Y-97478120D01*
X48233273Y-97631005D01*
X48487510Y-97736314D01*
X48757408Y-97790000D01*
X49032592Y-97790000D01*
X49302490Y-97736314D01*
X49556727Y-97631005D01*
X49785535Y-97478120D01*
X49980120Y-97283535D01*
X50133005Y-97054727D01*
X50165000Y-96977485D01*
X50196995Y-97054727D01*
X50349880Y-97283535D01*
X50544465Y-97478120D01*
X50773273Y-97631005D01*
X51027510Y-97736314D01*
X51297408Y-97790000D01*
X51572592Y-97790000D01*
X51842490Y-97736314D01*
X52096727Y-97631005D01*
X52325535Y-97478120D01*
X52520120Y-97283535D01*
X52673005Y-97054727D01*
X52705000Y-96977485D01*
X52736995Y-97054727D01*
X52889880Y-97283535D01*
X53084465Y-97478120D01*
X53313273Y-97631005D01*
X53567510Y-97736314D01*
X53837408Y-97790000D01*
X54112592Y-97790000D01*
X54382490Y-97736314D01*
X54636727Y-97631005D01*
X54865535Y-97478120D01*
X55060120Y-97283535D01*
X55213005Y-97054727D01*
X55245000Y-96977485D01*
X55276995Y-97054727D01*
X55429880Y-97283535D01*
X55624465Y-97478120D01*
X55853273Y-97631005D01*
X56107510Y-97736314D01*
X56377408Y-97790000D01*
X56652592Y-97790000D01*
X56922490Y-97736314D01*
X57176727Y-97631005D01*
X57405535Y-97478120D01*
X57600120Y-97283535D01*
X57753005Y-97054727D01*
X57782692Y-96983057D01*
X57787364Y-96996023D01*
X57849344Y-97111980D01*
X58089435Y-97178960D01*
X58875395Y-96393000D01*
X58089435Y-95607040D01*
X57849344Y-95674020D01*
X57785515Y-95809760D01*
X57753005Y-95731273D01*
X57600120Y-95502465D01*
X57405535Y-95307880D01*
X57176727Y-95154995D01*
X56922490Y-95049686D01*
X56652592Y-94996000D01*
X56377408Y-94996000D01*
X56107510Y-95049686D01*
X55853273Y-95154995D01*
X55624465Y-95307880D01*
X55429880Y-95502465D01*
X55276995Y-95731273D01*
X55245000Y-95808515D01*
X55213005Y-95731273D01*
X55060120Y-95502465D01*
X54865535Y-95307880D01*
X54735000Y-95220659D01*
X54735000Y-90990901D01*
X59732900Y-85993002D01*
X59732900Y-95168027D01*
X59524952Y-95070244D01*
X59257865Y-95003977D01*
X58982983Y-94991090D01*
X58710867Y-95032078D01*
X58451977Y-95125364D01*
X58336020Y-95187344D01*
X58269040Y-95427435D01*
X59055000Y-96213395D01*
X59069143Y-96199253D01*
X59248748Y-96378858D01*
X59234605Y-96393000D01*
X59248748Y-96407143D01*
X59069143Y-96586748D01*
X59055000Y-96572605D01*
X58269040Y-97358565D01*
X58336020Y-97598656D01*
X58585048Y-97715756D01*
X58852135Y-97782023D01*
X59127017Y-97794910D01*
X59399133Y-97753922D01*
X59658023Y-97660636D01*
X59732901Y-97620613D01*
X59732901Y-109787997D01*
X56353003Y-113167896D01*
X56323999Y-113191699D01*
X56285993Y-113238010D01*
X56229026Y-113307424D01*
X56163507Y-113430000D01*
X56158454Y-113439454D01*
X56114997Y-113582715D01*
X56104000Y-113694368D01*
X56104000Y-113694378D01*
X56100324Y-113731700D01*
X56104000Y-113769023D01*
X56104001Y-115591066D01*
X55986498Y-115687498D01*
X55954809Y-115726111D01*
X55952405Y-115721613D01*
X55841962Y-115587038D01*
X55799000Y-115551780D01*
X55799000Y-107690000D01*
X57303377Y-107690000D01*
X57429061Y-107715000D01*
X57632939Y-107715000D01*
X57832898Y-107675226D01*
X58021256Y-107597205D01*
X58190774Y-107483937D01*
X58334937Y-107339774D01*
X58448205Y-107170256D01*
X58526226Y-106981898D01*
X58566000Y-106781939D01*
X58566000Y-106578061D01*
X58526226Y-106378102D01*
X58448205Y-106189744D01*
X58334937Y-106020226D01*
X58190774Y-105876063D01*
X58021256Y-105762795D01*
X57832898Y-105684774D01*
X57632939Y-105645000D01*
X57429061Y-105645000D01*
X57303377Y-105670000D01*
X53631356Y-105670000D01*
X51421132Y-103459777D01*
X51349937Y-103353226D01*
X51205774Y-103209063D01*
X51036256Y-103095795D01*
X50847898Y-103017774D01*
X50647939Y-102978000D01*
X50444061Y-102978000D01*
X50244102Y-103017774D01*
X50055744Y-103095795D01*
X49886226Y-103209063D01*
X49742063Y-103353226D01*
X49628795Y-103522744D01*
X49550774Y-103711102D01*
X49511000Y-103911061D01*
X49511000Y-104114939D01*
X49550774Y-104314898D01*
X49628795Y-104503256D01*
X49742063Y-104672774D01*
X49886226Y-104816937D01*
X49992777Y-104888132D01*
X52463744Y-107359100D01*
X52495367Y-107397633D01*
X52649160Y-107523847D01*
X52733587Y-107568974D01*
X52824620Y-107617632D01*
X53015005Y-107675385D01*
X53213000Y-107694886D01*
X53262608Y-107690000D01*
X53929001Y-107690000D01*
X53929000Y-115551780D01*
X53886038Y-115587038D01*
X53775595Y-115721613D01*
X53693528Y-115875149D01*
X53642992Y-116041745D01*
X53625928Y-116214999D01*
X53625928Y-117465001D01*
X53642992Y-117638255D01*
X53693528Y-117804851D01*
X53775595Y-117958387D01*
X53886038Y-118092962D01*
X54020613Y-118203405D01*
X54174149Y-118285472D01*
X54340745Y-118336008D01*
X54513999Y-118353072D01*
X55214001Y-118353072D01*
X55387255Y-118336008D01*
X55553851Y-118285472D01*
X55707387Y-118203405D01*
X55841962Y-118092962D01*
X55952405Y-117958387D01*
X55954810Y-117953888D01*
X55986499Y-117992502D01*
X56174552Y-118146833D01*
X56389100Y-118261511D01*
X56621899Y-118332130D01*
X56864000Y-118355975D01*
X57106102Y-118332130D01*
X57338901Y-118261511D01*
X57553449Y-118146833D01*
X57741502Y-117992502D01*
X57864000Y-117843237D01*
X57986499Y-117992502D01*
X58174552Y-118146833D01*
X58389100Y-118261511D01*
X58621899Y-118332130D01*
X58864000Y-118355975D01*
X59106102Y-118332130D01*
X59338901Y-118261511D01*
X59553449Y-118146833D01*
X59741502Y-117992502D01*
X59864481Y-117842652D01*
X59907693Y-117906725D01*
X60080526Y-118078078D01*
X60283467Y-118212421D01*
X60508718Y-118304591D01*
X60546391Y-118308462D01*
X60737000Y-118183731D01*
X60737000Y-116967000D01*
X60717000Y-116967000D01*
X60717000Y-116713000D01*
X60737000Y-116713000D01*
X60737000Y-115496269D01*
X60546391Y-115371538D01*
X60508718Y-115375409D01*
X60283467Y-115467579D01*
X60080526Y-115601922D01*
X59907693Y-115773275D01*
X59864481Y-115837348D01*
X59741502Y-115687498D01*
X59553448Y-115533167D01*
X59338900Y-115418489D01*
X59106101Y-115347870D01*
X58864000Y-115324025D01*
X58621898Y-115347870D01*
X58389099Y-115418489D01*
X58174551Y-115533167D01*
X57986498Y-115687498D01*
X57864000Y-115836763D01*
X57741502Y-115687498D01*
X57624000Y-115591067D01*
X57624000Y-114046501D01*
X60807702Y-110862800D01*
X64936299Y-110862800D01*
X69455487Y-115381988D01*
X69414149Y-115394528D01*
X69260613Y-115476595D01*
X69126038Y-115587038D01*
X69015595Y-115721613D01*
X68933528Y-115875149D01*
X68882992Y-116041745D01*
X68865928Y-116214999D01*
X68865928Y-116996826D01*
X66932504Y-115063403D01*
X66908701Y-115034399D01*
X66792976Y-114939426D01*
X66660947Y-114868854D01*
X66517686Y-114825397D01*
X66406033Y-114814400D01*
X66406022Y-114814400D01*
X66368700Y-114810724D01*
X66331378Y-114814400D01*
X62573423Y-114814400D01*
X62536100Y-114810724D01*
X62498777Y-114814400D01*
X62498767Y-114814400D01*
X62387114Y-114825397D01*
X62243853Y-114868854D01*
X62111823Y-114939426D01*
X62032256Y-115004726D01*
X61996099Y-115034399D01*
X61972300Y-115063398D01*
X61518894Y-115516805D01*
X61444533Y-115467579D01*
X61219282Y-115375409D01*
X61181609Y-115371538D01*
X60991000Y-115496269D01*
X60991000Y-116713000D01*
X61011000Y-116713000D01*
X61011000Y-116967000D01*
X60991000Y-116967000D01*
X60991000Y-118183731D01*
X61104000Y-118257676D01*
X61104000Y-118796198D01*
X60391199Y-119509000D01*
X49463802Y-119509000D01*
X48353000Y-118398199D01*
X48353000Y-118088933D01*
X48470502Y-117992502D01*
X48593481Y-117842652D01*
X48636693Y-117906725D01*
X48809526Y-118078078D01*
X49012467Y-118212421D01*
X49237718Y-118304591D01*
X49275391Y-118308462D01*
X49466000Y-118183731D01*
X49466000Y-116967000D01*
X49720000Y-116967000D01*
X49720000Y-118183731D01*
X49910609Y-118308462D01*
X49948282Y-118304591D01*
X50173533Y-118212421D01*
X50376474Y-118078078D01*
X50549307Y-117906725D01*
X50685390Y-117704946D01*
X50779493Y-117480496D01*
X50828000Y-117242000D01*
X50828000Y-116967000D01*
X49720000Y-116967000D01*
X49466000Y-116967000D01*
X49446000Y-116967000D01*
X49446000Y-116713000D01*
X49466000Y-116713000D01*
X49466000Y-115496269D01*
X49720000Y-115496269D01*
X49720000Y-116713000D01*
X50828000Y-116713000D01*
X50828000Y-116438000D01*
X50779493Y-116199504D01*
X50685390Y-115975054D01*
X50549307Y-115773275D01*
X50376474Y-115601922D01*
X50173533Y-115467579D01*
X49948282Y-115375409D01*
X49910609Y-115371538D01*
X49720000Y-115496269D01*
X49466000Y-115496269D01*
X49275391Y-115371538D01*
X49237718Y-115375409D01*
X49012467Y-115467579D01*
X48809526Y-115601922D01*
X48636693Y-115773275D01*
X48593481Y-115837348D01*
X48470502Y-115687498D01*
X48282448Y-115533167D01*
X48067900Y-115418489D01*
X47835101Y-115347870D01*
X47593000Y-115324025D01*
X47350898Y-115347870D01*
X47118099Y-115418489D01*
X46903551Y-115533167D01*
X46715498Y-115687498D01*
X46683809Y-115726111D01*
X46681405Y-115721613D01*
X46570962Y-115587038D01*
X46436387Y-115476595D01*
X46282851Y-115394528D01*
X46116255Y-115343992D01*
X45943001Y-115326928D01*
X45242999Y-115326928D01*
X45069745Y-115343992D01*
X44903149Y-115394528D01*
X44749613Y-115476595D01*
X44615038Y-115587038D01*
X44504595Y-115721613D01*
X44422528Y-115875149D01*
X44371992Y-116041745D01*
X44354928Y-116214999D01*
X44354928Y-117465001D01*
X44371992Y-117638255D01*
X44422528Y-117804851D01*
X44504595Y-117958387D01*
X44615038Y-118092962D01*
X44749613Y-118203405D01*
X44903149Y-118285472D01*
X45069745Y-118336008D01*
X45242999Y-118353072D01*
X45943001Y-118353072D01*
X46116255Y-118336008D01*
X46282851Y-118285472D01*
X46436387Y-118203405D01*
X46570962Y-118092962D01*
X46681405Y-117958387D01*
X46683810Y-117953888D01*
X46715499Y-117992502D01*
X46833001Y-118088933D01*
X46833001Y-118675668D01*
X46829324Y-118713000D01*
X46833001Y-118750333D01*
X46843643Y-118858376D01*
X46843998Y-118861985D01*
X46887454Y-119005246D01*
X46958026Y-119137276D01*
X46993150Y-119180074D01*
X47053000Y-119253001D01*
X47081998Y-119276799D01*
X48585201Y-120780003D01*
X48608999Y-120809001D01*
X48724724Y-120903974D01*
X48856753Y-120974546D01*
X49000014Y-121018003D01*
X49111667Y-121029000D01*
X49111676Y-121029000D01*
X49148999Y-121032676D01*
X49186322Y-121029000D01*
X60668678Y-121029000D01*
X60706000Y-121032676D01*
X60743322Y-121029000D01*
X60743333Y-121029000D01*
X60854986Y-121018003D01*
X60998247Y-120974546D01*
X61130276Y-120903974D01*
X61246001Y-120809001D01*
X61269804Y-120779997D01*
X62375004Y-119674798D01*
X62404001Y-119651001D01*
X62498974Y-119535276D01*
X62569546Y-119403247D01*
X62613003Y-119259986D01*
X62624000Y-119148333D01*
X62624000Y-119148324D01*
X62627676Y-119111001D01*
X62624000Y-119073678D01*
X62624000Y-118799801D01*
X67340211Y-123516013D01*
X67364010Y-123545012D01*
X67393008Y-123568810D01*
X67479734Y-123639985D01*
X67572358Y-123689494D01*
X67611764Y-123710557D01*
X67697288Y-123736500D01*
X27972279Y-123736500D01*
X27575455Y-123697591D01*
X27224794Y-123591720D01*
X26901377Y-123419757D01*
X26617518Y-123188248D01*
X26384035Y-122906014D01*
X26209816Y-122583804D01*
X26101498Y-122233885D01*
X26060000Y-121839057D01*
X26060000Y-120429872D01*
X26975000Y-120429872D01*
X26975000Y-120870128D01*
X27060890Y-121301925D01*
X27229369Y-121708669D01*
X27473962Y-122074729D01*
X27785271Y-122386038D01*
X28151331Y-122630631D01*
X28558075Y-122799110D01*
X28989872Y-122885000D01*
X29430128Y-122885000D01*
X29861925Y-122799110D01*
X30268669Y-122630631D01*
X30634729Y-122386038D01*
X30946038Y-122074729D01*
X31190631Y-121708669D01*
X31359110Y-121301925D01*
X31445000Y-120870128D01*
X31445000Y-120429872D01*
X31359110Y-119998075D01*
X31190631Y-119591331D01*
X30946038Y-119225271D01*
X30634729Y-118913962D01*
X30268669Y-118669369D01*
X29861925Y-118500890D01*
X29430128Y-118415000D01*
X28989872Y-118415000D01*
X28558075Y-118500890D01*
X28151331Y-118669369D01*
X27785271Y-118913962D01*
X27473962Y-119225271D01*
X27229369Y-119591331D01*
X27060890Y-119998075D01*
X26975000Y-120429872D01*
X26060000Y-120429872D01*
X26060000Y-115318000D01*
X26973509Y-115318000D01*
X26995423Y-115540499D01*
X27060324Y-115754447D01*
X27165716Y-115951623D01*
X27307551Y-116124449D01*
X27480377Y-116266284D01*
X27677553Y-116371676D01*
X27891501Y-116436577D01*
X28058248Y-116453000D01*
X28769752Y-116453000D01*
X28936499Y-116436577D01*
X29150447Y-116371676D01*
X29347623Y-116266284D01*
X29520449Y-116124449D01*
X29662284Y-115951623D01*
X29767676Y-115754447D01*
X29832577Y-115540499D01*
X29854491Y-115318000D01*
X29832577Y-115095501D01*
X29767676Y-114881553D01*
X29662284Y-114684377D01*
X29520449Y-114511551D01*
X29347623Y-114369716D01*
X29150447Y-114264324D01*
X28936499Y-114199423D01*
X28769752Y-114183000D01*
X28058248Y-114183000D01*
X27891501Y-114199423D01*
X27677553Y-114264324D01*
X27480377Y-114369716D01*
X27307551Y-114511551D01*
X27165716Y-114684377D01*
X27060324Y-114881553D01*
X26995423Y-115095501D01*
X26973509Y-115318000D01*
X26060000Y-115318000D01*
X26060000Y-110769061D01*
X29572000Y-110769061D01*
X29572000Y-110972939D01*
X29611774Y-111172898D01*
X29689795Y-111361256D01*
X29803063Y-111530774D01*
X29947226Y-111674937D01*
X30116744Y-111788205D01*
X30305102Y-111866226D01*
X30424094Y-111889895D01*
X30424201Y-111890002D01*
X30969000Y-112434802D01*
X30969000Y-112496939D01*
X31008774Y-112696898D01*
X31086795Y-112885256D01*
X31200063Y-113054774D01*
X31344226Y-113198937D01*
X31374913Y-113219442D01*
X31318319Y-113276036D01*
X31213259Y-113433269D01*
X31140892Y-113607978D01*
X31104000Y-113793448D01*
X31104000Y-113982552D01*
X31140892Y-114168022D01*
X31213259Y-114342731D01*
X31294715Y-114464638D01*
X31237551Y-114511551D01*
X31095716Y-114684377D01*
X30990324Y-114881553D01*
X30925423Y-115095501D01*
X30903509Y-115318000D01*
X30925423Y-115540499D01*
X30990324Y-115754447D01*
X31095716Y-115951623D01*
X31237551Y-116124449D01*
X31410377Y-116266284D01*
X31607553Y-116371676D01*
X31821501Y-116436577D01*
X31988248Y-116453000D01*
X33199752Y-116453000D01*
X33366499Y-116436577D01*
X33580447Y-116371676D01*
X33777623Y-116266284D01*
X33840113Y-116214999D01*
X36988928Y-116214999D01*
X36988928Y-117465001D01*
X37005992Y-117638255D01*
X37056528Y-117804851D01*
X37138595Y-117958387D01*
X37249038Y-118092962D01*
X37383613Y-118203405D01*
X37537149Y-118285472D01*
X37703745Y-118336008D01*
X37876999Y-118353072D01*
X38577001Y-118353072D01*
X38750255Y-118336008D01*
X38916851Y-118285472D01*
X39070387Y-118203405D01*
X39204962Y-118092962D01*
X39315405Y-117958387D01*
X39317967Y-117953594D01*
X39443526Y-118078078D01*
X39646467Y-118212421D01*
X39871718Y-118304591D01*
X39909391Y-118308462D01*
X40100000Y-118183731D01*
X40100000Y-116967000D01*
X40354000Y-116967000D01*
X40354000Y-118183731D01*
X40544609Y-118308462D01*
X40582282Y-118304591D01*
X40807533Y-118212421D01*
X41010474Y-118078078D01*
X41183307Y-117906725D01*
X41319390Y-117704946D01*
X41413493Y-117480496D01*
X41462000Y-117242000D01*
X41462000Y-116967000D01*
X40354000Y-116967000D01*
X40100000Y-116967000D01*
X40080000Y-116967000D01*
X40080000Y-116713000D01*
X40100000Y-116713000D01*
X40100000Y-115496269D01*
X40354000Y-115496269D01*
X40354000Y-116713000D01*
X41462000Y-116713000D01*
X41462000Y-116438000D01*
X41413493Y-116199504D01*
X41319390Y-115975054D01*
X41183307Y-115773275D01*
X41010474Y-115601922D01*
X40807533Y-115467579D01*
X40582282Y-115375409D01*
X40544609Y-115371538D01*
X40354000Y-115496269D01*
X40100000Y-115496269D01*
X39909391Y-115371538D01*
X39871718Y-115375409D01*
X39646467Y-115467579D01*
X39443526Y-115601922D01*
X39317967Y-115726406D01*
X39315405Y-115721613D01*
X39204962Y-115587038D01*
X39070387Y-115476595D01*
X38916851Y-115394528D01*
X38750255Y-115343992D01*
X38577001Y-115326928D01*
X37876999Y-115326928D01*
X37703745Y-115343992D01*
X37537149Y-115394528D01*
X37383613Y-115476595D01*
X37249038Y-115587038D01*
X37138595Y-115721613D01*
X37056528Y-115875149D01*
X37005992Y-116041745D01*
X36988928Y-116214999D01*
X33840113Y-116214999D01*
X33950449Y-116124449D01*
X34092284Y-115951623D01*
X34197676Y-115754447D01*
X34262577Y-115540499D01*
X34284491Y-115318000D01*
X34262577Y-115095501D01*
X34197676Y-114881553D01*
X34092284Y-114684377D01*
X33950449Y-114511551D01*
X33777623Y-114369716D01*
X33580447Y-114264324D01*
X33366499Y-114199423D01*
X33199752Y-114183000D01*
X32980904Y-114183000D01*
X32987108Y-114168022D01*
X33024000Y-113982552D01*
X33024000Y-113793448D01*
X32987108Y-113607978D01*
X32914741Y-113433269D01*
X32809681Y-113276036D01*
X32698178Y-113164533D01*
X32807937Y-113054774D01*
X32921205Y-112885256D01*
X32999226Y-112696898D01*
X33039000Y-112496939D01*
X33039000Y-112293061D01*
X32999226Y-112093102D01*
X32921205Y-111904744D01*
X32807937Y-111735226D01*
X32663774Y-111591063D01*
X32494256Y-111477795D01*
X32305898Y-111399774D01*
X32105939Y-111360000D01*
X32043802Y-111360000D01*
X31642000Y-110958199D01*
X31642000Y-110769061D01*
X31602226Y-110569102D01*
X31524205Y-110380744D01*
X31410937Y-110211226D01*
X31266774Y-110067063D01*
X31097256Y-109953795D01*
X30908898Y-109875774D01*
X30708939Y-109836000D01*
X30505061Y-109836000D01*
X30305102Y-109875774D01*
X30116744Y-109953795D01*
X29947226Y-110067063D01*
X29803063Y-110211226D01*
X29689795Y-110380744D01*
X29611774Y-110569102D01*
X29572000Y-110769061D01*
X26060000Y-110769061D01*
X26060000Y-106678000D01*
X26973509Y-106678000D01*
X26995423Y-106900499D01*
X27060324Y-107114447D01*
X27165716Y-107311623D01*
X27307551Y-107484449D01*
X27480377Y-107626284D01*
X27677553Y-107731676D01*
X27891501Y-107796577D01*
X28058248Y-107813000D01*
X28769752Y-107813000D01*
X28936499Y-107796577D01*
X29150447Y-107731676D01*
X29347623Y-107626284D01*
X29520449Y-107484449D01*
X29662284Y-107311623D01*
X29767676Y-107114447D01*
X29832577Y-106900499D01*
X29854491Y-106678000D01*
X30903509Y-106678000D01*
X30925423Y-106900499D01*
X30990324Y-107114447D01*
X31095716Y-107311623D01*
X31237551Y-107484449D01*
X31294715Y-107531362D01*
X31213259Y-107653269D01*
X31140892Y-107827978D01*
X31104000Y-108013448D01*
X31104000Y-108202552D01*
X31140892Y-108388022D01*
X31213259Y-108562731D01*
X31318319Y-108719964D01*
X31452036Y-108853681D01*
X31609269Y-108958741D01*
X31783978Y-109031108D01*
X31969448Y-109068000D01*
X32158552Y-109068000D01*
X32344022Y-109031108D01*
X32518731Y-108958741D01*
X32675964Y-108853681D01*
X32809681Y-108719964D01*
X32914741Y-108562731D01*
X32987108Y-108388022D01*
X33024000Y-108202552D01*
X33024000Y-108013448D01*
X32987108Y-107827978D01*
X32980904Y-107813000D01*
X33199752Y-107813000D01*
X33366499Y-107796577D01*
X33580447Y-107731676D01*
X33777623Y-107626284D01*
X33950449Y-107484449D01*
X34092284Y-107311623D01*
X34197676Y-107114447D01*
X34262577Y-106900499D01*
X34284491Y-106678000D01*
X34262577Y-106455501D01*
X34197676Y-106241553D01*
X34092284Y-106044377D01*
X33950449Y-105871551D01*
X33777623Y-105729716D01*
X33580447Y-105624324D01*
X33366499Y-105559423D01*
X33199752Y-105543000D01*
X31988248Y-105543000D01*
X31821501Y-105559423D01*
X31607553Y-105624324D01*
X31410377Y-105729716D01*
X31237551Y-105871551D01*
X31095716Y-106044377D01*
X30990324Y-106241553D01*
X30925423Y-106455501D01*
X30903509Y-106678000D01*
X29854491Y-106678000D01*
X29832577Y-106455501D01*
X29767676Y-106241553D01*
X29662284Y-106044377D01*
X29520449Y-105871551D01*
X29347623Y-105729716D01*
X29150447Y-105624324D01*
X28936499Y-105559423D01*
X28769752Y-105543000D01*
X28058248Y-105543000D01*
X27891501Y-105559423D01*
X27677553Y-105624324D01*
X27480377Y-105729716D01*
X27307551Y-105871551D01*
X27165716Y-106044377D01*
X27060324Y-106241553D01*
X26995423Y-106455501D01*
X26973509Y-106678000D01*
X26060000Y-106678000D01*
X26060000Y-102631000D01*
X33981928Y-102631000D01*
X33981928Y-104381000D01*
X34011001Y-104676186D01*
X34097104Y-104960028D01*
X34236927Y-105221618D01*
X34425097Y-105450903D01*
X34654382Y-105639073D01*
X34915972Y-105778896D01*
X35199814Y-105864999D01*
X35495000Y-105894072D01*
X37245000Y-105894072D01*
X37540186Y-105864999D01*
X37824028Y-105778896D01*
X38085618Y-105639073D01*
X38314903Y-105450903D01*
X38503073Y-105221618D01*
X38642896Y-104960028D01*
X38728999Y-104676186D01*
X38758072Y-104381000D01*
X38758072Y-102631000D01*
X38728999Y-102335814D01*
X38642896Y-102051972D01*
X38503073Y-101790382D01*
X38314903Y-101561097D01*
X38085618Y-101372927D01*
X37824028Y-101233104D01*
X37695357Y-101194072D01*
X41120000Y-101194072D01*
X41244482Y-101181812D01*
X41364180Y-101145502D01*
X41474494Y-101086537D01*
X41571185Y-101007185D01*
X41650537Y-100910494D01*
X41709502Y-100800180D01*
X41745812Y-100680482D01*
X41758072Y-100556000D01*
X41758072Y-97056000D01*
X41745812Y-96931518D01*
X41709502Y-96811820D01*
X41650537Y-96701506D01*
X41571185Y-96604815D01*
X41474494Y-96525463D01*
X41364180Y-96466498D01*
X41244482Y-96430188D01*
X41120000Y-96417928D01*
X37620000Y-96417928D01*
X37495518Y-96430188D01*
X37375820Y-96466498D01*
X37265506Y-96525463D01*
X37168815Y-96604815D01*
X37089463Y-96701506D01*
X37030498Y-96811820D01*
X36994188Y-96931518D01*
X36981928Y-97056000D01*
X36981928Y-100556000D01*
X36994188Y-100680482D01*
X37030498Y-100800180D01*
X37089463Y-100910494D01*
X37168815Y-101007185D01*
X37265506Y-101086537D01*
X37342131Y-101127494D01*
X37245000Y-101117928D01*
X35495000Y-101117928D01*
X35199814Y-101147001D01*
X34915972Y-101233104D01*
X34654382Y-101372927D01*
X34425097Y-101561097D01*
X34236927Y-101790382D01*
X34097104Y-102051972D01*
X34011001Y-102335814D01*
X33981928Y-102631000D01*
X26060000Y-102631000D01*
X26060000Y-100556000D01*
X31231928Y-100556000D01*
X31244188Y-100680482D01*
X31280498Y-100800180D01*
X31339463Y-100910494D01*
X31418815Y-101007185D01*
X31515506Y-101086537D01*
X31625820Y-101145502D01*
X31745518Y-101181812D01*
X31870000Y-101194072D01*
X33084250Y-101191000D01*
X33243000Y-101032250D01*
X33243000Y-98933000D01*
X33497000Y-98933000D01*
X33497000Y-101032250D01*
X33655750Y-101191000D01*
X34870000Y-101194072D01*
X34994482Y-101181812D01*
X35114180Y-101145502D01*
X35224494Y-101086537D01*
X35321185Y-101007185D01*
X35400537Y-100910494D01*
X35459502Y-100800180D01*
X35495812Y-100680482D01*
X35508072Y-100556000D01*
X35505000Y-99091750D01*
X35346250Y-98933000D01*
X33497000Y-98933000D01*
X33243000Y-98933000D01*
X31393750Y-98933000D01*
X31235000Y-99091750D01*
X31231928Y-100556000D01*
X26060000Y-100556000D01*
X26060000Y-97056000D01*
X31231928Y-97056000D01*
X31235000Y-98520250D01*
X31393750Y-98679000D01*
X33243000Y-98679000D01*
X33243000Y-96579750D01*
X33497000Y-96579750D01*
X33497000Y-98679000D01*
X35346250Y-98679000D01*
X35505000Y-98520250D01*
X35508072Y-97056000D01*
X35495812Y-96931518D01*
X35459502Y-96811820D01*
X35400537Y-96701506D01*
X35321185Y-96604815D01*
X35224494Y-96525463D01*
X35114180Y-96466498D01*
X34994482Y-96430188D01*
X34870000Y-96417928D01*
X33655750Y-96421000D01*
X33497000Y-96579750D01*
X33243000Y-96579750D01*
X33084250Y-96421000D01*
X31870000Y-96417928D01*
X31745518Y-96430188D01*
X31625820Y-96466498D01*
X31515506Y-96525463D01*
X31418815Y-96604815D01*
X31339463Y-96701506D01*
X31280498Y-96811820D01*
X31244188Y-96931518D01*
X31231928Y-97056000D01*
X26060000Y-97056000D01*
X26060000Y-91090609D01*
X31424538Y-91090609D01*
X31428409Y-91128282D01*
X31520579Y-91353533D01*
X31654922Y-91556474D01*
X31826275Y-91729307D01*
X32028054Y-91865390D01*
X32252504Y-91959493D01*
X32491000Y-92008000D01*
X32766000Y-92008000D01*
X32766000Y-90900000D01*
X33020000Y-90900000D01*
X33020000Y-92008000D01*
X33295000Y-92008000D01*
X33533496Y-91959493D01*
X33757946Y-91865390D01*
X33959725Y-91729307D01*
X34131078Y-91556474D01*
X34265421Y-91353533D01*
X34357591Y-91128282D01*
X34361462Y-91090609D01*
X34236731Y-90900000D01*
X33020000Y-90900000D01*
X32766000Y-90900000D01*
X31549269Y-90900000D01*
X31424538Y-91090609D01*
X26060000Y-91090609D01*
X26060000Y-88422999D01*
X31379928Y-88422999D01*
X31379928Y-89123001D01*
X31396992Y-89296255D01*
X31447528Y-89462851D01*
X31529595Y-89616387D01*
X31640038Y-89750962D01*
X31774613Y-89861405D01*
X31779406Y-89863967D01*
X31654922Y-89989526D01*
X31520579Y-90192467D01*
X31428409Y-90417718D01*
X31424538Y-90455391D01*
X31549269Y-90646000D01*
X32766000Y-90646000D01*
X32766000Y-90626000D01*
X33020000Y-90626000D01*
X33020000Y-90646000D01*
X34236731Y-90646000D01*
X34361462Y-90455391D01*
X34357591Y-90417718D01*
X34265421Y-90192467D01*
X34131078Y-89989526D01*
X34006594Y-89863967D01*
X34011387Y-89861405D01*
X34145962Y-89750962D01*
X34256405Y-89616387D01*
X34338472Y-89462851D01*
X34389008Y-89296255D01*
X34406072Y-89123001D01*
X34406072Y-88422999D01*
X34389008Y-88249745D01*
X34338472Y-88083149D01*
X34256405Y-87929613D01*
X34145962Y-87795038D01*
X34011387Y-87684595D01*
X33857851Y-87602528D01*
X33691255Y-87551992D01*
X33518001Y-87534928D01*
X32267999Y-87534928D01*
X32094745Y-87551992D01*
X31928149Y-87602528D01*
X31774613Y-87684595D01*
X31640038Y-87795038D01*
X31529595Y-87929613D01*
X31447528Y-88083149D01*
X31396992Y-88249745D01*
X31379928Y-88422999D01*
X26060000Y-88422999D01*
X26060000Y-85510000D01*
X37246928Y-85510000D01*
X37246928Y-87210000D01*
X37259188Y-87334482D01*
X37295498Y-87454180D01*
X37354463Y-87564494D01*
X37433815Y-87661185D01*
X37530506Y-87740537D01*
X37640820Y-87799502D01*
X37760518Y-87835812D01*
X37885000Y-87848072D01*
X39585000Y-87848072D01*
X39709482Y-87835812D01*
X39829180Y-87799502D01*
X39939494Y-87740537D01*
X40036185Y-87661185D01*
X40115537Y-87564494D01*
X40174502Y-87454180D01*
X40210812Y-87334482D01*
X40223072Y-87210000D01*
X40223072Y-85510000D01*
X40210812Y-85385518D01*
X40174502Y-85265820D01*
X40115537Y-85155506D01*
X40036185Y-85058815D01*
X39939494Y-84979463D01*
X39829180Y-84920498D01*
X39756620Y-84898487D01*
X39888475Y-84766632D01*
X40050990Y-84523411D01*
X40162932Y-84253158D01*
X40220000Y-83966260D01*
X40220000Y-83673740D01*
X40196463Y-83555408D01*
X44958000Y-83555408D01*
X44958000Y-83830592D01*
X45011686Y-84100490D01*
X45116995Y-84354727D01*
X45269880Y-84583535D01*
X45464465Y-84778120D01*
X45693273Y-84931005D01*
X45947510Y-85036314D01*
X46217408Y-85090000D01*
X46492592Y-85090000D01*
X46762490Y-85036314D01*
X47016727Y-84931005D01*
X47245535Y-84778120D01*
X47365090Y-84658565D01*
X48109040Y-84658565D01*
X48176020Y-84898656D01*
X48425048Y-85015756D01*
X48692135Y-85082023D01*
X48967017Y-85094910D01*
X49239133Y-85053922D01*
X49498023Y-84960636D01*
X49613980Y-84898656D01*
X49680960Y-84658565D01*
X48895000Y-83872605D01*
X48109040Y-84658565D01*
X47365090Y-84658565D01*
X47440120Y-84583535D01*
X47593005Y-84354727D01*
X47622692Y-84283057D01*
X47627364Y-84296023D01*
X47689344Y-84411980D01*
X47929435Y-84478960D01*
X48715395Y-83693000D01*
X47929435Y-82907040D01*
X47689344Y-82974020D01*
X47625515Y-83109760D01*
X47593005Y-83031273D01*
X47440120Y-82802465D01*
X47365090Y-82727435D01*
X48109040Y-82727435D01*
X48895000Y-83513395D01*
X49680960Y-82727435D01*
X49613980Y-82487344D01*
X49364952Y-82370244D01*
X49097865Y-82303977D01*
X48822983Y-82291090D01*
X48550867Y-82332078D01*
X48291977Y-82425364D01*
X48176020Y-82487344D01*
X48109040Y-82727435D01*
X47365090Y-82727435D01*
X47245535Y-82607880D01*
X47016727Y-82454995D01*
X46762490Y-82349686D01*
X46492592Y-82296000D01*
X46217408Y-82296000D01*
X45947510Y-82349686D01*
X45693273Y-82454995D01*
X45464465Y-82607880D01*
X45269880Y-82802465D01*
X45116995Y-83031273D01*
X45011686Y-83285510D01*
X44958000Y-83555408D01*
X40196463Y-83555408D01*
X40162932Y-83386842D01*
X40050990Y-83116589D01*
X39888475Y-82873368D01*
X39681632Y-82666525D01*
X39507240Y-82550000D01*
X39681632Y-82433475D01*
X39888475Y-82226632D01*
X40050990Y-81983411D01*
X40162932Y-81713158D01*
X40220000Y-81426260D01*
X40220000Y-81133740D01*
X40162932Y-80846842D01*
X40050990Y-80576589D01*
X39888475Y-80333368D01*
X39681632Y-80126525D01*
X39438411Y-79964010D01*
X39168158Y-79852068D01*
X38881260Y-79795000D01*
X38588740Y-79795000D01*
X38301842Y-79852068D01*
X38031589Y-79964010D01*
X37788368Y-80126525D01*
X37581525Y-80333368D01*
X37419010Y-80576589D01*
X37307068Y-80846842D01*
X37250000Y-81133740D01*
X37250000Y-81426260D01*
X37307068Y-81713158D01*
X37419010Y-81983411D01*
X37581525Y-82226632D01*
X37788368Y-82433475D01*
X37962760Y-82550000D01*
X37788368Y-82666525D01*
X37581525Y-82873368D01*
X37419010Y-83116589D01*
X37307068Y-83386842D01*
X37250000Y-83673740D01*
X37250000Y-83966260D01*
X37307068Y-84253158D01*
X37419010Y-84523411D01*
X37581525Y-84766632D01*
X37713380Y-84898487D01*
X37640820Y-84920498D01*
X37530506Y-84979463D01*
X37433815Y-85058815D01*
X37354463Y-85155506D01*
X37295498Y-85265820D01*
X37259188Y-85385518D01*
X37246928Y-85510000D01*
X26060000Y-85510000D01*
X26060000Y-83565609D01*
X31424538Y-83565609D01*
X31428409Y-83603282D01*
X31520579Y-83828533D01*
X31654922Y-84031474D01*
X31826275Y-84204307D01*
X32028054Y-84340390D01*
X32252504Y-84434493D01*
X32491000Y-84483000D01*
X32766000Y-84483000D01*
X32766000Y-83375000D01*
X33020000Y-83375000D01*
X33020000Y-84483000D01*
X33295000Y-84483000D01*
X33533496Y-84434493D01*
X33757946Y-84340390D01*
X33959725Y-84204307D01*
X34131078Y-84031474D01*
X34265421Y-83828533D01*
X34357591Y-83603282D01*
X34361462Y-83565609D01*
X34236731Y-83375000D01*
X33020000Y-83375000D01*
X32766000Y-83375000D01*
X31549269Y-83375000D01*
X31424538Y-83565609D01*
X26060000Y-83565609D01*
X26060000Y-81248000D01*
X31377025Y-81248000D01*
X31400870Y-81490102D01*
X31471489Y-81722901D01*
X31586167Y-81937449D01*
X31740498Y-82125502D01*
X31890348Y-82248481D01*
X31826275Y-82291693D01*
X31654922Y-82464526D01*
X31520579Y-82667467D01*
X31428409Y-82892718D01*
X31424538Y-82930391D01*
X31549269Y-83121000D01*
X32766000Y-83121000D01*
X32766000Y-83101000D01*
X33020000Y-83101000D01*
X33020000Y-83121000D01*
X34236731Y-83121000D01*
X34361462Y-82930391D01*
X34357591Y-82892718D01*
X34265421Y-82667467D01*
X34131078Y-82464526D01*
X33959725Y-82291693D01*
X33895652Y-82248481D01*
X34045502Y-82125502D01*
X34199833Y-81937449D01*
X34314511Y-81722901D01*
X34385130Y-81490102D01*
X34408975Y-81248000D01*
X34385130Y-81005898D01*
X34314511Y-80773099D01*
X34199833Y-80558551D01*
X34045502Y-80370498D01*
X34006889Y-80338809D01*
X34011387Y-80336405D01*
X34145962Y-80225962D01*
X34256405Y-80091387D01*
X34338472Y-79937851D01*
X34389008Y-79771255D01*
X34406072Y-79598001D01*
X34406072Y-78897999D01*
X34389008Y-78724745D01*
X34338472Y-78558149D01*
X34256405Y-78404613D01*
X34145962Y-78270038D01*
X34011387Y-78159595D01*
X33857851Y-78077528D01*
X33691255Y-78026992D01*
X33518001Y-78009928D01*
X32267999Y-78009928D01*
X32094745Y-78026992D01*
X31928149Y-78077528D01*
X31774613Y-78159595D01*
X31640038Y-78270038D01*
X31529595Y-78404613D01*
X31447528Y-78558149D01*
X31396992Y-78724745D01*
X31379928Y-78897999D01*
X31379928Y-79598001D01*
X31396992Y-79771255D01*
X31447528Y-79937851D01*
X31529595Y-80091387D01*
X31640038Y-80225962D01*
X31774613Y-80336405D01*
X31779111Y-80338809D01*
X31740498Y-80370498D01*
X31586167Y-80558551D01*
X31471489Y-80773099D01*
X31400870Y-81005898D01*
X31377025Y-81248000D01*
X26060000Y-81248000D01*
X26060000Y-76835000D01*
X38789300Y-76835000D01*
X38789300Y-77110000D01*
X38837807Y-77348496D01*
X38931910Y-77572946D01*
X39067993Y-77774725D01*
X39240826Y-77946078D01*
X39443767Y-78080421D01*
X39669018Y-78172591D01*
X39706691Y-78176462D01*
X39897300Y-78051731D01*
X39897300Y-76835000D01*
X38789300Y-76835000D01*
X26060000Y-76835000D01*
X26060000Y-76306000D01*
X38789300Y-76306000D01*
X38789300Y-76581000D01*
X39897300Y-76581000D01*
X39897300Y-75364269D01*
X39706691Y-75239538D01*
X39669018Y-75243409D01*
X39443767Y-75335579D01*
X39240826Y-75469922D01*
X39067993Y-75641275D01*
X38931910Y-75843054D01*
X38837807Y-76067504D01*
X38789300Y-76306000D01*
X26060000Y-76306000D01*
X26060000Y-72677872D01*
X26975000Y-72677872D01*
X26975000Y-73118128D01*
X27060890Y-73549925D01*
X27229369Y-73956669D01*
X27473962Y-74322729D01*
X27785271Y-74634038D01*
X28151331Y-74878631D01*
X28558075Y-75047110D01*
X28989872Y-75133000D01*
X29430128Y-75133000D01*
X29861925Y-75047110D01*
X30268669Y-74878631D01*
X30634729Y-74634038D01*
X30946038Y-74322729D01*
X31190631Y-73956669D01*
X31359110Y-73549925D01*
X31445000Y-73118128D01*
X31445000Y-72677872D01*
X31359110Y-72246075D01*
X31190631Y-71839331D01*
X30946038Y-71473271D01*
X30634729Y-71161962D01*
X30268669Y-70917369D01*
X29861925Y-70748890D01*
X29430128Y-70663000D01*
X28989872Y-70663000D01*
X28558075Y-70748890D01*
X28151331Y-70917369D01*
X27785271Y-71161962D01*
X27473962Y-71473271D01*
X27229369Y-71839331D01*
X27060890Y-72246075D01*
X26975000Y-72677872D01*
X26060000Y-72677872D01*
X26060000Y-71596779D01*
X26098909Y-71199955D01*
X26204780Y-70849292D01*
X26376744Y-70525875D01*
X26608254Y-70242016D01*
X26890486Y-70008535D01*
X27212695Y-69834317D01*
X27562614Y-69725998D01*
X27957443Y-69684500D01*
X121887721Y-69684500D01*
X122284545Y-69723409D01*
G04 #@! TA.AperFunction,Conductor*
D24*
G36*
X122284545Y-69723409D02*
G01*
X122635208Y-69829280D01*
X122958625Y-70001244D01*
X123242484Y-70232754D01*
X123475965Y-70514986D01*
X123650183Y-70837195D01*
X123758502Y-71187114D01*
X123800000Y-71581943D01*
X123800001Y-121824211D01*
X123761091Y-122221045D01*
X123655220Y-122571706D01*
X123483257Y-122895123D01*
X123251748Y-123178982D01*
X122969514Y-123412465D01*
X122647304Y-123586684D01*
X122297385Y-123695002D01*
X121902557Y-123736500D01*
X91552947Y-123736500D01*
X91572535Y-123730558D01*
X91704564Y-123659986D01*
X91820289Y-123565013D01*
X91844092Y-123536009D01*
X95029889Y-120350212D01*
X102595000Y-120350212D01*
X102595000Y-120573788D01*
X102638617Y-120793067D01*
X102724176Y-120999624D01*
X102848388Y-121185520D01*
X103006480Y-121343612D01*
X103192376Y-121467824D01*
X103398933Y-121553383D01*
X103618212Y-121597000D01*
X103841788Y-121597000D01*
X104061067Y-121553383D01*
X104267624Y-121467824D01*
X104453520Y-121343612D01*
X104611612Y-121185520D01*
X104735824Y-120999624D01*
X104821383Y-120793067D01*
X104865000Y-120573788D01*
X104865000Y-120350212D01*
X110595000Y-120350212D01*
X110595000Y-120573788D01*
X110638617Y-120793067D01*
X110724176Y-120999624D01*
X110848388Y-121185520D01*
X111006480Y-121343612D01*
X111192376Y-121467824D01*
X111398933Y-121553383D01*
X111618212Y-121597000D01*
X111841788Y-121597000D01*
X112061067Y-121553383D01*
X112267624Y-121467824D01*
X112453520Y-121343612D01*
X112611612Y-121185520D01*
X112735824Y-120999624D01*
X112821383Y-120793067D01*
X112865000Y-120573788D01*
X112865000Y-120350212D01*
X112821383Y-120130933D01*
X112735824Y-119924376D01*
X112611612Y-119738480D01*
X112453520Y-119580388D01*
X112267624Y-119456176D01*
X112061067Y-119370617D01*
X111841788Y-119327000D01*
X111618212Y-119327000D01*
X111398933Y-119370617D01*
X111192376Y-119456176D01*
X111006480Y-119580388D01*
X110848388Y-119738480D01*
X110724176Y-119924376D01*
X110638617Y-120130933D01*
X110595000Y-120350212D01*
X104865000Y-120350212D01*
X104821383Y-120130933D01*
X104735824Y-119924376D01*
X104611612Y-119738480D01*
X104453520Y-119580388D01*
X104267624Y-119456176D01*
X104061067Y-119370617D01*
X103841788Y-119327000D01*
X103618212Y-119327000D01*
X103398933Y-119370617D01*
X103192376Y-119456176D01*
X103006480Y-119580388D01*
X102848388Y-119738480D01*
X102724176Y-119924376D01*
X102638617Y-120130933D01*
X102595000Y-120350212D01*
X95029889Y-120350212D01*
X101263500Y-114116601D01*
X101263500Y-114211439D01*
X101303274Y-114411398D01*
X101381295Y-114599756D01*
X101494563Y-114769274D01*
X101638726Y-114913437D01*
X101808244Y-115026705D01*
X101996602Y-115104726D01*
X102196561Y-115144500D01*
X102258699Y-115144500D01*
X103050852Y-115936654D01*
X103074650Y-115965652D01*
X103164025Y-116039000D01*
X103190375Y-116060625D01*
X103322404Y-116131197D01*
X103465665Y-116174654D01*
X103614651Y-116189328D01*
X103651984Y-116185651D01*
X104470329Y-116185651D01*
X104507651Y-116189327D01*
X104544973Y-116185651D01*
X104544984Y-116185651D01*
X104656637Y-116174654D01*
X104799898Y-116131197D01*
X104931927Y-116060625D01*
X105047652Y-115965652D01*
X105071455Y-115936648D01*
X106492503Y-114515601D01*
X106521501Y-114491803D01*
X106616474Y-114376078D01*
X106687046Y-114244049D01*
X106730503Y-114100788D01*
X106741500Y-113989135D01*
X106741500Y-113989126D01*
X106745176Y-113951803D01*
X106741500Y-113914480D01*
X106741500Y-113797211D01*
X106785437Y-113753274D01*
X106898705Y-113583756D01*
X106976726Y-113395398D01*
X107016500Y-113195439D01*
X107016500Y-112991561D01*
X106976726Y-112791602D01*
X106898705Y-112603244D01*
X106785437Y-112433726D01*
X106641274Y-112289563D01*
X106471756Y-112176295D01*
X106283398Y-112098274D01*
X106083439Y-112058500D01*
X105879561Y-112058500D01*
X105679602Y-112098274D01*
X105491244Y-112176295D01*
X105321726Y-112289563D01*
X105177563Y-112433726D01*
X105064295Y-112603244D01*
X104986274Y-112791602D01*
X104963500Y-112906096D01*
X104963500Y-112336711D01*
X105007437Y-112292774D01*
X105120705Y-112123256D01*
X105198726Y-111934898D01*
X105238500Y-111734939D01*
X105238500Y-111531061D01*
X105198726Y-111331102D01*
X105120705Y-111142744D01*
X105007437Y-110973226D01*
X104863274Y-110829063D01*
X104693756Y-110715795D01*
X104672932Y-110707169D01*
X108847071Y-106533031D01*
X108874295Y-106598756D01*
X108987563Y-106768274D01*
X109031501Y-106812212D01*
X109031500Y-107209289D01*
X108987563Y-107253226D01*
X108874295Y-107422744D01*
X108796274Y-107611102D01*
X108756500Y-107811061D01*
X108756500Y-108014939D01*
X108796274Y-108214898D01*
X108874295Y-108403256D01*
X108987563Y-108572774D01*
X109131726Y-108716937D01*
X109301244Y-108830205D01*
X109489602Y-108908226D01*
X109689561Y-108948000D01*
X109893439Y-108948000D01*
X110093398Y-108908226D01*
X110281756Y-108830205D01*
X110451274Y-108716937D01*
X110595437Y-108572774D01*
X110708705Y-108403256D01*
X110786726Y-108214898D01*
X110826500Y-108014939D01*
X110826500Y-107811061D01*
X110786726Y-107611102D01*
X110708705Y-107422744D01*
X110595437Y-107253226D01*
X110551500Y-107209289D01*
X110551500Y-106812211D01*
X110595437Y-106768274D01*
X110708705Y-106598756D01*
X110786726Y-106410398D01*
X110826500Y-106210439D01*
X110826500Y-106006561D01*
X110786726Y-105806602D01*
X110708705Y-105618244D01*
X110595437Y-105448726D01*
X110455272Y-105308561D01*
X110916000Y-105308561D01*
X110916000Y-105512439D01*
X110955774Y-105712398D01*
X111033795Y-105900756D01*
X111147063Y-106070274D01*
X111291226Y-106214437D01*
X111460744Y-106327705D01*
X111649102Y-106405726D01*
X111849061Y-106445500D01*
X112052939Y-106445500D01*
X112252898Y-106405726D01*
X112441256Y-106327705D01*
X112610774Y-106214437D01*
X112654711Y-106170500D01*
X114176199Y-106170500D01*
X115614500Y-107608802D01*
X115614500Y-107670939D01*
X115654274Y-107870898D01*
X115732295Y-108059256D01*
X115845563Y-108228774D01*
X115989726Y-108372937D01*
X116159244Y-108486205D01*
X116347602Y-108564226D01*
X116547561Y-108604000D01*
X116751439Y-108604000D01*
X116951398Y-108564226D01*
X117139756Y-108486205D01*
X117309274Y-108372937D01*
X117453437Y-108228774D01*
X117566705Y-108059256D01*
X117644726Y-107870898D01*
X117684500Y-107670939D01*
X117684500Y-107467061D01*
X117644726Y-107267102D01*
X117566705Y-107078744D01*
X117453437Y-106909226D01*
X117309274Y-106765063D01*
X117139756Y-106651795D01*
X116951398Y-106573774D01*
X116751439Y-106534000D01*
X116689302Y-106534000D01*
X115054804Y-104899503D01*
X115031001Y-104870499D01*
X114915276Y-104775526D01*
X114783247Y-104704954D01*
X114639986Y-104661497D01*
X114528333Y-104650500D01*
X114528322Y-104650500D01*
X114491000Y-104646824D01*
X114453678Y-104650500D01*
X112654711Y-104650500D01*
X112610774Y-104606563D01*
X112441256Y-104493295D01*
X112252898Y-104415274D01*
X112052939Y-104375500D01*
X111849061Y-104375500D01*
X111649102Y-104415274D01*
X111460744Y-104493295D01*
X111291226Y-104606563D01*
X111147063Y-104750726D01*
X111033795Y-104920244D01*
X110955774Y-105108602D01*
X110916000Y-105308561D01*
X110455272Y-105308561D01*
X110451274Y-105304563D01*
X110281756Y-105191295D01*
X110216031Y-105164071D01*
X118845600Y-96534502D01*
X118845600Y-97564398D01*
X115740498Y-100669501D01*
X115711500Y-100693299D01*
X115687702Y-100722297D01*
X115687701Y-100722298D01*
X115616526Y-100809024D01*
X115545954Y-100941054D01*
X115525894Y-101007185D01*
X115502498Y-101084314D01*
X115496324Y-101147001D01*
X115487824Y-101233300D01*
X115491501Y-101270632D01*
X115491500Y-102879177D01*
X115487824Y-102916500D01*
X115491500Y-102953822D01*
X115491500Y-102953832D01*
X115502497Y-103065485D01*
X115527762Y-103148774D01*
X115545954Y-103208746D01*
X115616526Y-103340776D01*
X115625554Y-103351776D01*
X115711499Y-103456501D01*
X115740503Y-103480304D01*
X115969842Y-103709644D01*
X115961928Y-103789999D01*
X115961928Y-104490001D01*
X115978992Y-104663255D01*
X116029528Y-104829851D01*
X116111595Y-104983387D01*
X116222038Y-105117962D01*
X116356613Y-105228405D01*
X116510149Y-105310472D01*
X116676745Y-105361008D01*
X116849999Y-105378072D01*
X118100001Y-105378072D01*
X118273255Y-105361008D01*
X118439851Y-105310472D01*
X118593387Y-105228405D01*
X118727962Y-105117962D01*
X118838405Y-104983387D01*
X118920472Y-104829851D01*
X118971008Y-104663255D01*
X118988072Y-104490001D01*
X118988072Y-103789999D01*
X118971008Y-103616745D01*
X118920472Y-103450149D01*
X118838405Y-103296613D01*
X118727962Y-103162038D01*
X118593387Y-103051595D01*
X118588594Y-103049033D01*
X118713078Y-102923474D01*
X118847421Y-102720533D01*
X118939591Y-102495282D01*
X118943462Y-102457609D01*
X118818731Y-102267000D01*
X117602000Y-102267000D01*
X117602000Y-102287000D01*
X117348000Y-102287000D01*
X117348000Y-102267000D01*
X117328000Y-102267000D01*
X117328000Y-102013000D01*
X117348000Y-102013000D01*
X117348000Y-101993000D01*
X117602000Y-101993000D01*
X117602000Y-102013000D01*
X118818731Y-102013000D01*
X118943462Y-101822391D01*
X118939591Y-101784718D01*
X118847421Y-101559467D01*
X118713078Y-101356526D01*
X118541725Y-101183693D01*
X118339946Y-101047610D01*
X118115496Y-100953507D01*
X117877000Y-100905000D01*
X117654601Y-100905000D01*
X120116604Y-98442998D01*
X120145601Y-98419201D01*
X120240574Y-98303476D01*
X120311146Y-98171447D01*
X120354603Y-98028186D01*
X120365600Y-97916533D01*
X120365600Y-97916525D01*
X120369276Y-97879200D01*
X120365600Y-97841875D01*
X120365600Y-89478222D01*
X120369276Y-89440899D01*
X120365600Y-89403576D01*
X120365600Y-89403567D01*
X120354603Y-89291914D01*
X120311146Y-89148653D01*
X120302780Y-89133002D01*
X120240574Y-89016623D01*
X120169399Y-88929897D01*
X120145601Y-88900899D01*
X120116603Y-88877101D01*
X119493800Y-88254299D01*
X119493800Y-88192161D01*
X119454026Y-87992202D01*
X119376005Y-87803844D01*
X119314186Y-87711325D01*
X119370737Y-87654774D01*
X119484005Y-87485256D01*
X119562026Y-87296898D01*
X119601800Y-87096939D01*
X119601800Y-86893061D01*
X119562026Y-86693102D01*
X119484005Y-86504744D01*
X119370737Y-86335226D01*
X119226574Y-86191063D01*
X119057056Y-86077795D01*
X118868698Y-85999774D01*
X118668739Y-85960000D01*
X118464861Y-85960000D01*
X118264902Y-85999774D01*
X118076544Y-86077795D01*
X117907026Y-86191063D01*
X117762863Y-86335226D01*
X117649595Y-86504744D01*
X117571574Y-86693102D01*
X117531800Y-86893061D01*
X117531800Y-86955199D01*
X117215998Y-87271001D01*
X117187000Y-87294799D01*
X117163202Y-87323797D01*
X117163201Y-87323798D01*
X117092026Y-87410524D01*
X117021454Y-87542554D01*
X117003262Y-87602528D01*
X116977998Y-87685814D01*
X116975232Y-87713900D01*
X116963324Y-87834800D01*
X116967001Y-87872132D01*
X116967000Y-95559798D01*
X110674412Y-101852386D01*
X110658937Y-101829226D01*
X110589900Y-101760189D01*
X110589900Y-100429201D01*
X115021104Y-95997998D01*
X115050101Y-95974201D01*
X115145074Y-95858476D01*
X115215646Y-95726447D01*
X115259103Y-95583186D01*
X115270100Y-95471533D01*
X115270100Y-95471524D01*
X115273776Y-95434201D01*
X115270100Y-95396878D01*
X115270100Y-82994711D01*
X115314037Y-82950774D01*
X115427305Y-82781256D01*
X115505326Y-82592898D01*
X115545100Y-82392939D01*
X115545100Y-82189061D01*
X115505326Y-81989102D01*
X115427305Y-81800744D01*
X115314037Y-81631226D01*
X115169874Y-81487063D01*
X115000356Y-81373795D01*
X114811998Y-81295774D01*
X114612039Y-81256000D01*
X114460300Y-81256000D01*
X114460300Y-76518811D01*
X114504237Y-76474874D01*
X114617505Y-76305356D01*
X114664676Y-76191477D01*
X121173000Y-82699803D01*
X121173001Y-90142788D01*
X121129063Y-90186726D01*
X121015795Y-90356244D01*
X120937774Y-90544602D01*
X120898000Y-90744561D01*
X120898000Y-90948439D01*
X120937774Y-91148398D01*
X121015795Y-91336756D01*
X121129063Y-91506274D01*
X121273226Y-91650437D01*
X121442744Y-91763705D01*
X121631102Y-91841726D01*
X121831061Y-91881500D01*
X122034939Y-91881500D01*
X122234898Y-91841726D01*
X122423256Y-91763705D01*
X122592774Y-91650437D01*
X122736937Y-91506274D01*
X122850205Y-91336756D01*
X122928226Y-91148398D01*
X122968000Y-90948439D01*
X122968000Y-90744561D01*
X122928226Y-90544602D01*
X122850205Y-90356244D01*
X122736937Y-90186726D01*
X122693000Y-90142789D01*
X122693000Y-82422322D01*
X122696676Y-82384999D01*
X122693000Y-82347676D01*
X122693000Y-82347667D01*
X122682003Y-82236014D01*
X122638546Y-82092753D01*
X122567974Y-81960724D01*
X122548873Y-81937449D01*
X122496799Y-81873996D01*
X122496795Y-81873992D01*
X122473001Y-81844999D01*
X122444009Y-81821206D01*
X115561750Y-74938949D01*
X115561750Y-73945072D01*
X115565426Y-73907749D01*
X115561750Y-73870426D01*
X115561750Y-73870417D01*
X115550753Y-73758764D01*
X115507296Y-73615503D01*
X115480302Y-73565001D01*
X115436724Y-73483473D01*
X115365549Y-73396747D01*
X115341751Y-73367749D01*
X115312754Y-73343952D01*
X114482803Y-72514002D01*
X114459001Y-72484999D01*
X114343276Y-72390026D01*
X114211247Y-72319454D01*
X114067986Y-72275997D01*
X113956333Y-72265000D01*
X113956322Y-72265000D01*
X113919000Y-72261324D01*
X113881678Y-72265000D01*
X101922711Y-72265000D01*
X101878774Y-72221063D01*
X101709256Y-72107795D01*
X101520898Y-72029774D01*
X101320939Y-71990000D01*
X101117061Y-71990000D01*
X100917102Y-72029774D01*
X100728744Y-72107795D01*
X100559226Y-72221063D01*
X100415063Y-72365226D01*
X100301795Y-72534744D01*
X100223774Y-72723102D01*
X100184000Y-72923061D01*
X100184000Y-73126939D01*
X100223774Y-73326898D01*
X100301795Y-73515256D01*
X100415063Y-73684774D01*
X100559226Y-73828937D01*
X100728744Y-73942205D01*
X100917102Y-74020226D01*
X101117061Y-74060000D01*
X101320939Y-74060000D01*
X101520898Y-74020226D01*
X101709256Y-73942205D01*
X101878774Y-73828937D01*
X101922711Y-73785000D01*
X113604199Y-73785000D01*
X114041750Y-74222552D01*
X114041751Y-74836257D01*
X114002198Y-74819874D01*
X113802239Y-74780100D01*
X113598361Y-74780100D01*
X113398402Y-74819874D01*
X113210044Y-74897895D01*
X113040526Y-75011163D01*
X112896363Y-75155326D01*
X112783095Y-75324844D01*
X112705074Y-75513202D01*
X112665300Y-75713161D01*
X112665300Y-75917039D01*
X112705074Y-76116998D01*
X112783095Y-76305356D01*
X112896363Y-76474874D01*
X112940301Y-76518812D01*
X112940300Y-85398998D01*
X109379900Y-88959399D01*
X109379900Y-88698801D01*
X109524097Y-88554604D01*
X109553101Y-88530801D01*
X109648074Y-88415076D01*
X109718646Y-88283047D01*
X109762103Y-88139786D01*
X109773100Y-88028133D01*
X109773100Y-88028125D01*
X109776776Y-87990800D01*
X109773100Y-87953475D01*
X109773100Y-85334022D01*
X109776776Y-85296699D01*
X109773100Y-85259377D01*
X109773100Y-85259367D01*
X109762103Y-85147714D01*
X109718646Y-85004453D01*
X109700544Y-84970587D01*
X109648074Y-84872423D01*
X109576899Y-84785697D01*
X109553101Y-84756699D01*
X109524104Y-84732902D01*
X106021004Y-81229803D01*
X105997201Y-81200799D01*
X105881476Y-81105826D01*
X105749447Y-81035254D01*
X105606186Y-80991797D01*
X105494533Y-80980800D01*
X105494522Y-80980800D01*
X105457200Y-80977124D01*
X105419878Y-80980800D01*
X104471102Y-80980800D01*
X102407794Y-78917493D01*
X102383991Y-78888489D01*
X102268266Y-78793516D01*
X102136237Y-78722944D01*
X101992976Y-78679487D01*
X101881323Y-78668490D01*
X101881312Y-78668490D01*
X101843990Y-78664814D01*
X101806668Y-78668490D01*
X95300792Y-78668490D01*
X94168500Y-77536199D01*
X94168500Y-76942320D01*
X94172176Y-76904997D01*
X94168500Y-76867674D01*
X94168500Y-76867665D01*
X94157503Y-76756012D01*
X94114046Y-76612751D01*
X94096005Y-76579000D01*
X95465244Y-76579000D01*
X95525563Y-76669274D01*
X95669726Y-76813437D01*
X95839244Y-76926705D01*
X96027602Y-77004726D01*
X96227561Y-77044500D01*
X96431439Y-77044500D01*
X96631398Y-77004726D01*
X96819756Y-76926705D01*
X96989274Y-76813437D01*
X97133437Y-76669274D01*
X97246705Y-76499756D01*
X97324726Y-76311398D01*
X97364500Y-76111439D01*
X97364500Y-75907561D01*
X97324726Y-75707602D01*
X97246705Y-75519244D01*
X97133437Y-75349726D01*
X96989274Y-75205563D01*
X96819756Y-75092295D01*
X96631398Y-75014274D01*
X96431439Y-74974500D01*
X96227561Y-74974500D01*
X96027602Y-75014274D01*
X95919625Y-75059000D01*
X93469302Y-75059000D01*
X93173500Y-74763199D01*
X93173500Y-74701061D01*
X93133726Y-74501102D01*
X93055705Y-74312744D01*
X92942437Y-74143226D01*
X92798274Y-73999063D01*
X92628756Y-73885795D01*
X92440398Y-73807774D01*
X92240439Y-73768000D01*
X92228780Y-73768000D01*
X92319110Y-73549925D01*
X92405000Y-73118128D01*
X92405000Y-72677872D01*
X92319110Y-72246075D01*
X92150631Y-71839331D01*
X91906038Y-71473271D01*
X91594729Y-71161962D01*
X91228669Y-70917369D01*
X90821925Y-70748890D01*
X90390128Y-70663000D01*
X89949872Y-70663000D01*
X89518075Y-70748890D01*
X89111331Y-70917369D01*
X88745271Y-71161962D01*
X88433962Y-71473271D01*
X88189369Y-71839331D01*
X88020890Y-72246075D01*
X87935000Y-72677872D01*
X87935000Y-73118128D01*
X87967318Y-73280600D01*
X44729022Y-73280600D01*
X44691699Y-73276924D01*
X44654376Y-73280600D01*
X44654367Y-73280600D01*
X44542714Y-73291597D01*
X44399453Y-73335054D01*
X44267424Y-73405626D01*
X44151699Y-73500599D01*
X44127901Y-73529597D01*
X42454656Y-75202842D01*
X42374301Y-75194928D01*
X41674299Y-75194928D01*
X41501045Y-75211992D01*
X41334449Y-75262528D01*
X41180913Y-75344595D01*
X41046338Y-75455038D01*
X40935895Y-75589613D01*
X40933333Y-75594406D01*
X40807774Y-75469922D01*
X40604833Y-75335579D01*
X40379582Y-75243409D01*
X40341909Y-75239538D01*
X40151300Y-75364269D01*
X40151300Y-76581000D01*
X40171300Y-76581000D01*
X40171300Y-76835000D01*
X40151300Y-76835000D01*
X40151300Y-78051731D01*
X40341909Y-78176462D01*
X40379582Y-78172591D01*
X40604833Y-78080421D01*
X40807774Y-77946078D01*
X40933333Y-77821594D01*
X40935895Y-77826387D01*
X41046338Y-77960962D01*
X41180913Y-78071405D01*
X41334449Y-78153472D01*
X41501045Y-78204008D01*
X41674299Y-78221072D01*
X42374301Y-78221072D01*
X42547555Y-78204008D01*
X42714151Y-78153472D01*
X42867687Y-78071405D01*
X43002262Y-77960962D01*
X43112705Y-77826387D01*
X43194772Y-77672851D01*
X43245308Y-77506255D01*
X43262372Y-77333001D01*
X43262372Y-76835000D01*
X46263500Y-76835000D01*
X46263500Y-77110000D01*
X46312007Y-77348496D01*
X46406110Y-77572946D01*
X46542193Y-77774725D01*
X46715026Y-77946078D01*
X46917967Y-78080421D01*
X47143218Y-78172591D01*
X47180891Y-78176462D01*
X47371500Y-78051731D01*
X47371500Y-76835000D01*
X46263500Y-76835000D01*
X43262372Y-76835000D01*
X43262372Y-76544729D01*
X43501101Y-76306000D01*
X46263500Y-76306000D01*
X46263500Y-76581000D01*
X47371500Y-76581000D01*
X47371500Y-75364269D01*
X47180891Y-75239538D01*
X47143218Y-75243409D01*
X46917967Y-75335579D01*
X46715026Y-75469922D01*
X46542193Y-75641275D01*
X46406110Y-75843054D01*
X46312007Y-76067504D01*
X46263500Y-76306000D01*
X43501101Y-76306000D01*
X45006502Y-74800600D01*
X50446799Y-74800600D01*
X49963817Y-75283582D01*
X49740602Y-75215870D01*
X49498500Y-75192025D01*
X49256399Y-75215870D01*
X49023600Y-75286489D01*
X48809052Y-75401167D01*
X48620999Y-75555498D01*
X48498020Y-75705349D01*
X48454807Y-75641275D01*
X48281974Y-75469922D01*
X48079033Y-75335579D01*
X47853782Y-75243409D01*
X47816109Y-75239538D01*
X47625500Y-75364269D01*
X47625500Y-76581000D01*
X47645500Y-76581000D01*
X47645500Y-76835000D01*
X47625500Y-76835000D01*
X47625500Y-78051731D01*
X47816109Y-78176462D01*
X47853782Y-78172591D01*
X48079033Y-78080421D01*
X48281974Y-77946078D01*
X48454807Y-77774725D01*
X48498019Y-77710651D01*
X48620998Y-77860502D01*
X48809051Y-78014833D01*
X49023599Y-78129511D01*
X49256398Y-78200130D01*
X49498500Y-78223975D01*
X49740601Y-78200130D01*
X49973400Y-78129511D01*
X50187948Y-78014833D01*
X50376002Y-77860502D01*
X50407691Y-77821889D01*
X50410095Y-77826387D01*
X50520538Y-77960962D01*
X50655113Y-78071405D01*
X50808649Y-78153472D01*
X50975245Y-78204008D01*
X51148499Y-78221072D01*
X51848501Y-78221072D01*
X52021755Y-78204008D01*
X52188351Y-78153472D01*
X52341887Y-78071405D01*
X52476462Y-77960962D01*
X52586905Y-77826387D01*
X52668972Y-77672851D01*
X52719508Y-77506255D01*
X52736572Y-77333001D01*
X52736572Y-76082999D01*
X52719508Y-75909745D01*
X52668972Y-75743149D01*
X52586905Y-75589613D01*
X52476462Y-75455038D01*
X52341887Y-75344595D01*
X52188351Y-75262528D01*
X52150348Y-75251000D01*
X56621391Y-75251000D01*
X56504400Y-75286489D01*
X56289852Y-75401167D01*
X56101799Y-75555498D01*
X55947468Y-75743551D01*
X55832789Y-75958099D01*
X55762170Y-76190898D01*
X55744300Y-76372335D01*
X55744300Y-77043664D01*
X55762170Y-77225101D01*
X55832789Y-77457900D01*
X55947467Y-77672448D01*
X56101798Y-77860502D01*
X56289851Y-78014833D01*
X56504399Y-78129511D01*
X56737198Y-78200130D01*
X56979300Y-78223975D01*
X57221401Y-78200130D01*
X57454200Y-78129511D01*
X57668748Y-78014833D01*
X57856802Y-77860502D01*
X57979300Y-77711237D01*
X58101798Y-77860502D01*
X58289851Y-78014833D01*
X58504399Y-78129511D01*
X58737198Y-78200130D01*
X58979300Y-78223975D01*
X59221401Y-78200130D01*
X59454200Y-78129511D01*
X59668748Y-78014833D01*
X59856802Y-77860502D01*
X59979300Y-77711237D01*
X60101798Y-77860502D01*
X60289851Y-78014833D01*
X60504399Y-78129511D01*
X60737198Y-78200130D01*
X60979300Y-78223975D01*
X61221401Y-78200130D01*
X61454200Y-78129511D01*
X61668748Y-78014833D01*
X61856802Y-77860502D01*
X61888491Y-77821889D01*
X61890895Y-77826387D01*
X62001338Y-77960962D01*
X62135913Y-78071405D01*
X62289449Y-78153472D01*
X62456045Y-78204008D01*
X62629299Y-78221072D01*
X63329301Y-78221072D01*
X63502555Y-78204008D01*
X63594617Y-78176082D01*
X61169899Y-80600800D01*
X54763522Y-80600800D01*
X54726199Y-80597124D01*
X54688876Y-80600800D01*
X54688867Y-80600800D01*
X54577214Y-80611797D01*
X54433953Y-80655254D01*
X54301924Y-80725826D01*
X54301922Y-80725827D01*
X54301923Y-80725827D01*
X54215196Y-80797001D01*
X54215192Y-80797005D01*
X54186199Y-80820799D01*
X54162405Y-80849792D01*
X52364927Y-82647272D01*
X52325535Y-82607880D01*
X52096727Y-82454995D01*
X51842490Y-82349686D01*
X51572592Y-82296000D01*
X51297408Y-82296000D01*
X51027510Y-82349686D01*
X50773273Y-82454995D01*
X50544465Y-82607880D01*
X50349880Y-82802465D01*
X50196995Y-83031273D01*
X50167308Y-83102943D01*
X50162636Y-83089977D01*
X50100656Y-82974020D01*
X49860565Y-82907040D01*
X49074605Y-83693000D01*
X49860565Y-84478960D01*
X50100656Y-84411980D01*
X50164485Y-84276240D01*
X50196995Y-84354727D01*
X50349880Y-84583535D01*
X50544465Y-84778120D01*
X50773273Y-84931005D01*
X51027510Y-85036314D01*
X51297408Y-85090000D01*
X51503198Y-85090000D01*
X46646571Y-89946628D01*
X46492592Y-89916000D01*
X46217408Y-89916000D01*
X45947510Y-89969686D01*
X45693273Y-90074995D01*
X45464465Y-90227880D01*
X45269880Y-90422465D01*
X45116995Y-90651273D01*
X45011686Y-90905510D01*
X44958000Y-91175408D01*
X44958000Y-91450592D01*
X45011686Y-91720490D01*
X45116995Y-91974727D01*
X45269880Y-92203535D01*
X45464465Y-92398120D01*
X45693273Y-92551005D01*
X45770515Y-92583000D01*
X45693273Y-92614995D01*
X45464465Y-92767880D01*
X45269880Y-92962465D01*
X45116995Y-93191273D01*
X45011686Y-93445510D01*
X44958000Y-93715408D01*
X44958000Y-93990592D01*
X45011686Y-94260490D01*
X45116995Y-94514727D01*
X45269880Y-94743535D01*
X45464465Y-94938120D01*
X45693273Y-95091005D01*
X45770515Y-95123000D01*
X45693273Y-95154995D01*
X45464465Y-95307880D01*
X45269880Y-95502465D01*
X45116995Y-95731273D01*
X45011686Y-95985510D01*
X44958000Y-96255408D01*
X44958000Y-96530592D01*
X45011686Y-96800490D01*
X45116995Y-97054727D01*
X45269880Y-97283535D01*
X45464465Y-97478120D01*
X45693273Y-97631005D01*
X45947510Y-97736314D01*
X46217408Y-97790000D01*
X46492592Y-97790000D01*
X46762490Y-97736314D01*
X47016727Y-97631005D01*
X47245535Y-97478120D01*
X47440120Y-97283535D01*
X47593005Y-97054727D01*
X47625000Y-96977485D01*
X47656995Y-97054727D01*
X47809880Y-97283535D01*
X48004465Y-97478120D01*
X48233273Y-97631005D01*
X48487510Y-97736314D01*
X48757408Y-97790000D01*
X49032592Y-97790000D01*
X49302490Y-97736314D01*
X49556727Y-97631005D01*
X49785535Y-97478120D01*
X49980120Y-97283535D01*
X50133005Y-97054727D01*
X50165000Y-96977485D01*
X50196995Y-97054727D01*
X50349880Y-97283535D01*
X50544465Y-97478120D01*
X50773273Y-97631005D01*
X51027510Y-97736314D01*
X51297408Y-97790000D01*
X51572592Y-97790000D01*
X51842490Y-97736314D01*
X52096727Y-97631005D01*
X52325535Y-97478120D01*
X52520120Y-97283535D01*
X52673005Y-97054727D01*
X52705000Y-96977485D01*
X52736995Y-97054727D01*
X52889880Y-97283535D01*
X53084465Y-97478120D01*
X53313273Y-97631005D01*
X53567510Y-97736314D01*
X53837408Y-97790000D01*
X54112592Y-97790000D01*
X54382490Y-97736314D01*
X54636727Y-97631005D01*
X54865535Y-97478120D01*
X55060120Y-97283535D01*
X55213005Y-97054727D01*
X55245000Y-96977485D01*
X55276995Y-97054727D01*
X55429880Y-97283535D01*
X55624465Y-97478120D01*
X55853273Y-97631005D01*
X56107510Y-97736314D01*
X56377408Y-97790000D01*
X56652592Y-97790000D01*
X56922490Y-97736314D01*
X57176727Y-97631005D01*
X57405535Y-97478120D01*
X57600120Y-97283535D01*
X57753005Y-97054727D01*
X57782692Y-96983057D01*
X57787364Y-96996023D01*
X57849344Y-97111980D01*
X58089435Y-97178960D01*
X58875395Y-96393000D01*
X58089435Y-95607040D01*
X57849344Y-95674020D01*
X57785515Y-95809760D01*
X57753005Y-95731273D01*
X57600120Y-95502465D01*
X57405535Y-95307880D01*
X57176727Y-95154995D01*
X56922490Y-95049686D01*
X56652592Y-94996000D01*
X56377408Y-94996000D01*
X56107510Y-95049686D01*
X55853273Y-95154995D01*
X55624465Y-95307880D01*
X55429880Y-95502465D01*
X55276995Y-95731273D01*
X55245000Y-95808515D01*
X55213005Y-95731273D01*
X55060120Y-95502465D01*
X54865535Y-95307880D01*
X54735000Y-95220659D01*
X54735000Y-90990901D01*
X59732900Y-85993002D01*
X59732900Y-95168027D01*
X59524952Y-95070244D01*
X59257865Y-95003977D01*
X58982983Y-94991090D01*
X58710867Y-95032078D01*
X58451977Y-95125364D01*
X58336020Y-95187344D01*
X58269040Y-95427435D01*
X59055000Y-96213395D01*
X59069143Y-96199253D01*
X59248748Y-96378858D01*
X59234605Y-96393000D01*
X59248748Y-96407143D01*
X59069143Y-96586748D01*
X59055000Y-96572605D01*
X58269040Y-97358565D01*
X58336020Y-97598656D01*
X58585048Y-97715756D01*
X58852135Y-97782023D01*
X59127017Y-97794910D01*
X59399133Y-97753922D01*
X59658023Y-97660636D01*
X59732901Y-97620613D01*
X59732901Y-109787997D01*
X56353003Y-113167896D01*
X56323999Y-113191699D01*
X56285993Y-113238010D01*
X56229026Y-113307424D01*
X56163507Y-113430000D01*
X56158454Y-113439454D01*
X56114997Y-113582715D01*
X56104000Y-113694368D01*
X56104000Y-113694378D01*
X56100324Y-113731700D01*
X56104000Y-113769023D01*
X56104001Y-115591066D01*
X55986498Y-115687498D01*
X55954809Y-115726111D01*
X55952405Y-115721613D01*
X55841962Y-115587038D01*
X55799000Y-115551780D01*
X55799000Y-107690000D01*
X57303377Y-107690000D01*
X57429061Y-107715000D01*
X57632939Y-107715000D01*
X57832898Y-107675226D01*
X58021256Y-107597205D01*
X58190774Y-107483937D01*
X58334937Y-107339774D01*
X58448205Y-107170256D01*
X58526226Y-106981898D01*
X58566000Y-106781939D01*
X58566000Y-106578061D01*
X58526226Y-106378102D01*
X58448205Y-106189744D01*
X58334937Y-106020226D01*
X58190774Y-105876063D01*
X58021256Y-105762795D01*
X57832898Y-105684774D01*
X57632939Y-105645000D01*
X57429061Y-105645000D01*
X57303377Y-105670000D01*
X53631356Y-105670000D01*
X51421132Y-103459777D01*
X51349937Y-103353226D01*
X51205774Y-103209063D01*
X51036256Y-103095795D01*
X50847898Y-103017774D01*
X50647939Y-102978000D01*
X50444061Y-102978000D01*
X50244102Y-103017774D01*
X50055744Y-103095795D01*
X49886226Y-103209063D01*
X49742063Y-103353226D01*
X49628795Y-103522744D01*
X49550774Y-103711102D01*
X49511000Y-103911061D01*
X49511000Y-104114939D01*
X49550774Y-104314898D01*
X49628795Y-104503256D01*
X49742063Y-104672774D01*
X49886226Y-104816937D01*
X49992777Y-104888132D01*
X52463744Y-107359100D01*
X52495367Y-107397633D01*
X52649160Y-107523847D01*
X52733587Y-107568974D01*
X52824620Y-107617632D01*
X53015005Y-107675385D01*
X53213000Y-107694886D01*
X53262608Y-107690000D01*
X53929001Y-107690000D01*
X53929000Y-115551780D01*
X53886038Y-115587038D01*
X53775595Y-115721613D01*
X53693528Y-115875149D01*
X53642992Y-116041745D01*
X53625928Y-116214999D01*
X53625928Y-117465001D01*
X53642992Y-117638255D01*
X53693528Y-117804851D01*
X53775595Y-117958387D01*
X53886038Y-118092962D01*
X54020613Y-118203405D01*
X54174149Y-118285472D01*
X54340745Y-118336008D01*
X54513999Y-118353072D01*
X55214001Y-118353072D01*
X55387255Y-118336008D01*
X55553851Y-118285472D01*
X55707387Y-118203405D01*
X55841962Y-118092962D01*
X55952405Y-117958387D01*
X55954810Y-117953888D01*
X55986499Y-117992502D01*
X56174552Y-118146833D01*
X56389100Y-118261511D01*
X56621899Y-118332130D01*
X56864000Y-118355975D01*
X57106102Y-118332130D01*
X57338901Y-118261511D01*
X57553449Y-118146833D01*
X57741502Y-117992502D01*
X57864000Y-117843237D01*
X57986499Y-117992502D01*
X58174552Y-118146833D01*
X58389100Y-118261511D01*
X58621899Y-118332130D01*
X58864000Y-118355975D01*
X59106102Y-118332130D01*
X59338901Y-118261511D01*
X59553449Y-118146833D01*
X59741502Y-117992502D01*
X59864481Y-117842652D01*
X59907693Y-117906725D01*
X60080526Y-118078078D01*
X60283467Y-118212421D01*
X60508718Y-118304591D01*
X60546391Y-118308462D01*
X60737000Y-118183731D01*
X60737000Y-116967000D01*
X60717000Y-116967000D01*
X60717000Y-116713000D01*
X60737000Y-116713000D01*
X60737000Y-115496269D01*
X60546391Y-115371538D01*
X60508718Y-115375409D01*
X60283467Y-115467579D01*
X60080526Y-115601922D01*
X59907693Y-115773275D01*
X59864481Y-115837348D01*
X59741502Y-115687498D01*
X59553448Y-115533167D01*
X59338900Y-115418489D01*
X59106101Y-115347870D01*
X58864000Y-115324025D01*
X58621898Y-115347870D01*
X58389099Y-115418489D01*
X58174551Y-115533167D01*
X57986498Y-115687498D01*
X57864000Y-115836763D01*
X57741502Y-115687498D01*
X57624000Y-115591067D01*
X57624000Y-114046501D01*
X60807702Y-110862800D01*
X64936299Y-110862800D01*
X69455487Y-115381988D01*
X69414149Y-115394528D01*
X69260613Y-115476595D01*
X69126038Y-115587038D01*
X69015595Y-115721613D01*
X68933528Y-115875149D01*
X68882992Y-116041745D01*
X68865928Y-116214999D01*
X68865928Y-116996826D01*
X66932504Y-115063403D01*
X66908701Y-115034399D01*
X66792976Y-114939426D01*
X66660947Y-114868854D01*
X66517686Y-114825397D01*
X66406033Y-114814400D01*
X66406022Y-114814400D01*
X66368700Y-114810724D01*
X66331378Y-114814400D01*
X62573423Y-114814400D01*
X62536100Y-114810724D01*
X62498777Y-114814400D01*
X62498767Y-114814400D01*
X62387114Y-114825397D01*
X62243853Y-114868854D01*
X62111823Y-114939426D01*
X62032256Y-115004726D01*
X61996099Y-115034399D01*
X61972300Y-115063398D01*
X61518894Y-115516805D01*
X61444533Y-115467579D01*
X61219282Y-115375409D01*
X61181609Y-115371538D01*
X60991000Y-115496269D01*
X60991000Y-116713000D01*
X61011000Y-116713000D01*
X61011000Y-116967000D01*
X60991000Y-116967000D01*
X60991000Y-118183731D01*
X61104000Y-118257676D01*
X61104000Y-118796198D01*
X60391199Y-119509000D01*
X49463802Y-119509000D01*
X48353000Y-118398199D01*
X48353000Y-118088933D01*
X48470502Y-117992502D01*
X48593481Y-117842652D01*
X48636693Y-117906725D01*
X48809526Y-118078078D01*
X49012467Y-118212421D01*
X49237718Y-118304591D01*
X49275391Y-118308462D01*
X49466000Y-118183731D01*
X49466000Y-116967000D01*
X49720000Y-116967000D01*
X49720000Y-118183731D01*
X49910609Y-118308462D01*
X49948282Y-118304591D01*
X50173533Y-118212421D01*
X50376474Y-118078078D01*
X50549307Y-117906725D01*
X50685390Y-117704946D01*
X50779493Y-117480496D01*
X50828000Y-117242000D01*
X50828000Y-116967000D01*
X49720000Y-116967000D01*
X49466000Y-116967000D01*
X49446000Y-116967000D01*
X49446000Y-116713000D01*
X49466000Y-116713000D01*
X49466000Y-115496269D01*
X49720000Y-115496269D01*
X49720000Y-116713000D01*
X50828000Y-116713000D01*
X50828000Y-116438000D01*
X50779493Y-116199504D01*
X50685390Y-115975054D01*
X50549307Y-115773275D01*
X50376474Y-115601922D01*
X50173533Y-115467579D01*
X49948282Y-115375409D01*
X49910609Y-115371538D01*
X49720000Y-115496269D01*
X49466000Y-115496269D01*
X49275391Y-115371538D01*
X49237718Y-115375409D01*
X49012467Y-115467579D01*
X48809526Y-115601922D01*
X48636693Y-115773275D01*
X48593481Y-115837348D01*
X48470502Y-115687498D01*
X48282448Y-115533167D01*
X48067900Y-115418489D01*
X47835101Y-115347870D01*
X47593000Y-115324025D01*
X47350898Y-115347870D01*
X47118099Y-115418489D01*
X46903551Y-115533167D01*
X46715498Y-115687498D01*
X46683809Y-115726111D01*
X46681405Y-115721613D01*
X46570962Y-115587038D01*
X46436387Y-115476595D01*
X46282851Y-115394528D01*
X46116255Y-115343992D01*
X45943001Y-115326928D01*
X45242999Y-115326928D01*
X45069745Y-115343992D01*
X44903149Y-115394528D01*
X44749613Y-115476595D01*
X44615038Y-115587038D01*
X44504595Y-115721613D01*
X44422528Y-115875149D01*
X44371992Y-116041745D01*
X44354928Y-116214999D01*
X44354928Y-117465001D01*
X44371992Y-117638255D01*
X44422528Y-117804851D01*
X44504595Y-117958387D01*
X44615038Y-118092962D01*
X44749613Y-118203405D01*
X44903149Y-118285472D01*
X45069745Y-118336008D01*
X45242999Y-118353072D01*
X45943001Y-118353072D01*
X46116255Y-118336008D01*
X46282851Y-118285472D01*
X46436387Y-118203405D01*
X46570962Y-118092962D01*
X46681405Y-117958387D01*
X46683810Y-117953888D01*
X46715499Y-117992502D01*
X46833001Y-118088933D01*
X46833001Y-118675668D01*
X46829324Y-118713000D01*
X46833001Y-118750333D01*
X46843643Y-118858376D01*
X46843998Y-118861985D01*
X46887454Y-119005246D01*
X46958026Y-119137276D01*
X46993150Y-119180074D01*
X47053000Y-119253001D01*
X47081998Y-119276799D01*
X48585201Y-120780003D01*
X48608999Y-120809001D01*
X48724724Y-120903974D01*
X48856753Y-120974546D01*
X49000014Y-121018003D01*
X49111667Y-121029000D01*
X49111676Y-121029000D01*
X49148999Y-121032676D01*
X49186322Y-121029000D01*
X60668678Y-121029000D01*
X60706000Y-121032676D01*
X60743322Y-121029000D01*
X60743333Y-121029000D01*
X60854986Y-121018003D01*
X60998247Y-120974546D01*
X61130276Y-120903974D01*
X61246001Y-120809001D01*
X61269804Y-120779997D01*
X62375004Y-119674798D01*
X62404001Y-119651001D01*
X62498974Y-119535276D01*
X62569546Y-119403247D01*
X62613003Y-119259986D01*
X62624000Y-119148333D01*
X62624000Y-119148324D01*
X62627676Y-119111001D01*
X62624000Y-119073678D01*
X62624000Y-118799801D01*
X67340211Y-123516013D01*
X67364010Y-123545012D01*
X67393008Y-123568810D01*
X67479734Y-123639985D01*
X67572358Y-123689494D01*
X67611764Y-123710557D01*
X67697288Y-123736500D01*
X27972279Y-123736500D01*
X27575455Y-123697591D01*
X27224794Y-123591720D01*
X26901377Y-123419757D01*
X26617518Y-123188248D01*
X26384035Y-122906014D01*
X26209816Y-122583804D01*
X26101498Y-122233885D01*
X26060000Y-121839057D01*
X26060000Y-120429872D01*
X26975000Y-120429872D01*
X26975000Y-120870128D01*
X27060890Y-121301925D01*
X27229369Y-121708669D01*
X27473962Y-122074729D01*
X27785271Y-122386038D01*
X28151331Y-122630631D01*
X28558075Y-122799110D01*
X28989872Y-122885000D01*
X29430128Y-122885000D01*
X29861925Y-122799110D01*
X30268669Y-122630631D01*
X30634729Y-122386038D01*
X30946038Y-122074729D01*
X31190631Y-121708669D01*
X31359110Y-121301925D01*
X31445000Y-120870128D01*
X31445000Y-120429872D01*
X31359110Y-119998075D01*
X31190631Y-119591331D01*
X30946038Y-119225271D01*
X30634729Y-118913962D01*
X30268669Y-118669369D01*
X29861925Y-118500890D01*
X29430128Y-118415000D01*
X28989872Y-118415000D01*
X28558075Y-118500890D01*
X28151331Y-118669369D01*
X27785271Y-118913962D01*
X27473962Y-119225271D01*
X27229369Y-119591331D01*
X27060890Y-119998075D01*
X26975000Y-120429872D01*
X26060000Y-120429872D01*
X26060000Y-115318000D01*
X26973509Y-115318000D01*
X26995423Y-115540499D01*
X27060324Y-115754447D01*
X27165716Y-115951623D01*
X27307551Y-116124449D01*
X27480377Y-116266284D01*
X27677553Y-116371676D01*
X27891501Y-116436577D01*
X28058248Y-116453000D01*
X28769752Y-116453000D01*
X28936499Y-116436577D01*
X29150447Y-116371676D01*
X29347623Y-116266284D01*
X29520449Y-116124449D01*
X29662284Y-115951623D01*
X29767676Y-115754447D01*
X29832577Y-115540499D01*
X29854491Y-115318000D01*
X29832577Y-115095501D01*
X29767676Y-114881553D01*
X29662284Y-114684377D01*
X29520449Y-114511551D01*
X29347623Y-114369716D01*
X29150447Y-114264324D01*
X28936499Y-114199423D01*
X28769752Y-114183000D01*
X28058248Y-114183000D01*
X27891501Y-114199423D01*
X27677553Y-114264324D01*
X27480377Y-114369716D01*
X27307551Y-114511551D01*
X27165716Y-114684377D01*
X27060324Y-114881553D01*
X26995423Y-115095501D01*
X26973509Y-115318000D01*
X26060000Y-115318000D01*
X26060000Y-110769061D01*
X29572000Y-110769061D01*
X29572000Y-110972939D01*
X29611774Y-111172898D01*
X29689795Y-111361256D01*
X29803063Y-111530774D01*
X29947226Y-111674937D01*
X30116744Y-111788205D01*
X30305102Y-111866226D01*
X30424094Y-111889895D01*
X30424201Y-111890002D01*
X30969000Y-112434802D01*
X30969000Y-112496939D01*
X31008774Y-112696898D01*
X31086795Y-112885256D01*
X31200063Y-113054774D01*
X31344226Y-113198937D01*
X31374913Y-113219442D01*
X31318319Y-113276036D01*
X31213259Y-113433269D01*
X31140892Y-113607978D01*
X31104000Y-113793448D01*
X31104000Y-113982552D01*
X31140892Y-114168022D01*
X31213259Y-114342731D01*
X31294715Y-114464638D01*
X31237551Y-114511551D01*
X31095716Y-114684377D01*
X30990324Y-114881553D01*
X30925423Y-115095501D01*
X30903509Y-115318000D01*
X30925423Y-115540499D01*
X30990324Y-115754447D01*
X31095716Y-115951623D01*
X31237551Y-116124449D01*
X31410377Y-116266284D01*
X31607553Y-116371676D01*
X31821501Y-116436577D01*
X31988248Y-116453000D01*
X33199752Y-116453000D01*
X33366499Y-116436577D01*
X33580447Y-116371676D01*
X33777623Y-116266284D01*
X33840113Y-116214999D01*
X36988928Y-116214999D01*
X36988928Y-117465001D01*
X37005992Y-117638255D01*
X37056528Y-117804851D01*
X37138595Y-117958387D01*
X37249038Y-118092962D01*
X37383613Y-118203405D01*
X37537149Y-118285472D01*
X37703745Y-118336008D01*
X37876999Y-118353072D01*
X38577001Y-118353072D01*
X38750255Y-118336008D01*
X38916851Y-118285472D01*
X39070387Y-118203405D01*
X39204962Y-118092962D01*
X39315405Y-117958387D01*
X39317967Y-117953594D01*
X39443526Y-118078078D01*
X39646467Y-118212421D01*
X39871718Y-118304591D01*
X39909391Y-118308462D01*
X40100000Y-118183731D01*
X40100000Y-116967000D01*
X40354000Y-116967000D01*
X40354000Y-118183731D01*
X40544609Y-118308462D01*
X40582282Y-118304591D01*
X40807533Y-118212421D01*
X41010474Y-118078078D01*
X41183307Y-117906725D01*
X41319390Y-117704946D01*
X41413493Y-117480496D01*
X41462000Y-117242000D01*
X41462000Y-116967000D01*
X40354000Y-116967000D01*
X40100000Y-116967000D01*
X40080000Y-116967000D01*
X40080000Y-116713000D01*
X40100000Y-116713000D01*
X40100000Y-115496269D01*
X40354000Y-115496269D01*
X40354000Y-116713000D01*
X41462000Y-116713000D01*
X41462000Y-116438000D01*
X41413493Y-116199504D01*
X41319390Y-115975054D01*
X41183307Y-115773275D01*
X41010474Y-115601922D01*
X40807533Y-115467579D01*
X40582282Y-115375409D01*
X40544609Y-115371538D01*
X40354000Y-115496269D01*
X40100000Y-115496269D01*
X39909391Y-115371538D01*
X39871718Y-115375409D01*
X39646467Y-115467579D01*
X39443526Y-115601922D01*
X39317967Y-115726406D01*
X39315405Y-115721613D01*
X39204962Y-115587038D01*
X39070387Y-115476595D01*
X38916851Y-115394528D01*
X38750255Y-115343992D01*
X38577001Y-115326928D01*
X37876999Y-115326928D01*
X37703745Y-115343992D01*
X37537149Y-115394528D01*
X37383613Y-115476595D01*
X37249038Y-115587038D01*
X37138595Y-115721613D01*
X37056528Y-115875149D01*
X37005992Y-116041745D01*
X36988928Y-116214999D01*
X33840113Y-116214999D01*
X33950449Y-116124449D01*
X34092284Y-115951623D01*
X34197676Y-115754447D01*
X34262577Y-115540499D01*
X34284491Y-115318000D01*
X34262577Y-115095501D01*
X34197676Y-114881553D01*
X34092284Y-114684377D01*
X33950449Y-114511551D01*
X33777623Y-114369716D01*
X33580447Y-114264324D01*
X33366499Y-114199423D01*
X33199752Y-114183000D01*
X32980904Y-114183000D01*
X32987108Y-114168022D01*
X33024000Y-113982552D01*
X33024000Y-113793448D01*
X32987108Y-113607978D01*
X32914741Y-113433269D01*
X32809681Y-113276036D01*
X32698178Y-113164533D01*
X32807937Y-113054774D01*
X32921205Y-112885256D01*
X32999226Y-112696898D01*
X33039000Y-112496939D01*
X33039000Y-112293061D01*
X32999226Y-112093102D01*
X32921205Y-111904744D01*
X32807937Y-111735226D01*
X32663774Y-111591063D01*
X32494256Y-111477795D01*
X32305898Y-111399774D01*
X32105939Y-111360000D01*
X32043802Y-111360000D01*
X31642000Y-110958199D01*
X31642000Y-110769061D01*
X31602226Y-110569102D01*
X31524205Y-110380744D01*
X31410937Y-110211226D01*
X31266774Y-110067063D01*
X31097256Y-109953795D01*
X30908898Y-109875774D01*
X30708939Y-109836000D01*
X30505061Y-109836000D01*
X30305102Y-109875774D01*
X30116744Y-109953795D01*
X29947226Y-110067063D01*
X29803063Y-110211226D01*
X29689795Y-110380744D01*
X29611774Y-110569102D01*
X29572000Y-110769061D01*
X26060000Y-110769061D01*
X26060000Y-106678000D01*
X26973509Y-106678000D01*
X26995423Y-106900499D01*
X27060324Y-107114447D01*
X27165716Y-107311623D01*
X27307551Y-107484449D01*
X27480377Y-107626284D01*
X27677553Y-107731676D01*
X27891501Y-107796577D01*
X28058248Y-107813000D01*
X28769752Y-107813000D01*
X28936499Y-107796577D01*
X29150447Y-107731676D01*
X29347623Y-107626284D01*
X29520449Y-107484449D01*
X29662284Y-107311623D01*
X29767676Y-107114447D01*
X29832577Y-106900499D01*
X29854491Y-106678000D01*
X30903509Y-106678000D01*
X30925423Y-106900499D01*
X30990324Y-107114447D01*
X31095716Y-107311623D01*
X31237551Y-107484449D01*
X31294715Y-107531362D01*
X31213259Y-107653269D01*
X31140892Y-107827978D01*
X31104000Y-108013448D01*
X31104000Y-108202552D01*
X31140892Y-108388022D01*
X31213259Y-108562731D01*
X31318319Y-108719964D01*
X31452036Y-108853681D01*
X31609269Y-108958741D01*
X31783978Y-109031108D01*
X31969448Y-109068000D01*
X32158552Y-109068000D01*
X32344022Y-109031108D01*
X32518731Y-108958741D01*
X32675964Y-108853681D01*
X32809681Y-108719964D01*
X32914741Y-108562731D01*
X32987108Y-108388022D01*
X33024000Y-108202552D01*
X33024000Y-108013448D01*
X32987108Y-107827978D01*
X32980904Y-107813000D01*
X33199752Y-107813000D01*
X33366499Y-107796577D01*
X33580447Y-107731676D01*
X33777623Y-107626284D01*
X33950449Y-107484449D01*
X34092284Y-107311623D01*
X34197676Y-107114447D01*
X34262577Y-106900499D01*
X34284491Y-106678000D01*
X34262577Y-106455501D01*
X34197676Y-106241553D01*
X34092284Y-106044377D01*
X33950449Y-105871551D01*
X33777623Y-105729716D01*
X33580447Y-105624324D01*
X33366499Y-105559423D01*
X33199752Y-105543000D01*
X31988248Y-105543000D01*
X31821501Y-105559423D01*
X31607553Y-105624324D01*
X31410377Y-105729716D01*
X31237551Y-105871551D01*
X31095716Y-106044377D01*
X30990324Y-106241553D01*
X30925423Y-106455501D01*
X30903509Y-106678000D01*
X29854491Y-106678000D01*
X29832577Y-106455501D01*
X29767676Y-106241553D01*
X29662284Y-106044377D01*
X29520449Y-105871551D01*
X29347623Y-105729716D01*
X29150447Y-105624324D01*
X28936499Y-105559423D01*
X28769752Y-105543000D01*
X28058248Y-105543000D01*
X27891501Y-105559423D01*
X27677553Y-105624324D01*
X27480377Y-105729716D01*
X27307551Y-105871551D01*
X27165716Y-106044377D01*
X27060324Y-106241553D01*
X26995423Y-106455501D01*
X26973509Y-106678000D01*
X26060000Y-106678000D01*
X26060000Y-102631000D01*
X33981928Y-102631000D01*
X33981928Y-104381000D01*
X34011001Y-104676186D01*
X34097104Y-104960028D01*
X34236927Y-105221618D01*
X34425097Y-105450903D01*
X34654382Y-105639073D01*
X34915972Y-105778896D01*
X35199814Y-105864999D01*
X35495000Y-105894072D01*
X37245000Y-105894072D01*
X37540186Y-105864999D01*
X37824028Y-105778896D01*
X38085618Y-105639073D01*
X38314903Y-105450903D01*
X38503073Y-105221618D01*
X38642896Y-104960028D01*
X38728999Y-104676186D01*
X38758072Y-104381000D01*
X38758072Y-102631000D01*
X38728999Y-102335814D01*
X38642896Y-102051972D01*
X38503073Y-101790382D01*
X38314903Y-101561097D01*
X38085618Y-101372927D01*
X37824028Y-101233104D01*
X37695357Y-101194072D01*
X41120000Y-101194072D01*
X41244482Y-101181812D01*
X41364180Y-101145502D01*
X41474494Y-101086537D01*
X41571185Y-101007185D01*
X41650537Y-100910494D01*
X41709502Y-100800180D01*
X41745812Y-100680482D01*
X41758072Y-100556000D01*
X41758072Y-97056000D01*
X41745812Y-96931518D01*
X41709502Y-96811820D01*
X41650537Y-96701506D01*
X41571185Y-96604815D01*
X41474494Y-96525463D01*
X41364180Y-96466498D01*
X41244482Y-96430188D01*
X41120000Y-96417928D01*
X37620000Y-96417928D01*
X37495518Y-96430188D01*
X37375820Y-96466498D01*
X37265506Y-96525463D01*
X37168815Y-96604815D01*
X37089463Y-96701506D01*
X37030498Y-96811820D01*
X36994188Y-96931518D01*
X36981928Y-97056000D01*
X36981928Y-100556000D01*
X36994188Y-100680482D01*
X37030498Y-100800180D01*
X37089463Y-100910494D01*
X37168815Y-101007185D01*
X37265506Y-101086537D01*
X37342131Y-101127494D01*
X37245000Y-101117928D01*
X35495000Y-101117928D01*
X35199814Y-101147001D01*
X34915972Y-101233104D01*
X34654382Y-101372927D01*
X34425097Y-101561097D01*
X34236927Y-101790382D01*
X34097104Y-102051972D01*
X34011001Y-102335814D01*
X33981928Y-102631000D01*
X26060000Y-102631000D01*
X26060000Y-100556000D01*
X31231928Y-100556000D01*
X31244188Y-100680482D01*
X31280498Y-100800180D01*
X31339463Y-100910494D01*
X31418815Y-101007185D01*
X31515506Y-101086537D01*
X31625820Y-101145502D01*
X31745518Y-101181812D01*
X31870000Y-101194072D01*
X33084250Y-101191000D01*
X33243000Y-101032250D01*
X33243000Y-98933000D01*
X33497000Y-98933000D01*
X33497000Y-101032250D01*
X33655750Y-101191000D01*
X34870000Y-101194072D01*
X34994482Y-101181812D01*
X35114180Y-101145502D01*
X35224494Y-101086537D01*
X35321185Y-101007185D01*
X35400537Y-100910494D01*
X35459502Y-100800180D01*
X35495812Y-100680482D01*
X35508072Y-100556000D01*
X35505000Y-99091750D01*
X35346250Y-98933000D01*
X33497000Y-98933000D01*
X33243000Y-98933000D01*
X31393750Y-98933000D01*
X31235000Y-99091750D01*
X31231928Y-100556000D01*
X26060000Y-100556000D01*
X26060000Y-97056000D01*
X31231928Y-97056000D01*
X31235000Y-98520250D01*
X31393750Y-98679000D01*
X33243000Y-98679000D01*
X33243000Y-96579750D01*
X33497000Y-96579750D01*
X33497000Y-98679000D01*
X35346250Y-98679000D01*
X35505000Y-98520250D01*
X35508072Y-97056000D01*
X35495812Y-96931518D01*
X35459502Y-96811820D01*
X35400537Y-96701506D01*
X35321185Y-96604815D01*
X35224494Y-96525463D01*
X35114180Y-96466498D01*
X34994482Y-96430188D01*
X34870000Y-96417928D01*
X33655750Y-96421000D01*
X33497000Y-96579750D01*
X33243000Y-96579750D01*
X33084250Y-96421000D01*
X31870000Y-96417928D01*
X31745518Y-96430188D01*
X31625820Y-96466498D01*
X31515506Y-96525463D01*
X31418815Y-96604815D01*
X31339463Y-96701506D01*
X31280498Y-96811820D01*
X31244188Y-96931518D01*
X31231928Y-97056000D01*
X26060000Y-97056000D01*
X26060000Y-91090609D01*
X31424538Y-91090609D01*
X31428409Y-91128282D01*
X31520579Y-91353533D01*
X31654922Y-91556474D01*
X31826275Y-91729307D01*
X32028054Y-91865390D01*
X32252504Y-91959493D01*
X32491000Y-92008000D01*
X32766000Y-92008000D01*
X32766000Y-90900000D01*
X33020000Y-90900000D01*
X33020000Y-92008000D01*
X33295000Y-92008000D01*
X33533496Y-91959493D01*
X33757946Y-91865390D01*
X33959725Y-91729307D01*
X34131078Y-91556474D01*
X34265421Y-91353533D01*
X34357591Y-91128282D01*
X34361462Y-91090609D01*
X34236731Y-90900000D01*
X33020000Y-90900000D01*
X32766000Y-90900000D01*
X31549269Y-90900000D01*
X31424538Y-91090609D01*
X26060000Y-91090609D01*
X26060000Y-88422999D01*
X31379928Y-88422999D01*
X31379928Y-89123001D01*
X31396992Y-89296255D01*
X31447528Y-89462851D01*
X31529595Y-89616387D01*
X31640038Y-89750962D01*
X31774613Y-89861405D01*
X31779406Y-89863967D01*
X31654922Y-89989526D01*
X31520579Y-90192467D01*
X31428409Y-90417718D01*
X31424538Y-90455391D01*
X31549269Y-90646000D01*
X32766000Y-90646000D01*
X32766000Y-90626000D01*
X33020000Y-90626000D01*
X33020000Y-90646000D01*
X34236731Y-90646000D01*
X34361462Y-90455391D01*
X34357591Y-90417718D01*
X34265421Y-90192467D01*
X34131078Y-89989526D01*
X34006594Y-89863967D01*
X34011387Y-89861405D01*
X34145962Y-89750962D01*
X34256405Y-89616387D01*
X34338472Y-89462851D01*
X34389008Y-89296255D01*
X34406072Y-89123001D01*
X34406072Y-88422999D01*
X34389008Y-88249745D01*
X34338472Y-88083149D01*
X34256405Y-87929613D01*
X34145962Y-87795038D01*
X34011387Y-87684595D01*
X33857851Y-87602528D01*
X33691255Y-87551992D01*
X33518001Y-87534928D01*
X32267999Y-87534928D01*
X32094745Y-87551992D01*
X31928149Y-87602528D01*
X31774613Y-87684595D01*
X31640038Y-87795038D01*
X31529595Y-87929613D01*
X31447528Y-88083149D01*
X31396992Y-88249745D01*
X31379928Y-88422999D01*
X26060000Y-88422999D01*
X26060000Y-85510000D01*
X37246928Y-85510000D01*
X37246928Y-87210000D01*
X37259188Y-87334482D01*
X37295498Y-87454180D01*
X37354463Y-87564494D01*
X37433815Y-87661185D01*
X37530506Y-87740537D01*
X37640820Y-87799502D01*
X37760518Y-87835812D01*
X37885000Y-87848072D01*
X39585000Y-87848072D01*
X39709482Y-87835812D01*
X39829180Y-87799502D01*
X39939494Y-87740537D01*
X40036185Y-87661185D01*
X40115537Y-87564494D01*
X40174502Y-87454180D01*
X40210812Y-87334482D01*
X40223072Y-87210000D01*
X40223072Y-85510000D01*
X40210812Y-85385518D01*
X40174502Y-85265820D01*
X40115537Y-85155506D01*
X40036185Y-85058815D01*
X39939494Y-84979463D01*
X39829180Y-84920498D01*
X39756620Y-84898487D01*
X39888475Y-84766632D01*
X40050990Y-84523411D01*
X40162932Y-84253158D01*
X40220000Y-83966260D01*
X40220000Y-83673740D01*
X40196463Y-83555408D01*
X44958000Y-83555408D01*
X44958000Y-83830592D01*
X45011686Y-84100490D01*
X45116995Y-84354727D01*
X45269880Y-84583535D01*
X45464465Y-84778120D01*
X45693273Y-84931005D01*
X45947510Y-85036314D01*
X46217408Y-85090000D01*
X46492592Y-85090000D01*
X46762490Y-85036314D01*
X47016727Y-84931005D01*
X47245535Y-84778120D01*
X47365090Y-84658565D01*
X48109040Y-84658565D01*
X48176020Y-84898656D01*
X48425048Y-85015756D01*
X48692135Y-85082023D01*
X48967017Y-85094910D01*
X49239133Y-85053922D01*
X49498023Y-84960636D01*
X49613980Y-84898656D01*
X49680960Y-84658565D01*
X48895000Y-83872605D01*
X48109040Y-84658565D01*
X47365090Y-84658565D01*
X47440120Y-84583535D01*
X47593005Y-84354727D01*
X47622692Y-84283057D01*
X47627364Y-84296023D01*
X47689344Y-84411980D01*
X47929435Y-84478960D01*
X48715395Y-83693000D01*
X47929435Y-82907040D01*
X47689344Y-82974020D01*
X47625515Y-83109760D01*
X47593005Y-83031273D01*
X47440120Y-82802465D01*
X47365090Y-82727435D01*
X48109040Y-82727435D01*
X48895000Y-83513395D01*
X49680960Y-82727435D01*
X49613980Y-82487344D01*
X49364952Y-82370244D01*
X49097865Y-82303977D01*
X48822983Y-82291090D01*
X48550867Y-82332078D01*
X48291977Y-82425364D01*
X48176020Y-82487344D01*
X48109040Y-82727435D01*
X47365090Y-82727435D01*
X47245535Y-82607880D01*
X47016727Y-82454995D01*
X46762490Y-82349686D01*
X46492592Y-82296000D01*
X46217408Y-82296000D01*
X45947510Y-82349686D01*
X45693273Y-82454995D01*
X45464465Y-82607880D01*
X45269880Y-82802465D01*
X45116995Y-83031273D01*
X45011686Y-83285510D01*
X44958000Y-83555408D01*
X40196463Y-83555408D01*
X40162932Y-83386842D01*
X40050990Y-83116589D01*
X39888475Y-82873368D01*
X39681632Y-82666525D01*
X39507240Y-82550000D01*
X39681632Y-82433475D01*
X39888475Y-82226632D01*
X40050990Y-81983411D01*
X40162932Y-81713158D01*
X40220000Y-81426260D01*
X40220000Y-81133740D01*
X40162932Y-80846842D01*
X40050990Y-80576589D01*
X39888475Y-80333368D01*
X39681632Y-80126525D01*
X39438411Y-79964010D01*
X39168158Y-79852068D01*
X38881260Y-79795000D01*
X38588740Y-79795000D01*
X38301842Y-79852068D01*
X38031589Y-79964010D01*
X37788368Y-80126525D01*
X37581525Y-80333368D01*
X37419010Y-80576589D01*
X37307068Y-80846842D01*
X37250000Y-81133740D01*
X37250000Y-81426260D01*
X37307068Y-81713158D01*
X37419010Y-81983411D01*
X37581525Y-82226632D01*
X37788368Y-82433475D01*
X37962760Y-82550000D01*
X37788368Y-82666525D01*
X37581525Y-82873368D01*
X37419010Y-83116589D01*
X37307068Y-83386842D01*
X37250000Y-83673740D01*
X37250000Y-83966260D01*
X37307068Y-84253158D01*
X37419010Y-84523411D01*
X37581525Y-84766632D01*
X37713380Y-84898487D01*
X37640820Y-84920498D01*
X37530506Y-84979463D01*
X37433815Y-85058815D01*
X37354463Y-85155506D01*
X37295498Y-85265820D01*
X37259188Y-85385518D01*
X37246928Y-85510000D01*
X26060000Y-85510000D01*
X26060000Y-83565609D01*
X31424538Y-83565609D01*
X31428409Y-83603282D01*
X31520579Y-83828533D01*
X31654922Y-84031474D01*
X31826275Y-84204307D01*
X32028054Y-84340390D01*
X32252504Y-84434493D01*
X32491000Y-84483000D01*
X32766000Y-84483000D01*
X32766000Y-83375000D01*
X33020000Y-83375000D01*
X33020000Y-84483000D01*
X33295000Y-84483000D01*
X33533496Y-84434493D01*
X33757946Y-84340390D01*
X33959725Y-84204307D01*
X34131078Y-84031474D01*
X34265421Y-83828533D01*
X34357591Y-83603282D01*
X34361462Y-83565609D01*
X34236731Y-83375000D01*
X33020000Y-83375000D01*
X32766000Y-83375000D01*
X31549269Y-83375000D01*
X31424538Y-83565609D01*
X26060000Y-83565609D01*
X26060000Y-81248000D01*
X31377025Y-81248000D01*
X31400870Y-81490102D01*
X31471489Y-81722901D01*
X31586167Y-81937449D01*
X31740498Y-82125502D01*
X31890348Y-82248481D01*
X31826275Y-82291693D01*
X31654922Y-82464526D01*
X31520579Y-82667467D01*
X31428409Y-82892718D01*
X31424538Y-82930391D01*
X31549269Y-83121000D01*
X32766000Y-83121000D01*
X32766000Y-83101000D01*
X33020000Y-83101000D01*
X33020000Y-83121000D01*
X34236731Y-83121000D01*
X34361462Y-82930391D01*
X34357591Y-82892718D01*
X34265421Y-82667467D01*
X34131078Y-82464526D01*
X33959725Y-82291693D01*
X33895652Y-82248481D01*
X34045502Y-82125502D01*
X34199833Y-81937449D01*
X34314511Y-81722901D01*
X34385130Y-81490102D01*
X34408975Y-81248000D01*
X34385130Y-81005898D01*
X34314511Y-80773099D01*
X34199833Y-80558551D01*
X34045502Y-80370498D01*
X34006889Y-80338809D01*
X34011387Y-80336405D01*
X34145962Y-80225962D01*
X34256405Y-80091387D01*
X34338472Y-79937851D01*
X34389008Y-79771255D01*
X34406072Y-79598001D01*
X34406072Y-78897999D01*
X34389008Y-78724745D01*
X34338472Y-78558149D01*
X34256405Y-78404613D01*
X34145962Y-78270038D01*
X34011387Y-78159595D01*
X33857851Y-78077528D01*
X33691255Y-78026992D01*
X33518001Y-78009928D01*
X32267999Y-78009928D01*
X32094745Y-78026992D01*
X31928149Y-78077528D01*
X31774613Y-78159595D01*
X31640038Y-78270038D01*
X31529595Y-78404613D01*
X31447528Y-78558149D01*
X31396992Y-78724745D01*
X31379928Y-78897999D01*
X31379928Y-79598001D01*
X31396992Y-79771255D01*
X31447528Y-79937851D01*
X31529595Y-80091387D01*
X31640038Y-80225962D01*
X31774613Y-80336405D01*
X31779111Y-80338809D01*
X31740498Y-80370498D01*
X31586167Y-80558551D01*
X31471489Y-80773099D01*
X31400870Y-81005898D01*
X31377025Y-81248000D01*
X26060000Y-81248000D01*
X26060000Y-76835000D01*
X38789300Y-76835000D01*
X38789300Y-77110000D01*
X38837807Y-77348496D01*
X38931910Y-77572946D01*
X39067993Y-77774725D01*
X39240826Y-77946078D01*
X39443767Y-78080421D01*
X39669018Y-78172591D01*
X39706691Y-78176462D01*
X39897300Y-78051731D01*
X39897300Y-76835000D01*
X38789300Y-76835000D01*
X26060000Y-76835000D01*
X26060000Y-76306000D01*
X38789300Y-76306000D01*
X38789300Y-76581000D01*
X39897300Y-76581000D01*
X39897300Y-75364269D01*
X39706691Y-75239538D01*
X39669018Y-75243409D01*
X39443767Y-75335579D01*
X39240826Y-75469922D01*
X39067993Y-75641275D01*
X38931910Y-75843054D01*
X38837807Y-76067504D01*
X38789300Y-76306000D01*
X26060000Y-76306000D01*
X26060000Y-72677872D01*
X26975000Y-72677872D01*
X26975000Y-73118128D01*
X27060890Y-73549925D01*
X27229369Y-73956669D01*
X27473962Y-74322729D01*
X27785271Y-74634038D01*
X28151331Y-74878631D01*
X28558075Y-75047110D01*
X28989872Y-75133000D01*
X29430128Y-75133000D01*
X29861925Y-75047110D01*
X30268669Y-74878631D01*
X30634729Y-74634038D01*
X30946038Y-74322729D01*
X31190631Y-73956669D01*
X31359110Y-73549925D01*
X31445000Y-73118128D01*
X31445000Y-72677872D01*
X31359110Y-72246075D01*
X31190631Y-71839331D01*
X30946038Y-71473271D01*
X30634729Y-71161962D01*
X30268669Y-70917369D01*
X29861925Y-70748890D01*
X29430128Y-70663000D01*
X28989872Y-70663000D01*
X28558075Y-70748890D01*
X28151331Y-70917369D01*
X27785271Y-71161962D01*
X27473962Y-71473271D01*
X27229369Y-71839331D01*
X27060890Y-72246075D01*
X26975000Y-72677872D01*
X26060000Y-72677872D01*
X26060000Y-71596779D01*
X26098909Y-71199955D01*
X26204780Y-70849292D01*
X26376744Y-70525875D01*
X26608254Y-70242016D01*
X26890486Y-70008535D01*
X27212695Y-69834317D01*
X27562614Y-69725998D01*
X27957443Y-69684500D01*
X121887721Y-69684500D01*
X122284545Y-69723409D01*
G37*
G04 #@! TD.AperFunction*
D23*
X66452995Y-95731273D02*
X66347686Y-95985510D01*
X66294000Y-96255408D01*
X66294000Y-96530592D01*
X66347686Y-96800490D01*
X66452995Y-97054727D01*
X66605880Y-97283535D01*
X66800465Y-97478120D01*
X67029273Y-97631005D01*
X67283510Y-97736314D01*
X67553408Y-97790000D01*
X67828592Y-97790000D01*
X68098490Y-97736314D01*
X68352727Y-97631005D01*
X68581535Y-97478120D01*
X68776120Y-97283535D01*
X68929005Y-97054727D01*
X68961000Y-96977485D01*
X68992995Y-97054727D01*
X69145880Y-97283535D01*
X69340465Y-97478120D01*
X69569273Y-97631005D01*
X69823510Y-97736314D01*
X70093408Y-97790000D01*
X70368592Y-97790000D01*
X70522570Y-97759372D01*
X71254700Y-98491502D01*
X71278499Y-98520501D01*
X71307497Y-98544299D01*
X71394223Y-98615474D01*
X71513071Y-98679000D01*
X71526253Y-98686046D01*
X71669514Y-98729503D01*
X71781167Y-98740500D01*
X71781176Y-98740500D01*
X71818499Y-98744176D01*
X71855822Y-98740500D01*
X74043699Y-98740500D01*
X77344001Y-102040803D01*
X77344000Y-115591067D01*
X77226498Y-115687498D01*
X77103519Y-115837349D01*
X77060307Y-115773275D01*
X76887474Y-115601922D01*
X76684533Y-115467579D01*
X76459282Y-115375409D01*
X76421609Y-115371538D01*
X76231000Y-115496269D01*
X76231000Y-116713000D01*
X76251000Y-116713000D01*
X76251000Y-116967000D01*
X76231000Y-116967000D01*
X76231000Y-116987000D01*
X75977000Y-116987000D01*
X75977000Y-116967000D01*
X75957000Y-116967000D01*
X75957000Y-116713000D01*
X75977000Y-116713000D01*
X75977000Y-115496269D01*
X75786391Y-115371538D01*
X75748718Y-115375409D01*
X75523467Y-115467579D01*
X75320526Y-115601922D01*
X75147693Y-115773275D01*
X75104481Y-115837348D01*
X74981502Y-115687498D01*
X74793448Y-115533167D01*
X74578900Y-115418489D01*
X74346101Y-115347870D01*
X74104000Y-115324025D01*
X73861898Y-115347870D01*
X73629099Y-115418489D01*
X73414551Y-115533167D01*
X73226498Y-115687498D01*
X73104000Y-115836763D01*
X72981502Y-115687498D01*
X72793448Y-115533167D01*
X72578900Y-115418489D01*
X72346101Y-115347870D01*
X72104000Y-115324025D01*
X71861898Y-115347870D01*
X71638684Y-115415582D01*
X65814904Y-109591803D01*
X65791101Y-109562799D01*
X65675376Y-109467826D01*
X65543347Y-109397254D01*
X65400086Y-109353797D01*
X65288433Y-109342800D01*
X65288422Y-109342800D01*
X65251100Y-109339124D01*
X65213778Y-109342800D01*
X61252900Y-109342800D01*
X61252900Y-97749321D01*
X61457408Y-97790000D01*
X61732592Y-97790000D01*
X62002490Y-97736314D01*
X62256727Y-97631005D01*
X62485535Y-97478120D01*
X62680120Y-97283535D01*
X62833005Y-97054727D01*
X62865000Y-96977485D01*
X62896995Y-97054727D01*
X63049880Y-97283535D01*
X63244465Y-97478120D01*
X63473273Y-97631005D01*
X63727510Y-97736314D01*
X63997408Y-97790000D01*
X64272592Y-97790000D01*
X64542490Y-97736314D01*
X64796727Y-97631005D01*
X65025535Y-97478120D01*
X65220120Y-97283535D01*
X65373005Y-97054727D01*
X65478314Y-96800490D01*
X65532000Y-96530592D01*
X65532000Y-96255408D01*
X65501372Y-96101430D01*
X65888802Y-95714000D01*
X66464536Y-95714000D01*
X66452995Y-95731273D01*
G04 #@! TA.AperFunction,Conductor*
D24*
G36*
X66452995Y-95731273D02*
G01*
X66347686Y-95985510D01*
X66294000Y-96255408D01*
X66294000Y-96530592D01*
X66347686Y-96800490D01*
X66452995Y-97054727D01*
X66605880Y-97283535D01*
X66800465Y-97478120D01*
X67029273Y-97631005D01*
X67283510Y-97736314D01*
X67553408Y-97790000D01*
X67828592Y-97790000D01*
X68098490Y-97736314D01*
X68352727Y-97631005D01*
X68581535Y-97478120D01*
X68776120Y-97283535D01*
X68929005Y-97054727D01*
X68961000Y-96977485D01*
X68992995Y-97054727D01*
X69145880Y-97283535D01*
X69340465Y-97478120D01*
X69569273Y-97631005D01*
X69823510Y-97736314D01*
X70093408Y-97790000D01*
X70368592Y-97790000D01*
X70522570Y-97759372D01*
X71254700Y-98491502D01*
X71278499Y-98520501D01*
X71307497Y-98544299D01*
X71394223Y-98615474D01*
X71513071Y-98679000D01*
X71526253Y-98686046D01*
X71669514Y-98729503D01*
X71781167Y-98740500D01*
X71781176Y-98740500D01*
X71818499Y-98744176D01*
X71855822Y-98740500D01*
X74043699Y-98740500D01*
X77344001Y-102040803D01*
X77344000Y-115591067D01*
X77226498Y-115687498D01*
X77103519Y-115837349D01*
X77060307Y-115773275D01*
X76887474Y-115601922D01*
X76684533Y-115467579D01*
X76459282Y-115375409D01*
X76421609Y-115371538D01*
X76231000Y-115496269D01*
X76231000Y-116713000D01*
X76251000Y-116713000D01*
X76251000Y-116967000D01*
X76231000Y-116967000D01*
X76231000Y-116987000D01*
X75977000Y-116987000D01*
X75977000Y-116967000D01*
X75957000Y-116967000D01*
X75957000Y-116713000D01*
X75977000Y-116713000D01*
X75977000Y-115496269D01*
X75786391Y-115371538D01*
X75748718Y-115375409D01*
X75523467Y-115467579D01*
X75320526Y-115601922D01*
X75147693Y-115773275D01*
X75104481Y-115837348D01*
X74981502Y-115687498D01*
X74793448Y-115533167D01*
X74578900Y-115418489D01*
X74346101Y-115347870D01*
X74104000Y-115324025D01*
X73861898Y-115347870D01*
X73629099Y-115418489D01*
X73414551Y-115533167D01*
X73226498Y-115687498D01*
X73104000Y-115836763D01*
X72981502Y-115687498D01*
X72793448Y-115533167D01*
X72578900Y-115418489D01*
X72346101Y-115347870D01*
X72104000Y-115324025D01*
X71861898Y-115347870D01*
X71638684Y-115415582D01*
X65814904Y-109591803D01*
X65791101Y-109562799D01*
X65675376Y-109467826D01*
X65543347Y-109397254D01*
X65400086Y-109353797D01*
X65288433Y-109342800D01*
X65288422Y-109342800D01*
X65251100Y-109339124D01*
X65213778Y-109342800D01*
X61252900Y-109342800D01*
X61252900Y-97749321D01*
X61457408Y-97790000D01*
X61732592Y-97790000D01*
X62002490Y-97736314D01*
X62256727Y-97631005D01*
X62485535Y-97478120D01*
X62680120Y-97283535D01*
X62833005Y-97054727D01*
X62865000Y-96977485D01*
X62896995Y-97054727D01*
X63049880Y-97283535D01*
X63244465Y-97478120D01*
X63473273Y-97631005D01*
X63727510Y-97736314D01*
X63997408Y-97790000D01*
X64272592Y-97790000D01*
X64542490Y-97736314D01*
X64796727Y-97631005D01*
X65025535Y-97478120D01*
X65220120Y-97283535D01*
X65373005Y-97054727D01*
X65478314Y-96800490D01*
X65532000Y-96530592D01*
X65532000Y-96255408D01*
X65501372Y-96101430D01*
X65888802Y-95714000D01*
X66464536Y-95714000D01*
X66452995Y-95731273D01*
G37*
G04 #@! TD.AperFunction*
D23*
X89027000Y-109347000D02*
X89047000Y-109347000D01*
X89047000Y-109601000D01*
X89027000Y-109601000D01*
X89027000Y-111887000D01*
X89047000Y-111887000D01*
X89047000Y-112141000D01*
X89027000Y-112141000D01*
X89027000Y-112161000D01*
X88773000Y-112161000D01*
X88773000Y-112141000D01*
X88753000Y-112141000D01*
X88753000Y-111887000D01*
X88773000Y-111887000D01*
X88773000Y-109601000D01*
X88753000Y-109601000D01*
X88753000Y-109347000D01*
X88773000Y-109347000D01*
X88773000Y-109327000D01*
X89027000Y-109327000D01*
X89027000Y-109347000D01*
G04 #@! TA.AperFunction,Conductor*
D24*
G36*
X89027000Y-109347000D02*
G01*
X89047000Y-109347000D01*
X89047000Y-109601000D01*
X89027000Y-109601000D01*
X89027000Y-111887000D01*
X89047000Y-111887000D01*
X89047000Y-112141000D01*
X89027000Y-112141000D01*
X89027000Y-112161000D01*
X88773000Y-112161000D01*
X88773000Y-112141000D01*
X88753000Y-112141000D01*
X88753000Y-111887000D01*
X88773000Y-111887000D01*
X88773000Y-109601000D01*
X88753000Y-109601000D01*
X88753000Y-109347000D01*
X88773000Y-109347000D01*
X88773000Y-109327000D01*
X89027000Y-109327000D01*
X89027000Y-109347000D01*
G37*
G04 #@! TD.AperFunction*
D23*
X93639952Y-82502747D02*
X93783213Y-82546204D01*
X93894866Y-82557201D01*
X93894874Y-82557201D01*
X93932199Y-82560877D01*
X93969524Y-82557201D01*
X95607100Y-82557201D01*
X95607100Y-82635639D01*
X95608172Y-82641026D01*
X83222571Y-95026628D01*
X83068592Y-94996000D01*
X82793408Y-94996000D01*
X82523510Y-95049686D01*
X82269273Y-95154995D01*
X82040465Y-95307880D01*
X81845880Y-95502465D01*
X81692995Y-95731273D01*
X81663308Y-95802943D01*
X81658636Y-95789977D01*
X81596656Y-95674020D01*
X81356565Y-95607040D01*
X80570605Y-96393000D01*
X80584748Y-96407143D01*
X80405143Y-96586748D01*
X80391000Y-96572605D01*
X80376858Y-96586748D01*
X80197253Y-96407143D01*
X80211395Y-96393000D01*
X80197253Y-96378858D01*
X80376858Y-96199253D01*
X80391000Y-96213395D01*
X81176960Y-95427435D01*
X81109980Y-95187344D01*
X80860952Y-95070244D01*
X80593865Y-95003977D01*
X80318983Y-94991090D01*
X80046867Y-95032078D01*
X79787977Y-95125364D01*
X79672020Y-95187344D01*
X79605041Y-95427433D01*
X79488631Y-95311023D01*
X79457178Y-95342476D01*
X78862403Y-94747702D01*
X78838601Y-94718699D01*
X78722876Y-94623726D01*
X78590847Y-94553154D01*
X78447586Y-94509697D01*
X78335933Y-94498700D01*
X78335922Y-94498700D01*
X78298600Y-94495024D01*
X78261278Y-94498700D01*
X74747001Y-94498700D01*
X84519678Y-84726024D01*
X84568631Y-84774977D01*
X84685041Y-84658567D01*
X84752020Y-84898656D01*
X85001048Y-85015756D01*
X85268135Y-85082023D01*
X85543017Y-85094910D01*
X85815133Y-85053922D01*
X86074023Y-84960636D01*
X86189980Y-84898656D01*
X86256960Y-84658565D01*
X85471000Y-83872605D01*
X85456858Y-83886748D01*
X85277253Y-83707143D01*
X85291395Y-83693000D01*
X85277253Y-83678858D01*
X85456858Y-83499253D01*
X85471000Y-83513395D01*
X85485143Y-83499253D01*
X85664748Y-83678858D01*
X85650605Y-83693000D01*
X86436565Y-84478960D01*
X86676656Y-84411980D01*
X86696525Y-84369726D01*
X87863001Y-85536203D01*
X87886799Y-85565201D01*
X87915797Y-85588999D01*
X88002523Y-85660174D01*
X88134553Y-85730746D01*
X88277814Y-85774203D01*
X88389467Y-85785200D01*
X88389476Y-85785200D01*
X88426799Y-85788876D01*
X88464122Y-85785200D01*
X89781489Y-85785200D01*
X89825426Y-85829137D01*
X89994944Y-85942405D01*
X90183302Y-86020426D01*
X90383261Y-86060200D01*
X90587139Y-86060200D01*
X90787098Y-86020426D01*
X90975456Y-85942405D01*
X91144974Y-85829137D01*
X91289137Y-85684974D01*
X91402405Y-85515456D01*
X91480426Y-85327098D01*
X91520200Y-85127139D01*
X91520200Y-84923261D01*
X91480426Y-84723302D01*
X91407014Y-84546072D01*
X92925000Y-84546072D01*
X93049482Y-84533812D01*
X93169180Y-84497502D01*
X93279494Y-84438537D01*
X93376185Y-84359185D01*
X93455537Y-84262494D01*
X93514502Y-84152180D01*
X93550812Y-84032482D01*
X93563072Y-83908000D01*
X93563072Y-82461653D01*
X93639952Y-82502747D01*
G04 #@! TA.AperFunction,Conductor*
D24*
G36*
X93639952Y-82502747D02*
G01*
X93783213Y-82546204D01*
X93894866Y-82557201D01*
X93894874Y-82557201D01*
X93932199Y-82560877D01*
X93969524Y-82557201D01*
X95607100Y-82557201D01*
X95607100Y-82635639D01*
X95608172Y-82641026D01*
X83222571Y-95026628D01*
X83068592Y-94996000D01*
X82793408Y-94996000D01*
X82523510Y-95049686D01*
X82269273Y-95154995D01*
X82040465Y-95307880D01*
X81845880Y-95502465D01*
X81692995Y-95731273D01*
X81663308Y-95802943D01*
X81658636Y-95789977D01*
X81596656Y-95674020D01*
X81356565Y-95607040D01*
X80570605Y-96393000D01*
X80584748Y-96407143D01*
X80405143Y-96586748D01*
X80391000Y-96572605D01*
X80376858Y-96586748D01*
X80197253Y-96407143D01*
X80211395Y-96393000D01*
X80197253Y-96378858D01*
X80376858Y-96199253D01*
X80391000Y-96213395D01*
X81176960Y-95427435D01*
X81109980Y-95187344D01*
X80860952Y-95070244D01*
X80593865Y-95003977D01*
X80318983Y-94991090D01*
X80046867Y-95032078D01*
X79787977Y-95125364D01*
X79672020Y-95187344D01*
X79605041Y-95427433D01*
X79488631Y-95311023D01*
X79457178Y-95342476D01*
X78862403Y-94747702D01*
X78838601Y-94718699D01*
X78722876Y-94623726D01*
X78590847Y-94553154D01*
X78447586Y-94509697D01*
X78335933Y-94498700D01*
X78335922Y-94498700D01*
X78298600Y-94495024D01*
X78261278Y-94498700D01*
X74747001Y-94498700D01*
X84519678Y-84726024D01*
X84568631Y-84774977D01*
X84685041Y-84658567D01*
X84752020Y-84898656D01*
X85001048Y-85015756D01*
X85268135Y-85082023D01*
X85543017Y-85094910D01*
X85815133Y-85053922D01*
X86074023Y-84960636D01*
X86189980Y-84898656D01*
X86256960Y-84658565D01*
X85471000Y-83872605D01*
X85456858Y-83886748D01*
X85277253Y-83707143D01*
X85291395Y-83693000D01*
X85277253Y-83678858D01*
X85456858Y-83499253D01*
X85471000Y-83513395D01*
X85485143Y-83499253D01*
X85664748Y-83678858D01*
X85650605Y-83693000D01*
X86436565Y-84478960D01*
X86676656Y-84411980D01*
X86696525Y-84369726D01*
X87863001Y-85536203D01*
X87886799Y-85565201D01*
X87915797Y-85588999D01*
X88002523Y-85660174D01*
X88134553Y-85730746D01*
X88277814Y-85774203D01*
X88389467Y-85785200D01*
X88389476Y-85785200D01*
X88426799Y-85788876D01*
X88464122Y-85785200D01*
X89781489Y-85785200D01*
X89825426Y-85829137D01*
X89994944Y-85942405D01*
X90183302Y-86020426D01*
X90383261Y-86060200D01*
X90587139Y-86060200D01*
X90787098Y-86020426D01*
X90975456Y-85942405D01*
X91144974Y-85829137D01*
X91289137Y-85684974D01*
X91402405Y-85515456D01*
X91480426Y-85327098D01*
X91520200Y-85127139D01*
X91520200Y-84923261D01*
X91480426Y-84723302D01*
X91407014Y-84546072D01*
X92925000Y-84546072D01*
X93049482Y-84533812D01*
X93169180Y-84497502D01*
X93279494Y-84438537D01*
X93376185Y-84359185D01*
X93455537Y-84262494D01*
X93514502Y-84152180D01*
X93550812Y-84032482D01*
X93563072Y-83908000D01*
X93563072Y-82461653D01*
X93639952Y-82502747D01*
G37*
G04 #@! TD.AperFunction*
D23*
X68535800Y-76530200D02*
X68555800Y-76530200D01*
X68555800Y-76784200D01*
X68535800Y-76784200D01*
X68535800Y-78000931D01*
X68726409Y-78125662D01*
X68764082Y-78121791D01*
X68989333Y-78029621D01*
X69192274Y-77895278D01*
X69365107Y-77723925D01*
X69408319Y-77659851D01*
X69531298Y-77809702D01*
X69658081Y-77913750D01*
X69659798Y-77931186D01*
X69666567Y-77953500D01*
X69703254Y-78074446D01*
X69773826Y-78206476D01*
X69845001Y-78293202D01*
X69868800Y-78322201D01*
X69897798Y-78345999D01*
X72804100Y-81252302D01*
X72827899Y-81281301D01*
X72943624Y-81376274D01*
X73075653Y-81446846D01*
X73218914Y-81490303D01*
X73330567Y-81501300D01*
X73330576Y-81501300D01*
X73367899Y-81504976D01*
X73405222Y-81501300D01*
X77394198Y-81501300D01*
X76244577Y-82650922D01*
X76201535Y-82607880D01*
X75972727Y-82454995D01*
X75718490Y-82349686D01*
X75448592Y-82296000D01*
X75173408Y-82296000D01*
X74903510Y-82349686D01*
X74649273Y-82454995D01*
X74420465Y-82607880D01*
X74225880Y-82802465D01*
X74072995Y-83031273D01*
X74041000Y-83108515D01*
X74009005Y-83031273D01*
X73856120Y-82802465D01*
X73661535Y-82607880D01*
X73432727Y-82454995D01*
X73178490Y-82349686D01*
X72908592Y-82296000D01*
X72633408Y-82296000D01*
X72363510Y-82349686D01*
X72109273Y-82454995D01*
X71880465Y-82607880D01*
X71685880Y-82802465D01*
X71532995Y-83031273D01*
X71503308Y-83102943D01*
X71498636Y-83089977D01*
X71436656Y-82974020D01*
X71196565Y-82907040D01*
X70410605Y-83693000D01*
X70424748Y-83707143D01*
X70245143Y-83886748D01*
X70231000Y-83872605D01*
X69445040Y-84658565D01*
X69512020Y-84898656D01*
X69761048Y-85015756D01*
X70028135Y-85082023D01*
X70303017Y-85094910D01*
X70575133Y-85053922D01*
X70834023Y-84960636D01*
X70921907Y-84913662D01*
X61252900Y-94582669D01*
X61252900Y-85109901D01*
X61303429Y-85059372D01*
X61457408Y-85090000D01*
X61732592Y-85090000D01*
X62002490Y-85036314D01*
X62256727Y-84931005D01*
X62485535Y-84778120D01*
X62605090Y-84658565D01*
X63349040Y-84658565D01*
X63416020Y-84898656D01*
X63665048Y-85015756D01*
X63932135Y-85082023D01*
X64207017Y-85094910D01*
X64479133Y-85053922D01*
X64738023Y-84960636D01*
X64853980Y-84898656D01*
X64920960Y-84658565D01*
X64135000Y-83872605D01*
X63349040Y-84658565D01*
X62605090Y-84658565D01*
X62680120Y-84583535D01*
X62833005Y-84354727D01*
X62862692Y-84283057D01*
X62867364Y-84296023D01*
X62929344Y-84411980D01*
X63169435Y-84478960D01*
X63955395Y-83693000D01*
X64314605Y-83693000D01*
X65100565Y-84478960D01*
X65340656Y-84411980D01*
X65457756Y-84162952D01*
X65524023Y-83895865D01*
X65536910Y-83620983D01*
X65527033Y-83555408D01*
X66294000Y-83555408D01*
X66294000Y-83830592D01*
X66347686Y-84100490D01*
X66452995Y-84354727D01*
X66605880Y-84583535D01*
X66800465Y-84778120D01*
X67029273Y-84931005D01*
X67283510Y-85036314D01*
X67553408Y-85090000D01*
X67828592Y-85090000D01*
X68098490Y-85036314D01*
X68352727Y-84931005D01*
X68581535Y-84778120D01*
X68776120Y-84583535D01*
X68929005Y-84354727D01*
X68958692Y-84283057D01*
X68963364Y-84296023D01*
X69025344Y-84411980D01*
X69265435Y-84478960D01*
X70051395Y-83693000D01*
X69265435Y-82907040D01*
X69025344Y-82974020D01*
X68961515Y-83109760D01*
X68929005Y-83031273D01*
X68776120Y-82802465D01*
X68701090Y-82727435D01*
X69445040Y-82727435D01*
X70231000Y-83513395D01*
X71016960Y-82727435D01*
X70949980Y-82487344D01*
X70700952Y-82370244D01*
X70433865Y-82303977D01*
X70158983Y-82291090D01*
X69886867Y-82332078D01*
X69627977Y-82425364D01*
X69512020Y-82487344D01*
X69445040Y-82727435D01*
X68701090Y-82727435D01*
X68581535Y-82607880D01*
X68352727Y-82454995D01*
X68098490Y-82349686D01*
X67828592Y-82296000D01*
X67553408Y-82296000D01*
X67283510Y-82349686D01*
X67029273Y-82454995D01*
X66800465Y-82607880D01*
X66605880Y-82802465D01*
X66452995Y-83031273D01*
X66347686Y-83285510D01*
X66294000Y-83555408D01*
X65527033Y-83555408D01*
X65495922Y-83348867D01*
X65402636Y-83089977D01*
X65340656Y-82974020D01*
X65100565Y-82907040D01*
X64314605Y-83693000D01*
X63955395Y-83693000D01*
X63169435Y-82907040D01*
X62929344Y-82974020D01*
X62865515Y-83109760D01*
X62833005Y-83031273D01*
X62680120Y-82802465D01*
X62605090Y-82727435D01*
X63349040Y-82727435D01*
X64135000Y-83513395D01*
X64920960Y-82727435D01*
X64853980Y-82487344D01*
X64604952Y-82370244D01*
X64337865Y-82303977D01*
X64062983Y-82291090D01*
X63790867Y-82332078D01*
X63531977Y-82425364D01*
X63416020Y-82487344D01*
X63349040Y-82727435D01*
X62605090Y-82727435D01*
X62485535Y-82607880D01*
X62256727Y-82454995D01*
X62147464Y-82409737D01*
X67233296Y-77323906D01*
X67316410Y-77522146D01*
X67452493Y-77723925D01*
X67625326Y-77895278D01*
X67828267Y-78029621D01*
X68053518Y-78121791D01*
X68091191Y-78125662D01*
X68281800Y-78000931D01*
X68281800Y-76784200D01*
X68261800Y-76784200D01*
X68261800Y-76530200D01*
X68281800Y-76530200D01*
X68281800Y-76510200D01*
X68535800Y-76510200D01*
X68535800Y-76530200D01*
G04 #@! TA.AperFunction,Conductor*
D24*
G36*
X68535800Y-76530200D02*
G01*
X68555800Y-76530200D01*
X68555800Y-76784200D01*
X68535800Y-76784200D01*
X68535800Y-78000931D01*
X68726409Y-78125662D01*
X68764082Y-78121791D01*
X68989333Y-78029621D01*
X69192274Y-77895278D01*
X69365107Y-77723925D01*
X69408319Y-77659851D01*
X69531298Y-77809702D01*
X69658081Y-77913750D01*
X69659798Y-77931186D01*
X69666567Y-77953500D01*
X69703254Y-78074446D01*
X69773826Y-78206476D01*
X69845001Y-78293202D01*
X69868800Y-78322201D01*
X69897798Y-78345999D01*
X72804100Y-81252302D01*
X72827899Y-81281301D01*
X72943624Y-81376274D01*
X73075653Y-81446846D01*
X73218914Y-81490303D01*
X73330567Y-81501300D01*
X73330576Y-81501300D01*
X73367899Y-81504976D01*
X73405222Y-81501300D01*
X77394198Y-81501300D01*
X76244577Y-82650922D01*
X76201535Y-82607880D01*
X75972727Y-82454995D01*
X75718490Y-82349686D01*
X75448592Y-82296000D01*
X75173408Y-82296000D01*
X74903510Y-82349686D01*
X74649273Y-82454995D01*
X74420465Y-82607880D01*
X74225880Y-82802465D01*
X74072995Y-83031273D01*
X74041000Y-83108515D01*
X74009005Y-83031273D01*
X73856120Y-82802465D01*
X73661535Y-82607880D01*
X73432727Y-82454995D01*
X73178490Y-82349686D01*
X72908592Y-82296000D01*
X72633408Y-82296000D01*
X72363510Y-82349686D01*
X72109273Y-82454995D01*
X71880465Y-82607880D01*
X71685880Y-82802465D01*
X71532995Y-83031273D01*
X71503308Y-83102943D01*
X71498636Y-83089977D01*
X71436656Y-82974020D01*
X71196565Y-82907040D01*
X70410605Y-83693000D01*
X70424748Y-83707143D01*
X70245143Y-83886748D01*
X70231000Y-83872605D01*
X69445040Y-84658565D01*
X69512020Y-84898656D01*
X69761048Y-85015756D01*
X70028135Y-85082023D01*
X70303017Y-85094910D01*
X70575133Y-85053922D01*
X70834023Y-84960636D01*
X70921907Y-84913662D01*
X61252900Y-94582669D01*
X61252900Y-85109901D01*
X61303429Y-85059372D01*
X61457408Y-85090000D01*
X61732592Y-85090000D01*
X62002490Y-85036314D01*
X62256727Y-84931005D01*
X62485535Y-84778120D01*
X62605090Y-84658565D01*
X63349040Y-84658565D01*
X63416020Y-84898656D01*
X63665048Y-85015756D01*
X63932135Y-85082023D01*
X64207017Y-85094910D01*
X64479133Y-85053922D01*
X64738023Y-84960636D01*
X64853980Y-84898656D01*
X64920960Y-84658565D01*
X64135000Y-83872605D01*
X63349040Y-84658565D01*
X62605090Y-84658565D01*
X62680120Y-84583535D01*
X62833005Y-84354727D01*
X62862692Y-84283057D01*
X62867364Y-84296023D01*
X62929344Y-84411980D01*
X63169435Y-84478960D01*
X63955395Y-83693000D01*
X64314605Y-83693000D01*
X65100565Y-84478960D01*
X65340656Y-84411980D01*
X65457756Y-84162952D01*
X65524023Y-83895865D01*
X65536910Y-83620983D01*
X65527033Y-83555408D01*
X66294000Y-83555408D01*
X66294000Y-83830592D01*
X66347686Y-84100490D01*
X66452995Y-84354727D01*
X66605880Y-84583535D01*
X66800465Y-84778120D01*
X67029273Y-84931005D01*
X67283510Y-85036314D01*
X67553408Y-85090000D01*
X67828592Y-85090000D01*
X68098490Y-85036314D01*
X68352727Y-84931005D01*
X68581535Y-84778120D01*
X68776120Y-84583535D01*
X68929005Y-84354727D01*
X68958692Y-84283057D01*
X68963364Y-84296023D01*
X69025344Y-84411980D01*
X69265435Y-84478960D01*
X70051395Y-83693000D01*
X69265435Y-82907040D01*
X69025344Y-82974020D01*
X68961515Y-83109760D01*
X68929005Y-83031273D01*
X68776120Y-82802465D01*
X68701090Y-82727435D01*
X69445040Y-82727435D01*
X70231000Y-83513395D01*
X71016960Y-82727435D01*
X70949980Y-82487344D01*
X70700952Y-82370244D01*
X70433865Y-82303977D01*
X70158983Y-82291090D01*
X69886867Y-82332078D01*
X69627977Y-82425364D01*
X69512020Y-82487344D01*
X69445040Y-82727435D01*
X68701090Y-82727435D01*
X68581535Y-82607880D01*
X68352727Y-82454995D01*
X68098490Y-82349686D01*
X67828592Y-82296000D01*
X67553408Y-82296000D01*
X67283510Y-82349686D01*
X67029273Y-82454995D01*
X66800465Y-82607880D01*
X66605880Y-82802465D01*
X66452995Y-83031273D01*
X66347686Y-83285510D01*
X66294000Y-83555408D01*
X65527033Y-83555408D01*
X65495922Y-83348867D01*
X65402636Y-83089977D01*
X65340656Y-82974020D01*
X65100565Y-82907040D01*
X64314605Y-83693000D01*
X63955395Y-83693000D01*
X63169435Y-82907040D01*
X62929344Y-82974020D01*
X62865515Y-83109760D01*
X62833005Y-83031273D01*
X62680120Y-82802465D01*
X62605090Y-82727435D01*
X63349040Y-82727435D01*
X64135000Y-83513395D01*
X64920960Y-82727435D01*
X64853980Y-82487344D01*
X64604952Y-82370244D01*
X64337865Y-82303977D01*
X64062983Y-82291090D01*
X63790867Y-82332078D01*
X63531977Y-82425364D01*
X63416020Y-82487344D01*
X63349040Y-82727435D01*
X62605090Y-82727435D01*
X62485535Y-82607880D01*
X62256727Y-82454995D01*
X62147464Y-82409737D01*
X67233296Y-77323906D01*
X67316410Y-77522146D01*
X67452493Y-77723925D01*
X67625326Y-77895278D01*
X67828267Y-78029621D01*
X68053518Y-78121791D01*
X68091191Y-78125662D01*
X68281800Y-78000931D01*
X68281800Y-76784200D01*
X68261800Y-76784200D01*
X68261800Y-76530200D01*
X68281800Y-76530200D01*
X68281800Y-76510200D01*
X68535800Y-76510200D01*
X68535800Y-76530200D01*
G37*
G04 #@! TD.AperFunction*
M02*
