G04 #@! TF.GenerationSoftware,KiCad,Pcbnew,(5.1.10)-1*
G04 #@! TF.CreationDate,2022-02-17T21:35:18+00:00*
G04 #@! TF.ProjectId,ESP32_Plotter_Controller_revB1,45535033-325f-4506-9c6f-747465725f43,rev?*
G04 #@! TF.SameCoordinates,Original*
G04 #@! TF.FileFunction,Legend,Bot*
G04 #@! TF.FilePolarity,Positive*
%FSLAX46Y46*%
G04 Gerber Fmt 4.6, Leading zero omitted, Abs format (unit mm)*
G04 Created by KiCad (PCBNEW (5.1.10)-1) date 2022-02-17 21:35:18*
%MOMM*%
%LPD*%
G01*
G04 APERTURE LIST*
%ADD10C,0.200000*%
%ADD11C,0.010000*%
%ADD12O,1.200000X1.750000*%
%ADD13O,2.100000X1.000000*%
%ADD14C,0.650000*%
%ADD15O,1.600000X1.000000*%
%ADD16R,3.500000X3.500000*%
%ADD17C,1.524000*%
%ADD18C,3.200000*%
%ADD19O,1.700000X1.700000*%
%ADD20R,1.700000X1.700000*%
%ADD21O,1.750000X1.200000*%
%ADD22C,1.000000*%
G04 APERTURE END LIST*
D10*
X80645714Y-72767857D02*
X80645714Y-73739285D01*
X80702857Y-73853571D01*
X80760000Y-73910714D01*
X80874285Y-73967857D01*
X81045714Y-73967857D01*
X81160000Y-73910714D01*
X80645714Y-73510714D02*
X80760000Y-73567857D01*
X80988571Y-73567857D01*
X81102857Y-73510714D01*
X81160000Y-73453571D01*
X81217142Y-73339285D01*
X81217142Y-72996428D01*
X81160000Y-72882142D01*
X81102857Y-72825000D01*
X80988571Y-72767857D01*
X80760000Y-72767857D01*
X80645714Y-72825000D01*
X80074285Y-73567857D02*
X80074285Y-72767857D01*
X80074285Y-72367857D02*
X80131428Y-72425000D01*
X80074285Y-72482142D01*
X80017142Y-72425000D01*
X80074285Y-72367857D01*
X80074285Y-72482142D01*
X79674285Y-72767857D02*
X79217142Y-72767857D01*
X79502857Y-72367857D02*
X79502857Y-73396428D01*
X79445714Y-73510714D01*
X79331428Y-73567857D01*
X79217142Y-73567857D01*
X78817142Y-73567857D02*
X78817142Y-72367857D01*
X78302857Y-73567857D02*
X78302857Y-72939285D01*
X78360000Y-72825000D01*
X78474285Y-72767857D01*
X78645714Y-72767857D01*
X78760000Y-72825000D01*
X78817142Y-72882142D01*
X77217142Y-72767857D02*
X77217142Y-73567857D01*
X77731428Y-72767857D02*
X77731428Y-73396428D01*
X77674285Y-73510714D01*
X77560000Y-73567857D01*
X77388571Y-73567857D01*
X77274285Y-73510714D01*
X77217142Y-73453571D01*
X76645714Y-73567857D02*
X76645714Y-72367857D01*
X76645714Y-72825000D02*
X76531428Y-72767857D01*
X76302857Y-72767857D01*
X76188571Y-72825000D01*
X76131428Y-72882142D01*
X76074285Y-72996428D01*
X76074285Y-73339285D01*
X76131428Y-73453571D01*
X76188571Y-73510714D01*
X76302857Y-73567857D01*
X76531428Y-73567857D01*
X76645714Y-73510714D01*
X75560000Y-73453571D02*
X75502857Y-73510714D01*
X75560000Y-73567857D01*
X75617142Y-73510714D01*
X75560000Y-73453571D01*
X75560000Y-73567857D01*
X74474285Y-73510714D02*
X74588571Y-73567857D01*
X74817142Y-73567857D01*
X74931428Y-73510714D01*
X74988571Y-73453571D01*
X75045714Y-73339285D01*
X75045714Y-72996428D01*
X74988571Y-72882142D01*
X74931428Y-72825000D01*
X74817142Y-72767857D01*
X74588571Y-72767857D01*
X74474285Y-72825000D01*
X73788571Y-73567857D02*
X73902857Y-73510714D01*
X73960000Y-73453571D01*
X74017142Y-73339285D01*
X74017142Y-72996428D01*
X73960000Y-72882142D01*
X73902857Y-72825000D01*
X73788571Y-72767857D01*
X73617142Y-72767857D01*
X73502857Y-72825000D01*
X73445714Y-72882142D01*
X73388571Y-72996428D01*
X73388571Y-73339285D01*
X73445714Y-73453571D01*
X73502857Y-73510714D01*
X73617142Y-73567857D01*
X73788571Y-73567857D01*
X72874285Y-73567857D02*
X72874285Y-72767857D01*
X72874285Y-72882142D02*
X72817142Y-72825000D01*
X72702857Y-72767857D01*
X72531428Y-72767857D01*
X72417142Y-72825000D01*
X72360000Y-72939285D01*
X72360000Y-73567857D01*
X72360000Y-72939285D02*
X72302857Y-72825000D01*
X72188571Y-72767857D01*
X72017142Y-72767857D01*
X71902857Y-72825000D01*
X71845714Y-72939285D01*
X71845714Y-73567857D01*
X70417142Y-72310714D02*
X71445714Y-73853571D01*
X70017142Y-73567857D02*
X70017142Y-72767857D01*
X70017142Y-72882142D02*
X69960000Y-72825000D01*
X69845714Y-72767857D01*
X69674285Y-72767857D01*
X69560000Y-72825000D01*
X69502857Y-72939285D01*
X69502857Y-73567857D01*
X69502857Y-72939285D02*
X69445714Y-72825000D01*
X69331428Y-72767857D01*
X69160000Y-72767857D01*
X69045714Y-72825000D01*
X68988571Y-72939285D01*
X68988571Y-73567857D01*
X67902857Y-73567857D02*
X67902857Y-72939285D01*
X67960000Y-72825000D01*
X68074285Y-72767857D01*
X68302857Y-72767857D01*
X68417142Y-72825000D01*
X67902857Y-73510714D02*
X68017142Y-73567857D01*
X68302857Y-73567857D01*
X68417142Y-73510714D01*
X68474285Y-73396428D01*
X68474285Y-73282142D01*
X68417142Y-73167857D01*
X68302857Y-73110714D01*
X68017142Y-73110714D01*
X67902857Y-73053571D01*
X67331428Y-73567857D02*
X67331428Y-72767857D01*
X67331428Y-72996428D02*
X67274285Y-72882142D01*
X67217142Y-72825000D01*
X67102857Y-72767857D01*
X66988571Y-72767857D01*
X66588571Y-73567857D02*
X66588571Y-72367857D01*
X66474285Y-73110714D02*
X66131428Y-73567857D01*
X66131428Y-72767857D02*
X66588571Y-73225000D01*
X65617142Y-72767857D02*
X65617142Y-73796428D01*
X65674285Y-73910714D01*
X65788571Y-73967857D01*
X65845714Y-73967857D01*
X65617142Y-72367857D02*
X65674285Y-72425000D01*
X65617142Y-72482142D01*
X65560000Y-72425000D01*
X65617142Y-72367857D01*
X65617142Y-72482142D01*
X65045714Y-73567857D02*
X65045714Y-72367857D01*
X65045714Y-72825000D02*
X64931428Y-72767857D01*
X64702857Y-72767857D01*
X64588571Y-72825000D01*
X64531428Y-72882142D01*
X64474285Y-72996428D01*
X64474285Y-73339285D01*
X64531428Y-73453571D01*
X64588571Y-73510714D01*
X64702857Y-73567857D01*
X64931428Y-73567857D01*
X65045714Y-73510714D01*
X63102857Y-72310714D02*
X64131428Y-73853571D01*
X62702857Y-72939285D02*
X62302857Y-72939285D01*
X62131428Y-73567857D02*
X62702857Y-73567857D01*
X62702857Y-72367857D01*
X62131428Y-72367857D01*
X61674285Y-73510714D02*
X61502857Y-73567857D01*
X61217142Y-73567857D01*
X61102857Y-73510714D01*
X61045714Y-73453571D01*
X60988571Y-73339285D01*
X60988571Y-73225000D01*
X61045714Y-73110714D01*
X61102857Y-73053571D01*
X61217142Y-72996428D01*
X61445714Y-72939285D01*
X61560000Y-72882142D01*
X61617142Y-72825000D01*
X61674285Y-72710714D01*
X61674285Y-72596428D01*
X61617142Y-72482142D01*
X61560000Y-72425000D01*
X61445714Y-72367857D01*
X61160000Y-72367857D01*
X60988571Y-72425000D01*
X60474285Y-73567857D02*
X60474285Y-72367857D01*
X60017142Y-72367857D01*
X59902857Y-72425000D01*
X59845714Y-72482142D01*
X59788571Y-72596428D01*
X59788571Y-72767857D01*
X59845714Y-72882142D01*
X59902857Y-72939285D01*
X60017142Y-72996428D01*
X60474285Y-72996428D01*
X59388571Y-72367857D02*
X58645714Y-72367857D01*
X59045714Y-72825000D01*
X58874285Y-72825000D01*
X58760000Y-72882142D01*
X58702857Y-72939285D01*
X58645714Y-73053571D01*
X58645714Y-73339285D01*
X58702857Y-73453571D01*
X58760000Y-73510714D01*
X58874285Y-73567857D01*
X59217142Y-73567857D01*
X59331428Y-73510714D01*
X59388571Y-73453571D01*
X58188571Y-72482142D02*
X58131428Y-72425000D01*
X58017142Y-72367857D01*
X57731428Y-72367857D01*
X57617142Y-72425000D01*
X57560000Y-72482142D01*
X57502857Y-72596428D01*
X57502857Y-72710714D01*
X57560000Y-72882142D01*
X58245714Y-73567857D01*
X57502857Y-73567857D01*
X57274285Y-73682142D02*
X56360000Y-73682142D01*
X56074285Y-73567857D02*
X56074285Y-72367857D01*
X55617142Y-72367857D01*
X55502857Y-72425000D01*
X55445714Y-72482142D01*
X55388571Y-72596428D01*
X55388571Y-72767857D01*
X55445714Y-72882142D01*
X55502857Y-72939285D01*
X55617142Y-72996428D01*
X56074285Y-72996428D01*
X54702857Y-73567857D02*
X54817142Y-73510714D01*
X54874285Y-73396428D01*
X54874285Y-72367857D01*
X54074285Y-73567857D02*
X54188571Y-73510714D01*
X54245714Y-73453571D01*
X54302857Y-73339285D01*
X54302857Y-72996428D01*
X54245714Y-72882142D01*
X54188571Y-72825000D01*
X54074285Y-72767857D01*
X53902857Y-72767857D01*
X53788571Y-72825000D01*
X53731428Y-72882142D01*
X53674285Y-72996428D01*
X53674285Y-73339285D01*
X53731428Y-73453571D01*
X53788571Y-73510714D01*
X53902857Y-73567857D01*
X54074285Y-73567857D01*
X53331428Y-72767857D02*
X52874285Y-72767857D01*
X53160000Y-72367857D02*
X53160000Y-73396428D01*
X53102857Y-73510714D01*
X52988571Y-73567857D01*
X52874285Y-73567857D01*
X52645714Y-72767857D02*
X52188571Y-72767857D01*
X52474285Y-72367857D02*
X52474285Y-73396428D01*
X52417142Y-73510714D01*
X52302857Y-73567857D01*
X52188571Y-73567857D01*
X51331428Y-73510714D02*
X51445714Y-73567857D01*
X51674285Y-73567857D01*
X51788571Y-73510714D01*
X51845714Y-73396428D01*
X51845714Y-72939285D01*
X51788571Y-72825000D01*
X51674285Y-72767857D01*
X51445714Y-72767857D01*
X51331428Y-72825000D01*
X51274285Y-72939285D01*
X51274285Y-73053571D01*
X51845714Y-73167857D01*
X50760000Y-73567857D02*
X50760000Y-72767857D01*
X50760000Y-72996428D02*
X50702857Y-72882142D01*
X50645714Y-72825000D01*
X50531428Y-72767857D01*
X50417142Y-72767857D01*
X50302857Y-73682142D02*
X49388571Y-73682142D01*
X48417142Y-73453571D02*
X48474285Y-73510714D01*
X48645714Y-73567857D01*
X48760000Y-73567857D01*
X48931428Y-73510714D01*
X49045714Y-73396428D01*
X49102857Y-73282142D01*
X49160000Y-73053571D01*
X49160000Y-72882142D01*
X49102857Y-72653571D01*
X49045714Y-72539285D01*
X48931428Y-72425000D01*
X48760000Y-72367857D01*
X48645714Y-72367857D01*
X48474285Y-72425000D01*
X48417142Y-72482142D01*
X47731428Y-73567857D02*
X47845714Y-73510714D01*
X47902857Y-73453571D01*
X47960000Y-73339285D01*
X47960000Y-72996428D01*
X47902857Y-72882142D01*
X47845714Y-72825000D01*
X47731428Y-72767857D01*
X47560000Y-72767857D01*
X47445714Y-72825000D01*
X47388571Y-72882142D01*
X47331428Y-72996428D01*
X47331428Y-73339285D01*
X47388571Y-73453571D01*
X47445714Y-73510714D01*
X47560000Y-73567857D01*
X47731428Y-73567857D01*
X46817142Y-72767857D02*
X46817142Y-73567857D01*
X46817142Y-72882142D02*
X46760000Y-72825000D01*
X46645714Y-72767857D01*
X46474285Y-72767857D01*
X46360000Y-72825000D01*
X46302857Y-72939285D01*
X46302857Y-73567857D01*
X45902857Y-72767857D02*
X45445714Y-72767857D01*
X45731428Y-72367857D02*
X45731428Y-73396428D01*
X45674285Y-73510714D01*
X45560000Y-73567857D01*
X45445714Y-73567857D01*
X45045714Y-73567857D02*
X45045714Y-72767857D01*
X45045714Y-72996428D02*
X44988571Y-72882142D01*
X44931428Y-72825000D01*
X44817142Y-72767857D01*
X44702857Y-72767857D01*
X44131428Y-73567857D02*
X44245714Y-73510714D01*
X44302857Y-73453571D01*
X44360000Y-73339285D01*
X44360000Y-72996428D01*
X44302857Y-72882142D01*
X44245714Y-72825000D01*
X44131428Y-72767857D01*
X43960000Y-72767857D01*
X43845714Y-72825000D01*
X43788571Y-72882142D01*
X43731428Y-72996428D01*
X43731428Y-73339285D01*
X43788571Y-73453571D01*
X43845714Y-73510714D01*
X43960000Y-73567857D01*
X44131428Y-73567857D01*
X43045714Y-73567857D02*
X43160000Y-73510714D01*
X43217142Y-73396428D01*
X43217142Y-72367857D01*
X42417142Y-73567857D02*
X42531428Y-73510714D01*
X42588571Y-73396428D01*
X42588571Y-72367857D01*
X41502857Y-73510714D02*
X41617142Y-73567857D01*
X41845714Y-73567857D01*
X41960000Y-73510714D01*
X42017142Y-73396428D01*
X42017142Y-72939285D01*
X41960000Y-72825000D01*
X41845714Y-72767857D01*
X41617142Y-72767857D01*
X41502857Y-72825000D01*
X41445714Y-72939285D01*
X41445714Y-73053571D01*
X42017142Y-73167857D01*
X40931428Y-73567857D02*
X40931428Y-72767857D01*
X40931428Y-72996428D02*
X40874285Y-72882142D01*
X40817142Y-72825000D01*
X40702857Y-72767857D01*
X40588571Y-72767857D01*
X84245714Y-119097642D02*
X83579047Y-119097642D01*
X83293333Y-120145261D02*
X84245714Y-120145261D01*
X84245714Y-118145261D01*
X83293333Y-118145261D01*
X82531428Y-120050023D02*
X82245714Y-120145261D01*
X81769523Y-120145261D01*
X81579047Y-120050023D01*
X81483809Y-119954785D01*
X81388571Y-119764309D01*
X81388571Y-119573833D01*
X81483809Y-119383357D01*
X81579047Y-119288119D01*
X81769523Y-119192880D01*
X82150476Y-119097642D01*
X82340952Y-119002404D01*
X82436190Y-118907166D01*
X82531428Y-118716690D01*
X82531428Y-118526214D01*
X82436190Y-118335738D01*
X82340952Y-118240500D01*
X82150476Y-118145261D01*
X81674285Y-118145261D01*
X81388571Y-118240500D01*
X80531428Y-120145261D02*
X80531428Y-118145261D01*
X79769523Y-118145261D01*
X79579047Y-118240500D01*
X79483809Y-118335738D01*
X79388571Y-118526214D01*
X79388571Y-118811928D01*
X79483809Y-119002404D01*
X79579047Y-119097642D01*
X79769523Y-119192880D01*
X80531428Y-119192880D01*
X78721904Y-118145261D02*
X77483809Y-118145261D01*
X78150476Y-118907166D01*
X77864761Y-118907166D01*
X77674285Y-119002404D01*
X77579047Y-119097642D01*
X77483809Y-119288119D01*
X77483809Y-119764309D01*
X77579047Y-119954785D01*
X77674285Y-120050023D01*
X77864761Y-120145261D01*
X78436190Y-120145261D01*
X78626666Y-120050023D01*
X78721904Y-119954785D01*
X76721904Y-118335738D02*
X76626666Y-118240500D01*
X76436190Y-118145261D01*
X75960000Y-118145261D01*
X75769523Y-118240500D01*
X75674285Y-118335738D01*
X75579047Y-118526214D01*
X75579047Y-118716690D01*
X75674285Y-119002404D01*
X76817142Y-120145261D01*
X75579047Y-120145261D01*
X72626666Y-120907166D02*
X72721904Y-120811928D01*
X72912380Y-120526214D01*
X73007619Y-120335738D01*
X73102857Y-120050023D01*
X73198095Y-119573833D01*
X73198095Y-119192880D01*
X73102857Y-118716690D01*
X73007619Y-118430976D01*
X72912380Y-118240500D01*
X72721904Y-117954785D01*
X72626666Y-117859547D01*
X72150476Y-118145261D02*
X71007619Y-118145261D01*
X71579047Y-120145261D02*
X71579047Y-118145261D01*
X70340952Y-120145261D02*
X70340952Y-118145261D01*
X69674285Y-119573833D01*
X69007619Y-118145261D01*
X69007619Y-120145261D01*
X66912380Y-119954785D02*
X67007619Y-120050023D01*
X67293333Y-120145261D01*
X67483809Y-120145261D01*
X67769523Y-120050023D01*
X67960000Y-119859547D01*
X68055238Y-119669071D01*
X68150476Y-119288119D01*
X68150476Y-119002404D01*
X68055238Y-118621452D01*
X67960000Y-118430976D01*
X67769523Y-118240500D01*
X67483809Y-118145261D01*
X67293333Y-118145261D01*
X67007619Y-118240500D01*
X66912380Y-118335738D01*
X66245714Y-120907166D02*
X66150476Y-120811928D01*
X65960000Y-120526214D01*
X65864761Y-120335738D01*
X65769523Y-120050023D01*
X65674285Y-119573833D01*
X65674285Y-119192880D01*
X65769523Y-118716690D01*
X65864761Y-118430976D01*
X65960000Y-118240500D01*
X66150476Y-117954785D01*
X66245714Y-117859547D01*
X63198095Y-120145261D02*
X63198095Y-118145261D01*
X62436190Y-118145261D01*
X62245714Y-118240500D01*
X62150476Y-118335738D01*
X62055238Y-118526214D01*
X62055238Y-118811928D01*
X62150476Y-119002404D01*
X62245714Y-119097642D01*
X62436190Y-119192880D01*
X63198095Y-119192880D01*
X60912380Y-120145261D02*
X61102857Y-120050023D01*
X61198095Y-119859547D01*
X61198095Y-118145261D01*
X59864761Y-120145261D02*
X60055238Y-120050023D01*
X60150476Y-119954785D01*
X60245714Y-119764309D01*
X60245714Y-119192880D01*
X60150476Y-119002404D01*
X60055238Y-118907166D01*
X59864761Y-118811928D01*
X59579047Y-118811928D01*
X59388571Y-118907166D01*
X59293333Y-119002404D01*
X59198095Y-119192880D01*
X59198095Y-119764309D01*
X59293333Y-119954785D01*
X59388571Y-120050023D01*
X59579047Y-120145261D01*
X59864761Y-120145261D01*
X58626666Y-118811928D02*
X57864761Y-118811928D01*
X58340952Y-118145261D02*
X58340952Y-119859547D01*
X58245714Y-120050023D01*
X58055238Y-120145261D01*
X57864761Y-120145261D01*
X57483809Y-118811928D02*
X56721904Y-118811928D01*
X57198095Y-118145261D02*
X57198095Y-119859547D01*
X57102857Y-120050023D01*
X56912380Y-120145261D01*
X56721904Y-120145261D01*
X55293333Y-120050023D02*
X55483809Y-120145261D01*
X55864761Y-120145261D01*
X56055238Y-120050023D01*
X56150476Y-119859547D01*
X56150476Y-119097642D01*
X56055238Y-118907166D01*
X55864761Y-118811928D01*
X55483809Y-118811928D01*
X55293333Y-118907166D01*
X55198095Y-119097642D01*
X55198095Y-119288119D01*
X56150476Y-119478595D01*
X54340952Y-120145261D02*
X54340952Y-118811928D01*
X54340952Y-119192880D02*
X54245714Y-119002404D01*
X54150476Y-118907166D01*
X53960000Y-118811928D01*
X53769523Y-118811928D01*
X50436190Y-119954785D02*
X50531428Y-120050023D01*
X50817142Y-120145261D01*
X51007619Y-120145261D01*
X51293333Y-120050023D01*
X51483809Y-119859547D01*
X51579047Y-119669071D01*
X51674285Y-119288119D01*
X51674285Y-119002404D01*
X51579047Y-118621452D01*
X51483809Y-118430976D01*
X51293333Y-118240500D01*
X51007619Y-118145261D01*
X50817142Y-118145261D01*
X50531428Y-118240500D01*
X50436190Y-118335738D01*
X49293333Y-120145261D02*
X49483809Y-120050023D01*
X49579047Y-119954785D01*
X49674285Y-119764309D01*
X49674285Y-119192880D01*
X49579047Y-119002404D01*
X49483809Y-118907166D01*
X49293333Y-118811928D01*
X49007619Y-118811928D01*
X48817142Y-118907166D01*
X48721904Y-119002404D01*
X48626666Y-119192880D01*
X48626666Y-119764309D01*
X48721904Y-119954785D01*
X48817142Y-120050023D01*
X49007619Y-120145261D01*
X49293333Y-120145261D01*
X47769523Y-118811928D02*
X47769523Y-120145261D01*
X47769523Y-119002404D02*
X47674285Y-118907166D01*
X47483809Y-118811928D01*
X47198095Y-118811928D01*
X47007619Y-118907166D01*
X46912380Y-119097642D01*
X46912380Y-120145261D01*
X46245714Y-118811928D02*
X45483809Y-118811928D01*
X45960000Y-118145261D02*
X45960000Y-119859547D01*
X45864761Y-120050023D01*
X45674285Y-120145261D01*
X45483809Y-120145261D01*
X44817142Y-120145261D02*
X44817142Y-118811928D01*
X44817142Y-119192880D02*
X44721904Y-119002404D01*
X44626666Y-118907166D01*
X44436190Y-118811928D01*
X44245714Y-118811928D01*
X43293333Y-120145261D02*
X43483809Y-120050023D01*
X43579047Y-119954785D01*
X43674285Y-119764309D01*
X43674285Y-119192880D01*
X43579047Y-119002404D01*
X43483809Y-118907166D01*
X43293333Y-118811928D01*
X43007619Y-118811928D01*
X42817142Y-118907166D01*
X42721904Y-119002404D01*
X42626666Y-119192880D01*
X42626666Y-119764309D01*
X42721904Y-119954785D01*
X42817142Y-120050023D01*
X43007619Y-120145261D01*
X43293333Y-120145261D01*
X41483809Y-120145261D02*
X41674285Y-120050023D01*
X41769523Y-119859547D01*
X41769523Y-118145261D01*
X40436190Y-120145261D02*
X40626666Y-120050023D01*
X40721904Y-119859547D01*
X40721904Y-118145261D01*
X38912380Y-120050023D02*
X39102857Y-120145261D01*
X39483809Y-120145261D01*
X39674285Y-120050023D01*
X39769523Y-119859547D01*
X39769523Y-119097642D01*
X39674285Y-118907166D01*
X39483809Y-118811928D01*
X39102857Y-118811928D01*
X38912380Y-118907166D01*
X38817142Y-119097642D01*
X38817142Y-119288119D01*
X39769523Y-119478595D01*
X37960000Y-120145261D02*
X37960000Y-118811928D01*
X37960000Y-119192880D02*
X37864761Y-119002404D01*
X37769523Y-118907166D01*
X37579047Y-118811928D01*
X37388571Y-118811928D01*
X77102857Y-123345261D02*
X77769523Y-122392880D01*
X78245714Y-123345261D02*
X78245714Y-121345261D01*
X77483809Y-121345261D01*
X77293333Y-121440500D01*
X77198095Y-121535738D01*
X77102857Y-121726214D01*
X77102857Y-122011928D01*
X77198095Y-122202404D01*
X77293333Y-122297642D01*
X77483809Y-122392880D01*
X78245714Y-122392880D01*
X75483809Y-123250023D02*
X75674285Y-123345261D01*
X76055238Y-123345261D01*
X76245714Y-123250023D01*
X76340952Y-123059547D01*
X76340952Y-122297642D01*
X76245714Y-122107166D01*
X76055238Y-122011928D01*
X75674285Y-122011928D01*
X75483809Y-122107166D01*
X75388571Y-122297642D01*
X75388571Y-122488119D01*
X76340952Y-122678595D01*
X74721904Y-122011928D02*
X74245714Y-123345261D01*
X73769523Y-122011928D01*
X73007619Y-123154785D02*
X72912380Y-123250023D01*
X73007619Y-123345261D01*
X73102857Y-123250023D01*
X73007619Y-123154785D01*
X73007619Y-123345261D01*
X73007619Y-122107166D02*
X72912380Y-122202404D01*
X73007619Y-122297642D01*
X73102857Y-122202404D01*
X73007619Y-122107166D01*
X73007619Y-122297642D01*
X71388571Y-122297642D02*
X71102857Y-122392880D01*
X71007619Y-122488119D01*
X70912380Y-122678595D01*
X70912380Y-122964309D01*
X71007619Y-123154785D01*
X71102857Y-123250023D01*
X71293333Y-123345261D01*
X72055238Y-123345261D01*
X72055238Y-121345261D01*
X71388571Y-121345261D01*
X71198095Y-121440500D01*
X71102857Y-121535738D01*
X71007619Y-121726214D01*
X71007619Y-121916690D01*
X71102857Y-122107166D01*
X71198095Y-122202404D01*
X71388571Y-122297642D01*
X72055238Y-122297642D01*
X68436190Y-121345261D02*
X68626666Y-121726214D01*
X67579047Y-122297642D02*
X66912380Y-122297642D01*
X66626666Y-123345261D02*
X67579047Y-123345261D01*
X67579047Y-121345261D01*
X66626666Y-121345261D01*
X65769523Y-123345261D02*
X65769523Y-121345261D01*
X65102857Y-122773833D01*
X64436190Y-121345261D01*
X64436190Y-123345261D01*
X63483809Y-122297642D02*
X62817142Y-122297642D01*
X62531428Y-123345261D02*
X63483809Y-123345261D01*
X63483809Y-121345261D01*
X62531428Y-121345261D01*
X60531428Y-123345261D02*
X61198095Y-122392880D01*
X61674285Y-123345261D02*
X61674285Y-121345261D01*
X60912380Y-121345261D01*
X60721904Y-121440500D01*
X60626666Y-121535738D01*
X60531428Y-121726214D01*
X60531428Y-122011928D01*
X60626666Y-122202404D01*
X60721904Y-122297642D01*
X60912380Y-122392880D01*
X61674285Y-122392880D01*
X59769523Y-122773833D02*
X58817142Y-122773833D01*
X59960000Y-123345261D02*
X59293333Y-121345261D01*
X58626666Y-123345261D01*
X57007619Y-123345261D02*
X57960000Y-123345261D01*
X57960000Y-121345261D01*
X56340952Y-123345261D02*
X56340952Y-121345261D01*
X55864761Y-121345261D01*
X55579047Y-121440500D01*
X55388571Y-121630976D01*
X55293333Y-121821452D01*
X55198095Y-122202404D01*
X55198095Y-122488119D01*
X55293333Y-122869071D01*
X55388571Y-123059547D01*
X55579047Y-123250023D01*
X55864761Y-123345261D01*
X56340952Y-123345261D01*
X52817142Y-123345261D02*
X52817142Y-121345261D01*
X52340952Y-121345261D01*
X52055238Y-121440500D01*
X51864761Y-121630976D01*
X51769523Y-121821452D01*
X51674285Y-122202404D01*
X51674285Y-122488119D01*
X51769523Y-122869071D01*
X51864761Y-123059547D01*
X52055238Y-123250023D01*
X52340952Y-123345261D01*
X52817142Y-123345261D01*
X50817142Y-123345261D02*
X50817142Y-121345261D01*
X49864761Y-123345261D02*
X49864761Y-121345261D01*
X48721904Y-123345261D01*
X48721904Y-121345261D01*
X46721904Y-121440500D02*
X46912380Y-121345261D01*
X47198095Y-121345261D01*
X47483809Y-121440500D01*
X47674285Y-121630976D01*
X47769523Y-121821452D01*
X47864761Y-122202404D01*
X47864761Y-122488119D01*
X47769523Y-122869071D01*
X47674285Y-123059547D01*
X47483809Y-123250023D01*
X47198095Y-123345261D01*
X47007619Y-123345261D01*
X46721904Y-123250023D01*
X46626666Y-123154785D01*
X46626666Y-122488119D01*
X47007619Y-122488119D01*
X45388571Y-121345261D02*
X45007619Y-121345261D01*
X44817142Y-121440500D01*
X44626666Y-121630976D01*
X44531428Y-122011928D01*
X44531428Y-122678595D01*
X44626666Y-123059547D01*
X44817142Y-123250023D01*
X45007619Y-123345261D01*
X45388571Y-123345261D01*
X45579047Y-123250023D01*
X45769523Y-123059547D01*
X45864761Y-122678595D01*
X45864761Y-122011928D01*
X45769523Y-121630976D01*
X45579047Y-121440500D01*
X45388571Y-121345261D01*
X43579047Y-121345261D02*
X43769523Y-121726214D01*
D11*
G36*
X69178062Y-90961912D02*
G01*
X68881785Y-91233602D01*
X68518430Y-91570467D01*
X68143531Y-91920890D01*
X67932414Y-92119712D01*
X67221328Y-92791829D01*
X67275818Y-94666498D01*
X67292403Y-95264870D01*
X67311125Y-95987327D01*
X67330892Y-96788655D01*
X67350612Y-97623635D01*
X67369191Y-98447052D01*
X67384551Y-99165833D01*
X67438793Y-101790500D01*
X68495214Y-102862504D01*
X69551635Y-103934509D01*
X70409901Y-103982440D01*
X71059667Y-104014331D01*
X71718713Y-104038739D01*
X72363937Y-104055564D01*
X72972233Y-104064704D01*
X73520499Y-104066059D01*
X73985631Y-104059527D01*
X74344525Y-104045007D01*
X74574076Y-104022398D01*
X74646385Y-104000982D01*
X74748535Y-103899279D01*
X74935715Y-103694684D01*
X75184536Y-103414376D01*
X75471606Y-103085535D01*
X75773535Y-102735341D01*
X76066932Y-102390973D01*
X76328408Y-102079611D01*
X76534570Y-101828434D01*
X76662029Y-101664621D01*
X76682122Y-101635486D01*
X76707809Y-101574548D01*
X76727052Y-101472994D01*
X76739594Y-101317231D01*
X76739635Y-101315574D01*
X76148810Y-101315574D01*
X75232489Y-102385896D01*
X74316167Y-103456217D01*
X72115426Y-103395190D01*
X69914684Y-103334162D01*
X69016171Y-102498621D01*
X68117658Y-101663081D01*
X68063798Y-100456790D01*
X68049568Y-100082560D01*
X68033658Y-99568527D01*
X68016794Y-98944203D01*
X67999699Y-98239102D01*
X67983097Y-97482735D01*
X67967714Y-96704616D01*
X67957300Y-96117833D01*
X67904662Y-92985167D01*
X68901232Y-92075000D01*
X69897801Y-91164833D01*
X74316167Y-91167141D01*
X75774125Y-92985167D01*
X75961467Y-97150370D01*
X76148810Y-101315574D01*
X76739635Y-101315574D01*
X76745178Y-101093667D01*
X76743549Y-100788712D01*
X76734449Y-100388774D01*
X76717622Y-99880261D01*
X76692811Y-99249581D01*
X76659761Y-98483142D01*
X76618214Y-97567353D01*
X76596520Y-97099522D01*
X76544789Y-96019255D01*
X76497728Y-95101090D01*
X76454842Y-94337875D01*
X76415640Y-93722455D01*
X76379628Y-93247680D01*
X76346314Y-92906395D01*
X76315204Y-92691449D01*
X76286266Y-92596318D01*
X76058136Y-92290045D01*
X75787662Y-91948715D01*
X75497720Y-91598649D01*
X75211184Y-91266169D01*
X74950927Y-90977596D01*
X74739824Y-90759250D01*
X74600749Y-90637454D01*
X74570167Y-90621607D01*
X74443391Y-90609360D01*
X74170972Y-90594747D01*
X73776571Y-90578639D01*
X73283847Y-90561907D01*
X72716461Y-90545422D01*
X72098072Y-90530054D01*
X72056729Y-90529116D01*
X69712623Y-90476228D01*
X69178062Y-90961912D01*
G37*
X69178062Y-90961912D02*
X68881785Y-91233602D01*
X68518430Y-91570467D01*
X68143531Y-91920890D01*
X67932414Y-92119712D01*
X67221328Y-92791829D01*
X67275818Y-94666498D01*
X67292403Y-95264870D01*
X67311125Y-95987327D01*
X67330892Y-96788655D01*
X67350612Y-97623635D01*
X67369191Y-98447052D01*
X67384551Y-99165833D01*
X67438793Y-101790500D01*
X68495214Y-102862504D01*
X69551635Y-103934509D01*
X70409901Y-103982440D01*
X71059667Y-104014331D01*
X71718713Y-104038739D01*
X72363937Y-104055564D01*
X72972233Y-104064704D01*
X73520499Y-104066059D01*
X73985631Y-104059527D01*
X74344525Y-104045007D01*
X74574076Y-104022398D01*
X74646385Y-104000982D01*
X74748535Y-103899279D01*
X74935715Y-103694684D01*
X75184536Y-103414376D01*
X75471606Y-103085535D01*
X75773535Y-102735341D01*
X76066932Y-102390973D01*
X76328408Y-102079611D01*
X76534570Y-101828434D01*
X76662029Y-101664621D01*
X76682122Y-101635486D01*
X76707809Y-101574548D01*
X76727052Y-101472994D01*
X76739594Y-101317231D01*
X76739635Y-101315574D01*
X76148810Y-101315574D01*
X75232489Y-102385896D01*
X74316167Y-103456217D01*
X72115426Y-103395190D01*
X69914684Y-103334162D01*
X69016171Y-102498621D01*
X68117658Y-101663081D01*
X68063798Y-100456790D01*
X68049568Y-100082560D01*
X68033658Y-99568527D01*
X68016794Y-98944203D01*
X67999699Y-98239102D01*
X67983097Y-97482735D01*
X67967714Y-96704616D01*
X67957300Y-96117833D01*
X67904662Y-92985167D01*
X68901232Y-92075000D01*
X69897801Y-91164833D01*
X74316167Y-91167141D01*
X75774125Y-92985167D01*
X75961467Y-97150370D01*
X76148810Y-101315574D01*
X76739635Y-101315574D01*
X76745178Y-101093667D01*
X76743549Y-100788712D01*
X76734449Y-100388774D01*
X76717622Y-99880261D01*
X76692811Y-99249581D01*
X76659761Y-98483142D01*
X76618214Y-97567353D01*
X76596520Y-97099522D01*
X76544789Y-96019255D01*
X76497728Y-95101090D01*
X76454842Y-94337875D01*
X76415640Y-93722455D01*
X76379628Y-93247680D01*
X76346314Y-92906395D01*
X76315204Y-92691449D01*
X76286266Y-92596318D01*
X76058136Y-92290045D01*
X75787662Y-91948715D01*
X75497720Y-91598649D01*
X75211184Y-91266169D01*
X74950927Y-90977596D01*
X74739824Y-90759250D01*
X74600749Y-90637454D01*
X74570167Y-90621607D01*
X74443391Y-90609360D01*
X74170972Y-90594747D01*
X73776571Y-90578639D01*
X73283847Y-90561907D01*
X72716461Y-90545422D01*
X72098072Y-90530054D01*
X72056729Y-90529116D01*
X69712623Y-90476228D01*
X69178062Y-90961912D01*
G36*
X43501871Y-86706249D02*
G01*
X43313926Y-86907350D01*
X43172037Y-87171574D01*
X43094302Y-87361844D01*
X43041949Y-87560490D01*
X43010226Y-87806454D01*
X42994385Y-88138680D01*
X42989676Y-88596111D01*
X42989634Y-88667167D01*
X42993246Y-89144385D01*
X43008992Y-89506169D01*
X43044440Y-89806355D01*
X43107155Y-90098779D01*
X43204704Y-90437279D01*
X43265508Y-90630011D01*
X43492563Y-91243225D01*
X43729641Y-91696861D01*
X43974707Y-91988378D01*
X44225724Y-92115237D01*
X44438307Y-92093216D01*
X44699670Y-91906638D01*
X44933653Y-91557379D01*
X45137073Y-91050353D01*
X45159234Y-90979290D01*
X45267314Y-90456041D01*
X45313500Y-89845232D01*
X45299556Y-89206328D01*
X45227244Y-88598792D01*
X45098325Y-88082089D01*
X45071181Y-88008264D01*
X44820786Y-87484014D01*
X44528105Y-87071398D01*
X44211001Y-86792597D01*
X44016797Y-86698891D01*
X43725845Y-86642536D01*
X43501871Y-86706249D01*
G37*
X43501871Y-86706249D02*
X43313926Y-86907350D01*
X43172037Y-87171574D01*
X43094302Y-87361844D01*
X43041949Y-87560490D01*
X43010226Y-87806454D01*
X42994385Y-88138680D01*
X42989676Y-88596111D01*
X42989634Y-88667167D01*
X42993246Y-89144385D01*
X43008992Y-89506169D01*
X43044440Y-89806355D01*
X43107155Y-90098779D01*
X43204704Y-90437279D01*
X43265508Y-90630011D01*
X43492563Y-91243225D01*
X43729641Y-91696861D01*
X43974707Y-91988378D01*
X44225724Y-92115237D01*
X44438307Y-92093216D01*
X44699670Y-91906638D01*
X44933653Y-91557379D01*
X45137073Y-91050353D01*
X45159234Y-90979290D01*
X45267314Y-90456041D01*
X45313500Y-89845232D01*
X45299556Y-89206328D01*
X45227244Y-88598792D01*
X45098325Y-88082089D01*
X45071181Y-88008264D01*
X44820786Y-87484014D01*
X44528105Y-87071398D01*
X44211001Y-86792597D01*
X44016797Y-86698891D01*
X43725845Y-86642536D01*
X43501871Y-86706249D01*
G36*
X57802477Y-86713194D02*
G01*
X57623822Y-86818411D01*
X57393516Y-87039388D01*
X57139185Y-87342252D01*
X56888450Y-87693132D01*
X56668936Y-88058155D01*
X56605751Y-88180626D01*
X56508765Y-88387695D01*
X56442369Y-88569968D01*
X56400864Y-88766615D01*
X56378553Y-89016804D01*
X56369737Y-89359704D01*
X56368676Y-89810167D01*
X56372490Y-90290749D01*
X56385446Y-90641221D01*
X56412515Y-90900757D01*
X56458672Y-91108528D01*
X56528887Y-91303708D01*
X56570443Y-91399621D01*
X56789383Y-91786900D01*
X57040621Y-92066814D01*
X57302442Y-92226551D01*
X57553134Y-92253303D01*
X57770982Y-92134258D01*
X57786993Y-92117333D01*
X57942951Y-91880061D01*
X58115351Y-91505743D01*
X58292044Y-91024234D01*
X58460885Y-90465391D01*
X58464541Y-90452007D01*
X58555759Y-90067026D01*
X58613310Y-89682102D01*
X58643321Y-89240255D01*
X58651909Y-88709500D01*
X58626715Y-87993604D01*
X58549051Y-87436600D01*
X58417877Y-87036045D01*
X58232153Y-86789496D01*
X57990840Y-86694512D01*
X57802477Y-86713194D01*
G37*
X57802477Y-86713194D02*
X57623822Y-86818411D01*
X57393516Y-87039388D01*
X57139185Y-87342252D01*
X56888450Y-87693132D01*
X56668936Y-88058155D01*
X56605751Y-88180626D01*
X56508765Y-88387695D01*
X56442369Y-88569968D01*
X56400864Y-88766615D01*
X56378553Y-89016804D01*
X56369737Y-89359704D01*
X56368676Y-89810167D01*
X56372490Y-90290749D01*
X56385446Y-90641221D01*
X56412515Y-90900757D01*
X56458672Y-91108528D01*
X56528887Y-91303708D01*
X56570443Y-91399621D01*
X56789383Y-91786900D01*
X57040621Y-92066814D01*
X57302442Y-92226551D01*
X57553134Y-92253303D01*
X57770982Y-92134258D01*
X57786993Y-92117333D01*
X57942951Y-91880061D01*
X58115351Y-91505743D01*
X58292044Y-91024234D01*
X58460885Y-90465391D01*
X58464541Y-90452007D01*
X58555759Y-90067026D01*
X58613310Y-89682102D01*
X58643321Y-89240255D01*
X58651909Y-88709500D01*
X58626715Y-87993604D01*
X58549051Y-87436600D01*
X58417877Y-87036045D01*
X58232153Y-86789496D01*
X57990840Y-86694512D01*
X57802477Y-86713194D01*
G36*
X47092459Y-97320317D02*
G01*
X46707447Y-97447539D01*
X46423391Y-97636883D01*
X46413329Y-97647338D01*
X46232789Y-97839515D01*
X46590668Y-98227768D01*
X46884830Y-98494759D01*
X47244577Y-98742489D01*
X47639978Y-98959288D01*
X48041104Y-99133482D01*
X48418026Y-99253402D01*
X48740813Y-99307373D01*
X48979537Y-99283724D01*
X49089216Y-99202155D01*
X49130006Y-98996404D01*
X49083379Y-98700990D01*
X48968090Y-98358168D01*
X48802894Y-98010188D01*
X48606544Y-97699304D01*
X48397797Y-97467769D01*
X48284703Y-97389662D01*
X47937938Y-97283551D01*
X47521573Y-97263045D01*
X47092459Y-97320317D01*
G37*
X47092459Y-97320317D02*
X46707447Y-97447539D01*
X46423391Y-97636883D01*
X46413329Y-97647338D01*
X46232789Y-97839515D01*
X46590668Y-98227768D01*
X46884830Y-98494759D01*
X47244577Y-98742489D01*
X47639978Y-98959288D01*
X48041104Y-99133482D01*
X48418026Y-99253402D01*
X48740813Y-99307373D01*
X48979537Y-99283724D01*
X49089216Y-99202155D01*
X49130006Y-98996404D01*
X49083379Y-98700990D01*
X48968090Y-98358168D01*
X48802894Y-98010188D01*
X48606544Y-97699304D01*
X48397797Y-97467769D01*
X48284703Y-97389662D01*
X47937938Y-97283551D01*
X47521573Y-97263045D01*
X47092459Y-97320317D01*
G36*
X53524764Y-97286736D02*
G01*
X53363493Y-97376244D01*
X53123629Y-97587084D01*
X52910918Y-97867943D01*
X52735886Y-98187519D01*
X52609064Y-98514512D01*
X52540980Y-98817619D01*
X52542161Y-99065539D01*
X52623138Y-99226971D01*
X52726167Y-99271026D01*
X52885757Y-99248977D01*
X53143781Y-99171542D01*
X53445385Y-99055277D01*
X53455779Y-99050827D01*
X53977213Y-98810339D01*
X54466138Y-98554485D01*
X54883290Y-98305488D01*
X55189404Y-98085574D01*
X55241366Y-98040164D01*
X55389053Y-97854794D01*
X55392164Y-97688886D01*
X55243357Y-97525893D01*
X54935288Y-97349270D01*
X54934614Y-97348943D01*
X54448880Y-97189407D01*
X53965603Y-97168903D01*
X53524764Y-97286736D01*
G37*
X53524764Y-97286736D02*
X53363493Y-97376244D01*
X53123629Y-97587084D01*
X52910918Y-97867943D01*
X52735886Y-98187519D01*
X52609064Y-98514512D01*
X52540980Y-98817619D01*
X52542161Y-99065539D01*
X52623138Y-99226971D01*
X52726167Y-99271026D01*
X52885757Y-99248977D01*
X53143781Y-99171542D01*
X53445385Y-99055277D01*
X53455779Y-99050827D01*
X53977213Y-98810339D01*
X54466138Y-98554485D01*
X54883290Y-98305488D01*
X55189404Y-98085574D01*
X55241366Y-98040164D01*
X55389053Y-97854794D01*
X55392164Y-97688886D01*
X55243357Y-97525893D01*
X54935288Y-97349270D01*
X54934614Y-97348943D01*
X54448880Y-97189407D01*
X53965603Y-97168903D01*
X53524764Y-97286736D01*
G36*
X50190987Y-104391937D02*
G01*
X49844510Y-104453132D01*
X49816498Y-104461295D01*
X49463492Y-104621538D01*
X49180109Y-104848168D01*
X49001853Y-105106565D01*
X48958500Y-105297976D01*
X49027766Y-105561802D01*
X49215424Y-105874532D01*
X49491264Y-106203880D01*
X49825077Y-106517563D01*
X50186655Y-106783296D01*
X50507476Y-106953370D01*
X50756348Y-107046601D01*
X50944024Y-107070152D01*
X51141289Y-107019697D01*
X51403365Y-106898626D01*
X51684730Y-106725269D01*
X51991784Y-106482794D01*
X52287288Y-106207290D01*
X52534002Y-105934841D01*
X52694688Y-105701535D01*
X52730771Y-105612300D01*
X52744650Y-105243081D01*
X52607272Y-104912072D01*
X52336204Y-104644370D01*
X51949012Y-104465070D01*
X51922547Y-104457692D01*
X51563206Y-104394458D01*
X51113033Y-104362492D01*
X50634727Y-104361688D01*
X50190987Y-104391937D01*
G37*
X50190987Y-104391937D02*
X49844510Y-104453132D01*
X49816498Y-104461295D01*
X49463492Y-104621538D01*
X49180109Y-104848168D01*
X49001853Y-105106565D01*
X48958500Y-105297976D01*
X49027766Y-105561802D01*
X49215424Y-105874532D01*
X49491264Y-106203880D01*
X49825077Y-106517563D01*
X50186655Y-106783296D01*
X50507476Y-106953370D01*
X50756348Y-107046601D01*
X50944024Y-107070152D01*
X51141289Y-107019697D01*
X51403365Y-106898626D01*
X51684730Y-106725269D01*
X51991784Y-106482794D01*
X52287288Y-106207290D01*
X52534002Y-105934841D01*
X52694688Y-105701535D01*
X52730771Y-105612300D01*
X52744650Y-105243081D01*
X52607272Y-104912072D01*
X52336204Y-104644370D01*
X51949012Y-104465070D01*
X51922547Y-104457692D01*
X51563206Y-104394458D01*
X51113033Y-104362492D01*
X50634727Y-104361688D01*
X50190987Y-104391937D01*
G36*
X78070247Y-80679811D02*
G01*
X77861405Y-80705323D01*
X77767294Y-80735366D01*
X77729943Y-80796597D01*
X77707826Y-80936503D01*
X77700658Y-81175266D01*
X77708151Y-81533067D01*
X77730022Y-82030088D01*
X77744958Y-82313345D01*
X77772681Y-82799755D01*
X77799054Y-83223724D01*
X77822197Y-83557928D01*
X77840229Y-83775043D01*
X77850564Y-83847786D01*
X77882044Y-83778546D01*
X77956018Y-83572031D01*
X78064272Y-83252526D01*
X78198587Y-82844318D01*
X78350747Y-82371693D01*
X78363386Y-82332010D01*
X78516026Y-81848644D01*
X78648865Y-81420790D01*
X78753992Y-81074518D01*
X78823499Y-80835900D01*
X78849477Y-80731009D01*
X78849487Y-80729667D01*
X78771735Y-80693845D01*
X78579731Y-80673786D01*
X78327795Y-80669203D01*
X78070247Y-80679811D01*
G37*
X78070247Y-80679811D02*
X77861405Y-80705323D01*
X77767294Y-80735366D01*
X77729943Y-80796597D01*
X77707826Y-80936503D01*
X77700658Y-81175266D01*
X77708151Y-81533067D01*
X77730022Y-82030088D01*
X77744958Y-82313345D01*
X77772681Y-82799755D01*
X77799054Y-83223724D01*
X77822197Y-83557928D01*
X77840229Y-83775043D01*
X77850564Y-83847786D01*
X77882044Y-83778546D01*
X77956018Y-83572031D01*
X78064272Y-83252526D01*
X78198587Y-82844318D01*
X78350747Y-82371693D01*
X78363386Y-82332010D01*
X78516026Y-81848644D01*
X78648865Y-81420790D01*
X78753992Y-81074518D01*
X78823499Y-80835900D01*
X78849477Y-80731009D01*
X78849487Y-80729667D01*
X78771735Y-80693845D01*
X78579731Y-80673786D01*
X78327795Y-80669203D01*
X78070247Y-80679811D01*
G36*
X76019641Y-82164733D02*
G01*
X75793714Y-82338578D01*
X75781266Y-82349639D01*
X75508026Y-82593779D01*
X75863127Y-83048139D01*
X76102752Y-83348855D01*
X76353587Y-83654575D01*
X76511556Y-83841167D01*
X76804885Y-84179833D01*
X76513905Y-83206167D01*
X76400811Y-82822955D01*
X76308078Y-82499634D01*
X76245293Y-82270277D01*
X76222046Y-82169000D01*
X76167854Y-82105979D01*
X76019641Y-82164733D01*
G37*
X76019641Y-82164733D02*
X75793714Y-82338578D01*
X75781266Y-82349639D01*
X75508026Y-82593779D01*
X75863127Y-83048139D01*
X76102752Y-83348855D01*
X76353587Y-83654575D01*
X76511556Y-83841167D01*
X76804885Y-84179833D01*
X76513905Y-83206167D01*
X76400811Y-82822955D01*
X76308078Y-82499634D01*
X76245293Y-82270277D01*
X76222046Y-82169000D01*
X76167854Y-82105979D01*
X76019641Y-82164733D01*
G36*
X80463497Y-83119234D02*
G01*
X80281686Y-83240964D01*
X80024709Y-83423883D01*
X79721582Y-83646311D01*
X79401324Y-83886566D01*
X79092951Y-84122967D01*
X78825482Y-84333833D01*
X78627934Y-84497484D01*
X78553734Y-84565289D01*
X78552966Y-84614878D01*
X78686450Y-84633492D01*
X78962435Y-84620798D01*
X79389166Y-84576465D01*
X79894408Y-84511223D01*
X80251737Y-84459194D01*
X80541470Y-84410943D01*
X80725706Y-84373124D01*
X80770904Y-84357318D01*
X80777663Y-84258939D01*
X80755008Y-84047358D01*
X80712234Y-83774227D01*
X80658636Y-83491194D01*
X80603507Y-83249908D01*
X80556142Y-83102020D01*
X80541123Y-83080375D01*
X80463497Y-83119234D01*
G37*
X80463497Y-83119234D02*
X80281686Y-83240964D01*
X80024709Y-83423883D01*
X79721582Y-83646311D01*
X79401324Y-83886566D01*
X79092951Y-84122967D01*
X78825482Y-84333833D01*
X78627934Y-84497484D01*
X78553734Y-84565289D01*
X78552966Y-84614878D01*
X78686450Y-84633492D01*
X78962435Y-84620798D01*
X79389166Y-84576465D01*
X79894408Y-84511223D01*
X80251737Y-84459194D01*
X80541470Y-84410943D01*
X80725706Y-84373124D01*
X80770904Y-84357318D01*
X80777663Y-84258939D01*
X80755008Y-84047358D01*
X80712234Y-83774227D01*
X80658636Y-83491194D01*
X80603507Y-83249908D01*
X80556142Y-83102020D01*
X80541123Y-83080375D01*
X80463497Y-83119234D01*
G36*
X72738343Y-85315902D02*
G01*
X71856980Y-85335388D01*
X71009004Y-85355361D01*
X70212887Y-85375301D01*
X69487097Y-85394691D01*
X68850104Y-85413013D01*
X68320380Y-85429748D01*
X67916393Y-85444379D01*
X67656615Y-85456388D01*
X67602130Y-85459956D01*
X66984094Y-85507402D01*
X64808130Y-87837130D01*
X64315882Y-88365233D01*
X63859349Y-88857072D01*
X63451666Y-89298344D01*
X63105968Y-89674740D01*
X62835390Y-89971955D01*
X62653066Y-90175683D01*
X62572131Y-90271618D01*
X62570129Y-90274716D01*
X62560283Y-90374562D01*
X62550807Y-90630634D01*
X62541829Y-91029824D01*
X62533481Y-91559025D01*
X62525891Y-92205130D01*
X62519189Y-92955032D01*
X62513506Y-93795623D01*
X62508970Y-94713795D01*
X62505711Y-95696442D01*
X62503860Y-96730456D01*
X62503633Y-96994535D01*
X62499174Y-103606497D01*
X63795414Y-105111498D01*
X64217440Y-105603594D01*
X64651562Y-106113502D01*
X65068909Y-106607046D01*
X65440610Y-107050054D01*
X65737793Y-107408351D01*
X65800041Y-107484333D01*
X66508429Y-108352167D01*
X71258965Y-108351009D01*
X76009500Y-108349851D01*
X76882373Y-107674833D01*
X75197579Y-107674833D01*
X72096928Y-107674833D01*
X71393226Y-107673811D01*
X70747590Y-107670899D01*
X70178438Y-107666334D01*
X69704188Y-107660349D01*
X69343259Y-107653179D01*
X69114068Y-107645058D01*
X69035033Y-107636221D01*
X69035266Y-107635845D01*
X69132005Y-107592595D01*
X69366447Y-107508022D01*
X69715398Y-107389419D01*
X70155666Y-107244084D01*
X70664055Y-107079312D01*
X71217373Y-106902399D01*
X71792426Y-106720640D01*
X72366021Y-106541331D01*
X72914962Y-106371768D01*
X73416058Y-106219247D01*
X73846114Y-106091063D01*
X74181936Y-105994511D01*
X74400331Y-105936889D01*
X74476897Y-105924149D01*
X74568987Y-106024809D01*
X74659838Y-106219389D01*
X74669234Y-106247476D01*
X74746607Y-106473722D01*
X74860277Y-106787671D01*
X74978800Y-107103333D01*
X75197579Y-107674833D01*
X76882373Y-107674833D01*
X78634167Y-106320122D01*
X79217845Y-105866881D01*
X79761276Y-105441310D01*
X80249357Y-105055503D01*
X80666989Y-104721555D01*
X80999070Y-104451559D01*
X81230500Y-104257609D01*
X81346177Y-104151802D01*
X81354881Y-104141113D01*
X81373972Y-104054211D01*
X81379411Y-103991833D01*
X80420879Y-103991833D01*
X80360458Y-104055818D01*
X80184543Y-104203921D01*
X79914245Y-104420194D01*
X79570672Y-104688692D01*
X79174935Y-104993465D01*
X78748144Y-105318566D01*
X78311409Y-105648049D01*
X77885840Y-105965965D01*
X77492547Y-106256366D01*
X77152639Y-106503307D01*
X76887227Y-106690838D01*
X76717420Y-106803012D01*
X76666384Y-106828167D01*
X76693754Y-106756217D01*
X76789304Y-106553346D01*
X76943387Y-106239021D01*
X77146359Y-105832709D01*
X77388572Y-105353879D01*
X77660381Y-104821997D01*
X77662775Y-104817333D01*
X77939690Y-104280011D01*
X78193199Y-103791800D01*
X78223494Y-103733973D01*
X77388529Y-103733973D01*
X77360336Y-103814082D01*
X77266347Y-104023275D01*
X77117057Y-104339465D01*
X76922963Y-104740562D01*
X76694561Y-105204479D01*
X76588534Y-105417534D01*
X76346691Y-105898772D01*
X76130518Y-106322823D01*
X75951140Y-106668364D01*
X75819684Y-106914070D01*
X75747275Y-107038618D01*
X75737010Y-107049565D01*
X75703378Y-106962932D01*
X75634375Y-106752275D01*
X75542406Y-106456022D01*
X75499151Y-106312765D01*
X75405440Y-105980209D01*
X75338467Y-105704097D01*
X75336153Y-105690543D01*
X72878357Y-105690543D01*
X72876834Y-105691677D01*
X72745053Y-105739141D01*
X72482425Y-105827436D01*
X72111528Y-105949371D01*
X71654941Y-106097753D01*
X71135240Y-106265391D01*
X70575004Y-106445092D01*
X69996811Y-106629665D01*
X69423238Y-106811917D01*
X68876863Y-106984658D01*
X68380264Y-107140694D01*
X67956019Y-107272833D01*
X67626706Y-107373885D01*
X67414902Y-107436657D01*
X67343170Y-107454374D01*
X67369925Y-107375874D01*
X67465086Y-107179284D01*
X67613785Y-106893956D01*
X67801150Y-106549240D01*
X67808047Y-106536781D01*
X68303255Y-105642833D01*
X70632378Y-105649517D01*
X71235322Y-105652481D01*
X71774256Y-105657510D01*
X72228602Y-105664217D01*
X72577785Y-105672216D01*
X72801229Y-105681120D01*
X72878357Y-105690543D01*
X75336153Y-105690543D01*
X75308436Y-105528258D01*
X75308997Y-105496068D01*
X75376019Y-105414742D01*
X75465939Y-105328486D01*
X67746818Y-105328486D01*
X67407336Y-105930159D01*
X67226477Y-106254492D01*
X67060750Y-106558225D01*
X66942167Y-106782586D01*
X66930336Y-106805937D01*
X66834499Y-106977701D01*
X66772274Y-107054130D01*
X66766196Y-107053418D01*
X66741515Y-106966206D01*
X66688370Y-106738770D01*
X66612437Y-106396743D01*
X66609551Y-106383374D01*
X65891834Y-106383374D01*
X65846600Y-106379864D01*
X65709266Y-106257634D01*
X65477380Y-106013994D01*
X65148493Y-105646251D01*
X64720153Y-105151715D01*
X64189910Y-104527694D01*
X64037644Y-104346987D01*
X63790102Y-104039733D01*
X63604975Y-103783960D01*
X63499805Y-103605611D01*
X63487311Y-103533325D01*
X63594059Y-103474769D01*
X63810763Y-103379037D01*
X64097473Y-103261536D01*
X64414237Y-103137669D01*
X64721103Y-103022842D01*
X64978121Y-102932458D01*
X65145338Y-102881923D01*
X65187125Y-102877902D01*
X65212422Y-102966391D01*
X65263589Y-103191132D01*
X65334588Y-103522075D01*
X65419375Y-103929172D01*
X65511912Y-104382376D01*
X65606158Y-104851638D01*
X65696071Y-105306910D01*
X65775612Y-105718143D01*
X65838739Y-106055291D01*
X65879412Y-106288303D01*
X65891834Y-106383374D01*
X66609551Y-106383374D01*
X66519394Y-105965755D01*
X66414919Y-105471440D01*
X66400371Y-105401836D01*
X66295484Y-104893224D01*
X66203776Y-104436765D01*
X66130610Y-104060124D01*
X66081347Y-103790962D01*
X66061351Y-103656942D01*
X66061167Y-103651938D01*
X66114774Y-103665489D01*
X66262396Y-103786201D01*
X66484237Y-103995850D01*
X66760500Y-104276214D01*
X66903993Y-104427743D01*
X67746818Y-105328486D01*
X75465939Y-105328486D01*
X75544563Y-105253066D01*
X75788279Y-105033367D01*
X76080816Y-104777972D01*
X76395826Y-104509210D01*
X76706959Y-104249407D01*
X76987864Y-104020891D01*
X77212194Y-103845989D01*
X77353597Y-103747028D01*
X77388529Y-103733973D01*
X78223494Y-103733973D01*
X78412538Y-103373135D01*
X78586942Y-103044449D01*
X78705649Y-102826176D01*
X78757524Y-102739134D01*
X78840730Y-102763975D01*
X79022443Y-102873363D01*
X79271043Y-103043485D01*
X79554913Y-103250527D01*
X79842435Y-103470680D01*
X80101991Y-103680129D01*
X80301962Y-103855064D01*
X80410730Y-103971671D01*
X80420879Y-103991833D01*
X81379411Y-103991833D01*
X81391661Y-103851354D01*
X81408062Y-103526856D01*
X81421130Y-103139038D01*
X80601753Y-103139038D01*
X80575995Y-103175689D01*
X80491250Y-103145043D01*
X80327155Y-103036844D01*
X80063342Y-102840831D01*
X79832487Y-102664348D01*
X79025043Y-102044500D01*
X79024517Y-101881281D01*
X78354524Y-101881281D01*
X76553104Y-103423391D01*
X74751684Y-104965500D01*
X68304834Y-104960336D01*
X65873486Y-102246780D01*
X66077130Y-97143190D01*
X66119637Y-96083853D01*
X66156656Y-95180640D01*
X66185628Y-94501913D01*
X65531547Y-94501913D01*
X65526969Y-94737796D01*
X65516267Y-95101637D01*
X65500298Y-95572839D01*
X65479924Y-96130804D01*
X65456004Y-96754935D01*
X65429396Y-97424636D01*
X65400962Y-98119309D01*
X65371560Y-98818357D01*
X65342051Y-99501184D01*
X65313293Y-100147191D01*
X65286147Y-100735783D01*
X65261471Y-101246362D01*
X65240127Y-101658331D01*
X65222972Y-101951093D01*
X65210868Y-102104051D01*
X65207482Y-102121664D01*
X65108359Y-102174211D01*
X64890651Y-102269183D01*
X64594767Y-102390741D01*
X64261115Y-102523048D01*
X63930104Y-102650264D01*
X63642144Y-102756552D01*
X63437642Y-102826073D01*
X63363126Y-102844567D01*
X63281935Y-102785316D01*
X63286324Y-102700667D01*
X63415538Y-102211009D01*
X63568637Y-101634861D01*
X63740780Y-100990115D01*
X63927124Y-100294661D01*
X64122826Y-99566390D01*
X64323043Y-98823192D01*
X64522934Y-98082958D01*
X64717656Y-97363580D01*
X64902365Y-96682947D01*
X65072221Y-96058950D01*
X65222379Y-95509481D01*
X65347998Y-95052429D01*
X65444235Y-94705687D01*
X65506247Y-94487144D01*
X65529140Y-94414583D01*
X65531547Y-94501913D01*
X66185628Y-94501913D01*
X66189105Y-94420465D01*
X66217903Y-93790240D01*
X66243970Y-93276878D01*
X66268226Y-92867292D01*
X66291589Y-92548393D01*
X66314161Y-92315533D01*
X65371425Y-92315533D01*
X65356070Y-92399491D01*
X65300645Y-92631285D01*
X65209200Y-92995269D01*
X65085790Y-93475798D01*
X64934466Y-94057225D01*
X64759282Y-94723902D01*
X64564290Y-95460185D01*
X64353543Y-96250426D01*
X64313091Y-96401508D01*
X63224834Y-100463556D01*
X63202932Y-95885486D01*
X63199680Y-95020874D01*
X63198335Y-94207798D01*
X63198804Y-93461894D01*
X63200995Y-92798797D01*
X63204818Y-92234143D01*
X63210181Y-91783566D01*
X63216991Y-91462703D01*
X63225157Y-91287187D01*
X63230040Y-91258405D01*
X63312165Y-91282258D01*
X63511131Y-91368131D01*
X63793703Y-91499617D01*
X64126645Y-91660309D01*
X64476722Y-91833799D01*
X64810699Y-92003680D01*
X65095341Y-92153546D01*
X65297411Y-92266989D01*
X65371425Y-92315533D01*
X66314161Y-92315533D01*
X66314979Y-92307095D01*
X66339316Y-92130311D01*
X66365518Y-92004953D01*
X66394505Y-91917934D01*
X66427197Y-91856166D01*
X66450830Y-91823407D01*
X66555759Y-91703781D01*
X66760480Y-91482221D01*
X67046662Y-91178120D01*
X67395971Y-90810874D01*
X67790076Y-90399875D01*
X68097861Y-90080951D01*
X69574834Y-88554687D01*
X72250825Y-88462442D01*
X72918964Y-88441257D01*
X73542336Y-88425001D01*
X74098174Y-88413995D01*
X74563710Y-88408562D01*
X74916176Y-88409023D01*
X75132804Y-88415700D01*
X75180917Y-88421017D01*
X75313401Y-88481503D01*
X75515145Y-88628381D01*
X75796202Y-88870500D01*
X76166624Y-89216711D01*
X76636464Y-89675864D01*
X76865259Y-89903914D01*
X78295500Y-91335991D01*
X78354524Y-101881281D01*
X79024517Y-101881281D01*
X79020105Y-100513067D01*
X79016794Y-99971795D01*
X79010277Y-99309903D01*
X79001180Y-98576062D01*
X78990131Y-97818944D01*
X78977757Y-97087219D01*
X78972092Y-96787734D01*
X78962110Y-96203794D01*
X78956101Y-95684758D01*
X78954071Y-95251753D01*
X78956030Y-94925906D01*
X78961987Y-94728344D01*
X78971245Y-94678500D01*
X78995002Y-94776297D01*
X79046829Y-95024033D01*
X79123497Y-95405232D01*
X79221780Y-95903418D01*
X79338449Y-96502113D01*
X79470277Y-97184842D01*
X79614036Y-97935127D01*
X79766498Y-98736493D01*
X79775662Y-98784833D01*
X79929341Y-99595101D01*
X80074755Y-100360603D01*
X80208599Y-101064027D01*
X80327569Y-101688061D01*
X80428360Y-102215393D01*
X80507668Y-102628713D01*
X80562188Y-102910708D01*
X80588617Y-103044066D01*
X80588890Y-103045348D01*
X80601753Y-103139038D01*
X81421130Y-103139038D01*
X81423287Y-103075032D01*
X81437448Y-102490198D01*
X81450659Y-101766669D01*
X81463032Y-100898759D01*
X81474679Y-99880783D01*
X81485714Y-98707057D01*
X81496249Y-97371895D01*
X81500238Y-96807461D01*
X81540512Y-90939511D01*
X80865435Y-90939511D01*
X80864649Y-91320272D01*
X80861835Y-91825537D01*
X80857108Y-92440368D01*
X80850579Y-93149828D01*
X80842364Y-93938979D01*
X80832573Y-94792882D01*
X80822839Y-95578704D01*
X80810939Y-96471380D01*
X80798879Y-97307985D01*
X80786926Y-98074187D01*
X80775349Y-98755656D01*
X80764414Y-99338058D01*
X80754390Y-99807065D01*
X80745543Y-100148343D01*
X80738143Y-100347562D01*
X80732928Y-100393500D01*
X80712470Y-100288201D01*
X80663479Y-100032354D01*
X80588966Y-99641779D01*
X80491941Y-99132297D01*
X80375414Y-98519730D01*
X80242396Y-97819898D01*
X80095897Y-97048621D01*
X79938927Y-96221722D01*
X79862985Y-95821500D01*
X79704212Y-94978357D01*
X79557435Y-94186658D01*
X79425334Y-93461733D01*
X79310594Y-92818907D01*
X79215896Y-92273508D01*
X79143924Y-91840864D01*
X79097359Y-91536303D01*
X79078886Y-91375151D01*
X79080914Y-91353177D01*
X79179177Y-91311437D01*
X79397911Y-91216439D01*
X79702632Y-91083210D01*
X79988492Y-90957724D01*
X80332431Y-90809658D01*
X80614024Y-90694415D01*
X80800764Y-90624912D01*
X80860474Y-90611251D01*
X80864081Y-90698192D01*
X80865435Y-90939511D01*
X81540512Y-90939511D01*
X81548562Y-89766627D01*
X80708085Y-89766627D01*
X79755793Y-90245293D01*
X79395077Y-90425211D01*
X79094998Y-90572238D01*
X78884528Y-90672371D01*
X78792639Y-90711611D01*
X78790957Y-90711562D01*
X78767560Y-90629639D01*
X78708767Y-90406607D01*
X78620535Y-90065565D01*
X78543853Y-89766320D01*
X77828945Y-89766320D01*
X77773332Y-89739544D01*
X77619511Y-89610555D01*
X77387990Y-89397889D01*
X77099276Y-89120084D01*
X76940834Y-88963500D01*
X76628164Y-88646337D01*
X76363632Y-88367410D01*
X76353428Y-88356039D01*
X68685834Y-88356039D01*
X68632084Y-88436576D01*
X68485169Y-88613520D01*
X68266593Y-88863548D01*
X67997862Y-89163331D01*
X67700477Y-89489544D01*
X67395944Y-89818861D01*
X67105766Y-90127956D01*
X66851448Y-90393502D01*
X66654493Y-90592174D01*
X66536405Y-90700646D01*
X66512728Y-90713282D01*
X66518038Y-90624283D01*
X66551669Y-90395526D01*
X66609181Y-90053389D01*
X66686137Y-89624247D01*
X66778099Y-89134480D01*
X66780074Y-89124180D01*
X66881486Y-88596731D01*
X66978447Y-88094752D01*
X67063889Y-87654663D01*
X67130744Y-87312885D01*
X67168073Y-87124924D01*
X66452147Y-87124924D01*
X66444596Y-87212585D01*
X66407932Y-87444079D01*
X66346142Y-87797168D01*
X66263213Y-88249619D01*
X66163129Y-88779196D01*
X66060785Y-89307964D01*
X65947494Y-89887510D01*
X65845663Y-90409182D01*
X65759587Y-90850923D01*
X65693559Y-91190677D01*
X65651872Y-91406385D01*
X65638710Y-91476287D01*
X65568075Y-91455847D01*
X65379335Y-91372877D01*
X65104429Y-91243329D01*
X64775297Y-91083160D01*
X64423878Y-90908324D01*
X64082113Y-90734777D01*
X63781941Y-90578473D01*
X63555302Y-90455368D01*
X63434135Y-90381417D01*
X63422354Y-90369135D01*
X63477126Y-90292340D01*
X63628985Y-90114752D01*
X63859515Y-89856093D01*
X64150301Y-89536080D01*
X64482927Y-89174433D01*
X64838978Y-88790871D01*
X65200036Y-88405113D01*
X65547687Y-88036877D01*
X65863515Y-87705884D01*
X66129104Y-87431852D01*
X66326039Y-87234499D01*
X66435903Y-87133546D01*
X66452147Y-87124924D01*
X67168073Y-87124924D01*
X67168207Y-87124250D01*
X67257572Y-86682000D01*
X67971703Y-87485631D01*
X68241569Y-87794297D01*
X68464720Y-88059015D01*
X68619695Y-88253626D01*
X68685036Y-88351975D01*
X68685834Y-88356039D01*
X76353428Y-88356039D01*
X76168431Y-88149902D01*
X76063756Y-88017000D01*
X76051834Y-87990993D01*
X76093926Y-87885923D01*
X76154869Y-87771528D01*
X72615600Y-87771528D01*
X72518961Y-87790191D01*
X72281620Y-87811274D01*
X71932157Y-87832949D01*
X71499149Y-87853391D01*
X71113183Y-87867582D01*
X70618122Y-87884144D01*
X70168500Y-87900165D01*
X69797479Y-87914390D01*
X69538223Y-87925560D01*
X69438327Y-87931082D01*
X69320300Y-87916244D01*
X69185554Y-87840789D01*
X69010049Y-87684517D01*
X68769742Y-87427226D01*
X68576939Y-87207276D01*
X68327709Y-86914133D01*
X68128910Y-86670740D01*
X68001398Y-86503310D01*
X67965279Y-86438499D01*
X68050847Y-86453172D01*
X68278591Y-86508691D01*
X68627819Y-86599561D01*
X69077838Y-86720286D01*
X69607955Y-86865372D01*
X70197479Y-87029323D01*
X70329083Y-87066251D01*
X70924624Y-87235713D01*
X71460791Y-87392306D01*
X71917713Y-87529899D01*
X72275522Y-87642364D01*
X72514347Y-87723573D01*
X72614320Y-87767397D01*
X72615600Y-87771528D01*
X76154869Y-87771528D01*
X76207203Y-87673296D01*
X76372162Y-87388558D01*
X76491200Y-87192387D01*
X76930566Y-86480314D01*
X77379311Y-88081740D01*
X77517616Y-88579213D01*
X77638721Y-89022289D01*
X77735600Y-89384640D01*
X77801225Y-89639938D01*
X77828569Y-89761853D01*
X77828945Y-89766320D01*
X78543853Y-89766320D01*
X78508820Y-89629609D01*
X78379578Y-89121838D01*
X78299827Y-88807055D01*
X78164504Y-88265234D01*
X78046223Y-87778490D01*
X77950516Y-87370696D01*
X77882916Y-87065729D01*
X77848957Y-86887463D01*
X77846704Y-86851856D01*
X77909331Y-86892758D01*
X78071840Y-87041181D01*
X78318160Y-87281248D01*
X78632214Y-87597081D01*
X78997930Y-87972801D01*
X79290126Y-88277698D01*
X80708085Y-89766627D01*
X81548562Y-89766627D01*
X81549548Y-89623089D01*
X80035730Y-88044461D01*
X79583891Y-87574759D01*
X79132059Y-87107743D01*
X78705457Y-86669287D01*
X78329307Y-86285263D01*
X78028831Y-85981543D01*
X77998275Y-85951125D01*
X76285015Y-85951125D01*
X76272025Y-86041822D01*
X76189778Y-86217089D01*
X76158975Y-86270880D01*
X76034371Y-86486472D01*
X75864861Y-86787267D01*
X75686291Y-87109630D01*
X75679507Y-87122000D01*
X75507397Y-87419807D01*
X75377405Y-87594064D01*
X75261037Y-87675129D01*
X75143050Y-87693500D01*
X75008876Y-87671279D01*
X74733232Y-87608286D01*
X74337538Y-87510022D01*
X73843210Y-87381993D01*
X73271666Y-87229700D01*
X72644326Y-87058647D01*
X72289694Y-86960357D01*
X71648468Y-86780157D01*
X71058800Y-86611641D01*
X70540742Y-86460758D01*
X70114345Y-86333458D01*
X69799659Y-86235692D01*
X69616736Y-86173409D01*
X69579067Y-86156024D01*
X69622643Y-86126282D01*
X69804036Y-86102465D01*
X70091759Y-86087551D01*
X70341067Y-86084000D01*
X70647831Y-86080807D01*
X71092833Y-86072209D01*
X71645095Y-86059005D01*
X72273634Y-86041993D01*
X72947470Y-86021972D01*
X73635623Y-85999739D01*
X73714190Y-85997079D01*
X74351416Y-85976738D01*
X74932447Y-85960751D01*
X75436132Y-85949497D01*
X75841320Y-85943354D01*
X76126860Y-85942701D01*
X76271600Y-85947914D01*
X76285015Y-85951125D01*
X77998275Y-85951125D01*
X77889216Y-85842563D01*
X77256518Y-85219293D01*
X72738343Y-85315902D01*
G37*
X72738343Y-85315902D02*
X71856980Y-85335388D01*
X71009004Y-85355361D01*
X70212887Y-85375301D01*
X69487097Y-85394691D01*
X68850104Y-85413013D01*
X68320380Y-85429748D01*
X67916393Y-85444379D01*
X67656615Y-85456388D01*
X67602130Y-85459956D01*
X66984094Y-85507402D01*
X64808130Y-87837130D01*
X64315882Y-88365233D01*
X63859349Y-88857072D01*
X63451666Y-89298344D01*
X63105968Y-89674740D01*
X62835390Y-89971955D01*
X62653066Y-90175683D01*
X62572131Y-90271618D01*
X62570129Y-90274716D01*
X62560283Y-90374562D01*
X62550807Y-90630634D01*
X62541829Y-91029824D01*
X62533481Y-91559025D01*
X62525891Y-92205130D01*
X62519189Y-92955032D01*
X62513506Y-93795623D01*
X62508970Y-94713795D01*
X62505711Y-95696442D01*
X62503860Y-96730456D01*
X62503633Y-96994535D01*
X62499174Y-103606497D01*
X63795414Y-105111498D01*
X64217440Y-105603594D01*
X64651562Y-106113502D01*
X65068909Y-106607046D01*
X65440610Y-107050054D01*
X65737793Y-107408351D01*
X65800041Y-107484333D01*
X66508429Y-108352167D01*
X71258965Y-108351009D01*
X76009500Y-108349851D01*
X76882373Y-107674833D01*
X75197579Y-107674833D01*
X72096928Y-107674833D01*
X71393226Y-107673811D01*
X70747590Y-107670899D01*
X70178438Y-107666334D01*
X69704188Y-107660349D01*
X69343259Y-107653179D01*
X69114068Y-107645058D01*
X69035033Y-107636221D01*
X69035266Y-107635845D01*
X69132005Y-107592595D01*
X69366447Y-107508022D01*
X69715398Y-107389419D01*
X70155666Y-107244084D01*
X70664055Y-107079312D01*
X71217373Y-106902399D01*
X71792426Y-106720640D01*
X72366021Y-106541331D01*
X72914962Y-106371768D01*
X73416058Y-106219247D01*
X73846114Y-106091063D01*
X74181936Y-105994511D01*
X74400331Y-105936889D01*
X74476897Y-105924149D01*
X74568987Y-106024809D01*
X74659838Y-106219389D01*
X74669234Y-106247476D01*
X74746607Y-106473722D01*
X74860277Y-106787671D01*
X74978800Y-107103333D01*
X75197579Y-107674833D01*
X76882373Y-107674833D01*
X78634167Y-106320122D01*
X79217845Y-105866881D01*
X79761276Y-105441310D01*
X80249357Y-105055503D01*
X80666989Y-104721555D01*
X80999070Y-104451559D01*
X81230500Y-104257609D01*
X81346177Y-104151802D01*
X81354881Y-104141113D01*
X81373972Y-104054211D01*
X81379411Y-103991833D01*
X80420879Y-103991833D01*
X80360458Y-104055818D01*
X80184543Y-104203921D01*
X79914245Y-104420194D01*
X79570672Y-104688692D01*
X79174935Y-104993465D01*
X78748144Y-105318566D01*
X78311409Y-105648049D01*
X77885840Y-105965965D01*
X77492547Y-106256366D01*
X77152639Y-106503307D01*
X76887227Y-106690838D01*
X76717420Y-106803012D01*
X76666384Y-106828167D01*
X76693754Y-106756217D01*
X76789304Y-106553346D01*
X76943387Y-106239021D01*
X77146359Y-105832709D01*
X77388572Y-105353879D01*
X77660381Y-104821997D01*
X77662775Y-104817333D01*
X77939690Y-104280011D01*
X78193199Y-103791800D01*
X78223494Y-103733973D01*
X77388529Y-103733973D01*
X77360336Y-103814082D01*
X77266347Y-104023275D01*
X77117057Y-104339465D01*
X76922963Y-104740562D01*
X76694561Y-105204479D01*
X76588534Y-105417534D01*
X76346691Y-105898772D01*
X76130518Y-106322823D01*
X75951140Y-106668364D01*
X75819684Y-106914070D01*
X75747275Y-107038618D01*
X75737010Y-107049565D01*
X75703378Y-106962932D01*
X75634375Y-106752275D01*
X75542406Y-106456022D01*
X75499151Y-106312765D01*
X75405440Y-105980209D01*
X75338467Y-105704097D01*
X75336153Y-105690543D01*
X72878357Y-105690543D01*
X72876834Y-105691677D01*
X72745053Y-105739141D01*
X72482425Y-105827436D01*
X72111528Y-105949371D01*
X71654941Y-106097753D01*
X71135240Y-106265391D01*
X70575004Y-106445092D01*
X69996811Y-106629665D01*
X69423238Y-106811917D01*
X68876863Y-106984658D01*
X68380264Y-107140694D01*
X67956019Y-107272833D01*
X67626706Y-107373885D01*
X67414902Y-107436657D01*
X67343170Y-107454374D01*
X67369925Y-107375874D01*
X67465086Y-107179284D01*
X67613785Y-106893956D01*
X67801150Y-106549240D01*
X67808047Y-106536781D01*
X68303255Y-105642833D01*
X70632378Y-105649517D01*
X71235322Y-105652481D01*
X71774256Y-105657510D01*
X72228602Y-105664217D01*
X72577785Y-105672216D01*
X72801229Y-105681120D01*
X72878357Y-105690543D01*
X75336153Y-105690543D01*
X75308436Y-105528258D01*
X75308997Y-105496068D01*
X75376019Y-105414742D01*
X75465939Y-105328486D01*
X67746818Y-105328486D01*
X67407336Y-105930159D01*
X67226477Y-106254492D01*
X67060750Y-106558225D01*
X66942167Y-106782586D01*
X66930336Y-106805937D01*
X66834499Y-106977701D01*
X66772274Y-107054130D01*
X66766196Y-107053418D01*
X66741515Y-106966206D01*
X66688370Y-106738770D01*
X66612437Y-106396743D01*
X66609551Y-106383374D01*
X65891834Y-106383374D01*
X65846600Y-106379864D01*
X65709266Y-106257634D01*
X65477380Y-106013994D01*
X65148493Y-105646251D01*
X64720153Y-105151715D01*
X64189910Y-104527694D01*
X64037644Y-104346987D01*
X63790102Y-104039733D01*
X63604975Y-103783960D01*
X63499805Y-103605611D01*
X63487311Y-103533325D01*
X63594059Y-103474769D01*
X63810763Y-103379037D01*
X64097473Y-103261536D01*
X64414237Y-103137669D01*
X64721103Y-103022842D01*
X64978121Y-102932458D01*
X65145338Y-102881923D01*
X65187125Y-102877902D01*
X65212422Y-102966391D01*
X65263589Y-103191132D01*
X65334588Y-103522075D01*
X65419375Y-103929172D01*
X65511912Y-104382376D01*
X65606158Y-104851638D01*
X65696071Y-105306910D01*
X65775612Y-105718143D01*
X65838739Y-106055291D01*
X65879412Y-106288303D01*
X65891834Y-106383374D01*
X66609551Y-106383374D01*
X66519394Y-105965755D01*
X66414919Y-105471440D01*
X66400371Y-105401836D01*
X66295484Y-104893224D01*
X66203776Y-104436765D01*
X66130610Y-104060124D01*
X66081347Y-103790962D01*
X66061351Y-103656942D01*
X66061167Y-103651938D01*
X66114774Y-103665489D01*
X66262396Y-103786201D01*
X66484237Y-103995850D01*
X66760500Y-104276214D01*
X66903993Y-104427743D01*
X67746818Y-105328486D01*
X75465939Y-105328486D01*
X75544563Y-105253066D01*
X75788279Y-105033367D01*
X76080816Y-104777972D01*
X76395826Y-104509210D01*
X76706959Y-104249407D01*
X76987864Y-104020891D01*
X77212194Y-103845989D01*
X77353597Y-103747028D01*
X77388529Y-103733973D01*
X78223494Y-103733973D01*
X78412538Y-103373135D01*
X78586942Y-103044449D01*
X78705649Y-102826176D01*
X78757524Y-102739134D01*
X78840730Y-102763975D01*
X79022443Y-102873363D01*
X79271043Y-103043485D01*
X79554913Y-103250527D01*
X79842435Y-103470680D01*
X80101991Y-103680129D01*
X80301962Y-103855064D01*
X80410730Y-103971671D01*
X80420879Y-103991833D01*
X81379411Y-103991833D01*
X81391661Y-103851354D01*
X81408062Y-103526856D01*
X81421130Y-103139038D01*
X80601753Y-103139038D01*
X80575995Y-103175689D01*
X80491250Y-103145043D01*
X80327155Y-103036844D01*
X80063342Y-102840831D01*
X79832487Y-102664348D01*
X79025043Y-102044500D01*
X79024517Y-101881281D01*
X78354524Y-101881281D01*
X76553104Y-103423391D01*
X74751684Y-104965500D01*
X68304834Y-104960336D01*
X65873486Y-102246780D01*
X66077130Y-97143190D01*
X66119637Y-96083853D01*
X66156656Y-95180640D01*
X66185628Y-94501913D01*
X65531547Y-94501913D01*
X65526969Y-94737796D01*
X65516267Y-95101637D01*
X65500298Y-95572839D01*
X65479924Y-96130804D01*
X65456004Y-96754935D01*
X65429396Y-97424636D01*
X65400962Y-98119309D01*
X65371560Y-98818357D01*
X65342051Y-99501184D01*
X65313293Y-100147191D01*
X65286147Y-100735783D01*
X65261471Y-101246362D01*
X65240127Y-101658331D01*
X65222972Y-101951093D01*
X65210868Y-102104051D01*
X65207482Y-102121664D01*
X65108359Y-102174211D01*
X64890651Y-102269183D01*
X64594767Y-102390741D01*
X64261115Y-102523048D01*
X63930104Y-102650264D01*
X63642144Y-102756552D01*
X63437642Y-102826073D01*
X63363126Y-102844567D01*
X63281935Y-102785316D01*
X63286324Y-102700667D01*
X63415538Y-102211009D01*
X63568637Y-101634861D01*
X63740780Y-100990115D01*
X63927124Y-100294661D01*
X64122826Y-99566390D01*
X64323043Y-98823192D01*
X64522934Y-98082958D01*
X64717656Y-97363580D01*
X64902365Y-96682947D01*
X65072221Y-96058950D01*
X65222379Y-95509481D01*
X65347998Y-95052429D01*
X65444235Y-94705687D01*
X65506247Y-94487144D01*
X65529140Y-94414583D01*
X65531547Y-94501913D01*
X66185628Y-94501913D01*
X66189105Y-94420465D01*
X66217903Y-93790240D01*
X66243970Y-93276878D01*
X66268226Y-92867292D01*
X66291589Y-92548393D01*
X66314161Y-92315533D01*
X65371425Y-92315533D01*
X65356070Y-92399491D01*
X65300645Y-92631285D01*
X65209200Y-92995269D01*
X65085790Y-93475798D01*
X64934466Y-94057225D01*
X64759282Y-94723902D01*
X64564290Y-95460185D01*
X64353543Y-96250426D01*
X64313091Y-96401508D01*
X63224834Y-100463556D01*
X63202932Y-95885486D01*
X63199680Y-95020874D01*
X63198335Y-94207798D01*
X63198804Y-93461894D01*
X63200995Y-92798797D01*
X63204818Y-92234143D01*
X63210181Y-91783566D01*
X63216991Y-91462703D01*
X63225157Y-91287187D01*
X63230040Y-91258405D01*
X63312165Y-91282258D01*
X63511131Y-91368131D01*
X63793703Y-91499617D01*
X64126645Y-91660309D01*
X64476722Y-91833799D01*
X64810699Y-92003680D01*
X65095341Y-92153546D01*
X65297411Y-92266989D01*
X65371425Y-92315533D01*
X66314161Y-92315533D01*
X66314979Y-92307095D01*
X66339316Y-92130311D01*
X66365518Y-92004953D01*
X66394505Y-91917934D01*
X66427197Y-91856166D01*
X66450830Y-91823407D01*
X66555759Y-91703781D01*
X66760480Y-91482221D01*
X67046662Y-91178120D01*
X67395971Y-90810874D01*
X67790076Y-90399875D01*
X68097861Y-90080951D01*
X69574834Y-88554687D01*
X72250825Y-88462442D01*
X72918964Y-88441257D01*
X73542336Y-88425001D01*
X74098174Y-88413995D01*
X74563710Y-88408562D01*
X74916176Y-88409023D01*
X75132804Y-88415700D01*
X75180917Y-88421017D01*
X75313401Y-88481503D01*
X75515145Y-88628381D01*
X75796202Y-88870500D01*
X76166624Y-89216711D01*
X76636464Y-89675864D01*
X76865259Y-89903914D01*
X78295500Y-91335991D01*
X78354524Y-101881281D01*
X79024517Y-101881281D01*
X79020105Y-100513067D01*
X79016794Y-99971795D01*
X79010277Y-99309903D01*
X79001180Y-98576062D01*
X78990131Y-97818944D01*
X78977757Y-97087219D01*
X78972092Y-96787734D01*
X78962110Y-96203794D01*
X78956101Y-95684758D01*
X78954071Y-95251753D01*
X78956030Y-94925906D01*
X78961987Y-94728344D01*
X78971245Y-94678500D01*
X78995002Y-94776297D01*
X79046829Y-95024033D01*
X79123497Y-95405232D01*
X79221780Y-95903418D01*
X79338449Y-96502113D01*
X79470277Y-97184842D01*
X79614036Y-97935127D01*
X79766498Y-98736493D01*
X79775662Y-98784833D01*
X79929341Y-99595101D01*
X80074755Y-100360603D01*
X80208599Y-101064027D01*
X80327569Y-101688061D01*
X80428360Y-102215393D01*
X80507668Y-102628713D01*
X80562188Y-102910708D01*
X80588617Y-103044066D01*
X80588890Y-103045348D01*
X80601753Y-103139038D01*
X81421130Y-103139038D01*
X81423287Y-103075032D01*
X81437448Y-102490198D01*
X81450659Y-101766669D01*
X81463032Y-100898759D01*
X81474679Y-99880783D01*
X81485714Y-98707057D01*
X81496249Y-97371895D01*
X81500238Y-96807461D01*
X81540512Y-90939511D01*
X80865435Y-90939511D01*
X80864649Y-91320272D01*
X80861835Y-91825537D01*
X80857108Y-92440368D01*
X80850579Y-93149828D01*
X80842364Y-93938979D01*
X80832573Y-94792882D01*
X80822839Y-95578704D01*
X80810939Y-96471380D01*
X80798879Y-97307985D01*
X80786926Y-98074187D01*
X80775349Y-98755656D01*
X80764414Y-99338058D01*
X80754390Y-99807065D01*
X80745543Y-100148343D01*
X80738143Y-100347562D01*
X80732928Y-100393500D01*
X80712470Y-100288201D01*
X80663479Y-100032354D01*
X80588966Y-99641779D01*
X80491941Y-99132297D01*
X80375414Y-98519730D01*
X80242396Y-97819898D01*
X80095897Y-97048621D01*
X79938927Y-96221722D01*
X79862985Y-95821500D01*
X79704212Y-94978357D01*
X79557435Y-94186658D01*
X79425334Y-93461733D01*
X79310594Y-92818907D01*
X79215896Y-92273508D01*
X79143924Y-91840864D01*
X79097359Y-91536303D01*
X79078886Y-91375151D01*
X79080914Y-91353177D01*
X79179177Y-91311437D01*
X79397911Y-91216439D01*
X79702632Y-91083210D01*
X79988492Y-90957724D01*
X80332431Y-90809658D01*
X80614024Y-90694415D01*
X80800764Y-90624912D01*
X80860474Y-90611251D01*
X80864081Y-90698192D01*
X80865435Y-90939511D01*
X81540512Y-90939511D01*
X81548562Y-89766627D01*
X80708085Y-89766627D01*
X79755793Y-90245293D01*
X79395077Y-90425211D01*
X79094998Y-90572238D01*
X78884528Y-90672371D01*
X78792639Y-90711611D01*
X78790957Y-90711562D01*
X78767560Y-90629639D01*
X78708767Y-90406607D01*
X78620535Y-90065565D01*
X78543853Y-89766320D01*
X77828945Y-89766320D01*
X77773332Y-89739544D01*
X77619511Y-89610555D01*
X77387990Y-89397889D01*
X77099276Y-89120084D01*
X76940834Y-88963500D01*
X76628164Y-88646337D01*
X76363632Y-88367410D01*
X76353428Y-88356039D01*
X68685834Y-88356039D01*
X68632084Y-88436576D01*
X68485169Y-88613520D01*
X68266593Y-88863548D01*
X67997862Y-89163331D01*
X67700477Y-89489544D01*
X67395944Y-89818861D01*
X67105766Y-90127956D01*
X66851448Y-90393502D01*
X66654493Y-90592174D01*
X66536405Y-90700646D01*
X66512728Y-90713282D01*
X66518038Y-90624283D01*
X66551669Y-90395526D01*
X66609181Y-90053389D01*
X66686137Y-89624247D01*
X66778099Y-89134480D01*
X66780074Y-89124180D01*
X66881486Y-88596731D01*
X66978447Y-88094752D01*
X67063889Y-87654663D01*
X67130744Y-87312885D01*
X67168073Y-87124924D01*
X66452147Y-87124924D01*
X66444596Y-87212585D01*
X66407932Y-87444079D01*
X66346142Y-87797168D01*
X66263213Y-88249619D01*
X66163129Y-88779196D01*
X66060785Y-89307964D01*
X65947494Y-89887510D01*
X65845663Y-90409182D01*
X65759587Y-90850923D01*
X65693559Y-91190677D01*
X65651872Y-91406385D01*
X65638710Y-91476287D01*
X65568075Y-91455847D01*
X65379335Y-91372877D01*
X65104429Y-91243329D01*
X64775297Y-91083160D01*
X64423878Y-90908324D01*
X64082113Y-90734777D01*
X63781941Y-90578473D01*
X63555302Y-90455368D01*
X63434135Y-90381417D01*
X63422354Y-90369135D01*
X63477126Y-90292340D01*
X63628985Y-90114752D01*
X63859515Y-89856093D01*
X64150301Y-89536080D01*
X64482927Y-89174433D01*
X64838978Y-88790871D01*
X65200036Y-88405113D01*
X65547687Y-88036877D01*
X65863515Y-87705884D01*
X66129104Y-87431852D01*
X66326039Y-87234499D01*
X66435903Y-87133546D01*
X66452147Y-87124924D01*
X67168073Y-87124924D01*
X67168207Y-87124250D01*
X67257572Y-86682000D01*
X67971703Y-87485631D01*
X68241569Y-87794297D01*
X68464720Y-88059015D01*
X68619695Y-88253626D01*
X68685036Y-88351975D01*
X68685834Y-88356039D01*
X76353428Y-88356039D01*
X76168431Y-88149902D01*
X76063756Y-88017000D01*
X76051834Y-87990993D01*
X76093926Y-87885923D01*
X76154869Y-87771528D01*
X72615600Y-87771528D01*
X72518961Y-87790191D01*
X72281620Y-87811274D01*
X71932157Y-87832949D01*
X71499149Y-87853391D01*
X71113183Y-87867582D01*
X70618122Y-87884144D01*
X70168500Y-87900165D01*
X69797479Y-87914390D01*
X69538223Y-87925560D01*
X69438327Y-87931082D01*
X69320300Y-87916244D01*
X69185554Y-87840789D01*
X69010049Y-87684517D01*
X68769742Y-87427226D01*
X68576939Y-87207276D01*
X68327709Y-86914133D01*
X68128910Y-86670740D01*
X68001398Y-86503310D01*
X67965279Y-86438499D01*
X68050847Y-86453172D01*
X68278591Y-86508691D01*
X68627819Y-86599561D01*
X69077838Y-86720286D01*
X69607955Y-86865372D01*
X70197479Y-87029323D01*
X70329083Y-87066251D01*
X70924624Y-87235713D01*
X71460791Y-87392306D01*
X71917713Y-87529899D01*
X72275522Y-87642364D01*
X72514347Y-87723573D01*
X72614320Y-87767397D01*
X72615600Y-87771528D01*
X76154869Y-87771528D01*
X76207203Y-87673296D01*
X76372162Y-87388558D01*
X76491200Y-87192387D01*
X76930566Y-86480314D01*
X77379311Y-88081740D01*
X77517616Y-88579213D01*
X77638721Y-89022289D01*
X77735600Y-89384640D01*
X77801225Y-89639938D01*
X77828569Y-89761853D01*
X77828945Y-89766320D01*
X78543853Y-89766320D01*
X78508820Y-89629609D01*
X78379578Y-89121838D01*
X78299827Y-88807055D01*
X78164504Y-88265234D01*
X78046223Y-87778490D01*
X77950516Y-87370696D01*
X77882916Y-87065729D01*
X77848957Y-86887463D01*
X77846704Y-86851856D01*
X77909331Y-86892758D01*
X78071840Y-87041181D01*
X78318160Y-87281248D01*
X78632214Y-87597081D01*
X78997930Y-87972801D01*
X79290126Y-88277698D01*
X80708085Y-89766627D01*
X81548562Y-89766627D01*
X81549548Y-89623089D01*
X80035730Y-88044461D01*
X79583891Y-87574759D01*
X79132059Y-87107743D01*
X78705457Y-86669287D01*
X78329307Y-86285263D01*
X78028831Y-85981543D01*
X77998275Y-85951125D01*
X76285015Y-85951125D01*
X76272025Y-86041822D01*
X76189778Y-86217089D01*
X76158975Y-86270880D01*
X76034371Y-86486472D01*
X75864861Y-86787267D01*
X75686291Y-87109630D01*
X75679507Y-87122000D01*
X75507397Y-87419807D01*
X75377405Y-87594064D01*
X75261037Y-87675129D01*
X75143050Y-87693500D01*
X75008876Y-87671279D01*
X74733232Y-87608286D01*
X74337538Y-87510022D01*
X73843210Y-87381993D01*
X73271666Y-87229700D01*
X72644326Y-87058647D01*
X72289694Y-86960357D01*
X71648468Y-86780157D01*
X71058800Y-86611641D01*
X70540742Y-86460758D01*
X70114345Y-86333458D01*
X69799659Y-86235692D01*
X69616736Y-86173409D01*
X69579067Y-86156024D01*
X69622643Y-86126282D01*
X69804036Y-86102465D01*
X70091759Y-86087551D01*
X70341067Y-86084000D01*
X70647831Y-86080807D01*
X71092833Y-86072209D01*
X71645095Y-86059005D01*
X72273634Y-86041993D01*
X72947470Y-86021972D01*
X73635623Y-85999739D01*
X73714190Y-85997079D01*
X74351416Y-85976738D01*
X74932447Y-85960751D01*
X75436132Y-85949497D01*
X75841320Y-85943354D01*
X76126860Y-85942701D01*
X76271600Y-85947914D01*
X76285015Y-85951125D01*
X77998275Y-85951125D01*
X77889216Y-85842563D01*
X77256518Y-85219293D01*
X72738343Y-85315902D01*
G36*
X43574467Y-83950271D02*
G01*
X43307854Y-84082409D01*
X43004813Y-84330765D01*
X42808943Y-84522500D01*
X42287103Y-85167320D01*
X41881517Y-85925190D01*
X41590476Y-86800573D01*
X41412268Y-87797935D01*
X41368851Y-88281290D01*
X41359609Y-89157333D01*
X41435269Y-90095280D01*
X41587102Y-91059485D01*
X41806378Y-92014305D01*
X42084368Y-92924096D01*
X42412342Y-93753213D01*
X42781571Y-94466011D01*
X42945951Y-94720833D01*
X43006430Y-94840292D01*
X43052805Y-95018542D01*
X43088589Y-95282438D01*
X43117296Y-95658835D01*
X43142437Y-96174587D01*
X43145289Y-96244833D01*
X43219082Y-97322795D01*
X43355219Y-98297327D01*
X43563652Y-99226023D01*
X43790525Y-99978841D01*
X44139124Y-100893667D01*
X44568551Y-101805847D01*
X45054576Y-102671428D01*
X45572969Y-103446458D01*
X45986532Y-103962492D01*
X46237319Y-104300411D01*
X46333647Y-104570073D01*
X46334839Y-104597492D01*
X46357454Y-104819687D01*
X46413975Y-105117667D01*
X46454585Y-105284552D01*
X46751695Y-106118495D01*
X47165356Y-106833887D01*
X47691189Y-107426157D01*
X48324810Y-107890738D01*
X49061839Y-108223058D01*
X49355866Y-108310539D01*
X49767913Y-108382324D01*
X50283726Y-108420783D01*
X50842203Y-108426092D01*
X51382240Y-108398424D01*
X51842735Y-108337953D01*
X51996990Y-108303013D01*
X52768838Y-108011441D01*
X53450443Y-107580619D01*
X54033488Y-107019490D01*
X54509659Y-106337000D01*
X54870636Y-105542093D01*
X55018945Y-105052837D01*
X55119925Y-104725110D01*
X55254849Y-104455616D01*
X55460950Y-104179191D01*
X55623679Y-103994504D01*
X56413075Y-103002885D01*
X57083489Y-101892873D01*
X57633755Y-100667705D01*
X58062703Y-99330619D01*
X58369165Y-97884853D01*
X58551972Y-96333644D01*
X58585507Y-95787883D01*
X58609386Y-95333332D01*
X58635691Y-95008024D01*
X58672999Y-94771983D01*
X58729886Y-94585232D01*
X58814927Y-94407791D01*
X58920436Y-94226650D01*
X59350768Y-93361947D01*
X59682954Y-92360973D01*
X59916568Y-91225749D01*
X60051181Y-89958297D01*
X60074397Y-89156588D01*
X59448757Y-89156588D01*
X59434102Y-89769006D01*
X59398490Y-90307639D01*
X59373372Y-90529787D01*
X59195519Y-91579154D01*
X58960372Y-92512668D01*
X58672702Y-93314689D01*
X58337279Y-93969574D01*
X58312018Y-94009685D01*
X58192934Y-94206273D01*
X58111146Y-94382710D01*
X58056868Y-94581075D01*
X58020315Y-94843447D01*
X57991703Y-95211904D01*
X57977319Y-95449018D01*
X57843542Y-96969361D01*
X57625713Y-98351076D01*
X57320143Y-99604587D01*
X56923140Y-100740315D01*
X56431015Y-101768683D01*
X55840079Y-102700112D01*
X55146641Y-103545026D01*
X55089257Y-103606407D01*
X54811455Y-103914477D01*
X54632940Y-104154094D01*
X54526122Y-104368944D01*
X54464920Y-104594967D01*
X54234019Y-105444139D01*
X53901647Y-106158623D01*
X53466860Y-106739997D01*
X52928713Y-107189839D01*
X52900558Y-107207964D01*
X52191641Y-107561047D01*
X51412069Y-107772942D01*
X50592431Y-107838191D01*
X49806859Y-107759821D01*
X49068076Y-107540891D01*
X48427767Y-107186811D01*
X47892284Y-106704510D01*
X47467981Y-106100922D01*
X47161209Y-105382977D01*
X46998906Y-104696040D01*
X46943966Y-104398951D01*
X46875270Y-104168127D01*
X46768438Y-103954182D01*
X46599087Y-103707733D01*
X46358604Y-103399167D01*
X45540131Y-102242395D01*
X44878240Y-101021907D01*
X44372649Y-99736878D01*
X44023078Y-98386489D01*
X43829245Y-96969917D01*
X43785908Y-95879100D01*
X43785075Y-94793700D01*
X43493719Y-94388154D01*
X43245529Y-94001504D01*
X43018161Y-93552902D01*
X42796349Y-93008261D01*
X42564826Y-92333491D01*
X42543082Y-92265500D01*
X42258483Y-91192280D01*
X42080409Y-90113260D01*
X42008821Y-89054048D01*
X42043682Y-88040250D01*
X42184955Y-87097473D01*
X42432602Y-86251323D01*
X42552303Y-85965425D01*
X42729280Y-85648011D01*
X42963232Y-85321070D01*
X43224383Y-85016875D01*
X43482954Y-84767699D01*
X43709170Y-84605813D01*
X43848290Y-84560833D01*
X44078469Y-84636835D01*
X44362811Y-84855195D01*
X44691616Y-85201440D01*
X45055182Y-85661101D01*
X45443808Y-86219705D01*
X45847794Y-86862783D01*
X46257437Y-87575862D01*
X46663037Y-88344473D01*
X47054893Y-89154143D01*
X47310593Y-89725500D01*
X47476017Y-90108865D01*
X47607607Y-90374919D01*
X47739112Y-90540397D01*
X47904282Y-90622036D01*
X48136865Y-90636574D01*
X48470612Y-90600747D01*
X48936322Y-90531726D01*
X49993594Y-90414389D01*
X50981498Y-90391374D01*
X51971183Y-90462507D01*
X52423580Y-90523291D01*
X52903171Y-90598335D01*
X53254834Y-90644411D01*
X53509917Y-90644365D01*
X53699765Y-90581042D01*
X53855725Y-90437288D01*
X54009144Y-90195949D01*
X54191368Y-89839871D01*
X54384225Y-89450333D01*
X54759046Y-88712916D01*
X55088366Y-88092270D01*
X55394216Y-87549882D01*
X55698629Y-87047240D01*
X56023639Y-86545832D01*
X56170669Y-86327690D01*
X56504008Y-85872730D01*
X56852672Y-85457663D01*
X57192275Y-85107177D01*
X57498430Y-84845962D01*
X57746749Y-84698705D01*
X57795288Y-84682998D01*
X58081415Y-84694165D01*
X58374517Y-84854438D01*
X58658786Y-85145130D01*
X58918416Y-85547554D01*
X59137597Y-86043022D01*
X59249971Y-86402671D01*
X59321974Y-86777608D01*
X59379062Y-87280895D01*
X59420028Y-87872106D01*
X59443663Y-88510812D01*
X59448757Y-89156588D01*
X60074397Y-89156588D01*
X60087345Y-88709500D01*
X60082487Y-88108902D01*
X60070016Y-87640134D01*
X60046818Y-87265752D01*
X60009777Y-86948312D01*
X59955776Y-86650371D01*
X59893713Y-86382464D01*
X59658619Y-85631878D01*
X59362652Y-85019816D01*
X59010779Y-84552143D01*
X58607965Y-84234724D01*
X58159176Y-84073423D01*
X57921569Y-84053150D01*
X57504867Y-84136022D01*
X57056813Y-84385265D01*
X56577431Y-84800850D01*
X56066747Y-85382746D01*
X55524785Y-86130924D01*
X54951569Y-87045354D01*
X54347125Y-88126006D01*
X53995270Y-88803242D01*
X53367909Y-90039983D01*
X52750705Y-89926880D01*
X51681493Y-89786568D01*
X50585179Y-89745127D01*
X49530444Y-89804036D01*
X49175477Y-89849892D01*
X48786367Y-89904773D01*
X48461899Y-89943105D01*
X48236531Y-89961327D01*
X48145116Y-89956338D01*
X48095857Y-89868311D01*
X47989073Y-89654839D01*
X47838502Y-89344085D01*
X47657885Y-88964212D01*
X47572392Y-88782335D01*
X47053872Y-87723433D01*
X46545546Y-86779731D01*
X46052650Y-85958587D01*
X45580420Y-85267358D01*
X45134093Y-84713402D01*
X44718904Y-84304075D01*
X44340090Y-84046735D01*
X44149408Y-83972719D01*
X43842402Y-83918868D01*
X43574467Y-83950271D01*
G37*
X43574467Y-83950271D02*
X43307854Y-84082409D01*
X43004813Y-84330765D01*
X42808943Y-84522500D01*
X42287103Y-85167320D01*
X41881517Y-85925190D01*
X41590476Y-86800573D01*
X41412268Y-87797935D01*
X41368851Y-88281290D01*
X41359609Y-89157333D01*
X41435269Y-90095280D01*
X41587102Y-91059485D01*
X41806378Y-92014305D01*
X42084368Y-92924096D01*
X42412342Y-93753213D01*
X42781571Y-94466011D01*
X42945951Y-94720833D01*
X43006430Y-94840292D01*
X43052805Y-95018542D01*
X43088589Y-95282438D01*
X43117296Y-95658835D01*
X43142437Y-96174587D01*
X43145289Y-96244833D01*
X43219082Y-97322795D01*
X43355219Y-98297327D01*
X43563652Y-99226023D01*
X43790525Y-99978841D01*
X44139124Y-100893667D01*
X44568551Y-101805847D01*
X45054576Y-102671428D01*
X45572969Y-103446458D01*
X45986532Y-103962492D01*
X46237319Y-104300411D01*
X46333647Y-104570073D01*
X46334839Y-104597492D01*
X46357454Y-104819687D01*
X46413975Y-105117667D01*
X46454585Y-105284552D01*
X46751695Y-106118495D01*
X47165356Y-106833887D01*
X47691189Y-107426157D01*
X48324810Y-107890738D01*
X49061839Y-108223058D01*
X49355866Y-108310539D01*
X49767913Y-108382324D01*
X50283726Y-108420783D01*
X50842203Y-108426092D01*
X51382240Y-108398424D01*
X51842735Y-108337953D01*
X51996990Y-108303013D01*
X52768838Y-108011441D01*
X53450443Y-107580619D01*
X54033488Y-107019490D01*
X54509659Y-106337000D01*
X54870636Y-105542093D01*
X55018945Y-105052837D01*
X55119925Y-104725110D01*
X55254849Y-104455616D01*
X55460950Y-104179191D01*
X55623679Y-103994504D01*
X56413075Y-103002885D01*
X57083489Y-101892873D01*
X57633755Y-100667705D01*
X58062703Y-99330619D01*
X58369165Y-97884853D01*
X58551972Y-96333644D01*
X58585507Y-95787883D01*
X58609386Y-95333332D01*
X58635691Y-95008024D01*
X58672999Y-94771983D01*
X58729886Y-94585232D01*
X58814927Y-94407791D01*
X58920436Y-94226650D01*
X59350768Y-93361947D01*
X59682954Y-92360973D01*
X59916568Y-91225749D01*
X60051181Y-89958297D01*
X60074397Y-89156588D01*
X59448757Y-89156588D01*
X59434102Y-89769006D01*
X59398490Y-90307639D01*
X59373372Y-90529787D01*
X59195519Y-91579154D01*
X58960372Y-92512668D01*
X58672702Y-93314689D01*
X58337279Y-93969574D01*
X58312018Y-94009685D01*
X58192934Y-94206273D01*
X58111146Y-94382710D01*
X58056868Y-94581075D01*
X58020315Y-94843447D01*
X57991703Y-95211904D01*
X57977319Y-95449018D01*
X57843542Y-96969361D01*
X57625713Y-98351076D01*
X57320143Y-99604587D01*
X56923140Y-100740315D01*
X56431015Y-101768683D01*
X55840079Y-102700112D01*
X55146641Y-103545026D01*
X55089257Y-103606407D01*
X54811455Y-103914477D01*
X54632940Y-104154094D01*
X54526122Y-104368944D01*
X54464920Y-104594967D01*
X54234019Y-105444139D01*
X53901647Y-106158623D01*
X53466860Y-106739997D01*
X52928713Y-107189839D01*
X52900558Y-107207964D01*
X52191641Y-107561047D01*
X51412069Y-107772942D01*
X50592431Y-107838191D01*
X49806859Y-107759821D01*
X49068076Y-107540891D01*
X48427767Y-107186811D01*
X47892284Y-106704510D01*
X47467981Y-106100922D01*
X47161209Y-105382977D01*
X46998906Y-104696040D01*
X46943966Y-104398951D01*
X46875270Y-104168127D01*
X46768438Y-103954182D01*
X46599087Y-103707733D01*
X46358604Y-103399167D01*
X45540131Y-102242395D01*
X44878240Y-101021907D01*
X44372649Y-99736878D01*
X44023078Y-98386489D01*
X43829245Y-96969917D01*
X43785908Y-95879100D01*
X43785075Y-94793700D01*
X43493719Y-94388154D01*
X43245529Y-94001504D01*
X43018161Y-93552902D01*
X42796349Y-93008261D01*
X42564826Y-92333491D01*
X42543082Y-92265500D01*
X42258483Y-91192280D01*
X42080409Y-90113260D01*
X42008821Y-89054048D01*
X42043682Y-88040250D01*
X42184955Y-87097473D01*
X42432602Y-86251323D01*
X42552303Y-85965425D01*
X42729280Y-85648011D01*
X42963232Y-85321070D01*
X43224383Y-85016875D01*
X43482954Y-84767699D01*
X43709170Y-84605813D01*
X43848290Y-84560833D01*
X44078469Y-84636835D01*
X44362811Y-84855195D01*
X44691616Y-85201440D01*
X45055182Y-85661101D01*
X45443808Y-86219705D01*
X45847794Y-86862783D01*
X46257437Y-87575862D01*
X46663037Y-88344473D01*
X47054893Y-89154143D01*
X47310593Y-89725500D01*
X47476017Y-90108865D01*
X47607607Y-90374919D01*
X47739112Y-90540397D01*
X47904282Y-90622036D01*
X48136865Y-90636574D01*
X48470612Y-90600747D01*
X48936322Y-90531726D01*
X49993594Y-90414389D01*
X50981498Y-90391374D01*
X51971183Y-90462507D01*
X52423580Y-90523291D01*
X52903171Y-90598335D01*
X53254834Y-90644411D01*
X53509917Y-90644365D01*
X53699765Y-90581042D01*
X53855725Y-90437288D01*
X54009144Y-90195949D01*
X54191368Y-89839871D01*
X54384225Y-89450333D01*
X54759046Y-88712916D01*
X55088366Y-88092270D01*
X55394216Y-87549882D01*
X55698629Y-87047240D01*
X56023639Y-86545832D01*
X56170669Y-86327690D01*
X56504008Y-85872730D01*
X56852672Y-85457663D01*
X57192275Y-85107177D01*
X57498430Y-84845962D01*
X57746749Y-84698705D01*
X57795288Y-84682998D01*
X58081415Y-84694165D01*
X58374517Y-84854438D01*
X58658786Y-85145130D01*
X58918416Y-85547554D01*
X59137597Y-86043022D01*
X59249971Y-86402671D01*
X59321974Y-86777608D01*
X59379062Y-87280895D01*
X59420028Y-87872106D01*
X59443663Y-88510812D01*
X59448757Y-89156588D01*
X60074397Y-89156588D01*
X60087345Y-88709500D01*
X60082487Y-88108902D01*
X60070016Y-87640134D01*
X60046818Y-87265752D01*
X60009777Y-86948312D01*
X59955776Y-86650371D01*
X59893713Y-86382464D01*
X59658619Y-85631878D01*
X59362652Y-85019816D01*
X59010779Y-84552143D01*
X58607965Y-84234724D01*
X58159176Y-84073423D01*
X57921569Y-84053150D01*
X57504867Y-84136022D01*
X57056813Y-84385265D01*
X56577431Y-84800850D01*
X56066747Y-85382746D01*
X55524785Y-86130924D01*
X54951569Y-87045354D01*
X54347125Y-88126006D01*
X53995270Y-88803242D01*
X53367909Y-90039983D01*
X52750705Y-89926880D01*
X51681493Y-89786568D01*
X50585179Y-89745127D01*
X49530444Y-89804036D01*
X49175477Y-89849892D01*
X48786367Y-89904773D01*
X48461899Y-89943105D01*
X48236531Y-89961327D01*
X48145116Y-89956338D01*
X48095857Y-89868311D01*
X47989073Y-89654839D01*
X47838502Y-89344085D01*
X47657885Y-88964212D01*
X47572392Y-88782335D01*
X47053872Y-87723433D01*
X46545546Y-86779731D01*
X46052650Y-85958587D01*
X45580420Y-85267358D01*
X45134093Y-84713402D01*
X44718904Y-84304075D01*
X44340090Y-84046735D01*
X44149408Y-83972719D01*
X43842402Y-83918868D01*
X43574467Y-83950271D01*
G36*
X50266757Y-110730899D02*
G01*
X49973038Y-110935901D01*
X49824354Y-111113717D01*
X49713146Y-111339676D01*
X49634819Y-111638142D01*
X49584780Y-112033483D01*
X49558435Y-112550065D01*
X49551167Y-113173325D01*
X49551167Y-114448167D01*
X50651834Y-114448167D01*
X50652990Y-113284000D01*
X50656657Y-112729087D01*
X50669029Y-112322246D01*
X50694059Y-112042285D01*
X50735699Y-111868010D01*
X50797903Y-111778226D01*
X50884622Y-111751740D01*
X50938037Y-111755557D01*
X51005721Y-111772582D01*
X51054457Y-111817999D01*
X51087987Y-111916884D01*
X51110052Y-112094315D01*
X51124394Y-112375370D01*
X51134755Y-112785127D01*
X51140817Y-113114667D01*
X51164134Y-114448167D01*
X52260500Y-114448167D01*
X52260500Y-113004629D01*
X52256281Y-112412951D01*
X52242612Y-111969128D01*
X52217979Y-111651864D01*
X52180867Y-111439868D01*
X52141545Y-111332462D01*
X51874697Y-110984360D01*
X51515236Y-110743102D01*
X51101721Y-110615738D01*
X50672708Y-110609320D01*
X50266757Y-110730899D01*
G37*
X50266757Y-110730899D02*
X49973038Y-110935901D01*
X49824354Y-111113717D01*
X49713146Y-111339676D01*
X49634819Y-111638142D01*
X49584780Y-112033483D01*
X49558435Y-112550065D01*
X49551167Y-113173325D01*
X49551167Y-114448167D01*
X50651834Y-114448167D01*
X50652990Y-113284000D01*
X50656657Y-112729087D01*
X50669029Y-112322246D01*
X50694059Y-112042285D01*
X50735699Y-111868010D01*
X50797903Y-111778226D01*
X50884622Y-111751740D01*
X50938037Y-111755557D01*
X51005721Y-111772582D01*
X51054457Y-111817999D01*
X51087987Y-111916884D01*
X51110052Y-112094315D01*
X51124394Y-112375370D01*
X51134755Y-112785127D01*
X51140817Y-113114667D01*
X51164134Y-114448167D01*
X52260500Y-114448167D01*
X52260500Y-113004629D01*
X52256281Y-112412951D01*
X52242612Y-111969128D01*
X52217979Y-111651864D01*
X52180867Y-111439868D01*
X52141545Y-111332462D01*
X51874697Y-110984360D01*
X51515236Y-110743102D01*
X51101721Y-110615738D01*
X50672708Y-110609320D01*
X50266757Y-110730899D01*
G36*
X52957381Y-112564333D02*
G01*
X52934594Y-114448167D01*
X54126407Y-114448167D01*
X54103620Y-112564333D01*
X54080834Y-110680500D01*
X52980167Y-110680500D01*
X52957381Y-112564333D01*
G37*
X52957381Y-112564333D02*
X52934594Y-114448167D01*
X54126407Y-114448167D01*
X54103620Y-112564333D01*
X54080834Y-110680500D01*
X52980167Y-110680500D01*
X52957381Y-112564333D01*
G36*
X57123213Y-110665958D02*
G01*
X56523643Y-110709437D01*
X56060843Y-110778088D01*
X55702885Y-110882411D01*
X55417844Y-111032908D01*
X55173791Y-111240080D01*
X55084630Y-111336449D01*
X54806872Y-111743343D01*
X54666454Y-112192663D01*
X54651423Y-112724670D01*
X54656019Y-112780265D01*
X54731785Y-113206249D01*
X54887752Y-113552366D01*
X54942349Y-113635755D01*
X55268552Y-113976602D01*
X55699382Y-114245113D01*
X56175284Y-114410404D01*
X56509016Y-114448167D01*
X56917167Y-114448167D01*
X56917167Y-113897833D01*
X56913535Y-113602041D01*
X56892700Y-113437294D01*
X56839752Y-113365318D01*
X56739781Y-113347840D01*
X56702781Y-113347500D01*
X56475964Y-113314341D01*
X56216747Y-113233864D01*
X56200628Y-113227263D01*
X55944318Y-113037143D01*
X55804088Y-112752529D01*
X55793430Y-112413647D01*
X55855728Y-112198875D01*
X56045568Y-111957470D01*
X56367527Y-111801625D01*
X56802874Y-111739963D01*
X56853667Y-111739305D01*
X57086500Y-111738833D01*
X57086500Y-114448167D01*
X58187167Y-114448167D01*
X58187167Y-110612035D01*
X57123213Y-110665958D01*
G37*
X57123213Y-110665958D02*
X56523643Y-110709437D01*
X56060843Y-110778088D01*
X55702885Y-110882411D01*
X55417844Y-111032908D01*
X55173791Y-111240080D01*
X55084630Y-111336449D01*
X54806872Y-111743343D01*
X54666454Y-112192663D01*
X54651423Y-112724670D01*
X54656019Y-112780265D01*
X54731785Y-113206249D01*
X54887752Y-113552366D01*
X54942349Y-113635755D01*
X55268552Y-113976602D01*
X55699382Y-114245113D01*
X56175284Y-114410404D01*
X56509016Y-114448167D01*
X56917167Y-114448167D01*
X56917167Y-113897833D01*
X56913535Y-113602041D01*
X56892700Y-113437294D01*
X56839752Y-113365318D01*
X56739781Y-113347840D01*
X56702781Y-113347500D01*
X56475964Y-113314341D01*
X56216747Y-113233864D01*
X56200628Y-113227263D01*
X55944318Y-113037143D01*
X55804088Y-112752529D01*
X55793430Y-112413647D01*
X55855728Y-112198875D01*
X56045568Y-111957470D01*
X56367527Y-111801625D01*
X56802874Y-111739963D01*
X56853667Y-111739305D01*
X57086500Y-111738833D01*
X57086500Y-114448167D01*
X58187167Y-114448167D01*
X58187167Y-110612035D01*
X57123213Y-110665958D01*
G36*
X62791050Y-110687663D02*
G01*
X62173610Y-110707314D01*
X61691267Y-110761686D01*
X61311749Y-110859778D01*
X61002784Y-111010592D01*
X60732101Y-111223128D01*
X60675997Y-111277547D01*
X60357229Y-111706070D01*
X60194186Y-112199307D01*
X60186369Y-112759154D01*
X60224281Y-112991135D01*
X60314146Y-113302774D01*
X60461153Y-113564206D01*
X60706098Y-113847464D01*
X60713725Y-113855341D01*
X61100140Y-114181784D01*
X61513748Y-114371079D01*
X62006689Y-114444798D01*
X62145334Y-114447694D01*
X62505167Y-114448167D01*
X62505167Y-113347500D01*
X62246963Y-113347500D01*
X61934023Y-113294086D01*
X61639533Y-113156605D01*
X61431989Y-112969196D01*
X61407010Y-112928856D01*
X61326121Y-112627668D01*
X61357275Y-112302143D01*
X61449330Y-112099629D01*
X61643481Y-111939355D01*
X61947392Y-111814328D01*
X62302052Y-111745975D01*
X62441667Y-111739305D01*
X62674500Y-111738833D01*
X62674500Y-114448167D01*
X63778407Y-114448167D01*
X63755620Y-112564333D01*
X63732834Y-110680500D01*
X62791050Y-110687663D01*
G37*
X62791050Y-110687663D02*
X62173610Y-110707314D01*
X61691267Y-110761686D01*
X61311749Y-110859778D01*
X61002784Y-111010592D01*
X60732101Y-111223128D01*
X60675997Y-111277547D01*
X60357229Y-111706070D01*
X60194186Y-112199307D01*
X60186369Y-112759154D01*
X60224281Y-112991135D01*
X60314146Y-113302774D01*
X60461153Y-113564206D01*
X60706098Y-113847464D01*
X60713725Y-113855341D01*
X61100140Y-114181784D01*
X61513748Y-114371079D01*
X62006689Y-114444798D01*
X62145334Y-114447694D01*
X62505167Y-114448167D01*
X62505167Y-113347500D01*
X62246963Y-113347500D01*
X61934023Y-113294086D01*
X61639533Y-113156605D01*
X61431989Y-112969196D01*
X61407010Y-112928856D01*
X61326121Y-112627668D01*
X61357275Y-112302143D01*
X61449330Y-112099629D01*
X61643481Y-111939355D01*
X61947392Y-111814328D01*
X62302052Y-111745975D01*
X62441667Y-111739305D01*
X62674500Y-111738833D01*
X62674500Y-114448167D01*
X63778407Y-114448167D01*
X63755620Y-112564333D01*
X63732834Y-110680500D01*
X62791050Y-110687663D01*
G36*
X64621834Y-111891233D02*
G01*
X64617946Y-112423254D01*
X64602557Y-112808934D01*
X64570077Y-113071159D01*
X64514917Y-113232818D01*
X64431489Y-113316798D01*
X64314204Y-113345989D01*
X64266234Y-113347500D01*
X64183119Y-113369931D01*
X64136765Y-113461451D01*
X64117109Y-113658402D01*
X64113834Y-113897833D01*
X64113834Y-114448167D01*
X64431334Y-114448035D01*
X64731938Y-114406606D01*
X65025995Y-114306418D01*
X65039149Y-114299868D01*
X65250417Y-114181940D01*
X65409748Y-114055989D01*
X65524975Y-113896863D01*
X65603930Y-113679408D01*
X65654446Y-113378474D01*
X65684355Y-112968905D01*
X65701491Y-112425552D01*
X65706678Y-112156257D01*
X65733189Y-110638167D01*
X64621834Y-110638167D01*
X64621834Y-111891233D01*
G37*
X64621834Y-111891233D02*
X64617946Y-112423254D01*
X64602557Y-112808934D01*
X64570077Y-113071159D01*
X64514917Y-113232818D01*
X64431489Y-113316798D01*
X64314204Y-113345989D01*
X64266234Y-113347500D01*
X64183119Y-113369931D01*
X64136765Y-113461451D01*
X64117109Y-113658402D01*
X64113834Y-113897833D01*
X64113834Y-114448167D01*
X64431334Y-114448035D01*
X64731938Y-114406606D01*
X65025995Y-114306418D01*
X65039149Y-114299868D01*
X65250417Y-114181940D01*
X65409748Y-114055989D01*
X65524975Y-113896863D01*
X65603930Y-113679408D01*
X65654446Y-113378474D01*
X65684355Y-112968905D01*
X65701491Y-112425552D01*
X65706678Y-112156257D01*
X65733189Y-110638167D01*
X64621834Y-110638167D01*
X64621834Y-111891233D01*
G36*
X67298116Y-110640827D02*
G01*
X66946657Y-110745129D01*
X66930434Y-110753292D01*
X66744155Y-110865950D01*
X66602322Y-111001658D01*
X66498401Y-111184285D01*
X66425862Y-111437702D01*
X66378172Y-111785779D01*
X66348800Y-112252386D01*
X66331215Y-112861392D01*
X66329508Y-112949359D01*
X66301337Y-114456219D01*
X67458167Y-114405833D01*
X67476658Y-113305167D01*
X67483899Y-112868186D01*
X67490256Y-112473344D01*
X67495080Y-112161832D01*
X67497720Y-111974839D01*
X67497825Y-111965778D01*
X67522782Y-111795843D01*
X67619028Y-111748200D01*
X67691000Y-111754111D01*
X67810080Y-111795792D01*
X67873355Y-111907589D01*
X67904035Y-112135556D01*
X67907306Y-112183333D01*
X67911694Y-112434784D01*
X67876220Y-112556468D01*
X67801473Y-112585500D01*
X67722796Y-112623335D01*
X67682125Y-112759445D01*
X67669875Y-113027738D01*
X67669834Y-113051167D01*
X67681236Y-113331991D01*
X67721244Y-113476572D01*
X67796834Y-113516833D01*
X67873422Y-113558640D01*
X67912853Y-113705336D01*
X67923834Y-113982500D01*
X67923834Y-114448167D01*
X69128374Y-114448167D01*
X69095332Y-112987667D01*
X69076477Y-112373723D01*
X69046261Y-111903236D01*
X68997083Y-111550367D01*
X68921346Y-111289280D01*
X68811450Y-111094140D01*
X68659797Y-110939109D01*
X68458788Y-110798352D01*
X68449773Y-110792752D01*
X68122087Y-110666519D01*
X67714064Y-110615250D01*
X67298116Y-110640827D01*
G37*
X67298116Y-110640827D02*
X66946657Y-110745129D01*
X66930434Y-110753292D01*
X66744155Y-110865950D01*
X66602322Y-111001658D01*
X66498401Y-111184285D01*
X66425862Y-111437702D01*
X66378172Y-111785779D01*
X66348800Y-112252386D01*
X66331215Y-112861392D01*
X66329508Y-112949359D01*
X66301337Y-114456219D01*
X67458167Y-114405833D01*
X67476658Y-113305167D01*
X67483899Y-112868186D01*
X67490256Y-112473344D01*
X67495080Y-112161832D01*
X67497720Y-111974839D01*
X67497825Y-111965778D01*
X67522782Y-111795843D01*
X67619028Y-111748200D01*
X67691000Y-111754111D01*
X67810080Y-111795792D01*
X67873355Y-111907589D01*
X67904035Y-112135556D01*
X67907306Y-112183333D01*
X67911694Y-112434784D01*
X67876220Y-112556468D01*
X67801473Y-112585500D01*
X67722796Y-112623335D01*
X67682125Y-112759445D01*
X67669875Y-113027738D01*
X67669834Y-113051167D01*
X67681236Y-113331991D01*
X67721244Y-113476572D01*
X67796834Y-113516833D01*
X67873422Y-113558640D01*
X67912853Y-113705336D01*
X67923834Y-113982500D01*
X67923834Y-114448167D01*
X69128374Y-114448167D01*
X69095332Y-112987667D01*
X69076477Y-112373723D01*
X69046261Y-111903236D01*
X68997083Y-111550367D01*
X68921346Y-111289280D01*
X68811450Y-111094140D01*
X68659797Y-110939109D01*
X68458788Y-110798352D01*
X68449773Y-110792752D01*
X68122087Y-110666519D01*
X67714064Y-110615250D01*
X67298116Y-110640827D01*
G36*
X71087212Y-110661103D02*
G01*
X70559017Y-110740314D01*
X70149892Y-110897437D01*
X69871624Y-111106198D01*
X69702085Y-111291768D01*
X69613232Y-111457546D01*
X69579447Y-111672402D01*
X69574834Y-111904018D01*
X69587020Y-112211481D01*
X69636782Y-112415401D01*
X69743926Y-112580632D01*
X69800649Y-112643440D01*
X70026464Y-112881833D01*
X69371334Y-114448167D01*
X70546815Y-114448167D01*
X70801658Y-113886122D01*
X70959789Y-113459569D01*
X71050332Y-113046578D01*
X71071908Y-112680332D01*
X71023141Y-112394018D01*
X70902653Y-112220819D01*
X70871478Y-112203410D01*
X70688768Y-112067183D01*
X70662621Y-111915538D01*
X70786128Y-111777230D01*
X70993849Y-111694034D01*
X71225834Y-111635809D01*
X71225834Y-114448167D01*
X72414407Y-114448167D01*
X72391620Y-112564333D01*
X72368834Y-110680500D01*
X71752163Y-110655567D01*
X71087212Y-110661103D01*
G37*
X71087212Y-110661103D02*
X70559017Y-110740314D01*
X70149892Y-110897437D01*
X69871624Y-111106198D01*
X69702085Y-111291768D01*
X69613232Y-111457546D01*
X69579447Y-111672402D01*
X69574834Y-111904018D01*
X69587020Y-112211481D01*
X69636782Y-112415401D01*
X69743926Y-112580632D01*
X69800649Y-112643440D01*
X70026464Y-112881833D01*
X69371334Y-114448167D01*
X70546815Y-114448167D01*
X70801658Y-113886122D01*
X70959789Y-113459569D01*
X71050332Y-113046578D01*
X71071908Y-112680332D01*
X71023141Y-112394018D01*
X70902653Y-112220819D01*
X70871478Y-112203410D01*
X70688768Y-112067183D01*
X70662621Y-111915538D01*
X70786128Y-111777230D01*
X70993849Y-111694034D01*
X71225834Y-111635809D01*
X71225834Y-114448167D01*
X72414407Y-114448167D01*
X72391620Y-112564333D01*
X72368834Y-110680500D01*
X71752163Y-110655567D01*
X71087212Y-110661103D01*
G36*
X73020960Y-111209667D02*
G01*
X72995754Y-111738833D01*
X73373869Y-111738833D01*
X73736370Y-111760047D01*
X73947363Y-111826479D01*
X74019630Y-111942317D01*
X74019834Y-111950500D01*
X73945987Y-112075138D01*
X73720791Y-112144765D01*
X73420242Y-112162167D01*
X73088500Y-112162167D01*
X73088500Y-113000383D01*
X73575334Y-113025775D01*
X73868167Y-113053324D01*
X74020842Y-113103099D01*
X74062167Y-113178167D01*
X74018615Y-113253716D01*
X73868448Y-113300807D01*
X73582398Y-113327856D01*
X73533000Y-113330373D01*
X73003834Y-113355580D01*
X73003834Y-114448167D01*
X73575334Y-114444450D01*
X73931408Y-114424011D01*
X74273177Y-114374768D01*
X74482259Y-114321265D01*
X74742507Y-114205243D01*
X74933510Y-114052532D01*
X75065259Y-113837537D01*
X75147740Y-113534661D01*
X75190943Y-113118307D01*
X75204857Y-112562879D01*
X75205036Y-112469083D01*
X75181190Y-111872189D01*
X75099817Y-111420747D01*
X74945851Y-111096283D01*
X74704226Y-110880327D01*
X74359875Y-110754405D01*
X73897734Y-110700047D01*
X73758412Y-110695397D01*
X73046167Y-110680500D01*
X73020960Y-111209667D01*
G37*
X73020960Y-111209667D02*
X72995754Y-111738833D01*
X73373869Y-111738833D01*
X73736370Y-111760047D01*
X73947363Y-111826479D01*
X74019630Y-111942317D01*
X74019834Y-111950500D01*
X73945987Y-112075138D01*
X73720791Y-112144765D01*
X73420242Y-112162167D01*
X73088500Y-112162167D01*
X73088500Y-113000383D01*
X73575334Y-113025775D01*
X73868167Y-113053324D01*
X74020842Y-113103099D01*
X74062167Y-113178167D01*
X74018615Y-113253716D01*
X73868448Y-113300807D01*
X73582398Y-113327856D01*
X73533000Y-113330373D01*
X73003834Y-113355580D01*
X73003834Y-114448167D01*
X73575334Y-114444450D01*
X73931408Y-114424011D01*
X74273177Y-114374768D01*
X74482259Y-114321265D01*
X74742507Y-114205243D01*
X74933510Y-114052532D01*
X75065259Y-113837537D01*
X75147740Y-113534661D01*
X75190943Y-113118307D01*
X75204857Y-112562879D01*
X75205036Y-112469083D01*
X75181190Y-111872189D01*
X75099817Y-111420747D01*
X74945851Y-111096283D01*
X74704226Y-110880327D01*
X74359875Y-110754405D01*
X73897734Y-110700047D01*
X73758412Y-110695397D01*
X73046167Y-110680500D01*
X73020960Y-111209667D01*
G36*
X76451376Y-110675017D02*
G01*
X76113318Y-110875343D01*
X76045547Y-110940979D01*
X75974734Y-111021919D01*
X75921936Y-111109570D01*
X75884016Y-111229159D01*
X75857839Y-111405909D01*
X75840267Y-111665047D01*
X75828166Y-112031799D01*
X75818399Y-112531390D01*
X75813969Y-112803775D01*
X75787771Y-114448167D01*
X76898500Y-114448167D01*
X76898500Y-113093500D01*
X76901014Y-112571901D01*
X76909813Y-112197921D01*
X76926781Y-111949906D01*
X76953806Y-111806198D01*
X76992771Y-111745142D01*
X77016442Y-111738833D01*
X77096740Y-111758253D01*
X77155233Y-111831325D01*
X77195217Y-111980272D01*
X77219988Y-112227314D01*
X77232839Y-112594674D01*
X77237067Y-113104573D01*
X77237167Y-113227425D01*
X77237167Y-114448167D01*
X78337834Y-114448167D01*
X78337834Y-113093500D01*
X78340348Y-112571901D01*
X78349146Y-112197921D01*
X78366115Y-111949906D01*
X78393139Y-111806198D01*
X78432104Y-111745142D01*
X78455775Y-111738833D01*
X78536073Y-111758253D01*
X78594566Y-111831325D01*
X78634551Y-111980272D01*
X78659321Y-112227314D01*
X78672173Y-112594674D01*
X78676400Y-113104573D01*
X78676500Y-113227425D01*
X78676500Y-114448167D01*
X79777167Y-114448167D01*
X79776695Y-113072333D01*
X79769981Y-112423521D01*
X79747792Y-111920417D01*
X79706305Y-111539794D01*
X79641700Y-111258429D01*
X79550155Y-111053096D01*
X79427847Y-110900571D01*
X79417750Y-110891006D01*
X79079981Y-110683468D01*
X78692528Y-110613442D01*
X78304316Y-110680781D01*
X77964270Y-110885335D01*
X77953351Y-110895439D01*
X77765316Y-111072088D01*
X77541205Y-110864389D01*
X77213118Y-110667092D01*
X76833908Y-110604784D01*
X76451376Y-110675017D01*
G37*
X76451376Y-110675017D02*
X76113318Y-110875343D01*
X76045547Y-110940979D01*
X75974734Y-111021919D01*
X75921936Y-111109570D01*
X75884016Y-111229159D01*
X75857839Y-111405909D01*
X75840267Y-111665047D01*
X75828166Y-112031799D01*
X75818399Y-112531390D01*
X75813969Y-112803775D01*
X75787771Y-114448167D01*
X76898500Y-114448167D01*
X76898500Y-113093500D01*
X76901014Y-112571901D01*
X76909813Y-112197921D01*
X76926781Y-111949906D01*
X76953806Y-111806198D01*
X76992771Y-111745142D01*
X77016442Y-111738833D01*
X77096740Y-111758253D01*
X77155233Y-111831325D01*
X77195217Y-111980272D01*
X77219988Y-112227314D01*
X77232839Y-112594674D01*
X77237067Y-113104573D01*
X77237167Y-113227425D01*
X77237167Y-114448167D01*
X78337834Y-114448167D01*
X78337834Y-113093500D01*
X78340348Y-112571901D01*
X78349146Y-112197921D01*
X78366115Y-111949906D01*
X78393139Y-111806198D01*
X78432104Y-111745142D01*
X78455775Y-111738833D01*
X78536073Y-111758253D01*
X78594566Y-111831325D01*
X78634551Y-111980272D01*
X78659321Y-112227314D01*
X78672173Y-112594674D01*
X78676400Y-113104573D01*
X78676500Y-113227425D01*
X78676500Y-114448167D01*
X79777167Y-114448167D01*
X79776695Y-113072333D01*
X79769981Y-112423521D01*
X79747792Y-111920417D01*
X79706305Y-111539794D01*
X79641700Y-111258429D01*
X79550155Y-111053096D01*
X79427847Y-110900571D01*
X79417750Y-110891006D01*
X79079981Y-110683468D01*
X78692528Y-110613442D01*
X78304316Y-110680781D01*
X77964270Y-110885335D01*
X77953351Y-110895439D01*
X77765316Y-111072088D01*
X77541205Y-110864389D01*
X77213118Y-110667092D01*
X76833908Y-110604784D01*
X76451376Y-110675017D01*
G36*
X80369834Y-111738833D02*
G01*
X80701576Y-111738833D01*
X81054641Y-111764903D01*
X81251873Y-111844401D01*
X81301167Y-111950500D01*
X81228337Y-112074506D01*
X81005584Y-112144107D01*
X80696937Y-112162167D01*
X80360556Y-112162167D01*
X80386362Y-112564333D01*
X80412167Y-112966500D01*
X80899000Y-112991892D01*
X81177347Y-113014303D01*
X81324988Y-113054413D01*
X81380531Y-113127329D01*
X81385834Y-113182392D01*
X81366121Y-113274760D01*
X81281322Y-113324673D01*
X81092949Y-113344641D01*
X80877834Y-113347500D01*
X80369834Y-113347500D01*
X80369834Y-114448167D01*
X80899000Y-114439500D01*
X81233177Y-114424091D01*
X81541396Y-114393402D01*
X81702812Y-114365633D01*
X81985257Y-114267104D01*
X82194167Y-114109729D01*
X82339130Y-113871209D01*
X82429736Y-113529243D01*
X82475574Y-113061533D01*
X82486500Y-112543167D01*
X82471784Y-111945753D01*
X82416457Y-111494128D01*
X82303754Y-111166433D01*
X82116911Y-110940810D01*
X81839161Y-110795402D01*
X81453739Y-110708349D01*
X81046085Y-110665217D01*
X80369834Y-110613068D01*
X80369834Y-111738833D01*
G37*
X80369834Y-111738833D02*
X80701576Y-111738833D01*
X81054641Y-111764903D01*
X81251873Y-111844401D01*
X81301167Y-111950500D01*
X81228337Y-112074506D01*
X81005584Y-112144107D01*
X80696937Y-112162167D01*
X80360556Y-112162167D01*
X80386362Y-112564333D01*
X80412167Y-112966500D01*
X80899000Y-112991892D01*
X81177347Y-113014303D01*
X81324988Y-113054413D01*
X81380531Y-113127329D01*
X81385834Y-113182392D01*
X81366121Y-113274760D01*
X81281322Y-113324673D01*
X81092949Y-113344641D01*
X80877834Y-113347500D01*
X80369834Y-113347500D01*
X80369834Y-114448167D01*
X80899000Y-114439500D01*
X81233177Y-114424091D01*
X81541396Y-114393402D01*
X81702812Y-114365633D01*
X81985257Y-114267104D01*
X82194167Y-114109729D01*
X82339130Y-113871209D01*
X82429736Y-113529243D01*
X82475574Y-113061533D01*
X82486500Y-112543167D01*
X82471784Y-111945753D01*
X82416457Y-111494128D01*
X82303754Y-111166433D01*
X82116911Y-110940810D01*
X81839161Y-110795402D01*
X81453739Y-110708349D01*
X81046085Y-110665217D01*
X80369834Y-110613068D01*
X80369834Y-111738833D01*
G36*
X43282929Y-110645609D02*
G01*
X42822421Y-110796314D01*
X42413688Y-111054939D01*
X42080665Y-111412785D01*
X41847287Y-111861153D01*
X41737488Y-112391346D01*
X41732134Y-112543167D01*
X41792195Y-113086646D01*
X41984569Y-113548441D01*
X42289779Y-113934218D01*
X42642651Y-114232988D01*
X43023574Y-114412946D01*
X43492791Y-114500923D01*
X43578341Y-114508129D01*
X43914996Y-114517110D01*
X44179122Y-114472332D01*
X44463783Y-114355427D01*
X44537035Y-114318901D01*
X45003441Y-113998550D01*
X45348471Y-113589325D01*
X45566373Y-113118957D01*
X45651394Y-112615176D01*
X45642805Y-112533545D01*
X44469285Y-112533545D01*
X44394016Y-112919359D01*
X44175757Y-113216237D01*
X44005500Y-113333895D01*
X43799266Y-113415955D01*
X43596307Y-113405273D01*
X43331527Y-113301086D01*
X43048965Y-113084934D01*
X42893037Y-112790320D01*
X42871359Y-112459234D01*
X42991545Y-112133664D01*
X43095334Y-111998638D01*
X43387166Y-111785852D01*
X43701644Y-111716805D01*
X44002815Y-111777498D01*
X44254724Y-111953934D01*
X44421417Y-112232116D01*
X44469285Y-112533545D01*
X45642805Y-112533545D01*
X45597784Y-112105713D01*
X45399791Y-111618297D01*
X45164033Y-111295943D01*
X44735765Y-110927989D01*
X44263536Y-110702748D01*
X43771279Y-110611520D01*
X43282929Y-110645609D01*
G37*
X43282929Y-110645609D02*
X42822421Y-110796314D01*
X42413688Y-111054939D01*
X42080665Y-111412785D01*
X41847287Y-111861153D01*
X41737488Y-112391346D01*
X41732134Y-112543167D01*
X41792195Y-113086646D01*
X41984569Y-113548441D01*
X42289779Y-113934218D01*
X42642651Y-114232988D01*
X43023574Y-114412946D01*
X43492791Y-114500923D01*
X43578341Y-114508129D01*
X43914996Y-114517110D01*
X44179122Y-114472332D01*
X44463783Y-114355427D01*
X44537035Y-114318901D01*
X45003441Y-113998550D01*
X45348471Y-113589325D01*
X45566373Y-113118957D01*
X45651394Y-112615176D01*
X45642805Y-112533545D01*
X44469285Y-112533545D01*
X44394016Y-112919359D01*
X44175757Y-113216237D01*
X44005500Y-113333895D01*
X43799266Y-113415955D01*
X43596307Y-113405273D01*
X43331527Y-113301086D01*
X43048965Y-113084934D01*
X42893037Y-112790320D01*
X42871359Y-112459234D01*
X42991545Y-112133664D01*
X43095334Y-111998638D01*
X43387166Y-111785852D01*
X43701644Y-111716805D01*
X44002815Y-111777498D01*
X44254724Y-111953934D01*
X44421417Y-112232116D01*
X44469285Y-112533545D01*
X45642805Y-112533545D01*
X45597784Y-112105713D01*
X45399791Y-111618297D01*
X45164033Y-111295943D01*
X44735765Y-110927989D01*
X44263536Y-110702748D01*
X43771279Y-110611520D01*
X43282929Y-110645609D01*
G36*
X46801034Y-110634649D02*
G01*
X46683986Y-110673401D01*
X46631086Y-110786894D01*
X46596703Y-111022436D01*
X46587718Y-111256997D01*
X46587603Y-111781167D01*
X47039922Y-111752945D01*
X47313148Y-111745153D01*
X47484430Y-111780586D01*
X47619992Y-111882640D01*
X47717371Y-111992274D01*
X47910844Y-112333264D01*
X47945935Y-112687305D01*
X47823349Y-113023976D01*
X47689569Y-113190123D01*
X47473969Y-113364091D01*
X47264664Y-113420366D01*
X47160403Y-113416444D01*
X46959061Y-113367774D01*
X46888789Y-113292634D01*
X46961235Y-113221320D01*
X47074667Y-113193445D01*
X47189509Y-113156867D01*
X47246160Y-113059292D01*
X47264286Y-112854832D01*
X47265167Y-112748945D01*
X47265167Y-112331500D01*
X46190218Y-112331500D01*
X46038979Y-112666889D01*
X45934444Y-113063422D01*
X45944379Y-113483733D01*
X46064007Y-113860705D01*
X46131801Y-113971220D01*
X46436267Y-114256642D01*
X46837455Y-114441816D01*
X47288095Y-114515605D01*
X47740917Y-114466872D01*
X47942500Y-114397849D01*
X48417792Y-114106379D01*
X48770754Y-113702675D01*
X48993897Y-113198944D01*
X49079729Y-112607396D01*
X49080471Y-112543167D01*
X49015784Y-111944411D01*
X48820527Y-111452692D01*
X48492904Y-111065088D01*
X48031121Y-110778678D01*
X47983678Y-110758085D01*
X47716765Y-110679787D01*
X47390580Y-110630502D01*
X47065284Y-110614149D01*
X46801034Y-110634649D01*
G37*
X46801034Y-110634649D02*
X46683986Y-110673401D01*
X46631086Y-110786894D01*
X46596703Y-111022436D01*
X46587718Y-111256997D01*
X46587603Y-111781167D01*
X47039922Y-111752945D01*
X47313148Y-111745153D01*
X47484430Y-111780586D01*
X47619992Y-111882640D01*
X47717371Y-111992274D01*
X47910844Y-112333264D01*
X47945935Y-112687305D01*
X47823349Y-113023976D01*
X47689569Y-113190123D01*
X47473969Y-113364091D01*
X47264664Y-113420366D01*
X47160403Y-113416444D01*
X46959061Y-113367774D01*
X46888789Y-113292634D01*
X46961235Y-113221320D01*
X47074667Y-113193445D01*
X47189509Y-113156867D01*
X47246160Y-113059292D01*
X47264286Y-112854832D01*
X47265167Y-112748945D01*
X47265167Y-112331500D01*
X46190218Y-112331500D01*
X46038979Y-112666889D01*
X45934444Y-113063422D01*
X45944379Y-113483733D01*
X46064007Y-113860705D01*
X46131801Y-113971220D01*
X46436267Y-114256642D01*
X46837455Y-114441816D01*
X47288095Y-114515605D01*
X47740917Y-114466872D01*
X47942500Y-114397849D01*
X48417792Y-114106379D01*
X48770754Y-113702675D01*
X48993897Y-113198944D01*
X49079729Y-112607396D01*
X49080471Y-112543167D01*
X49015784Y-111944411D01*
X48820527Y-111452692D01*
X48492904Y-111065088D01*
X48031121Y-110778678D01*
X47983678Y-110758085D01*
X47716765Y-110679787D01*
X47390580Y-110630502D01*
X47065284Y-110614149D01*
X46801034Y-110634649D01*
%LPC*%
D12*
X40227000Y-116840000D03*
G36*
G01*
X37627000Y-117465001D02*
X37627000Y-116214999D01*
G75*
G02*
X37876999Y-115965000I249999J0D01*
G01*
X38577001Y-115965000D01*
G75*
G02*
X38827000Y-116214999I0J-249999D01*
G01*
X38827000Y-117465001D01*
G75*
G02*
X38577001Y-117715000I-249999J0D01*
G01*
X37876999Y-117715000D01*
G75*
G02*
X37627000Y-117465001I0J249999D01*
G01*
G37*
X84104000Y-116840000D03*
X82104000Y-116840000D03*
X80104000Y-116840000D03*
X78104000Y-116840000D03*
X76104000Y-116840000D03*
X74104000Y-116840000D03*
X72104000Y-116840000D03*
G36*
G01*
X69504000Y-117465001D02*
X69504000Y-116214999D01*
G75*
G02*
X69753999Y-115965000I249999J0D01*
G01*
X70454001Y-115965000D01*
G75*
G02*
X70704000Y-116214999I0J-249999D01*
G01*
X70704000Y-117465001D01*
G75*
G02*
X70454001Y-117715000I-249999J0D01*
G01*
X69753999Y-117715000D01*
G75*
G02*
X69504000Y-117465001I0J249999D01*
G01*
G37*
X49593000Y-116840000D03*
X47593000Y-116840000D03*
G36*
G01*
X44993000Y-117465001D02*
X44993000Y-116214999D01*
G75*
G02*
X45242999Y-115965000I249999J0D01*
G01*
X45943001Y-115965000D01*
G75*
G02*
X46193000Y-116214999I0J-249999D01*
G01*
X46193000Y-117465001D01*
G75*
G02*
X45943001Y-117715000I-249999J0D01*
G01*
X45242999Y-117715000D01*
G75*
G02*
X44993000Y-117465001I0J249999D01*
G01*
G37*
X64864000Y-116840000D03*
X62864000Y-116840000D03*
X60864000Y-116840000D03*
X58864000Y-116840000D03*
X56864000Y-116840000D03*
G36*
G01*
X54264000Y-117465001D02*
X54264000Y-116214999D01*
G75*
G02*
X54513999Y-115965000I249999J0D01*
G01*
X55214001Y-115965000D01*
G75*
G02*
X55464000Y-116214999I0J-249999D01*
G01*
X55464000Y-117465001D01*
G75*
G02*
X55214001Y-117715000I-249999J0D01*
G01*
X54513999Y-117715000D01*
G75*
G02*
X54264000Y-117465001I0J249999D01*
G01*
G37*
D13*
X32594000Y-115318000D03*
X32594000Y-106678000D03*
D14*
X32064000Y-108108000D03*
D15*
X28414000Y-106678000D03*
D14*
X32064000Y-113888000D03*
D15*
X28414000Y-115318000D03*
G36*
G01*
X34620000Y-104381000D02*
X34620000Y-102631000D01*
G75*
G02*
X35495000Y-101756000I875000J0D01*
G01*
X37245000Y-101756000D01*
G75*
G02*
X38120000Y-102631000I0J-875000D01*
G01*
X38120000Y-104381000D01*
G75*
G02*
X37245000Y-105256000I-875000J0D01*
G01*
X35495000Y-105256000D01*
G75*
G02*
X34620000Y-104381000I0J875000D01*
G01*
G37*
G36*
G01*
X31870000Y-99806000D02*
X31870000Y-97806000D01*
G75*
G02*
X32620000Y-97056000I750000J0D01*
G01*
X34120000Y-97056000D01*
G75*
G02*
X34870000Y-97806000I0J-750000D01*
G01*
X34870000Y-99806000D01*
G75*
G02*
X34120000Y-100556000I-750000J0D01*
G01*
X32620000Y-100556000D01*
G75*
G02*
X31870000Y-99806000I0J750000D01*
G01*
G37*
D16*
X39370000Y-98806000D03*
D12*
X68408800Y-76657200D03*
X70408800Y-76657200D03*
G36*
G01*
X73008800Y-76032199D02*
X73008800Y-77282201D01*
G75*
G02*
X72758801Y-77532200I-249999J0D01*
G01*
X72058799Y-77532200D01*
G75*
G02*
X71808800Y-77282201I0J249999D01*
G01*
X71808800Y-76032199D01*
G75*
G02*
X72058799Y-75782200I249999J0D01*
G01*
X72758801Y-75782200D01*
G75*
G02*
X73008800Y-76032199I0J-249999D01*
G01*
G37*
X47498500Y-76708000D03*
X49498500Y-76708000D03*
G36*
G01*
X52098500Y-76082999D02*
X52098500Y-77333001D01*
G75*
G02*
X51848501Y-77583000I-249999J0D01*
G01*
X51148499Y-77583000D01*
G75*
G02*
X50898500Y-77333001I0J249999D01*
G01*
X50898500Y-76082999D01*
G75*
G02*
X51148499Y-75833000I249999J0D01*
G01*
X51848501Y-75833000D01*
G75*
G02*
X52098500Y-76082999I0J-249999D01*
G01*
G37*
X56979300Y-76708000D03*
X58979300Y-76708000D03*
X60979300Y-76708000D03*
G36*
G01*
X63579300Y-76082999D02*
X63579300Y-77333001D01*
G75*
G02*
X63329301Y-77583000I-249999J0D01*
G01*
X62629299Y-77583000D01*
G75*
G02*
X62379300Y-77333001I0J249999D01*
G01*
X62379300Y-76082999D01*
G75*
G02*
X62629299Y-75833000I249999J0D01*
G01*
X63329301Y-75833000D01*
G75*
G02*
X63579300Y-76082999I0J-249999D01*
G01*
G37*
X77934300Y-76708000D03*
X79934300Y-76708000D03*
X81934300Y-76708000D03*
G36*
G01*
X84534300Y-76082999D02*
X84534300Y-77333001D01*
G75*
G02*
X84284301Y-77583000I-249999J0D01*
G01*
X83584299Y-77583000D01*
G75*
G02*
X83334300Y-77333001I0J249999D01*
G01*
X83334300Y-76082999D01*
G75*
G02*
X83584299Y-75833000I249999J0D01*
G01*
X84284301Y-75833000D01*
G75*
G02*
X84534300Y-76082999I0J-249999D01*
G01*
G37*
X40024300Y-76708000D03*
G36*
G01*
X42624300Y-76082999D02*
X42624300Y-77333001D01*
G75*
G02*
X42374301Y-77583000I-249999J0D01*
G01*
X41674299Y-77583000D01*
G75*
G02*
X41424300Y-77333001I0J249999D01*
G01*
X41424300Y-76082999D01*
G75*
G02*
X41674299Y-75833000I249999J0D01*
G01*
X42374301Y-75833000D01*
G75*
G02*
X42624300Y-76082999I0J-249999D01*
G01*
G37*
D17*
X68961000Y-92583000D03*
X67691000Y-91313000D03*
X67691000Y-93853000D03*
X85471000Y-96393000D03*
X82931000Y-96393000D03*
X80391000Y-96393000D03*
X77851000Y-96393000D03*
X75311000Y-96393000D03*
X72771000Y-96393000D03*
X70231000Y-96393000D03*
X67691000Y-96393000D03*
X67691000Y-83693000D03*
X70231000Y-83693000D03*
X72771000Y-83693000D03*
X75311000Y-83693000D03*
X77851000Y-83693000D03*
X80391000Y-83693000D03*
X82931000Y-83693000D03*
X85471000Y-83693000D03*
X47625000Y-92583000D03*
X46355000Y-91313000D03*
X46355000Y-93853000D03*
X64135000Y-96393000D03*
X61595000Y-96393000D03*
X59055000Y-96393000D03*
X56515000Y-96393000D03*
X53975000Y-96393000D03*
X51435000Y-96393000D03*
X48895000Y-96393000D03*
X46355000Y-96393000D03*
X46355000Y-83693000D03*
X48895000Y-83693000D03*
X51435000Y-83693000D03*
X53975000Y-83693000D03*
X56515000Y-83693000D03*
X59055000Y-83693000D03*
X61595000Y-83693000D03*
X64135000Y-83693000D03*
D18*
X90170000Y-72898000D03*
X29210000Y-72898000D03*
X90170000Y-120650000D03*
X29210000Y-120650000D03*
D19*
X89598500Y-78803500D03*
D20*
X92138500Y-78803500D03*
D19*
X89535000Y-83058000D03*
D20*
X92075000Y-83058000D03*
D19*
X38735000Y-81280000D03*
X38735000Y-83820000D03*
D20*
X38735000Y-86360000D03*
D19*
X91440000Y-104394000D03*
X88900000Y-104394000D03*
X91440000Y-106934000D03*
X88900000Y-106934000D03*
X91440000Y-109474000D03*
X88900000Y-109474000D03*
X91440000Y-112014000D03*
X88900000Y-112014000D03*
X91440000Y-114554000D03*
D20*
X88900000Y-114554000D03*
D21*
X32893000Y-90773000D03*
G36*
G01*
X32267999Y-88173000D02*
X33518001Y-88173000D01*
G75*
G02*
X33768000Y-88422999I0J-249999D01*
G01*
X33768000Y-89123001D01*
G75*
G02*
X33518001Y-89373000I-249999J0D01*
G01*
X32267999Y-89373000D01*
G75*
G02*
X32018000Y-89123001I0J249999D01*
G01*
X32018000Y-88422999D01*
G75*
G02*
X32267999Y-88173000I249999J0D01*
G01*
G37*
X32893000Y-83248000D03*
X32893000Y-81248000D03*
G36*
G01*
X32267999Y-78648000D02*
X33518001Y-78648000D01*
G75*
G02*
X33768000Y-78897999I0J-249999D01*
G01*
X33768000Y-79598001D01*
G75*
G02*
X33518001Y-79848000I-249999J0D01*
G01*
X32267999Y-79848000D01*
G75*
G02*
X32018000Y-79598001I0J249999D01*
G01*
X32018000Y-78897999D01*
G75*
G02*
X32267999Y-78648000I249999J0D01*
G01*
G37*
X117475000Y-102140000D03*
G36*
G01*
X118100001Y-104740000D02*
X116849999Y-104740000D01*
G75*
G02*
X116600000Y-104490001I0J249999D01*
G01*
X116600000Y-103789999D01*
G75*
G02*
X116849999Y-103540000I249999J0D01*
G01*
X118100001Y-103540000D01*
G75*
G02*
X118350000Y-103789999I0J-249999D01*
G01*
X118350000Y-104490001D01*
G75*
G02*
X118100001Y-104740000I-249999J0D01*
G01*
G37*
D22*
X111730000Y-120462000D03*
X103730000Y-120462000D03*
M02*
