%TF.GenerationSoftware,KiCad,Pcbnew,(5.1.9)-1*%
%TF.CreationDate,2021-05-11T15:40:24+01:00*%
%TF.ProjectId,ESP32_Plotter_Controller_revA,45535033-325f-4506-9c6f-747465725f43,rev?*%
%TF.SameCoordinates,Original*%
%TF.FileFunction,Soldermask,Bot*%
%TF.FilePolarity,Negative*%
%FSLAX46Y46*%
G04 Gerber Fmt 4.6, Leading zero omitted, Abs format (unit mm)*
G04 Created by KiCad (PCBNEW (5.1.9)-1) date 2021-05-11 15:40:24*
%MOMM*%
%LPD*%
G01*
G04 APERTURE LIST*
%ADD10C,1.000000*%
%ADD11R,1.700000X1.700000*%
%ADD12O,1.700000X1.700000*%
%ADD13C,1.524000*%
%ADD14R,1.524000X1.524000*%
%ADD15C,3.200000*%
%ADD16R,3.500000X3.500000*%
G04 APERTURE END LIST*
D10*
%TO.C,J8*%
X195897500Y-118618000D03*
X187897500Y-118618000D03*
%TD*%
D11*
%TO.C,J1*%
X173037500Y-112839500D03*
D12*
X175577500Y-112839500D03*
X173037500Y-110299500D03*
X175577500Y-110299500D03*
X173037500Y-107759500D03*
X175577500Y-107759500D03*
X173037500Y-105219500D03*
X175577500Y-105219500D03*
X173037500Y-102679500D03*
X175577500Y-102679500D03*
%TD*%
D13*
%TO.C,U3*%
X153098500Y-90868500D03*
X151828500Y-89598500D03*
X151828500Y-92138500D03*
X169608500Y-94678500D03*
X167068500Y-94678500D03*
X164528500Y-94678500D03*
X161988500Y-94678500D03*
X159448500Y-94678500D03*
X156908500Y-94678500D03*
X154368500Y-94678500D03*
X151828500Y-94678500D03*
X151828500Y-81978500D03*
X154368500Y-81978500D03*
X156908500Y-81978500D03*
X159448500Y-81978500D03*
X161988500Y-81978500D03*
X164528500Y-81978500D03*
X167068500Y-81978500D03*
X169608500Y-81978500D03*
%TD*%
%TO.C,U2*%
X131762500Y-90868500D03*
X130492500Y-89598500D03*
X130492500Y-92138500D03*
X148272500Y-94678500D03*
X145732500Y-94678500D03*
X143192500Y-94678500D03*
X140652500Y-94678500D03*
X138112500Y-94678500D03*
X135572500Y-94678500D03*
X133032500Y-94678500D03*
X130492500Y-94678500D03*
X130492500Y-81978500D03*
X133032500Y-81978500D03*
X135572500Y-81978500D03*
X138112500Y-81978500D03*
X140652500Y-81978500D03*
X143192500Y-81978500D03*
X145732500Y-81978500D03*
X148272500Y-81978500D03*
%TD*%
%TO.C,U1*%
X205422500Y-71945500D03*
X205422500Y-74485500D03*
X205422500Y-77025500D03*
X205422500Y-79565500D03*
X205422500Y-82105500D03*
X205422500Y-84645500D03*
X205422500Y-87185500D03*
X205422500Y-89725500D03*
X205422500Y-92265500D03*
X205422500Y-94805500D03*
X205422500Y-97345500D03*
X205422500Y-99885500D03*
X205422500Y-102425500D03*
X205422500Y-104965500D03*
X205422500Y-107505500D03*
X205422500Y-110045500D03*
X205422500Y-112585500D03*
X205422500Y-115125500D03*
X205422500Y-117665500D03*
X180022500Y-117665500D03*
X180022500Y-115125500D03*
X180022500Y-112585500D03*
X180022500Y-110045500D03*
X180022500Y-107505500D03*
X180022500Y-104965500D03*
X180022500Y-102425500D03*
X180022500Y-99885500D03*
X180022500Y-97345500D03*
X180022500Y-94805500D03*
X180022500Y-92265500D03*
X180022500Y-89725500D03*
X180022500Y-87185500D03*
X180022500Y-84645500D03*
X180022500Y-82105500D03*
X180022500Y-79565500D03*
X180022500Y-77025500D03*
X180022500Y-74485500D03*
D14*
X180022500Y-71945500D03*
%TD*%
D15*
%TO.C,H2*%
X174307500Y-71183500D03*
%TD*%
%TO.C,H1*%
X113347500Y-71183500D03*
%TD*%
%TO.C,H3*%
X174307500Y-118935500D03*
%TD*%
%TO.C,H4*%
X113347500Y-118935500D03*
%TD*%
%TO.C,J2*%
G36*
G01*
X118757500Y-106984500D02*
X118757500Y-105234500D01*
G75*
G02*
X119632500Y-104359500I875000J0D01*
G01*
X121382500Y-104359500D01*
G75*
G02*
X122257500Y-105234500I0J-875000D01*
G01*
X122257500Y-106984500D01*
G75*
G02*
X121382500Y-107859500I-875000J0D01*
G01*
X119632500Y-107859500D01*
G75*
G02*
X118757500Y-106984500I0J875000D01*
G01*
G37*
G36*
G01*
X116007500Y-102409500D02*
X116007500Y-100409500D01*
G75*
G02*
X116757500Y-99659500I750000J0D01*
G01*
X118257500Y-99659500D01*
G75*
G02*
X119007500Y-100409500I0J-750000D01*
G01*
X119007500Y-102409500D01*
G75*
G02*
X118257500Y-103159500I-750000J0D01*
G01*
X116757500Y-103159500D01*
G75*
G02*
X116007500Y-102409500I0J750000D01*
G01*
G37*
D16*
X123507500Y-101409500D03*
%TD*%
D12*
%TO.C,J3*%
X140779500Y-78041500D03*
D11*
X138239500Y-78041500D03*
%TD*%
D12*
%TO.C,J4*%
X118935500Y-112077500D03*
D11*
X121475500Y-112077500D03*
%TD*%
D12*
%TO.C,J5*%
X120205500Y-87947500D03*
X122745500Y-87947500D03*
X120205500Y-90487500D03*
X122745500Y-90487500D03*
X120205500Y-93027500D03*
D11*
X122745500Y-93027500D03*
%TD*%
D12*
%TO.C,J6*%
X151066500Y-112077500D03*
X153606500Y-112077500D03*
X156146500Y-112077500D03*
X158686500Y-112077500D03*
X161226500Y-112077500D03*
X163766500Y-112077500D03*
X166306500Y-112077500D03*
D11*
X168846500Y-112077500D03*
%TD*%
D12*
%TO.C,J7*%
X193992500Y-82105500D03*
D11*
X191452500Y-82105500D03*
%TD*%
D12*
%TO.C,J9*%
X193992500Y-90995500D03*
D11*
X191452500Y-90995500D03*
%TD*%
D12*
%TO.C,J10*%
X120205500Y-79057500D03*
X120205500Y-81597500D03*
D11*
X120205500Y-84137500D03*
%TD*%
D12*
%TO.C,J11*%
X124015500Y-79057500D03*
X124015500Y-81597500D03*
D11*
X124015500Y-84137500D03*
%TD*%
D12*
%TO.C,J12*%
X153479500Y-78041500D03*
X150939500Y-78041500D03*
X148399500Y-78041500D03*
D11*
X145859500Y-78041500D03*
%TD*%
D12*
%TO.C,J13*%
X167703500Y-78041500D03*
X165163500Y-78041500D03*
X162623500Y-78041500D03*
D11*
X160083500Y-78041500D03*
%TD*%
D12*
%TO.C,J14*%
X125539500Y-112077500D03*
X128079500Y-112077500D03*
D11*
X130619500Y-112077500D03*
%TD*%
D12*
%TO.C,J15*%
X132905500Y-78041500D03*
D11*
X130365500Y-78041500D03*
%TD*%
D12*
%TO.C,J16*%
X134429500Y-112077500D03*
X136969500Y-112077500D03*
X139509500Y-112077500D03*
X142049500Y-112077500D03*
X144589500Y-112077500D03*
D11*
X147129500Y-112077500D03*
%TD*%
M02*
