%FSLAX45Y45*%
G04 Gerber Fmt 4.5, Leading zero omitted, Abs format (unit mm)*
G04 Created by KiCad (PCBNEW (5.1.10)-1) date 2022-02-17 21:35:24*
%MOMM*%
%LPD*%
G01*
G04 APERTURE LIST*
%TA.AperFunction,Profile*%
%ADD10C,0.050000*%
%TD*%
%ADD11C,0.200000*%
%ADD12C,0.300000*%
G04 APERTURE END LIST*
D10*
X12446000Y-7156450D02*
X12446000Y-12185650D01*
X2794000Y-12439650D02*
G75*
G02*
X2540000Y-12185650I0J254000D01*
G01*
X12192000Y-12439650D02*
G75*
G03*
X12446000Y-12185650I0J254000D01*
G01*
X2540000Y-12185650D02*
X2540000Y-7156450D01*
X2540000Y-7156450D02*
G75*
G02*
X2794000Y-6902450I254000J0D01*
G01*
X12192000Y-12439650D02*
X2794000Y-12439650D01*
X12192000Y-6902450D02*
G75*
G02*
X12446000Y-7156450I0J-254000D01*
G01*
X2794000Y-6902450D02*
X12192000Y-6902450D01*
D11*
X3173900Y-10778300D02*
X3238900Y-10843300D01*
X3238900Y-10778300D02*
X3173900Y-10843300D01*
X3173900Y-11356300D02*
X3238900Y-11421300D01*
X3238900Y-11356300D02*
X3173900Y-11421300D01*
X10423000Y-12046200D02*
G75*
G03*
X10423000Y-12046200I-50000J0D01*
G01*
X11223000Y-12046200D02*
G75*
G03*
X11223000Y-12046200I-50000J0D01*
G01*
X2921000Y-7129800D02*
X2921000Y-7449800D01*
X2761000Y-7289800D02*
X3081000Y-7289800D01*
X2921000Y-11905000D02*
X2921000Y-12225000D01*
X2761000Y-12065000D02*
X3081000Y-12065000D01*
X9017000Y-7129800D02*
X9017000Y-7449800D01*
X8857000Y-7289800D02*
X9177000Y-7289800D01*
X9017000Y-11905000D02*
X9017000Y-12225000D01*
X8857000Y-12065000D02*
X9177000Y-12065000D01*
D12*
X2823928Y-12907864D02*
X2823928Y-12607864D01*
X2895357Y-12607864D01*
X2938214Y-12622150D01*
X2966786Y-12650721D01*
X2981071Y-12679293D01*
X2995357Y-12736436D01*
X2995357Y-12779293D01*
X2981071Y-12836436D01*
X2966786Y-12865007D01*
X2938214Y-12893579D01*
X2895357Y-12907864D01*
X2823928Y-12907864D01*
X3123928Y-12907864D02*
X3123928Y-12707864D01*
X3123928Y-12765007D02*
X3138214Y-12736436D01*
X3152500Y-12722150D01*
X3181071Y-12707864D01*
X3209643Y-12707864D01*
X3309643Y-12907864D02*
X3309643Y-12707864D01*
X3309643Y-12607864D02*
X3295357Y-12622150D01*
X3309643Y-12636436D01*
X3323928Y-12622150D01*
X3309643Y-12607864D01*
X3309643Y-12636436D01*
X3495357Y-12907864D02*
X3466786Y-12893579D01*
X3452500Y-12865007D01*
X3452500Y-12607864D01*
X3652500Y-12907864D02*
X3623928Y-12893579D01*
X3609643Y-12865007D01*
X3609643Y-12607864D01*
X3995357Y-12907864D02*
X3995357Y-12607864D01*
X4095357Y-12822150D01*
X4195357Y-12607864D01*
X4195357Y-12907864D01*
X4466786Y-12907864D02*
X4466786Y-12750721D01*
X4452500Y-12722150D01*
X4423928Y-12707864D01*
X4366786Y-12707864D01*
X4338214Y-12722150D01*
X4466786Y-12893579D02*
X4438214Y-12907864D01*
X4366786Y-12907864D01*
X4338214Y-12893579D01*
X4323928Y-12865007D01*
X4323928Y-12836436D01*
X4338214Y-12807864D01*
X4366786Y-12793579D01*
X4438214Y-12793579D01*
X4466786Y-12779293D01*
X4609643Y-12707864D02*
X4609643Y-13007864D01*
X4609643Y-12722150D02*
X4638214Y-12707864D01*
X4695357Y-12707864D01*
X4723928Y-12722150D01*
X4738214Y-12736436D01*
X4752500Y-12765007D01*
X4752500Y-12850721D01*
X4738214Y-12879293D01*
X4723928Y-12893579D01*
X4695357Y-12907864D01*
X4638214Y-12907864D01*
X4609643Y-12893579D01*
X4881071Y-12879293D02*
X4895357Y-12893579D01*
X4881071Y-12907864D01*
X4866786Y-12893579D01*
X4881071Y-12879293D01*
X4881071Y-12907864D01*
X4881071Y-12722150D02*
X4895357Y-12736436D01*
X4881071Y-12750721D01*
X4866786Y-12736436D01*
X4881071Y-12722150D01*
X4881071Y-12750721D01*
X2472500Y-13369650D02*
X2537500Y-13434650D01*
X2537500Y-13369650D02*
X2472500Y-13434650D01*
X2881071Y-13237864D02*
X2909643Y-13237864D01*
X2938214Y-13252150D01*
X2952500Y-13266436D01*
X2966786Y-13295007D01*
X2981071Y-13352150D01*
X2981071Y-13423579D01*
X2966786Y-13480721D01*
X2952500Y-13509293D01*
X2938214Y-13523579D01*
X2909643Y-13537864D01*
X2881071Y-13537864D01*
X2852500Y-13523579D01*
X2838214Y-13509293D01*
X2823928Y-13480721D01*
X2809643Y-13423579D01*
X2809643Y-13352150D01*
X2823928Y-13295007D01*
X2838214Y-13266436D01*
X2852500Y-13252150D01*
X2881071Y-13237864D01*
X3109643Y-13509293D02*
X3123928Y-13523579D01*
X3109643Y-13537864D01*
X3095357Y-13523579D01*
X3109643Y-13509293D01*
X3109643Y-13537864D01*
X3381071Y-13237864D02*
X3323928Y-13237864D01*
X3295357Y-13252150D01*
X3281071Y-13266436D01*
X3252500Y-13309293D01*
X3238214Y-13366436D01*
X3238214Y-13480721D01*
X3252500Y-13509293D01*
X3266786Y-13523579D01*
X3295357Y-13537864D01*
X3352500Y-13537864D01*
X3381071Y-13523579D01*
X3395357Y-13509293D01*
X3409643Y-13480721D01*
X3409643Y-13409293D01*
X3395357Y-13380721D01*
X3381071Y-13366436D01*
X3352500Y-13352150D01*
X3295357Y-13352150D01*
X3266786Y-13366436D01*
X3252500Y-13380721D01*
X3238214Y-13409293D01*
X3681071Y-13237864D02*
X3538214Y-13237864D01*
X3523928Y-13380721D01*
X3538214Y-13366436D01*
X3566786Y-13352150D01*
X3638214Y-13352150D01*
X3666786Y-13366436D01*
X3681071Y-13380721D01*
X3695357Y-13409293D01*
X3695357Y-13480721D01*
X3681071Y-13509293D01*
X3666786Y-13523579D01*
X3638214Y-13537864D01*
X3566786Y-13537864D01*
X3538214Y-13523579D01*
X3523928Y-13509293D01*
X3881071Y-13237864D02*
X3909643Y-13237864D01*
X3938214Y-13252150D01*
X3952500Y-13266436D01*
X3966786Y-13295007D01*
X3981071Y-13352150D01*
X3981071Y-13423579D01*
X3966786Y-13480721D01*
X3952500Y-13509293D01*
X3938214Y-13523579D01*
X3909643Y-13537864D01*
X3881071Y-13537864D01*
X3852500Y-13523579D01*
X3838214Y-13509293D01*
X3823928Y-13480721D01*
X3809643Y-13423579D01*
X3809643Y-13352150D01*
X3823928Y-13295007D01*
X3838214Y-13266436D01*
X3852500Y-13252150D01*
X3881071Y-13237864D01*
X4109643Y-13537864D02*
X4109643Y-13337864D01*
X4109643Y-13366436D02*
X4123928Y-13352150D01*
X4152500Y-13337864D01*
X4195357Y-13337864D01*
X4223928Y-13352150D01*
X4238214Y-13380721D01*
X4238214Y-13537864D01*
X4238214Y-13380721D02*
X4252500Y-13352150D01*
X4281071Y-13337864D01*
X4323928Y-13337864D01*
X4352500Y-13352150D01*
X4366786Y-13380721D01*
X4366786Y-13537864D01*
X4509643Y-13537864D02*
X4509643Y-13337864D01*
X4509643Y-13366436D02*
X4523928Y-13352150D01*
X4552500Y-13337864D01*
X4595357Y-13337864D01*
X4623928Y-13352150D01*
X4638214Y-13380721D01*
X4638214Y-13537864D01*
X4638214Y-13380721D02*
X4652500Y-13352150D01*
X4681071Y-13337864D01*
X4723928Y-13337864D01*
X4752500Y-13352150D01*
X4766786Y-13380721D01*
X4766786Y-13537864D01*
X5352500Y-13223579D02*
X5095357Y-13609293D01*
X5738214Y-13237864D02*
X5766786Y-13237864D01*
X5795357Y-13252150D01*
X5809643Y-13266436D01*
X5823928Y-13295007D01*
X5838214Y-13352150D01*
X5838214Y-13423579D01*
X5823928Y-13480721D01*
X5809643Y-13509293D01*
X5795357Y-13523579D01*
X5766786Y-13537864D01*
X5738214Y-13537864D01*
X5709643Y-13523579D01*
X5695357Y-13509293D01*
X5681071Y-13480721D01*
X5666786Y-13423579D01*
X5666786Y-13352150D01*
X5681071Y-13295007D01*
X5695357Y-13266436D01*
X5709643Y-13252150D01*
X5738214Y-13237864D01*
X5966786Y-13509293D02*
X5981071Y-13523579D01*
X5966786Y-13537864D01*
X5952500Y-13523579D01*
X5966786Y-13509293D01*
X5966786Y-13537864D01*
X6166786Y-13237864D02*
X6195357Y-13237864D01*
X6223928Y-13252150D01*
X6238214Y-13266436D01*
X6252500Y-13295007D01*
X6266786Y-13352150D01*
X6266786Y-13423579D01*
X6252500Y-13480721D01*
X6238214Y-13509293D01*
X6223928Y-13523579D01*
X6195357Y-13537864D01*
X6166786Y-13537864D01*
X6138214Y-13523579D01*
X6123928Y-13509293D01*
X6109643Y-13480721D01*
X6095357Y-13423579D01*
X6095357Y-13352150D01*
X6109643Y-13295007D01*
X6123928Y-13266436D01*
X6138214Y-13252150D01*
X6166786Y-13237864D01*
X6381071Y-13266436D02*
X6395357Y-13252150D01*
X6423928Y-13237864D01*
X6495357Y-13237864D01*
X6523928Y-13252150D01*
X6538214Y-13266436D01*
X6552500Y-13295007D01*
X6552500Y-13323579D01*
X6538214Y-13366436D01*
X6366786Y-13537864D01*
X6552500Y-13537864D01*
X6823928Y-13237864D02*
X6681071Y-13237864D01*
X6666786Y-13380721D01*
X6681071Y-13366436D01*
X6709643Y-13352150D01*
X6781071Y-13352150D01*
X6809643Y-13366436D01*
X6823928Y-13380721D01*
X6838214Y-13409293D01*
X6838214Y-13480721D01*
X6823928Y-13509293D01*
X6809643Y-13523579D01*
X6781071Y-13537864D01*
X6709643Y-13537864D01*
X6681071Y-13523579D01*
X6666786Y-13509293D01*
X7095357Y-13237864D02*
X7038214Y-13237864D01*
X7009643Y-13252150D01*
X6995357Y-13266436D01*
X6966786Y-13309293D01*
X6952500Y-13366436D01*
X6952500Y-13480721D01*
X6966786Y-13509293D01*
X6981071Y-13523579D01*
X7009643Y-13537864D01*
X7066786Y-13537864D01*
X7095357Y-13523579D01*
X7109643Y-13509293D01*
X7123928Y-13480721D01*
X7123928Y-13409293D01*
X7109643Y-13380721D01*
X7095357Y-13366436D01*
X7066786Y-13352150D01*
X7009643Y-13352150D01*
X6981071Y-13366436D01*
X6966786Y-13380721D01*
X6952500Y-13409293D01*
X7238214Y-13237864D02*
X7238214Y-13295007D01*
X7352500Y-13237864D02*
X7352500Y-13295007D01*
X7795357Y-13652150D02*
X7781071Y-13637864D01*
X7752500Y-13595007D01*
X7738214Y-13566436D01*
X7723928Y-13523579D01*
X7709643Y-13452150D01*
X7709643Y-13395007D01*
X7723928Y-13323579D01*
X7738214Y-13280721D01*
X7752500Y-13252150D01*
X7781071Y-13209293D01*
X7795357Y-13195007D01*
X7895357Y-13266436D02*
X7909643Y-13252150D01*
X7938214Y-13237864D01*
X8009643Y-13237864D01*
X8038214Y-13252150D01*
X8052500Y-13266436D01*
X8066786Y-13295007D01*
X8066786Y-13323579D01*
X8052500Y-13366436D01*
X7881071Y-13537864D01*
X8066786Y-13537864D01*
X8423928Y-13537864D02*
X8423928Y-13237864D01*
X8552500Y-13537864D02*
X8552500Y-13380721D01*
X8538214Y-13352150D01*
X8509643Y-13337864D01*
X8466786Y-13337864D01*
X8438214Y-13352150D01*
X8423928Y-13366436D01*
X8738214Y-13537864D02*
X8709643Y-13523579D01*
X8695357Y-13509293D01*
X8681071Y-13480721D01*
X8681071Y-13395007D01*
X8695357Y-13366436D01*
X8709643Y-13352150D01*
X8738214Y-13337864D01*
X8781071Y-13337864D01*
X8809643Y-13352150D01*
X8823928Y-13366436D01*
X8838214Y-13395007D01*
X8838214Y-13480721D01*
X8823928Y-13509293D01*
X8809643Y-13523579D01*
X8781071Y-13537864D01*
X8738214Y-13537864D01*
X9009643Y-13537864D02*
X8981071Y-13523579D01*
X8966786Y-13495007D01*
X8966786Y-13237864D01*
X9238214Y-13523579D02*
X9209643Y-13537864D01*
X9152500Y-13537864D01*
X9123928Y-13523579D01*
X9109643Y-13495007D01*
X9109643Y-13380721D01*
X9123928Y-13352150D01*
X9152500Y-13337864D01*
X9209643Y-13337864D01*
X9238214Y-13352150D01*
X9252500Y-13380721D01*
X9252500Y-13409293D01*
X9109643Y-13437864D01*
X9366786Y-13523579D02*
X9395357Y-13537864D01*
X9452500Y-13537864D01*
X9481071Y-13523579D01*
X9495357Y-13495007D01*
X9495357Y-13480721D01*
X9481071Y-13452150D01*
X9452500Y-13437864D01*
X9409643Y-13437864D01*
X9381071Y-13423579D01*
X9366786Y-13395007D01*
X9366786Y-13380721D01*
X9381071Y-13352150D01*
X9409643Y-13337864D01*
X9452500Y-13337864D01*
X9481071Y-13352150D01*
X9595357Y-13652150D02*
X9609643Y-13637864D01*
X9638214Y-13595007D01*
X9652500Y-13566436D01*
X9666786Y-13523579D01*
X9681071Y-13452150D01*
X9681071Y-13395007D01*
X9666786Y-13323579D01*
X9652500Y-13280721D01*
X9638214Y-13252150D01*
X9609643Y-13209293D01*
X9595357Y-13195007D01*
X10138214Y-13652150D02*
X10123928Y-13637864D01*
X10095357Y-13595007D01*
X10081071Y-13566436D01*
X10066786Y-13523579D01*
X10052500Y-13452150D01*
X10052500Y-13395007D01*
X10066786Y-13323579D01*
X10081071Y-13280721D01*
X10095357Y-13252150D01*
X10123928Y-13209293D01*
X10138214Y-13195007D01*
X10252500Y-13337864D02*
X10252500Y-13537864D01*
X10252500Y-13366436D02*
X10266786Y-13352150D01*
X10295357Y-13337864D01*
X10338214Y-13337864D01*
X10366786Y-13352150D01*
X10381071Y-13380721D01*
X10381071Y-13537864D01*
X10566786Y-13537864D02*
X10538214Y-13523579D01*
X10523928Y-13509293D01*
X10509643Y-13480721D01*
X10509643Y-13395007D01*
X10523928Y-13366436D01*
X10538214Y-13352150D01*
X10566786Y-13337864D01*
X10609643Y-13337864D01*
X10638214Y-13352150D01*
X10652500Y-13366436D01*
X10666786Y-13395007D01*
X10666786Y-13480721D01*
X10652500Y-13509293D01*
X10638214Y-13523579D01*
X10609643Y-13537864D01*
X10566786Y-13537864D01*
X10752500Y-13337864D02*
X10866786Y-13337864D01*
X10795357Y-13237864D02*
X10795357Y-13495007D01*
X10809643Y-13523579D01*
X10838214Y-13537864D01*
X10866786Y-13537864D01*
X11195357Y-13337864D02*
X11195357Y-13637864D01*
X11195357Y-13352150D02*
X11223928Y-13337864D01*
X11281071Y-13337864D01*
X11309643Y-13352150D01*
X11323928Y-13366436D01*
X11338214Y-13395007D01*
X11338214Y-13480721D01*
X11323928Y-13509293D01*
X11309643Y-13523579D01*
X11281071Y-13537864D01*
X11223928Y-13537864D01*
X11195357Y-13523579D01*
X11509643Y-13537864D02*
X11481071Y-13523579D01*
X11466786Y-13495007D01*
X11466786Y-13237864D01*
X11752500Y-13537864D02*
X11752500Y-13380721D01*
X11738214Y-13352150D01*
X11709643Y-13337864D01*
X11652500Y-13337864D01*
X11623928Y-13352150D01*
X11752500Y-13523579D02*
X11723928Y-13537864D01*
X11652500Y-13537864D01*
X11623928Y-13523579D01*
X11609643Y-13495007D01*
X11609643Y-13466436D01*
X11623928Y-13437864D01*
X11652500Y-13423579D01*
X11723928Y-13423579D01*
X11752500Y-13409293D01*
X11852500Y-13337864D02*
X11966786Y-13337864D01*
X11895357Y-13237864D02*
X11895357Y-13495007D01*
X11909643Y-13523579D01*
X11938214Y-13537864D01*
X11966786Y-13537864D01*
X12181071Y-13523579D02*
X12152500Y-13537864D01*
X12095357Y-13537864D01*
X12066786Y-13523579D01*
X12052500Y-13495007D01*
X12052500Y-13380721D01*
X12066786Y-13352150D01*
X12095357Y-13337864D01*
X12152500Y-13337864D01*
X12181071Y-13352150D01*
X12195357Y-13380721D01*
X12195357Y-13409293D01*
X12052500Y-13437864D01*
X12452500Y-13537864D02*
X12452500Y-13237864D01*
X12452500Y-13523579D02*
X12423928Y-13537864D01*
X12366786Y-13537864D01*
X12338214Y-13523579D01*
X12323928Y-13509293D01*
X12309643Y-13480721D01*
X12309643Y-13395007D01*
X12323928Y-13366436D01*
X12338214Y-13352150D01*
X12366786Y-13337864D01*
X12423928Y-13337864D01*
X12452500Y-13352150D01*
X12566786Y-13652150D02*
X12581071Y-13637864D01*
X12609643Y-13595007D01*
X12623928Y-13566436D01*
X12638214Y-13523579D01*
X12652500Y-13452150D01*
X12652500Y-13395007D01*
X12638214Y-13323579D01*
X12623928Y-13280721D01*
X12609643Y-13252150D01*
X12581071Y-13209293D01*
X12566786Y-13195007D01*
X2537500Y-13798150D02*
G75*
G03*
X2537500Y-13798150I-50000J0D01*
G01*
X2981071Y-13933864D02*
X2809643Y-13933864D01*
X2895357Y-13933864D02*
X2895357Y-13633864D01*
X2866786Y-13676721D01*
X2838214Y-13705293D01*
X2809643Y-13719579D01*
X3109643Y-13905293D02*
X3123928Y-13919579D01*
X3109643Y-13933864D01*
X3095357Y-13919579D01*
X3109643Y-13905293D01*
X3109643Y-13933864D01*
X3309643Y-13633864D02*
X3338214Y-13633864D01*
X3366786Y-13648150D01*
X3381071Y-13662436D01*
X3395357Y-13691007D01*
X3409643Y-13748150D01*
X3409643Y-13819579D01*
X3395357Y-13876721D01*
X3381071Y-13905293D01*
X3366786Y-13919579D01*
X3338214Y-13933864D01*
X3309643Y-13933864D01*
X3281071Y-13919579D01*
X3266786Y-13905293D01*
X3252500Y-13876721D01*
X3238214Y-13819579D01*
X3238214Y-13748150D01*
X3252500Y-13691007D01*
X3266786Y-13662436D01*
X3281071Y-13648150D01*
X3309643Y-13633864D01*
X3595357Y-13633864D02*
X3623928Y-13633864D01*
X3652500Y-13648150D01*
X3666786Y-13662436D01*
X3681071Y-13691007D01*
X3695357Y-13748150D01*
X3695357Y-13819579D01*
X3681071Y-13876721D01*
X3666786Y-13905293D01*
X3652500Y-13919579D01*
X3623928Y-13933864D01*
X3595357Y-13933864D01*
X3566786Y-13919579D01*
X3552500Y-13905293D01*
X3538214Y-13876721D01*
X3523928Y-13819579D01*
X3523928Y-13748150D01*
X3538214Y-13691007D01*
X3552500Y-13662436D01*
X3566786Y-13648150D01*
X3595357Y-13633864D01*
X3881071Y-13633864D02*
X3909643Y-13633864D01*
X3938214Y-13648150D01*
X3952500Y-13662436D01*
X3966786Y-13691007D01*
X3981071Y-13748150D01*
X3981071Y-13819579D01*
X3966786Y-13876721D01*
X3952500Y-13905293D01*
X3938214Y-13919579D01*
X3909643Y-13933864D01*
X3881071Y-13933864D01*
X3852500Y-13919579D01*
X3838214Y-13905293D01*
X3823928Y-13876721D01*
X3809643Y-13819579D01*
X3809643Y-13748150D01*
X3823928Y-13691007D01*
X3838214Y-13662436D01*
X3852500Y-13648150D01*
X3881071Y-13633864D01*
X4109643Y-13933864D02*
X4109643Y-13733864D01*
X4109643Y-13762436D02*
X4123928Y-13748150D01*
X4152500Y-13733864D01*
X4195357Y-13733864D01*
X4223928Y-13748150D01*
X4238214Y-13776721D01*
X4238214Y-13933864D01*
X4238214Y-13776721D02*
X4252500Y-13748150D01*
X4281071Y-13733864D01*
X4323928Y-13733864D01*
X4352500Y-13748150D01*
X4366786Y-13776721D01*
X4366786Y-13933864D01*
X4509643Y-13933864D02*
X4509643Y-13733864D01*
X4509643Y-13762436D02*
X4523928Y-13748150D01*
X4552500Y-13733864D01*
X4595357Y-13733864D01*
X4623928Y-13748150D01*
X4638214Y-13776721D01*
X4638214Y-13933864D01*
X4638214Y-13776721D02*
X4652500Y-13748150D01*
X4681071Y-13733864D01*
X4723928Y-13733864D01*
X4752500Y-13748150D01*
X4766786Y-13776721D01*
X4766786Y-13933864D01*
X5352500Y-13619579D02*
X5095357Y-14005293D01*
X5738214Y-13633864D02*
X5766786Y-13633864D01*
X5795357Y-13648150D01*
X5809643Y-13662436D01*
X5823928Y-13691007D01*
X5838214Y-13748150D01*
X5838214Y-13819579D01*
X5823928Y-13876721D01*
X5809643Y-13905293D01*
X5795357Y-13919579D01*
X5766786Y-13933864D01*
X5738214Y-13933864D01*
X5709643Y-13919579D01*
X5695357Y-13905293D01*
X5681071Y-13876721D01*
X5666786Y-13819579D01*
X5666786Y-13748150D01*
X5681071Y-13691007D01*
X5695357Y-13662436D01*
X5709643Y-13648150D01*
X5738214Y-13633864D01*
X5966786Y-13905293D02*
X5981071Y-13919579D01*
X5966786Y-13933864D01*
X5952500Y-13919579D01*
X5966786Y-13905293D01*
X5966786Y-13933864D01*
X6166786Y-13633864D02*
X6195357Y-13633864D01*
X6223928Y-13648150D01*
X6238214Y-13662436D01*
X6252500Y-13691007D01*
X6266786Y-13748150D01*
X6266786Y-13819579D01*
X6252500Y-13876721D01*
X6238214Y-13905293D01*
X6223928Y-13919579D01*
X6195357Y-13933864D01*
X6166786Y-13933864D01*
X6138214Y-13919579D01*
X6123928Y-13905293D01*
X6109643Y-13876721D01*
X6095357Y-13819579D01*
X6095357Y-13748150D01*
X6109643Y-13691007D01*
X6123928Y-13662436D01*
X6138214Y-13648150D01*
X6166786Y-13633864D01*
X6366786Y-13633864D02*
X6552500Y-13633864D01*
X6452500Y-13748150D01*
X6495357Y-13748150D01*
X6523928Y-13762436D01*
X6538214Y-13776721D01*
X6552500Y-13805293D01*
X6552500Y-13876721D01*
X6538214Y-13905293D01*
X6523928Y-13919579D01*
X6495357Y-13933864D01*
X6409643Y-13933864D01*
X6381071Y-13919579D01*
X6366786Y-13905293D01*
X6695357Y-13933864D02*
X6752500Y-13933864D01*
X6781071Y-13919579D01*
X6795357Y-13905293D01*
X6823928Y-13862436D01*
X6838214Y-13805293D01*
X6838214Y-13691007D01*
X6823928Y-13662436D01*
X6809643Y-13648150D01*
X6781071Y-13633864D01*
X6723928Y-13633864D01*
X6695357Y-13648150D01*
X6681071Y-13662436D01*
X6666786Y-13691007D01*
X6666786Y-13762436D01*
X6681071Y-13791007D01*
X6695357Y-13805293D01*
X6723928Y-13819579D01*
X6781071Y-13819579D01*
X6809643Y-13805293D01*
X6823928Y-13791007D01*
X6838214Y-13762436D01*
X7095357Y-13733864D02*
X7095357Y-13933864D01*
X7023928Y-13619579D02*
X6952500Y-13833864D01*
X7138214Y-13833864D01*
X7238214Y-13633864D02*
X7238214Y-13691007D01*
X7352500Y-13633864D02*
X7352500Y-13691007D01*
X7795357Y-14048150D02*
X7781071Y-14033864D01*
X7752500Y-13991007D01*
X7738214Y-13962436D01*
X7723928Y-13919579D01*
X7709643Y-13848150D01*
X7709643Y-13791007D01*
X7723928Y-13719579D01*
X7738214Y-13676721D01*
X7752500Y-13648150D01*
X7781071Y-13605293D01*
X7795357Y-13591007D01*
X7895357Y-13662436D02*
X7909643Y-13648150D01*
X7938214Y-13633864D01*
X8009643Y-13633864D01*
X8038214Y-13648150D01*
X8052500Y-13662436D01*
X8066786Y-13691007D01*
X8066786Y-13719579D01*
X8052500Y-13762436D01*
X7881071Y-13933864D01*
X8066786Y-13933864D01*
X8423928Y-13933864D02*
X8423928Y-13633864D01*
X8552500Y-13933864D02*
X8552500Y-13776721D01*
X8538214Y-13748150D01*
X8509643Y-13733864D01*
X8466786Y-13733864D01*
X8438214Y-13748150D01*
X8423928Y-13762436D01*
X8738214Y-13933864D02*
X8709643Y-13919579D01*
X8695357Y-13905293D01*
X8681071Y-13876721D01*
X8681071Y-13791007D01*
X8695357Y-13762436D01*
X8709643Y-13748150D01*
X8738214Y-13733864D01*
X8781071Y-13733864D01*
X8809643Y-13748150D01*
X8823928Y-13762436D01*
X8838214Y-13791007D01*
X8838214Y-13876721D01*
X8823928Y-13905293D01*
X8809643Y-13919579D01*
X8781071Y-13933864D01*
X8738214Y-13933864D01*
X9009643Y-13933864D02*
X8981071Y-13919579D01*
X8966786Y-13891007D01*
X8966786Y-13633864D01*
X9238214Y-13919579D02*
X9209643Y-13933864D01*
X9152500Y-13933864D01*
X9123928Y-13919579D01*
X9109643Y-13891007D01*
X9109643Y-13776721D01*
X9123928Y-13748150D01*
X9152500Y-13733864D01*
X9209643Y-13733864D01*
X9238214Y-13748150D01*
X9252500Y-13776721D01*
X9252500Y-13805293D01*
X9109643Y-13833864D01*
X9366786Y-13919579D02*
X9395357Y-13933864D01*
X9452500Y-13933864D01*
X9481071Y-13919579D01*
X9495357Y-13891007D01*
X9495357Y-13876721D01*
X9481071Y-13848150D01*
X9452500Y-13833864D01*
X9409643Y-13833864D01*
X9381071Y-13819579D01*
X9366786Y-13791007D01*
X9366786Y-13776721D01*
X9381071Y-13748150D01*
X9409643Y-13733864D01*
X9452500Y-13733864D01*
X9481071Y-13748150D01*
X9595357Y-14048150D02*
X9609643Y-14033864D01*
X9638214Y-13991007D01*
X9652500Y-13962436D01*
X9666786Y-13919579D01*
X9681071Y-13848150D01*
X9681071Y-13791007D01*
X9666786Y-13719579D01*
X9652500Y-13676721D01*
X9638214Y-13648150D01*
X9609643Y-13605293D01*
X9595357Y-13591007D01*
X10138214Y-14048150D02*
X10123928Y-14033864D01*
X10095357Y-13991007D01*
X10081071Y-13962436D01*
X10066786Y-13919579D01*
X10052500Y-13848150D01*
X10052500Y-13791007D01*
X10066786Y-13719579D01*
X10081071Y-13676721D01*
X10095357Y-13648150D01*
X10123928Y-13605293D01*
X10138214Y-13591007D01*
X10252500Y-13733864D02*
X10252500Y-13933864D01*
X10252500Y-13762436D02*
X10266786Y-13748150D01*
X10295357Y-13733864D01*
X10338214Y-13733864D01*
X10366786Y-13748150D01*
X10381071Y-13776721D01*
X10381071Y-13933864D01*
X10566786Y-13933864D02*
X10538214Y-13919579D01*
X10523928Y-13905293D01*
X10509643Y-13876721D01*
X10509643Y-13791007D01*
X10523928Y-13762436D01*
X10538214Y-13748150D01*
X10566786Y-13733864D01*
X10609643Y-13733864D01*
X10638214Y-13748150D01*
X10652500Y-13762436D01*
X10666786Y-13791007D01*
X10666786Y-13876721D01*
X10652500Y-13905293D01*
X10638214Y-13919579D01*
X10609643Y-13933864D01*
X10566786Y-13933864D01*
X10752500Y-13733864D02*
X10866786Y-13733864D01*
X10795357Y-13633864D02*
X10795357Y-13891007D01*
X10809643Y-13919579D01*
X10838214Y-13933864D01*
X10866786Y-13933864D01*
X11195357Y-13733864D02*
X11195357Y-14033864D01*
X11195357Y-13748150D02*
X11223928Y-13733864D01*
X11281071Y-13733864D01*
X11309643Y-13748150D01*
X11323928Y-13762436D01*
X11338214Y-13791007D01*
X11338214Y-13876721D01*
X11323928Y-13905293D01*
X11309643Y-13919579D01*
X11281071Y-13933864D01*
X11223928Y-13933864D01*
X11195357Y-13919579D01*
X11509643Y-13933864D02*
X11481071Y-13919579D01*
X11466786Y-13891007D01*
X11466786Y-13633864D01*
X11752500Y-13933864D02*
X11752500Y-13776721D01*
X11738214Y-13748150D01*
X11709643Y-13733864D01*
X11652500Y-13733864D01*
X11623928Y-13748150D01*
X11752500Y-13919579D02*
X11723928Y-13933864D01*
X11652500Y-13933864D01*
X11623928Y-13919579D01*
X11609643Y-13891007D01*
X11609643Y-13862436D01*
X11623928Y-13833864D01*
X11652500Y-13819579D01*
X11723928Y-13819579D01*
X11752500Y-13805293D01*
X11852500Y-13733864D02*
X11966786Y-13733864D01*
X11895357Y-13633864D02*
X11895357Y-13891007D01*
X11909643Y-13919579D01*
X11938214Y-13933864D01*
X11966786Y-13933864D01*
X12181071Y-13919579D02*
X12152500Y-13933864D01*
X12095357Y-13933864D01*
X12066786Y-13919579D01*
X12052500Y-13891007D01*
X12052500Y-13776721D01*
X12066786Y-13748150D01*
X12095357Y-13733864D01*
X12152500Y-13733864D01*
X12181071Y-13748150D01*
X12195357Y-13776721D01*
X12195357Y-13805293D01*
X12052500Y-13833864D01*
X12452500Y-13933864D02*
X12452500Y-13633864D01*
X12452500Y-13919579D02*
X12423928Y-13933864D01*
X12366786Y-13933864D01*
X12338214Y-13919579D01*
X12323928Y-13905293D01*
X12309643Y-13876721D01*
X12309643Y-13791007D01*
X12323928Y-13762436D01*
X12338214Y-13748150D01*
X12366786Y-13733864D01*
X12423928Y-13733864D01*
X12452500Y-13748150D01*
X12566786Y-14048150D02*
X12581071Y-14033864D01*
X12609643Y-13991007D01*
X12623928Y-13962436D01*
X12638214Y-13919579D01*
X12652500Y-13848150D01*
X12652500Y-13791007D01*
X12638214Y-13719579D01*
X12623928Y-13676721D01*
X12609643Y-13648150D01*
X12581071Y-13605293D01*
X12566786Y-13591007D01*
X2377500Y-14034150D02*
X2377500Y-14354150D01*
X2217500Y-14194150D02*
X2537500Y-14194150D01*
X2795357Y-14029864D02*
X2981071Y-14029864D01*
X2881071Y-14144150D01*
X2923928Y-14144150D01*
X2952500Y-14158436D01*
X2966786Y-14172721D01*
X2981071Y-14201293D01*
X2981071Y-14272721D01*
X2966786Y-14301293D01*
X2952500Y-14315579D01*
X2923928Y-14329864D01*
X2838214Y-14329864D01*
X2809643Y-14315579D01*
X2795357Y-14301293D01*
X3109643Y-14301293D02*
X3123928Y-14315579D01*
X3109643Y-14329864D01*
X3095357Y-14315579D01*
X3109643Y-14301293D01*
X3109643Y-14329864D01*
X3238214Y-14058436D02*
X3252500Y-14044150D01*
X3281071Y-14029864D01*
X3352500Y-14029864D01*
X3381071Y-14044150D01*
X3395357Y-14058436D01*
X3409643Y-14087007D01*
X3409643Y-14115579D01*
X3395357Y-14158436D01*
X3223928Y-14329864D01*
X3409643Y-14329864D01*
X3595357Y-14029864D02*
X3623928Y-14029864D01*
X3652500Y-14044150D01*
X3666786Y-14058436D01*
X3681071Y-14087007D01*
X3695357Y-14144150D01*
X3695357Y-14215579D01*
X3681071Y-14272721D01*
X3666786Y-14301293D01*
X3652500Y-14315579D01*
X3623928Y-14329864D01*
X3595357Y-14329864D01*
X3566786Y-14315579D01*
X3552500Y-14301293D01*
X3538214Y-14272721D01*
X3523928Y-14215579D01*
X3523928Y-14144150D01*
X3538214Y-14087007D01*
X3552500Y-14058436D01*
X3566786Y-14044150D01*
X3595357Y-14029864D01*
X3881071Y-14029864D02*
X3909643Y-14029864D01*
X3938214Y-14044150D01*
X3952500Y-14058436D01*
X3966786Y-14087007D01*
X3981071Y-14144150D01*
X3981071Y-14215579D01*
X3966786Y-14272721D01*
X3952500Y-14301293D01*
X3938214Y-14315579D01*
X3909643Y-14329864D01*
X3881071Y-14329864D01*
X3852500Y-14315579D01*
X3838214Y-14301293D01*
X3823928Y-14272721D01*
X3809643Y-14215579D01*
X3809643Y-14144150D01*
X3823928Y-14087007D01*
X3838214Y-14058436D01*
X3852500Y-14044150D01*
X3881071Y-14029864D01*
X4109643Y-14329864D02*
X4109643Y-14129864D01*
X4109643Y-14158436D02*
X4123928Y-14144150D01*
X4152500Y-14129864D01*
X4195357Y-14129864D01*
X4223928Y-14144150D01*
X4238214Y-14172721D01*
X4238214Y-14329864D01*
X4238214Y-14172721D02*
X4252500Y-14144150D01*
X4281071Y-14129864D01*
X4323928Y-14129864D01*
X4352500Y-14144150D01*
X4366786Y-14172721D01*
X4366786Y-14329864D01*
X4509643Y-14329864D02*
X4509643Y-14129864D01*
X4509643Y-14158436D02*
X4523928Y-14144150D01*
X4552500Y-14129864D01*
X4595357Y-14129864D01*
X4623928Y-14144150D01*
X4638214Y-14172721D01*
X4638214Y-14329864D01*
X4638214Y-14172721D02*
X4652500Y-14144150D01*
X4681071Y-14129864D01*
X4723928Y-14129864D01*
X4752500Y-14144150D01*
X4766786Y-14172721D01*
X4766786Y-14329864D01*
X5352500Y-14015579D02*
X5095357Y-14401293D01*
X5738214Y-14029864D02*
X5766786Y-14029864D01*
X5795357Y-14044150D01*
X5809643Y-14058436D01*
X5823928Y-14087007D01*
X5838214Y-14144150D01*
X5838214Y-14215579D01*
X5823928Y-14272721D01*
X5809643Y-14301293D01*
X5795357Y-14315579D01*
X5766786Y-14329864D01*
X5738214Y-14329864D01*
X5709643Y-14315579D01*
X5695357Y-14301293D01*
X5681071Y-14272721D01*
X5666786Y-14215579D01*
X5666786Y-14144150D01*
X5681071Y-14087007D01*
X5695357Y-14058436D01*
X5709643Y-14044150D01*
X5738214Y-14029864D01*
X5966786Y-14301293D02*
X5981071Y-14315579D01*
X5966786Y-14329864D01*
X5952500Y-14315579D01*
X5966786Y-14301293D01*
X5966786Y-14329864D01*
X6266786Y-14329864D02*
X6095357Y-14329864D01*
X6181071Y-14329864D02*
X6181071Y-14029864D01*
X6152500Y-14072721D01*
X6123928Y-14101293D01*
X6095357Y-14115579D01*
X6381071Y-14058436D02*
X6395357Y-14044150D01*
X6423928Y-14029864D01*
X6495357Y-14029864D01*
X6523928Y-14044150D01*
X6538214Y-14058436D01*
X6552500Y-14087007D01*
X6552500Y-14115579D01*
X6538214Y-14158436D01*
X6366786Y-14329864D01*
X6552500Y-14329864D01*
X6809643Y-14029864D02*
X6752500Y-14029864D01*
X6723928Y-14044150D01*
X6709643Y-14058436D01*
X6681071Y-14101293D01*
X6666786Y-14158436D01*
X6666786Y-14272721D01*
X6681071Y-14301293D01*
X6695357Y-14315579D01*
X6723928Y-14329864D01*
X6781071Y-14329864D01*
X6809643Y-14315579D01*
X6823928Y-14301293D01*
X6838214Y-14272721D01*
X6838214Y-14201293D01*
X6823928Y-14172721D01*
X6809643Y-14158436D01*
X6781071Y-14144150D01*
X6723928Y-14144150D01*
X6695357Y-14158436D01*
X6681071Y-14172721D01*
X6666786Y-14201293D01*
X7023928Y-14029864D02*
X7052500Y-14029864D01*
X7081071Y-14044150D01*
X7095357Y-14058436D01*
X7109643Y-14087007D01*
X7123928Y-14144150D01*
X7123928Y-14215579D01*
X7109643Y-14272721D01*
X7095357Y-14301293D01*
X7081071Y-14315579D01*
X7052500Y-14329864D01*
X7023928Y-14329864D01*
X6995357Y-14315579D01*
X6981071Y-14301293D01*
X6966786Y-14272721D01*
X6952500Y-14215579D01*
X6952500Y-14144150D01*
X6966786Y-14087007D01*
X6981071Y-14058436D01*
X6995357Y-14044150D01*
X7023928Y-14029864D01*
X7238214Y-14029864D02*
X7238214Y-14087007D01*
X7352500Y-14029864D02*
X7352500Y-14087007D01*
X7795357Y-14444150D02*
X7781071Y-14429864D01*
X7752500Y-14387007D01*
X7738214Y-14358436D01*
X7723928Y-14315579D01*
X7709643Y-14244150D01*
X7709643Y-14187007D01*
X7723928Y-14115579D01*
X7738214Y-14072721D01*
X7752500Y-14044150D01*
X7781071Y-14001293D01*
X7795357Y-13987007D01*
X8038214Y-14129864D02*
X8038214Y-14329864D01*
X7966786Y-14015579D02*
X7895357Y-14229864D01*
X8081071Y-14229864D01*
X8423928Y-14329864D02*
X8423928Y-14029864D01*
X8552500Y-14329864D02*
X8552500Y-14172721D01*
X8538214Y-14144150D01*
X8509643Y-14129864D01*
X8466786Y-14129864D01*
X8438214Y-14144150D01*
X8423928Y-14158436D01*
X8738214Y-14329864D02*
X8709643Y-14315579D01*
X8695357Y-14301293D01*
X8681071Y-14272721D01*
X8681071Y-14187007D01*
X8695357Y-14158436D01*
X8709643Y-14144150D01*
X8738214Y-14129864D01*
X8781071Y-14129864D01*
X8809643Y-14144150D01*
X8823928Y-14158436D01*
X8838214Y-14187007D01*
X8838214Y-14272721D01*
X8823928Y-14301293D01*
X8809643Y-14315579D01*
X8781071Y-14329864D01*
X8738214Y-14329864D01*
X9009643Y-14329864D02*
X8981071Y-14315579D01*
X8966786Y-14287007D01*
X8966786Y-14029864D01*
X9238214Y-14315579D02*
X9209643Y-14329864D01*
X9152500Y-14329864D01*
X9123928Y-14315579D01*
X9109643Y-14287007D01*
X9109643Y-14172721D01*
X9123928Y-14144150D01*
X9152500Y-14129864D01*
X9209643Y-14129864D01*
X9238214Y-14144150D01*
X9252500Y-14172721D01*
X9252500Y-14201293D01*
X9109643Y-14229864D01*
X9366786Y-14315579D02*
X9395357Y-14329864D01*
X9452500Y-14329864D01*
X9481071Y-14315579D01*
X9495357Y-14287007D01*
X9495357Y-14272721D01*
X9481071Y-14244150D01*
X9452500Y-14229864D01*
X9409643Y-14229864D01*
X9381071Y-14215579D01*
X9366786Y-14187007D01*
X9366786Y-14172721D01*
X9381071Y-14144150D01*
X9409643Y-14129864D01*
X9452500Y-14129864D01*
X9481071Y-14144150D01*
X9595357Y-14444150D02*
X9609643Y-14429864D01*
X9638214Y-14387007D01*
X9652500Y-14358436D01*
X9666786Y-14315579D01*
X9681071Y-14244150D01*
X9681071Y-14187007D01*
X9666786Y-14115579D01*
X9652500Y-14072721D01*
X9638214Y-14044150D01*
X9609643Y-14001293D01*
X9595357Y-13987007D01*
X10138214Y-14444150D02*
X10123928Y-14429864D01*
X10095357Y-14387007D01*
X10081071Y-14358436D01*
X10066786Y-14315579D01*
X10052500Y-14244150D01*
X10052500Y-14187007D01*
X10066786Y-14115579D01*
X10081071Y-14072721D01*
X10095357Y-14044150D01*
X10123928Y-14001293D01*
X10138214Y-13987007D01*
X10252500Y-14129864D02*
X10252500Y-14329864D01*
X10252500Y-14158436D02*
X10266786Y-14144150D01*
X10295357Y-14129864D01*
X10338214Y-14129864D01*
X10366786Y-14144150D01*
X10381071Y-14172721D01*
X10381071Y-14329864D01*
X10566786Y-14329864D02*
X10538214Y-14315579D01*
X10523928Y-14301293D01*
X10509643Y-14272721D01*
X10509643Y-14187007D01*
X10523928Y-14158436D01*
X10538214Y-14144150D01*
X10566786Y-14129864D01*
X10609643Y-14129864D01*
X10638214Y-14144150D01*
X10652500Y-14158436D01*
X10666786Y-14187007D01*
X10666786Y-14272721D01*
X10652500Y-14301293D01*
X10638214Y-14315579D01*
X10609643Y-14329864D01*
X10566786Y-14329864D01*
X10752500Y-14129864D02*
X10866786Y-14129864D01*
X10795357Y-14029864D02*
X10795357Y-14287007D01*
X10809643Y-14315579D01*
X10838214Y-14329864D01*
X10866786Y-14329864D01*
X11195357Y-14129864D02*
X11195357Y-14429864D01*
X11195357Y-14144150D02*
X11223928Y-14129864D01*
X11281071Y-14129864D01*
X11309643Y-14144150D01*
X11323928Y-14158436D01*
X11338214Y-14187007D01*
X11338214Y-14272721D01*
X11323928Y-14301293D01*
X11309643Y-14315579D01*
X11281071Y-14329864D01*
X11223928Y-14329864D01*
X11195357Y-14315579D01*
X11509643Y-14329864D02*
X11481071Y-14315579D01*
X11466786Y-14287007D01*
X11466786Y-14029864D01*
X11752500Y-14329864D02*
X11752500Y-14172721D01*
X11738214Y-14144150D01*
X11709643Y-14129864D01*
X11652500Y-14129864D01*
X11623928Y-14144150D01*
X11752500Y-14315579D02*
X11723928Y-14329864D01*
X11652500Y-14329864D01*
X11623928Y-14315579D01*
X11609643Y-14287007D01*
X11609643Y-14258436D01*
X11623928Y-14229864D01*
X11652500Y-14215579D01*
X11723928Y-14215579D01*
X11752500Y-14201293D01*
X11852500Y-14129864D02*
X11966786Y-14129864D01*
X11895357Y-14029864D02*
X11895357Y-14287007D01*
X11909643Y-14315579D01*
X11938214Y-14329864D01*
X11966786Y-14329864D01*
X12181071Y-14315579D02*
X12152500Y-14329864D01*
X12095357Y-14329864D01*
X12066786Y-14315579D01*
X12052500Y-14287007D01*
X12052500Y-14172721D01*
X12066786Y-14144150D01*
X12095357Y-14129864D01*
X12152500Y-14129864D01*
X12181071Y-14144150D01*
X12195357Y-14172721D01*
X12195357Y-14201293D01*
X12052500Y-14229864D01*
X12452500Y-14329864D02*
X12452500Y-14029864D01*
X12452500Y-14315579D02*
X12423928Y-14329864D01*
X12366786Y-14329864D01*
X12338214Y-14315579D01*
X12323928Y-14301293D01*
X12309643Y-14272721D01*
X12309643Y-14187007D01*
X12323928Y-14158436D01*
X12338214Y-14144150D01*
X12366786Y-14129864D01*
X12423928Y-14129864D01*
X12452500Y-14144150D01*
X12566786Y-14444150D02*
X12581071Y-14429864D01*
X12609643Y-14387007D01*
X12623928Y-14358436D01*
X12638214Y-14315579D01*
X12652500Y-14244150D01*
X12652500Y-14187007D01*
X12638214Y-14115579D01*
X12623928Y-14072721D01*
X12609643Y-14044150D01*
X12581071Y-14001293D01*
X12566786Y-13987007D01*
M02*
