%TF.GenerationSoftware,KiCad,Pcbnew,(5.1.10)-1*%
%TF.CreationDate,2022-01-10T21:21:46+00:00*%
%TF.ProjectId,ESP32_Plotter_Controller_revB1,45535033-325f-4506-9c6f-747465725f43,rev?*%
%TF.SameCoordinates,Original*%
%TF.FileFunction,Legend,Bot*%
%TF.FilePolarity,Positive*%
%FSLAX46Y46*%
G04 Gerber Fmt 4.6, Leading zero omitted, Abs format (unit mm)*
G04 Created by KiCad (PCBNEW (5.1.10)-1) date 2022-01-10 21:21:46*
%MOMM*%
%LPD*%
G01*
G04 APERTURE LIST*
%ADD10C,0.200000*%
%ADD11O,1.200000X1.750000*%
%ADD12O,2.100000X1.000000*%
%ADD13C,0.650000*%
%ADD14O,1.600000X1.000000*%
%ADD15R,3.500000X3.500000*%
%ADD16C,1.524000*%
%ADD17C,3.200000*%
%ADD18O,1.700000X1.700000*%
%ADD19R,1.700000X1.700000*%
%ADD20O,1.750000X1.200000*%
%ADD21C,1.000000*%
G04 APERTURE END LIST*
D10*
X80645714Y-72767857D02*
X80645714Y-73739285D01*
X80702857Y-73853571D01*
X80760000Y-73910714D01*
X80874285Y-73967857D01*
X81045714Y-73967857D01*
X81160000Y-73910714D01*
X80645714Y-73510714D02*
X80760000Y-73567857D01*
X80988571Y-73567857D01*
X81102857Y-73510714D01*
X81160000Y-73453571D01*
X81217142Y-73339285D01*
X81217142Y-72996428D01*
X81160000Y-72882142D01*
X81102857Y-72825000D01*
X80988571Y-72767857D01*
X80760000Y-72767857D01*
X80645714Y-72825000D01*
X80074285Y-73567857D02*
X80074285Y-72767857D01*
X80074285Y-72367857D02*
X80131428Y-72425000D01*
X80074285Y-72482142D01*
X80017142Y-72425000D01*
X80074285Y-72367857D01*
X80074285Y-72482142D01*
X79674285Y-72767857D02*
X79217142Y-72767857D01*
X79502857Y-72367857D02*
X79502857Y-73396428D01*
X79445714Y-73510714D01*
X79331428Y-73567857D01*
X79217142Y-73567857D01*
X78817142Y-73567857D02*
X78817142Y-72367857D01*
X78302857Y-73567857D02*
X78302857Y-72939285D01*
X78360000Y-72825000D01*
X78474285Y-72767857D01*
X78645714Y-72767857D01*
X78760000Y-72825000D01*
X78817142Y-72882142D01*
X77217142Y-72767857D02*
X77217142Y-73567857D01*
X77731428Y-72767857D02*
X77731428Y-73396428D01*
X77674285Y-73510714D01*
X77560000Y-73567857D01*
X77388571Y-73567857D01*
X77274285Y-73510714D01*
X77217142Y-73453571D01*
X76645714Y-73567857D02*
X76645714Y-72367857D01*
X76645714Y-72825000D02*
X76531428Y-72767857D01*
X76302857Y-72767857D01*
X76188571Y-72825000D01*
X76131428Y-72882142D01*
X76074285Y-72996428D01*
X76074285Y-73339285D01*
X76131428Y-73453571D01*
X76188571Y-73510714D01*
X76302857Y-73567857D01*
X76531428Y-73567857D01*
X76645714Y-73510714D01*
X75560000Y-73453571D02*
X75502857Y-73510714D01*
X75560000Y-73567857D01*
X75617142Y-73510714D01*
X75560000Y-73453571D01*
X75560000Y-73567857D01*
X74474285Y-73510714D02*
X74588571Y-73567857D01*
X74817142Y-73567857D01*
X74931428Y-73510714D01*
X74988571Y-73453571D01*
X75045714Y-73339285D01*
X75045714Y-72996428D01*
X74988571Y-72882142D01*
X74931428Y-72825000D01*
X74817142Y-72767857D01*
X74588571Y-72767857D01*
X74474285Y-72825000D01*
X73788571Y-73567857D02*
X73902857Y-73510714D01*
X73960000Y-73453571D01*
X74017142Y-73339285D01*
X74017142Y-72996428D01*
X73960000Y-72882142D01*
X73902857Y-72825000D01*
X73788571Y-72767857D01*
X73617142Y-72767857D01*
X73502857Y-72825000D01*
X73445714Y-72882142D01*
X73388571Y-72996428D01*
X73388571Y-73339285D01*
X73445714Y-73453571D01*
X73502857Y-73510714D01*
X73617142Y-73567857D01*
X73788571Y-73567857D01*
X72874285Y-73567857D02*
X72874285Y-72767857D01*
X72874285Y-72882142D02*
X72817142Y-72825000D01*
X72702857Y-72767857D01*
X72531428Y-72767857D01*
X72417142Y-72825000D01*
X72360000Y-72939285D01*
X72360000Y-73567857D01*
X72360000Y-72939285D02*
X72302857Y-72825000D01*
X72188571Y-72767857D01*
X72017142Y-72767857D01*
X71902857Y-72825000D01*
X71845714Y-72939285D01*
X71845714Y-73567857D01*
X70417142Y-72310714D02*
X71445714Y-73853571D01*
X70017142Y-73567857D02*
X70017142Y-72767857D01*
X70017142Y-72882142D02*
X69960000Y-72825000D01*
X69845714Y-72767857D01*
X69674285Y-72767857D01*
X69560000Y-72825000D01*
X69502857Y-72939285D01*
X69502857Y-73567857D01*
X69502857Y-72939285D02*
X69445714Y-72825000D01*
X69331428Y-72767857D01*
X69160000Y-72767857D01*
X69045714Y-72825000D01*
X68988571Y-72939285D01*
X68988571Y-73567857D01*
X67902857Y-73567857D02*
X67902857Y-72939285D01*
X67960000Y-72825000D01*
X68074285Y-72767857D01*
X68302857Y-72767857D01*
X68417142Y-72825000D01*
X67902857Y-73510714D02*
X68017142Y-73567857D01*
X68302857Y-73567857D01*
X68417142Y-73510714D01*
X68474285Y-73396428D01*
X68474285Y-73282142D01*
X68417142Y-73167857D01*
X68302857Y-73110714D01*
X68017142Y-73110714D01*
X67902857Y-73053571D01*
X67331428Y-73567857D02*
X67331428Y-72767857D01*
X67331428Y-72996428D02*
X67274285Y-72882142D01*
X67217142Y-72825000D01*
X67102857Y-72767857D01*
X66988571Y-72767857D01*
X66588571Y-73567857D02*
X66588571Y-72367857D01*
X66474285Y-73110714D02*
X66131428Y-73567857D01*
X66131428Y-72767857D02*
X66588571Y-73225000D01*
X65617142Y-72767857D02*
X65617142Y-73796428D01*
X65674285Y-73910714D01*
X65788571Y-73967857D01*
X65845714Y-73967857D01*
X65617142Y-72367857D02*
X65674285Y-72425000D01*
X65617142Y-72482142D01*
X65560000Y-72425000D01*
X65617142Y-72367857D01*
X65617142Y-72482142D01*
X65045714Y-73567857D02*
X65045714Y-72367857D01*
X65045714Y-72825000D02*
X64931428Y-72767857D01*
X64702857Y-72767857D01*
X64588571Y-72825000D01*
X64531428Y-72882142D01*
X64474285Y-72996428D01*
X64474285Y-73339285D01*
X64531428Y-73453571D01*
X64588571Y-73510714D01*
X64702857Y-73567857D01*
X64931428Y-73567857D01*
X65045714Y-73510714D01*
X63102857Y-72310714D02*
X64131428Y-73853571D01*
X62702857Y-72939285D02*
X62302857Y-72939285D01*
X62131428Y-73567857D02*
X62702857Y-73567857D01*
X62702857Y-72367857D01*
X62131428Y-72367857D01*
X61674285Y-73510714D02*
X61502857Y-73567857D01*
X61217142Y-73567857D01*
X61102857Y-73510714D01*
X61045714Y-73453571D01*
X60988571Y-73339285D01*
X60988571Y-73225000D01*
X61045714Y-73110714D01*
X61102857Y-73053571D01*
X61217142Y-72996428D01*
X61445714Y-72939285D01*
X61560000Y-72882142D01*
X61617142Y-72825000D01*
X61674285Y-72710714D01*
X61674285Y-72596428D01*
X61617142Y-72482142D01*
X61560000Y-72425000D01*
X61445714Y-72367857D01*
X61160000Y-72367857D01*
X60988571Y-72425000D01*
X60474285Y-73567857D02*
X60474285Y-72367857D01*
X60017142Y-72367857D01*
X59902857Y-72425000D01*
X59845714Y-72482142D01*
X59788571Y-72596428D01*
X59788571Y-72767857D01*
X59845714Y-72882142D01*
X59902857Y-72939285D01*
X60017142Y-72996428D01*
X60474285Y-72996428D01*
X59388571Y-72367857D02*
X58645714Y-72367857D01*
X59045714Y-72825000D01*
X58874285Y-72825000D01*
X58760000Y-72882142D01*
X58702857Y-72939285D01*
X58645714Y-73053571D01*
X58645714Y-73339285D01*
X58702857Y-73453571D01*
X58760000Y-73510714D01*
X58874285Y-73567857D01*
X59217142Y-73567857D01*
X59331428Y-73510714D01*
X59388571Y-73453571D01*
X58188571Y-72482142D02*
X58131428Y-72425000D01*
X58017142Y-72367857D01*
X57731428Y-72367857D01*
X57617142Y-72425000D01*
X57560000Y-72482142D01*
X57502857Y-72596428D01*
X57502857Y-72710714D01*
X57560000Y-72882142D01*
X58245714Y-73567857D01*
X57502857Y-73567857D01*
X57274285Y-73682142D02*
X56360000Y-73682142D01*
X56074285Y-73567857D02*
X56074285Y-72367857D01*
X55617142Y-72367857D01*
X55502857Y-72425000D01*
X55445714Y-72482142D01*
X55388571Y-72596428D01*
X55388571Y-72767857D01*
X55445714Y-72882142D01*
X55502857Y-72939285D01*
X55617142Y-72996428D01*
X56074285Y-72996428D01*
X54702857Y-73567857D02*
X54817142Y-73510714D01*
X54874285Y-73396428D01*
X54874285Y-72367857D01*
X54074285Y-73567857D02*
X54188571Y-73510714D01*
X54245714Y-73453571D01*
X54302857Y-73339285D01*
X54302857Y-72996428D01*
X54245714Y-72882142D01*
X54188571Y-72825000D01*
X54074285Y-72767857D01*
X53902857Y-72767857D01*
X53788571Y-72825000D01*
X53731428Y-72882142D01*
X53674285Y-72996428D01*
X53674285Y-73339285D01*
X53731428Y-73453571D01*
X53788571Y-73510714D01*
X53902857Y-73567857D01*
X54074285Y-73567857D01*
X53331428Y-72767857D02*
X52874285Y-72767857D01*
X53160000Y-72367857D02*
X53160000Y-73396428D01*
X53102857Y-73510714D01*
X52988571Y-73567857D01*
X52874285Y-73567857D01*
X52645714Y-72767857D02*
X52188571Y-72767857D01*
X52474285Y-72367857D02*
X52474285Y-73396428D01*
X52417142Y-73510714D01*
X52302857Y-73567857D01*
X52188571Y-73567857D01*
X51331428Y-73510714D02*
X51445714Y-73567857D01*
X51674285Y-73567857D01*
X51788571Y-73510714D01*
X51845714Y-73396428D01*
X51845714Y-72939285D01*
X51788571Y-72825000D01*
X51674285Y-72767857D01*
X51445714Y-72767857D01*
X51331428Y-72825000D01*
X51274285Y-72939285D01*
X51274285Y-73053571D01*
X51845714Y-73167857D01*
X50760000Y-73567857D02*
X50760000Y-72767857D01*
X50760000Y-72996428D02*
X50702857Y-72882142D01*
X50645714Y-72825000D01*
X50531428Y-72767857D01*
X50417142Y-72767857D01*
X50302857Y-73682142D02*
X49388571Y-73682142D01*
X48417142Y-73453571D02*
X48474285Y-73510714D01*
X48645714Y-73567857D01*
X48760000Y-73567857D01*
X48931428Y-73510714D01*
X49045714Y-73396428D01*
X49102857Y-73282142D01*
X49160000Y-73053571D01*
X49160000Y-72882142D01*
X49102857Y-72653571D01*
X49045714Y-72539285D01*
X48931428Y-72425000D01*
X48760000Y-72367857D01*
X48645714Y-72367857D01*
X48474285Y-72425000D01*
X48417142Y-72482142D01*
X47731428Y-73567857D02*
X47845714Y-73510714D01*
X47902857Y-73453571D01*
X47960000Y-73339285D01*
X47960000Y-72996428D01*
X47902857Y-72882142D01*
X47845714Y-72825000D01*
X47731428Y-72767857D01*
X47560000Y-72767857D01*
X47445714Y-72825000D01*
X47388571Y-72882142D01*
X47331428Y-72996428D01*
X47331428Y-73339285D01*
X47388571Y-73453571D01*
X47445714Y-73510714D01*
X47560000Y-73567857D01*
X47731428Y-73567857D01*
X46817142Y-72767857D02*
X46817142Y-73567857D01*
X46817142Y-72882142D02*
X46760000Y-72825000D01*
X46645714Y-72767857D01*
X46474285Y-72767857D01*
X46360000Y-72825000D01*
X46302857Y-72939285D01*
X46302857Y-73567857D01*
X45902857Y-72767857D02*
X45445714Y-72767857D01*
X45731428Y-72367857D02*
X45731428Y-73396428D01*
X45674285Y-73510714D01*
X45560000Y-73567857D01*
X45445714Y-73567857D01*
X45045714Y-73567857D02*
X45045714Y-72767857D01*
X45045714Y-72996428D02*
X44988571Y-72882142D01*
X44931428Y-72825000D01*
X44817142Y-72767857D01*
X44702857Y-72767857D01*
X44131428Y-73567857D02*
X44245714Y-73510714D01*
X44302857Y-73453571D01*
X44360000Y-73339285D01*
X44360000Y-72996428D01*
X44302857Y-72882142D01*
X44245714Y-72825000D01*
X44131428Y-72767857D01*
X43960000Y-72767857D01*
X43845714Y-72825000D01*
X43788571Y-72882142D01*
X43731428Y-72996428D01*
X43731428Y-73339285D01*
X43788571Y-73453571D01*
X43845714Y-73510714D01*
X43960000Y-73567857D01*
X44131428Y-73567857D01*
X43045714Y-73567857D02*
X43160000Y-73510714D01*
X43217142Y-73396428D01*
X43217142Y-72367857D01*
X42417142Y-73567857D02*
X42531428Y-73510714D01*
X42588571Y-73396428D01*
X42588571Y-72367857D01*
X41502857Y-73510714D02*
X41617142Y-73567857D01*
X41845714Y-73567857D01*
X41960000Y-73510714D01*
X42017142Y-73396428D01*
X42017142Y-72939285D01*
X41960000Y-72825000D01*
X41845714Y-72767857D01*
X41617142Y-72767857D01*
X41502857Y-72825000D01*
X41445714Y-72939285D01*
X41445714Y-73053571D01*
X42017142Y-73167857D01*
X40931428Y-73567857D02*
X40931428Y-72767857D01*
X40931428Y-72996428D02*
X40874285Y-72882142D01*
X40817142Y-72825000D01*
X40702857Y-72767857D01*
X40588571Y-72767857D01*
X84245714Y-119097642D02*
X83579047Y-119097642D01*
X83293333Y-120145261D02*
X84245714Y-120145261D01*
X84245714Y-118145261D01*
X83293333Y-118145261D01*
X82531428Y-120050023D02*
X82245714Y-120145261D01*
X81769523Y-120145261D01*
X81579047Y-120050023D01*
X81483809Y-119954785D01*
X81388571Y-119764309D01*
X81388571Y-119573833D01*
X81483809Y-119383357D01*
X81579047Y-119288119D01*
X81769523Y-119192880D01*
X82150476Y-119097642D01*
X82340952Y-119002404D01*
X82436190Y-118907166D01*
X82531428Y-118716690D01*
X82531428Y-118526214D01*
X82436190Y-118335738D01*
X82340952Y-118240500D01*
X82150476Y-118145261D01*
X81674285Y-118145261D01*
X81388571Y-118240500D01*
X80531428Y-120145261D02*
X80531428Y-118145261D01*
X79769523Y-118145261D01*
X79579047Y-118240500D01*
X79483809Y-118335738D01*
X79388571Y-118526214D01*
X79388571Y-118811928D01*
X79483809Y-119002404D01*
X79579047Y-119097642D01*
X79769523Y-119192880D01*
X80531428Y-119192880D01*
X78721904Y-118145261D02*
X77483809Y-118145261D01*
X78150476Y-118907166D01*
X77864761Y-118907166D01*
X77674285Y-119002404D01*
X77579047Y-119097642D01*
X77483809Y-119288119D01*
X77483809Y-119764309D01*
X77579047Y-119954785D01*
X77674285Y-120050023D01*
X77864761Y-120145261D01*
X78436190Y-120145261D01*
X78626666Y-120050023D01*
X78721904Y-119954785D01*
X76721904Y-118335738D02*
X76626666Y-118240500D01*
X76436190Y-118145261D01*
X75960000Y-118145261D01*
X75769523Y-118240500D01*
X75674285Y-118335738D01*
X75579047Y-118526214D01*
X75579047Y-118716690D01*
X75674285Y-119002404D01*
X76817142Y-120145261D01*
X75579047Y-120145261D01*
X72626666Y-120907166D02*
X72721904Y-120811928D01*
X72912380Y-120526214D01*
X73007619Y-120335738D01*
X73102857Y-120050023D01*
X73198095Y-119573833D01*
X73198095Y-119192880D01*
X73102857Y-118716690D01*
X73007619Y-118430976D01*
X72912380Y-118240500D01*
X72721904Y-117954785D01*
X72626666Y-117859547D01*
X72150476Y-118145261D02*
X71007619Y-118145261D01*
X71579047Y-120145261D02*
X71579047Y-118145261D01*
X70340952Y-120145261D02*
X70340952Y-118145261D01*
X69674285Y-119573833D01*
X69007619Y-118145261D01*
X69007619Y-120145261D01*
X66912380Y-119954785D02*
X67007619Y-120050023D01*
X67293333Y-120145261D01*
X67483809Y-120145261D01*
X67769523Y-120050023D01*
X67960000Y-119859547D01*
X68055238Y-119669071D01*
X68150476Y-119288119D01*
X68150476Y-119002404D01*
X68055238Y-118621452D01*
X67960000Y-118430976D01*
X67769523Y-118240500D01*
X67483809Y-118145261D01*
X67293333Y-118145261D01*
X67007619Y-118240500D01*
X66912380Y-118335738D01*
X66245714Y-120907166D02*
X66150476Y-120811928D01*
X65960000Y-120526214D01*
X65864761Y-120335738D01*
X65769523Y-120050023D01*
X65674285Y-119573833D01*
X65674285Y-119192880D01*
X65769523Y-118716690D01*
X65864761Y-118430976D01*
X65960000Y-118240500D01*
X66150476Y-117954785D01*
X66245714Y-117859547D01*
X63198095Y-120145261D02*
X63198095Y-118145261D01*
X62436190Y-118145261D01*
X62245714Y-118240500D01*
X62150476Y-118335738D01*
X62055238Y-118526214D01*
X62055238Y-118811928D01*
X62150476Y-119002404D01*
X62245714Y-119097642D01*
X62436190Y-119192880D01*
X63198095Y-119192880D01*
X60912380Y-120145261D02*
X61102857Y-120050023D01*
X61198095Y-119859547D01*
X61198095Y-118145261D01*
X59864761Y-120145261D02*
X60055238Y-120050023D01*
X60150476Y-119954785D01*
X60245714Y-119764309D01*
X60245714Y-119192880D01*
X60150476Y-119002404D01*
X60055238Y-118907166D01*
X59864761Y-118811928D01*
X59579047Y-118811928D01*
X59388571Y-118907166D01*
X59293333Y-119002404D01*
X59198095Y-119192880D01*
X59198095Y-119764309D01*
X59293333Y-119954785D01*
X59388571Y-120050023D01*
X59579047Y-120145261D01*
X59864761Y-120145261D01*
X58626666Y-118811928D02*
X57864761Y-118811928D01*
X58340952Y-118145261D02*
X58340952Y-119859547D01*
X58245714Y-120050023D01*
X58055238Y-120145261D01*
X57864761Y-120145261D01*
X57483809Y-118811928D02*
X56721904Y-118811928D01*
X57198095Y-118145261D02*
X57198095Y-119859547D01*
X57102857Y-120050023D01*
X56912380Y-120145261D01*
X56721904Y-120145261D01*
X55293333Y-120050023D02*
X55483809Y-120145261D01*
X55864761Y-120145261D01*
X56055238Y-120050023D01*
X56150476Y-119859547D01*
X56150476Y-119097642D01*
X56055238Y-118907166D01*
X55864761Y-118811928D01*
X55483809Y-118811928D01*
X55293333Y-118907166D01*
X55198095Y-119097642D01*
X55198095Y-119288119D01*
X56150476Y-119478595D01*
X54340952Y-120145261D02*
X54340952Y-118811928D01*
X54340952Y-119192880D02*
X54245714Y-119002404D01*
X54150476Y-118907166D01*
X53960000Y-118811928D01*
X53769523Y-118811928D01*
X50436190Y-119954785D02*
X50531428Y-120050023D01*
X50817142Y-120145261D01*
X51007619Y-120145261D01*
X51293333Y-120050023D01*
X51483809Y-119859547D01*
X51579047Y-119669071D01*
X51674285Y-119288119D01*
X51674285Y-119002404D01*
X51579047Y-118621452D01*
X51483809Y-118430976D01*
X51293333Y-118240500D01*
X51007619Y-118145261D01*
X50817142Y-118145261D01*
X50531428Y-118240500D01*
X50436190Y-118335738D01*
X49293333Y-120145261D02*
X49483809Y-120050023D01*
X49579047Y-119954785D01*
X49674285Y-119764309D01*
X49674285Y-119192880D01*
X49579047Y-119002404D01*
X49483809Y-118907166D01*
X49293333Y-118811928D01*
X49007619Y-118811928D01*
X48817142Y-118907166D01*
X48721904Y-119002404D01*
X48626666Y-119192880D01*
X48626666Y-119764309D01*
X48721904Y-119954785D01*
X48817142Y-120050023D01*
X49007619Y-120145261D01*
X49293333Y-120145261D01*
X47769523Y-118811928D02*
X47769523Y-120145261D01*
X47769523Y-119002404D02*
X47674285Y-118907166D01*
X47483809Y-118811928D01*
X47198095Y-118811928D01*
X47007619Y-118907166D01*
X46912380Y-119097642D01*
X46912380Y-120145261D01*
X46245714Y-118811928D02*
X45483809Y-118811928D01*
X45960000Y-118145261D02*
X45960000Y-119859547D01*
X45864761Y-120050023D01*
X45674285Y-120145261D01*
X45483809Y-120145261D01*
X44817142Y-120145261D02*
X44817142Y-118811928D01*
X44817142Y-119192880D02*
X44721904Y-119002404D01*
X44626666Y-118907166D01*
X44436190Y-118811928D01*
X44245714Y-118811928D01*
X43293333Y-120145261D02*
X43483809Y-120050023D01*
X43579047Y-119954785D01*
X43674285Y-119764309D01*
X43674285Y-119192880D01*
X43579047Y-119002404D01*
X43483809Y-118907166D01*
X43293333Y-118811928D01*
X43007619Y-118811928D01*
X42817142Y-118907166D01*
X42721904Y-119002404D01*
X42626666Y-119192880D01*
X42626666Y-119764309D01*
X42721904Y-119954785D01*
X42817142Y-120050023D01*
X43007619Y-120145261D01*
X43293333Y-120145261D01*
X41483809Y-120145261D02*
X41674285Y-120050023D01*
X41769523Y-119859547D01*
X41769523Y-118145261D01*
X40436190Y-120145261D02*
X40626666Y-120050023D01*
X40721904Y-119859547D01*
X40721904Y-118145261D01*
X38912380Y-120050023D02*
X39102857Y-120145261D01*
X39483809Y-120145261D01*
X39674285Y-120050023D01*
X39769523Y-119859547D01*
X39769523Y-119097642D01*
X39674285Y-118907166D01*
X39483809Y-118811928D01*
X39102857Y-118811928D01*
X38912380Y-118907166D01*
X38817142Y-119097642D01*
X38817142Y-119288119D01*
X39769523Y-119478595D01*
X37960000Y-120145261D02*
X37960000Y-118811928D01*
X37960000Y-119192880D02*
X37864761Y-119002404D01*
X37769523Y-118907166D01*
X37579047Y-118811928D01*
X37388571Y-118811928D01*
X77102857Y-123345261D02*
X77769523Y-122392880D01*
X78245714Y-123345261D02*
X78245714Y-121345261D01*
X77483809Y-121345261D01*
X77293333Y-121440500D01*
X77198095Y-121535738D01*
X77102857Y-121726214D01*
X77102857Y-122011928D01*
X77198095Y-122202404D01*
X77293333Y-122297642D01*
X77483809Y-122392880D01*
X78245714Y-122392880D01*
X75483809Y-123250023D02*
X75674285Y-123345261D01*
X76055238Y-123345261D01*
X76245714Y-123250023D01*
X76340952Y-123059547D01*
X76340952Y-122297642D01*
X76245714Y-122107166D01*
X76055238Y-122011928D01*
X75674285Y-122011928D01*
X75483809Y-122107166D01*
X75388571Y-122297642D01*
X75388571Y-122488119D01*
X76340952Y-122678595D01*
X74721904Y-122011928D02*
X74245714Y-123345261D01*
X73769523Y-122011928D01*
X73007619Y-123154785D02*
X72912380Y-123250023D01*
X73007619Y-123345261D01*
X73102857Y-123250023D01*
X73007619Y-123154785D01*
X73007619Y-123345261D01*
X73007619Y-122107166D02*
X72912380Y-122202404D01*
X73007619Y-122297642D01*
X73102857Y-122202404D01*
X73007619Y-122107166D01*
X73007619Y-122297642D01*
X71388571Y-122297642D02*
X71102857Y-122392880D01*
X71007619Y-122488119D01*
X70912380Y-122678595D01*
X70912380Y-122964309D01*
X71007619Y-123154785D01*
X71102857Y-123250023D01*
X71293333Y-123345261D01*
X72055238Y-123345261D01*
X72055238Y-121345261D01*
X71388571Y-121345261D01*
X71198095Y-121440500D01*
X71102857Y-121535738D01*
X71007619Y-121726214D01*
X71007619Y-121916690D01*
X71102857Y-122107166D01*
X71198095Y-122202404D01*
X71388571Y-122297642D01*
X72055238Y-122297642D01*
X68436190Y-121345261D02*
X68626666Y-121726214D01*
X67579047Y-122297642D02*
X66912380Y-122297642D01*
X66626666Y-123345261D02*
X67579047Y-123345261D01*
X67579047Y-121345261D01*
X66626666Y-121345261D01*
X65769523Y-123345261D02*
X65769523Y-121345261D01*
X65102857Y-122773833D01*
X64436190Y-121345261D01*
X64436190Y-123345261D01*
X63483809Y-122297642D02*
X62817142Y-122297642D01*
X62531428Y-123345261D02*
X63483809Y-123345261D01*
X63483809Y-121345261D01*
X62531428Y-121345261D01*
X60531428Y-123345261D02*
X61198095Y-122392880D01*
X61674285Y-123345261D02*
X61674285Y-121345261D01*
X60912380Y-121345261D01*
X60721904Y-121440500D01*
X60626666Y-121535738D01*
X60531428Y-121726214D01*
X60531428Y-122011928D01*
X60626666Y-122202404D01*
X60721904Y-122297642D01*
X60912380Y-122392880D01*
X61674285Y-122392880D01*
X59769523Y-122773833D02*
X58817142Y-122773833D01*
X59960000Y-123345261D02*
X59293333Y-121345261D01*
X58626666Y-123345261D01*
X57007619Y-123345261D02*
X57960000Y-123345261D01*
X57960000Y-121345261D01*
X56340952Y-123345261D02*
X56340952Y-121345261D01*
X55864761Y-121345261D01*
X55579047Y-121440500D01*
X55388571Y-121630976D01*
X55293333Y-121821452D01*
X55198095Y-122202404D01*
X55198095Y-122488119D01*
X55293333Y-122869071D01*
X55388571Y-123059547D01*
X55579047Y-123250023D01*
X55864761Y-123345261D01*
X56340952Y-123345261D01*
X52817142Y-123345261D02*
X52817142Y-121345261D01*
X52340952Y-121345261D01*
X52055238Y-121440500D01*
X51864761Y-121630976D01*
X51769523Y-121821452D01*
X51674285Y-122202404D01*
X51674285Y-122488119D01*
X51769523Y-122869071D01*
X51864761Y-123059547D01*
X52055238Y-123250023D01*
X52340952Y-123345261D01*
X52817142Y-123345261D01*
X50817142Y-123345261D02*
X50817142Y-121345261D01*
X49864761Y-123345261D02*
X49864761Y-121345261D01*
X48721904Y-123345261D01*
X48721904Y-121345261D01*
X46721904Y-121440500D02*
X46912380Y-121345261D01*
X47198095Y-121345261D01*
X47483809Y-121440500D01*
X47674285Y-121630976D01*
X47769523Y-121821452D01*
X47864761Y-122202404D01*
X47864761Y-122488119D01*
X47769523Y-122869071D01*
X47674285Y-123059547D01*
X47483809Y-123250023D01*
X47198095Y-123345261D01*
X47007619Y-123345261D01*
X46721904Y-123250023D01*
X46626666Y-123154785D01*
X46626666Y-122488119D01*
X47007619Y-122488119D01*
X45388571Y-121345261D02*
X45007619Y-121345261D01*
X44817142Y-121440500D01*
X44626666Y-121630976D01*
X44531428Y-122011928D01*
X44531428Y-122678595D01*
X44626666Y-123059547D01*
X44817142Y-123250023D01*
X45007619Y-123345261D01*
X45388571Y-123345261D01*
X45579047Y-123250023D01*
X45769523Y-123059547D01*
X45864761Y-122678595D01*
X45864761Y-122011928D01*
X45769523Y-121630976D01*
X45579047Y-121440500D01*
X45388571Y-121345261D01*
X43579047Y-121345261D02*
X43769523Y-121726214D01*
%LPC*%
D11*
X40227000Y-116840000D03*
G36*
G01*
X37627000Y-117465001D02*
X37627000Y-116214999D01*
G75*
G02*
X37876999Y-115965000I249999J0D01*
G01*
X38577001Y-115965000D01*
G75*
G02*
X38827000Y-116214999I0J-249999D01*
G01*
X38827000Y-117465001D01*
G75*
G02*
X38577001Y-117715000I-249999J0D01*
G01*
X37876999Y-117715000D01*
G75*
G02*
X37627000Y-117465001I0J249999D01*
G01*
G37*
X84104000Y-116840000D03*
X82104000Y-116840000D03*
X80104000Y-116840000D03*
X78104000Y-116840000D03*
X76104000Y-116840000D03*
X74104000Y-116840000D03*
X72104000Y-116840000D03*
G36*
G01*
X69504000Y-117465001D02*
X69504000Y-116214999D01*
G75*
G02*
X69753999Y-115965000I249999J0D01*
G01*
X70454001Y-115965000D01*
G75*
G02*
X70704000Y-116214999I0J-249999D01*
G01*
X70704000Y-117465001D01*
G75*
G02*
X70454001Y-117715000I-249999J0D01*
G01*
X69753999Y-117715000D01*
G75*
G02*
X69504000Y-117465001I0J249999D01*
G01*
G37*
X49593000Y-116840000D03*
X47593000Y-116840000D03*
G36*
G01*
X44993000Y-117465001D02*
X44993000Y-116214999D01*
G75*
G02*
X45242999Y-115965000I249999J0D01*
G01*
X45943001Y-115965000D01*
G75*
G02*
X46193000Y-116214999I0J-249999D01*
G01*
X46193000Y-117465001D01*
G75*
G02*
X45943001Y-117715000I-249999J0D01*
G01*
X45242999Y-117715000D01*
G75*
G02*
X44993000Y-117465001I0J249999D01*
G01*
G37*
X64864000Y-116840000D03*
X62864000Y-116840000D03*
X60864000Y-116840000D03*
X58864000Y-116840000D03*
X56864000Y-116840000D03*
G36*
G01*
X54264000Y-117465001D02*
X54264000Y-116214999D01*
G75*
G02*
X54513999Y-115965000I249999J0D01*
G01*
X55214001Y-115965000D01*
G75*
G02*
X55464000Y-116214999I0J-249999D01*
G01*
X55464000Y-117465001D01*
G75*
G02*
X55214001Y-117715000I-249999J0D01*
G01*
X54513999Y-117715000D01*
G75*
G02*
X54264000Y-117465001I0J249999D01*
G01*
G37*
D12*
X32594000Y-115318000D03*
X32594000Y-106678000D03*
D13*
X32064000Y-108108000D03*
D14*
X28414000Y-106678000D03*
D13*
X32064000Y-113888000D03*
D14*
X28414000Y-115318000D03*
G36*
G01*
X34620000Y-104381000D02*
X34620000Y-102631000D01*
G75*
G02*
X35495000Y-101756000I875000J0D01*
G01*
X37245000Y-101756000D01*
G75*
G02*
X38120000Y-102631000I0J-875000D01*
G01*
X38120000Y-104381000D01*
G75*
G02*
X37245000Y-105256000I-875000J0D01*
G01*
X35495000Y-105256000D01*
G75*
G02*
X34620000Y-104381000I0J875000D01*
G01*
G37*
G36*
G01*
X31870000Y-99806000D02*
X31870000Y-97806000D01*
G75*
G02*
X32620000Y-97056000I750000J0D01*
G01*
X34120000Y-97056000D01*
G75*
G02*
X34870000Y-97806000I0J-750000D01*
G01*
X34870000Y-99806000D01*
G75*
G02*
X34120000Y-100556000I-750000J0D01*
G01*
X32620000Y-100556000D01*
G75*
G02*
X31870000Y-99806000I0J750000D01*
G01*
G37*
D15*
X39370000Y-98806000D03*
D11*
X68408800Y-76657200D03*
X70408800Y-76657200D03*
G36*
G01*
X73008800Y-76032199D02*
X73008800Y-77282201D01*
G75*
G02*
X72758801Y-77532200I-249999J0D01*
G01*
X72058799Y-77532200D01*
G75*
G02*
X71808800Y-77282201I0J249999D01*
G01*
X71808800Y-76032199D01*
G75*
G02*
X72058799Y-75782200I249999J0D01*
G01*
X72758801Y-75782200D01*
G75*
G02*
X73008800Y-76032199I0J-249999D01*
G01*
G37*
X47498500Y-76708000D03*
X49498500Y-76708000D03*
G36*
G01*
X52098500Y-76082999D02*
X52098500Y-77333001D01*
G75*
G02*
X51848501Y-77583000I-249999J0D01*
G01*
X51148499Y-77583000D01*
G75*
G02*
X50898500Y-77333001I0J249999D01*
G01*
X50898500Y-76082999D01*
G75*
G02*
X51148499Y-75833000I249999J0D01*
G01*
X51848501Y-75833000D01*
G75*
G02*
X52098500Y-76082999I0J-249999D01*
G01*
G37*
X56979300Y-76708000D03*
X58979300Y-76708000D03*
X60979300Y-76708000D03*
G36*
G01*
X63579300Y-76082999D02*
X63579300Y-77333001D01*
G75*
G02*
X63329301Y-77583000I-249999J0D01*
G01*
X62629299Y-77583000D01*
G75*
G02*
X62379300Y-77333001I0J249999D01*
G01*
X62379300Y-76082999D01*
G75*
G02*
X62629299Y-75833000I249999J0D01*
G01*
X63329301Y-75833000D01*
G75*
G02*
X63579300Y-76082999I0J-249999D01*
G01*
G37*
X77934300Y-76708000D03*
X79934300Y-76708000D03*
X81934300Y-76708000D03*
G36*
G01*
X84534300Y-76082999D02*
X84534300Y-77333001D01*
G75*
G02*
X84284301Y-77583000I-249999J0D01*
G01*
X83584299Y-77583000D01*
G75*
G02*
X83334300Y-77333001I0J249999D01*
G01*
X83334300Y-76082999D01*
G75*
G02*
X83584299Y-75833000I249999J0D01*
G01*
X84284301Y-75833000D01*
G75*
G02*
X84534300Y-76082999I0J-249999D01*
G01*
G37*
X40024300Y-76708000D03*
G36*
G01*
X42624300Y-76082999D02*
X42624300Y-77333001D01*
G75*
G02*
X42374301Y-77583000I-249999J0D01*
G01*
X41674299Y-77583000D01*
G75*
G02*
X41424300Y-77333001I0J249999D01*
G01*
X41424300Y-76082999D01*
G75*
G02*
X41674299Y-75833000I249999J0D01*
G01*
X42374301Y-75833000D01*
G75*
G02*
X42624300Y-76082999I0J-249999D01*
G01*
G37*
D16*
X68961000Y-92583000D03*
X67691000Y-91313000D03*
X67691000Y-93853000D03*
X85471000Y-96393000D03*
X82931000Y-96393000D03*
X80391000Y-96393000D03*
X77851000Y-96393000D03*
X75311000Y-96393000D03*
X72771000Y-96393000D03*
X70231000Y-96393000D03*
X67691000Y-96393000D03*
X67691000Y-83693000D03*
X70231000Y-83693000D03*
X72771000Y-83693000D03*
X75311000Y-83693000D03*
X77851000Y-83693000D03*
X80391000Y-83693000D03*
X82931000Y-83693000D03*
X85471000Y-83693000D03*
X47625000Y-92583000D03*
X46355000Y-91313000D03*
X46355000Y-93853000D03*
X64135000Y-96393000D03*
X61595000Y-96393000D03*
X59055000Y-96393000D03*
X56515000Y-96393000D03*
X53975000Y-96393000D03*
X51435000Y-96393000D03*
X48895000Y-96393000D03*
X46355000Y-96393000D03*
X46355000Y-83693000D03*
X48895000Y-83693000D03*
X51435000Y-83693000D03*
X53975000Y-83693000D03*
X56515000Y-83693000D03*
X59055000Y-83693000D03*
X61595000Y-83693000D03*
X64135000Y-83693000D03*
D17*
X90170000Y-72898000D03*
X29210000Y-72898000D03*
X90170000Y-120650000D03*
X29210000Y-120650000D03*
D18*
X89598500Y-78803500D03*
D19*
X92138500Y-78803500D03*
D18*
X89535000Y-83058000D03*
D19*
X92075000Y-83058000D03*
D18*
X38735000Y-81280000D03*
X38735000Y-83820000D03*
D19*
X38735000Y-86360000D03*
D18*
X91440000Y-104394000D03*
X88900000Y-104394000D03*
X91440000Y-106934000D03*
X88900000Y-106934000D03*
X91440000Y-109474000D03*
X88900000Y-109474000D03*
X91440000Y-112014000D03*
X88900000Y-112014000D03*
X91440000Y-114554000D03*
D19*
X88900000Y-114554000D03*
D20*
X32893000Y-90773000D03*
G36*
G01*
X32267999Y-88173000D02*
X33518001Y-88173000D01*
G75*
G02*
X33768000Y-88422999I0J-249999D01*
G01*
X33768000Y-89123001D01*
G75*
G02*
X33518001Y-89373000I-249999J0D01*
G01*
X32267999Y-89373000D01*
G75*
G02*
X32018000Y-89123001I0J249999D01*
G01*
X32018000Y-88422999D01*
G75*
G02*
X32267999Y-88173000I249999J0D01*
G01*
G37*
X32893000Y-83248000D03*
X32893000Y-81248000D03*
G36*
G01*
X32267999Y-78648000D02*
X33518001Y-78648000D01*
G75*
G02*
X33768000Y-78897999I0J-249999D01*
G01*
X33768000Y-79598001D01*
G75*
G02*
X33518001Y-79848000I-249999J0D01*
G01*
X32267999Y-79848000D01*
G75*
G02*
X32018000Y-79598001I0J249999D01*
G01*
X32018000Y-78897999D01*
G75*
G02*
X32267999Y-78648000I249999J0D01*
G01*
G37*
X117475000Y-102140000D03*
G36*
G01*
X118100001Y-104740000D02*
X116849999Y-104740000D01*
G75*
G02*
X116600000Y-104490001I0J249999D01*
G01*
X116600000Y-103789999D01*
G75*
G02*
X116849999Y-103540000I249999J0D01*
G01*
X118100001Y-103540000D01*
G75*
G02*
X118350000Y-103789999I0J-249999D01*
G01*
X118350000Y-104490001D01*
G75*
G02*
X118100001Y-104740000I-249999J0D01*
G01*
G37*
D21*
X111730000Y-120462000D03*
X103730000Y-120462000D03*
M02*
